<?xml version="1.0" encoding="UTF-8"?>
<svg width="1200pt" height="1200pt" version="1.1" viewBox="0 0 1200 1200" xmlns="http://www.w3.org/2000/svg">
 <path d="m856.08 1023.8c-0.51562-0.23438-1.0312-0.23438-1.4531 0.14062s-0.60938 0.89062-0.42188 1.4531c1.2188 4.3594 2.3438 9.0469 3.2344 14.156 1.5 8.8125 2.3906 13.594 2.4844 14.344 5.3438 25.312 10.266 50.625 14.812 76.031 1.2656 7.2188 4.4062 19.641-4.125 22.688-11.062 4.0312-20.297 3.7031-35.297 3.7031h-648.71c-4.6875 0-11.812-0.89062-14.719-4.875-3-4.0781-4.8281-8.4375-5.4375-13.125-0.32812-2.2031-0.09375-6.7969 0.75-13.828 0.9375-8.3438 1.3125-16.172 1.2188-23.438-0.09375-4.875 0.09375-9.0938 0.46875-12.656 0.09375-0.89062 0.375-5.0625 0.79688-12.703 0.32812-4.5469 0.89062-9.9375 1.6875-16.078 0.5625-4.1719 0.9375-9.5625 1.1719-16.125 0.14062-3.5625 0.70312-8.8125 1.8281-15.75 0.75-5.0625 1.3594-9.7969 1.875-14.25 0.70312-6.4219 1.125-13.031 2.3906-18.984 0.75-3.7031 1.5-8.4375 2.1094-14.109 0.23438-2.3438 0.9375-6.3281 2.0156-11.812 0.84375-4.2188 1.3125-6.8906 1.4062-7.9688 0.32812-3.0938 0.75-5.7188 1.3125-7.875 0-0.046875 1.5938-6.9844 4.6406-20.812 4.8281-21.234 11.203-42.094 19.266-62.531 6.0469-15.516 13.547-30.094 22.406-43.594 17.531-26.484 40.406-46.875 68.062-63.656 21-12.75 43.688-23.25 67.969-31.594 13.312-4.5469 26.484-8.3438 39.562-11.484 3.6094-0.89062 7.5938-1.5 11.906-1.875 1.0781-0.046875 1.5-0.60938 1.3125-1.6875-0.79688-3.75-1.2188-6.4219-1.3594-7.9219-1.125-13.5-1.7344-25.594-1.875-36.141-0.046875-1.1719-0.60938-1.875-1.8281-2.0156-17.531-1.9688-34.219-7.5469-50.062-16.688-4.5469-2.625-9.4219-6-14.672-10.125-4.4531-3.4688-8.8594-7.5-13.359-11.906-2.7188-2.625-6.5625-7.0781-11.578-13.266-3.9375-4.8281-7.3125-9.5625-10.266-14.391-6.7969-11.109-12.609-23.297-17.344-36.562-2.7656-7.7344-4.2656-11.859-4.4062-12.375-4.5469-12.938-6.7969-25.172-9.6094-40.5-0.60938-3.6094-1.125-8.2969-1.4531-13.922-0.1875-2.7656-0.5625-5.8594-1.125-9.3281-0.46875-3.0469-0.84375-6.0938-0.98438-9.1875-0.98438-19.781-0.79688-36.047 0.70312-48.797 0.9375-8.2031 1.5-14.578 1.5938-19.078 0.14062-5.3438 0.375-9.1875 0.65625-11.25 0.46875-3.7969 0.98438-7.5469 1.5-11.25 0.1875-0.9375-0.1875-1.5-1.0781-1.875-0.60938-0.23438-1.7344-0.42188-3.3281-0.65625-3.5625-0.51562-6.4219-2.3906-9.2812-4.7812-9.9375-8.3438-18.844-17.531-26.719-27.75-5.6719-7.4062-11.25-15.469-16.547-24.234-14.25-23.391-23.25-48.984-27.047-76.828-1.125-8.25-1.4531-16.219-0.9375-24 0.5625-8.625 1.6875-16.594 3.4219-24 5.9531-25.875 18.562-47.109 38.016-63.797 16.406-14.062 35.062-23.625 55.922-28.641 3.8906-0.9375 10.5-2.1094 19.922-3.5625 6.4688-0.98438 14.016-0.84375 22.781 0.375 7.3594 1.0312 15.188 2.625 23.484 4.8281 1.0781 0.23438 2.0156 0 2.7656-0.75 2.0625-2.1094 4.2188-5.1094 6.75-7.1719 6-4.875 11.672-10.406 17.859-14.766 16.312-11.391 33.047-20.953 50.203-28.688 16.219-7.3594 34.875-13.078 55.875-17.062 5.1094-0.98438 10.875-1.6406 17.297-1.875 7.5469-0.23438 16.5-1.4531 24.984-1.1719 1.875 0.046875 4.4531 0.23438 7.5938 0.5625 7.125 0.65625 14.719 0.5625 20.625 1.3125 21.422 2.7188 41.297 7.7812 59.672 15.234 7.0781 2.8125 15 6.5156 23.859 11.062 7.7812 3.9375 14.625 7.9219 20.719 11.953 21.609 14.344 40.219 30.984 55.875 49.969 14.625 17.766 26.812 37.406 36.656 58.828 0.375 0.9375 0.9375 1.5469 1.5938 1.875 0.98438 0.5625 1.875 0.79688 2.5312 0.60938 5.3438-1.3594 10.031-1.7812 14.156-1.3125 4.7812 0.5625 8.4844 0.9375 11.156 1.2188 4.0312 0.375 7.7812 0.98438 11.203 1.9219 6.3281 1.6406 11.625 3.1406 15.797 4.5 15.469 5.0625 29.906 12.234 43.312 21.609 5.7188 3.9375 11.906 9.0938 18.562 15.281 18.188 16.969 33.469 36.75 45.75 59.156 1.2656 2.2031 3.4688 6.6562 6.7031 13.312 2.4844 5.1562 4.5 9.7031 6 13.781 4.7344 12.656 8.25 25.219 10.5 37.547 1.3125 7.3125 2.5781 15.328 3.75 24 0.79688 6.1406 1.2656 12.891 1.2656 20.297v20.391c-0.09375 5.1094-0.32812 9.5156-0.75 13.172-0.70312 5.9062-0.89062 10.781-1.9688 17.531-1.0312 6.6562-1.5469 14.344-2.6719 20.672-3.75 21.188-8.9531 41.812-15.562 61.875-3.375 10.266-7.3594 21.797-12 34.734-1.6875 4.6875-3.4219 11.812-5.2969 21.469-1.0312 5.3438-1.125 10.031-0.32812 13.969 1.3594 7.0312 4.4531 13.453 9.1875 19.312 5.9531 7.4531 10.312 12.703 12.938 15.562 5.1094 5.625 8.9531 10.125 11.438 13.641 1.1719 1.5469 4.5469 6.0469 9.9844 13.5 7.2188 9.6094 12.844 20.297 16.969 32.016 1.6875 4.9688 3.2344 10.734 4.5469 17.25 1.6406 7.7812 2.625 13.688 3.1406 17.625 0.65625 5.8594 0.9375 12.422 0.65625 19.734-0.09375 4.7344-0.60938 9.1875-1.4062 13.266-1.0781 5.1562-1.4531 11.344-3.1406 17.344-4.2656 15.375-10.641 29.812-19.078 43.453-11.297 18.328-18.984 31.172-22.969 38.672-4.125 7.6875-6.75 13.453-7.875 17.156-0.89062 2.8594-1.6406 6.6562-2.25 11.531-0.65625 4.5 0.28125 9.4688 2.8594 14.906 3.4219 7.2188 8.9531 13.172 16.547 17.812 9.375 5.6719 19.406 9.7969 29.812 12.375 2.9062 0.75 8.1562 1.875 15.891 3.5625 8.0625 1.6875 17.484 0.98438 24.891 1.3125 3.75 0.1875 7.4062 1.125 9.75 4.3594 5.1562 7.2656 3.4219 14.859-1.5938 21.609-3.6562 4.875-7.2188 8.9531-10.781 12.281-10.875 10.219-23.578 19.172-38.016 26.812-11.297 5.9062-22.828 10.5-34.547 13.594-3.7031 1.0312-8.3906 1.7812-14.062 2.25-1.9688 0.1875-6.7031 0.70312-14.25 1.5938-2.9062 0.375-7.3125 0.42188-13.219 0.23438-3.75-0.14062-8.1094-0.42188-13.125-0.98438-4.7812-0.51562-7.9688-0.84375-9.6562-0.9375-3.8438-0.32812-7.0312-0.89062-9.5625-1.7812-6.1406-2.0625-11.203-4.125-15.188-6.1875zm-213.52-601.18c0.51562 0.51562 1.125 0.60937 1.875 0.375 7.5-2.0156 15.047-2.4375 22.734-1.3125 7.5938 1.125 14.531 3.7969 20.719 8.0156 7.5938 5.1094 13.359 12.094 17.297 21 6 13.688 7.1719 28.312 3.5156 43.875-1.6406 6.9844-3.0938 12-4.3125 15.047-9.6562 23.438-24.328 42.375-44.062 56.859-4.0312 2.9531-8.3906 5.5781-13.125 7.9688-6.75 3.2812-11.531 5.2969-14.203 6.0469-5.4375 1.3594-10.734 2.3906-15.938 2.8594-9.1406 0.9375-15-1.125-23.953-3.5625-1.7812-0.46875-2.8594 0.1875-3.1875 2.0156l-2.1562 11.672c-0.32812 1.6406 0.375 2.4375 1.9688 2.5312 7.875 0.28125 16.125 0.09375 24.75-0.5625 5.0156-0.375 9.5156-1.0781 13.453-1.9688 6.0469-1.4062 10.5-2.4844 13.312-3.2344 25.641-6.8906 45.984-21.234 63.609-41.391 4.6875-5.4375 7.6875-9 9.0938-10.734 19.172-24.562 33.656-52.078 43.594-82.359 7.9688-24.516 14.203-49.969 18.656-76.406 1.6875-9.8438-0.09375-27.094 16.781-22.969 1.7812 0.42188 3.0938 1.2188 3.8438 2.5312 1.7812 2.8125 2.625 6.0938 2.4375 9.75-0.32812 5.7656-0.51562 9-0.51562 9.8438-0.23438 3.1875-0.70312 6.4219-1.3594 9.75-0.5625 2.4844-1.8281 8.8594-3.8438 18.984-1.9219 9.7969-5.3438 23.391-10.219 40.688-3.75 13.266-8.7188 27.141-14.906 41.578-3.6562 8.7188-7.125 15.938-10.359 21.609-9.1406 16.266-19.641 31.547-31.5 45.984-15.188 18.562-33.891 34.969-55.688 44.578-12.797 5.625-26.766 10.312-41.016 12.047-1.4062 0.1875-2.1094 1.0312-2.1562 2.4375-0.09375 5.2031 0.42188 10.453 1.4062 15.656 2.1562 10.359 4.7812 21.281 9.4688 30.609 6.9844 13.875 17.672 24.562 32.109 32.062 6.3281 3.2344 11.25 5.5781 14.766 6.9375 18.609 7.125 28.5 10.875 29.531 11.297 9.7031 3.8438 17.953 9.1406 24.75 16.078 6.0938 6.1875 9.8906 13.312 11.391 21.516 1.6875 8.8594 1.6875 17.438 0 25.875-0.375 1.9219-0.14062 3.375 0.75 4.3125 7.3125 7.2188 13.266 13.922 17.953 19.969 14.625 18.938 27.656 40.688 39.094 65.203 7.3125 15.609 12.891 29.109 16.688 40.547 8.1562 23.953 15.094 50.062 20.812 78.328 0.70312 3.375 2.0625 5.9531 4.125 7.8281 3.8906 3.4219 9.6562 7.5 17.25 12.094 2.0156 1.2656 4.2188 2.25 6.6562 3.0938 3.6094 1.1719 6.0469 1.875 7.2188 1.9688 10.125 1.5 20.531 2.0156 31.219 1.5938 9.375-0.46875 15.375-0.89062 18-1.3125 10.781-1.875 21.094-5.1562 30.938-9.8906 10.125-4.8281 17.906-9.3281 23.484-13.359 10.078-7.4062 15.562-11.438 16.5-12.141 0.75-0.5625 0.75-0.98438-0.14062-1.3594-0.5625-0.32812-1.125-0.51562-1.7344-0.5625-11.016-1.2188-20.766-3.0938-29.109-5.625-16.406-5.0156-30.375-10.875-42.938-21.844-10.219-8.8594-16.688-19.734-19.453-32.719-1.0781-5.1562-1.125-10.688-0.046875-16.828 1.7344-9.9844 4.5-18.797 8.4375-26.438 6.0938-11.859 14.25-25.828 24.375-41.625 5.8594-9.2344 10.5-18.422 14.438-27.516 4.4062-10.312 7.1719-21.422 8.25-33.422 2.1562-24.75-2.0156-50.297-14.344-71.297-2.4375-4.125-4.7344-7.8281-7.0312-11.016-5.7188-7.8281-14.625-18.797-26.953-32.859-3.9375-4.5938-7.3594-9.0938-10.266-13.594-5.0625-7.875-8.1562-16.359-9.2812-25.5-0.89062-6.5625-0.32812-14.484 1.5469-23.812 1.875-9.375 4.1719-17.812 6.8906-25.125 6-16.547 10.969-31.547 15.047-45.188 3.6094-12.234 5.8594-20.719 6.7031-25.5 1.0312-6.2344 2.1562-12.375 3.375-18.422 1.5469-7.9219 1.9688-14.109 2.9062-23.625 0-0.046876 0.51562-4.3594 1.4531-12.984 1.1719-10.266 1.5469-20.531 1.125-30.75-0.375-8.625-1.9219-16.312-2.625-23.812-0.5625-5.7656-1.5-11.719-2.7656-17.812-4.2188-20.766-11.531-40.312-21.844-58.875-8.625-15.516-18.844-29.766-30.703-42.703-27.328-29.859-61.125-46.359-101.44-49.641-0.9375-0.046874-1.5 0.375-1.6406 1.3125-0.1875 1.4062 0 2.9062 0.65625 4.5 3.0469 8.1562 5.3438 16.594 6.9844 25.406 0.70312 3.6094 1.6875 9.7969 3.0469 18.656 0.65625 4.3125 0.75 8.5781 0.89062 12.562 0.1875 4.5 2.1094 12.281 0.98438 17.625-1.875 9.1406-7.4062 12.516-16.547 10.078-2.1094-0.5625-3.5156-2.0625-4.1719-4.5469-0.89062-3.0938-1.4062-6.1875-1.5-9.4688-0.1875-4.7812-0.32812-7.2188-0.32812-7.2188-0.9375-9.6562-1.5469-15.75-1.8281-18.375-0.65625-6.5625-1.7344-12.562-3.0938-18.188-2.25-8.9062-4.2188-15.844-5.9062-20.719-7.9219-23.531-19.5-45.75-34.594-66.469-5.1562-7.0781-10.125-13.219-15.094-18.516-32.812-35.391-72.375-58.359-118.69-68.859-17.109-3.8906-35.672-5.7188-55.781-5.4375-4.4062 0.046876-7.125 0.1875-8.2031 0.28125-2.4844 0.375-5.25 0.5625-8.1094 0.65625-3.75 0.09375-7.8281 0.60938-12.188 1.5469-7.2656 1.5-12.516 2.2969-19.031 4.0781-21.984 5.8594-42.609 14.812-62.062 26.672-13.734 8.4375-26.25 16.828-36.375 27.375-2.1094 2.2031-3.4219 3.75-3.7969 4.5469-1.5469 3-3.2344 6.75-6.5156 7.8281-3.4688 1.1719-6.6094 0.98437-9.2812-0.5625-4.8281-2.7656-7.9688-4.3125-9.375-4.5469-3.9375-0.75-7.4062-1.4062-10.266-2.0156-4.3125-0.9375-7.7344-1.4531-10.359-1.5469-6.8438-0.28125-12.469 0.046876-16.969 0.84375-7.875 1.4531-12.938 2.5312-15.188 3.1406-19.219 5.2031-35.719 14.578-49.5 28.125-14.484 14.391-23.625 31.734-27.375 52.078-0.75 4.0312-1.5469 9.5625-2.3438 16.406-0.375 3-0.51562 6.7031-0.1875 9.4688 1.3125 12 2.8594 21.797 4.6875 29.484 3.9375 16.172 10.312 32.016 19.219 47.391 3.75 6.375 8.2031 13.031 13.312 20.062 7.5938 10.312 16.125 19.688 25.641 28.172 1.0781 0.9375 1.7344 0.75 2.0625-0.60938 0.89062-3.375 1.6875-5.9531 2.5781-7.7812 1.1719-2.4844 2.0625-4.9688 2.5312-7.5469 0.375-1.875 1.2188-4.3125 2.5312-7.3125 0.375-0.79688 0.5625-1.6406 0.5625-2.3906 0.046875-1.2188 0-2.0625-0.28125-2.4375-1.125-2.2969-2.1562-4.6875-3.0469-7.125-4.2656-12.047-7.6406-24.094-10.125-36.234-0.98438-4.875-1.8281-10.828-2.4375-17.859-0.89062-9.1406-1.4531-15.141-1.7344-17.953-0.75-6.7031-0.65625-12.047 0.375-16.125 1.5-5.8125 3.4219-9.8906 9.0938-10.5 2.25-0.1875 4.3125 0.32812 6.1875 1.6875 5.3438 3.7969 3.9375 11.484 3.7031 17.016-0.14062 2.3438 0 4.7344 0.42188 7.1719 0.89062 5.625 1.6875 11.672 2.4375 18.188 1.2656 11.672 4.125 23.016 7.3125 33.375 1.6875 5.5781 3.1875 9.3281 4.4062 11.25 1.3594 2.25 5.25 4.5469 6.75 7.8281 0.46875 0.98438 1.1719 2.7188 2.1094 5.1562 1.5 3.8438 3.6094 7.125 6.3281 9.8438 7.9688 8.0625 17.297 14.297 27.797 18.75 6.9844 2.8594 15.234 5.625 24.938 8.25 16.453 4.4062 32.484 7.9219 48.188 10.594 3.0469 0.51563 7.3594 0.75 12.984 0.75 2.625-0.046874 5.4375 0.75 8.0625 0.1875 0.46875-0.09375 0.70312-0.375 0.65625-0.79687-0.1875-7.125-0.28125-19.312-0.1875-36.562 0-4.125 0.65625-8.3906 1.0312-12.797 0.28125-2.5781 0.70312-5.7656 1.2656-9.4688 0.32812-1.9219 0.9375-6.375 1.9219-13.406 2.2031-15.469 6.9375-31.031 14.25-46.641 2.0156-4.3125 5.25-9.6094 9.75-15.984 2.5781-3.6562 5.2031-9.5625 9.0938-12.891 3.4219-2.8594 6.9844-5.9531 10.688-9.0469 1.875-1.5938 3.0469-1.0781 4.9219-0.09375 17.812 9.4688 33.797 21.844 48.047 37.078 9.75 10.359 17.25 18.797 22.594 25.266 1.1719 1.3594 3.7969 4.9219 8.0625 10.734 2.6719 3.7031 5.3438 6 9 8.3906 11.297 7.2188 22.406 11.062 37.172 15.469 6.3281 1.875 11.25 2.3906 17.109 3.7031 3.1406 0.75 7.4531 1.3594 13.031 1.8281 13.312 1.1719 26.859 1.2188 40.875 0.28125 10.969-0.79687 22.359-3.375 34.172-7.7812 5.2969-2.0156 13.453-0.75 15.141 5.625 1.5938 6.1875-0.28125 10.688-5.5781 13.406-4.1719 2.2031-9.4219 4.0781-15.75 5.625-8.4844 2.1562-15.562 3.9375-24.234 4.0312-4.5938 0.046876-9.0938 0.28125-13.5 0.60938-3.1406 0.1875-7.6406 0.1875-13.5-0.046876-6.3281-0.32812-10.969-0.46875-13.875-0.51562-4.9688-0.046876-9.5625-0.51563-13.828-1.3125-9.0469-1.7344-16.734-3.3281-23.062-4.7344-4.9219-1.2188-9.9375-2.8125-14.859-4.9688-0.89062-0.375-1.4062-0.375-1.6406 0-0.60938 0.84375-0.60938 1.6406-0.046875 2.5312 2.625 4.2188 4.875 8.1562 6.75 11.859 1.2188 2.4844 3.0938 6.5156 5.6719 12 7.3594 15.703 13.922 32.25 19.641 49.688 0.79688 2.4375 1.5469 5.0625 2.25 7.9219 0.09375 0.65625 0.46875 1.2188 0.98438 1.6406zm-31.875 64.266c-1.5 5.2969-5.8594 7.6875-11.297 6.5625-3-0.65625-5.1562-1.875-6.375-3.75-3.5625-5.3906-0.46875-15.703 1.875-21.375 5.625-13.969 14.531-25.266 26.812-34.078 1.5938-1.2656 2.4375-2.7656 1.7812-4.6875-2.8125-8.1094-6.6562-18.797-11.672-32.109-4.3125-11.391-11.016-25.688-20.062-42.938-6.0469-11.531-14.391-24.844-24.984-39.891-3.5625-4.9219-7.9688-10.5-13.266-16.547-5.4844-6.375-10.172-11.719-14.109-16.125-8.4375-9.5156-19.688-19.406-33.844-29.625-2.1562-1.5938-3.75-1.5-5.4375 0.60938-7.3594 9-13.031 18.938-17.109 29.859-4.125 11.062-6.7031 20.531-7.6875 28.312-1.4531 11.766-2.4844 19.5-3.1406 23.203-1.0312 6.1406-1.5469 12.516-1.5938 19.078-0.09375 10.969 0.046875 21.422 0.375 31.359 0.23438 6.0469-0.14062 10.078-0.9375 12.047-1.875 4.3125-5.9531 6.5156-12.188 6.5156-12.188 0-20.625 0-25.453-0.14063-2.0156-0.046874-4.125-0.23437-6.5156-0.65625-18.656-3.375-35.344-7.0781-50.062-11.156-11.297-3.0469-21.188-6.4219-29.625-10.031-11.906-5.2031-22.594-12.281-32.109-21.188-0.51562-0.51562-0.89062-0.46875-1.1719 0.1875-0.14062 0.23438-0.1875 0.60938-0.28125 1.125-0.46875 3.2812-1.0312 6.6094-1.6875 9.9375-1.5938 8.4844-2.7188 15.422-3.375 20.719-0.1875 1.5-0.84375 6-1.9688 13.453-0.75 4.9219-1.0781 9.5156-1.0312 13.688 0.09375 2.7656-0.046875 5.2969-0.375 7.5469-0.28125 2.25-0.46875 4.7812-0.60938 7.5938-0.70312 15.938-0.79688 31.547-0.23438 46.969 0.1875 6.1875 1.1719 11.531 1.3594 17.344 0 2.1094 0.70312 6.4219 2.0156 12.844 0.60938 3.1406 1.2188 6.5625 1.875 10.266 0.65625 4.3125 1.3594 7.6875 2.0625 10.266 4.5 17.906 10.922 34.875 19.312 50.719 4.0312 7.6875 8.3438 14.438 12.984 20.25 7.5 9.4688 15.047 17.062 22.734 22.969 12.188 9.2344 26.203 15.797 42.094 19.734 8.25 2.0156 19.219 2.6719 26.156 3.1406 3.5625 0.1875 9.5156-0.09375 17.906-0.84375 15.609-1.4062 29.156-5.8594 40.875-13.219 6.9375-4.4531 15.844-6.3281 20.109 2.8594 6.7969 14.953-29.859 26.812-38.766 29.016-4.5469 1.125-10.359 2.1562-17.344 3.2812-5.7656 0.89063-11.625 1.2188-17.625 0.9375-1.2656 0-1.875 0.5625-1.7812 1.8281 0.375 5.8594 0.75 9.9375 1.125 12.328 1.0312 6 0.28125 12.094 0.89062 18.844 0.046875 1.0312 0.51562 1.6406 1.4531 2.0156 9.375 3.9375 18.609 7.5 27.75 10.688 4.5 1.6406 8.7188 2.2031 12.469 3.2344 2.9062 0.89063 6.0938 1.4531 9.4688 1.6406 8.9062 0.60937 16.219 0.5625 21.938-0.14063 10.172-1.3125 21.094-4.7344 32.812-10.312 4.9219-2.3438 12.422-6 14.25-10.172 0.1875-0.375 0.1875-0.75 0.09375-1.1719-1.125-4.6875-1.9219-7.6875-2.3438-11.625 0-0.09375-0.375-3.8906-1.0312-11.531-0.375-4.5469-0.375-8.3438-0.046875-11.484 0.89062-8.8125 0.5625-17.203 2.4844-26.25 0.28125-1.3125 0.65625-4.6875 1.0781-10.172 0.75-8.1562 3.3281-17.578 4.2656-23.391 1.3125-8.25 3.6562-15.422 5.5312-24.609 0.84375-3.9375 2.8125-10.688 6.0938-20.25 1.1719-3.7031 1.9688-5.8125 2.3438-6.4688 1.3125-1.9219 3.5156-3.0469 6.7031-3.375 3.2344-0.28125 5.9531 0.46875 8.2031 2.1562 4.1719 3.2812 7.2188 5.2969 9.1875 6.0938 8.8125 3.7031 20.156 2.0625 28.688-1.3594 9.9844-3.9844 18.938-9.8906 26.812-17.484 9.4219-9.1875 17.109-19.5 23.062-31.031 3.6562-7.2188 6.5625-15.938 8.4844-26.062 0.75-4.0312 0.75-7.9219-0.046875-11.625-1.2188-5.3438-2.5312-9.5625-3.9375-12.562-5.625-11.812-18.328-18.562-31.406-15.844-16.172 3.375-28.406 12.094-36.562 26.297-3.375 5.8594-4.3594 10.172-6.4219 17.766zm-3.0469 134.44c0.046875-0.89062 0.09375-1.5 0.09375-1.9688-0.046875-1.5938-0.9375-2.4375-2.4844-2.4844l-20.578-0.89063c-1.5938-0.046874-2.5312 0.75-2.7188 2.4375-1.5 13.641-2.7656 23.531-3.6562 29.531-0.79688 5.4375-1.125 9.4688-1.0312 12.188 0.09375 3.6562 0.09375 7.7344 0 12.234-0.14062 3.375 0.28125 7.9219 1.3594 13.547 1.875 10.594 2.25 16.219 5.0156 23.391 0.375 0.9375 1.0312 1.5 2.0625 1.6406 13.219 1.875 26.25 4.5469 39.047 7.9688 12.328 3.3281 20.016 5.3906 23.109 6.2812 27.094 7.3594 52.453 18.422 76.266 33.234 0.5625 0.375 1.6406 1.2656 3.1406 2.625 0.375 0.32812 0.75 0.5625 1.0312 0.60937 0.5625 0.09375 1.0312 0.09375 1.2656-0.046874 0.5625-0.32813 0.79688-0.79688 0.75-1.6875-0.70312-14.109-11.109-21.328-22.828-26.484-6-2.625-14.672-6.1875-26.109-10.688-4.9219-1.9688-9.4219-3.9375-13.641-5.9062-7.9688-3.8438-12.422-6.0469-13.219-6.6094-9.1875-6.375-17.625-14.109-25.266-23.391-6.6094-7.9688-11.859-18.609-15.75-31.922-1.1719-4.1719-2.4844-9.7031-3.8906-16.547-0.79688-3.8438-1.2188-6.6562-1.4062-8.5312-0.46875-4.9688-0.65625-7.875-0.5625-8.5312zm98.859 511.97c0.79688-0.23437 1.1719-0.75 1.125-1.5469 0-0.98438-0.14062-1.9219-0.23438-2.9531-0.1875-1.125-0.28125-2.0625-0.28125-2.8594-0.046875-4.6406-0.23438-8.8594-0.46875-12.797-0.46875-6.375-0.70312-10.641-0.70312-12.891-0.046875-8.0156-0.14062-12.797-0.046875-14.297 0.046875-3.8906-0.28125-8.625-0.89062-14.25-1.0781-9.0938-1.7344-19.5-2.1094-31.453-0.14062-2.7656-0.375-7.6406-0.75-14.625-0.28125-4.2656-0.32812-9.1406-0.28125-14.672 0.14062-7.0312-0.42188-11.906-1.3125-19.875-1.3125-12.094-1.4062-27.375-2.1094-35.766-0.42188-4.9219-0.60938-10.734-0.5625-17.438 0.046875-5.2031-0.14062-11.016-0.60938-17.484-0.28125-3.8906 0.375-7.5 1.9219-10.969 0.70312-1.5 1.9219-2.5312 3.75-3.0938 4.2656-1.2656 10.641-1.4062 13.172 3 1.9688 3.2344 3.0938 7.1719 3.4688 11.812 0.28125 4.6875-0.375 17.484 0.375 26.859 0.60938 7.0781 1.5469 14.672 1.875 21 0.23438 4.6406 0.42188 10.5 0.65625 17.672 0.09375 2.4375 0.70312 6.4688 0.84375 9.75 0 0.75 0.046875 6.2812 0.1875 16.5 0.046875 6.375 0.375 11.953 0.84375 16.594 1.2188 10.547 1.875 21.422 2.0156 32.625 0.046875 3.0938 1.0781 7.3125 1.125 10.359 0.046875 12.234-0.375 23.672 1.0781 34.734 1.0312 8.25 1.5469 16.641 1.5 25.031 0 0.98438 0.5625 1.5 1.5469 1.5h118.17c2.3438 0 3.2812-1.125 2.7656-3.375-1.6406-7.0781-2.9531-13.781-3.9844-20.016-0.9375-5.4844-2.25-12.188-3.8906-20.062-4.125-19.875-8.1094-40.172-12-60.891-4.6875-25.172-8.7656-45.047-12.188-59.719-3.7969-16.219-7.875-31.078-12.188-44.625-6.6094-20.906-14.953-41.062-24.891-60.656-10.5-20.719-21.75-38.531-33.75-53.297-10.5-12.938-20.719-22.875-30.609-29.953-12.609-9-28.078-17.438-46.359-25.219-9-3.8438-21.891-8.2031-38.625-13.078-18.562-5.4375-33.656-9.1406-45.188-11.016-4.2188-0.75-8.5781-1.0312-13.125-1.0312-4.2188 0-7.0312-1.7812-8.4375-5.25-0.46875-1.125-1.2656-1.4062-2.3438-0.75-16.594 9.7969-34.547 15.75-53.719 17.906-10.406 1.2188-21.469 0.46875-33.188-2.2969-11.906-2.7656-22.969-6.375-33.281-10.828-1.125-0.46875-2.1562-0.5625-3.2344-0.375-0.375 0.14063-0.70312 0.32813-0.9375 0.65625-2.25 2.6719-4.1719 4.1719-6 4.5-41.062 7.125-79.172 20.672-114.42 40.688-4.2188 2.3438-10.641 6.4688-19.219 12.234-20.719 14.016-38.062 31.547-51.797 52.641-4.875 7.5469-9.5156 16.031-13.734 25.5-4.125 9.1875-7.5938 17.531-10.266 25.125-6.375 18.047-11.578 36.656-15.609 55.969-4.3125 20.719-6.75 33.844-7.3125 39.281-0.70312 6.9844-1.5938 13.219-2.625 18.75-1.0781 5.4844-1.8281 11.156-2.25 17.062-0.5625 8.1562-1.5 15.609-2.7188 22.359-0.9375 5.2031-0.5625 10.734-1.1719 15.75-0.32812 2.8125-0.60938 6.7031-0.9375 11.766-0.42188 7.875-1.125 14.859-1.9219 20.906-0.51562 3.5156-0.70312 11.062-0.70312 22.641 0.046875 5.2031-0.79688 11.578-1.2656 15.938 0 0.42187-0.046875 0.75 0 1.0781 0.09375 1.125 0.70312 1.6875 1.875 1.6875h103.41c1.5469 0 2.2969-0.75 2.1562-2.3906-0.1875-2.25-0.28125-3.7969-0.28125-4.5469 0.046875-7.125 0.09375-14.156 0.09375-21v-177c0-4.0312 0.46875-7.4062 1.2656-10.031 2.2969-7.125 12.188-9.6094 17.391-3.8438 2.2969 2.625 3.6094 5.8594 3.7969 9.6562 0.1875 4.5938 0.32812 7.9688 0.32812 10.219-0.09375 82.219-0.14062 146.48-0.09375 192.66 0 1.0781-0.28125 3-0.23438 4.4531 0.14062 1.2656 0.75 1.875 2.0156 1.875 244.5-0.14062 371.48-0.046875 381 0.14062 1.875 0.046875 3.5625-0.1875 5.1094-0.65625z"/>
 <path d="m397.26 311.48c7.875 13.781 19.125 25.406 31.172 35.156 4.3594 3.4688 5.7656 8.0625 4.0781 13.594-1.6406 5.5781-8.4375 6.75-13.266 5.0156-2.6719-0.98438-5.4375-2.6719-8.3906-5.0156-13.594-10.969-24.609-24.094-32.906-39.234-5.3438-9.7031-9.6562-20.016-12.891-30.891-2.0156-6.4219-3.2344-14.297-4.6875-20.719-1.1719-5.1562-1.4531-9.375-2.0156-15.188-0.1875-2.0625-0.23438-4.0781-0.28125-6.1875-0.14062-15.891-0.14062-25.969 0.09375-30.188 0.28125-4.5938 1.4531-9.2812 3.5156-13.875s5.6719-6.5625 11.062-6c3.2344 0.375 5.3906 2.1562 6.4219 5.4375 0.89062 2.625 1.0781 5.0625 0.75 7.2188-0.65625 4.4062-1.125 7.4531-1.3125 9.3281-1.5938 19.547-0.046875 38.859 4.7812 57.984 2.8594 11.391 7.5 22.594 13.875 33.562z"/>
 <path d="m483.71 348.14c1.2188-0.9375 3.0938-1.5 5.5312-1.6875 16.641-1.4531 32.812 0.60938 48.469 6.0469 5.8125 2.0156 10.594 4.2656 14.484 6.7969 4.3125 2.9062 7.5469 5.625 9.7969 8.3438 4.8281 5.8125 3.9375 14.859-4.125 17.109-5.0625 1.3594-7.9688-0.5625-12.234-3.9844-8.0156-6.6562-17.438-10.828-28.453-12.562-7.6875-1.2188-16.312-1.9688-25.734-2.2031-1.875-0.046875-4.125-0.60938-6.75-1.7344-1.6406-0.75-2.7656-2.0625-3.2344-3.9375-0.89062-3.3281-1.0312-9.8438 2.25-12.188z"/>
 <path d="m649.26 385.45c-0.375-2.9062-0.1875-5.25 0.5625-7.125 1.4062-3.9375 7.5938-4.6406 11.109-4.5938 6.2344 0 12.328 0.32812 18.562-0.60938 9.5156-1.3594 17.297-2.7656 23.438-4.125 11.859-2.5781 23.812-7.5469 33.797-14.953 4.3125-3.1875 6.8906-5.2969 12.188-4.6875 4.0312 0.51562 6.5156 2.7188 7.6406 6.5156 1.3594 4.8281 0.1875 8.8125-3.5156 12-6.75 5.8594-14.062 10.453-21.984 13.734-9.375 3.8906-18.562 6.75-27.562 8.625-2.6719 0.5625-6.7031 1.0781-11.953 1.5938-2.6719 0.1875-6.6094 0.75-11.906 1.5-6.8438 1.0312-13.828 0.9375-20.953-0.46875-1.6406-0.28125-3.7031-1.125-6.1406-2.4375-1.9219-1.0312-3.0469-2.7188-3.2812-4.9688z"/>
 <path d="m379.87 452.76c-3.375 10.312-12.703 17.906-24 14.484-5.7656-1.7344-10.266-6.5156-12.609-12.422-2.4375-6.1875-3.7031-11.812-3.8438-16.828-0.1875-8.2031 1.9688-15.375 6.375-21.609 1.6406-2.25 3.8906-4.2188 6.8438-5.9062 2.2969-1.2188 5.1094-1.7344 8.4844-1.3594 3.9844 0.42188 7.3594 2.25 9.9844 5.4375 4.9688 5.8125 8.25 12.516 10.031 19.875 1.3125 5.7656 0.84375 11.812-1.2656 18.328zm-18.797-9.5625c0.375 0 0.5625-0.89062 0.5625-2.625-0.09375-1.7812-0.28125-2.625-0.65625-2.625s-0.46875 0.84375-0.46875 2.625c0 1.7344 0.1875 2.625 0.5625 2.625z"/>
 <path d="m491.06 461.48c-5.3906-4.875-6.9844-11.297-7.6406-18.422-0.60938-6.6094 0-12.984 1.8281-19.125 2.3906-7.8281 8.0156-11.625 17.062-11.297 3.9375 0.046875 6.4219 1.0312 9.2344 4.1719 7.4531 8.25 10.5 18 9.2812 29.391-0.46875 3.9844-1.5 7.2188-3.0938 9.6094-6.2812 9.6094-16.734 14.625-26.672 5.6719z"/>
 <path d="m419.48 521.76c1.125 3.375 9.8438 5.8594 14.344 7.2188 6.75 2.0156 7.3594 10.031 4.6875 15.516-0.65625 1.3125-2.0625 2.2969-4.2656 3.0469-4.125 1.3125-8.7656 1.0312-13.922-0.98438-5.2031-2.0156-8.7188-3.6094-10.5-4.875-12.703-8.9531-13.875-21.797-10.453-35.766 4.2656-17.109 7.125-27.844 8.625-32.25 1.5469-4.3125 2.8125-7.5938 3.8906-9.9375 2.5312-5.4844 14.297-5.1562 16.688 0.46875 0.79688 1.9219 1.1719 3.7969 1.125 5.625-0.09375 1.9219-0.51562 4.1719-1.3125 6.6562-1.3125 3.9375-2.0156 6.0938-2.1562 6.4688-1.5 5.8125-3.75 14.859-6.75 27.047-1.125 4.6406-1.125 8.5781 0 11.766z"/>
 <path d="m832.64 606.71c-2.3906 3.1875-5.7188 4.4062-9.8906 3.7969-9.0469-1.4531-9.9844-11.109-6.1875-17.766 4.3594-7.7344 7.125-12.562 8.2031-14.531 5.9062-11.062 10.5-22.078 13.734-33 0.75-2.5781 1.5469-5.9531 2.3906-10.266 1.125-5.4375 3.0469-13.547 3.2812-19.875 0.28125-7.125 1.125-14.016 0.84375-20.25-0.375-6.8906-1.6406-15.562-0.28125-22.641 0.84375-4.3594 3.5156-6.6562 7.9688-6.9375 8.1562-0.42188 11.344 8.1562 11.672 14.812 0.23438 5.8125 0.70312 11.203 1.3125 16.125 0.70312 5.5781-0.89062 11.953-0.9375 16.594-0.046875 4.0312-0.1875 8.3438-0.9375 12.281-1.3594 6.8438-2.1094 13.828-3.7969 20.531-3.6562 14.484-8.9531 28.359-15.891 41.625-4.3125 8.25-6.75 12.938-11.484 19.5z"/>
 <path d="m636.32 500.81c-1.2656 3.75-4.0781 8.5781-8.4375 9.3281-1.6875 0.28125-3.8906 0.046875-6.5156-0.70312-7.3125-2.0625-6.9375-10.734-4.0781-16.453 2.4375-4.875 6.4688-9.4219 12.094-13.594 7.125-5.3438 15-8.3438 23.719-9.0938 3.6562-0.28125 7.0312 0.14062 10.219 1.4531 2.5312 0.98438 4.2188 2.6719 4.9219 5.0156 0.75 2.5312 0.79688 5.1562 0.14062 7.7812-1.2656 4.6875-4.9688 5.0156-9.3281 5.625-0.98438 0.1875-1.3125 0.75-1.0781 1.6875 1.7812 5.4375 1.4531 10.969 1.0312 16.641-1.0312 13.734-8.3906 26.484-20.719 33.188-4.1719 2.25-8.25 2.25-12.188 0-3.4219-1.9219-4.0312-8.25-3.2344-11.25 0.98438-3.75 4.6875-5.8125 8.0156-8.6719 4.6875-4.125 6.8438-8.7188 7.9688-15.328 0.375-2.1094 0.375-3.9844 0.09375-5.5781-0.75-3.1875-1.6406-3.2344-2.625-0.046875z"/>
 <path d="m468.98 567.14c4.4531-4.0312 5.8125-7.2188 9.5156-13.641 1.9219-3.4219 3.6094-5.4844 4.9219-6.1406 3.3281-1.5 10.312-1.5469 12.516 2.2031 3.375 5.7656 2.625 11.062-0.60938 17.016-7.8281 13.875-19.453 23.484-34.969 28.781-3.75 1.2656-6.9844 1.4531-10.781 1.6875-7.0312 0.375-12.656 0.46875-16.969 0-5.6719-0.46875-9.2812-3.6094-10.875-9.2812-0.42188-1.5938 0.09375-3.375 1.5-5.5781 4.125-6.1406 11.953-4.8281 19.641-4.875 9.8906-0.046875 18.562-3.5156 26.109-10.172z"/>
 <path d="m877.26 702.42c-6.1875-6.9375-10.688-11.344-13.5-13.219-7.125-4.9688-11.766-8.0625-13.969-9.4688-4.7344-3.0469-6.2812-7.3594-4.5938-12.984 0.84375-2.9531 2.1562-4.5469 5.2969-5.2969 3.375-0.75 6.375-0.51562 9.0469 0.84375 9.8438 5.0625 18.562 11.438 26.25 19.219 0.65625 0.60938 3.5156 3.6562 8.5781 9.0938 7.3594 8.0156 13.266 17.016 17.625 27.094 2.0156 4.5938 3.5625 9.7969 4.6406 15.609 1.0312 5.8594 1.9688 11.25 2.6719 15.984 0.60938 4.4062 0.5625 9.6562-0.046875 15.703-0.32812 3.0469-1.0781 8.25-2.25 15.609-0.70312 4.7812-1.9688 9.8438-3.6562 15.328-2.0625 6.5156-4.4062 13.453-7.1719 20.766-2.1094 5.6719-2.9531 10.5-4.4531 15.75-0.60938 2.0625-1.3125 3.5625-2.1094 4.5469-2.4844 3.2344-7.4531 3.7031-11.062 2.6719-6.4219-1.7812-8.2031-9.0469-7.3125-14.906 0.51562-3.8906 1.875-8.5312 3.9375-14.016 3.6094-9.5156 6.7031-18.328 9.2344-26.438 1.0312-3.0469 1.7812-6.9375 2.25-11.484 0.84375-6.8438 1.6406-10.969 1.5-15.656-0.1875-7.0312-0.84375-13.5-1.9688-19.359-1.5-8.0625-4.4531-15.375-8.625-21.984-2.7656-4.2656-6.1875-8.7188-10.312-13.406z"/>
</svg>
