<?xml version="1.0" encoding="UTF-8"?>
<svg width="1200pt" height="1200pt" version="1.1" viewBox="0 0 1200 1200" xmlns="http://www.w3.org/2000/svg">
 <path d="m478.45 114.8c-2.2031-0.46875-4.4062-0.9375-6.5625-1.4062-11.203-2.3906-9-10.688-4.3125-18.188 5.4375-8.7656 13.406-14.016 23.906-15.844 0.5625-0.09375 0.89062-0.42188 0.9375-0.98438 1.8281-14.203 6-27.422 12.562-39.75 1.3125-2.4375 3.3281-4.7344 5.9531-7.0781 6.9844-6.0469 14.766-2.625 21.703 1.8281 15.75 10.125 31.969 17.766 50.297 21.984 26.672 6.1406 52.266 8.0156 82.078 10.641 0.60938 0.046875 0.79688-0.1875 0.60938-0.75-1.9219-5.5781-6.1406-24.141 4.6406-24.422 1.0312-0.09375 2.9062 0.60938 5.6719 1.9219 7.8281 3.8906 16.266 5.2031 25.312 6.375 11.062 1.4531 20.203 1.6875 29.859 3.8906 10.641 2.4844 20.625 5.8594 30.094 10.172 18.609 8.625 35.109 23.953 40.922 44.062 1.875 6.2344 2.0625 12.422 0.5625 18.609-0.046875 0.28125 0.046875 0.375 0.32812 0.46875 25.219 5.1094 49.125 19.312 61.125 42.234 10.922 20.953 11.484 46.688 9.9844 69.75-0.51562 7.8281-1.2656 15.141-2.25 21.984-4.4531 29.625-11.766 58.781-21.938 87.328-0.046875 0.14062 0 0.1875 0.046875 0.23438 0.09375 0.09375 0.14062 0.09375 0.28125 0.09375 14.719-5.7656 29.812 0.1875 39.609 11.672 13.734 16.125 16.547 38.484 11.297 58.5-5.1094 19.312-14.625 36.047-28.547 50.297-11.109 11.391-25.641 20.062-42 20.016-0.375 0-0.51562 0.14062-0.42188 0.51562 1.5938 7.5938 1.9688 15.797 1.2188 24.656-0.46875 5.4375-2.1094 13.312-4.7812 23.625-3.5156 13.5-6.1875 29.531-11.25 44.625-4.2188 12.562-10.219 25.453-20.438 34.125-3.4688 3-8.9531 5.9062-12.562 8.3438-2.3906 1.5938-5.3906 5.1094-7.6406 8.2969-5.7656 8.25-12.562 16.547-21.141 21.75-0.60938 0.32812-0.84375 0.89062-0.75 1.5469 2.2031 14.766 5.5781 29.156 10.125 43.219 0.1875 0.60938 0.51562 0.65625 1.0312 0.23438 3.5625-3.1875 6.75-2.2031 10.406 0.70312 2.1562 1.7344 6.4688 4.5469 9.7031 7.1719 9.375 7.6406 20.391 16.922 32.953 27.984 7.0312 6.1875 13.312 12.188 18.797 18.094 5.3906 5.7188 8.9531 8.625 8.6719 15.094-0.1875 5.25-0.75 10.406-1.5469 15.469-0.14062 0.65625 0.14062 1.1719 0.70312 1.5469 24.047 14.953 47.531 28.547 76.219 43.547 17.625 9.2812 32.531 17.156 44.766 23.625 11.578 6.2812 21.891 12.469 30.891 18.703 21.094 14.578 36.797 35.484 48 59.297 17.109 36.328 25.875 74.719 29.109 115.03 2.8594 36.938 4.125 72.984 5.2031 112.5 0.046875 0.5625-0.1875 0.98438-0.65625 1.3594-5.625 4.1719-11.062 2.5781-17.25 2.5781-373.87 1.7344-662.34 3.0469-865.4 4.0312-6.4688 0-9.0938-6.0938-8.2031-11.484 0.5625-3.1875 1.8281-8.25 2.3906-12.047 3.5625-25.688 6.7969-47.766 9.6094-66.328 6.4219-41.438 15.516-83.297 28.641-123.42 4.6875-14.203 8.7188-25.969 12.281-35.203 5.8125-15.375 12.938-29.25 21.328-41.766 2.4375-3.6094 6.75-8.8125 12.938-15.422 13.172-14.109 30.938-22.875 48.703-29.672 27.75-10.688 46.031-15.844 85.922-28.312 16.312-5.1562 32.766-10.781 49.312-17.016 1.0781-0.375 1.4531-1.0781 1.2656-2.2031-1.3125-6.0469-0.84375-13.031 3.6562-18.234 20.625-23.625 44.391-44.578 71.25-62.859 1.125-0.75 3.375-2.0156 6.8438-3.75 5.7188-2.9531 12.938-2.9062 18.938-1.6406 0.60938 0.14062 0.98438-0.046875 1.125-0.70312 0.84375-3.9375 1.4062-8.6719 1.7344-14.297 0.60938-12.141 0.79688-24.047 0.5625-35.859 0-0.51562-0.23438-0.84375-0.75-0.89062-4.875-0.375-7.5-0.60938-7.9219-0.70312-11.625-1.1719-21.375-12.281-29.016-20.625-0.60938-0.65625-1.3125-0.84375-2.2031-0.46875-2.4844 1.0312-4.1719 1.7812-6.4688 1.9688-18.188 1.5938-27.656-29.109-31.828-42.047-3.9844-12.375-6.0469-25.125-6.1875-38.297-0.14062-13.406 0.42188-27.375 5.2031-39.891 0.09375-0.32812 0-0.42188-0.28125-0.42188-41.484-0.1875-71.859-32.391-78.469-71.766-3.1875-19.312 0.09375-36.797 10.125-52.5 4.3594-6.8906 11.859-14.016 19.734-16.875 9.75-3.5625 19.688-3 29.953 1.6875 0.046875 0.046875 0.1875 0.046875 0.28125 0 0.09375-0.14062 0.14062-0.1875 0.14062-0.32812-2.0156-12.094-5.0156-25.781-9.9375-35.344-2.3906-4.6875-5.4844-10.266-9.3281-16.688-2.6719-4.5-3.2344-9.3281-1.6875-14.578 2.625-8.9531 4.0781-13.875 4.3125-14.812 0.51562-2.2969 0.09375-3.7969-1.1719-5.9531-4.0781-6.9844-7.125-13.172-9.1875-18.656-6-15.703-6.7969-31.453-2.3906-47.391 1.3125-4.6406 3.5156-9.9844 6.5156-16.125 0.14062-0.1875 0.046875-0.32812 0-0.51562-0.14062-0.09375-0.23438-0.1875-0.42188-0.1875-4.9688 0.375-10.828 1.0312-12.844-4.5-0.60938-1.5938-0.42188-4.3125 0.51562-7.9688 7.5469-28.828 22.453-52.125 48.938-66.656 0.14062-0.046875 0.1875-0.09375 0.1875-0.28125-0.046875-0.14062-0.14062-0.1875-0.23438-0.28125zm312.1 239.58c0 0.14062 0.14062 0.1875 0.28125 0.14062l26.859-14.25c0.42188-0.1875 0.5625-0.51562 0.5625-0.9375-0.32812-3.1406-0.79688-7.4062-1.4531-12.844-0.046875-0.75-0.09375-1.1719-0.09375-1.2188-0.09375-2.8125-2.3906-2.3438-3.7031-3.375-1.4531-1.125-3-2.7188-4.6875-4.6875-7.875-9.4688-14.062-19.781-18.609-31.078-6.8906-17.062-11.391-33.891-13.5-50.297-0.14062-1.125-0.65625-2.1562-1.4062-2.9531-12-12.797-23.906-31.359-27.609-47.484-0.046875-0.51562-0.375-0.5625-0.75-0.375-10.5 6.1875-22.312 11.438-35.438 15.844-43.453 14.578-90.375 17.203-135.19 6.0938-10.547-2.625-17.391-4.5-20.438-5.5781-0.32812-0.14062-0.60938 0-0.79688 0.32812-3.6562 6.2812-6.9375 11.25-10.031 14.719-8.4375 9.8906-18.844 19.875-31.406 30.094-0.32812 0.23438-0.5625 0.5625-0.65625 0.98438-2.1094 9.5625-5.8125 19.5-10.922 29.859-3.5625 7.125-5.7656 11.25-6.6094 12.375-0.32812 0.375-0.375 0.89062-0.28125 1.4062 0.375 1.3594 0.51562 4.9688 0.46875 10.781-0.1875 12.141 3.6094 23.953 0.65625 36.141-1.125 4.5469-1.4062 7.6875-1.875 12.328-0.09375 0.98438 0.28125 1.7812 1.0781 2.4375l8.7656 6.2812c0.23438 0.1875 0.42188 0.14062 0.46875-0.1875 8.2031-32.297 35.906-53.672 69.188-53.906 8.9062-0.09375 17.438 1.5938 25.688 4.9688 23.578 9.75 41.062 31.453 43.641 56.812 0.046875 0.51562 0.32812 0.65625 0.75 0.46875 4.125-1.4531 8.0625-1.6406 11.672-0.51562 0.32812 0.046875 0.46875 0 0.46875-0.32812 0.5625-8.5312 2.8594-16.922 7.0312-25.031 10.078-19.641 27.75-32.953 49.5-36.75 7.0781-1.3125 13.453-1.5938 19.219-0.89062 17.672 2.1094 32.531 9.9375 44.625 23.438 6.9375 7.7344 11.719 16.828 14.531 27.188zm-9.4688 17.859c0-7.5469-1.4531-14.812-4.3125-21.75-2.9062-6.9844-7.0312-13.172-12.375-18.469-5.3438-5.3438-11.531-9.4688-18.469-12.375-6.9844-2.9062-14.25-4.3125-21.797-4.3125s-14.812 1.4062-21.797 4.3125c-6.9375 2.9062-13.125 7.0312-18.469 12.375-5.3438 5.2969-9.4688 11.484-12.375 18.469-2.8594 6.9375-4.3125 14.203-4.3125 21.75 0 7.5938 1.4531 14.812 4.3125 21.844 2.9062 6.9844 7.0312 13.125 12.375 18.469s11.531 9.4688 18.469 12.328c6.9844 2.8594 14.25 4.3594 21.797 4.3594s14.812-1.5 21.797-4.3594c6.9375-2.8594 13.125-6.9844 18.469-12.328s9.4688-11.484 12.375-18.469c2.8594-7.0312 4.3125-14.25 4.3125-21.844zm-149.53 3.3281c0-7.8281-1.5-15.234-4.4062-22.5-3-7.1719-7.2656-13.5-12.75-18.984-5.5312-5.5312-11.906-9.75-19.078-12.75s-14.672-4.5-22.453-4.5-15.281 1.5-22.5 4.5c-7.1719 3-13.547 7.2188-19.031 12.75-5.5312 5.4844-9.75 11.812-12.703 19.031-3 7.2188-4.5 14.625-4.5 22.453s1.5 15.328 4.5 22.5c2.9531 7.1719 7.1719 13.5 12.703 18.984 5.4844 5.5781 11.859 9.75 19.031 12.75 7.2188 3 14.719 4.5 22.5 4.5s15.281-1.5 22.453-4.5 13.547-7.1719 19.078-12.75c5.4844-5.4844 9.75-11.812 12.75-18.984 2.9062-7.1719 4.4062-14.672 4.4062-22.5zm3.1406 33.984c-8.25 14.344-19.5 24.562-33.797 30.75-28.969 12.516-62.156 4.3125-82.219-19.547-11.297-13.359-16.781-29.625-16.5-48.75 0-0.23438-0.046875-0.42188-0.23438-0.5625l-9-6.5625h-0.14062l-0.046875 0.046875c-0.23438 4.0781-0.42188 10.266-0.60938 18.469-0.28125 12.469 3.9375 25.594 7.6875 37.359 6 18.984 11.25 34.547 20.109 50.109 2.0156 3.5625 4.3125 6.6562 6.7969 9.0938 3.4688 3.375 6.9375 3.6094 11.906 4.7812 5.2969 1.2188 9.5625 3.75 12.75 7.5 0.23438 0.28125 0.5625 0.375 0.84375 0.28125 0.84375-0.32812 1.5-1.0781 2.25-1.4531 4.875-2.0625 9.2812-0.1875 13.5 2.3906 0.51562 0.28125 1.0312 0.23438 1.4062-0.28125 14.062-16.312 23.719 1.7812 29.906 12.656 0.28125 0.42188 0.65625 0.5625 1.0781 0.28125 1.6875-0.65625 4.5469-2.1562 6.8906-2.8125 6.9375-1.7812 13.312-0.23438 18.984 4.6406 3.1406 2.6719 5.2969 4.875 8.8594 6.6094 3.1406 1.5938 6.5156 3.375 10.219 5.4375 2.5312 1.4062 4.9219 1.4062 7.3125-0.65625 3.7969-3.4688 8.8125-7.2188 14.438-8.1562 1.3594-0.23438 2.7188-0.046875 3.9375-0.375 0.28125-0.09375 0.60938-0.28125 0.84375-0.5625 6.3281-6.4219 12-11.297 21.703-8.3438 1.125 0.28125 2.1094 0.09375 2.9531-0.70312 3.375-3.2344 6.9844-6.1406 10.922-8.625 7.6406-5.0156 13.688-3.375 21.422-0.51562 1.4062 0.46875 2.7188 0.46875 3.9375-0.09375 7.6406-3.375 14.531-5.25 22.406-0.89062 0.84375 0.51562 1.6875 0.42188 2.5312-0.046875l9.8438-6c0.1875-0.14062 0.375-0.32812 0.46875-0.46875 6-6.6094 10.031-10.734 12.094-12.422 2.6719-2.25 4.7812-3.5625 6.375-3.9375 1.7812-0.51562 3-1.0781 3.4688-1.7344 1.4062-1.7812 3.2812-5.0625 5.7188-10.078 3.0938-6.375 6.0469-13.125 8.8125-20.25 2.8125-6.9844 4.5-12.938 5.1562-17.672 2.8125-19.828 5.9062-37.5 9.1406-53.156 0.60938-3 0.89062-5.0625 0.75-6.2812-0.14062-0.75-0.1875-2.9062-0.375-6.375 0-0.46875-0.1875-0.5625-0.5625-0.375l-25.312 13.359c-0.32812 0.1875-0.42188 0.42188-0.42188 0.75 0 0.79688 0 2.7656 0.046875 5.625 0.5625 52.312-57.188 86.438-102.89 60-19.359-11.203-30.844-28.547-34.5-52.078-0.046875-0.23438-0.09375-0.42188-0.28125-0.5625-2.5312-2.4844-5.8125-2.9062-9.9375-1.3594-0.9375 0.375-1.5 1.0781-1.6875 2.0625l-1.9688 10.266c-0.09375 0.60938 0.14062 1.0312 0.75 1.3125 5.5312 2.0625 4.3125 9.4219 3.9375 14.062-1.3125 14.719-3.4219 30.844-6.4219 48.469-1.2656 7.4531-3.7969 17.812-7.6875 31.078-0.046875 0.375-0.046875 0.70312 0 0.98438 0.23438 1.2656 0.89062 2.3438 1.875 3.1875 5.5781 4.9688 12.047 9.2812 19.5 12.938 3 1.5938 4.875 5.5781 2.625 8.7188-3.9375 5.5312-12.516-0.375-16.5-2.7656-5.8594-3.5156-15.938-10.312-18.375-16.547-1.2656-3.3281-1.4531-6.5625-0.42188-9.75 6.6562-22.453 10.781-47.438 14.062-72.328 0-0.14062-0.09375-0.1875-0.14062-0.1875-0.046875-0.046875-0.14062 0-0.1875 0.046875zm196.13-4.0312c8.0156-8.7656 17.859-14.344 29.625-16.781 2.6719-0.60938 5.625-0.60938 8.6719-0.1875 4.0312 0.5625 7.0312 4.125 5.2031 8.2031-1.4531 3.1875-3.9844 3.6094-7.5469 3.4219-4.2188-0.23438-8.4375 0.65625-12.938 2.5781-0.28125 0.046875-0.28125 0.23438-0.14063 0.51562 2.5781 3.4219 4.1719 7.3594 4.7344 11.812 1.2656 9.5625-0.046876 17.672-5.25 25.734-2.25 3.375-6.375 8.1094-10.875 6.0469-3.75-1.5938-4.2188-6.2812-1.5469-9.0469 6.0469-6.2344 8.25-13.734 6.5625-22.453-0.375-2.25-1.3125-4.3125-2.625-6.1875-0.42187-0.5625-0.89062-0.60938-1.4531-0.1875-4.6875 3.8438-9 8.3906-11.812 13.828-1.3125 2.4844-2.4844 4.6406-3.5625 6.3281-0.23438 0.42188-0.375 0.79688-0.46875 1.3125l-5.9062 30.938c-0.046876 0.375 0 0.75 0.1875 1.0312 2.2031 3.8438 3.8906 8.2031 5.2031 13.125 0.14063 0.5625 0.5625 0.89062 1.125 0.9375 12.984 0.84375 24.516-5.2969 33.797-14.062 14.156-13.219 23.906-30.234 28.312-49.312 3.2812-13.5 1.9688-25.969-3.7969-37.547-5.3906-10.688-15.938-20.016-28.734-17.766-10.969 1.9688-20.344 11.625-25.406 21.281-0.28125 0.60938-0.46875 1.3125-0.46875 1.9688l-1.4062 24.281c0 0.09375 0.09375 0.23438 0.1875 0.23438 0.14062 0.046875 0.1875 0.046875 0.32812-0.046875zm-380.44 12.844c-2.625 0-5.4375 0.70312-8.4844 2.1562-1.7812 0.79688-3.1406 1.2188-4.0312 1.3594-6.5625 0.70312-9-7.4531-3.6094-10.688 14.297-8.625 34.078-3.5625 46.828 6 0.09375 0.046875 0.23437 0.046875 0.375 0 0.09375-0.046875 0.1875-0.1875 0.1875-0.375-0.5625-7.6875-0.9375-13.828-1.2188-18.375-0.09375-3.3281-1.3125-5.625-3.2812-8.4844-13.828-19.594-38.578-25.125-52.969-1.9688-14.438 23.344-9.0938 54.891 5.9531 76.031 12.938 18.188 31.734 28.594 54.047 28.734 0.89062 0 1.2656-0.42188 1.2188-1.2656-0.75-9.6094-0.75-19.125 0-28.359 0.046874-0.51562 0.1875-1.0781 0.28125-1.5469l1.2188-4.4062c0.046874-0.28125 0.046874-0.60938 0-0.9375l-3.1406-19.406c-0.1875-1.2656-0.70312-2.3906-1.5-3.375-4.8281-6.1406-11.109-10.453-18.797-13.078-0.65625-0.23438-1.125-0.046875-1.5 0.51562-6.1406 9.6094-5.25 22.359 3.1875 29.906 3.0938 2.7656 5.4375 7.0312 1.3125 10.078-3.6562 2.7656-6.8438 0.51562-9.75-2.25-11.016-10.312-12.188-26.812-6.0938-39.797 0.14062-0.28125 0-0.375-0.23438-0.46875zm255.61 125.02c0.09375-0.14062 0.09375-0.1875 0-0.32812-0.046875-0.09375-0.1875-0.1875-0.28125-0.09375-6.3281 1.9219-13.078 3.6562-20.25 5.3438-7.5 1.7812-13.219 2.9062-17.156 3.375-7.3594 0.9375-15.188 0.84375-23.625-0.28125-2.3438-0.32812-5.8125-0.09375-7.7812 0.09375-1.2656 0.14062-5.9531 0.9375-14.156 2.3438-4.7812 0.84375-10.969 0.23438-18.469-1.7812-0.70312-0.1875-1.6875-0.23438-3-0.09375-0.51562 0-0.9375 0.23438-1.2656 0.65625-1.3594 1.875-2.25 3.8438-2.7656 5.9531-0.046875 0.42188 0 0.79688 0.28125 1.125 1.9688 2.9531 4.1719 7.125 7.0312 8.8594 8.5312 5.2031 16.078 9.2812 26.203 6.9375 2.0156-0.42188 6.7031-1.5938 14.203-3.4688 7.5469-1.875 13.594-0.51562 21.281 0.28125 20.906 2.25 30.094-14.109 39.75-28.922zm-130.55 111.7-0.5625 1.7812c-0.046875 0.32812-0.14062 0.65625-0.14062 1.0312l-0.1875 19.969c0 0.5625 0.28125 1.0312 0.75 1.2656 2.5781 1.5 5.2031 2.7656 7.9688 3.75 11.906 4.4531 24.609 7.2656 38.156 8.4844 25.031 2.2031 50.016 0.84375 74.953-4.125 16.359-3.2344 31.688-8.7188 45.703-18.188 0.5625-0.375 0.79688-0.9375 0.65625-1.5938l-1.1719-7.4062c-0.046875-0.23438-0.23438-0.375-0.51562-0.28125-7.7812 1.6875-15.656 1.5938-23.812-0.1875-8.8594-2.0156-15.844-4.4062-21.797-2.625-2.6719 0.79688-6.8906 2.5312-12.375 5.3438-11.578 5.7656-29.297 11.578-42.375 6.8438-3.2344-1.2188-6.6094-2.8125-10.078-4.9688-0.46875-0.28125-0.84375-0.23438-1.1719 0.32812-10.547 20.625-42.375-0.75-53.578-9.5625-0.1875-0.14062-0.28125-0.14062-0.42188 0.14062zm-17.578 52.406c0.09375-0.23438 0-0.42188-0.28125-0.42188l-3.8906-0.14062c-0.32812-0.046875-0.42188 0.09375-0.375 0.375l1.6875 7.0312c0 0.09375 0.14062 0.1875 0.32812 0.23438 0.09375 0 0.23438-0.046875 0.28125-0.23438zm59.203 192.84c-31.453-52.828-54.047-112.12-69.938-171.19-1.8281-6.75-3.3281-13.078-4.5-19.031-0.046875-0.375-0.23438-0.42187-0.5625-0.23437-5.8125 3.75-11.438 7.875-17.016 12.328-17.438 13.969-33.375 28.688-47.906 43.969-1.3125 1.4062-3.375 3.8438-6.1406 7.3125-0.375 0.46875-0.60938 1.0312-0.70312 1.5938-0.28125 1.7812-0.42188 3.2344-0.28125 4.2188 1.2188 11.953 3.2812 29.156 6.0938 51.703 1.2656 10.312 2.0625 19.688 3 30.75 0 0.5625 0.28125 0.70312 0.70312 0.375 10.922-6.75 22.734-12.75 35.391-17.062 8.7188-2.9531 17.484-3.4219 26.156-1.4531 6.5625 1.5938 14.438 6.375 20.016 10.312 19.922 13.969 37.547 30.375 55.5 46.5 0.046875 0.09375 0.14062 0.09375 0.14062 0 0.046875 0 0.046875-0.046874 0.046875-0.09375zm55.125-30.844c10.266-7.9688 20.953-15.281 32.062-21.938 5.5781-3.2812 10.828-6.0469 15.797-8.2969 11.531-5.1094 22.406-7.4531 32.016 2.1094 3.8906 3.8906 8.0156 8.8125 12.375 14.906 12.422 17.109 24.562 34.359 36.422 51.75 0.1875 0.1875 0.375 0.23438 0.5625 0.23438 0.28125-0.046875 0.46875-0.1875 0.51562-0.375 6.4219-19.312 11.859-38.812 16.359-58.641 5.9531-26.25 11.812-53.156 14.391-79.5 0.1875-1.3594-0.1875-2.5312-0.98438-3.4688-5.1562-5.7656-10.453-11.203-16.078-16.312-13.078-12-26.109-23.625-39.047-34.828-0.14062-0.046875-0.28125-0.046875-0.32812 0-0.14062 0-0.1875 0.14062-0.1875 0.23438-0.046875 6-3 11.953-6.1875 17.625-3.0469 5.5312-6.5625 11.25-10.5 17.344-6.6094 9.9844-13.359 19.688-20.25 28.969-18.516 25.031-37.922 50.953-58.312 77.953-0.5625 0.70312-3.5156 4.6875-8.8125 12.141-0.046875 0.046875-0.046875 0.046875 0 0.09375 0.046875 0.09375 0.14062 0.09375 0.1875 0zm168.71-71.062c-5.1562 28.312-11.156 55.594-18.094 81.75-3.2344 12-6.6562 22.594-11.156 35.531-1.0312 2.7188-2.0625 4.9688-3.3281 6.75-3.75 5.4375-9.9375 2.625-12.984-1.875-4.5-6.375-15.375-21.938-32.625-46.594-7.0312-9.8438-12.75-17.344-17.25-22.406-3-3.4688-6.7031-5.7656-11.156-4.7812-3.1875 0.75-6.6562 2.0156-10.359 3.75-6.1406 2.8125-12.75 6.5156-19.922 11.062-14.531 9.3281-28.781 19.781-42.656 31.312-2.6719 2.25-6.1875 4.4531-9.375 6.1406-0.98438 0.5625-1.7812 1.2656-2.3438 2.2031l-12.516 19.922c-0.5625 0.79688-0.79688 1.6875-0.79688 2.6719-0.1875 35.578 0.23438 71.953 1.3594 109.27 0.70312 22.875 0.79688 38.578 1.3125 60.609 0 0.32812 0.1875 0.51562 0.5625 0.51562 5.4375-0.23438 10.688-0.32812 15.797-0.1875 8.4375 0.1875 8.0625 11.812-1.125 11.953-13.922 0.23438-27.844 0.46875-41.859 0.84375-1.5469 0.09375-2.9531-0.046875-4.0781-0.23438-3.7969-0.75-5.9062-4.125-4.5938-7.7344 1.0312-3 3.9375-3.9375 6.9375-4.0781 4.2188-0.1875 9.4219-0.32812 15.562-0.375 0.65625 0 0.98438-0.32812 0.98438-0.98438-0.5625-27.656-1.1719-54-1.875-79.125-0.79688-30.562-0.75-61.125 0.23438-91.594 0-0.42188-0.1875-0.79688-0.5625-1.0312-5.25-3.5625-9.9844-7.2188-14.25-11.016-10.172-9.0469-20.297-18.141-30.422-27.047-8.25-7.4062-18.703-15.188-31.172-23.578-9.1406-6-18.891-7.3594-29.25-3.9844-14.016 4.5-28.969 12.75-40.875 20.344-0.375 0.28125-0.84375 0.46875-1.2656 0.51562-3.4219 0.98438-6.2344 0.32812-8.2969-2.0156-1.125-1.3125-1.8281-4.2188-2.0625-8.8594-0.51562-9-1.4062-18.984-2.7188-30-1.7344-14.859-3.2344-27.562-4.5469-38.062-0.046875-0.5625-0.375-0.75-0.89062-0.5625-7.0312 2.625-15.844 5.7656-26.438 9.4219-26.297 9.0938-61.594 19.312-79.547 25.406-20.203 6.75-39.891 13.594-57.375 24.656-9.2344 5.9062-16.359 14.578-23.859 23.531-3.8438 4.4062-7.125 9.4219-9.9375 15-9.7031 18.844-15.891 37.219-23.391 59.719-7.2656 21.844-13.266 44.062-18.141 66.938-3.8438 18.094-6.6094 32.391-8.25 42.891-4.5938 29.203-8.6719 56.109-12.188 80.953-0.28125 2.1562-0.75 4.7812-1.3125 7.7812-0.046875 0.32812 0.09375 0.51562 0.46875 0.51562l865.69-4.0781c0.5625 0 0.79688-0.28125 0.79688-0.79688-1.0781-38.391-2.2031-70.734-5.0625-104.48-1.125-12.656-2.8594-25.781-5.3906-39.375-3.2344-18.281-8.6719-36.844-16.312-55.781-4.9688-12.469-10.781-23.906-17.344-34.219-9.8906-15.516-23.062-28.5-39.516-38.953-7.3125-4.6406-15.516-9.4219-24.703-14.297-13.688-7.3125-32.672-17.344-56.859-30-11.672-6.0938-31.359-17.438-59.109-34.078-0.32812-0.23438-0.51562-0.14062-0.5625 0.23438z"/>
 <path d="m703.74 277.36c19.219-4.7812 38.625 0.65625 57.516 9.0938 3.5625 1.5938 10.547 3.9375 11.062 8.7188 0.60938 5.9062-4.3125 7.6875-9.1875 6.4688-2.7656-0.70312-6.2344-1.4062-10.5-2.0156-15.797-2.2969-32.062-3.3281-48.75-2.9531-5.2969 0.14062-10.359 0.9375-15.047 0.75-5.0156-0.1875-7.2656-5.8594-4.8281-9.8438 0.79688-1.3125 2.8125-2.9062 6.1406-4.8281 3.9375-2.2969 8.4844-4.0781 13.594-5.3906z"/>
 <path d="m552.71 283.69c16.875-7.5 36.094-3.75 52.688 3.9375 4.875 2.25 8.7188 6.375 4.4062 11.391-1.0312 1.2188-2.8594 1.875-5.2969 1.9688-9.7031 0.32812-15.75 0.5625-18.047 0.75-21.703 1.5-42.094 6-61.219 13.641-2.9062 1.125-4.9219 1.5469-6.0938 1.2656-5.5312-1.4531-5.9531-8.1562-1.8281-11.391 11.484-9 23.297-16.172 35.391-21.562z"/>
 <path d="m708.56 354.61c-0.23438 0.14062-0.98438 0.75-2.2969 1.7812-3.0938 2.4844-7.3125 1.5469-8.5781-2.25-1.1719-3.5625 2.8125-7.2188 5.625-9.1875 10.641-7.5 22.688-10.688 36.328-9.375 3.1875 0.28125 6 0.9375 8.4844 1.9219 3.1875 1.3125 5.25 4.9219 3.3281 8.1094-3.1875 5.2031-8.9531 2.0625-13.828 1.2188-0.14062-0.09375-0.23438 0-0.375 0.09375-0.046875 0.1875-0.046875 0.32812 0.046875 0.46875 6.8906 8.7188 8.25 18.094 4.125 28.031-4.0312 9.8438-16.875 13.641-25.031 6.2812-7.6406-6.9375-10.125-15.891-7.5-26.906 0-0.09375 0-0.1875-0.09375-0.23438-0.09375 0-0.1875 0-0.23438 0.046875z"/>
 <path d="m581.76 358.13c2.25 7.0781 1.9688 13.688-0.75 19.828-3.8906 8.5312-12.891 13.5-21.938 9.1875-10.5-5.0625-13.406-18.328-10.688-29.156 0-0.09375 0-0.23438-0.14062-0.375-0.14062-0.046875-0.23438-0.09375-0.375-0.046875-2.6719 1.2656-5.2969 2.4844-7.8281 3.7969-2.9062 1.5938-5.8594 2.0156-8.2969-0.23438-3.1875-2.9531-1.9219-7.5 1.6875-9.5625 18-10.266 37.312-12.797 55.734-2.4375 3.1406 1.7344 5.2031 3.3281 6.3281 4.6406 0.23438 0.23438 0.42188 0.5625 0.60938 0.84375 1.4062 2.7656 0.84375 5.0156-1.5469 6.8438-0.23438 0.23438-0.60938 0.375-0.9375 0.46875-4.1719 1.2188-7.8281-2.2969-11.297-4.2188-0.14062-0.09375-0.32812-0.09375-0.46875 0.046875-0.09375 0.046875-0.1875 0.23438-0.09375 0.375z"/>
 <path d="m635.68 558.98 16.828-0.75c1.4531-0.046875 2.6719 0.375 3.75 1.3125 1.0781 1.0312 1.5469 2.2031 1.6875 3.5625v0.51562c0.046875 1.3594-0.375 2.625-1.3594 3.7031-0.9375 1.0312-2.1562 1.5938-3.5625 1.6875l-16.828 0.75c-1.4531 0.046875-2.625-0.375-3.7031-1.4062-1.0312-0.9375-1.5938-2.1094-1.6875-3.5625v-0.42188c-0.046875-1.4531 0.375-2.625 1.3125-3.7031 1.0312-1.0312 2.2031-1.5938 3.5625-1.6875z"/>
 <path d="m656.63 926.26c1.8281 0.046876 3.5625 0.5625 5.25 1.5469 1.6406 0.9375 3.1406 2.3438 4.3125 4.0312 1.2656 1.7344 2.2031 3.6562 2.8125 5.9062 0.60938 2.2031 0.89062 4.4531 0.79688 6.8438-0.09375 2.3438-0.5625 4.5938-1.3594 6.7969-0.75 2.1094-1.8281 3.9844-3.1875 5.625-1.3594 1.6406-2.9531 2.8594-4.6406 3.7031-1.7344 0.79687-3.5625 1.2188-5.3438 1.125-1.8281-0.09375-3.5625-0.5625-5.25-1.5938-1.6406-0.9375-3.1406-2.25-4.3125-3.9844-1.2656-1.6875-2.2031-3.7031-2.8125-5.8594-0.65625-2.25-0.89062-4.5-0.75-6.8906 0.046875-2.3906 0.46875-4.6406 1.3125-6.75 0.75-2.2031 1.7812-4.0781 3.1875-5.6719 1.3594-1.6406 2.9062-2.8125 4.5938-3.7031 1.7812-0.79687 3.5625-1.1719 5.3906-1.125z"/>
 <path d="m657.56 1020c9.3281-0.32812 12.188 10.688 12.422 18.656 0.28125 8.0625-1.9688 19.219-11.297 19.453-9.3281 0.32812-12.234-10.688-12.516-18.703-0.23438-8.0625 2.0156-19.172 11.391-19.406z"/>
</svg>
