<?xml version="1.0" encoding="UTF-8"?>
<svg width="1200pt" height="1200pt" version="1.1" viewBox="0 0 1200 1200" xmlns="http://www.w3.org/2000/svg">
 <path d="m447.05 128.81c-1.5-0.375-3.5625-0.79688-6.0938-1.3125-11.719-2.3906-9.375-10.828-4.4531-18.516 5.3906-8.4375 13.266-13.547 23.484-15.281 0.5625-0.14062 0.84375-0.46875 0.89062-0.9375 1.8281-14.016 5.9531-27 12.328-39.141 1.3594-2.5781 3.375-5.0156 6.0469-7.3125 6.8906-6 14.625-2.625 21.422 1.8281 15.656 9.9844 31.688 17.625 49.875 21.797 26.391 6.0469 51.656 7.875 81.328 10.5 0.5625 0.046875 0.75-0.1875 0.5625-0.70312-1.875-5.4844-6.0469-24 4.5469-24.234 1.125-0.046875 3 0.5625 5.7188 1.9219 7.7344 3.8438 16.125 5.1562 25.031 6.2812 10.969 1.4062 20.016 1.6875 29.578 3.8438 10.547 2.4375 20.484 5.8125 29.812 10.125 18.375 8.4375 34.5 23.438 40.453 43.219 1.875 6.2344 2.1094 12.422 0.75 18.562-0.14062 0.42188 0.046875 0.75 0.5625 0.79688 24.75 5.0625 48.234 19.125 60.094 41.625 7.4531 14.109 10.219 31.453 10.594 47.859 0.28125 13.828-0.75 29.016-2.7656 42.703-4.3125 29.484-11.625 58.453-21.75 86.953-0.046875 0.09375 0 0.1875 0.046875 0.23438 0.09375 0.046875 0.14062 0.14062 0.28125 0.046875 22.547-8.4844 41.859 8.8125 49.031 28.781 7.6875 21.281 2.8125 43.594-7.3125 63.562-7.3125 14.297-17.156 26.25-29.719 35.812-5.2031 3.9844-11.344 7.0312-18.516 9.2344-8.8594 2.7656-18.422 2.4375-28.641-0.79688-0.375-0.14062-0.65625 0-0.79688 0.42188-8.2969 26.812-20.484 51.938-36.516 75.234-7.7344 11.344-16.125 21.469-25.172 30.281-0.42188 0.46875-0.70312 1.0312-0.75 1.6875-0.70312 12.75-0.70312 26.484 0.046875 41.109 1.2188 21.422 5.1562 42.234 11.906 62.391 0.23438 0.75 0.60938 0.84375 1.2188 0.28125 2.3906-2.25 4.9688-2.4844 7.6406-0.65625 5.8125 3.7969 11.812 8.2969 18 13.5 20.297 17.062 35.766 29.625 50.672 46.594 2.25 2.5312 3.3281 5.4375 3.1875 8.9062-0.09375 5.1562-0.60938 10.219-1.5 15.281-0.1875 0.75 0.09375 1.3125 0.75 1.7812 20.25 12.797 40.688 24.656 61.219 35.625 20.25 10.734 36.562 19.359 48.984 25.781 11.484 6 22.172 12.094 32.016 18.141 25.406 15.797 43.219 37.5 55.875 64.688 13.688 29.25 22.5 60.516 26.484 93.609 1.9219 16.125 3.375 32.344 4.1719 48.516 1.3125 26.438 2.3906 53.812 3.1406 82.172 0.046875 1.0312-0.375 1.8281-1.2656 2.3906-2.4375 1.5469-4.7344 2.2969-7.0312 2.2969-2.7188 0.09375-5.4375 0.09375-8.3438 0.09375-413.16 1.5469-699.42 2.8594-858.74 3.7969-6.375 0-8.625-6.8906-7.5469-12 0.79688-4.0781 1.7344-8.0625 2.2031-11.438 3.75-26.672 7.1719-50.109 10.359-70.312 6.4219-41.109 15.422-81.375 28.5-120.32 4.7344-14.156 8.2969-24.469 10.688-30.797 4.875-12.984 10.875-25.453 18.047-37.266 3.0938-4.9688 6.5625-9.75 10.5-14.156 4.3125-4.9688 9.8438-11.203 15.844-15.703 11.625-8.6719 24.656-14.812 38.297-20.203 29.812-11.812 72.797-23.859 93.703-30.797 15.656-5.2031 29.156-9.9375 40.5-14.203 0.75-0.23438 1.125-0.79688 0.98437-1.6875-0.70312-4.5-0.98437-9.9844 0.98438-14.344 0.75-1.5938 2.1562-3.5156 4.125-5.8125 20.578-23.062 43.594-43.266 69.188-60.516 1.5-1.0781 3.8438-2.2969 6.8438-3.7969 5.9062-2.9062 12.609-2.7656 18.656-1.5938 0.70312 0.14062 1.125-0.09375 1.2188-0.84375 1.5-9.75 2.25-20.156 2.25-31.031 0-24.281 0.09375-44.344 0.46875-60.188 0.09375-0.75-0.23438-1.3125-0.75-1.7812-29.484-26.812-49.312-60.844-62.531-98.391-0.1875-0.51562-0.5625-0.70312-1.0781-0.42188-6.0469 2.8125-15.516 2.5312-23.297 1.7344-36.938-4.0781-63.281-34.641-69.281-70.359-3.7969-22.453 1.6406-46.828 18.656-62.203 11.297-10.266 26.625-11.438 40.406-5.1094 0.14062 0.046875 0.28125 0.046875 0.375-0.09375 0.14062-0.046875 0.14062-0.1875 0.14062-0.28125-2.0625-12.094-4.9219-25.453-9.7969-34.969-2.3906-4.6875-5.3906-10.031-9.0938-16.172-2.8125-4.6406-3.4219-9.6094-1.7812-15 1.6875-5.6719 3.0469-10.266 4.0312-13.734 0.75-2.7188 0.32812-4.3125-1.125-6.75-3.9375-6.9375-6.9375-13.078-9-18.281-5.9062-15.469-6.6562-31.172-2.2969-46.969 1.3125-4.5938 3.4219-9.8906 6.4219-16.031 0.14062-0.09375 0.09375-0.28125 0-0.42188s-0.23438-0.1875-0.42188-0.1875c-2.6719 0.1875-4.5469 0.42188-6.5156 0.14062-6.9375-1.125-7.3594-6.4688-5.6719-12.516 7.8281-28.688 21.984-51.609 48.516-66 0.09375-0.046875 0.09375-0.1875 0.09375-0.32812 0-0.09375-0.046876-0.1875-0.1875-0.23438zm265.45 69.562c-31.172 17.766-67.547 26.672-103.55 28.312-22.031 0.98438-43.875-1.1719-65.438-6.6094-10.641-2.7188-17.391-4.5-20.25-5.5312-0.32812-0.09375-0.5625-0.046875-0.75 0.28125-3.6562 6.2812-6.9375 11.156-9.9375 14.672-8.3906 9.75-18.75 19.641-31.078 29.625-0.32812 0.23438-0.51562 0.5625-0.60938 0.9375-3.5625 14.391-9.375 28.312-17.391 41.766-0.23438 0.42188-0.375 0.84375-0.32812 1.3594 0.32812 2.8125 0.46875 6.4219 0.375 10.828-0.046875 6.6562 0.84375 12.281 1.5 19.219 0.51562 5.0156 0.70312 11.953-0.60938 15.891-0.60938 1.875-1.1719 4.875-1.6406 9-4.7812 44.203-1.5938 87.375 9.5625 129.61 8.9062 33.516 24.141 67.031 46.219 94.031 33.234 40.781 80.812 64.172 132.79 48.375 47.391-14.391 82.688-58.031 102.8-101.06 27.281-58.5 36.281-125.95 28.125-189.66-0.28125-2.25-0.42188-3.375-0.42188-3.4688-0.14062-0.32812-0.32812-0.5625-0.70312-0.75-0.84375-0.51562-1.9219-0.65625-2.8594-1.4062-1.3594-1.0312-3.1875-3-5.4844-5.8125-7.3125-8.8125-13.312-19.125-18.094-30.984-6.0469-15.188-10.359-31.359-12.844-48.609-0.14062-1.0312-0.5625-1.9688-1.3125-2.7188-10.781-11.625-19.078-24.656-24.938-39.188-0.89062-2.1094-1.8281-5.3438-2.3906-7.7812-0.046875-0.46875-0.32812-0.5625-0.75-0.32812zm83.438 218.44c8.2031-8.7656 17.953-14.297 29.391-16.688 2.7188-0.5625 7.2188-0.75 9.9375 0.046875 5.3438 1.6875 6.1875 8.7188 0.75 10.969-0.84375 0.28125-2.2031 0.42188-4.2656 0.28125-4.0781-0.1875-8.25 0.65625-12.562 2.3906-0.42188 0.1875-0.51562 0.42188-0.23438 0.79688 7.5469 10.781 6.2812 27.75-1.5938 38.25-2.2969 3.1406-5.8125 6.5625-9.6562 4.9688-3.75-1.5938-4.5938-6.2812-1.875-9 6.0469-6.1875 8.2969-13.594 6.6094-22.266-0.42188-2.25-1.2656-4.3125-2.5781-6.1406-0.42188-0.60938-0.9375-0.65625-1.5-0.1875-4.7812 4.0312-8.9062 8.3438-11.672 13.594-1.3594 2.7188-2.5781 4.875-3.5156 6.375-0.375 0.60938-0.60938 1.2188-0.65625 1.9688-2.1562 14.062-5.2031 28.078-9.1406 42.094-0.14062 0.28125 0 0.5625 0.32812 0.65625 16.125 5.9531 31.781-0.79688 43.688-12.281 14.062-13.688 23.25-29.953 27.609-48.75 3-13.031 1.6875-25.266-3.9375-36.75-5.25-10.875-16.734-20.531-29.484-17.438-9.9375 2.4375-18.281 10.547-23.438 19.594-0.89062 1.6406-1.4062 3.1406-1.4062 4.5-0.09375 7.4062-0.5625 15-1.3125 22.781 0 0.09375 0.09375 0.23438 0.1875 0.28125 0.14062 0.09375 0.28125 0.09375 0.32812-0.046875zm-345.74 11.484c-0.51562-6.7969-0.89062-13.359-1.125-19.781 0-1.2188-0.70312-2.9062-1.9219-4.9688-8.4375-13.922-25.688-24.469-41.344-16.547-7.9219 4.0781-13.406 12.562-16.734 20.859-9.9375 25.031-1.4531 54.844 15.938 74.062 10.125 11.203 22.688 18 37.734 20.438 6.3281 1.0781 12.938 0.9375 19.828-0.42188 1.0781-0.1875 1.4531-0.89062 1.125-1.9219-5.1094-16.828-8.9531-34.406-11.391-52.5-0.046876-0.46875-0.1875-0.84375-0.375-1.125-3.75-6.9375-11.906-12.141-19.359-14.812-0.98437-0.375-1.8281-0.09375-2.2969 0.84375-4.4531 8.0156-5.1562 19.594 1.2188 26.766 0.46875 0.51562 1.8281 1.9219 4.2188 4.3594 4.7344 4.875-1.875 12.094-7.125 8.3438-6.7031-4.8281-10.781-11.25-12.141-19.312-1.3125-8.0625-0.375-15.469 2.9531-22.266 0.09375-0.23438 0.046874-0.42188-0.09375-0.60938-0.09375-0.1875-0.28125-0.32812-0.5625-0.28125-2.6719 0.28125-5.3438 0.9375-7.9688 2.1562-2.9062 1.3125-5.25 2.1094-7.8281 0.46875-3.5625-2.2969-3.375-7.3594 0.046876-9.4688 14.156-8.9531 34.312-3.7031 46.875 5.9062 0.09375 0.09375 0.14062 0.09375 0.28125 0 0.046874 0 0.09375-0.046875 0.046874-0.1875zm92.109 192.89c0.14062 5.1094 0.46875 11.109 0.84375 18 0.23437 4.3125 0.23437 12.562 0.09375 24.609 0 0.1875-0.046876 0.375-0.09375 0.5625l-0.75 1.9688c-0.09375 0.09375-0.09375 0.28125-0.09375 0.46875 0.84375 26.766-1.7812 50.25-13.875 72.891-0.28125 0.5625-0.375 1.1719-0.1875 1.8281 9.1406 32.109 20.062 63.281 32.906 93.562 11.156 26.531 24.281 51.656 39.234 75.422 0.1875 0.375 0.42188 0.375 0.60938 0 4.5938-7.2656 9.5625-14.859 15.141-22.828 9.3281-13.406 19.359-27.188 30.047-41.297 25.406-33.516 43.875-58.312 55.406-74.297 9.4688-13.125 17.484-25.266 24-36.469 0.375-0.60937 0.42187-1.3125 0.09375-1.9688-6.4688-15.094-11.344-32.578-14.672-46.875-3.7031-15.703-5.5781-32.062-5.625-49.125 0-5.625 0.14063-13.594 0.42188-23.766 0-0.1875-0.046876-0.32813-0.23438-0.375-0.14062-0.14063-0.32812-0.046876-0.42187 0.046874-21.094 17.625-46.781 29.906-74.016 32.719-31.734 3.375-62.766-6.3281-88.359-25.266-0.09375-0.14063-0.1875-0.14063-0.32813-0.046876-0.046874 0.046876-0.14062 0.09375-0.14062 0.23438zm-16.594 94.688c0.09375-0.23438 0-0.375-0.28125-0.375l-3.8438-0.1875c-0.32813-0.046876-0.375 0.14062-0.32813 0.375l1.5469 6.9375c0.09375 0.14062 0.1875 0.23437 0.32812 0.23437 0.1875 0 0.32813-0.046874 0.375-0.23437zm58.594 191.02c-26.672-44.812-45.844-92.391-61.547-142.97-4.7344-15.047-8.8125-30.234-12.188-45.422-0.046874-0.375-0.23437-0.42188-0.51562-0.23438-5.1094 3.2812-10.312 7.0312-15.609 11.25-13.734 10.875-27.516 23.156-41.25 36.75-4.4531 4.4062-8.6719 9-12.562 13.688-1.4531 1.7344-2.1094 3.2812-2.0156 4.6875 0.51562 6.0469 0.70312 9.7969 1.2656 14.062 3.375 25.734 6.0469 49.172 7.875 70.125 0.046876 0.46875 0.32813 0.5625 0.70313 0.28125 11.812-7.5 23.859-13.219 36-17.25 17.625-5.7188 30.562-0.79687 45.047 9.3281 19.359 13.5 36.562 29.484 54.703 45.797 0.046874 0.09375 0.046874 0.09375 0.09375 0 0.09375 0 0.09375-0.046874 0-0.09375zm54.562-30.562c9.7031-7.4062 19.125-13.875 28.266-19.594 8.8594-5.4844 17.062-9.6562 24.422-12.469 13.078-4.9688 22.125-1.7812 30.75 8.6719 4.125 4.9219 9.7031 12.375 16.781 22.312 5.8125 8.2031 15 21.328 27.422 39.234 0.14063 0.1875 0.32813 0.28125 0.5625 0.1875 0.1875 0 0.375-0.09375 0.42188-0.375 6.7031-20.109 12.281-40.219 16.781-60.375 6.0938-27.609 10.969-50.297 13.734-76.359 0.14063-1.4531-0.375-2.7656-1.5469-4.0781-5.3906-5.8125-9.1406-9.75-11.344-11.719-13.5-12.562-27.75-25.406-42.797-38.344-0.046874-0.046874-0.14062-0.046874-0.1875-0.046874-0.14062 0.046874-0.14062 0.14062-0.14062 0.1875-0.60938 5.2969-2.25 10.312-4.875 15.047-9.6562 17.391-20.109 32.391-31.875 48.469-2.9062 4.125-23.109 31.125-60.469 81-1.4531 1.9688-3.5156 4.6875-6 8.1094-0.09375 0.046874-0.09375 0.14062 0 0.14062 0.046874 0.046876 0.046874 0.046876 0.09375 0z"/>
 <path d="m653.63 309.32c-5.2969-2.625-5.2969-8.5312-0.51562-11.812 13.969-9.75 31.969-11.438 48.328-7.5938 11.859 2.8125 22.875 7.0312 33 12.469 5.625 3 5.0625 11.344-2.0156 11.859-0.28125 0.046875-0.60938 0-0.9375-0.046875-19.547-3.9375-39.938-5.7188-61.219-5.25-5.0156 0.09375-10.5 1.0312-15.469 0.65625-0.42188 0-0.79688-0.09375-1.1719-0.28125z"/>
 <path d="m577.08 302.68c4.3125 4.4062 0.84375 10.312-4.6875 10.5-8.7188 0.28125-14.766 0.51562-18.328 0.75-22.266 1.6406-43.359 6.4688-63.328 14.531-5.5312 2.25-9.8438-4.0781-6.9844-8.9062 1.5469-2.4844 4.4531-4.2188 6.7031-5.8125 10.922-7.875 20.906-13.688 29.906-17.531 17.719-7.6406 36.703-3.8438 53.531 4.2188 1.2188 0.65625 2.2969 1.4062 3.1875 2.25z"/>
 <path d="m703.55 359.21c6.6562 8.625 8.0156 17.672 4.2656 27.094-1.6406 4.0312-4.3594 7.0312-8.25 9-9.0469 4.7812-18.328-1.0312-22.547-9.5625-3-6.0469-3.5625-12.469-1.6406-19.219 0.046875-0.09375 0-0.14062-0.046875-0.1875-0.14062-0.09375-0.1875-0.09375-0.28125 0-3.0469 2.3438-6.2344 4.9688-9.6094 1.5-4.2656-4.4062 1.9219-9.5156 5.5781-11.953 10.219-6.7969 21.797-9.6094 34.688-8.4375 3.1875 0.32812 6.0469 0.98438 8.6719 2.0156 6.8906 2.7188 3.4219 12.562-3.4219 10.734-2.25-0.60938-4.5938-1.125-7.0312-1.5469-0.1875-0.09375-0.28125 0-0.375 0.1875-0.09375 0.09375-0.09375 0.23438 0 0.375z"/>
 <path d="m549.42 369.79c0.375 0.9375 0.75 2.625 1.125 5.0625 1.4062 8.8125-1.875 19.312-10.219 23.578-7.6875 3.9844-16.125 0.42188-20.766-6.5156-4.6875-7.0312-4.875-13.875-3.4219-22.172 0-0.14062 0-0.23438-0.14062-0.375s-0.32812-0.14062-0.42188-0.046875c-2.7656 1.3125-9 5.1094-11.438 5.0625-6.8438-0.1875-8.2031-7.9688-2.4375-11.203 8.3438-4.7344 19.406-8.8125 29.062-8.9531 11.109-0.1875 21.375 3.0938 30.75 9.75 6.375 4.5 0.9375 12.891-5.7656 8.9062-3.75-2.3438-5.6719-3.4688-5.8594-3.5156s-0.28125 0-0.375 0.046875c-0.09375 0.14062-0.14062 0.28125-0.09375 0.375z"/>
 <path d="m603.05 407.95c0.32812-6.75 9.5156-6.8906 10.406 0 0.28125 2.3438 0.28125 5.3438-0.09375 8.9062-1.3594 15.094-3.375 30.516-6 46.266-1.4062 8.625-4.0312 19.453-7.7812 32.438-0.46875 1.3125 0 2.5781 1.1719 3.7031 4.875 4.7812 11.578 9.2812 20.062 13.594 3.1406 1.5938 4.7344 6.2812 1.875 9.0938-3.375 3.2812-8.0156 1.125-11.578-0.89062-8.25-4.4531-14.906-9.5156-20.062-15.047-3.2344-3.5625-4.1719-8.0625-2.8125-13.5 2.1562-8.1562 5.7188-20.906 7.6875-32.062 3.4688-19.312 6.2812-34.875 7.125-52.5z"/>
 <path d="m591.56 556.55c-0.60938-2.8125 0.1875-5.0625 2.4844-6.6094 0.9375-0.60938 3.1875-0.79688 6.8906-0.42188 14.766 1.3125 29.062-1.4062 42.797-8.2031 1.5-0.75 3.3281-2.2031 5.5312-4.4531 1.5469-1.5938 2.7188-2.5312 3.4688-2.8594 3.5156-1.4531 7.2656 0.51562 7.7812 4.2656 0.98438 7.1719-11.156 13.781-17.391 16.312-12.938 5.1562-26.109 7.5469-39.516 7.0312-3.9844-0.09375-8.8125-0.42188-11.438-3.7969-0.28125-0.375-0.46875-0.79688-0.60938-1.2656z"/>
</svg>
