<?xml version="1.0" encoding="UTF-8"?>
<svg width="1200pt" height="1200pt" version="1.1" viewBox="0 0 1200 1200" xmlns="http://www.w3.org/2000/svg">
 <path d="m517.13 718.31c0.046875 0.14062 0.1875 0.1875 0.32812 0.1875 0.09375-0.046875 0.23438-0.14062 0.28125-0.23438 4.4062-11.438 6.8906-23.062 7.5-35.016 0.51562-10.359 0.75-16.266 0.65625-17.625-0.1875-1.8281-0.09375-21.188 0.375-58.172 0-0.70312-0.28125-1.2188-0.70312-1.6406-29.25-26.672-48.609-60-62.016-97.453-0.09375-0.46875-0.46875-0.60938-0.98438-0.375-1.875 0.89062-4.5469 1.5-6.7031 1.7812-44.109 4.3594-77.859-28.078-85.031-69.75-2.8125-16.5-0.65625-31.875 6.6094-46.078 3.8906-7.6406 9.4219-14.297 16.359-18.984 0.51562-0.375 0.65625-0.84375 0.5625-1.4062-0.5625-2.625-0.75-4.125-1.4062-6.375-3.1406-10.875-5.2031-21.234-6.2812-31.172-0.9375-8.2969-1.2188-19.125-2.8125-28.828-0.75-4.6875-3.1875-8.625-7.4062-11.719-10.5-7.7812-21.75-15.141-29.906-26.438-17.438-24.516-16.125-53.531-1.3125-78.938 16.453-28.125 45.141-49.125 77.812-52.969 5.25-0.60938 11.531-0.28125 15.656-0.65625 0.65625-0.09375 0.9375-0.375 0.9375-1.0781-0.32812-5.5781-0.75-12.188-1.2656-19.875-0.23438-4.2656 0.14062-10.266 1.1719-17.953 3.2812-23.719 15.516-41.25 36.703-52.359 21.375-11.25 46.828-12.422 70.641-8.5781 28.594 4.6875 54.422 15.844 77.438 33.328 4.9219 3.75 9.9844 7.8281 15.188 12.188 1.1719 0.98438 2.4375 0.98438 3.6562 0 3.4688-2.7656 6.1875-4.9219 8.25-6.5156 19.875-15.281 42.188-20.531 67.031-15.609 25.359 5.0625 51.469 21.234 59.812 46.875 0.98438 3.0469 1.4062 5.6719 1.3594 7.8281 0 0.375 0.1875 0.46875 0.51562 0.42188 1.7812-0.51562 6.5625-1.5469 8.9062-1.6875 30.562-2.25 61.453 9.375 76.312 37.734 7.5 14.25 10.219 29.719 8.0156 46.266-1.3125 10.312-3.9844 20.203-8.0625 29.625-4.125 9.6094-6.6094 15.891-7.5 18.75-3.6094 11.625-0.14062 24.047 1.8281 35.062 3.2344 18.516-0.9375 37.5-10.125 53.953-6.2812 11.109-9.75 16.688-12.75 23.859-0.1875 0.375-0.09375 0.70312 0.23438 0.9375 9.0469 6.1875 15.562 14.625 19.359 25.359 7.5938 21.281 2.8125 43.219-7.3125 63-7.1719 14.203-16.969 26.016-29.344 35.531-5.1562 3.8438-11.203 6.9375-18.188 9.0469-8.8125 2.7656-18.328 2.4844-28.594-0.75-0.375-0.14062-0.60938 0-0.75 0.42188-8.2969 26.719-20.438 51.656-36.375 74.812-7.5938 11.062-15.844 21-24.75 29.719-0.46875 0.46875-0.75 1.0312-0.75 1.7344-0.65625 12.234-0.60938 25.641 0.09375 40.125 1.2188 25.922 7.1719 49.875 15.422 74.203 0.1875 0.46875 0.51562 0.60938 0.9375 0.375 2.0156-1.125 3.6094-1.0781 5.8594 0.1875 6.1875 3.375 10.969 6.2812 14.344 8.7188 10.031 7.3125 21.938 17.906 30 25.688 11.344 11.203 22.547 24.938 28.594 39.703 0.32812 0.89062 0.89062 1.5 1.6406 2.0156 21.141 12.938 41.953 24.938 66.891 37.969 19.219 10.078 34.547 18.141 45.938 24.281 11.344 6.0938 21.469 12.188 30.281 18.281 20.719 14.344 36.141 34.875 47.062 58.219 16.828 35.672 25.406 73.312 28.594 112.88 2.8594 36.094 4.0312 71.438 5.1094 109.97 0.046875 0.89062-0.32812 1.5938-1.0781 2.0625-2.8594 1.7812-5.1094 2.5781-9 2.3906-3.9844-0.14062-6.4688-0.1875-7.5-0.1875-428.9 1.875-711.42 3.1875-847.55 3.9844-3.1406 0-6.1875-0.28125-7.8281-3.0469-1.5938-2.7656-2.25-5.4844-1.7344-8.25 0.5625-3.1406 1.7344-8.1094 2.2969-11.859 3.8906-27.656 7.0781-49.312 9.5156-65.062 6.3281-40.828 15.328-82.828 28.078-121.13 4.7344-14.438 8.8125-25.969 12-34.5 5.5312-14.625 12.469-28.312 20.906-40.969 2.2031-3.2812 6.4688-8.3438 12.75-15.188 9.1406-9.8438 21.328-17.484 32.531-22.547 14.297-6.5156 30.094-12.516 47.531-17.953 52.219-16.406 78.844-24.094 116.2-39.234 0.79688-0.375 1.125-0.9375 0.9375-1.7344-0.75-3.8438 1.0781-6.1406 4.1719-8.7656 2.3438-1.9219 3.6562-3.1406 4.0312-3.5625 5.25-7.3594 9.75-12.938 13.406-16.688 12.375-12.562 27.703-24.328 44.062-31.922 4.125-1.875 9.4688-2.9531 12.328 1.3594zm272.44-348.98c7.7344-9 20.297-16.219 32.297-14.766 1.0781 0.14062 2.1562 0.1875 3.1875 0.23438 0.46875 0 0.70312-0.1875 0.89062-0.5625 2.0156-4.5469 6.4219-12.797 13.312-24.797 8.5781-14.953 11.812-32.109 8.4375-49.312-0.70312-3.375-1.5-7.875-2.4375-13.312-1.8281-11.016-0.51562-21.562 4.0781-31.828 6.9844-15.75 12.844-30.75 13.172-46.922 0.23438-14.953-3.9844-28.266-12.891-39.891-12-15.75-32.859-23.344-52.172-24.094-7.4531-0.32812-13.875 0.75-19.172 3.0938-2.9062 1.2656-5.0625 1.6406-7.4531-0.23438-0.89062-0.75-1.3125-2.5781-1.3594-5.4844 0-1.2656-0.1875-4.0312-0.5625-8.3906-0.09375-0.5625-0.1875-1.125-0.375-1.6875-8.0625-22.922-31.5-36.234-54.516-40.312-19.172-3.375-36.75 0.51562-52.547 11.625-1.875 1.3125-5.3906 3.9844-10.594 8.2031-6.9844 5.5312-12.844 4.9688-19.734-0.5625-8.0156-6.5156-14.062-11.25-18.234-14.25-22.594-16.125-47.906-25.828-75.938-29.062-36.656-4.2188-79.266 8.4375-85.594 50.484-1.3125 8.3906-1.5938 15.797-1.0312 22.312 0.46875 6.1875 0.79688 11.625 0.84375 16.266 0 5.1094-1.9219 8.7188-5.8594 10.781-1.6875 0.89062-5.2969 1.3125-10.875 1.3125-5.4844 0-9.5625 0.28125-12.234 0.75-30.141 5.1562-55.453 24.375-69.328 51.375-14.438 28.219-7.5 58.312 18.234 76.828 5.7656 4.125 9.8906 7.125 12.328 9 8.6719 6.4219 12.141 15 12.891 25.453 1.2188 16.219 1.9219 28.031 5.1562 42.047 0.375 1.6875 1.5 6 3.4688 12.984 0 0.1875 0.046875 0.75 0.09375 1.6875 0.09375 0.65625 0.28125 1.125 0.5625 1.4531 0.28125 0.23438 0.5625 0.375 1.0312 0.32812 4.7344-1.0312 9.75-0.84375 15.094 0.5625 8.9062 2.2969 16.453 6.8438 22.781 13.781 0.046875 0.09375 0.1875 0.14062 0.23438 0.09375 0.14062-0.09375 0.1875-0.14062 0.1875-0.28125 0.32812-12.75 1.3125-25.922 3-39.609 0.32812-2.3906 0.23438-4.7344 1.9219-6.5625 2.0156-2.1094 3.75-4.5 5.3906-7.0781 3.9844-6.4688 8.1094-13.406 12.516-21 8.2969-14.344 13.922-29.297 16.969-44.812 0.70312-3.75 1.4531-6.1875 2.25-7.2188 1.6875-2.4375 3.75-3.7031 6.2812-3.8906 25.734-1.7344 53.812-16.172 69.984-36.562 0.14062-0.1875 0.32812-0.375 0.5625-0.5625 5.0625-3.75 8.0156-1.6875 11.953 2.9531 19.312 22.406 47.062 31.406 76.312 30.797 15.797-0.375 30.656-3.8906 44.625-10.547 11.672-5.625 21-11.391 27.844-17.344 5.5312-4.7344 8.8125-7.9688 9.8438-9.6562 2.2969-3.9375 6.5625-7.6875 10.406-3.6562 1.4062 1.4062 1.9688 2.7656 1.8281 4.0781-0.89062 7.5469-0.23438 15.516 1.875 23.859 3.0469 11.766 6.9375 22.594 11.625 32.391 4.1719 8.625 9.2344 15.75 14.016 23.953 4.1719 7.3594 6.1875 14.859 8.2969 23.438 0.75 3.0938 2.7656 6.6094 3.2344 10.219 1.9688 14.578 3.1406 28.453 3.5625 41.766 0 0.046875 0 0.14062 0.14062 0.1875 0.046875 0 0.14062 0 0.1875-0.046875zm-54.422-141.37c-7.7812 7.4062-17.625 14.297-29.531 20.625-27.984 14.859-60.656 17.438-90.75 9.2344-17.344-4.7344-32.672-14.016-45.938-27.797-0.23438-0.32812-0.5625-0.32812-0.9375-0.09375-1.3125 0.89062-2.25 2.3906-3.9375 4.0312-17.062 16.5-43.031 29.438-66.75 31.406-0.46875 0.09375-0.84375 0.375-0.9375 0.89062-3.0938 17.016-9.2812 33.516-18.562 49.641-5.8594 10.172-10.359 17.672-13.5 22.547-0.75 1.2656-1.5469 2.3906-2.4375 3.5156-1.2188 1.7344-1.9688 3-2.0625 3.6562-5.1094 35.062-4.5 71.344 1.8281 108.84 5.625 33.094 16.266 63.844 31.922 92.297 26.156 47.25 73.078 87.984 130.4 82.078 57.281-5.9531 100.12-55.312 123.19-104.53 26.156-56.062 35.156-120.37 28.688-181.55-0.65625-5.8125-1.2656-9.8906-1.875-12.188-3.1406-11.859-4.875-18.516-5.3438-19.875-1.5938-5.625-3.9375-10.688-6.9844-15.141-13.828-20.438-22.453-42.938-25.922-67.406 0-0.14062-0.09375-0.28125-0.1875-0.28125-0.14062-0.046875-0.28125-0.046875-0.375 0.09375zm53.438 185.16c7.875-8.6719 17.625-14.156 29.109-16.547 2.8125-0.5625 5.625-0.5625 8.5781-0.14062 3.8438 0.5625 6.8438 4.0781 5.0625 8.0156-1.4531 3.1875-3.9375 3.5625-7.4531 3.375-3.9844-0.1875-8.1094 0.5625-12.375 2.3906-0.375 0.1875-0.51562 0.42188-0.1875 0.79688 3.5156 5.0156 5.1094 11.297 4.875 18.891-0.375 9.0938-3.5625 16.594-9.5625 22.359-4.1719 3.9844-11.672 0.89062-9.5625-5.3906 0.32812-0.79688 0.98438-1.875 2.2031-3.1875 6-6.6094 7.5469-14.625 4.7812-23.859-0.375-1.1719-1.1719-2.4844-2.0625-3.375-0.28125-0.32812-0.60938-0.375-0.98438-0.046875-4.5469 3.6094-9 8.2969-11.766 13.594-1.1719 2.25-2.2969 4.4062-3.4219 6.2812-0.375 0.60938-0.60938 1.3125-0.75 1.9688-2.1094 13.969-5.1094 27.844-9 41.625-0.14062 0.375 0 0.5625 0.32812 0.70312 15.984 5.8594 31.5-0.79688 43.219-12.188 13.828-13.453 22.875-29.391 27.281-47.812 4.3594-18.562-0.14062-42.516-18.328-52.172-15.75-8.3906-31.922 5.8594-38.438 18.75-0.42188 0.79688-0.70312 1.6875-0.70312 2.5312l-1.1719 23.344c-0.046875 0.046875 0 0.09375 0.046875 0.1875 0.14062 0 0.1875 0 0.28125-0.09375zm-342.47 11.391c-0.46875-5.25-0.84375-11.062-1.0312-17.438-0.09375-3.5156-0.75-5.0625-2.7188-8.0625-8.4375-13.172-25.031-23.016-40.031-15.516-14.438 7.2188-21.375 28.594-20.953 43.453 1.0781 36.75 25.922 69.375 64.125 71.625 3.5156 0.23438 7.8281-0.1875 12.797-1.125 1.0781-0.23438 1.4531-0.79688 1.125-1.875-5.1094-16.688-8.8594-34.078-11.25-52.078-0.046875-0.375-0.1875-0.75-0.375-1.125-3.75-6.8438-11.859-12-19.219-14.625-1.0312-0.375-1.7812-0.046875-2.25 0.89062-4.4062 7.8281-5.2031 19.453 1.2188 26.391 1.4531 1.5938 2.8125 3.0938 4.125 4.3594 4.8281 5.0156-1.9219 12.141-7.4062 8.0156-12.844-9.5625-15.328-26.625-8.7656-40.969 0.14062-0.1875 0.046875-0.42188-0.046875-0.60938-0.14062-0.1875-0.32812-0.23438-0.5625-0.23438-3.2812 0.42188-6.375 1.3594-9.375 2.8125-7.0781 3.375-12.469-5.625-6.0938-9.7031 13.875-8.7656 34.078-3.4219 46.312 6 0.09375 0.046875 0.14062 0.046875 0.28125 0.046875 0.046875-0.046875 0.09375-0.09375 0.09375-0.23438zm91.219 191.02c0.09375 5.1094 0.375 11.109 0.75 17.906 0.23438 4.2656 0.28125 12.469 0.09375 24.375 0 0.1875-0.046875 0.375-0.09375 0.5625l-0.70312 1.875c-0.046875 0.14062-0.14062 0.32812-0.14062 0.51562 0.75 26.25-1.5938 48.891-12.984 70.922-0.5625 1.0312-0.51562 2.0156 0.046875 3 21.328 35.906 50.906 68.25 85.969 90.891 3.9375 2.4844 7.3594 4.5469 10.312 6.1406 1.5 0.75 3 0.79688 4.5469 0.046875 3.3281-1.5469 6.8906-3.75 10.547-6.5156 19.219-14.062 36.703-30.984 52.406-50.625 11.625-14.531 22.172-29.438 30.844-45.797 0.28125-0.5625 0.32812-1.1719 0.09375-1.7344-2.625-6-4.875-11.953-6.7031-17.906-3.7969-12.375-6.7031-22.875-8.5781-31.406-3.1875-14.625-4.875-29.766-4.9219-45.375 0-5.9062 0.14062-13.875 0.42188-24.094 0-0.1875-0.09375-0.28125-0.23438-0.375-0.1875-0.09375-0.32812-0.046875-0.51562 0.09375-9.2812 7.9219-19.547 14.531-30.75 19.969-30.938 14.953-62.156 17.062-93.844 6.5156-12.562-4.2656-25.641-11.203-36.188-19.172-0.09375-0.09375-0.1875-0.09375-0.28125-0.09375-0.09375 0.09375-0.09375 0.14062-0.09375 0.28125zm195.61 111.05c-5.1094 10.688-11.016 20.953-17.672 30.891-12.328 18.234-26.25 35.109-41.812 50.672-8.8125 8.8594-17.812 16.734-27 23.672-5.0156 3.8438-9.8438 7.0312-14.438 9.5625-0.46875 0.28125-0.5625 0.65625-0.375 1.125 1.125 2.5781 2.625 5.25 4.5469 8.0625 9.1875 13.031 19.547 25.312 31.125 37.031 10.078 10.125 21.047 18.562 33 25.406 0.60938 0.32812 1.2656 0.32812 1.875 0 8.0625-4.3125 15.328-9.6562 21.75-16.125 15.141-15.047 26.953-31.125 39.891-50.344 10.594-15.844 19.969-31.406 28.172-46.688 0.375-0.75 1.125-2.8125 2.25-6.1406 0.14063-0.42188 0.1875-0.89062 0.14063-1.3125-0.1875-1.7344-0.65625-3.1875-1.2656-4.3125-5.2969-9.7969-11.953-18.891-19.875-27.234-11.109-11.719-23.016-22.453-35.625-32.25-0.5625-0.46875-1.875-1.2188-3.9375-2.25-0.32812-0.1875-0.60937-0.14062-0.75 0.23438zm-223.55 0.89062c-0.1875-0.65625-0.5625-0.75-1.125-0.51562-16.406 8.8594-30.844 20.391-43.219 34.5-4.2188 4.875-7.5938 11.109-12.75 15.375-0.5625 0.51562-0.65625 1.0781-0.23438 1.6875 14.766 23.484 24.328 41.484 39.797 70.688 9.6562 18.047 18.188 34.641 25.875 49.734 2.3906 4.6875 4.875 10.969 6.75 14.625 0.51562 0.89062 1.2656 1.3125 2.25 1.125 3.5156-0.42188 7.125-1.3594 10.969-2.8125 11.109-4.125 21.656-9.7969 31.688-16.969 19.125-13.828 35.672-30.891 45.984-51.703 0.32813-0.5625 0.1875-0.98438-0.375-1.3125-5.3906-2.8594-10.359-5.9531-15.188-9.2344-34.453-23.719-62.062-53.25-82.828-88.828-3.375-5.7656-5.8594-11.25-7.5938-16.359zm114.47 124.5c-5.6719 10.688-12.938 20.625-21.75 29.719-17.438 18.281-38.344 33.188-61.969 41.766-4.125 1.5-8.25 2.4375-12.469 2.8594-8.4844 0.89062-12.094-3.4219-15.281-11.062-1.875-4.5938-3.75-8.4375-6.0938-12.938-12.562-24.938-27.469-53.297-44.812-85.031-5.6719-10.453-11.062-19.594-16.125-27.375-0.1875-0.375-0.46875-0.46875-0.84375-0.32812-37.453 15.234-72.516 25.875-115.27 39.188-10.875 3.375-22.172 7.3125-33.891 11.812-9.0938 3.5156-17.25 7.2656-24.469 11.203-6.375 3.5625-11.016 6.6094-13.875 9.2812-5.2031 4.7812-10.641 10.641-16.312 17.578-4.2188 5.0625-7.5 10.078-10.031 14.859-9.4688 18.75-15.609 36.703-22.969 58.875-11.578 34.875-20.203 72.375-25.875 107.72-4.0781 25.406-8.1562 51.938-12.094 79.406-0.5625 3.9375-0.9375 6.5156-1.1719 7.5938-0.046874 0.375 0.14063 0.5625 0.51563 0.5625l115.41-0.51562c0.32812 0 0.51562-0.1875 0.51562-0.51562-0.42187-17.297-1.0781-34.734-1.9219-52.219-2.3438-47.203-3.6562-74.203-3.9375-80.812-0.65625-13.969-1.2656-35.25-1.875-63.938-0.09375-2.625 0.28125-4.7812 1.2188-6.2812 2.5312-4.2188 9.0938-2.3438 9.2812 2.9062 0.42187 12.609 1.0312 26.859 1.7812 42.844 3.4688 69.188 5.5312 110.91 6.0938 125.06 0.375 9.5625 0.65625 20.344 0.84375 32.344 0 0.375 0.1875 0.5625 0.65625 0.5625l612.56-2.9062c0.23437 0 0.375-0.09375 0.375-0.375 0.23437-4.3594 3.9375-66.75 10.922-187.18 0.32813-4.6406 4.6406-8.1094 9-5.3906 1.9219 1.2656 2.8125 3.5625 2.625 6.9375-5.8125 99.375-9.2344 158.34-10.359 176.76-0.09375 0.98438-0.14063 3.8906-0.28125 8.625 0 0.375 0.14062 0.5625 0.51562 0.5625l95.812-0.51562c0.5625 0 0.89063-0.23438 0.89063-0.84375-0.9375-31.125-1.9688-55.828-3-74.062-1.3125-22.5-3.1406-44.719-7.2656-67.031-3.6094-19.688-9.4219-39-17.438-58.031-6.7969-16.406-14.438-29.766-22.688-40.125-9.5625-11.906-21.141-21.938-34.688-30.188-5.8125-3.5156-14.859-8.9062-21.188-12.188-36.375-19.125-73.266-37.828-108.23-59.578-0.46875-0.23438-0.70313-0.14062-0.9375 0.23438-4.0312 8.2031-8.2031 15.891-12.516 23.016-10.734 17.812-21.141 33.609-31.266 47.484-8.8125 12.094-17.859 22.828-27.234 32.344-7.4531 7.4062-15.891 13.734-25.359 18.797-4.2188 2.25-8.0625 2.3906-11.766 0.32812-17.016-9.7031-32.016-22.031-44.953-36.938-9.5625-11.016-18.375-22.641-26.484-34.969-0.14062-0.09375-0.1875-0.09375-0.32812 0.09375z"/>
 <path d="m571.36 333.14c-0.46875 3.6094-3.6094 6.375-7.5 5.9062-21.938-2.3438-43.031 0.65625-63.469 9.0938-4.875 1.9688-10.266-1.5938-9.375-6.8906 0.375-2.0625 1.3594-4.0781 3-6.1406 9.5625-11.906 22.5-19.219 38.156-19.594 11.906-0.28125 22.688 2.5312 32.344 8.4375 3.0938 1.9219 7.5469 5.0625 6.8438 9.1875z"/>
 <path d="m745.69 338.29c-0.60938 4.5-3.4219 6.4688-8.4844 5.8125-0.09375 0-5.0625-0.9375-15.188-2.7188-11.25-2.0625-22.078-3.1406-32.438-3.2812-4.875 0-9.75 0.75-14.766 2.3438-3.4219 1.0312-6.75 0.98438-9-1.5-2.9531-3.375-1.6406-6.5156 1.2656-9.5625 11.344-12 28.594-16.078 44.719-12.328 11.438 2.7656 23.906 8.2031 32.25 16.547 0.5625 0.5625 1.0781 1.7812 1.5938 3.6562 0.09375 0.375 0.09375 0.65625 0.046875 1.0312z"/>
 <path d="m677.63 395.81c-2.1094-1.5-2.8125-3.5625-2.0156-6.0469 1.0781-3.6562 7.5-7.0312 11.531-8.5781 12.047-4.6875 24-6.9375 35.812-6.75 5.8125 0.046875 9.0469 6.0469 3.9844 10.078-1.0781 0.84375-4.3594 1.3125-6.1875 1.3125-5.9531-0.09375-11.859 0.60938-17.859 1.9688-7.5 1.6875-14.391 3.4688-19.828 7.9688-1.125 0.98438-3.9844 1.0312-5.4375 0.046875z"/>
 <path d="m611.26 512.76c-2.2969 0.84375-4.8281 0.046875-7.6406-2.3906-8.8594-7.875-15.469-15.141-19.875-21.797-5.625-8.5312-3.5625-17.578-0.28125-26.719 9.0469-25.688 15.375-45.281 18.938-58.875 0.84375-3.2812 2.0625-8.4844 3.6094-15.656 0.23438-1.3125 0.98438-2.3906 2.0625-3.1406 1.125-0.75 2.2969-0.98438 3.6094-0.75h0.09375c1.3125 0.1875 2.3438 0.79688 3.1875 1.875 0.79687 1.0781 1.1719 2.2031 1.0312 3.5156-0.375 4.5-1.0312 8.6719-1.9688 12.469-5.9531 23.906-12.75 45.938-20.391 66.328 0 0.14062-0.42187 1.7344-1.3125 4.9219-1.1719 4.3125-0.375 8.1562 2.4375 11.578 6.1406 7.5 10.359 12.188 12.703 14.109 2.1562 1.8281 3.6094 3.0938 4.3594 3.8438 3.0469 3.0469 4.4531 7.2188 0.42188 10.125-0.28125 0.23438-0.60938 0.42188-0.98438 0.5625z"/>
 <path d="m496.74 393.32c1.5-3.75 5.3906-4.8281 9.3281-5.5781 11.203-2.1094 23.203-0.75 34.453 2.4375 3.7969 1.0781 12.281 2.8125 12.469 7.875 0.14062 4.4531-3.75 6.1875-7.5938 4.8281-9.5625-3.375-19.453-5.1562-29.531-5.1562-2.0625 0-5.2969 0.5625-9.7969 1.6875-4.4531 1.125-9.1875 0.75-9.5625-4.5938-0.046875-0.51562 0-1.0312 0.23438-1.5z"/>
 <path d="m582.14 552.56v-0.1875c0.046875-3.0469 1.5938-4.6875 4.6875-4.9219 4.875-0.375 10.5-0.14062 15.938-1.4062 16.922-4.0312 32.344-9.7969 45.656-20.859 3.9375-3.2344 9.1875-1.1719 9.8906 3.8906 0.046875 0.375 0 0.75-0.14062 1.125-0.79688 2.1094-1.9688 3.7969-3.4688 4.9688-15.75 12.562-35.719 19.312-55.406 22.406-3 0.46875-7.3125 0.42188-12.797-0.09375-1.2656-0.046875-2.2969-0.60938-3.1875-1.5469-0.79688-0.98438-1.2656-2.1094-1.1719-3.375z"/>
 <path d="m620.95 906.98c3 0.1875 5.4375 1.5938 7.3594 4.2188s2.8125 5.7188 2.625 9.2812c-0.23438 3.5156-1.4531 6.5156-3.7031 8.9062-2.1562 2.4375-4.7344 3.5625-7.7344 3.375-2.9531-0.1875-5.3906-1.5938-7.3125-4.2188s-2.8125-5.7188-2.625-9.2812c0.1875-3.5156 1.4531-6.5156 3.6094-8.9062 2.25-2.4375 4.8281-3.5625 7.7812-3.375z"/>
 <path d="m631.13 1032.7c-0.14062 5.0625-3.9375 11.203-9.1406 12.375-4.4062 1.0781-8.4844-1.7344-10.125-5.8125-0.79688-2.0156-1.2188-4.3594-1.1719-7.0781 0.14062-2.625 0.60938-4.9688 1.5-6.9375 1.875-3.9844 6.0469-6.6094 10.453-5.2969 5.0625 1.4531 8.625 7.7344 8.4844 12.75z"/>
 <path d="m621.71 1107.6c2.4375 0.375 4.3125 1.875 5.625 4.5 1.3125 2.6719 1.7344 5.625 1.1719 8.9531-0.5625 3.2812-1.875 6-3.9844 8.0625-2.1562 2.0625-4.4062 2.8594-6.8438 2.4844-2.4375-0.42188-4.3125-1.9219-5.625-4.5469s-1.6875-5.625-1.1719-8.9531c0.5625-3.3281 1.9219-6 3.9844-8.0625 2.1562-2.0625 4.4062-2.8594 6.8438-2.4375z"/>
</svg>
