<?xml version="1.0" encoding="UTF-8"?>
<svg width="1200pt" height="1200pt" version="1.1" viewBox="0 0 1200 1200" xmlns="http://www.w3.org/2000/svg">
 <path d="m406.45 609.94c-0.46875 1.2656-0.84375 3.2344-0.89062 4.8281-0.1875 10.781-0.23438 21.609-0.046875 32.438 0.09375 7.9688 3.0938 18-0.70312 25.312-1.4531 2.8594-3.5625 5.1562-6.3281 7.0312-6.75 4.5938-13.219 0.1875-17.297-5.3438-0.98438-1.3125-1.5-2.0156-1.5-2.0625-9.3281-12-18.188-24.703-26.484-38.156-8.3438-13.359-14.953-24-19.969-31.922-3.1875-5.1094-6-9.9844-8.4375-14.578-3.375-6.2812-7.0312-12.234-10.734-19.547-4.8281-9.7031-9.4219-18.797-12.984-27.797-2.3438-5.8125-4.875-10.688-7.3125-17.391-4.4531-12.188-7.3125-20.25-8.7188-24.234-6.9375-20.438-12.375-41.906-16.219-64.312-1.5938-9.0938-1.8281-16.266-3.2812-24.469-0.60938-3.4688-1.125-7.9219-1.5469-13.172-0.51562-6.7969-1.125-11.812-1.125-17.672v-39.281c0-3.75 0.1875-6.8438 0.51562-9.2812 0.5625-4.125 0.65625-8.0625 1.4062-12.375 1.2188-6.5156 1.9688-11.062 2.3438-13.688 0.60938-4.4531 1.5469-9 2.7188-13.641 6.8906-27.562 16.688-52.875 29.391-75.984 15.516-28.266 34.688-54 57.609-77.391 15.328-15.516 32.391-29.438 51.281-41.812 29.156-19.078 60.609-32.484 94.219-40.359 9.4688-2.2031 17.766-2.7188 27.094-4.5938 2.5312-0.5625 6.2344-0.98438 10.969-1.3594 5.5312-0.375 10.219-1.125 14.812-1.125 5.4375 0.046875 13.406 0.046875 23.906 0.046875 1.7812 0 3.9375 0.1875 6.375 0.51562 3.9375 0.42188 8.9062 0.9375 13.125 1.7344 6.0938 1.2188 9.9375-0.046875 16.406-1.1719 3.375-0.5625 6.6562-0.9375 9.7031-1.0781 8.2031-0.28125 19.266-1.875 28.172-0.9375 4.4531 0.51562 8.7188 0.84375 12.75 0.89062 3.2812 0.14062 7.4531 0.60938 12.656 1.4531 11.531 1.9219 19.406 3.4219 23.719 4.5469 19.266 4.875 36.516 11.391 51.703 19.5 29.578 15.75 54.516 36.141 74.953 61.125 7.5938 9.4219 15.797 21.188 24.469 35.391 4.7812 7.7344 8.7656 14.719 11.953 20.859 12.516 24.047 22.688 47.297 30.422 69.797 3 8.7188 5.2031 15.188 6.5625 19.453 1.8281 5.4375 3.6562 11.672 5.4375 18.797 2.9062 11.062 4.5 17.531 4.8281 19.312 1.3125 7.9688 2.625 15.891 3.9375 23.812 0.98438 5.9062 0.70312 11.438 1.4531 16.781 1.6875 11.625 2.2969 24.797 1.7812 39.562-0.28125 9-1.6875 17.625-2.625 27-0.46875 5.25-0.9375 8.8125-1.3125 10.734-5.4844 27.75-13.875 51.984-25.125 72.797-14.906 27.656-33.656 52.688-56.297 75.094-15.047 14.859-30.047 27.422-44.953 37.5-8.0625 5.4844-18.188 11.438-30.422 17.812-19.312 10.125-40.078 17.156-62.203 21.234-3.0938 0.5625-7.5 1.125-13.172 1.6406-4.4531 0.375-8.8125 1.0312-13.172 1.9688-3.0938 0.65625-3.1406 1.5938-0.1875 2.7656 1.875 0.79688 4.9688 1.8281 7.5 3.2344 4.2188 2.3906 8.2969 4.6406 12.375 6.8438 5.625 3 12.422 8.3438 20.484 15.984 0.9375 0.89062 2.5781 0.9375 4.875 0.14062 8.6719-3.0938 18-5.5312 27.984-7.4062 2.3906-0.42188 5.4375-0.60938 9.2812-0.42188 7.3594 0.32812 11.906 4.0781 15.234 10.266 2.0625 3.9375 3.5625 8.0625 4.6406 12.375 1.1719 5.1094 2.1562 11.438 3.0938 19.031 0.09375 0.70312 0.46875 1.2656 1.0312 1.6406 3.2344 2.0156 6.2812 3.7031 9.2344 5.0156 2.5781 1.1719 5.7656 2.8594 9.6094 5.1094 11.391 6.4219 19.406 11.484 24 15.188 14.906 11.578 27.469 24.234 37.641 38.016 10.688 14.344 19.688 28.406 27.047 42.094 7.0312 13.125 13.453 26.578 19.266 40.453 5.3906 12.609 9.9375 25.172 13.641 37.641 5.625 18.609 10.312 36.422 13.969 53.438 2.1562 9.9375 3.8438 17.438 5.0156 22.5 1.0781 4.7344 1.6875 10.359 2.5781 14.344 1.875 8.7656 3.0469 14.531 3.5625 17.25 3.4688 19.406 8.7188 46.266 15.656 80.578 2.3438 11.672 4.3125 24.703 6.5156 36.422 0.23438 1.5 0.1875 3.7031-0.375 6.6562-0.70312 4.0312-3.0469 6.6094-7.0781 7.6875-6.6094 1.6875-11.484 2.625-14.531 2.8594-2.7656 0.1875-7.6875 0.23438-14.719 0.23438-399.66-0.09375-622.6-0.09375-668.72 0-1.4531 0-3.8438-0.1875-7.2188-0.46875-5.4375-0.5625-9.375-3.2812-11.859-8.0625-3.1406-6.0938-4.1719-12.281-3.2344-18.516 1.5-10.078 2.1562-19.828 1.9688-29.109-0.09375-9.0938 0.70312-15.703 1.3125-26.156 0.32812-5.2969 0.89062-10.734 1.6406-16.312 0.70312-4.5469 1.0781-10.125 1.3125-16.5 0.14062-4.3594 0.89062-10.5 2.1094-18.375 0.70312-4.2188 1.3125-8.625 1.7812-13.219 0.375-4.2656 0.98438-12.469 2.0625-17.578 1.0312-4.875 1.9219-10.359 2.5312-16.5 0.28125-2.4375 1.0312-6.8906 2.25-13.359 0.84375-4.0312 1.6406-8.5312 2.5312-13.406 3.1875-17.062 7.5469-35.062 13.125-54 5.25-17.625 11.531-34.219 18.984-49.922 12.938-27.234 30.375-50.25 52.266-69 14.531-12.516 32.062-24 52.406-34.547 0.65625-0.32812 1.5938-1.2188 2.9062-2.5781 0.65625-0.75 1.3594-1.875 1.9219-3.2344 3.1875-7.3125 8.4375-19.406 14.109-28.781 3.375-5.625 6.9375-9.4688 10.594-11.625 6-3.4219 12.75-4.3125 20.297-2.7188 9.5156 2.0625 19.312 4.9688 29.391 8.7188 2.0625 0.84375 3.5625 0.1875 4.5-1.7812 4.125-9 8.5312-18.328 15.797-24.703 0.70312-0.60938 1.0781-1.7344 1.2656-3.375 0.23438-2.2031 0.42188-6 0.42188-11.25 0-1.5469-0.75-2.4375-2.25-2.625-30.609-4.0781-56.766-16.875-78.516-38.484-1.5-1.4531-3.2812-3.75-5.5312-6.9375-0.5625-0.84375-1.0312-0.75-1.3125 0.23438zm-26.25 23.578c0.375 0.65625 1.5938 1.7344 2.4375 3.0938 0.42188 0.70312 0.5625 0.65625 0.46875-0.1875-0.375-3.6562-0.5625-6.2344-0.75-7.6875-0.1875-2.4844-0.23438-5.0625-0.1875-7.6875 0.1875-5.0625 0.46875-10.875 0.75-17.484 0.14062-2.7656 0.14062-5.1094 0.09375-7.125-0.14062-3.6094-0.84375-8.0625-0.09375-11.484 0.75-3.4688 1.6406-6.375 0.32812-9-7.7344-15.141-14.062-31.266-18.938-48.375-2.9531-10.219-4.4531-19.406-6.7969-31.312-0.84375-4.4062-1.4062-9.375-1.5938-15.188-0.09375-2.0156-0.28125-3.5156-0.5625-4.5-0.46875-1.7812-1.2188-3.1406-2.1562-4.125-7.4062-7.875-13.219-14.578-17.438-23.719-3.5156-7.5938-5.9062-15.75-7.125-24.375-0.89062-6.0938-0.84375-12.234 0.1875-18.281 1.1719-6.75 2.7188-12.75 4.7344-17.953 4.9219-12.75 12.938-23.625 24-32.625 2.0625-1.6406 3.0469-3.1875 3.7031-5.625 2.3438-8.6719 3.8438-18.516 5.8594-26.203 0.32812-1.0312 1.3125-5.3438 3.1406-12.938 5.625-23.344 15-46.594 28.031-69.656 3.7031-6.4688 8.1562-13.078 13.219-19.688 11.812-15.375 26.156-26.906 43.125-34.453 3.9375-1.7344 8.9062-3.375 14.859-4.8281 7.125-1.6875 12.234-2.7188 15.328-3.1875 1.5938-0.1875 5.3438-0.23438 11.156-0.1875 2.3438 0.09375 4.2656 0.375 5.8125 1.0312 1.3125 0.5625 3.1406 1.5 5.4375 2.9062 6.1406 3.7031 10.969 6.9375 14.531 9.75 6.2344 4.9688 14.109 12.328 23.531 22.219 9.5156 9.9844 17.906 21.188 25.125 33.609 2.5312 4.4531 6.0938 10.688 10.594 18.797 3.1875 5.7656 9.4219 19.219 18.797 40.312 2.6719 6.1406 10.547 21.375 23.484 45.844 2.5312 4.6875 5.1562 9.0938 8.0156 13.406 1.5469 2.4375 4.2656 6.7031 7.9219 12.75 8.25 13.5 14.438 23.25 18.516 29.203 4.3125 6.4219 11.25 16.359 20.812 29.859 0.75 1.125 1.5 1.125 2.2031-0.046875 7.0312-11.625 16.594-21.328 28.734-28.875 11.438-7.125 24-10.078 37.641-8.7656 18.609 1.8281 33.469 12.516 41.484 29.156 1.4531 3.0469 2.8125 8.25 3.6094 10.922 0.9375 3.1406 1.5938 5.9531 1.8281 8.4375 0.9375 8.7656 0.51562 17.297-1.4531 25.734-1.6875 7.5938-3.5625 13.688-5.5312 18.375-10.875 25.688-27.938 45.938-51.281 60.938-2.3438 1.5-7.7344 4.0781-16.172 7.6406-3.2344 1.4531-6.6094 2.4375-10.125 3.1406-8.2031 1.5-15.609 2.9062-22.266 1.4062-4.0312-0.9375-8.5312-2.0625-13.406-3.4219-1.6406-0.42188-2.625 0.1875-2.9531 1.8281-1.2656 6.4219-2.7656 13.172-4.4531 20.156-2.7188 11.438-4.7812 23.953-6.1875 37.406-0.42188 3.8438-0.79688 6.75-1.125 8.5312-0.28125 1.7812-0.75 4.5938-1.3594 8.5312-0.23438 1.6875 0.51562 2.4375 2.1094 2.2969 2.625-0.23438 8.3438-0.75 17.156-1.5469 6.4688-0.5625 12.188-1.4062 16.969-2.3906 14.344-3 26.344-6.4219 35.906-10.312 12.469-5.1094 25.922-12.141 40.312-21.047 6.375-4.0312 12.938-8.5781 19.547-13.828 24.984-19.453 46.734-42.516 65.203-69.234 15.938-23.156 27.281-47.531 34.031-73.125 1.5-5.7188 2.625-11.578 4.0781-18 1.0781-4.9688 1.7344-9.5156 2.0625-13.688 1.4531-17.953 1.5469-35.156 0.5625-51.656-0.375-5.25-0.60938-9.2812-0.79688-12.188-0.1875-3.5625-0.70312-7.6875-1.5-12.234-1.2656-6.9375-2.7188-16.688-4.6406-24.703-7.3125-30.281-17.297-59.672-30.141-88.031-1.3594-2.9531-3.9375-8.4375-7.7812-16.453-2.625-5.4844-5.4375-10.875-8.3906-16.125-4.6406-8.2031-7.875-13.734-9.75-16.828-3.8906-6.4688-8.8125-13.781-14.766-22.031-4.9688-7.0312-9.8438-13.031-14.625-18.141-9.75-10.359-18.938-18.984-27.656-26.016-21.844-17.438-46.453-30.047-73.781-37.875-7.5-2.1094-16.688-3.9375-23.906-5.4375-2.9531-0.65625-11.062-1.5-24.281-2.4844-6.8438-0.51562-12.375-0.60938-16.359-0.375-6.8906 0.42188-12.375 0.9375-16.453 1.3594-2.25 0.32812-4.7812 1.0312-7.7812 2.25-2.0625 0.89062-3.8438 1.3125-5.2031 1.4062-4.875 0.1875-6.75-0.32812-10.5-1.5-1.7344-0.5625-3.4219-0.9375-5.0625-1.0781-6.7969-0.75-11.391-1.125-13.641-1.2656-11.531-0.42188-24.281-0.046875-38.25 1.2188-3.4219 0.28125-6.5625 0.79688-9.4219 1.3594-7.7344 1.6406-15.609 2.4375-23.578 4.3125-17.859 4.3125-34.172 9.9375-48.938 16.922-37.359 17.719-69.938 42.281-97.688 73.641-12.047 13.688-23.25 28.734-33.562 45.328-17.344 27.938-30.188 59.531-37.031 91.969-0.89062 4.125-1.5938 8.2031-2.0156 12.141-1.3125 11.109-3.1875 19.734-3.1875 30.609-0.046875 9.5156-0.046875 18.188 0 26.156 0 5.5312 0.42188 11.531 1.3594 18 0.65625 4.1719 1.2656 10.172 2.0156 18 0.79688 8.625 1.875 16.547 3.2344 23.719 8.5312 44.438 23.25 87 44.25 127.69 2.625 5.0156 4.5 8.4375 5.5781 10.219 2.0625 3.2344 3.9844 6.5625 5.8125 9.9844 2.4844 4.6875 5.4844 9.7031 8.8594 15 9.75 15.375 17.766 28.078 24.094 38.016zm6.1875-293.58c0.28125 1.0781 0.9375 1.5 1.9219 1.3125 15.328-2.8594 30-1.5 43.922 4.1719 16.594 6.75 29.344 17.953 38.156 33.562 1.9219 3.375 3.375 6.6562 4.3125 9.7031 0.75 2.4375 1.5938 4.125 4.4062 3.4219 3.5156-0.79688 7.2188-0.84375 11.203-0.1875 2.2969 0.46875 4.0781-0.5625 5.2031-2.8594 2.4375-5.1094 4.125-9.5156 6.4688-13.312 8.3906-13.641 20.719-24.375 35.625-30.375 5.8125-2.2969 10.266-3.7969 13.266-4.5 3.4219-0.79688 7.3125-1.1719 11.672-1.125 12.844 0.14062 18.375-0.375 27.188 2.1094 0.46875 0.14062 0.84375 0 1.125-0.42188 0.32812-0.375 0.375-0.79688 0.14062-1.2656-0.75-1.5938-2.625-6.75-4.7344-7.875-1.4062-0.75-3.0938-1.0312-5.2031-0.84375-7.8281 0.65625-13.359 1.3594-16.828 2.1094-1.5938 0.375-3.9844 1.125-7.0312 2.25-2.7656 0.98438-9.9375 2.0625-12.375-0.75-2.3438-2.625-3.375-5.6719-3.3281-9.0469 0.1875-7.125 6.1406-8.625 12.562-11.062 6.75-2.5781 13.734-3.8438 21-3.75 1.2656 0.046875 1.6406-0.5625 1.125-1.7812-6.1875-14.859-12.375-28.125-18.609-39.75-7.2656-13.594-16.219-26.906-25.594-38.156-8.2969-9.8906-18.656-18.469-31.172-25.594-3.6094-2.0625-7.125-3.2344-10.453-3.5625-4.1719-0.28125-8.0625-0.046875-11.531 0.75-18.281 4.2188-33.469 13.5-45.656 27.938-5.1094 6.0938-9.2812 11.906-12.562 17.344-12.094 20.297-21.234 41.531-27.281 63.656-0.32812 1.125 0.09375 1.875 1.3594 2.2031 0.42188 0.14062 0.79688 0.14062 1.2656-0.046875 3.5625-1.2188 7.5938-1.8281 12.234-1.7812 11.953 0 18.703-0.46875 27.609 1.8281 4.3125 1.1719 7.8281 2.0156 10.5 2.4844 2.2031 0.375 3.9375 1.0312 5.3906 1.7812 2.5781 1.3594 4.1719 2.4844 4.7344 3.2812 2.9062 4.2656 3.0938 8.3906 0.5625 12.328-3.2344 5.0625-11.297 3.8906-16.547 2.4844-5.8125-1.5-10.359-2.4844-13.5-3.0938-1.5469-0.28125-7.5469-0.28125-17.953 0-3.4688 0.09375-7.125 0.65625-10.781 1.6875-1.9688 0.46875-5.3438 1.3594-10.219 2.5312-0.75 0.1875-1.2188 0.70312-1.4062 1.4531-0.14062 0.42188-0.1875 0.70312-0.1875 0.75zm237.24 77.672c0.375-6.9375-0.60938-13.688-3.0469-20.297-2.4375-6.5625-6.0938-12.422-10.969-17.672-4.875-5.2031-10.547-9.3281-17.109-12.375-6.6094-3-13.5-4.7812-20.812-5.1562-7.2656-0.42188-14.297 0.51562-21.188 2.8125-6.8906 2.25-12.984 5.7656-18.422 10.406-5.3906 4.5938-9.7031 10.031-12.844 16.359-3.1875 6.2344-4.9219 12.891-5.2969 19.828s0.60938 13.734 3.0469 20.297 6.0938 12.516 10.969 17.672c4.875 5.2031 10.547 9.3281 17.109 12.375 6.5625 3.0938 13.5 4.7812 20.766 5.2031 7.3125 0.375 14.344-0.5625 21.234-2.8125 6.8906-2.2969 12.984-5.7656 18.422-10.453 5.3906-4.5938 9.7031-10.031 12.844-16.312 3.0938-6.2812 4.9219-12.844 5.2969-19.875zm-166.55-1.875c0-7.0312-1.4062-13.781-4.0781-20.297-2.6719-6.4219-6.5156-12.188-11.438-17.203-5.0156-4.9219-10.734-8.7188-17.203-11.438-6.4688-2.6719-13.219-4.0312-20.297-4.0312-6.9844 0-13.734 1.3594-20.25 4.0312-6.5156 2.7188-12.234 6.5156-17.203 11.438-4.9688 5.0156-8.8125 10.781-11.484 17.203-2.6719 6.5156-3.9844 13.266-3.9844 20.297s1.3125 13.781 3.9844 20.25c2.6719 6.5156 6.5156 12.281 11.484 17.203 4.9688 5.0156 10.688 8.8125 17.203 11.484 6.5156 2.7188 13.266 4.0781 20.25 4.0781 7.0781 0 13.828-1.3594 20.297-4.0781 6.4688-2.6719 12.188-6.4688 17.203-11.484 4.9219-4.9219 8.7656-10.688 11.438-17.203 2.6719-6.4688 4.0781-13.219 4.0781-20.25zm43.969 34.5c-0.65625-1.3125-1.1719-1.1719-1.4062 0.28125-0.46875 2.9062-1.0781 5.625-1.8281 8.1562-1.125 3.5625-1.8281 6.2812-2.1094 8.0625-0.84375 4.4531-2.0625 10.125-3.8906 17.25-0.9375 3.7031-1.3594 7.4531-1.3125 11.344 0 2.1562 0.5625 4.125 2.4844 5.5312 3.3281 2.3906 6.9375 4.4062 10.875 5.9531 5.9062 2.25 9.0938 4.7344 8.4375 11.297-0.60938 6.7031-4.3594 9.8438-11.109 9.4688-3-0.14062-6.7969-1.3125-11.297-3.5156-9.0938-4.3125-19.219-11.953-20.156-21.516-0.5625-5.3438-0.375-11.438 0.51562-18.094 0.75-5.3438 2.3906-10.266 3.3281-15.562 0.65625-3.75 1.5938-7.5938 2.8125-11.438 1.7344-5.9531 3.2812-14.391 6-21.281 1.2188-3.2344 2.5312-5.1562 5.9062-6.2344 2.0156-0.70312 3.1406-0.98438 3.4688-1.125 0.60938-0.1875 0.84375-0.60938 0.60938-1.3125-0.70312-1.9219-1.4531-3.9375-1.3594-6.0469 0-2.7656-0.14062-5.3438-0.5625-7.5938-0.32812-1.7812-1.4062-2.5312-3.3281-2.25l-4.6406 0.84375c-1.7812 0.28125-2.6719 1.4062-2.625 3.4219 0.1875 4.875-0.42188 10.172-1.7812 16.078-4.4531 18.984-14.531 34.219-30.094 45.656-7.0312 5.25-15.938 9.2812-26.672 12.094-6.2344 1.5938-12.938 2.25-20.109 1.9219-7.2188-0.32812-13.828-1.5469-20.016-3.7031-1.3125-0.42188-1.9219 0-1.875 1.3125 0.046875 1.4531 1.0781 3.2812 1.3125 4.9688 3.7031 25.406 11.625 49.5 23.766 72.281 9.0469 17.016 20.625 31.219 34.734 42.562 10.922 8.8125 24.047 15.562 39.375 20.203 4.5469 1.3594 10.172 2.4844 16.922 3.2344 8.7656 1.0781 14.578 1.5938 17.344 1.5 5.5312 0 12.375-0.46875 20.344-1.5 12.562-1.5 23.391-4.7812 32.531-9.9375 3-1.7344 8.625-5.3438 12.422-6.375 6.1406-1.6875 10.547 0.375 13.453 6.1406 3.375 6.7969-3.3281 13.547-8.5781 16.828-8.8594 5.625-18.562 9.75-29.109 12.562-5.2031 1.3594-11.391 2.5312-18.703 3.6562-6.375 1.0312-12.75 1.4062-19.078 1.2188-1.3594 0-1.9688 0.60938-1.875 1.9688l2.0156 21.516c0.14062 1.1719 0.75 2.0156 1.875 2.3906 4.5 1.5938 9.9844 3.2344 16.5 4.875 3.1406 0.79688 9.5625 1.9688 19.312 3.6094 4.8281 0.79688 9.5625 1.2656 14.297 1.3594 7.4062 0.14062 12.188 0.09375 14.438-0.09375 2.9531-0.28125 8.3438-1.2656 16.125-2.9531 6.8438-1.5 12.094-2.9531 15.75-4.4531 7.5938-3 14.344-6.2812 20.344-9.9375 1.4062-0.9375 2.1094-2.5312 1.9688-4.875-0.23438-4.6875-1.5-11.812-0.9375-17.297 0.46875-4.9219 0.84375-10.688 1.0781-17.109 0.046875-1.875 0.23438-3.9375 0.60938-6.3281 0.75-4.5 1.875-10.359 2.2031-15.703 0.60938-9.5625 3.5156-18.797 4.9219-27.844 0.89062-5.625 2.5312-10.453 4.0781-17.203 2.5781-10.875 5.2031-19.359 8.3906-28.922 0.60938-1.875 1.7812-4.5 3.8438-5.3438 5.9062-2.1562 9.2812-1.4062 14.156 2.2031 5.0625 3.7031 8.8125 6.3281 14.906 6.9844 7.9688 0.84375 15.844-0.42188 23.625-3.75 10.312-4.3594 19.5-10.594 27.516-18.656 11.625-11.578 20.25-24.469 26.016-38.625 2.8125-6.8906 3.9844-13.453 5.4375-20.344 0.46875-2.4375 0.5625-4.9688 0.09375-7.5-0.79688-4.9688-2.0625-9.4688-3.6094-13.547-5.0625-12.891-18-20.812-31.547-18.703-9.1406 1.4531-17.625 5.3438-25.594 11.578-9.375 7.3125-15.562 17.109-18.75 29.438-0.98438 3.75-1.6875 6-2.1094 6.75-1.3125 2.25-3.2344 3.7969-5.7656 4.5469-4.875 1.5938-9.8438-0.84375-12-5.8125-1.1719-2.8594-2.1562-5.1562-4.2188-7.3125-8.8125-9.0469-16.312-18.844-22.594-29.484-0.1875-0.32812-0.42188-0.51562-0.79688-0.42188-0.42188 0-0.70312 0.23438-0.79688 0.5625-2.9062 7.9219-5.5781 15.844-9.8438 22.312-13.359 20.109-32.484 31.875-57.281 35.25-7.8281 1.0312-16.266 0.5625-25.266-1.4531-11.062-2.5781-20.016-6.1406-26.859-10.828-7.9688-5.2969-14.719-11.625-20.203-18.797-1.6406-2.1094-2.8125-4.5-3.6094-7.1719-0.09375-0.1875-0.1875-0.46875-0.375-0.65625-0.28125-0.375-0.46875-0.5625-0.46875-0.5625zm87.75 417.28c0.28125-0.28125 2.625-1.9688 7.125-5.1562 25.875-18.281 51-36.469 75.375-54.562 6.0938-4.4062 10.5-7.3125 13.453-8.4844 7.3594-3.1406 16.125 0.32812 22.172 4.9219 13.453 10.312 25.969 21.516 37.641 33.562 0.375 0.375 0.75 0.51562 1.2656 0.375 0.46875-0.09375 0.79688-0.42188 0.98438-0.9375 1.0781-3.9375 1.7344-7.9688 2.0625-12.234 0.70312-9.8906 1.5469-17.484 2.625-22.922 0.70312-3.75 1.3125-8.1562 1.6875-13.031 0.375-4.2188 1.0781-8.5312 2.0625-12.938 1.8281-8.25 2.2031-15.844 4.0781-24.656 0.1875-0.89062 0.23438-1.6875 0.1875-2.3906-0.09375-1.1719-0.1875-2.0156-0.46875-2.3906-2.2969-3.9844-3.6562-7.0312-4.125-9.2344-0.75-3.5625-1.3594-8.6719-1.875-15.516-0.23438-2.8125-0.5625-5.25-1.125-7.3125-0.5625-2.3438-1.2188-4.7344-2.1094-7.0312-0.42188-1.125-1.2656-1.5938-2.4375-1.2656-8.625 2.0625-15.047 3.75-19.453 5.0156-6.4688 1.7812-11.859 3.9844-16.031 6.4688-6.9375 4.2656-13.078 8.9062-18.281 13.969-9.0469 8.8125-17.484 17.719-25.406 26.719-13.125 15-25.125 29.391-35.953 43.266-12.516 16.125-26.484 35.578-41.953 58.266-2.4844 3.6562-4.5 6.9375-6.0469 9.7969-0.1875 0.32812-0.046875 0.5625 0.23438 0.79688 0.28125 0.14062 0.5625 0.14062 0.84375-0.046875 0.60938-0.51562 1.7812-1.5 3.4688-3.0469zm-104.16 5.5312c0.09375 0.1875 0.23438 0.1875 0.28125-0.046875 1.5-3.1406-0.1875-6.1875-1.125-10.172-0.46875-2.0625-0.84375-4.3125-1.125-6.7031-0.5625-5.7656-0.84375-9.3281-0.9375-10.828-0.09375-3.4219-0.5625-6.9844-1.3125-10.734-1.3125-6.7969-2.1562-14.297-2.625-22.547-0.23438-5.5781-0.84375-11.25-1.7812-16.875-1.125-6.8906-1.9688-14.766-2.3438-23.531-0.1875-5.1094-0.75-10.359-1.5469-15.656-1.4531-9.1875-2.2969-19.266-2.625-30.188-0.046875-3.4688-0.98438-5.7188-4.125-6.9375-6.9844-2.8125-15.328-5.3906-24.938-7.7812-2.2969-0.5625-4.1719-0.60938-5.5781-0.1875-1.9219 0.70312-3.4219 2.0156-4.4062 3.9375-5.25 9.9375-9.375 18.469-12.281 25.594-4.5938 11.297-10.172 25.594-14.719 39.422-4.9688 15-8.3906 25.359-10.266 30.984-0.51562 1.5938-2.2031 7.3125-4.9219 17.156-0.51562 1.5938-1.5 3.0938-2.0156 4.5938-0.23438 0.75-0.046875 1.3125 0.42188 1.8281 0.5625 0.5625 1.2188 0.60938 1.875 0.375 11.203-4.4531 23.438-9.4219 36.656-15 4.5-1.9219 13.5-3.6094 17.906-1.1719 5.25 3 8.625 7.2188 12.281 12.844 9.0469 14.156 18.797 28.031 29.25 41.625zm301.13 25.125c3-1.125 6-1.3594 9.0938-0.79688 7.6875 1.4531 8.7656 13.172 8.7656 19.547v14.906c0 4.4062 0.32813 9.4219 0.89063 14.812 1.2188 10.875 1.9219 21.797 2.0625 32.719 0 3.8906 1.1719 9 1.125 12.469v17.625c0 4.7344 0.375 10.547 1.125 17.484 1.0312 9.6094 1.6875 20.109 1.875 31.453 0.046874 3.5625 0.98437 7.2188 0.98437 11.062 0.046876 7.3594 0.046876 13.031 0.046876 17.062 0 5.6719 0.375 11.344 1.0781 16.969 0.98438 8.7188 1.5469 17.391 1.6406 26.156 0 0.84375 0.42187 1.3125 1.2188 1.3125h122.21c1.6406 0 2.3906-0.84375 2.0625-2.5312-0.89062-5.5312-1.875-10.547-2.9531-15.047-0.09375-0.5625-0.75-3.8906-1.875-9.9844-1.1719-6.4688-4.3125-22.078-9.375-46.781-0.375-1.9688-1.0312-5.8125-2.0625-11.484-0.98438-5.7656-2.5312-11.484-3.4219-17.25-0.375-2.6719-0.70312-4.6406-0.9375-5.8594-5.6719-29.391-9.9375-49.969-12.891-61.875-3.9375-16.406-8.0625-31.219-12.281-44.438-5.9531-18.703-13.781-37.828-23.25-57.375-9.75-20.016-21.328-38.625-34.688-55.969-6.2812-8.1094-13.594-16.031-21.938-23.672-8.9531-8.1094-18.562-14.953-29.016-20.25-0.9375-0.51562-1.7344-0.75-2.2969-0.79688-1.2188 0-1.875 0.60938-2.1562 1.9219-1.1719 7.9219-2.2969 16.172-4.0312 26.438-1.0781 6.1406-2.0156 13.266-2.9531 21.328-0.1875 1.7344-0.70312 4.875-1.4531 9.375-0.5625 3.1875-0.98438 6.375-1.2188 9.4219-0.65625 8.0156-1.6406 15.797-3 23.625-0.5625 3.1406-0.70312 5.0625-1.0781 9.1875-0.32812 2.9531-0.75 5.2031-1.4531 6.75-3.1875 7.5469-10.594 13.5-18.75 8.0156-3.0938-2.1562-5.6719-4.4531-7.7344-7.0781-6.1406-7.8281-11.812-14.297-17.062-19.453-5.8125-5.7188-13.734-12.75-23.672-21.188-1.5-1.3125-3.4688-2.6719-5.8125-4.125-0.65625-0.375-1.3125-0.42188-2.0156-0.046875-1.875 0.98438-3.75 2.2031-5.625 3.5156-29.109 21.234-59.109 42.422-89.953 63.609-7.1719 4.9219-14.344 10.875-21.844 15.703-3.2812 2.1094-5.5312 2.625-9.0938 3.4219-1.125 0.32812-1.9219 0.9375-2.4844 1.9219-8.0156 14.625-15.188 31.312-21.891 47.438-1.2188 3-2.3438 5.4375-3.375 7.3125-4.0312 7.4062-7.3125 12.188-16.406 11.391-3.1875-0.23438-5.9531-1.4531-8.2031-3.4219-3-2.7188-6.0469-6.5625-7.5469-10.312-0.84375-2.2031-2.0156-5.5781-3.5156-10.219-1.0781-3.0938-1.9219-6.6094-2.7656-10.5-0.46875-2.3438-1.9219-9.5625-4.3594-21.562-0.23438-1.125-0.70312-2.0625-1.4531-2.9062-7.3594-8.7656-12.984-15.656-16.922-20.578-2.625-3.4219-5.625-6.9375-8.8594-10.641-3.6562-4.125-6.75-8.0625-9.4688-11.672-6.6094-9.0469-13.406-19.125-20.484-30.188-1.3594-2.1094-2.9531-3.0469-5.5781-2.1094-0.98438 0.375-3.9844 1.6875-9 3.9375-3.0469 1.3594-13.219 5.3438-30.609 12.047-5.8594 2.25-11.859 3.0469-18 2.4844-7.875-0.65625-12-5.0625-12.516-12.984-0.1875-2.8125 0.70312-7.3594 2.5312-13.688 8.6719-29.953 15.281-50.484 19.781-61.547 0.14062-0.46875 0.09375-0.70312-0.28125-0.89062-1.0312-0.42188-1.8281-0.375-2.5781 0.1875-7.7344 5.9531-16.828 12-24.141 18.375-13.172 11.578-24.844 25.125-34.969 40.688-4.4062 6.7031-8.25 13.688-11.719 20.953-6.5625 14.062-12.188 28.5-16.781 43.312-5.25 17.062-9.2812 31.969-11.812 44.812-4.0781 19.875-6.5625 33.234-7.4531 39.984-1.3594 10.922-2.2031 16.875-2.3906 17.859-1.3125 7.0312-2.1094 12.938-2.4375 17.766-0.28125 5.4375-1.0312 11.578-2.1094 18.375-0.89062 5.9531-1.5 12.047-1.8281 18.375-0.375 8.5781-1.3594 20.484-3 35.812-0.60938 6.1875-0.84375 14.25-0.75 24.188 0.09375 6-0.98438 11.25-1.1719 17.016-0.046875 1.2188 0.5625 1.875 1.7344 1.875h106.27c1.1719 0 1.7344-0.65625 1.7344-1.8281 0.14062-52.453 0.14062-117.19 0.09375-194.26 0-7.4531 0.046875-13.359 0.1875-17.766 0.09375-3.4219 0.84375-6.4219 2.2969-8.9062 2.0625-3.5625 7.2656-5.5312 11.297-4.6406 3.2812 0.75 5.7188 2.7656 7.3125 6.1406 1.4531 2.7188 2.1562 5.8125 2.1562 9.2344 0.046875 52.125 0.046875 122.11 0 209.95 0 1.3594 0.65625 2.0625 2.0625 2.0625h394.55c1.3594 0 2.0625-0.70312 2.0625-2.1562-0.32812-8.2969-0.70312-15.984-1.1719-23.062-0.65625-7.9688-0.65625-15.938-0.5625-22.594 0.046875-4.4062-0.28125-10.031-1.0312-17.016-1.1719-11.297-1.875-22.641-2.0625-33.984-0.09375-3.8438-0.75-9.375-0.75-12.469-0.046875-8.2969-0.09375-13.969-0.1875-16.969-0.1875-10.5-2.25-23.203-2.625-33.656-0.28125-10.922-0.5625-16.922-0.65625-18.047-0.5625-6.2344-0.84375-12.188-0.75-17.953 0.046875-3.4219-0.14062-11.109-0.65625-23.109-0.09375-1.875 0.28125-4.2656 1.0781-7.0781 0.70312-2.3438 1.9219-3.9375 3.8906-4.6875z"/>
 <path d="m424.08 441.98c-3.1406-0.1875-6.1406-1.0312-8.9531-2.8125-2.8125-1.6875-5.25-4.0312-7.3125-7.0312-2.1094-3-3.6094-6.4688-4.6875-10.312-0.98438-3.8906-1.4531-7.875-1.2656-12.094 0.1875-4.125 0.9375-8.0625 2.3438-11.812 1.3594-3.75 3.1875-7.0312 5.5312-9.8438 2.3438-2.9062 4.9688-5.0156 7.9688-6.4688 2.9062-1.4062 6-2.1094 9.0938-1.9688 3.1406 0.09375 6.0938 1.0312 8.9062 2.7188 2.8125 1.7812 5.2969 4.125 7.3594 7.125s3.6094 6.4688 4.6875 10.312c0.98438 3.8906 1.4531 7.875 1.2656 12-0.1875 4.2188-0.9375 8.1562-2.3438 11.906-1.3594 3.75-3.2344 7.0312-5.5312 9.8438-2.3438 2.8125-5.0156 5.0156-7.9688 6.4688-2.9062 1.4062-6 2.1094-9.0938 1.9688z"/>
 <path d="m575.39 444.14c-2.9062 0.09375-5.7188-0.51562-8.4375-1.9688-2.7656-1.3594-5.2031-3.4219-7.3125-6.0938-2.2031-2.7188-3.8906-5.8125-5.1562-9.375-1.2188-3.5625-1.9219-7.3125-2.1094-11.25-0.14062-3.9375 0.23438-7.6875 1.1719-11.391 1.0312-3.7031 2.4375-6.9375 4.4062-9.7969 1.9219-2.8125 4.1719-5.0625 6.7969-6.7031 2.625-1.5469 5.3906-2.4375 8.25-2.5781 2.8594-0.09375 5.6719 0.51562 8.4375 1.9688 2.6719 1.3594 5.1094 3.4219 7.3125 6.0938 2.1094 2.7188 3.8906 5.8125 5.1094 9.375 1.2656 3.5625 1.9688 7.3125 2.0625 11.25 0.1875 3.9375-0.23438 7.6875-1.1719 11.391s-2.3906 6.9375-4.3125 9.7969c-1.9219 2.8125-4.1719 5.0625-6.7969 6.7031-2.625 1.5469-5.3906 2.4375-8.25 2.5781z"/>
 <path d="m715.55 482.81c-0.28125-0.1875-0.5625-0.14062-0.65625 0.1875-1.0312 2.25-1.9688 3.9844-2.7656 5.2969-3.7969 6-8.8125 7.0781-15.047 3.2812-7.125-4.4062-3.8906-12.281-0.1875-17.906 4.1719-6.2812 9.9375-11.625 17.156-15.844 7.0781-4.125 14.625-6.1406 22.781-6.1406 2.0625 0.046875 4.3594 0.5625 6.8438 1.6406 2.2031 0.9375 3.5625 2.5312 4.2656 4.875 1.1719 4.4062 0.9375 10.219-3.8906 12.234-1.9688 0.89062-4.1719 1.3125-6.6094 1.3594-0.60938 0.09375-1.0781 0.32812-1.4531 0.84375-0.28125 0.46875-0.375 1.0312-0.1875 1.5938 2.0625 5.625 3.0938 11.438 3.0938 17.438 0 1.9688-0.32812 5.0156-1.0312 9.2812-0.5625 3.7969-1.3594 6.7969-2.2969 8.9062-2.2969 5.4375-5.25 10.078-8.7656 13.875-3.75 4.0781-8.6719 7.125-14.812 9.0938-4.875 1.5469-9.5625 1.3594-14.062-0.5625-1.5469-0.65625-2.6719-1.6406-3.4219-2.9062-2.4375-4.3125-2.4844-8.3438-0.1875-12.281 0.75-1.2656 1.9219-2.1562 3.7031-2.625 5.9062-1.7812 9.6562-3 11.25-3.75 1.875-0.9375 3.6562-3.0938 5.2969-6.4688 3.1875-6.6562 3.9375-13.406 2.1094-20.25-0.09375-0.42188-0.46875-0.84375-1.125-1.1719z"/>
 <path d="m549 548.39c3.6094-2.625 8.2969-7.2188 13.922-13.641 5.0156-5.7656 14.906-5.9531 18 1.8281 1.0312 2.5312 1.2656 4.9688 0.65625 7.4062-0.375 1.5-1.5938 3.5625-3.5156 6.0938-8.9531 11.531-20.016 19.734-33.375 24.422-3.6094 1.3125-7.4531 2.4375-11.297 3.375-9.1406 2.25-18.281 2.5781-27.281 0.9375-2.8594-0.51562-6-1.6875-9.2344-3.5625-3.7031-2.1094-3.7969-6.3281-3.4219-10.312 0.375-3.8906 2.4375-6 6.1875-6.5156 3.5625-0.46875 6.9844-0.42188 10.312 0 1.3594 0.28125 4.6875 0.28125 9.8438 0.1875 3.6562-0.046875 6.8906-0.46875 9.75-1.1719 7.0312-1.7344 13.5-4.8281 19.453-9.0469z"/>
 <path d="m510.05 1038.7c-1.875-1.2188-3.4219-2.7188-4.6875-4.5938-1.3125-1.7812-2.1094-3.7969-2.625-6.0469-0.42188-2.2031-0.42188-4.3594-0.046875-6.6094 0.42188-2.2031 1.2656-4.2656 2.4844-6.1875 1.2656-1.9688 2.7656-3.5156 4.6406-4.8281 1.8281-1.3125 3.8906-2.2031 6.0469-2.6719 2.2031-0.51562 4.4062-0.5625 6.5625-0.1875 2.2031 0.375 4.2656 1.125 6.1406 2.3438 1.8281 1.2188 3.375 2.7188 4.6875 4.5938 1.2656 1.7812 2.1094 3.7969 2.5781 6 0.42188 2.25 0.42188 4.4062 0.046875 6.6562-0.42188 2.2031-1.2656 4.2656-2.4844 6.1875-1.2188 1.875-2.7656 3.5156-4.5938 4.8281-1.875 1.3125-3.8438 2.2031-6.0469 2.6719-2.2031 0.51562-4.4531 0.5625-6.6094 0.1875-2.2031-0.375-4.2188-1.125-6.0938-2.3438z"/>
 <path d="m521.63 1122.3c-2.0156 0.5625-4.0781 0.65625-6.1406 0.375-2.0625-0.32812-4.0312-1.0312-5.8594-2.1562-1.875-1.125-3.4219-2.625-4.8281-4.4062-1.3125-1.7812-2.2969-3.75-2.9062-5.9531-0.65625-2.1094-0.84375-4.3594-0.65625-6.5625 0.1875-2.25 0.75-4.3125 1.7812-6.2344 0.98438-1.9688 2.25-3.6562 3.8438-4.9688 1.6406-1.3594 3.4688-2.2969 5.3906-2.8594 2.0156-0.60938 4.0781-0.75 6.1406-0.42188 2.1094 0.28125 4.0312 1.0312 5.9062 2.1562 1.8281 1.125 3.4688 2.5781 4.7812 4.4062 1.3594 1.7812 2.2969 3.75 2.9062 5.9062 0.65625 2.2031 0.84375 4.4062 0.65625 6.6562-0.1875 2.1562-0.75 4.3125-1.7812 6.2344-0.9375 1.9219-2.25 3.5625-3.8438 4.9219-1.5938 1.3125-3.375 2.3438-5.3906 2.9062z"/>
</svg>
