<?xml version="1.0" encoding="UTF-8"?>
<svg width="1200pt" height="1200pt" version="1.1" viewBox="0 0 1200 1200" xmlns="http://www.w3.org/2000/svg">
 <path d="m861.52 426.61c-0.46875 0.09375-0.70312 0.32812-0.65625 0.75 0.46875 3.9375 0.28125 8.3438-0.46875 13.219-3.9375 25.172-18.328 49.219-38.625 64.734-5.0156 3.7969-10.969 6.7969-17.812 8.9531-8.3906 2.5312-17.578 2.2969-27.516-0.84375-0.375-0.09375-0.60938 0-0.75 0.375-11.953 37.594-31.547 73.828-59.438 101.62-0.42188 0.375-0.60938 0.89062-0.70312 1.4531-0.65625 12.188-0.65625 25.312 0.09375 39.375 1.0312 20.766 4.875 40.828 11.344 60.328 0.28125 0.65625 0.65625 0.75 1.125 0.23438 3-2.7656 6.1406-2.0156 9.375 0.51562 2.25 1.7812 6.4688 4.5469 9.75 7.2188 9.375 7.6406 19.828 16.5 31.453 26.719 6.7969 6 12.75 11.719 18 17.297 4.875 5.2031 8.2969 7.875 8.0156 14.672-0.1875 4.9688-0.70312 9.7031-1.4531 14.203-0.14062 0.60938 0.046875 1.125 0.70312 1.5 22.875 14.25 45.234 27.234 72.609 41.578 17.484 9.0938 31.688 16.594 42.609 22.5 11.062 5.9062 20.906 11.859 29.438 17.719 20.062 13.969 35.062 33.891 45.75 56.578 16.266 34.641 24.656 71.203 27.703 109.55 2.8125 35.203 3.9375 69.516 5.0156 107.2 0 0.5625-0.1875 0.98438-0.65625 1.3125-5.3438 3.9844-10.547 2.4375-16.406 2.4375-356.26 1.6875-631.13 2.9531-824.63 3.8906-6.1406 0-8.625-5.8125-7.7812-10.969 0.51562-3.0469 1.6875-7.875 2.2031-11.484 4.875-34.828 9.7031-69.609 16.875-105.98 4.9219-24.844 11.484-49.781 19.641-74.812 8.4844-26.391 17.25-51.469 32.156-73.641 2.3438-3.375 6.4688-8.2969 12.469-14.672 12.469-13.312 29.344-21.516 46.031-28.031 26.438-10.172 44.391-15.188 81.938-26.906 15.562-4.875 31.219-10.312 47.016-16.219 0.98438-0.375 1.3594-1.0312 1.1719-2.1094-1.2188-5.8125-0.79688-12.422 3.5156-17.391 19.641-22.5 42.234-42.422 67.875-59.859 1.3125-0.89062 3.5156-2.0625 6.5156-3.6094 5.6719-2.8125 12.094-2.7188 18-1.5938 0.65625 0.1875 1.0312-0.09375 1.1719-0.79688 1.3594-8.6719 2.0625-17.578 2.1094-26.578 0.14062-15.094 0.1875-30.562 0.1875-46.172 0-3.75 0.1875-8.4844 0.51562-14.25 0.046875-1.0781-0.23438-1.9219-1.0781-2.625-28.219-25.734-47.156-58.359-59.906-94.453-0.1875-0.46875-0.51562-0.60938-0.9375-0.42188-2.8125 1.125-6 1.8281-9.4688 2.0156-17.109 0.9375-32.438-3.2812-45.797-12.656-7.875-5.4844-14.578-12.281-20.016-20.344-13.969-20.812-19.875-48.891-10.594-72.703 0.1875-0.5625 0.046875-0.98438-0.51562-1.3125-6.2344-3.4219-8.7656-8.625-12-15-1.6406-3.2344-8.0156-3.5625-13.547-4.6875-16.781-3.3281-25.594-15.141-25.312-32.25 0.09375-6.8906 0.5625-13.5 1.2188-19.922 1.2656-12.328-3.4688-19.453-12.094-27.844-14.062-13.547-26.25-28.125-27.656-48.469-1.4062-21.75 7.8281-43.453 20.016-61.688 14.625-21.891 33.375-39.188 54.938-53.062 5.0625-3.2812 11.672-7.4062 19.828-12.281 8.1562-4.9219 15.281-10.125 17.906-19.406 1.2656-4.4062 2.3906-8.5312 3.4688-12.328 7.0312-25.266 21.844-44.391 44.297-57.375 22.5-12.938 50.25-15.938 74.859-6.9375 1.2656 0.51562 5.0156 2.1094 11.25 5.0625 1.5938 0.70312 3.2812 0.51562 5.1562-0.60938 11.297-6.8906 23.109-11.531 35.25-13.828 23.344-4.5 47.062-3.4219 69.281 5.0625 14.062 5.3906 27.562 14.391 38.812 24.703 1.3125 1.2188 3.9375 1.9219 6.2812 1.7344 15.281-1.125 29.812 3.2344 43.594 13.266 15.562 11.25 24.938 26.625 28.125 46.125 0.09375 0.5625 0.46875 0.75 0.9375 0.60938 3-0.60938 6-1.125 9.1875-1.0781 20.812 0.65625 40.031 8.7188 56.062 21.562 13.5 10.875 21.469 24.844 23.812 41.906 0.28125 1.7812 0.9375 7.5938 2.0625 17.297 1.4531 12.375 8.0156 18.328 17.203 27.984 14.391 15.188 23.859 32.812 26.297 52.781 2.25 18.75-3.7969 38.156-13.5 54.938-0.75 1.3125-3.2344 5.625-7.5 12.938-5.1562 9.0469-7.9219 18.375-7.9688 28.734-0.09375 12.234-0.70312 26.859-13.219 33.234-1.3125 0.70312-2.6719 1.125-4.2188 1.3125zm-108.28-38.344c0.09375 0.09375 0.14062 0.1875 0.28125 0.09375l25.594-13.547c0.375-0.1875 0.5625-0.5625 0.51562-1.0781-0.42188-3.8438-0.89062-8.1562-1.3594-12.938-0.32812-3-1.6406-2.3438-3.375-3.375-1.0781-0.60938-2.4375-1.9688-4.2656-4.1719-7.7344-9.2344-13.828-19.266-18.188-30.047-6.3281-15.469-10.547-31.453-12.938-48.094-0.14062-1.0312-0.5625-1.9219-1.2656-2.6719-11.438-12.234-22.781-29.859-26.297-45.234-0.046875-0.46875-0.32812-0.5625-0.70312-0.32812-9.9844 5.8594-21.234 10.875-33.797 15.047-41.391 13.875-86.062 16.453-128.76 5.8125-10.125-2.4844-16.547-4.2188-19.5-5.2969-0.28125-0.14062-0.5625 0-0.75 0.32812-3.4688 6-6.6562 10.688-9.5625 14.062-8.0625 9.4219-18 18.938-29.859 28.547-0.32812 0.23438-0.51562 0.51562-0.5625 0.89062-3.5156 13.969-9.1406 27.469-17.016 40.5-0.23438 0.46875-0.28125 1.1719 0 2.0625 0.1875 0.75 0.32812 1.4062 0.32812 2.0625-0.14062 9.1875 0.42188 18.797 1.7344 28.922 0.46875 3.3281 0.09375 7.5469-1.0312 12.703-1.0781 4.875-1.6875 8.625-1.7812 12.375 0 0.75 0.28125 1.3125 0.89062 1.7344l8.4375 6.1875c0.23438 0.1875 0.375 0.14062 0.42188-0.1875 7.7812-30.797 34.266-51.188 66-51.422 8.4375-0.09375 16.594 1.5 24.469 4.7344 22.406 9.3281 39.094 29.953 41.531 54.141 0.09375 0.42188 0.32812 0.60938 0.75 0.42188 3.8906-1.3594 7.6406-1.5469 11.156-0.51562 0.23438 0.14062 0.375 0 0.42188-0.23438 1.7344-29.391 25.172-54.141 53.812-59.016 6.9375-1.125 13.078-1.4062 18.328-0.75 26.859 3.2812 49.312 21.844 56.344 48.281zm-9 17.062c0-7.2656-1.3594-14.156-4.125-20.812-2.7188-6.6562-6.6562-12.516-11.719-17.578-5.1562-5.1094-11.016-9.0469-17.625-11.812-6.7031-2.7656-13.594-4.125-20.766-4.125-7.2656 0-14.109 1.3594-20.812 4.125-6.6094 2.7656-12.516 6.7031-17.578 11.812-5.1094 5.0625-9.0469 10.922-11.812 17.578-2.7188 6.6562-4.125 13.547-4.125 20.812 0 7.1719 1.4062 14.062 4.125 20.719 2.7656 6.6562 6.7031 12.516 11.812 17.578 5.0625 5.1094 10.969 9.0469 17.578 11.812 6.7031 2.7656 13.547 4.125 20.812 4.125 7.1719 0 14.062-1.3594 20.766-4.125 6.6094-2.7656 12.469-6.7031 17.625-11.812 5.0625-5.0625 9-10.922 11.719-17.578 2.7656-6.6562 4.125-13.547 4.125-20.719zm-142.4 3.0938c0-7.4062-1.4531-14.531-4.3125-21.422-2.8125-6.8906-6.8906-12.891-12.141-18.141s-11.25-9.2812-18.141-12.094c-6.8438-2.9062-13.969-4.2656-21.422-4.2656-7.3594 0-14.578 1.3594-21.375 4.2656-6.8906 2.8125-12.938 6.8438-18.188 12.094s-9.2344 11.25-12.141 18.141c-2.8125 6.8906-4.2188 14.016-4.2188 21.422s1.4062 14.578 4.2188 21.375c2.9062 6.8906 6.8906 12.938 12.141 18.188s11.297 9.2812 18.188 12.141c6.7969 2.8125 14.016 4.2656 21.375 4.2656 7.4531 0 14.578-1.4531 21.422-4.2656 6.8906-2.8594 12.891-6.8906 18.141-12.141s9.3281-11.297 12.141-18.188c2.8594-6.7969 4.3125-13.969 4.3125-21.375zm25.875 237.74c-2.1562-1.3125-3.3281-2.8594-3.4688-4.6875-0.42188-6.9375 8.9062-7.4062 10.031-0.60938 0.375 2.2031-0.46875 3.9375-2.3906 5.1094-0.1875 0.09375-0.23438 0.1875-0.1875 0.375s0.1875 0.28125 0.375 0.1875c17.016-2.1094 32.859-7.6875 47.578-16.688 20.672-12.609 37.688-30 51.562-49.922 38.25-55.266 52.969-127.08 49.359-193.36 0-0.46875-0.1875-0.51562-0.5625-0.32812l-24.328 12.797c-0.23438 0.14062-0.28125 0.32812-0.28125 0.5625 1.0312 15.844-2.7188 30-11.25 42.516-20.719 30.328-62.203 37.922-92.203 16.5-15.328-10.922-24.375-26.25-27.188-45.938-0.046875-0.32812-0.1875-0.5625-0.42188-0.75-2.7656-2.3906-6-2.6719-9.8906-0.9375-0.79688 0.375-1.3125 1.0781-1.4531 2.0156l-1.4062 9.9375c-0.09375 0.375 0.09375 0.5625 0.42188 0.65625 5.3906 2.0156 4.2656 8.7188 3.8906 13.5-1.125 13.781-3.2812 29.344-6.2812 46.828-1.6875 9.6094-4.0312 19.078-7.0312 28.359-0.51562 1.5938-0.09375 3 1.3125 4.2656 5.1562 4.7344 11.297 8.9531 18.469 12.516 4.3125 2.1562 5.7188 7.875 0.75 10.172-3.6094 1.6406-8.6719-1.4531-11.672-3.1875-4.0781-2.3906-8.0156-5.0625-11.812-8.2031-6.0469-4.875-10.266-10.031-7.875-18.234 6.7031-23.578 10.641-47.203 13.359-69.188 0.09375-0.046875 0-0.14062-0.046875-0.14062-0.046875-0.046875-0.14062 0-0.14062 0.09375-22.781 42.609-82.406 47.484-112.03 9.4219-10.078-12.891-14.812-27.797-14.25-44.766 0-0.1875-0.14062-0.375-0.28125-0.46875l-8.6719-6.3281c-0.046875-0.046875-0.14062-0.046875-0.14062 0.046875-1.7812 29.719 0.375 59.625 6.6562 89.812 12.234 59.391 44.906 125.34 103.69 150.52 8.6719 3.75 17.438 6.1875 26.109 7.3125 0.14062 0 0.23438-0.046875 0.375-0.1875 0.046875-0.14062 0.046875-0.23438 0-0.375-1.3594-2.2031-1.6406-4.3594-0.75-6.5625 1.3594-3.375 5.7656-4.3594 8.2031-1.5 1.9219 2.2969 1.9688 6.5156 0 8.9531-0.1875 0.1875-0.1875 0.375-0.09375 0.5625s0.1875 0.23438 0.46875 0.23438l13.219-0.046875c0.28125 0 0.375-0.14062 0.46875-0.32812 0.046875-0.23438 0-0.375-0.1875-0.51562zm163.78-209.16c6.7031-7.2656 14.719-12.281 24.094-15 4.3125-1.3125 11.344-2.5781 15.047-0.28125 2.2969 1.4062 3.3281 3.1406 2.8594 5.25-0.9375 4.6875-3.75 4.9688-8.6719 4.875-3.375-0.046874-7.0781 0.70313-11.016 2.3438-0.28125 0.09375-0.42188 0.375-0.28125 0.65625 0.046875 0 0.46875 0.84375 1.4062 2.3438 2.625 4.125 3.375 9.4219 3.4688 14.484 0.09375 8.5781-2.5781 15.938-8.0156 22.125-2.625 2.8594-6.375 4.4531-9.4219 1.3594-2.0625-1.9688-1.8281-5.4375 0-7.3125 6.8438-7.3125 8.6719-15.656 5.3438-25.125-0.375-0.98437-0.9375-1.7812-1.5938-2.4844-0.375-0.375-0.70312-0.375-1.0781-0.046876-4.4531 3.4688-8.7656 8.0625-11.391 13.172-1.125 2.2031-2.25 4.1719-3.4219 6.1406-0.32812 0.60938-0.5625 1.2188-0.70312 1.9219-2.0625 13.641-4.9219 27.047-8.6719 40.312-0.14062 0.42187 0 0.70312 0.375 0.79687 15.703 5.7188 30.703-0.9375 42.141-12.094 13.125-12.844 21.797-28.031 26.109-45.562 1.875-7.6875 2.2031-15.141 0.98438-22.406-1.875-11.438-7.9688-23.484-18.562-28.922-13.219-6.7969-26.438 2.0625-34.125 12.609-1.9688 2.7656-4.125 6-4.125 8.7188-0.09375 7.3594-0.46875 14.672-1.2188 21.938 0 0.09375 0.046875 0.23438 0.1875 0.28125 0.09375 0.09375 0.23438 0 0.28125-0.09375zm-332.53 11.062c-0.46875-5.0156-0.75-10.594-0.9375-16.594-0.14062-4.125-1.0312-5.6719-3.3281-9.0938-8.5781-12.844-26.625-22.828-41.109-12.375-15.891 11.438-19.875 35.297-16.125 53.484 5.2969 25.734 22.219 47.625 47.812 54.516 8.3438 2.25 16.781 2.5312 25.406 0.98438 1.125-0.23438 1.5-0.89063 1.2188-2.0156-4.9688-16.172-8.5781-33-10.969-50.484 0-0.375-0.09375-0.70313-0.28125-1.0781-3.6562-6.6562-11.578-11.672-18.75-14.25-0.9375-0.28125-1.6875-0.046874-2.1562 0.84375-4.0312 7.5-5.1562 19.406 1.2656 25.875 2.8125 2.8125 4.1719 4.2188 4.1719 4.3125 2.2031 3.375 1.5 7.125-2.2969 8.3438-1.7344 0.65625-3.375 0.46875-4.7344-0.5625-6.5156-4.6875-10.406-10.875-11.719-18.562-1.3125-7.7344-0.375-14.906 2.9062-21.469 0.046875-0.1875 0.046875-0.375-0.09375-0.5625-0.09375-0.1875-0.28125-0.28125-0.5625-0.28125-2.9062 0.32813-5.9062 1.2188-9 2.625-2.2969 1.125-4.3594 1.0781-6.0938-0.046874-3.6562-2.25-3.3281-7.3125 0.046875-9.3281 14.062-8.1562 32.672-3.4688 45 5.9062 0.046875 0.046876 0.14062 0.046876 0.23438 0 0.09375 0 0.14062-0.14062 0.09375-0.1875zm88.547 185.48c0.1875 5.2969 0.375 10.734 0.75 16.359 0.23438 4.6406 0.32812 12.891 0.14062 24.75 0 0.14063 0 0.32813-0.09375 0.51563l-0.60938 1.4531c0 0.046876 0 0.1875-0.046875 0.23438l-0.14062 19.734c0 0.375 0.14062 0.70313 0.51562 0.89063 2.2969 1.4531 4.9688 2.6719 7.9219 3.7969 10.734 4.0312 22.078 6.6562 33.938 7.7812 25.078 2.4844 49.922 1.1719 74.672-3.8906 15.281-3.1406 28.875-8.1094 42.328-17.016 0.75-0.46875 1.0781-1.125 0.79688-1.9688-1.3594-6.4688-2.25-13.5-2.6719-21.094-0.75-12.984-0.79688-25.781-0.1875-38.484 0-0.1875-0.046875-0.32813-0.23438-0.42188-0.14062-0.09375-0.32812-0.09375-0.51562 0.046876-25.688 21-55.641 33.609-88.734 32.016-24.516-1.2656-47.953-10.406-67.453-24.891-0.046875-0.046876-0.14062-0.046876-0.23438 0-0.09375 0.046874-0.14062 0.14062-0.14062 0.1875zm-15.938 91.125c0.046875-0.23438 0-0.375-0.32812-0.375l-3.6562-0.1875c-0.28125 0-0.375 0.14062-0.32812 0.375l1.5469 6.7031c0.09375 0.09375 0.14062 0.1875 0.28125 0.1875 0.1875 0.046876 0.28125-0.09375 0.28125-0.1875zm56.391 183.74c-29.953-50.297-51.516-106.88-66.656-163.18-1.7344-6.375-3.1875-12.375-4.3125-18.094-0.046875-0.28125-0.23438-0.375-0.46875-0.1875-5.5312 3.5625-10.969 7.4531-16.219 11.719-16.594 13.312-31.781 27.281-45.656 41.906-1.2656 1.3125-3.1875 3.6562-5.9062 6.9375-0.28125 0.46875-0.5625 0.9375-0.60938 1.5-0.32812 1.7812-0.375 3.1406-0.32812 4.0781 1.2656 11.391 3.1875 27.75 5.8125 49.266 1.2656 9.7969 2.0156 18.75 2.9062 29.297 0.046875 0.51562 0.23438 0.60938 0.65625 0.375 10.453-6.4219 21.656-12.188 33.703-16.266 8.3906-2.8594 16.688-3.2812 24.984-1.3594 6.1875 1.4531 13.688 6.0469 19.031 9.7969 18.984 13.266 35.812 28.875 52.922 44.344 0 0 0.046875 0.046875 0.14062 0v-0.14062zm52.5-29.391c9.5625-7.4062 19.734-14.438 30.562-20.906 5.25-3.0938 10.219-5.7656 15.047-7.875 11.016-4.9688 21.328-7.0781 30.562 2.0625 3.7031 3.6094 7.5469 8.2969 11.766 14.109 11.859 16.312 23.438 32.766 34.734 49.312 0.14062 0.1875 0.32812 0.23438 0.51562 0.23438 0.23438-0.046875 0.375-0.1875 0.46875-0.375 6.1406-18.375 11.344-36.984 15.562-55.875 5.7188-24.984 11.344-50.672 13.781-75.656 0.09375-1.4062-0.1875-2.5312-1.0312-3.375-4.875-5.5312-9.9375-10.688-15.281-15.562-12.938-11.906-25.406-22.969-37.266-33.141-0.046875-0.14062-0.14062-0.14062-0.23438-0.046875-0.09375 0.046875-0.14062 0.09375-0.14062 0.23438-0.14062 2.9531-0.79688 5.8594-2.0625 8.8594-1.875 4.5-4.6875 9.75-8.3906 15.844-5.625 9.0469-12.281 18.984-20.062 29.672-15.938 21.891-35.062 47.484-57.422 76.875-2.25 3-6 8.1094-11.25 15.516-0.046875 0-0.046875 0.046875 0 0.09375 0.046875 0.09375 0.046875 0.09375 0.14062 0zm160.74-67.734c-4.8281 27-10.547 52.922-17.203 77.859-3.0469 11.531-6.375 21.562-10.688 33.891-0.9375 2.625-1.9219 4.8281-3.0938 6.4219-3.6562 5.1562-9.4688 2.5312-12.469-1.7344-4.2188-6.1406-14.531-20.953-31.031-44.391-6.6562-9.4219-12.141-16.594-16.406-21.422-2.9062-3.2344-6.375-5.4375-10.594-4.4531-3.0938 0.70312-6.375 1.8281-9.9375 3.5156-5.8125 2.6719-12.141 6.1875-18.938 10.547-13.875 8.9062-27.375 18.844-40.641 29.812-2.5781 2.1562-5.8594 4.2656-8.9531 5.9062-0.9375 0.46875-1.6875 1.1719-2.2969 2.0625l-11.859 18.984c-0.51562 0.75-0.75 1.6406-0.75 2.5781-0.1875 33.844 0.23438 68.531 1.3125 104.11 0.60938 21.797 0.75 36.703 1.2188 57.703 0 0.375 0.1875 0.46875 0.51562 0.46875 5.2031-0.23438 10.172-0.28125 15.047-0.1875 8.0625 0.1875 7.7812 11.344-1.0312 11.438-13.266 0.1875-26.578 0.46875-39.891 0.84375-1.5 0.046875-2.8125-0.09375-3.8906-0.28125-3.6094-0.75-5.625-3.9375-4.4062-7.3594 1.0312-2.8594 3.7969-3.7969 6.6094-3.9375 4.0781-0.14062 9-0.23438 14.859-0.32812 0.65625 0 0.9375-0.28125 0.9375-0.9375-0.5625-26.297-1.125-51.422-1.7812-75.375-0.84375-29.156-0.75-58.219 0.23438-87.234 0-0.42188-0.1875-0.75-0.5625-0.98438-5.0156-3.375-9.5156-6.8906-13.547-10.5-9.7031-8.7188-19.406-17.25-29.016-25.828-7.875-6.9844-17.812-14.438-29.672-22.359-8.7188-5.8125-18-7.0781-27.891-3.8906-13.359 4.2656-27.609 12.188-39 19.453-0.32812 0.1875-0.75 0.375-1.125 0.46875-3.3281 0.89062-6 0.28125-7.9219-1.9219-1.0781-1.2656-1.7812-4.0781-2.0156-8.4844-0.42188-8.5781-1.3125-18.094-2.5781-28.594-1.5938-14.156-3.0938-26.25-4.3125-36.234-0.046875-0.5625-0.375-0.75-0.84375-0.5625-6.7031 2.5781-15.094 5.4844-25.219 9-25.031 8.625-58.688 18.422-75.797 24.188-19.172 6.4219-37.922 12.984-54.609 23.578-8.8125 5.5312-15.656 13.875-22.828 22.312-3.5625 4.2188-6.75 9.0469-9.4219 14.344-9.1875 17.953-15.141 35.438-22.266 56.953-6.8906 20.766-12.609 41.953-17.297 63.75-3.6562 17.203-6.2812 30.797-7.875 40.828-4.4062 27.797-8.25 53.484-11.578 77.109-0.32812 2.1094-0.75 4.5469-1.2656 7.4531-0.046875 0.28125 0.09375 0.46875 0.375 0.46875l824.95-3.8438c0.51562 0 0.75-0.28125 0.75-0.84375-1.0781-36.562-2.1094-67.359-4.875-99.469-0.98438-12.094-2.7656-24.562-5.0625-37.594-3.1406-17.344-8.2969-35.062-15.562-53.109-4.7344-11.953-10.312-22.828-16.547-32.625-9.4688-14.766-22.031-27.141-37.641-37.125-6.9844-4.3594-14.812-8.9531-23.484-13.641-13.078-6.9375-31.125-16.5-54.281-28.547-11.109-5.8125-29.859-16.641-56.297-32.484-0.32812-0.1875-0.51562-0.09375-0.5625 0.23438z"/>
 <path d="m657.56 320.02c19.875-11.531 43.875-6.8438 63.891 1.7812 3.4688 1.5 8.1562 3.3281 11.719 5.7656 5.3438 3.6094 2.4375 12-3.9844 10.688-18.891-3.7969-38.484-5.4844-58.828-5.0156-5.25 0.1875-9.5625 0.89062-14.062 0.75-1.4062-0.046875-2.6719-0.60938-3.75-1.7344-4.875-5.25 0.09375-9.375 5.0156-12.234z"/>
 <path d="m526.64 320.86c16.219-7.125 34.5-3.6094 50.156 3.75 2.9062 1.4062 4.6875 2.8125 5.3906 4.2656 2.0625 4.5-1.4531 8.3906-6.1875 8.4844-5.25 0.09375-10.688 0.32812-16.266 0.70312-21.797 1.3125-42.469 6.0469-62.109 14.109-1.6875 0.70312-3.4219 0.32812-5.25-1.0312-2.25-1.8281-2.7656-4.2188-1.3594-7.2656 0.9375-2.0625 3.0938-3.5156 4.9688-4.9219 11.016-7.9688 21.188-13.969 30.656-18.094z"/>
 <path d="m675.14 388.45c-2.9531 2.25-5.8125 4.875-9.2812 1.4062-3.6562-3.7969 1.125-8.3438 4.4531-10.734 10.125-7.125 21.703-10.078 34.641-8.8125 3.375 0.375 6.0938 0.98438 8.25 2.0156 2.8125 1.2188 4.5469 4.6875 2.8125 7.5469-3.1875 5.2969-8.7656 1.5469-13.266 1.1719-0.1875 0-0.23438 0.09375-0.32812 0.1875-0.046875 0.14062 0 0.28125 0.09375 0.32812 0.9375 0.89062 1.9219 2.2969 3.0469 4.4531 4.2656 8.3438 4.1719 16.406-0.1875 24.234-4.5469 8.2031-15.891 10.266-22.734 3.9844-7.3125-6.5625-9.7031-15.094-7.2188-25.594 0.09375-0.09375 0-0.14062-0.046875-0.1875-0.046875-0.09375-0.14062-0.09375-0.23438 0z"/>
 <path d="m554.29 391.87c0.65625 1.2656 1.0312 3 1.2188 5.2969 0.75 7.875-1.0781 14.156-5.4375 18.75-7.6406 8.0625-18.516 5.9531-24.469-2.8594-4.2188-6.3281-4.9688-13.828-3.2812-21.234 0.046875-0.14062 0-0.28125-0.14062-0.375-0.046875-0.09375-0.1875-0.14062-0.375-0.09375-2.1094 0.9375-4.5469 2.1562-7.3594 3.6562-8.1562 4.2188-13.406-5.4375-6-9.5625 17.25-9.7031 35.297-12.141 52.922-2.2031 2.9531 1.6406 5.0156 3.1406 6.0469 4.3594l0.5625 0.84375c1.3125 2.625 0.84375 4.7812-1.4062 6.4688-0.32812 0.28125-0.65625 0.375-1.0312 0.51562-4.1719 1.125-7.5-2.4375-10.734-4.0781-0.14062-0.046875-0.32812 0-0.375 0.09375-0.14062 0.09375-0.1875 0.23438-0.14062 0.42188z"/>
 <path d="m649.13 536.63c0.42188-1.4531 1.5469-2.4375 3.375-2.9531 1.8281-0.5625 3.75-0.46875 5.9531 0.14062 2.1094 0.70312 3.75 1.6875 4.9219 3.1875 1.2656 1.4531 1.6406 2.8594 1.1719 4.3125-0.42188 1.4531-1.5469 2.4375-3.375 2.9531-1.7812 0.5625-3.7969 0.46875-5.9062-0.14062-2.1562-0.70312-3.8438-1.7344-5.0156-3.1875s-1.5469-2.9531-1.125-4.3125z"/>
 <path d="m637.5 537.71c1.125-0.9375 2.4844-1.2188 4.125-0.84375s3 1.3125 4.125 2.7656c1.1719 1.4531 1.7344 3 1.7344 4.6875 0.09375 1.6406-0.46875 2.9531-1.5938 3.7969-1.125 0.89062-2.5312 1.125-4.125 0.75-1.6406-0.375-3-1.2188-4.125-2.7188-1.2188-1.4531-1.7812-2.9531-1.7812-4.6406-0.046875-1.6406 0.51562-2.9531 1.6406-3.7969z"/>
 <path d="m625.31 542.06c1.3125-0.60938 2.7656-0.51562 4.1719 0.23438 1.5 0.75 2.625 2.0156 3.375 3.7031 0.84375 1.6875 1.0312 3.3281 0.65625 4.9219-0.375 1.6406-1.2656 2.7656-2.5781 3.375-1.3125 0.5625-2.6719 0.51562-4.1719-0.23438-1.5-0.79688-2.625-2.0156-3.375-3.7031-0.75-1.7344-0.9375-3.375-0.5625-4.9688 0.375-1.6406 1.1719-2.7656 2.4844-3.3281z"/>
 <path d="m596.11 548.21c0.14062 0 0.28125-0.09375 0.28125-0.1875 0.23438-0.9375 0.79688-1.875 1.5938-2.8125 0.32812-0.28125 0.65625-0.51562 0.9375-0.65625 4.7812-1.7344 6.9375 1.9688 8.3906 5.7188 2.4375 6.375-4.2656 11.062-8.4844 5.625-0.9375-1.2188-1.7812-3.1875-2.5312-5.9531-0.046875-0.046875-0.046875-0.046875-0.09375-0.14062h-0.14062c0 0.09375 0 0.09375-0.046875 0.14062-0.75 2.7656-1.6406 4.7344-2.5781 5.8594-4.2656 5.4375-10.922 0.70312-8.4375-5.625 1.4531-3.75 3.6094-7.4062 8.3906-5.625 0.375 0.14062 0.65625 0.375 0.9375 0.65625 0.79688 0.9375 1.3594 1.875 1.5938 2.8125 0 0.09375 0.14062 0.1875 0.1875 0.1875z"/>
 <path d="m611.86 545.48c1.2656-0.60938 2.625-0.5625 4.0312 0.14062s2.4375 1.8281 3.0938 3.3281c0.65625 1.5469 0.75 3.0469 0.32812 4.5-0.51562 1.5-1.3594 2.5312-2.6719 3.0938s-2.625 0.51562-4.0781-0.1875c-1.3594-0.65625-2.3906-1.7812-3.0469-3.2812-0.70312-1.5938-0.75-3.0938-0.32812-4.5 0.42188-1.5 1.3594-2.5312 2.6719-3.0938z"/>
 <path d="m599.06 575.21c-7.0781-2.3438-4.9219-11.578 1.875-10.781 15.609 1.8281 30.422-0.75 44.297-7.7344 1.5-0.75 3.7031-2.625 6.7031-5.7656 4.4531-4.5938 11.766 0.70312 8.625 6.7031-2.4844 4.875-9.0469 8.8594-13.922 11.016-13.969 6.0469-28.406 8.5312-43.406 7.4062-1.3594-0.09375-2.7188-0.375-4.1719-0.84375z"/>
 <path d="m714.71 577.36c0.65625-1.2188 1.875-1.9688 3.4219-2.25 1.6406-0.23438 3.1875 0.09375 4.7344 0.9375 1.5938 0.89062 2.625 2.0625 3.1875 3.5625 0.65625 1.5 0.5625 2.9062-0.09375 4.125-0.70312 1.2656-1.875 2.0156-3.4688 2.25-1.5938 0.28125-3.1875-0.046875-4.7344-0.9375-1.5469-0.84375-2.625-2.0625-3.1875-3.5625-0.60938-1.5-0.5625-2.8594 0.14062-4.125z"/>
 <path d="m691.13 577.5c1.125-0.89062 2.4375-1.125 3.9375-0.89062 1.5 0.32812 2.8125 1.125 3.7969 2.3906 1.0781 1.3125 1.5938 2.7656 1.5 4.3125 0 1.5469-0.60938 2.7656-1.6875 3.6094-1.125 0.9375-2.4375 1.2188-3.9375 0.9375-1.5469-0.28125-2.8125-1.125-3.8438-2.4375-1.0781-1.2188-1.5938-2.6719-1.5-4.2188 0.046875-1.5938 0.60938-2.7656 1.7344-3.7031z"/>
 <path d="m677.63 585.98c1.3594-0.09375 2.625 0.46875 3.75 1.5938 1.125 1.1719 1.7344 2.6719 1.9219 4.5 0.1875 1.7344-0.1875 3.375-1.0312 4.6875-0.89062 1.3594-2.0156 2.1094-3.4688 2.25-1.3594 0.09375-2.6719-0.375-3.75-1.5938-1.125-1.125-1.7812-2.625-1.9219-4.4062-0.1875-1.8281 0.1875-3.375 1.0781-4.7812 0.84375-1.3125 1.9688-2.0625 3.4219-2.25z"/>
 <path d="m705.05 588c1.4531-0.375 2.8125 0 4.2656 1.2656 1.3594 1.1719 2.3906 2.8125 2.9531 4.9219 0.5625 2.0625 0.46875 3.9844-0.14062 5.7656-0.5625 1.7344-1.5469 2.8125-3 3.1875s-2.8125-0.09375-4.2656-1.2656c-1.3594-1.1719-2.3438-2.8594-2.9062-4.9219-0.5625-2.1562-0.51562-4.0312 0.046875-5.7656 0.60938-1.7344 1.6406-2.8125 3.0469-3.1875z"/>
 <path d="m567.89 591.42c0.75 1.2656 0.75 2.7188 0.09375 4.2656-0.65625 1.6406-1.7812 2.9531-3.4688 3.9375s-3.375 1.4531-5.1562 1.3125c-1.7344-0.14062-2.9062-0.89062-3.6562-2.0625-0.84375-1.2656-0.84375-2.6719-0.1875-4.3125 0.65625-1.5469 1.7812-2.8594 3.4688-3.9375 1.6875-0.98438 3.4688-1.4531 5.1562-1.2656 1.7344 0.14062 2.9062 0.84375 3.75 2.0625z"/>
 <path d="m658.5 589.74c1.3594-0.375 2.7656-0.046875 4.0781 0.9375 1.3125 0.9375 2.1562 2.3906 2.6719 4.125 0.51562 1.7812 0.375 3.4688-0.23438 4.9688-0.65625 1.5469-1.6875 2.4844-3.0938 2.8594-1.3594 0.375-2.7188 0.046875-4.0312-0.9375s-2.25-2.3906-2.7656-4.125c-0.42188-1.8281-0.375-3.4219 0.32812-5.0156 0.60938-1.5 1.5938-2.4375 3.0469-2.8125z"/>
 <path d="m649.26 593.02c1.4062 0.28125 2.4844 1.3125 3.1875 2.8594 0.65625 1.6406 0.79688 3.375 0.375 5.2969-0.46875 1.9688-1.3125 3.4688-2.625 4.5938-1.3125 1.1719-2.7188 1.5469-4.125 1.2188-1.4531-0.28125-2.4375-1.3125-3.1406-2.8594-0.70312-1.6406-0.79688-3.375-0.375-5.2969 0.42188-1.9688 1.3125-3.4688 2.625-4.5938 1.3125-1.1719 2.6719-1.5469 4.0781-1.2188z"/>
 <path d="m549.71 597.94c1.125 0.89062 1.7344 2.1094 1.7344 3.8906 0 1.7344-0.5625 3.375-1.7344 4.9688-1.2188 1.6406-2.5781 2.625-4.2188 3.1875-1.6875 0.51562-3.0469 0.375-4.2188-0.46875-1.2188-0.89062-1.7812-2.1562-1.7812-3.8906-0.046875-1.7344 0.5625-3.4219 1.6875-5.0156 1.2188-1.5938 2.5781-2.6719 4.2656-3.1875 1.6406-0.46875 3.0469-0.375 4.2656 0.51562z"/>
 <path d="m588.94 597.74c1.3125 0.75 2.0625 2.0625 2.2031 4.0781 0.09375 1.9219-0.375 3.9844-1.5 6.0469s-2.5781 3.5625-4.2656 4.5c-1.7344 0.98437-3.2344 1.125-4.5469 0.375-1.3125-0.70313-2.0625-2.0625-2.2031-3.9844-0.14062-2.0156 0.375-4.0312 1.5-6.0938s2.5781-3.5625 4.2656-4.5469c1.7344-0.9375 3.2344-1.0781 4.5469-0.375z"/>
 <path d="m599.44 597.61c1.5-0.1875 2.8125 0.375 3.9844 1.7812 1.125 1.3125 1.875 2.9062 2.0625 4.9688 0.28125 2.0156-0.046875 3.8438-0.9375 5.3906-0.84375 1.5-2.0625 2.3906-3.4688 2.4844-1.4531 0.1875-2.7656-0.375-3.9375-1.6875-1.2188-1.3594-1.875-3-2.1562-5.0625-0.1875-1.9688 0.14062-3.7969 1.0312-5.3438 0.84375-1.5 1.9688-2.3906 3.4219-2.5312z"/>
 <path d="m686.95 600.71c0.9375-1.0312 2.1094-1.4531 3.5625-1.4062 1.4062 0 2.6719 0.5625 3.75 1.6406 1.0312 0.98438 1.5938 2.25 1.6875 3.7031 0.046875 1.4062-0.46875 2.625-1.4062 3.6094-0.98438 0.9375-2.1562 1.4531-3.6094 1.3594-1.3594 0-2.625-0.5625-3.7031-1.5938-1.0312-1.0312-1.5938-2.25-1.6875-3.7031-0.046875-1.4531 0.375-2.625 1.4062-3.6094z"/>
 <path d="m630.79 600.52c1.3125-0.65625 2.625-0.5625 4.0312 0.046875 1.3594 0.70312 2.4375 1.7344 3.0469 3.2344 0.70312 1.5 0.79688 2.9531 0.375 4.4531-0.375 1.4531-1.2656 2.4375-2.4844 3.0469-1.3125 0.5625-2.625 0.51562-4.0312-0.09375-1.3594-0.65625-2.4375-1.6875-3.0469-3.1875-0.70312-1.5-0.79688-3-0.42188-4.4531 0.42188-1.5 1.3125-2.4844 2.5312-3.0469z"/>
 <path d="m618.94 602.44 0.5625 0.1875c1.2656 0.375 2.1094 1.1719 2.7656 2.3906 0.5625 1.1719 0.60938 2.3438 0.1875 3.6094l-1.875 5.625c-0.46875 1.2656-1.2656 2.1094-2.4375 2.7656-1.2188 0.5625-2.3906 0.60938-3.6562 0.1875l-0.5625-0.1875c-1.1719-0.375-2.1094-1.2188-2.6719-2.3906-0.60938-1.1719-0.70312-2.3906-0.23438-3.6094l1.9219-5.625c0.375-1.2656 1.1719-2.1562 2.3906-2.7656 1.1719-0.5625 2.3438-0.60938 3.6094-0.1875z"/>
 <path d="m562.92 606.71 0.51562 0.1875c1.1719 0.60938 2.0156 1.5 2.4375 2.7188 0.42188 1.2656 0.375 2.5312-0.1875 3.7031l-3.1406 6.5625c-0.5625 1.2656-1.5 2.0625-2.7188 2.4844-1.2656 0.46875-2.5312 0.375-3.7031-0.1875l-0.42188-0.23438c-1.2188-0.5625-2.0156-1.5-2.5312-2.7656-0.42188-1.2188-0.375-2.4375 0.28125-3.6094l3.0938-6.6094c0.5625-1.2188 1.5-2.0156 2.7656-2.4375 1.2656-0.46875 2.4375-0.375 3.6094 0.1875z"/>
 <path d="m670.69 608.81c1.1719-0.75 2.4844-0.9375 3.9375-0.51562 1.5 0.46875 2.625 1.3125 3.5625 2.7188 0.89062 1.3594 1.2656 2.8125 1.0781 4.3125-0.28125 1.5-0.89062 2.625-2.0625 3.375-1.2188 0.79688-2.5312 0.9375-3.9375 0.5625-1.5-0.46875-2.7188-1.3125-3.5625-2.7188-0.89062-1.3594-1.2656-2.8125-1.0781-4.3125s0.89062-2.625 2.0625-3.4219z"/>
 <path d="m651.24 610.92c1.4062-0.375 2.7656-0.046875 4.125 1.0312 1.4531 1.0312 2.3906 2.5312 2.9531 4.5 0.5625 1.875 0.5625 3.6562 0 5.2969-0.5625 1.6875-1.5469 2.6719-3 3.1406-1.3594 0.375-2.7656 0.046875-4.125-1.0312-1.4531-1.0312-2.3906-2.5312-2.9531-4.5-0.60938-1.875-0.5625-3.6562 0-5.2969s1.5938-2.6719 3-3.1406z"/>
 <path d="m576.98 612.19c1.4062 0.32812 2.4375 1.2656 3.1875 2.7656s0.89062 3.0938 0.51562 4.9219-1.2656 3.2344-2.4844 4.3125c-1.3125 1.0781-2.625 1.4531-4.0781 1.125s-2.4844-1.1719-3.1875-2.6719c-0.75-1.5-0.9375-3.1875-0.51562-5.0156 0.375-1.8281 1.2188-3.2344 2.5312-4.3125 1.2188-1.0781 2.625-1.4531 4.0312-1.125z"/>
 <path d="m590.63 630.14c-1.3125-1.875-1.8281-4.0312-1.5-6.375 0.375-2.9531 0.42188-6.4688 3.0469-8.0156 3.7031-2.2031 7.2656 0.42188 7.5 4.4531 0.09375 0.60938-0.09375 2.625-0.5625 6-0.28125 2.2969-1.3594 3.8438-3.0469 4.7812-0.42188 0.28125-0.51562 0.5625-0.23438 0.9375 2.8594 3.9375 3.4688 9.1875-2.3906 10.641-0.375 0.046875-0.70312 0.046875-1.0781 0-2.1094-0.51562-3.4688-1.7344-4.1719-3.75-1.1719-3.5156-0.42188-6.0469 2.25-7.7344 0.375-0.28125 0.42188-0.5625 0.1875-0.9375z"/>
 <path d="m630.74 620.68 0.5625-0.09375c1.2656-0.375 2.4375-0.1875 3.5625 0.46875s1.875 1.5938 2.2031 2.9062l1.7344 6.75c0.375 1.2188 0.1875 2.4375-0.42188 3.5625-0.70312 1.125-1.6406 1.875-2.9531 2.1562l-0.5625 0.14062c-1.2656 0.375-2.4375 0.1875-3.5625-0.51562-1.125-0.60938-1.875-1.5469-2.2031-2.8594l-1.7344-6.75c-0.375-1.2656-0.1875-2.4375 0.51562-3.5625 0.60938-1.125 1.5938-1.875 2.8594-2.2031z"/>
 <path d="m611.95 622.69c1.3594-0.375 2.6719-0.1875 3.9844 0.60938 1.3125 0.84375 2.2031 2.0625 2.6719 3.6562 0.51562 1.5938 0.46875 3.0938-0.1875 4.5469-0.5625 1.4531-1.5469 2.2969-2.9062 2.7656-1.3125 0.42188-2.7188 0.23438-4.0312-0.65625-1.2188-0.79688-2.1562-1.9688-2.6719-3.6094s-0.42188-3.1406 0.1875-4.5469 1.5469-2.3438 2.9531-2.7656z"/>
 <path d="m662.26 624.74c1.3594 0.42187 2.3906 1.3125 3 2.7656 0.5625 1.3594 0.70313 2.8594 0.1875 4.4062-0.51562 1.6406-1.3594 2.8125-2.625 3.7031-1.3125 0.79687-2.625 0.98437-3.9844 0.60937-1.3125-0.42187-2.3438-1.3125-2.9531-2.7188-0.60937-1.4062-0.70312-2.9062-0.1875-4.4531 0.42188-1.6406 1.3125-2.8125 2.625-3.7031 1.3125-0.79687 2.625-0.98437 3.9375-0.60937z"/>
 <path d="m582.71 627.24c1.125 0.75 1.7344 1.875 1.9219 3.3281s-0.14062 2.7656-0.98438 3.9375c-0.89062 1.2656-2.0156 2.0156-3.375 2.2969-1.4531 0.32812-2.7188 0.09375-3.8438-0.75-1.125-0.75-1.7812-1.875-1.9688-3.2812-0.1875-1.4531 0.1875-2.7656 0.98438-3.9375 0.89062-1.2656 2.0156-2.0156 3.4219-2.3438 1.4062-0.28125 2.7188-0.046875 3.8438 0.75z"/>
 <path d="m648.52 631.74c1.3594 0.51562 2.2969 1.5 2.8125 2.9531 0.46875 1.4531 0.46875 2.9531-0.09375 4.5-0.60938 1.5469-1.5469 2.7656-2.9062 3.5156-1.3125 0.75-2.625 0.9375-4.0312 0.42188-1.3125-0.51562-2.25-1.5-2.7188-2.9531-0.5625-1.4062-0.51562-2.9062 0.046875-4.5469 0.5625-1.5469 1.5469-2.6719 2.8594-3.4219 1.4062-0.84375 2.7188-0.9375 4.0312-0.46875z"/>
 <path d="m625.64 933.14c3.6562 0.09375 6.6562 1.9219 9.1875 5.2969 2.4375 3.4219 3.5625 7.5 3.375 12.141-0.1875 4.6875-1.6406 8.6719-4.3125 11.859-2.7188 3.1875-5.9062 4.7344-9.5156 4.6406-3.7031-0.1875-6.7031-1.9688-9.1875-5.3906-2.4375-3.375-3.5625-7.4531-3.375-12.141s1.6406-8.625 4.3125-11.812c2.6719-3.2344 5.8594-4.7344 9.5156-4.5938z"/>
 <path d="m626.48 1022.4c8.9531-0.28125 11.719 10.172 11.953 17.859 0.1875 7.6406-1.9219 18.234-10.828 18.516-8.9062 0.23438-11.672-10.219-11.859-17.906-0.23438-7.5938 1.875-18.188 10.734-18.469z"/>
</svg>
