<?xml version="1.0" encoding="UTF-8"?>
<svg width="1200pt" height="1200pt" version="1.1" viewBox="0 0 1200 1200" xmlns="http://www.w3.org/2000/svg">
 <path d="m698.26 650.39c-0.14062 0-0.75 0.23438-1.875 0.65625-0.75 0.28125-1.3125 0.46875-1.8281 0.5625-7.1719 1.4531-14.344 2.8125-21.562 4.3125-4.5938 0.9375-9 1.0312-13.734 0.5625-0.98437-0.046875-1.5469 0.375-1.6875 1.4062-0.89062 6.2812-2.8125 13.969-2.6719 20.062 0.046874 4.3125 0.046874 8.5312-0.09375 12.797-0.046876 3.6094 0.375 8.3906 1.4531 14.203 1.8281 10.125 2.2031 15 4.7344 22.219 0.46875 1.3125 1.4062 2.0625 2.8125 2.3438 12.75 1.7812 24.703 4.2188 35.812 7.2188 13.875 3.7031 21.562 5.8125 23.203 6.1875 21.328 5.8125 41.578 13.875 60.562 24.188 12.891 6.9375 26.625 15.75 37.828 26.391 9.6562 9.2344 17.062 17.25 22.125 24 13.312 17.625 24.797 36.516 34.5 56.438 7.9219 16.312 14.484 32.062 19.875 47.297 1.9688 5.9062 4.875 15.375 8.625 28.594 5.4375 19.406 9.4219 38.531 13.5 57.281 0.42187 2.0156 0.84375 4.2188 1.2188 6.5625 0.9375 5.9531 2.3906 11.391 3.375 17.203 1.0781 5.9531 1.6875 9.4219 1.875 10.547 4.125 20.953 9.1406 46.406 15 76.312 1.9688 9.6562 2.9531 17.438 4.875 26.812 0.65625 3.0938 0.5625 7.4531-0.375 10.641-0.65625 2.2969-2.8125 4.2656-5.25 5.0625-7.1719 2.25-13.125 3.4219-17.719 3.4219-422.63-0.046875-638.53 0-647.72 0-1.1719 0.09375-3.5625-0.09375-7.1719-0.5625-3.9844-0.375-7.0781-2.25-9.2344-5.4844-3.9375-5.8594-5.3906-12.328-4.4062-19.453 1.3125-9.2344 1.9688-17.859 1.8281-25.781-0.046875-5.1562 0.046875-9.7031 0.42188-13.688 0.1875-2.1562 0.51562-6.7031 0.89062-13.594 0.23438-3.75 0.79688-8.9062 1.6406-15.562 0.60938-4.9219 0.98438-10.125 1.2188-15.562 0.1875-4.3594 0.70312-9.4219 1.6406-15 1.0781-6.8438 1.7344-11.672 2.0156-14.531 0.5625-6.5625 1.125-12.703 2.4375-19.453 0.65625-3.9375 1.3125-8.0625 1.7812-12.422 0.1875-1.875 0.89062-6 2.0156-12.328 2.2031-12.703 4.7344-24.938 7.5469-36.797 2.9062-12.281 6.1406-24.141 9.8438-35.719 2.8594-9.0938 6.75-19.547 11.672-31.219 10.312-24.469 24.422-45.844 42.328-64.031 13.734-14.062 30.094-25.781 47.344-35.906 12.938-7.5 26.578-14.25 41.016-20.203 19.312-8.0156 39.234-14.391 59.766-19.125 3.4688-0.79688 6.9375-1.3594 10.219-1.6406 1.7812-0.09375 2.4375-0.98438 2.0625-2.7188-0.75-3.5156-1.2188-6.9375-1.5-10.453-0.79688-11.297-1.3125-21.75-1.5469-31.312-0.046875-1.3125-0.75-2.0156-2.0156-2.2031-18.797-2.2969-36.375-8.5312-52.734-18.797-5.25-3.2344-9.3281-6.9375-14.672-11.25-0.32812-0.23438-0.5625-0.375-0.89062-0.42188-0.375-0.09375-0.60938 0.046875-0.70312 0.46875-1.0312 11.203-3.6562 21.938-7.7812 32.391-0.5625 1.4531-2.25 4.5-5.0625 9.2344-2.25 3.8906-4.3125 6.8438-6.0938 8.7188-7.5469 8.25-16.031 13.594-25.406 16.172-6.7031 1.8281-11.25-0.14062-13.828-5.8594-3.6094-8.3906 5.4375-12.281 11.391-15.188 3.1875-1.6406 5.4375-2.9062 6.7969-3.8906 6.3281-4.6406 11.016-10.641 13.922-18.141 1.7812-4.3125 3.1406-8.6719 4.2188-13.172 0.65625-2.8594 2.0625-9.9375 4.0312-21.188 0.51562-2.7656 0.5625-5.1094 0.14062-7.0781-0.32812-1.5938-1.3594-3.6094-3.1406-6-9.75-13.312-17.531-27.984-23.438-43.922-5.625-15.234-8.9062-25.453-9.9375-30.609-3.6562-19.078-6.4688-29.438-6.0938-44.156 0.046875-1.5938-0.75-2.2969-2.3906-2.1094-4.5469 0.60938-8.8125 0.79688-12.75 0.42188-3.7969-0.375-7.6875-1.6875-11.672-3.9375-16.125-9-28.453-25.125-35.812-41.859-4.2656-9.7031-7.0312-17.016-8.2031-21.891-2.5781-10.547-4.1719-17.625-4.9219-21.188-1.2188-5.5312-1.0781-12.562-1.5-17.156-0.375-4.5-0.84375-8.9531-1.125-13.406-0.28125-2.8125 0-7.5469 0.65625-14.297 0.46875-4.125 0.75-8.4375 0.9375-12.938 0.1875-4.5469 0.65625-8.8594 1.2656-12.984 0.70312-4.2188 1.6875-9.5156 3-16.078 7.5469-37.125 20.391-71.859 38.484-104.11 23.766-42.281 59.156-77.344 101.02-102.47 8.2031-4.875 18.516-10.031 30.938-15.562 14.953-6.5625 31.266-11.625 48.984-15.188 4.3125-0.84375 7.8281-1.4062 11.953-1.4062 10.266-0.09375 19.172-0.09375 26.812-0.09375 4.0781 0.09375 9.5156 0.70312 16.453 1.875 12.094 2.2031 23.25 4.875 33.234 8.0625 13.078 4.125 25.5 9.6562 37.453 16.453 1.5 0.89062 2.5312 0.51562 3.0469-1.125 7.875-23.812 21.188-43.734 40.078-59.953 17.719-15.094 39.188-24.094 64.406-26.859 2.0625-0.23438 6.0938-0.23438 12.094-0.046875 4.6875 0.09375 8.6719 0.46875 11.859 1.125 31.078 5.6719 56.625 20.812 76.688 45.281 15.891 19.453 26.438 42 31.688 67.828 1.3594 6.8906 2.1094 14.812 2.25 23.766 0.14062 12.984 0 22.312-0.51562 27.844-0.46875 6-2.2969 14.438-5.3438 25.406-5.2031 18.469-13.828 34.781-25.781 48.984-0.60938 0.70312-0.65625 1.4531-0.28125 2.2969 7.9688 15.75 13.359 31.688 19.312 49.828 2.25 6.7969 4.6875 16.312 7.3594 28.5 3.0469 13.875 5.625 29.297 7.6406 46.172 0.79688 6.7031 1.2188 14.203 1.2188 22.594 0 8.7188 0 13.734 0.09375 15.047 0.09375 5.4844-0.14062 10.5-0.65625 15.047-1.9219 15.844-3.6094 26.812-5.1094 33-2.7656 11.625-4.6875 18.844-5.8125 21.469-3 6.7969-5.7656 12.984-8.2969 18.469-11.062 23.812-26.062 45-44.953 63.562-4.5469 4.4531-9.9375 8.9062-16.125 13.266-19.828 14.016-40.875 24.234-63.234 30.797-10.453 3.0938-16.219 4.8281-17.438 5.25-0.9375 0.375-1.5 1.0312-1.6406 1.875-0.75 4.6406-1.3125 6.9375-2.3906 11.766-3.9375 18.047-16.219 31.547-32.25 41.297-4.3594 2.7188-10.734 5.2031-15.422 1.7812-3.6094-2.625-5.0156-6.4688-4.125-11.531 0.375-2.3438 1.4531-4.125 3.0469-5.25 4.6406-3.2344 8.3906-5.8594 11.344-7.875 7.875-5.5312 13.312-12.75 16.219-21.609 0.1875-0.60938 0.09375-1.8281-0.375-3.5156-0.09375-0.42188-0.375-0.60938-0.79688-0.46875zm141.42-392.81c0.14062 0.1875 0.28125 0.23438 0.51562 0.23438 0.1875 0 0.32813-0.046875 0.375-0.23438 2.4375-4.6875 4.5469-8.7188 6.2344-11.906 6.0938-11.062 9.9375-23.438 12.469-35.438 1.3594-6.4219 1.9688-11.344 1.9688-14.906-0.046876-6.7031 0-11.766 0.14062-15.281 0.1875-7.1719-0.5625-14.672-2.2969-22.594-2.9062-13.312-6.9375-25.219-12.281-35.766-9.2812-18.609-22.688-33.797-39.984-45.562-5.0156-3.4219-10.078-6.1875-15.234-8.3906-9.6562-4.0312-20.906-6.6094-29.812-7.7812-3.8438-0.51562-6.8906-0.65625-9.1875-0.375-7.6406 0.84375-14.719 2.2969-21.328 4.125-24.562 6.9375-45.984 26.062-58.359 48.469-2.0156 3.75-4.5938 9-7.5938 15.891-0.46875 1.1719-0.42188 2.4844 0.1875 3.9844 0.1875 0.375 0.46875 0.5625 0.84375 0.70312 5.3438 1.5469 11.109 1.9219 15.562 2.9531 24.422 5.2969 47.484 14.062 69.188 26.297 13.594 7.6875 26.062 16.922 37.359 27.797 11.297 10.969 21.375 22.688 30.141 35.25 6.6094 9.4688 12.797 19.266 18.656 29.391 0.375 0.75 0.84375 1.2656 1.2656 1.6875 0.42188 0.42188 0.89063 0.89062 1.1719 1.4531zm-288-39.094c-0.79688 2.2031-2.8125 3.75-4.875 4.6406-4.125 1.6406-9.7969 3.75-16.969 6.1875-18.75 6.4219-37.078 15.047-53.812 25.172-1.5 0.9375-1.6875 2.0625-0.65625 3.4688 2.1562 2.9062 5.8125 5.8594 8.0625 8.7188 4.5 5.9062 8.3438 11.578 11.531 17.203 5.7188 10.078 10.5 20.391 14.25 30.797 5.2969 14.906 8.6719 24.188 10.125 28.125 4.9219 13.406 11.906 25.781 21 37.125 4.0312 5.2031 9.6562 10.875 16.781 17.156 11.625 10.125 22.453 18.562 32.531 25.312 10.688 7.2188 21.75 13.969 33.094 20.25 17.625 9.6562 35.719 17.109 54.375 22.359 2.625 0.75 6.2812 1.3594 9.6562 2.0625 1.3125 0.23438 2.8125-0.14062 3.8438-0.98438 5.9531-5.2031 12.891-9.5156 20.766-13.031 5.7656-2.5312 10.078-4.1719 12.891-4.875 4.4062-1.0312 9.0469-1.5 13.875-1.2188 12.609 0.75 23.25 5.4844 31.875 14.297 5.4375 5.4844 9.4219 12.375 12 20.578 3.2344 10.125 3.9375 20.719 1.9688 31.781-1.1719 6.9375-2.7188 12.891-4.5469 17.766-9.8906 25.734-26.391 46.125-49.453 61.172-4.3594 2.9062-8.6719 4.875-13.031 6.1875-1.5938 0.46875-2.1562 1.4531-1.6875 3 0.42187 1.875 1.3125 4.4062 2.5312 7.4531 1.5 3.75 2.3438 7.4531 2.7656 10.828 0.14063 1.3594 0.89063 1.875 2.25 1.5469 26.062-6.1406 49.641-16.875 70.734-32.203 9.0938-6.6094 17.531-14.719 24.516-22.969 14.062-16.641 25.5-35.719 34.266-57.141 1.7344-4.3125 3.2812-8.8594 4.7344-13.734 1.9219-6.5625 3.0469-11.25 3.5156-14.156 1.875-13.359 2.9062-20.719 3.0938-22.031 1.0312-7.125 1.5-13.219 1.5-18.094-0.046876-10.031 0.32812-18.984-1.1719-28.5-0.70312-4.1719-1.125-7.5469-1.4531-10.125-5.8125-51.281-21.75-99.094-47.859-143.53-9.6094-16.406-19.922-30.844-30.797-43.266-13.266-15.234-29.156-27.984-47.625-38.25-6.1406-3.375-11.578-6.1406-16.219-8.25-4.3594-1.9219-10.031-4.125-17.062-6.5156-13.219-4.5-24.375-7.5938-33.562-9.375-6.4688-1.2188-13.547-1.9688-21.047-3.0938-3.0469-0.46875-5.5781-1.0781-7.4531-1.8281-1.9219-0.75-4.3125-1.9219-7.0312-3.4219-12.562-6.75-25.594-12.328-39-16.641-4.5-1.4531-13.828-3.5625-28.078-6.3281-3.1406-0.60938-5.5781-0.9375-7.3125-0.9375-1.6406-0.046875-4.0781-0.23438-7.4531-0.60938-3.6094-0.42188-7.3125-0.60938-10.969-0.5625-15.656 0.14062-31.031 2.9531-46.219 8.2969-9.6094 3.4688-15.984 5.8125-19.125 7.2656-30.234 13.359-57.188 31.547-80.859 54.703-3.5156 3.375-7.0781 7.1719-10.734 11.438-4.3125 4.9688-7.7812 9-10.219 12-4.6875 5.625-9.9375 13.125-15.656 22.406-14.906 24-26.531 50.203-34.781 78.656-4.875 16.5-8.4844 33.047-10.922 49.734-0.5625 3.9844-0.60937 8.8125-0.75 11.812-0.046874 0.046875-0.23437 2.6719-0.60937 8.0156-0.51563 5.9062-0.32813 12.375 0.42187 19.172 0.42188 3.6094 0.23438 8.6719 0.79688 12.75 1.8281 12.797 5.0625 25.266 9.7031 37.312 4.1719 10.922 10.5 21.75 18.609 29.812 4.0781 3.9375 7.4531 6.5625 10.125 7.875 4.125 1.875 8.3906 2.625 12.844 2.1094 1.0312-0.046875 1.5469-0.65625 1.5469-1.7344-0.32812-13.734 0.1875-26.016 1.4531-36.609 0.60937-5.4375 1.0312-11.391 1.3125-17.766 0.28125-8.4375 1.2188-16.359 2.9062-23.812 0.70312-3.2344 0.75-7.4531 1.4062-10.828 3.6562-18.844 7.3594-35.062 11.062-48.562 4.5938-16.875 11.531-34.031 20.719-51.562 10.219-19.359 22.969-37.031 40.594-49.125 10.219-7.0312 18.938-15 28.922-20.672 18.516-10.5 38.859-19.453 61.078-26.766 6.8438-2.2969 15.562-3.0469 17.344 6.1875 0.46875 2.25 0.32812 4.4531-0.375 6.375zm-94.594 550.4c-0.32813 0.28125-0.32813 0.5625 0.046874 0.79688 14.438 9.0469 28.688 17.109 42.75 24.047 6.2344 3.0938 12.75 5.9062 19.5 8.5312 7.1719 2.7188 13.922 4.9688 20.109 6.75 12.938 3.6094 26.203 5.625 39.891 6.0469 14.859 0.51562 29.484-1.7344 43.922-6.6094 9.4688-3.2812 18.938-7.0312 28.594-11.391 20.344-9.2344 39.938-19.828 58.547-31.641 1.2656-0.75 2.625-1.2188 4.0781-2.25 1.1719-0.84375 1.0312-1.5-0.46875-1.7812-3.9844-0.84375-7.0312-1.5938-9.0469-2.2031-4.6406-1.4531-6.9375-2.2031-6.9844-2.2031-9.5156-2.625-19.594-4.875-30.281-6.8438-3.2344-0.65625-6.8438-1.0312-10.734-1.2188-4.1719-0.1875-6.8906-0.5625-8.0156-1.125-2.6719-1.2188-4.5938-3.4688-5.8125-6.6094-1.9219-5.25-3.0938-8.7656-3.4219-10.547-1.125-5.9062-2.25-11.719-3.375-17.531-0.79687-4.125-1.2656-6.9375-1.3125-8.3438-0.1875-4.0781-0.375-6.8906-0.70312-8.4375-0.46875-3.0938-0.46875-7.2656 0-12.656 0.1875-2.3438 0.46875-6.7969 0.84375-13.312 0.1875-3.9375 0.75-7.0312 1.5-11.484 0.42187-2.4844 0.75-5.3906 1.0312-8.6719 0.32812-3.75 0.89062-7.6406 1.6875-11.766 2.5312-13.078 5.25-25.359 8.2031-37.078 1.3125-5.1562 3.5156-12.375 6.4219-21.422 0.70312-2.2969 1.6875-5.2031 4.4062-5.9531 4.9219-1.5 7.875-1.6875 12.188 1.4531 4.125 3 6.4688 4.8281 7.0312 5.3906 0.9375 0.98438 1.875 1.2188 2.9062 0.65625 0.75-0.42188 0.9375-1.0312 0.5625-1.875-3.4688-6.6094-6.375-13.594-8.9531-20.859-1.5-4.2656-2.625-8.5781-3.375-12.938-2.0156-11.578-3.4219-17.578-2.625-26.672 0.60938-6.9375 1.875-15.469 3.8906-25.5 0.28125-1.5938 0.9375-3.1875 1.9688-4.8281 0.375-0.5625 0.46875-1.1719 0.1875-1.8281-0.23438-0.60938-0.65625-0.98438-1.3125-1.1719-24.047-6.7969-46.781-16.688-68.25-29.625-0.375-0.23438-0.79688-0.23438-1.1719-0.046875-0.42187 0.23438-0.60937 0.5625-0.70312 0.98438-0.09375 3.1875 0.51562 6.375 0.09375 9.75-0.84375 6.1875-4.5 11.672-9.6562 15.328-6.2812 4.3594-14.625 2.7188-19.922-1.7812-3.375-2.8125-5.8594-6.9844-7.5469-12.656-3.2812-10.969-2.1562-21.891 3.375-32.766 0.5625-1.0781 0.375-2.0156-0.65625-2.6719-10.172-7.4062-20.156-15.891-30.094-25.5-9.4688-9.1875-16.828-18.281-22.266-27.188-5.5781-9.2812-9.9375-18.188-13.172-26.812-2.3906-6.4688-5.8125-16.078-10.266-29.016-3.7031-10.875-8.7656-21.938-15.188-33.328-3.4219-6.0938-8.2031-12.281-14.203-18.562-1.3594-1.4062-2.625-1.7344-3.75-0.98438-8.8125 6.0469-16.5 13.922-23.062 23.484-3.1875 4.7812-5.2969 7.9688-6.2344 9.6562-9.0469 15.656-15.938 30.656-20.625 45-2.6719 8.0625-5.0625 16.406-7.1719 25.031-0.14063 0.70312 0 1.2656 0.46875 1.6406 0.28125 0.1875 0.51562 0.23438 0.84375 0.1875 1.9688-0.60938 5.625-1.7344 10.875-3.2344 3.5625-1.0781 7.1719-1.875 10.875-2.3438 7.9219-1.0312 12.75-1.6875 14.484-1.7344 4.7344-0.32812 10.359 0.32812 16.922 1.875 4.5938 1.0781 7.6875 2.3906 9.375 3.9844 2.9062 2.7188 3.6562 6.4688 2.3438 11.203-0.89063 3.0469-2.25 4.0781-5.25 4.9219-2.5312 0.70312-4.3125 0.9375-5.3906 0.65625-10.828-2.7656-21.891-2.9531-33.234-0.5625-7.5938 1.5938-15.516 4.2188-23.625 7.7812-1.7812 0.75-3 1.7812-3.8438 3-0.9375 1.5938-1.5 3.1406-1.6875 4.7812-1.5469 11.859-2.8125 20.906-3.9375 27.234-0.65625 3.9375-0.60938 7.0781-0.75 11.766 0 2.1094-0.1875 5.0625-0.46875 8.8594-0.375 5.2031-0.70313 12-0.9375 20.484-0.375 16.266 0.046874 31.594 1.4062 46.031 0.375 4.5469 0.89062 8.0625 1.4062 10.5 0.79687 4.125 1.4062 7.5938 1.9219 10.359 0.89063 5.8125 1.9219 11.016 3.1406 15.516 4.5 17.156 10.781 33.375 18.938 48.469 3.8438 7.125 7.7344 13.219 11.625 18.094 4.9688 6.2812 9.7969 11.625 14.344 15.938 14.344 13.547 31.594 22.406 51.703 26.625 13.078 2.8125 26.953 3.375 41.578 1.7812 9.6094-0.98438 18.984-3.375 28.031-6.9844 1.8281-0.75 5.2031-2.4844 9.9375-5.25 4.3125-2.4375 7.4531-3.7969 9.375-4.125 3-0.375 5.5312 0.23438 7.6406 1.9219 4.5 3.5625 5.6719 9.1406 2.0625 13.969-2.0156 2.6719-4.3594 4.875-7.1719 6.6094-9.0938 5.625-19.031 9.7031-29.719 12.234-11.812 2.9062-22.969 4.2656-33.562 4.2188-1.1719 0-1.7344 0.5625-1.6875 1.7344 0.1875 4.1719 0.5625 8.4844 1.125 13.078 0.32812 2.5312 0.46875 5.1562 0.46875 7.9219-0.14063 3.8906 0 6.5156 0.1875 7.875 1.5938 9.75 2.4375 15.938 2.4844 18.703 0.1875 5.9062-1.1719 11.438-7.4531 12.469-17.297 2.9531-34.875 7.4062-52.547 13.406-2.2969 0.75-4.1719 1.7812-5.6719 3.1875zm240.37-280.97c-4.5 5.9531-7.4062 12.562-8.8125 19.969-0.375 2.25-0.9375 4.5469-1.6406 6.8438-0.75 2.7188-1.1719 5.0156-1.3125 7.0312-0.42188 6.2812 1.6875 13.172 2.8594 20.062 0.5625 3.2344 2.0156 7.7812 4.3125 13.688 3.1875 8.25 7.125 16.125 11.719 23.625 0.60938 0.98438 1.4062 1.2188 2.4844 0.79688 12.797-5.625 23.812-13.875 33-24.609 5.6719-6.7031 10.312-13.219 13.828-19.594 5.3438-9.7969 8.8594-20.25 10.406-31.5 0.32812-2.4844 0.32812-4.7344-0.09375-6.8438-1.125-5.5312-2.625-11.906-5.3906-16.406-3.75-6.0469-9-10.219-15.797-12.469-4.8281-1.6406-10.266-1.6406-16.406-0.09375-12.047 3.1875-21.797 9.7031-29.156 19.5zm-1.875 120.1c-0.32812-1.0312-0.89062-1.5938-1.875-1.7812l-23.625-4.3594c-1.5-0.32812-2.4375 0.32812-2.7656 1.8281l-6.375 29.25c-0.1875 0.84375 0 1.5938 0.60938 2.25 0.65625 0.60938 1.3125 0.79688 2.2031 0.60938l34.734-7.3594c1.6875-0.375 2.25-1.4062 1.8281-3zm82.781 311.68c3.375-0.60938 7.7812-0.9375 10.312 1.2656 3.8438 3.2812 5.0625 10.969 5.0156 15.656-0.046875 12-0.046875 21.562 1.1719 33.141 0.9375 8.3906 1.5 17.578 1.5938 27.703 0.046875 4.3594 1.125 8.6719 1.125 13.125 0.046875 5.1094 0 10.312 0 15.469-0.09375 3.8906 0.28125 9 0.98438 15.469 1.0781 9.7969 1.6406 19.875 1.7344 30.188 0.09375 1.2188 0.14062 2.625 0.32812 3.9844 0.51562 3.375 0.89062 6.5625 0.79688 10.078-0.28125 12.281 0.1875 24.094 1.5 35.484 0.28125 2.1094 0.51562 5.25 0.75 9.4219 0.1875 2.8125 0.28125 5.9531 0.1875 9.375 0 1.0781 0.51562 1.6406 1.5938 1.6406h116.53c1.0312 0 1.5-0.51562 1.4531-1.5469 0-1.2656-0.1875-2.625-0.51562-4.2188-1.875-8.3438-2.8594-13.125-3.0469-14.156-1.1719-7.2188-2.0625-11.953-2.5781-14.156-3.0938-15.047-6.0469-29.625-8.6719-43.594-5.625-29.906-9.9375-51.703-12.797-65.578-4.875-23.062-10.219-43.547-16.031-61.453-6.1875-19.172-13.922-38.109-23.156-56.812-8.4375-16.922-18.281-32.906-29.531-47.906-8.3438-11.203-17.859-21.281-28.547-30.281-4.1719-3.4688-8.8125-6.7969-13.875-9.8438-13.5-8.2031-27.141-15.094-40.875-20.578-1.7344-0.70312-3.1406-0.79688-4.6406 0.5625-3.2344 3-9.0469 6.9844-17.344 12.047-17.953 10.969-34.641 20.156-50.062 27.656-9.75 4.7344-20.438 9.2812-32.156 13.781-4.3125 1.6406-10.875 3.75-19.781 6.375-3.2812 0.9375-7.4531 1.7812-12.562 2.3906-3.1875 0.42188-7.4531 1.0781-12.703 2.0156-2.5781 0.42188-8.2031 0.46875-16.734 0.09375-6.8438-0.23438-11.906-1.5469-18.281-2.1562-3.6094-0.375-8.1562-1.125-13.688-2.3906-21.047-4.6406-42.234-12.75-63.656-24.422-8.5781-4.6406-15.938-8.8125-22.031-12.469-8.3438-4.9688-15.844-10.312-22.359-15.984-2.0156-1.6875-4.2656-2.0156-6.7031-0.89062-16.5 7.4062-32.156 16.266-47.109 26.719-14.25 9.9375-26.109 20.672-35.578 32.25-8.25 10.031-14.672 19.312-19.172 27.609-8.1094 14.672-15.047 31.266-20.953 49.641-5.1094 16.031-8.9062 30.094-11.438 42.188-4.3594 21-6.9844 35.25-7.9219 42.75-1.0781 8.5312-1.7344 13.734-2.0625 15.469-1.125 6.0938-1.875 11.25-2.2031 15.562-0.65625 8.5312-1.3125 14.391-1.875 17.578-1.1719 6.5625-1.7812 12.422-1.875 17.484 0 0.84375-0.60938 8.7188-1.7812 23.438-0.51562 6.4688-2.0156 15.938-1.8281 23.25 0.1875 8.9062-0.1875 18-1.2656 27.328-0.1875 1.5 0.51562 2.25 2.0156 2.25h100.5c1.3125 0 2.0156-0.70312 2.0156-2.0156v-197.63c0-4.2188 0.42188-7.5938 1.3594-10.125 2.8594-7.6875 12.516-9.1875 17.625-2.6719 3 3.8906 3.1406 9.2344 3.1406 14.578 0.046875 80.531 0.046875 146.06 0 196.5 0 0.9375 0.42188 1.3594 1.3125 1.3594h376.03c1.3125 0 1.9688-0.70312 1.875-2.0156-0.42188-10.172-0.84375-18.047-1.2188-23.531-0.5625-6.8906-0.46875-15.188-0.375-20.812 0-3.6562-0.32812-8.8125-1.0781-15.562-0.89062-8.4375-1.4531-15.281-1.5469-20.344-0.1875-8.8125-0.375-13.734-0.51562-14.906-0.51562-5.3906-0.75-10.312-0.70312-14.812 0.09375-8.7656-0.28125-17.203-1.125-25.406-0.84375-8.625-1.3594-13.969-1.3594-16.031-0.1875-8.2031-0.42188-13.594-0.60938-16.219-0.51562-5.5312-0.75-12.422-0.84375-20.531 0-7.125-0.23438-14.016-0.60938-20.578-0.14062-1.8281 0.375-4.3125 1.5469-7.5 0.75-2.0156 2.3906-3.2344 4.875-3.75z"/>
 <path d="m668.21 370.18c8.4844 11.344 18.047 21.094 28.594 29.344 9 7.0312 20.25 13.406 28.641 18.609 5.4844 3.4219 7.8281 9.6094 3.9375 15.234-3.2344 4.7812-10.359 5.3438-15.047 2.8125-5.7656-3.0469-12.469-7.125-20.062-12.188-6.8906-4.5469-13.031-9.2812-18.516-14.25-13.5-12.094-24.703-25.875-33.75-41.156-13.359-22.781-23.109-47.062-29.203-72.938-1.5-6.1875-2.0625-11.203-3.0938-18.891-0.32812-2.4375-0.09375-5.0625 0.79688-7.8281 0.70312-2.25 2.0156-3.6562 3.9375-4.3125 3.3281-0.9375 8.4375-1.5469 10.828 1.6406 1.4062 2.0625 2.625 4.9219 3.4688 8.6719 2.0156 8.9062 3.4688 15.094 4.2188 18.656 2.2969 10.969 7.125 24.469 14.297 40.547 6.0469 13.5 13.078 25.547 20.953 36.047z"/>
 <path d="m760.55 398.39c5.5312 9.6562 14.062 20.859 23.25 28.594 2.8125 2.3906 4.5938 4.4531 5.3438 6.1875 1.9219 4.9688 0.46875 11.344-4.4531 13.828-4.125 2.1094-8.5781 0.375-12.047-2.3906-10.781-8.5312-19.688-18.797-26.812-30.797-9.75-16.5-16.969-33.797-21.516-52.078-0.98438-4.1719-1.875-9.7969-2.4844-16.875-0.51562-5.7188-0.75-9.1875-0.70312-10.406 0.23438-3.9375 1.6406-11.344 6.1875-12.516 5.6719-1.5 9.5156-0.32812 11.438 3.4219 0.75 1.5938 1.3594 4.9688 1.8281 10.125 0.75 8.3906 1.7344 15.328 3.1875 20.719 3.9375 15.375 9.5625 29.438 16.781 42.188z"/>
 <path d="m456.42 478.92c-2.6719 5.0625-8.4844 9.2812-13.734 10.266-7.5 1.5-15.516-2.8125-19.125-9.6094-2.625-4.8281-4.125-9.4688-4.5-13.969-0.375-3.9844-0.23438-8.6719 0.32812-14.062 0.375-3.75 1.875-7.6875 4.3594-11.812 4.7344-7.6875 13.359-10.031 21.234-5.6719 7.8281 4.3594 11.719 11.953 14.344 20.438 2.4375 8.0156 1.5 16.125-2.9062 24.422zm-16.125-13.031c0.5625 0 0.89062-1.0781 0.84375-3.0938-0.09375-1.9688-0.46875-3-1.0312-3-0.60938 0-0.84375 1.0781-0.79688 3.0938 0.046875 1.9688 0.375 3 0.98438 3z"/>
 <path d="m501.24 537.37c0.51562 1.6875 2.5312 3.4219 6 5.0625 2.8125 1.3125 7.4062 2.3906 9.8438 4.4531 2.8594 2.4844 3.7969 6 2.8125 10.594-0.51562 2.25-1.4531 3.75-2.7656 4.6406-5.2969 3.375-10.312 2.2031-16.453-0.046875-4.4062-1.5938-8.1562-3.8438-11.297-6.8438-4.6875-4.5-7.4531-9.4219-8.3906-14.859-0.9375-6-0.1875-12.516 1.5-19.266 3.1406-12.281 7.125-24.094 11.953-35.438 0.375-0.9375 1.0781-2.25 2.0156-3.9375 2.25-4.0312 7.3125-4.5 11.484-3.4219 6.0469 1.5469 6.9844 9.1406 5.0625 13.922-5.0625 12.516-9.0469 24.938-11.953 37.312-0.60938 2.625-0.5625 5.2031 0.1875 7.8281z"/>
 <path d="m735.14 511.45c0.9375 6.6562 1.125 13.922 0.5625 21.656-0.375 5.4375-3.0938 10.641-6.0938 15.656-2.8125 4.7344-6.0938 8.4375-9.7969 11.062-3.7031 2.5312-7.3594 3.0938-11.062 1.5938-4.8281-1.7812-6-8.25-4.6406-12.609 1.2656-4.0781 7.125-8.5781 9.375-12.047 1.7812-2.7188 2.625-6.5156 2.5781-11.531 0-0.375 0-0.84375 0.14062-1.5938 0.046875-0.70312-0.09375-1.2188-0.375-1.6406-0.28125-0.32812-0.5625-0.42188-1.0312-0.375-0.375 0.046875-0.60938 0.32812-0.79688 0.70312-1.125 2.9062-3 5.6719-5.5781 8.1562-1.875 1.8281-3.6094 2.625-5.25 2.5312-7.5938-0.5625-11.156-7.0781-9.0938-14.203 1.125-3.7969 3.0938-7.5 6.0469-10.922 10.453-12.516 23.859-18.328 40.266-17.391 6.2344 0.32812 9.6094 3.2344 10.172 8.7656 0.60938 5.7188-1.9219 10.125-8.0156 10.781-1.5469 0.14062-3.6562 0.1875-6.1875 0.09375-0.9375 0-1.3594 0.42188-1.2188 1.3125z"/>
 <path d="m549.24 585.24c4.125-2.9062 7.6875-6.0469 10.641-9.4219 1.7344-2.0156 5.0625-6 9.9844-11.953 1.6406-1.9219 3.6562-3.375 5.9531-4.3125 1.4531-0.5625 4.6406 0.1875 6 1.125 5.9531 4.0312 6.9375 9.3281 3.1406 15.938-5.9062 10.078-14.438 18.844-25.594 26.203-5.1562 3.4219-10.594 6.0469-16.219 7.8281-5.5312 1.7344-11.438 2.9062-17.812 3.4688-4.5938 0.375-9.75 0-15.516-1.1719-6.3281-1.3125-11.25-5.2031-10.172-11.953 1.125-7.7344 8.5312-7.7812 14.859-7.1719 2.8594 0.32812 5.0156 0.51562 6.3281 0.51562 10.359 0 19.875-3.0938 28.406-9.0938z"/>
</svg>
