<?xml version="1.0" encoding="UTF-8"?>
<svg width="1200pt" height="1200pt" version="1.1" viewBox="0 0 1200 1200" xmlns="http://www.w3.org/2000/svg">
 <path d="m417 165.89s0.046875 0 0.046875-0.09375c0.09375-0.046875 0-0.09375 0-0.09375-14.156-14.156-16.922-36.469-11.297-55.078 9.1406-29.812 33.328-52.453 63.422-59.297 10.688-2.4375 21.703-3.2812 33.141-2.4375 4.6875 0.28125 6.9375 5.3438 4.0781 9.0938-2.9531 3.8906-9.4688 2.1562-10.875 9.7031-1.6406 8.625 9.1875 10.312 15.375 9.375 14.531-2.25 25.547-12.609 31.359-26.203 1.7344-4.125 3.0469-6.5625 3.9375-7.4062 2.3906-2.3438 5.5781-2.5781 9.5156-0.75 4.0312 1.875 7.1719 3.1875 9.375 4.0312 24.094 9.4688 43.219-0.046875 70.125-4.875 2.1094-0.375 4.3594-0.65625 6.7969-0.9375 39.516-3.6562 85.453 8.0625 110.77 40.875 0.375 0.51562 0.79688 0.70312 1.4062 0.5625 15-2.7188 33.094 1.6875 46.875 7.875 32.719 14.578 48.656 49.5 51.938 83.156 3.0938 30.797 1.0781 61.875-4.1719 93.094-5.0156 29.719-11.672 59.438-20.438 88.312-3.2344 10.688-5.6719 19.078-7.2656 25.078-0.09375 0.42188 0.09375 0.60938 0.51562 0.60938 2.625 0.09375 5.2969 0.5625 8.0156 1.4531 12.984 4.5 22.125 15.75 26.672 28.453 7.4531 20.812 2.6719 42.422-7.1719 61.734-7.0781 13.922-16.688 25.547-28.828 34.828-11.391 8.6719-25.922 12.797-40.312 9.75-0.32812-0.09375-0.51562 0.046875-0.5625 0.42188-5.2031 25.172-11.016 49.266-17.625 72.188-5.0156 17.25-10.875 35.391-23.25 48.984-5.3906 5.9531-8.8594 10.125-11.484 17.016-3.75 9.6094-6.375 17.062-11.438 24.891-0.28125 0.375-0.375 0.84375-0.32812 1.3125 2.4375 16.875 7.3125 33.562 12.797 49.969 0.09375 0.32812 0.32812 0.46875 0.70312 0.46875 2.0625-0.28125 3.9375 0.046875 5.4844 0.79688 18 9.1875 40.828 16.875 59.953 30.047 12.75 8.7656 24.562 18.281 35.438 28.453 7.9219 7.3594 12.375 13.547 14.812 23.109 1.7344 6.8906 2.8594 11.953 3.5156 15.141 0.1875 0.79688 0.60938 1.3594 1.3125 1.8281 24.844 13.688 49.031 26.062 70.172 37.312 10.359 5.5312 20.016 11.344 28.875 17.484 20.109 13.828 35.578 34.266 46.172 57.047 8.1562 17.438 14.344 34.641 18.516 51.656 7.3125 29.344 10.172 59.859 11.672 89.906 1.125 23.766 2.1562 49.594 2.9062 77.391 0 0.5625-0.1875 0.98438-0.65625 1.3125-2.1094 1.6875-4.5938 2.5781-7.5 2.625-0.09375 0.046875-2.625 0.046875-7.5469 0.046875-84.703 0.09375-193.74 0.5625-327.19 1.4062-2.0156 0-3.5156 0.09375-4.4531 0.28125-1.9219 0.51562-3.8438-0.375-6.0938-0.375-214.08 1.0781-379.78 1.875-497.21 2.3438-5.8125 0.046875-8.0156-6.375-7.2656-10.969 0.5625-3.2344 1.8281-8.1562 2.3438-12 3.375-24.188 6.4688-45.797 9.4219-64.781 6.2344-40.031 14.672-79.219 27.328-117.33 5.1562-15.75 9.6094-28.312 13.219-37.688 4.8281-12.375 11.625-25.172 20.438-38.438 1.6875-2.5781 6-7.4531 12.938-14.625 10.594-11.062 25.828-19.078 40.125-24.891 30.516-12.234 70.641-23.812 95.953-31.734 1.3594-0.42188 2.3906-0.98438 3.1406-1.7344 0.23438-0.1875 0.375-0.46875 0.46875-0.75 4.5-13.266 10.219-26.203 17.156-38.766 3.9375-7.1719 7.9688-12.797 12.094-16.875 6.1875-6.1875 13.453-11.391 21.75-15.609 22.312-11.391 44.812-19.688 67.5-25.078 1.2656-0.23438 3.8906-0.60938 7.8281-0.98438 0.14062 0 0.32812 0 0.42187 0.046875l7.125 1.1719c0.375 0.09375 0.65625-0.09375 0.70313-0.5625 2.5781-14.859 2.4844-29.062 2.4375-43.875 0-0.5625-0.1875-1.0312-0.60938-1.5-4.875-4.875-10.594-9.8438-17.203-12-5.3906-1.6875-11.672-3.0938-16.5-5.5312-13.828-6.9375-22.828-20.438-27.75-34.875-5.1094-14.719-8.8125-31.312-11.109-49.875-1.6406-13.5-2.8125-25.688-3.5625-36.656 0-0.42188-0.28125-0.60938-0.65625-0.65625-2.8125-0.1875-6.2812-0.1875-8.8125-0.5625-16.875-2.7656-30.797-9.7031-41.719-20.906-23.438-23.906-33.328-61.688-17.625-92.625 8.8125-17.344 24.562-27.656 44.344-22.594 0.46875 0.09375 0.5625-0.09375 0.51563-0.51562-2.3906-10.172-4.125-20.672-5.3906-31.359-5.1562-45.188-2.2969-89.812 8.7656-133.97 0.046874-0.42188-0.046876-0.65625-0.42188-0.84375-2.5781-1.2188-5.625-2.3906-8.5781-4.0781-19.922-11.25-35.062-30.891-44.438-51.938-0.79688-1.6875-1.3125-4.7344-0.70313-6.7031 1.7812-5.0625 6.375-5.1094 11.391-3.75 8.2031 2.3438 16.922 3.375 24.938 2.5312zm175.82 12.188c2.625-0.5625 4.0312-2.2031 4.3125-4.7812 0.1875-2.0625-0.32812-3.4688-1.5938-4.3125-5.625-3.7969-11.297-8.5312-16.922-14.297-5.3906-5.4375-9-10.266-11.016-14.484-3.5625-7.5938-5.5312-16.453-5.9062-25.125-0.1875-3.2812-1.2656-7.0312-4.3125-8.0156-5.2031-1.6875-8.25 2.0625-8.1562 7.0781 0.5625 17.672 6.1406 34.031 19.078 46.594 5.1094 5.0156 18.422 18.656 24.516 17.344zm165.84-65.25c0.32813-7.5-9.7969-7.8281-10.781-0.84375-0.46875 2.9062-0.84375 5.625-1.2656 8.3438-1.875 12.047-6.2344 22.922-13.125 32.672-1.1719 1.6875-4.2656 3.75-5.0156 5.8125-1.7344 4.9219 2.625 9.1875 7.5 7.6406 2.4375-0.75 4.2656-2.0625 5.5312-3.8438 10.688-14.812 16.359-31.406 17.156-49.781zm-105.66 13.969c1.0312-7.875-9.8438-9.9375-11.625-2.9062-1.4531 5.7188-1.3125 11.672 0.23438 17.859 5.2969 20.625 19.641 38.391 41.25 42.938 8.4844 1.8281 10.547-8.625 3.3281-10.5-16.312-4.1719-24.469-14.016-30.516-28.688-2.625-6.2344-3.5156-12.516-2.6719-18.703zm-140.95 48.375c-1.125-1.9219-3-3.0469-5.5781-3.375-12.844-1.4062-25.5-2.7188-35.625-10.969-6.1875-5.0156-8.625-10.219-10.781-17.016-0.70312-2.2031-1.5938-3.6094-2.5781-4.2656-3.1875-2.0625-7.3594-1.1719-9 2.3906-0.60938 1.3125-0.60938 3.1406-0.046876 5.2969 5.1562 21.328 24.281 32.062 44.719 34.312 4.6406 0.51562 8.9062 1.0312 12.656 1.4062 2.8594 0.28125 4.875-0.5625 6.0938-2.5781 0.89063-1.3594 0.9375-3.7969 0.14063-5.2031zm303.94-1.125c-4.6406 5.3438 0.79687 12.938 5.8125 14.906 0.70312 0.23438 1.2656 0.75 1.6875 1.3594 4.5 6.7031 5.4375 13.688 4.3125 21.562-0.32813 2.25-0.23438 3.75 0.1875 4.5469 2.5781 4.7812 8.3906 4.4062 10.875-0.1875 0.5625-1.0312 0.9375-2.6719 1.0781-4.875 0.9375-13.5-3.0938-24.656-12.094-33.562-3.375-3.2812-6.6094-6.6094-11.062-4.3594-0.28125 0.14062-0.5625 0.375-0.79687 0.60938zm-107.67 23.016c0-0.14062-0.09375-0.23438-0.1875-0.375-0.14062-0.14062-0.28125-0.14062-0.46875-0.046875-2.1562 0.9375-4.875 1.7344-8.0625 2.5312-26.297 6.75-52.359 6.4688-78.047-0.9375-3.7031-1.0312-8.625-3.0938-11.203-3.9375-0.5625-0.09375-1.1719-0.1875-1.7344 0-1.1719 0.32812-2.2031 0.32812-3.0469 0.09375-0.46875-0.1875-0.84375-0.1875-1.2188 0.046875-0.79687 0.51562-1.125 1.6875-1.875 2.25-6.4688 4.6406-19.594 3.1875-26.906 1.1719-14.016-3.8438-23.203-6.375-27.656-7.5-4.2188-1.0312-7.5469-1.4062-9.9844-1.0312-7.5 1.125-14.484 6.0469-19.312 11.672-4.1719 4.875-7.6406 8.8125-10.312 11.766-0.375 0.375-0.5625 0.84375-0.5625 1.3594-0.046876 6-0.5625 11.062-1.4531 15.141-3.5625 17.062-8.25 32.625-13.969 46.734-1.0781 2.4844-2.9531 6.8906-5.625 12.984-3.2812 7.2188-4.875 12.656-5.4375 19.031-0.28125 3.75-0.70312 10.781-1.2656 21.188-0.5625 10.5-2.7656 20.297-6.6094 29.484-1.125 2.625-3.5156 6.2344-5.0156 8.7656-0.42188 0.84375-0.75 1.7344-0.9375 2.6719-1.0781 7.1719-1.5 11.953-1.3594 14.391 0.5625 10.359 2.0625 24.984 4.5938 43.781 2.7656 20.203 5.4375 34.641 8.0625 43.219 0.70313 2.25 1.4531 4.4062 2.5781 5.8125 8.9531 11.297 18.797 21.844 29.484 31.688 13.219 12.188 28.266 22.031 45.75 26.672 7.4062 1.9219 17.391 2.0156 26.953 2.7656 8.0156 0.60938 14.484 1.9688 25.312 3.9844 9 1.6406 18.422 0.375 28.172-3.7969 7.125-3 11.344-4.875 12.656-5.5312 9.4219-4.5938 20.062-4.4062 31.031-4.7344 24.562-0.79688 49.312-19.312 63.844-38.016 5.7188-7.3594 9.4688-12.797 11.344-16.172 5.2031-9.5625 9.2812-20.297 12.188-32.203 4.125-16.359 7.6406-32.719 10.5-49.172 0.1875-0.9375 0.28125-1.875 0.28125-2.8125-0.09375-4.3125-0.75-12.797-2.1562-25.5-0.375-3.5156-1.2188-6.4219-2.7188-8.7656-0.1875-0.28125-0.32812-0.60938-0.46875-0.9375-6.6094-20.484-9.9844-41.25-10.031-62.156 0-0.51562-0.1875-0.9375-0.65625-1.3125-6.1875-5.0625-11.812-10.969-16.781-17.578-11.062-14.672-20.438-29.859-28.078-45.609-4.3594-9.1406-7.5469-18.328-9.5156-27.703-0.23437-1.0781-0.23437-2.2031-0.09375-3.375zm57.047 4.3125c-5.3906 0.79688-6.0469 6.2344-4.3594 10.5 3.1875 7.875 9.5625 13.5 16.5 18.938 8.2969 6.4219 16.594 8.2031 26.625 7.3594 2.25-0.1875 3.9844-0.98438 5.25-2.5312 2.4375-2.9062 1.6875-7.2656-1.8281-8.9531-2.2969-1.125-5.6719-0.42188-9.0469-0.42188-4.9688 0-9.375-1.4531-13.219-4.2188-4.6875-3.375-11.859-8.8125-13.781-14.719-1.2188-3.5625-2.625-6.5156-6.1406-5.9531zm-272.39 19.5c-0.046875-3.3281-1.6875-5.25-4.7344-5.7656-1.6875-0.28125-3.1406 0-4.125 0.89062-3.8906 3.0469-6.1406 4.875-6.8906 5.3906-6.6562 4.1719-14.344 5.8125-22.969 4.875-6.375-0.70312-7.9688 7.5938-2.3438 10.359 1.6406 0.79688 3.7031 1.1719 6.1406 1.2656 11.109 0.09375 20.766-2.9062 28.875-8.9531 3.0469-2.2969 6.1875-4.7344 6.0469-8.0625zm-21.938 76.5c-2.4844 1.5469-6.0469 3.1406-10.734 4.6875-3.0469 1.0781-6.7031 1.5469-10.922 1.5-6.5156-0.14062-10.969-0.1875-13.312-0.23438-0.375 0-0.65625 0.1875-0.65625 0.5625-1.5469 30.094 0.75 59.672 6.8906 88.734 0.51562 2.2969 0.79688 5.25 0.9375 8.8125 0 0.1875 0.046875 0.32812 0.1875 0.42188l9.1875 8.0156h0.14062c0-0.046875 0.046875-0.046875 0.046875-0.14062 0.23438-11.719 1.0781-23.344 2.4375-34.781 0.32812-2.25-0.51562-4.4062-0.375-6.4688 0.046875-1.0312 0.70312-2.4844 1.9219-4.3594 3.375-5.2031 5.3438-8.2969 5.7656-9.3281 3.375-7.6875 5.2969-15.797 5.8594-24.375 0.89062-14.297 1.3125-21.656 1.4062-22.172 0.42188-4.3125 0.9375-7.875 1.5938-10.641 0.09375-0.046875 0-0.1875-0.046875-0.23438-0.14062-0.046875-0.1875-0.046875-0.32812 0zm355.03 20.203c-4.5938 1.6875-7.4062 1.7812-12.656 2.1562-10.125 0.65625-30.844-7.5-35.531-17.531-0.14062-0.28125-0.28125-0.46875-0.51562-0.5625l-2.8594-2.2031c-0.09375-0.046875-0.1875-0.046875-0.32812 0s-0.1875 0.1875-0.1875 0.32812c0.9375 13.5 3.2344 26.906 6.9844 40.219 0.89062 3.0938 1.5 4.9688 1.875 5.5781 0.28125 0.375 0.51562 0.75 0.75 1.0781 1.6406 1.9688 2.5312 3.2812 2.625 4.125 2.3906 14.484 3.75 29.156 4.125 43.969 0 0.14062 0.09375 0.1875 0.1875 0.1875 0.14062 0.09375 0.1875 0.09375 0.28125-0.046875 4.6875-5.2969 10.172-9.2344 16.406-11.953 0.89062-0.375 1.4062-0.98438 1.6406-1.7812 3.0469-11.156 7.1719-25.406 12.422-42.891 0.75-2.4375 2.4375-9.1875 5.1562-20.297 0.046875-0.14062 0-0.28125-0.09375-0.32812s-0.1875-0.14062-0.28125-0.046875zm-36.281 120.42c7.8281-8.4844 17.344-13.922 28.594-16.266 3.6562-0.75 9.9844-1.0312 12.609 2.2031 2.3906 2.8594 1.125 6.7031-2.0156 8.3906-0.79688 0.42188-2.2969 0.5625-4.4062 0.42188-4.0781-0.1875-8.25 0.60938-12.562 2.4844-0.28125 0.14062-0.28125 0.28125-0.14062 0.51562 2.5781 3.375 4.0781 7.3594 4.6875 12.047 1.1719 9.8906-0.79688 19.078-7.0781 26.578-2.4844 2.9531-6.0469 5.3906-9.6094 2.7656-3.75-2.7656-1.9219-6.5156 0.79688-9.75 5.625-6.4688 7.0312-14.203 4.2188-23.25-0.375-1.125-1.0312-2.1562-1.875-2.9531-0.32812-0.32812-0.65625-0.32812-1.0312-0.046875-4.4062 3.5625-8.8594 8.1562-11.484 13.312-0.98438 2.0625-2.1094 4.0312-3.3281 6.0938-0.375 0.65625-0.60938 1.3125-0.65625 2.0156-1.0781 14.25-2.7188 28.359-4.875 42.328-0.09375 0.375 0.046875 0.5625 0.42188 0.60938 15 3.1406 28.312-3.5156 39.047-14.25 11.812-11.625 20.062-25.5 24.75-41.484 4.6406-15.703 3.7031-32.391-5.8594-46.031-4.6406-6.5625-13.547-13.125-21.609-12-5.9531 0.75-11.25 1.9688-15.703 6.1406-3.5625 3.375-6.5156 6.7969-8.8594 10.172-2.1562 3-3.2812 5.3438-3.2812 6.8906-0.1875 8.4375-0.60938 15.984-1.3125 22.828 0 0.09375 0.09375 0.23438 0.1875 0.28125 0.14062 0.09375 0.28125 0 0.375-0.046875zm-366.05 12.328c-2.2969-0.09375-5.0625 0.60938-8.2031 2.0625-2.8125 1.1719-5.1094 1.9688-7.5938 0.42188-3.5156-2.25-3.2812-7.3125 0.046875-9.3281 14.016-8.4844 33.188-3.5625 45.562 5.8125 0.046875 0.09375 0.14062 0.09375 0.23438 0 0.09375 0 0.14062-0.09375 0.09375-0.1875-0.46875-5.25-0.84375-11.109-1.0312-17.625-0.09375-6.1875-6.375-12.938-10.969-16.969-1.7812-1.6406-3.4688-1.9688-5.1562-3.2812-4.1719-3.1875-9.0469-4.7344-14.625-4.875-11.438-0.1875-19.734 7.4062-24.984 17.203-12.188 22.922-6.8906 51.891 8.4375 72.328 12.047 16.172 28.172 24.797 48.375 25.969 0.42188 0 0.60938-0.1875 0.60938-0.60938-0.5625-18.562-0.46875-36.938 0.14062-55.078 0.046875-0.79688-0.1875-1.5-0.70312-2.0625-4.6875-5.5312-10.5-9.4688-17.344-11.812-0.9375-0.28125-1.6406-0.046875-2.0625 0.75-4.5 8.0156-5.0625 19.125 1.1719 26.25 0.5625 0.70312 1.875 1.9688 3.7969 3.8438 4.875 4.5938-1.4062 12.094-6.75 8.2969-12.844-9.2344-15.469-26.484-8.8125-40.641 0.14062-0.28125 0.09375-0.46875-0.23438-0.46875zm140.02 126.98c-7.9688 3.2344-0.14062 15 3.75 18.703 7.125 6.6562 15.797 10.969 26.156 12.938 26.578 4.9219 61.406-0.14062 68.906-31.594 4.125-17.109-14.391-13.547-23.719-11.719-15.422 3-31.5 5.5312-48.234 7.6875-8.2031 1.0312-18 0.28125-26.859 3.9844zm-20.438 108.05c1.3594 35.344-7.6406 72.094-37.875 93.703-0.51562 0.32812-0.75 0.79688-0.84375 1.3594-1.125 8.9062-1.2188 17.625-0.42188 26.391 0.23438 3.1406 1.5 4.9219 3.5625 7.1719 15.328 16.969 36 29.25 57.703 36.656 36.984 12.562 74.484 14.906 112.59 6.9844 26.062-5.3906 51.094-16.641 70.312-35.297 1.0781-1.0312 2.2031-1.5 3.1406-2.3906 0.32812-0.1875 0.51562-0.51562 0.5625-0.89062 2.2031-10.781 3.5156-21.375 3.9844-31.781 0.09375-1.125-0.375-2.0156-1.3594-2.7188-16.125-11.109-27.75-25.312-34.922-42.609-2.0156-4.9219-4.8281-13.5-8.3906-25.828-2.6719-9.1875-4.7344-17.906-6.3281-26.25-0.046875-0.46875-0.28125-0.60938-0.79688-0.46875-8.5781 2.7188-15.938 0.09375-25.078-2.5312-5.7188-1.5938-10.969-0.46875-15.609 3.375-3.5156 2.9531-7.8281 7.0312-12.797 12.281-6.2812 6.4688-13.875 7.9219-22.969 4.4062-10.922-4.2188-23.156-12.797-35.812-4.125-4.2188 2.9531-7.4062 4.7812-9.4688 5.3906-7.6406 2.4375-14.203 1.2656-19.5-3.6094-5.7656-5.1562-12.141-11.625-19.266-19.406-0.046875-0.09375-0.1875-0.09375-0.32812-0.046875-0.046875 0.046875-0.09375 0.14062-0.09375 0.23438zm-35.531 76.688c2.625-2.25 5.625-5.8594 8.9531-10.781 4.3594-6.7031 7.8281-14.062 10.172-22.031 0.09375-0.09375 0-0.1875-0.046875-0.28125s-0.1875-0.09375-0.32812-0.09375c-4.1719 1.3125-7.9688 6.4688-10.219 10.219-4.2656 6.9375-7.2656 14.531-8.9062 22.781-0.046875 0.09375 0 0.1875 0.14062 0.28125 0.046875 0.046875 0.1875 0 0.23438-0.09375zm226.13-17.859c-0.09375-0.046875-0.23438-0.046875-0.375 0.046875-0.046875 0.09375-0.09375 0.1875-0.046875 0.32812 5.3906 9.9844 12.422 18.516 21.141 25.5 0.046875 0.046875 0.09375 0.046875 0.1875 0 0.046875 0 0.046875-0.046875 0.046875-0.14062-1.7344-13.219-9.9844-19.781-20.953-25.734zm-344.48 85.828c-35.438 10.922-56.25 16.875-83.203 27.188-9.0938 3.4219-17.156 7.125-24.188 10.969-6.2812 3.5156-10.781 6.5625-13.594 9.1406-5.1562 4.6875-10.453 10.453-16.031 17.25-4.125 4.9219-7.3594 9.7969-9.7969 14.625-9.375 18.422-15.422 36.234-22.688 58.078-6.8906 20.719-12.609 42.047-17.297 63.984-3.6562 17.016-6.2812 30.75-7.9688 41.25-4.4062 28.172-8.3438 54.141-11.812 77.859-0.46875 3.7031-0.84375 6.1875-1.125 7.5-0.09375 0.32812 0.09375 0.51562 0.46875 0.51562l360.42-1.6875c0.375 0 0.5625-0.1875 0.5625-0.60938-0.42188-17.391-0.60938-25.641-0.23438-42.094 0.46875-21.047 1.7344-50.062 3.6562-86.906 0.375-6.8906 0.70312-13.641 0.84375-20.25 0.046875-0.84375-0.1875-1.5-0.5625-2.2031-15.375-24.891-31.125-49.828-50.953-71.297-6.1875-6.75-12.047-12.141-17.625-16.266-8.9531-6.6094-19.266-9.1406-30.938-7.4531-8.2031 1.2188-16.078 2.8125-23.625 4.875-18.422 5.0625-30.797 8.3906-37.312 9.9375-7.0781 1.6406-17.859 3.375-20.812-4.9688-1.6875-4.875 1.125-14.531 2.4844-19.781 6.375-23.344 13.594-46.5 21.656-69.375 0-0.09375 0-0.1875-0.09375-0.23438-0.046875-0.046875-0.1875-0.14062-0.23438-0.046875zm357.74 8.6719c-18 14.438-40.547 24.328-63.375 29.391-39 8.625-77.297 7.2188-114.89-4.2656-22.219-6.75-44.344-17.953-60.984-33.422-0.046876-0.09375-0.14063-0.09375-0.1875-0.09375-0.046876 0.09375-0.14063 0.14062-0.046876 0.1875 2.8594 11.766 6.5625 23.812 11.062 36.188 14.297 39.281 22.031 60.328 30.984 88.406 3.6094 11.297 6.3281 22.688 8.2031 34.125 0.5625 3.6094 0.79688 6.0938 0.75 7.3594-1.2188 16.688-1.0781 33.938-1.8281 52.312-1.4531 33.328-3.7031 72.375-2.25 107.44 0 0.23438 0.14062 0.375 0.375 0.375l117.94-0.5625c0.70312 0 0.98437-0.375 0.89062-1.0781-1.9688-13.406-3.6562-26.438-5.0156-38.906-2.4844-22.969-3.3281-45.328-2.2969-67.125 0.84375-18.469 4.5938-37.875 13.875-54.141 9.75-17.062 14.672-25.828 14.859-26.109 9.2344-16.5 18-34.875 26.25-55.125 9.9375-24.328 18.609-49.266 26.016-74.766 0-0.14062 0-0.1875-0.09375-0.1875-0.09375-0.046875-0.1875-0.046875-0.23437 0zm103.83 7.0781c4.3125 29.906 5.2969 45.797 8.8125 86.719 0.28125 3.9375 0.79688 8.4375 1.5 13.453 0.79688 6.3281 0.28125 13.312-6.75 14.484-1.5938 0.28125-4.4531-0.28125-8.5312-1.5938-3.1875-1.0781-6.0469-1.875-8.4844-2.4375-21.938-5.0156-44.297-7.0781-67.125-6.2812-11.391 0.375-19.828 4.6875-28.547 11.766-9.0938 7.3125-17.25 14.625-24.562 21.75-7.8281 7.6406-16.969 17.859-27.516 30.703-3.1406 3.8438-6 7.9688-8.5781 12.422-0.46875 0.89062-0.79687 1.7344-0.98437 2.6719-0.98438 5.4375-1.7344 11.531-2.1094 18.094-1.2656 20.812-0.5625 43.031 1.9688 66.844 1.2188 10.875 2.9531 24.703 5.25 41.344 0 0.23438 0.14063 0.28125 0.375 0.28125l329.44-1.5c0.51563 0 0.75-0.28125 0.75-0.79688-1.0312-36.797-2.1094-67.922-4.875-100.27-2.6719-31.406-8.8125-61.781-20.859-91.781-5.0625-12.703-10.688-23.719-16.688-33-9.75-15.094-22.453-27.562-38.062-37.453-6.7969-4.3125-14.297-8.6719-22.359-13.078-6.375-3.4219-26.953-14.25-61.828-32.531-0.046876-0.09375-0.046876-0.09375-0.14063 0-0.046874 0.046875-0.09375 0.046875-0.09375 0.1875z"/>
 <path d="m587.39 339.89c1.3125 3-0.9375 6.4219-3.6562 7.3125-1.2188 0.375-3.2812 0.046875-6.1875-1.0312-5.4375-2.0625-12.094-3.4219-20.062-4.0312-17.297-1.4062-33.609 0.046875-49.031 4.1719-0.51562 0.14062-0.9375 0.1875-1.4531 0.1875-1.1719 0-2.5781 0.14062-4.0781 0.32812-8.2969 1.0312-9.4688-7.6875-3.6562-11.953 6.6094-4.8281 15.094-9.9375 21.422-12.984 24-11.438 47.25 0 65.438 15.844 0.32812 0.32812 0.75 1.0781 1.2656 2.1562z"/>
 <path d="m744.42 344.26c-0.046875 3.1406-1.3594 5.3906-4.0312 6.6094-1.3125 0.5625-3.8438 0.32812-7.5-0.65625-11.953-3.4688-25.312-5.3906-40.219-5.8125-6.8438-0.1875-13.359 0.42187-19.5 1.9688-2.6719 0.70312-5.3438 0.5625-7.4062 0.9375-0.28125 0.09375-0.51562 0.09375-0.75 0-6.3281-0.9375-7.0781-7.1719-2.2031-10.734 2.8594-2.2031 5.9531-4.2656 9.2344-6.3281 13.312-8.0625 27.703-9.8438 43.078-5.3438 7.8281 2.25 15 5.625 21.516 10.031 2.8594 2.0156 7.7812 5.7188 7.7812 9.3281z"/>
 <path d="m555.19 397.5c1.5 11.297-2.4375 24.375-12.188 30.797-5.0156 3.3281-11.859 3.7031-17.203 0.65625-7.5938-4.4531-11.109-12.938-11.719-21.703-0.51562-6.8906 0.84375-13.359 4.0312-19.453 0.09375-0.09375 0-0.23438-0.046875-0.375-0.14062-0.09375-0.23438-0.09375-0.375-0.046875-5.0156 2.0625-9.7969 4.8281-14.578 8.2031-5.8125 4.1719-12.75-3.8906-6.9375-8.7188 5.7188-4.7812 12.375-8.4844 20.016-10.969 21.703-7.0312 40.266 1.6875 52.312 19.734 1.6406 2.3906 2.5781 4.2656 2.8594 5.5781 1.2188 5.3438-4.3125 8.8594-8.8125 5.6719-0.60938-0.51562-1.4062-1.4531-2.3438-2.9531-2.25-3.6094-3.75-5.8594-4.5938-6.6562-0.046875-0.09375-0.1875-0.14062-0.28125-0.09375-0.14062 0.09375-0.1875 0.1875-0.14062 0.32812z"/>
 <path d="m680.29 399.14c-1.5 1.4062-3.375 3.4219-5.6719 6.0469-0.42188 0.51562-1.5469 0.98438-3.375 1.5-0.32812 0.046875-0.70312 0.046875-0.98438 0-2.4375-0.51562-4.0312-1.7344-4.6875-3.75-1.125-3.1875 1.125-5.9531 3.5625-8.5781 17.344-19.359 42.562-23.719 64.688-9 2.1094 1.5 3.4688 2.9531 3.9375 4.4062 1.1719 3.75-1.5 7.3125-5.625 7.2188-1.0781-0.046875-2.5312-0.65625-4.4531-1.875-3.7031-2.4375-7.125-4.3125-10.828-5.4375-0.375-0.09375-0.5625 0.09375-0.46875 0.46875 0 0 0.375 1.1719 1.2188 3.4219 2.5312 6.8906 1.8281 15.938-0.5625 22.5-2.625 7.3125-7.9219 13.312-15.75 14.578-6.75 0.98438-13.312-3.75-16.594-9.4688-3.7031-6.375-4.9688-13.594-3.75-21.75 0-0.1875-0.09375-0.28125-0.28125-0.375-0.09375-0.046875-0.23438-0.046875-0.375 0.09375z"/>
 <path d="m590.26 499.18c-1.7344 3.5156 0.98438 6.3281 3.6094 8.625 4.5 3.9375 11.812 9.1406 21.938 15.703 3.1406 2.0156 3.8438 4.7344 2.1562 8.2969-0.1875 0.32812-0.375 0.65625-0.70313 0.84375-2.4844 1.5-4.6875 1.7344-6.5156 0.75-9.4219-5.3438-17.906-11.25-25.5-18-6-5.25-9.1875-12.938-5.4375-20.578 3.5156-7.3125 6.1875-12.938 7.875-16.875 5.2031-11.672 9.6562-24.188 13.266-37.5 1.5-5.4844 2.5781-11.109 3.1875-16.922 0.32813-2.8125 1.7344-4.4062 4.3594-4.6406 9.5156-0.9375 4.3125 17.859 3.1406 22.828-4.7344 19.875-11.859 39.047-21.375 57.469z"/>
 <path d="m600.74 585.24 23.438-4.5469c1.3594-0.23438 2.625 0 3.7969 0.75 1.125 0.79688 1.875 1.875 2.1562 3.2344l0.046876 0.32812c0.23437 1.3594 0 2.625-0.75 3.7969-0.79688 1.2188-1.875 1.875-3.2344 2.1562l-23.438 4.5469c-1.4062 0.23438-2.625 0-3.8438-0.75-1.125-0.79688-1.875-1.875-2.1094-3.2344l-0.046876-0.32812c-0.28125-1.3594 0-2.625 0.75-3.7969 0.79688-1.2188 1.875-1.875 3.2344-2.1562z"/>
</svg>
