<?xml version="1.0" encoding="UTF-8"?>
<svg width="1200pt" height="1200pt" version="1.1" viewBox="0 0 1200 1200" xmlns="http://www.w3.org/2000/svg">
 <path d="m441.94 117.89c0.046875 0 0.14062-0.14062 0.14062-0.1875-0.09375-0.14062-0.14062-0.1875-0.1875-0.1875-3.2812-0.5625-5.7656-1.0781-7.5-1.5-9.9375-2.3438-8.5312-9.8906-4.2656-17.016 5.4375-9.1875 13.5-14.672 24.234-16.641 0.51562-0.046875 0.84375-0.375 0.89062-0.84375 1.3594-10.406 4.125-20.438 8.0625-30.328 3.6094-8.8125 10.312-22.125 22.359-18.891 2.7188 0.75 5.5312 2.0625 8.4375 3.9375 17.766 11.438 34.969 19.219 55.828 23.578 25.641 5.2969 48.328 6.9375 76.266 9.375 0.60938 0.046875 0.79688-0.1875 0.60938-0.75-1.5469-4.6406-2.2969-9.4219-2.3906-14.578-0.046875-5.2969 2.4375-10.312 8.25-9.4688 0.51562 0.046875 1.0312 0.1875 1.5 0.375 4.7812 2.2969 7.4531 3.5625 8.1562 3.75 10.781 3.0938 22.781 4.5469 33.422 5.4844 16.5 1.4531 32.484 6.1406 47.203 13.078 21.797 10.312 45.094 34.734 39.75 61.219-0.09375 0.46875 0.09375 0.70312 0.5625 0.75 13.781 2.7188 26.438 8.1562 37.875 16.312 23.484 16.828 31.734 42.141 32.719 70.031 0.51562 16.125-0.5625 32.812-3.2812 50.062-4.4531 28.312-11.531 55.875-21.141 82.734-0.046875 0.046875 0 0.14062 0.046875 0.1875 0.09375 0.046875 0.14062 0.046875 0.1875 0.046875 6.7031-2.625 15.656-3 22.266-0.375 7.5469 3.0938 13.312 7.125 17.391 12.281 18.984 24.234 15.656 54.188 2.1562 80.438-7.5938 14.672-17.484 26.672-29.672 35.812-5.4375 4.0312-11.625 7.1719-18.562 9.2812-8.8125 2.625-18.328 2.3906-28.641-0.84375-0.375-0.14062-0.65625 0.046875-0.75 0.42188-8.3438 26.859-20.531 51.984-36.609 75.422-7.7344 11.203-16.078 21.281-25.078 30.094-0.46875 0.46875-0.75 0.98438-0.75 1.6875-0.75 12.562-0.65625 26.156 0.09375 40.781 1.0312 21.562 5.0625 42.469 11.812 62.719 0.23438 0.75 0.60938 0.79688 1.1719 0.28125 2.4844-2.25 5.25-2.3438 8.2969-0.42188 2.3438 1.4531 5.7656 3.9844 10.312 7.5469 10.219 8.1562 21.75 17.906 34.641 29.391 6.7969 6.0469 12.75 11.766 17.812 17.109 5.2969 5.625 8.8125 8.5312 8.5781 15.188-0.1875 4.9688-0.75 9.9375-1.5938 15-0.09375 0.70312 0.14062 1.2188 0.70312 1.5938 23.812 14.812 47.109 28.312 75.516 43.172 17.438 9.1406 32.25 16.922 44.297 23.391 11.484 6.1875 21.703 12.375 30.609 18.469 20.953 14.438 36.469 35.203 47.578 58.781 16.875 35.812 25.641 73.875 28.734 113.44 2.9062 36.234 4.125 71.859 5.25 112.03 0 0.51562-0.1875 0.89062-0.60938 1.2188-5.625 4.1719-10.922 2.5312-17.109 2.625-371.16 1.6875-656.9 3-857.34 3.9844-6.2812 0-8.9062-6.0469-8.0625-11.391 0.5625-3.1875 1.8281-8.1562 2.3438-12 5.0625-36.188 10.031-72.281 17.531-110.11 5.1562-25.828 11.953-51.75 20.391-77.812 8.8594-27.422 18.047-53.859 33.375-76.359 2.6719-3.8906 6.9375-8.9531 12.797-15.188 13.219-14.062 30.469-22.406 48.141-29.344 11.016-4.3125 23.109-8.5312 36.375-12.75 26.578-8.3438 66.422-20.25 97.734-32.25 0.84375-0.23438 1.125-0.79688 1.0781-1.6875-0.5625-5.0625-0.98438-9.7969 0.89062-14.062 0.75-1.6875 2.1562-3.75 4.3125-6.0938 20.484-23.062 43.547-43.266 69.094-60.516 1.5938-1.0781 3.8438-2.2969 6.8438-3.7969 5.8125-2.9062 12.422-2.8125 18.656-1.5938 0.70312 0.14062 1.125-0.1875 1.2656-0.84375 1.5-10.078 2.2031-20.531 2.2031-31.312 0-24.75 0.1875-44.766 0.5625-59.906 0-0.75-0.28125-1.3594-0.84375-1.7812-29.484-26.906-49.031-60.656-62.531-98.391-0.1875-0.51562-0.51562-0.60938-1.0312-0.42188-1.9219 0.9375-4.5938 1.5469-6.75 1.7344-44.484 4.4531-78.75-28.266-85.875-70.359-3.7969-22.125 1.6406-46.781 18.562-62.156 11.391-10.312 26.578-11.531 40.594-5.1562 0.09375 0.046875 0.1875 0.046875 0.28125 0 0.14062-0.14062 0.14062-0.1875 0.14062-0.32812-0.89062-4.7344-1.5469-8.4375-2.0625-11.016-2.25-11.531-6.1406-21.984-11.672-31.359-4.5-7.6406-9.7031-14.016-7.0312-23.391 1.5938-5.25 2.9531-10.031 4.2656-14.344 0.70312-2.3906 0.1875-4.2188-1.125-6.5156-3.375-5.8594-5.9531-10.875-7.6875-14.953-8.6719-20.156-8.6719-40.219-0.14062-60.188 1.2656-2.9062 2.2031-4.9688 2.8125-6.1875 0.1875-0.375 0.09375-0.5625-0.28125-0.46875-6.5625 0.1875-13.125 0.60938-13.266-7.9688 0-0.23438 0.046875-0.5625 0.14062-0.79688 1.5-7.3125 4.125-15.234 7.7344-23.812 8.7656-20.391 22.734-35.766 42-46.172zm349.36 243.37c1.7812-1.125 1.5938-2.625 1.875-4.875 0.09375-0.375 0.1875-0.75 0.375-1.0781 1.4531-2.3906 3.1406-6.4219 5.2031-12.234 9.9375-27.938 17.062-56.906 21.328-86.812 0.98438-7.4062 1.6875-16.828 2.0625-28.312 0.65625-22.594-2.3438-47.016-17.344-63.516-12.375-13.688-29.344-21.938-47.438-25.547-5.2969-1.0781-9.2812-1.9688-12-2.5781-2.8125-0.70312-4.3125-2.4844-4.6875-5.4844 0-0.32812 0-0.70312 0.14062-1.0781 1.6875-5.0156 6.7969-4.125 10.875-3 0.60938 0.1875 0.9375-0.046875 0.98438-0.70312 0.65625-7.3594-0.65625-14.062-3.9375-19.969-6-11.062-14.859-19.781-26.672-26.156-14.672-7.875-31.078-12.75-47.672-14.297-12.703-1.1719-25.688-2.625-37.125-6.5156-0.46875-0.09375-0.5625 0.09375-0.51562 0.51562 0.51562 3.7031 1.5469 7.125 3.1875 10.312 1.1719 2.4844 1.7344 4.1719 1.6875 5.25-0.23438 3.7969-3.8906 6.6094-7.4531 6.375-10.031-0.60938-27.938-2.2969-53.719-4.9219-13.125-1.3125-26.438-3.6562-39.891-6.9375-13.922-3.375-27.328-8.5781-39.047-15.328-0.84375-0.42188-6.5156-3.7969-17.062-9.9844-1.6875-1.0312-3.0938-0.89062-4.125 0.46875-2.3438 2.9062-4.2188 6.1875-5.7188 9.75-4.2188 10.219-6.8438 20.578-7.9219 31.078-0.32812 2.7656-0.70312 4.4531-1.2656 5.2031-3.0469 3.9375-8.3438 2.8594-11.297 3.6094-5.8125 1.5-10.312 4.8281-13.5 9.9375-0.375 0.51562-0.1875 0.89062 0.42188 0.98438 5.9062 1.125 10.969 2.5781 16.031 3.8438 5.7188 1.4062 10.406 6.4688 5.1094 12-2.0156 2.0625-5.25 2.8125-8.9531 4.3594-16.875 7.1719-29.672 18.891-38.625 35.109-3.9375 7.2656-7.125 15.141-9.4219 23.719-0.046875 0.23438 0.046875 0.375 0.375 0.375 4.2656-0.5625 9.5156-1.5 12.75 1.3594 2.625 2.2969 3 6.5625 1.3594 9.375-3.0938 5.4375-5.5312 10.5-7.3125 15.234-6.375 17.344-5.4844 34.266 2.625 50.812 1.6875 3.4688 3.4688 6.75 5.3438 9.9375 3.75 6.6562 4.5469 10.641 2.3438 17.812-1.9219 6.5156-3.1875 11.016-3.8438 13.406-0.51562 1.7812-0.32812 3.375 0.46875 4.6875 2.1562 3.5625 4.3125 7.4062 6.7031 11.672 5.7656 10.266 9.7031 21.422 11.953 33.516 1.875 10.172 2.8594 15.938 3.0469 17.297 0.14062 1.1719 0.14062 2.3906-0.046875 3.5156-0.09375 0.60938 0.09375 1.1719 0.5625 1.5938l1.3594 1.4531c0.14062 0.14062 0.23438 0.14062 0.42188 0.046875 0.14062-0.046875 0.28125-0.09375 0.28125-0.28125 0.23438-12.938 1.1719-25.969 2.8594-39.094 0.23438-1.875 0.79688-3.9844 1.7344-6.4688 0.28125-0.70312 0.375-1.4531 0.32812-2.2031l-1.3125-22.875c0-0.14062-0.14062-0.23438-0.23438-0.23438-0.14062-0.09375-0.28125 0-0.32812 0.046875-1.6406 2.2031-3.375 4.5469-5.8125 5.1094-2.5781 0.65625-5.3906-0.5625-6.4219-3-1.0781-2.3438-0.5625-4.7344 1.4062-7.1719 3.9375-4.8281 7.5-8.2031 10.5-12.891 5.5781-8.5312 10.453-18 14.625-28.172 0-0.14062 0-0.1875-0.046875-0.23438-0.14062-0.09375-0.1875-0.09375-0.23438 0-6.8906 4.7344-14.156 9.0938-21.703 13.031-3.5156 1.875-7.8281 4.3125-11.062 0.32812-2.25-2.8125-0.89062-7.125 2.0625-8.6719 21.047-11.156 40.5-25.078 58.312-41.953 8.625-8.1094 14.812-15.516 18.609-22.078 0.1875-0.28125 0.14062-0.46875-0.1875-0.60938-4.5469-2.0625-9.2812-3.75-9.2344-8.2031 0.046875-4.5 4.7344-6.6094 8.4375-4.9688 8.25 3.7969 16.688 6.7969 25.359 9.0469 11.391 2.9531 21.141 5.0625 29.25 6.4219 37.031 6 76.125 1.0312 112.64-11.062 8.3906-2.7188 17.812-6.7969 28.266-12.188 1.4062-0.65625 2.7188-0.9375 3.9375-0.75 0.60938 0.14062 0.9375-0.09375 0.98438-0.65625 0.70312-4.2656 2.9531-5.9531 6.75-5.0625 3.5625 0.75 4.2656 6.5625 4.5 9.75 0.1875 2.625 1.1719 6.2344 3.1406 10.734 4.9688 11.766 12.375 22.922 22.172 33.375 7.5 8.0156 15.375 12.75 25.688 15.75 3.3281 0.98438 5.0156 3 5.0625 5.9531 0 1.9688-0.75 3.5625-2.4375 4.6875-4.6406 3.0469-17.766-3.4688-21.562-6-0.1875-0.14062-0.32812-0.14062-0.51562 0-0.09375 0.046875-0.1875 0.1875-0.1875 0.375 0.14062 0.98438 0.5625 3.2344 1.5 6.6562 3.3281 13.031 7.875 25.5 13.688 37.5 3.7031 7.5 8.2031 14.25 13.641 20.344 0.23438 0.28125 0.5625 0.42188 0.98438 0.375 7.875-1.5 8.2031 4.6875 9.0938 11.156 1.7812 13.312 2.9062 26.203 3.2344 38.766 0 0.046875 0 0.14062 0.046875 0.14062 0.09375 0.046875 0.14062 0.046875 0.1875 0zm-84.047-174.28c-13.312 7.4531-27 13.312-41.016 17.625-41.531 12.656-84.609 14.625-127.03 4.5-6.9375-1.6875-14.156-3.6094-21.656-5.8125-0.375-0.09375-0.60938 0-0.75 0.32812-3.4688 6.75-8.4844 13.312-13.547 18.891-8.0625 8.6719-17.203 17.156-27.422 25.5-0.28125 0.1875-0.46875 0.42188-0.51562 0.75-3.6094 14.438-9.4219 28.406-17.484 41.906-0.89062 1.5 0.28125 3.9375 0.1875 5.3438-0.46875 5.1562 0.09375 14.859 1.7344 28.969 0.375 3.375 0.14062 7.2188-0.75 11.438-0.89062 4.4531-1.5 7.875-1.7344 10.312-4.3125 38.344-2.3438 76.594 5.8594 114.75 6.0469 27.938 15.609 53.812 28.734 77.719 29.812 54 83.953 97.922 149.21 81.047 45.188-11.766 79.875-50.062 101.06-89.672 8.8594-16.688 15.891-33.375 21.047-50.062 15.844-50.953 20.203-102.75 13.078-155.58-0.14062-0.79688-0.5625-1.2656-1.4531-1.3125-0.75-0.046875-1.6875-0.60938-2.7188-1.6875-7.5938-7.3594-13.969-16.547-19.078-27.609-8.4375-18.188-14.016-37.219-16.641-56.906-0.09375-1.0312-0.5625-2.0625-1.3125-2.8125-12.469-13.594-22.5-29.625-27.562-47.531-0.046875-0.14062-0.09375-0.14062-0.23438-0.09375zm83.203 218.58c7.9219-8.7656 17.719-14.297 29.344-16.688 4.0312-0.79688 10.688-1.2656 13.406 2.625 2.0625 3 0.42188 7.0781-2.8125 8.3906-0.75 0.28125-2.25 0.42188-4.5938 0.28125-3.6562-0.1875-7.7812 0.65625-12.234 2.3906-0.375 0.1875-0.42188 0.42188-0.23438 0.75 1.7812 2.8125 2.9062 4.9219 3.375 6.5156 3.2344 11.625 1.7344 22.031-4.5938 31.359-2.2969 3.4219-6.6094 7.6406-10.922 4.9219-4.2656-2.625-2.5781-6.9375 0.375-10.125 4.9219-5.4375 6.7031-12.234 5.2969-20.484-0.375-2.2969-1.2188-4.3594-2.5312-6.3281-0.46875-0.60938-0.9375-0.65625-1.5938-0.23438-4.5469 3.75-8.9062 8.3906-11.625 13.641-0.98438 1.9688-2.1562 4.125-3.5625 6.375-0.375 0.60938-0.5625 1.3125-0.65625 1.9688-2.2031 14.25-5.2031 28.266-9.1406 42.094-0.046875 0.28125 0 0.5625 0.375 0.65625 16.453 5.9531 32.016-0.98438 44.203-12.844 22.031-21.703 40.688-63 18.984-91.594-6-7.875-15.609-13.219-25.453-10.734-9.9844 2.5781-17.109 9.75-22.734 18.562-1.3125 2.0156-1.9219 3.7969-2.0156 5.4844-0.09375 7.5938-0.5625 15.188-1.2188 22.781-0.09375 0.1875 0 0.23438 0.1875 0.375 0.09375 0.046875 0.23438 0 0.375-0.14062zm-345.84 11.484c-0.46875-5.3438-0.79688-11.109-0.98438-17.344-0.14062-3.9375-0.98438-5.9531-3.1875-9.1406-13.312-19.312-38.016-25.875-52.453-2.9531-14.531 23.203-9.5625 54.375 5.3438 75.516 12.188 17.25 29.484 27.516 50.625 28.688 3.8438 0.23438 8.25-0.1875 13.125-1.1719 0.98438-0.1875 1.3594-0.84375 1.0312-1.8281-5.1562-16.875-9-34.453-11.344-52.547-0.09375-0.46875-0.1875-0.84375-0.375-1.2188-3.8438-6.8438-12-12.047-19.406-14.719-1.0312-0.375-1.7812-0.09375-2.3438 0.84375-4.3125 7.8281-5.25 19.828 1.3125 26.719 2.3438 2.4844 3.75 3.9844 4.125 4.3594 2.25 2.5781 2.2969 5.0156 0.23438 7.3594-2.4844 2.9531-6.1875 2.25-9.0469-0.23438-5.9531-5.25-9.4688-11.391-10.5-18.328-1.125-7.7344-0.1875-15.094 3-22.031 0.046875-0.28125 0.046875-0.46875-0.09375-0.65625-0.09375-0.1875-0.28125-0.23438-0.5625-0.23438-2.8594 0.375-5.4844 1.0781-7.9219 2.2031-1.8281 0.79688-3.1406 1.3125-3.9375 1.3594-6.5156 0.60938-8.8594-7.4531-3.5625-10.641 14.297-8.5312 33.938-3.4219 46.641 6.1875 0.046875 0.09375 0.09375 0.09375 0.23438 0 0.046875-0.046875 0.14062-0.09375 0.046875-0.1875zm92.062 192.84c0.1875 5.1094 0.46875 11.25 0.84375 18.375 0.23438 4.1719 0.23438 12.234 0.09375 24.188 0 0.1875 0 0.375-0.046875 0.5625l-0.79688 2.1562c-0.09375 0.14062-0.09375 0.28125-0.09375 0.46875 0.84375 26.719-1.7812 50.25-13.781 72.797-0.32812 0.5625-0.375 1.1719-0.28125 1.8281 9.1875 32.25 20.203 63.562 33.094 93.938 11.156 26.344 24.188 51.422 39.047 75.094 0.1875 0.28125 0.375 0.28125 0.5625 0 10.688-16.688 22.734-34.031 36.188-51.984 36.891-49.172 55.734-74.391 56.672-75.609 11.812-16.266 22.312-31.031 31.828-47.438 0.32812-0.65625 0.375-1.2656 0.046875-1.875-6.0938-14.062-10.688-30.656-13.969-43.969-4.0781-16.594-6.1875-33.797-6.2812-51.469-0.046875-5.7188 0.14062-13.781 0.375-24.281 0-0.1875-0.046875-0.375-0.23438-0.42188s-0.375-0.046875-0.51562 0.046875c-14.156 12-29.906 20.953-47.297 26.906-24 8.1094-48.234 8.6719-72.703 1.5938-15.797-4.5469-29.859-11.625-42.281-21.188-0.09375-0.046875-0.1875-0.046875-0.28125 0-0.09375 0.09375-0.1875 0.14062-0.1875 0.28125zm-16.547 94.734c0.046875-0.23438 0-0.375-0.32812-0.42188l-3.8438-0.14062c-0.28125-0.046875-0.375 0.046875-0.32812 0.375l1.6406 6.9375c0 0.14062 0.09375 0.23438 0.28125 0.23438 0.14062 0 0.28125-0.046875 0.32812-0.23438zm58.547 191.06c-17.062-29.016-31.406-58.828-43.031-89.578-12.844-33.609-23.625-66-30.656-98.859-0.046875-0.375-0.23438-0.42188-0.5625-0.23438-4.9219 3.1875-10.125 6.9375-15.609 11.25-13.547 10.734-27.328 22.969-41.203 36.75-4.7812 4.7812-9 9.2812-12.562 13.688-1.4062 1.6875-2.1094 3.375-2.0625 4.9688 0.1875 3.5156 0.51562 6.8438 0.89062 10.031 4.1719 34.172 6.4219 50.531 8.25 73.781 0.046875 0.46875 0.23438 0.51562 0.60938 0.32812 12.188-7.1719 22.781-12.797 34.875-16.828 15.703-5.25 28.641-2.8594 42.188 6.1875 21.188 14.156 40.453 31.969 58.781 48.562 0.046875 0.09375 0.09375 0.09375 0.09375 0 0.09375 0 0.09375-0.046875 0-0.046875zm54.703-30.562c14.766-11.484 30.562-22.312 47.391-30 12.609-5.7656 23.531-7.125 33.656 4.0781 3.375 3.6562 7.0312 8.1562 10.781 13.359 12.281 17.016 24.188 33.891 35.625 50.672 0.09375 0.1875 0.28125 0.28125 0.46875 0.1875 0.28125 0 0.375-0.09375 0.51562-0.28125 3.75-10.969 7.125-21.891 9.9844-32.906 7.0781-26.906 12.938-54.047 17.719-81.375 1.125-6.6094 1.9219-13.969 2.8125-22.312 0.1875-1.5469-0.14062-2.8125-0.89062-3.6562-5.0156-5.5781-10.359-11.062-16.172-16.406-12.703-11.625-25.5-23.062-38.531-34.312-0.09375-0.046875-0.1875-0.046875-0.28125-0.046875-0.14062 0.046875-0.14062 0.1875-0.1875 0.23438-0.14062 3.1875-0.84375 6.2812-2.0625 9.2812-2.0156 4.6875-4.8281 9.9844-8.3906 15.75-7.3125 11.812-15.938 24.422-25.828 37.969-11.109 15.141-26.297 35.531-45.609 60.938-8.5781 11.344-15.609 20.906-21.188 28.641-0.046875 0.046875-0.046875 0.14062 0 0.1875s0.14062 0.046875 0.1875 0zm167.06-70.453c-5.0625 28.078-11.016 55.078-17.953 81-3 11.531-6.2812 21.469-11.062 35.203-0.9375 2.6719-1.9688 4.9219-3.2344 6.7031-3.75 5.3438-9.8906 2.4844-12.938-1.875-11.766-16.969-22.547-32.344-32.297-46.219-6-8.4844-11.766-15.984-17.344-22.547-1.7812-2.2031-4.3125-3.7031-7.3594-4.5-0.60938-0.14062-1.2656-0.1875-1.875-0.046875-11.062 2.1562-21.984 8.8594-31.688 15.047-11.297 7.2656-22.641 15.375-33.938 24.328-5.8125 4.5938-11.203 9.375-17.625 12.797-0.89062 0.51562-1.5469 1.125-2.0625 2.0156l-12.562 19.922c-0.375 0.60938-0.60938 1.2656-0.60938 2.0156-0.46875 40.969 0.42188 83.906 1.7344 123.74 0.14062 3.8438 0.23438 11.344 0.42188 22.5 0.09375 5.8594 0.28125 13.359 0.46875 22.5 0 0.28125 0.1875 0.46875 0.5625 0.46875 4.5-0.23438 9.5625-0.28125 15.234-0.23438 8.8125 0.046875 8.4844 11.766-0.70312 11.859-13.969 0.28125-27.797 0.51562-41.484 0.89062-2.8594 0.046875-5.8125-0.1875-7.6875-2.25-2.0625-2.3906-1.6406-6.75 1.2656-8.4375 1.125-0.75 2.3438-1.125 3.8438-1.1719 3.75-0.28125 9.1875-0.375 16.266-0.46875 0.60938 0 0.98438-0.28125 0.98438-0.98438-0.5625-27.047-1.1719-52.875-1.875-77.484-0.84375-31.031-0.75-61.5 0.1875-91.594 0.09375-0.42188-0.09375-0.79688-0.46875-1.0312-5.5312-3.8438-11.156-8.1562-15.703-12.281-20.625-18.469-34.875-31.922-54.703-45.562-12.094-8.3438-21.188-11.438-34.406-6.9844-13.828 4.6406-28.266 12.562-39.844 19.922-0.375 0.28125-0.79688 0.46875-1.2188 0.5625-3.4688 0.9375-6.1875 0.28125-8.25-1.9688-1.125-1.3125-1.8281-4.2656-2.0625-8.8125-0.46875-8.9062-1.3125-18.844-2.625-29.719-1.7812-14.719-3.2812-27.281-4.5-37.734-0.09375-0.5625-0.375-0.70312-0.89062-0.51562-6.9844 2.5781-15.75 5.7188-26.203 9.3281-26.062 9-61.031 19.125-78.844 25.125-19.969 6.75-39.516 13.547-56.812 24.516-9.1406 5.7188-16.031 14.156-23.531 23.062-3.7969 4.5-7.0312 9.4219-9.8438 14.859-9.6562 18.75-15.844 36.984-23.25 59.391-11.719 35.156-20.531 73.172-26.156 108.75-4.5469 28.922-8.625 55.594-12.188 80.156-0.5625 4.0312-0.9375 6.5625-1.1719 7.6875-0.046875 0.375 0.046875 0.51562 0.42188 0.51562l857.58-3.9844c0.51562 0 0.75-0.28125 0.75-0.84375-0.79688-29.672-1.8281-54.656-2.9531-74.859-1.3125-22.453-3.2344-44.812-7.3594-67.641-3.2344-18.047-8.625-36.469-16.125-55.172-5.0156-12.422-10.734-23.766-17.25-33.938-9.7969-15.375-22.875-28.266-39.141-38.625-7.2188-4.5469-15.375-9.3281-24.422-14.109-13.547-7.2656-32.391-17.203-56.391-29.766-11.531-6-31.031-17.25-58.5-33.75-0.375-0.1875-0.5625-0.14062-0.60938 0.23438z"/>
 <path d="m704.29 125.63c1.0781 3.1875 1.3125 6.7969-2.0625 8.6719-3.1875 1.6875-6.5625-0.5625-7.5-3.6562-1.9219-6.2812-5.0625-11.531-9.375-15.703-3.75-3.7031-7.0312-6.9375-11.812-9.2344-2.625-1.2656-4.5469-2.3438-5.8594-3.1406-4.6875-3-3.5156-9.5156 2.0156-10.359 1.2188-0.1875 3.0469 0.23438 5.2969 1.3594 12.984 6.1875 24.797 17.859 29.297 32.062z"/>
 <path d="m489.71 111.52c4.4062 1.2188 11.109 2.8594 10.969 7.7812-0.09375 4.4531-4.3125 5.9531-8.1094 4.5-1.5-0.60938-3.4219-1.1719-5.7656-1.7812-2.2969-0.70312-4.2188-1.125-5.8594-1.4531-4.0781-0.70312-6.7969-4.125-4.6875-8.0156 2.4375-4.3125 9.0469-2.25 13.453-1.0312z"/>
 <path d="m673.82 133.08c3.9375 0.046875 6.6094 4.4062 4.0312 8.0625-0.84375 1.1719-2.7188 2.625-5.625 4.3125-12.094 7.0312-26.109 10.312-40.875 12.562-30.844 4.6875-65.719-1.4531-95.438-11.25-3.75-1.2656-6.0469-1.7812-7.5469-4.7812-0.60938-1.3125-0.60938-2.625-0.046875-3.9844 1.875-4.6406 6.0469-4.0781 10.359-2.6719 17.859 5.625 36.047 9.8438 54.328 11.672 20.062 2.0156 38.625 0.375 57.469-4.3594 6.1875-1.5938 11.719-3.8438 16.688-6.75 3.1875-1.875 5.3906-2.8125 6.6562-2.8125z"/>
 <path d="m473.29 170.02c-5.6719 0.375-8.8594 1.9219-13.219 4.5-0.32812 0.1875-0.65625 0.23438-0.9375 0.28125-6.3281 1.2656-9.0938-5.5312-4.2188-9.6562 4.8281-4.0312 11.531-5.7188 17.625-6.1406 6.1406-0.375 12.938 0.32812 18.281 3.5625 5.4375 3.375 3.6562 10.547-2.7656 10.172-0.32812 0-0.60938-0.046875-0.9375-0.1875-4.7344-1.875-8.1094-3-13.828-2.5312z"/>
 <path d="m801.79 205.74c0.75 3.0938-1.5469 5.7188-4.3125 7.2188-17.812 9.6562-35.672 0.5625-49.547-11.062-7.3125-6.0938-14.438-14.25-17.109-23.438-0.75-2.4375-0.65625-4.5 0.375-6.0938 2.1562-3.5625 7.4062-2.8594 8.8594 0.89062 2.2969 6.0469 5.5781 11.203 9.7969 15.328 9.375 9.2344 26.953 21.562 40.453 14.672 4.5-2.25 9.9375-3.75 11.484 2.4844z"/>
 <path d="m450.42 225.56c-4.875 3.7031-8.8594 7.6406-13.359 11.953-2.8594 2.6719-7.3594 2.0625-8.8125-1.9688-1.3125-3.6094 2.2031-7.125 4.8281-9.5625 3.9375-3.75 7.5469-6.7969 10.734-9.2344 3.2344-2.4375 7.1719-5.0156 11.812-7.8281 3.0469-1.7812 7.3594-4.2188 10.5-2.0625 3.5156 2.5312 2.8594 7.0781-0.51562 9-5.4375 3.1875-10.312 6-15.188 9.7031z"/>
 <path d="m788.48 246.42 16.312 0.46875c1.4531 0.046875 2.625 0.5625 3.5625 1.5938 1.0312 1.0312 1.4531 2.2031 1.4062 3.6562v0.42188c0 1.3594-0.5625 2.5781-1.5938 3.5625-0.98438 0.9375-2.25 1.4531-3.6094 1.3594l-16.359-0.42188c-1.4062 0-2.5781-0.5625-3.5625-1.5469-0.9375-1.0312-1.4531-2.25-1.4062-3.6562v-0.46875c0.09375-1.4062 0.5625-2.5781 1.6406-3.5156 0.98438-0.98438 2.2031-1.4531 3.6094-1.4531z"/>
 <path d="m648.79 298.26c-5.3438-0.9375-6.4219-8.1562-1.9219-11.531 16.078-11.906 37.922-12.047 56.859-6 10.594 3.375 19.125 6.9375 25.594 10.688 5.4375 3.0938 4.125 11.203-2.625 11.578-0.28125 0.046875-0.51562 0-0.70312 0-19.547-3.9844-39.938-5.7656-61.172-5.2969-5.5781 0.09375-11.25 1.3594-16.031 0.5625z"/>
 <path d="m571.36 291.37c4.5 4.1719 0.9375 10.359-4.5469 10.547-9.4219 0.32812-16.125 0.5625-19.922 0.89062-21.375 1.6875-41.812 6.375-61.312 14.203-7.5 3-11.25-6.5625-5.625-10.875 12-9.1875 23.625-16.266 34.781-21.188 17.25-7.5938 36.75-3.9375 53.203 4.1719 1.5 0.75 2.625 1.5 3.4219 2.25z"/>
 <path d="m697.92 347.95c6.6562 8.625 8.0625 17.625 4.2656 27.094-1.5469 4.0312-4.3125 7.0312-8.2031 9-9.0469 4.7812-18.375-1.0312-22.547-9.5625-3.0469-6.0469-3.5625-12.469-1.6406-19.219 0-0.09375 0-0.1875-0.09375-0.1875-0.09375-0.09375-0.1875-0.09375-0.28125 0-3.0469 2.3438-6.1875 4.9688-9.6094 1.5-4.2656-4.4062 1.9219-9.5156 5.625-11.953 10.266-6.8906 21.891-9.7031 34.875-8.3906 3.1875 0.32812 6 0.9375 8.4375 1.9688 6.9375 2.8594 3.4219 12.562-3.4219 10.734-2.25-0.5625-4.5938-1.125-7.0312-1.5469-0.1875-0.09375-0.28125 0-0.375 0.1875-0.046875 0.09375-0.046875 0.23438 0 0.375z"/>
 <path d="m543.89 358.5c0.28125 0.89062 0.60938 2.4844 1.0312 4.875 1.4531 8.8594-1.7812 19.5-10.219 23.812-7.6875 3.9844-16.078 0.42188-20.719-6.5156-4.7344-7.0312-4.875-13.922-3.4688-22.172 0.046875-0.14062 0-0.23438-0.14062-0.375-0.14062-0.046875-0.23438-0.046875-0.375 0-2.25 0.98438-4.4531 2.0625-6.5625 3.1875-3.5156 1.875-6.8906 2.8125-9.5625-0.1875-2.25-2.4844-1.6406-6.8906 1.0781-8.4844 9.6562-5.7188 21.75-10.078 32.719-9.6562 10.266 0.32812 19.641 3.6562 28.266 9.75 6.3281 4.5938 0.89062 12.891-5.7656 8.9062-3.6562-2.25-5.6719-3.4688-5.9062-3.5156-0.14062-0.046875-0.28125 0-0.32812 0.046875-0.14062 0.14062-0.14062 0.1875-0.046875 0.32812z"/>
 <path d="m597.42 396.71c0.375-6.75 9.5156-6.8906 10.406 0 0.28125 2.3438 0.28125 5.3438 0 8.9062-1.4531 15.094-3.4688 30.516-6.0938 46.266-1.4062 8.625-4.0312 19.453-7.7812 32.438-0.375 1.3125 0 2.5781 1.1719 3.7031 4.875 4.7812 11.578 9.2812 20.062 13.594 3.1406 1.5938 4.7344 6.2812 1.875 9.0938-3.3281 3.2812-7.9219 1.125-11.578-0.89062-8.25-4.4531-14.906-9.5156-19.969-15.047-3.3281-3.6562-4.2656-8.0625-2.9062-13.5 2.1562-8.1562 5.7656-20.906 7.6875-32.062 3.4688-19.312 6.2812-34.875 7.125-52.5z"/>
 <path d="m585.98 545.29c-0.65625-2.8125 0.14062-5.0625 2.4375-6.6094 0.9375-0.60938 3.2812-0.79688 6.8906-0.42188 14.766 1.3125 29.062-1.4062 42.891-8.2031 1.4062-0.75 3.2344-2.2031 5.4844-4.4531 1.5469-1.5938 2.6719-2.5312 3.4219-2.8594 3.5156-1.4531 7.2656 0.51562 7.7812 4.2656 1.0312 7.1719-11.062 13.781-17.391 16.312-12.938 5.1562-26.062 7.5469-39.422 7.0312-4.0781-0.09375-8.9062-0.42188-11.531-3.7969-0.23438-0.375-0.46875-0.79688-0.5625-1.2656z"/>
 <path d="m617.95 921.32c3.7969 0.09375 6.9375 1.9688 9.4688 5.5312 2.5781 3.5156 3.75 7.7812 3.5625 12.656-0.1875 4.7812-1.6875 8.9062-4.5 12.281-2.8125 3.3281-6.0938 4.875-9.9375 4.7812-3.75-0.14062-6.9375-2.0156-9.4688-5.5312-2.5312-3.5625-3.7031-7.7344-3.5156-12.609s1.6875-9 4.5-12.328c2.8125-3.375 6.0469-4.9219 9.8906-4.7812z"/>
 <path d="m618.89 1014.1c9.2344-0.32812 12.047 10.547 12.281 18.562 0.28125 7.9219-1.9219 18.938-11.156 19.172-9.2812 0.32812-12.141-10.547-12.375-18.516-0.28125-7.9219 1.9688-18.984 11.25-19.219z"/>
</svg>
