<?xml version="1.0" encoding="UTF-8"?>
<svg width="1200pt" height="1200pt" version="1.1" viewBox="0 0 1200 1200" xmlns="http://www.w3.org/2000/svg">
 <path d="m851.68 1018.1c-0.84375 0.28125-1.125 0.79688-0.9375 1.5938 1.2656 4.4531 2.3906 9.375 3.375 14.906 1.7812 9.6562 2.625 14.531 2.625 14.625 3.0938 14.484 6.8438 33.984 11.391 58.359 2.625 14.016 3.9844 21.797 4.2656 23.438 0.60938 4.5469 0.1875 8.0625-1.2188 10.5-1.3125 2.25-3.2812 3.7031-6.0469 4.3594-5.8594 1.4062-11.578 2.9062-17.016 2.9062-214.36 0.046875-432.79 0.046875-655.22 0-4.4531 0-8.25-0.65625-11.438-1.9688-3.1875-1.2188-4.875-4.3125-6.5156-7.4062-2.5781-5.1562-3.5156-10.5-2.6719-16.125 1.5-10.312 2.1094-19.406 1.9219-27.141-0.046875-5.0625 0.046875-9.5625 0.42188-13.641 0.65625-6.4219 0.75-15.984 1.8281-23.812 0.51562-3.6562 1.4531-8.9062 1.5469-13.547 0.1875-8.3906 1.0781-16.922 2.5312-25.688 0.60938-3.7969 1.1719-8.0625 1.5938-12.703 0.46875-4.5469 1.0312-11.484 2.0625-16.781 0.75-3.5156 1.4531-8.0625 2.1562-13.688 0.375-3.1406 1.125-7.6875 2.1562-13.781 2.9062-15.844 6.1875-31.547 10.078-46.922 4.3125-17.203 9.8906-34.312 16.688-51.375 12.234-30.562 30.047-57.797 54.797-79.641 12.516-10.969 27.328-21.281 44.531-30.797 19.547-10.828 40.172-19.734 61.734-26.766 11.391-3.75 22.453-6.8438 33.188-9.4219 3.4219-0.79688 7.3125-1.4531 11.672-1.9219 1.4531-0.14062 2.0156-0.9375 1.6875-2.3906-0.65625-3.4219-1.125-6.4219-1.3125-8.8594-0.9375-11.766-1.5469-23.062-1.7812-33.891-0.09375-1.1719-0.70312-1.9219-1.875-2.0625-6.5625-0.75-11.953-1.6875-16.266-2.8125-9.75-2.5781-19.453-6.375-29.062-11.438-6.9375-3.6094-13.453-8.0156-19.641-13.172-10.922-9.1406-19.922-18.656-26.906-28.5-9.9375-13.875-17.766-28.828-23.531-44.719-1.6875-4.6875-3.375-9.6094-5.0625-14.906-2.6719-8.0625-4.3594-14.391-5.1562-18.891-1.6875-9.5156-4.2188-18.938-4.9688-29.203-0.375-5.625-0.75-9.375-1.0312-11.344-0.70312-4.7812-1.125-8.5312-1.2656-11.344-0.98438-17.672-0.60938-34.594 1.0781-50.812 0.75-7.3594 1.1719-13.312 1.2188-17.719 0.14062-6.2812 0.89062-12.75 2.2031-19.641 0.32812-1.3594-0.23438-2.1094-1.6875-2.2969-6.5625-0.65625-10.547-3.6562-16.266-8.9531-7.4062-6.9375-15.234-14.672-21.234-22.688-9.7969-12.938-17.391-24.516-22.688-34.641-10.641-20.156-17.578-41.531-20.812-63.984-2.1094-14.391-1.7344-29.109 1.0781-44.109 5.5312-29.625 19.922-53.578 43.125-71.906 11.531-9.1875 24.422-16.172 38.625-21.047 5.8125-2.0156 11.109-3.4219 16.031-4.3594 7.2656-1.3125 12.75-2.25 16.5-2.7188 6.75-0.84375 14.25-0.65625 22.453 0.51562 6.7031 0.98438 14.25 2.5781 22.828 4.7344 0.84375 0.28125 1.5469 0 2.1562-0.60938 2.4375-2.8125 4.5-5.4844 7.4062-7.8281 3.0469-2.4844 6-4.9688 8.8125-7.5469 1.9219-1.7344 4.9688-4.0781 9.0938-6.9844 20.062-14.016 40.312-24.938 60.891-32.812 12.609-4.8281 27.422-8.9062 44.484-12.094 3.5625-0.65625 8.7656-1.1719 15.562-1.4062 4.8281-0.28125 10.031-0.65625 15.562-1.125 3.8438-0.375 8.9531-0.28125 15.469 0.28125 1.875 0.1875 6.6094 0.51562 14.25 0.9375 5.25 0.32812 9.9844 0.84375 14.156 1.5 19.828 3.1406 38.156 8.2031 54.891 15.328 5.9531 2.4844 12.234 5.4844 18.984 8.9531 7.0781 3.5625 13.219 6.9844 18.188 10.172 31.453 19.922 57 45.375 76.594 76.172 2.0625 3.2812 4.7812 7.6875 8.1562 13.312s6.8438 12.656 10.266 20.953c0.5625 1.3125 2.0156 1.8281 4.2656 1.3594 5.8594-1.1719 10.547-1.5 13.969-1.0312 2.2031 0.375 5.7188 0.75 10.453 1.125 3.6094 0.28125 7.0781 0.9375 10.359 1.7344 6.1875 1.5469 11.344 3 15.375 4.3125 24.938 7.9219 47.016 21.422 66.188 40.547 17.156 17.016 31.125 35.906 42.188 56.531 1.2188 2.25 3.1406 6.1875 5.8125 11.812 2.2031 4.5 3.9375 8.4844 5.25 12.047 5.3906 13.922 9.2812 28.312 11.625 42.984 1.0781 6.7031 2.0625 13.078 2.9062 19.266 0.79688 5.9531 1.1719 12.375 1.1719 19.266 0 13.359 0.5625 22.781-0.79688 33.609-0.70312 5.6719-0.89062 10.453-1.875 17.062-1.0312 6.4219-1.5938 13.688-2.7188 20.297-2.9062 17.156-7.3594 35.438-13.312 54.938-1.5 5.0156-4.2188 13.031-8.1562 23.953-2.625 7.1719-5.5781 16.266-8.8125 27.047-0.09375 0.28125-0.84375 4.0781-2.2031 11.344-0.89062 4.6875-0.98438 8.4844-0.42188 11.438 1.2188 6.5625 3.1875 11.812 5.8594 15.797 3.1875 4.6875 7.6406 10.266 13.312 16.641 6.5156 7.3125 10.828 12.422 12.984 15.375 9.3281 12.375 14.906 19.969 16.688 22.875 5.25 8.1562 9.8906 19.359 14.016 33.375 0.98438 3.2812 2.4844 11.297 4.5469 24 0.75 4.3594 0.9375 11.672 0.65625 21.938-0.1875 6.75-1.7812 12.656-2.625 19.875-0.28125 2.2969-0.84375 4.9219-1.5938 7.7812-4.3125 15.562-10.688 30.141-19.031 43.688-11.438 18.281-18.938 30.938-22.688 37.969-3.5625 6.6562-5.9531 11.719-7.125 15-0.70312 1.9219-1.4531 5.1094-2.3438 9.5625-0.75 3.8438-0.84375 7.125-0.375 9.6562 1.0781 5.0625 2.5781 9.1875 4.5938 12.281 4.3594 6.7969 10.547 12.234 18.562 16.359 6.4688 3.375 11.719 5.7656 15.75 7.0781 7.9219 2.625 16.781 4.7344 26.484 6.4688 7.125 1.2656 13.828 0.9375 22.688 1.0781 2.8125 0 6.9375 0.79688 9.1406 3.1406 6.375 6.8438 4.875 14.812-0.09375 21.938-3.0938 4.5469-6.9375 8.9062-11.438 13.125-10.734 9.9844-23.484 18.844-38.25 26.625-10.312 5.3438-21.281 9.6562-32.859 12.844-3.9844 1.0781-9 1.875-15.047 2.3906-3.6562 0.23438-8.7188 0.79688-15.281 1.5469-0.5625 0.09375-3.8438 0.14062-9.9375 0.09375-6.9844 0-13.5-1.3125-19.922-1.6406-9.6094-0.42188-18.234-3.5156-26.953-7.7344-0.75-0.375-1.3125-0.51562-1.6875-0.375zm-271.31-465.56c3.4688-1.4531 6.5156-1.7812 9.1875-0.89062 0.9375 0.32812 3.1875 1.7344 6.7031 4.3594 6.75 4.9688 14.672 6.6562 23.812 4.875 14.25-2.6719 27.938-11.25 38.062-21.469 11.391-11.438 19.828-24.188 25.266-38.203 2.1562-5.625 3.1875-11.062 4.5938-17.812 0.5625-2.8594 0.65625-5.8125 0.09375-8.6719-0.89063-4.6875-1.8281-8.4375-2.9531-11.203-3.7031-9.5625-10.359-15.703-20.016-18.422-6.5625-1.8281-14.344-0.1875-20.484 2.1094-14.766 5.7656-25.125 15.984-31.078 30.797-0.60938 1.4531-1.3125 3.8906-2.1562 7.2656-0.9375 3.5156-1.8281 5.8125-2.7656 6.9844-2.0156 2.5781-5.0625 3.4688-9.0469 2.7188-5.0156-1.0312-7.6875-3.8906-7.9688-8.625-0.1875-3.0938 0.09375-5.9531 0.89062-8.7188 4.125-14.812 12.047-27.188 23.812-37.125 2.0625-1.7344 3.9844-3.2812 5.7656-4.5938 1.3594-1.0312 1.7344-2.25 1.1719-3.8438-2.25-6.4219-6.1406-17.109-11.672-32.062-3.375-9.1875-9.6562-22.547-18.703-40.219-5.9531-11.531-14.578-25.312-25.828-41.438-3.2812-4.7812-7.0312-9.5625-11.297-14.391-1.6875-2.0156-5.8125-6.7031-12.375-14.062-11.391-12.891-24.047-24.188-38.062-33.797-0.70312-0.5625-1.3594-0.51562-2.0625 0.046875-1.0781 0.89062-2.0156 1.8281-2.8125 2.8125-7.875 9.9844-13.875 21.328-17.953 33.984-3 9.2812-4.7812 16.688-5.4844 22.312-1.3594 11.156-2.3906 18.516-3 22.219-1.0781 6-1.6406 12.422-1.6406 19.219-0.046876 15.328 0.14062 26.719 0.46875 34.219 0.23437 5.2969-0.65625 11.906-6.4688 13.969-2.4844 0.89062-5.0625 1.3125-7.6875 1.2656-14.109-0.14062-21.656-0.1875-22.688-0.23438-4.125-0.14062-9.4219-0.89062-15.938-2.2031-17.719-3.5625-31.969-6.8906-42.75-9.8906-9.8438-2.7188-18.562-5.7188-26.156-8.8594-12.281-5.1094-23.203-12.234-32.906-21.328-0.375-0.28125-0.75-0.42188-1.1719-0.23438-0.42187 0.1875-0.60937 0.51562-0.70312 0.9375-0.5625 5.625-1.2188 10.312-2.1094 14.109-1.9219 8.3438-2.7656 20.391-4.3125 27.938-0.89062 4.125-1.2656 8.7656-1.2656 13.875 0 0.51562-0.28125 6-0.98438 16.641-1.1719 18-0.98437 37.547 0.5625 58.828 0.375 5.4375 1.0781 10.5 2.0625 15.375 0.42188 2.25 1.4531 7.3125 3 15.188 3.8906 20.344 11.203 40.125 21.75 59.438 4.1719 7.5469 8.6719 14.156 13.359 19.875 6.3281 7.5469 12.375 13.594 18.094 18.234 14.672 11.812 31.875 19.453 51.656 22.828 1.5938 0.23438 6.8906 0.75 15.938 1.3594 4.8281 0.375 9.375 0.32812 13.688-0.046875 5.1562-0.51562 9.7031-1.0312 13.688-1.5938 9.5156-1.3594 18.094-4.125 25.781-8.25 6.5625-3.6094 10.125-5.4844 10.594-5.7188 5.0625-2.625 9.5156-2.3438 13.219 0.79688 4.125 3.5156 4.875 9.1875 1.5469 13.547-2.0156 2.625-3.9844 4.5938-6.0469 5.9062-9.7031 6.2344-20.156 10.688-31.266 13.219-11.297 2.625-22.453 4.5938-34.172 4.125-1.0781-0.046875-1.5938 0.46875-1.5 1.5 0.09375 4.2656 0.42187 8.1562 0.9375 11.766 0.79687 5.7656 0.42187 12.328 0.75 17.625 0.09375 2.0156 0.79687 3.375 3.0469 3.8906 1.125 0.1875 2.9531 0.84375 5.4844 1.9219 3.5156 1.5 9.375 3.7969 17.625 6.7969 6.0938 2.2031 11.766 3.7031 17.062 4.5938 7.8281 1.1719 13.688 1.7344 17.625 1.6875 8.8125-0.14062 17.625-1.4531 26.438-4.0312 8.4375-2.3438 17.812-6.6562 28.078-12.984 0.98438-0.5625 2.0156-1.6875 3.1406-3.375 0.23437-0.32812 0.28125-0.75 0.1875-1.125-1.5938-5.9531-2.7188-13.828-3.3281-23.625-0.23437-4.125-0.23437-7.4531 0-9.9844 0.375-3.8438 0.60938-7.125 0.60938-10.031 0.09375-4.5469 0.5625-9.4688 1.5938-14.859 0.46875-2.4375 0.98437-6.5156 1.5-12.234 0.28125-3.1406 0.9375-7.2188 1.9219-12.094 2.625-13.547 5.3906-25.547 8.0625-36.047 2.3906-9.1406 4.8281-17.016 7.3125-23.625 0.60938-1.6406 1.5469-2.6719 2.6719-3.2344zm141.74 203.68c1.7812 1.125 2.8125 2.625 4.3125 3.3281 0.51562 0.23438 0.9375 0.1875 1.4062-0.09375 0.42188-0.28125 0.60938-0.65625 0.60938-1.1719-0.1875-6.7969-2.4844-12.422-6.9844-16.828-3.8906-3.7969-9.4688-7.2188-16.688-10.359-6.4688-2.7656-16.688-6.9375-30.844-12.562-1.5469-0.60938-3.6562-1.5469-6.2812-2.8125-5.0156-2.4375-10.969-5.0156-14.906-7.7344-9.6094-6.7031-18.047-14.625-25.219-23.953-3.3281-4.3125-6.2812-9.3281-8.7656-15.047-3.2344-7.5-5.25-13.031-6-16.594-1.1719-5.7188-2.2969-10.781-3.375-15.188-1.5-6.2344-1.875-12.562-1.9219-18.188-0.09375-1.5-0.84375-2.25-2.3438-2.3438l-20.672-0.84375c-1.3125-0.046875-2.0625 0.5625-2.25 1.9688-1.2656 12.188-2.4844 22.219-3.7031 30.094-0.5625 3.8438-0.84375 7.9688-0.9375 12.328-0.046875 9.4219-0.28125 16.172 1.2656 24.375 0.51562 2.625 1.1719 6.6094 2.0625 11.953 0.70312 3.8438 1.7344 7.4062 2.8125 10.969 0.375 1.125 1.125 1.7812 2.2969 1.9688 12.891 1.9219 23.578 3.9844 32.062 6.1875 1.875 0.42188 4.3125 0.79688 7.4062 1.0312 2.625 0.1875 5.1094 0.84375 7.4062 1.9688 2.5312 1.125 4.8281 2.0625 6.8906 2.625 11.859 3.4688 19.312 5.6719 22.266 6.6562 21.281 7.0312 41.344 16.453 60.094 28.266zm-223.31 292.13c-4.7812 11.25-16.922 10.828-22.172 0.375-3.3281-6.6094-6.7031-14.578-10.125-23.812-4.3125-11.438-6.4219-17.25-6.4219-17.297-1.125-3.3281-11.25-29.156-30.375-77.438-16.078-40.641-28.875-73.219-38.344-97.641-6.6562-17.297-14.484-38.766-23.531-64.359-1.0312-2.9531-1.6406-4.875-1.875-5.9062-0.46875-2.25-1.0312-4.1719-1.6875-6-0.5625-1.5-1.6406-1.9688-3.1875-1.5-1.7812 0.5625-3.9375 1.4531-6.6562 2.625-22.547 9.7031-43.781 22.406-63.75 37.969-2.25 1.7344-3.8438 3.4219-4.7812 5.1094-0.28125 0.32813-0.28125 0.70313-0.14062 1.125 6.3281 20.484 15.609 50.953 27.938 91.359 0 0.09375 0.75 2.7656 2.2031 8.0156 1.0312 3.75 2.4375 7.5469 4.0312 11.438 1.875 4.2656 2.4375 7.7344 2.4375 12.234 0.09375 70.266 0.09375 137.02 0 200.26 0 1.0781 0.5625 1.6406 1.6875 1.6406h380.26c1.2188 0 1.7812-0.5625 1.7812-1.7344-0.1875-5.4375-0.46875-10.875-0.84375-16.453-0.46875-8.625-0.79688-14.062-0.79688-16.453v-13.312c0-3.375-0.32812-7.7812-0.89062-13.219-1.3125-11.906-2.0625-23.953-2.25-36.188-0.046875-3.1406-0.75-6.8438-0.75-10.031 0.09375-7.9688 0.09375-19.547-1.125-30.375-1.125-10.594-1.7812-21.844-1.9688-33.844 0-2.9531-0.70312-6.9375-0.70312-10.406-0.046875-4.7344-0.14062-11.625-0.23438-20.438-0.09375-2.6719-0.28125-4.875-0.65625-6.6094-0.60938-2.625-1.7812-7.5469-0.84375-10.641 2.0625-6.4219 4.3594-12.938 5.7188-19.172 6.8906-32.203 12.562-58.828 17.062-79.875 2.2031-10.125 3.7031-17.438 4.5-22.078 0.375-1.875 0.1875-3.75-1.1719-4.6875-19.266-13.359-40.125-24.094-62.578-32.25-1.7344-0.60938-8.5312-2.8125-20.344-6.375-0.09375-0.046875-0.89062-0.375-2.4375-1.0312-2.0625-0.89062-3.8438-0.14062-5.3438 2.25-4.2188 6.9375-8.4844 13.875-12.75 20.859-4.0312 6.7969-12 22.547-23.672 47.297-10.734 22.641-25.641 56.25-44.672 100.88-14.719 34.406-29.25 72.656-43.688 114.84-1.6406 4.7812-4.2188 14.625-6.8438 20.859z"/>
 <path d="m545.86 383.44c-7.125-5.8594-14.906-9.5156-24.188-11.438-7.7812-1.6406-16.875-2.5781-27.188-2.6719-4.2188-0.09375-10.5-1.3125-11.531-6.3281-0.89062-3.8906-0.375-7.4531 1.4062-10.734 0.1875-0.375 0.46875-0.65625 0.89062-0.84375 2.7656-1.1719 5.2969-1.7812 7.6406-1.875 1.9219 0 5.6719 0 11.25 0.09375 4.3594 0 8.1094 0.23438 11.156 0.65625 7.0312 1.0312 13.969 2.5781 20.812 4.6875 9 2.7656 16.781 6.9375 23.438 12.703 5.3438 4.5 8.5312 11.812 3.0938 17.625-2.5781 2.7656-6.1875 3.4219-10.969 2.0625-0.98438-0.23438-2.9062-1.5469-5.8125-3.9375z"/>
 <path d="m358.82 468.94c-7.4531-2.625-11.203-8.4844-13.453-15.891-1.2656-4.1719-2.0625-7.7344-2.2969-10.5-0.75-9 1.875-19.547 8.1094-25.922 3.1406-3.1875 6.6094-4.875 10.5-5.0625 5.4844-0.1875 9.9844 1.9219 13.453 6.5156 3.0469 4.125 5.3438 8.1094 6.9375 12 4.3125 10.922 3.5625 21.234-2.1562 30.75-4.3125 7.125-12.844 11.062-21.094 8.1094zm6-24.891c0.5625-1.1719 0.28125-2.1094-0.65625-2.8125-0.42188-0.375-0.75-0.23438-0.75 0.375-0.09375 1.0312 0.1875 1.875 0.9375 2.5312 0.1875 0.1875 0.375 0.09375 0.46875-0.09375z"/>
 <path d="m514.92 421.92c4.5938 6.1875 6.8906 12.375 7.0312 18.516 0.09375 4.7344 0.28125 10.547-1.7812 14.859-4.5938 9.8438-15.75 17.156-25.969 9.4688-3.9375-3-6.5156-6.7031-7.6406-11.062-2.4844-9.3281-2.3906-18.562 0.32812-27.703 0.75-2.4844 2.0625-4.6875 3.7969-6.6094 3.8906-4.0781 12.516-5.3906 17.25-3.4688 2.4375 0.9375 4.8281 3 6.9844 6z"/>
 <path d="m422.11 510.89c-0.98438 4.5-2.4844 12.281 2.9062 14.906 2.8594 1.4531 6.4688 2.7656 10.875 4.0781 2.5312 0.75 4.7344 2.4375 5.625 5.1094 1.5 4.4062 0.79688 11.016-4.2188 13.031-2.6719 0.98438-5.4375 1.3125-8.25 0.9375-3.4219-0.51562-7.4062-1.875-12.094-4.0312-10.641-4.875-16.125-13.312-16.594-25.172-0.09375-3 0.46875-6.9844 1.6406-12.047 3.1875-13.312 6.1406-24.141 8.8125-32.438 1.6875-5.3438 3.0469-8.8125 4.125-10.5 2.25-3.75 11.438-3.8438 14.203-1.0312 5.6719 5.7656 1.5 13.266-0.1875 19.594-2.625 10.125-4.9688 19.312-6.8438 27.562z"/>
 <path d="m636.61 500.48c-0.42188 0.89062-1.125 2.3906-2.0625 4.4531-2.6719 5.9531-7.1719 7.875-13.5 5.7656-3.7969-1.2656-5.7188-3.9375-5.8594-8.0625-0.046875-3.5625 0.79688-6.3281 2.6719-9.7031 3.5156-6 9.0938-11.203 16.781-15.516 8.1094-4.5469 21.844-8.3438 30.188-2.4844 1.875 1.3594 2.8594 3.3281 3.0938 5.9531 0.32812 3.9844-0.46875 8.625-4.7344 9.75-0.98438 0.23438-2.5781 0.60938-4.6875 1.0312-1.3125 0.28125-1.7344 1.0781-1.2656 2.3438 0.5625 1.5469 0.9375 3.1875 1.0781 4.7812 0.42188 6.3281 0.046875 12.094-0.98438 17.203-2.3906 10.922-9.8906 21.891-20.25 26.812-2.625 1.2656-4.9688 1.6406-7.0781 1.2656-3.5625-0.70312-5.7656-2.1562-6.5625-4.3125-1.1719-2.9062-1.5-5.7188-0.9375-8.3438 1.0781-4.9219 7.9219-7.3594 11.016-11.625 2.9062-3.9844 4.5938-8.6719 4.9688-14.109 0.14062-2.3906-0.1875-4.1719-1.0312-5.25-0.32812-0.42188-0.5625-0.375-0.84375 0.046875z"/>
 <path d="m452.29 576.89c7.4062-1.2656 14.531-5.3906 19.641-10.453 4.125-4.0781 6.75-9.5625 9.7031-14.953 1.7344-3.2344 4.875-4.5938 9.4219-4.125 2.9531 0.28125 4.9219 0.375 6.3281 3 3.7969 7.0781 2.1562 12-1.6875 18.516-6.6562 10.922-16.031 19.125-28.219 24.562-4.2188 1.875-7.9219 3-11.109 3.3281-9.0469 0.79688-16.453 0.9375-22.266 0.1875-4.3594-0.5625-7.5-2.9062-9.4219-7.0781-0.60938-1.4531-0.75-2.8125-0.375-4.2656 1.3594-4.875 4.7344-7.5 10.125-7.875 1.9219-0.09375 5.4844-0.09375 10.688-0.046875 1.1719 0 3.5625-0.23438 7.1719-0.79688z"/>
</svg>
