<?xml version="1.0" encoding="UTF-8"?>
<svg width="1200pt" height="1200pt" version="1.1" viewBox="0 0 1200 1200" xmlns="http://www.w3.org/2000/svg">
 <path d="m336.74 479.02c-1.3594 2.0625-3.0469 5.25-5.1094 9.5625-0.9375 1.9688-4.5 8.1562-10.781 18.469-1.9219 3.2812-5.8594 9.1875-11.859 17.906-4.0781 5.8594-8.7656 12.938-14.016 21.094-8.7188 13.594-14.484 28.312-17.344 44.156-1.5938 8.9062 0.046876 20.531 6.6094 27.609 2.625 2.8125 6.1406 5.6719 10.547 8.625 4.6406 3.1406 10.828 7.125 18.516 12 2.9531 1.8281 7.6875 7.5469 6.6094 11.766-1.9219 7.3125-9.5625 9.7969-16.125 7.4062-2.8594-1.0312-5.7188-2.4844-8.6719-4.3125-7.6406-4.875-15.328-9.6562-21.328-14.531-10.922-8.9531-16.922-20.203-18.047-33.891-0.98438-12.984 0.60937-25.688 4.9219-38.203 2.7188-7.7812 5.3906-14.297 8.1562-19.5 4.3594-8.1562 9.2344-16.172 14.719-23.906 7.6406-10.828 12.938-18.469 16.031-22.969 5.9062-8.6719 11.109-17.812 15.562-27.375 4.0312-8.8594 6.5625-15.609 7.5-20.109 1.125-5.8594 2.1562-11.484 3.0938-16.875 0.84375-4.7344 1.2188-9.8906 1.0781-15.516-0.046876-2.9062-0.98438-5.1094-2.8125-6.5625-19.078-15.188-31.734-34.125-38.016-56.812-1.5469-5.4844-2.5312-10.594-3.0469-15.234-0.375-3.3281-0.79688-6.75-1.4531-10.266-0.42187-2.4375-0.75-5.8594-0.98437-10.312-0.51563-11.062-0.375-19.594 0.51562-25.688 1.0312-7.9688 1.7812-13.594 2.1562-16.781 0.65625-5.8125 1.6875-11.438 3-16.781 4.6875-18 10.031-33.047 15.938-45.094 12.703-25.688 29.812-47.203 51.281-64.5 8.4844-6.8438 18.844-13.312 31.031-19.406 13.125-6.5625 25.641-10.875 37.688-12.938 4.8281-0.79688 10.031-1.0312 15.656-0.65625 1.6875 0.046875 3.375-0.375 5.1094-1.4531 10.312-6.375 22.125-12.047 35.484-17.016 11.766-4.3594 22.406-7.7812 31.875-10.219 3.9375-1.0312 7.4062-1.8281 10.406-2.3438 3.9375-0.65625 7.4062-1.3594 10.406-2.0625 5.5312-1.2188 10.406-1.5 15.516-2.1562 1.125-0.1875 3.2344-0.28125 6.2344-0.32812 21.281-0.375 35.203-0.375 41.766 0.046875 1.6875 0.09375 4.875 0.46875 9.5625 1.0781 3.5156 0.51562 6.6094 1.0781 9.4219 1.8281 5.1562 1.3594 11.391 2.7188 18.75 4.0312 0.46875 0.09375 0.84375 0 1.125-0.1875 1.9688-0.9375 3.1406-3 4.875-4.2188 5.9531-4.0312 12.281-9.4688 19.078-13.312 9.4219-5.4375 19.875-10.031 31.359-13.781 22.453-7.3594 45.469-9.375 68.906-6.0938 7.4062 1.0312 15.234 2.8594 23.297 5.3438 15.703 4.875 31.266 12.516 46.641 22.875 18 12 32.672 27.141 44.109 45.328 8.7656 13.922 16.125 28.688 22.125 44.109 2.25 5.9062 3.8906 12 5.0156 18.375 1.3594 7.6406 2.4375 13.969 3.2812 18.844 0.75 4.3125 1.125 10.594 1.2188 18.938 0.046876 14.109 0 27.188-0.1875 39.234-0.09375 2.9531-0.375 6.1406-0.89062 9.5156-1.1719 6.8438-1.3594 12.844-2.625 19.688-0.60938 3.5625-1.8281 9.0469-2.25 13.594-0.75 7.2656-1.7344 16.969-2.8594 29.016-0.51562 5.2969-0.51562 10.922 0 16.922 0.98438 12.469 1.6875 19.781 2.1094 21.938 2.4844 12.562 6.2344 24.703 11.391 36.328 0.84375 2.0156 2.9062 6.0469 6.1875 12.234 1.9688 3.8438 4.2188 7.7812 6.6562 11.906 9.5156 16.031 17.344 28.969 23.391 38.812 3.1875 5.1562 5.6719 9.4688 7.5 12.938 0.9375 1.7344 3.1406 6.0469 6.6094 12.984 5.9062 11.484 10.453 22.734 13.781 33.797 1.875 6.375 3.4688 14.016 4.1719 21.141 0.75 8.3906 2.7656 17.766 1.6875 26.812-0.75 5.6719-1.1719 9.9844-1.5 12.891-0.51563 5.2969-1.1719 9.6094-2.0625 12.75-3.2344 12.047-6.7969 21.75-10.688 29.109-7.6875 14.812-17.25 28.078-28.641 39.75-9.0938 9.375-19.547 18.047-31.172 25.922-4.3125 2.9531-8.2031 5.3906-11.578 7.2188-5.7188 3.0938-9.7969 5.25-12.047 6.4219-15.234 7.6875-30.938 13.266-46.922 16.688-3.2812 0.70312-9.2812-0.046875-11.719-2.6719-1.4062-1.5938-2.25-3.8906-2.4844-6.9375-0.375-4.6875 1.125-8.1562 4.5469-10.125 5.5781-3.3281 10.078-5.4375 14.156-9.2812 3.5625-3.4219 6.5625-7.125 9.0469-11.109 4.6875-7.6406 8.2969-15.797 10.734-24.516 1.4062-4.875 2.1562-10.734 2.1562-17.672 0.046876-11.438 0-17.859-0.28125-19.266-3.2344-19.922-10.922-38.109-22.922-54.609-5.4375-7.5469-11.203-14.766-17.25-21.562-3.0469-3.5156-9.5625-10.688-19.5-21.562-11.438-12.516-20.953-25.922-28.453-40.312-0.5625-1.0781-1.125-2.2969-1.6875-3.7031-1.3125-3.4688-1.7344-5.4844-3.9375-7.5938-0.1875-0.1875-0.375-0.1875-0.60937-0.14062-0.23438 0.046875-0.375 0.1875-0.375 0.42188-1.5 8.625-3.75 16.5-6.8906 23.578-6.5625 15.188-15.844 28.828-27.797 40.734-11.438 11.438-24.516 19.875-39.188 25.312-3.6094 1.3125-9.5156 2.625-17.625 3.8906-2.0625 0.32812-4.2656-0.14062-6.2344 0.375-0.46875 0.14062-0.75 0.42188-0.84375 0.89062-0.09375 0.42188 0 0.79688 0.32813 1.125 2.1094 1.9219 4.2656 3.6562 6.3281 5.2969 1.7344 1.4531 3.8438 2.9531 6.2812 4.5469 11.766 7.5938 19.688 12.75 23.812 15.562 4.6406 3.0938 9.1875 7.6406 13.688 13.594 4.2656 5.625 6.5156 11.672 6.7031 18.281 0.1875 6 0.70312 11.438-1.3594 16.5-3.3281 8.25-8.25 14.25-14.766 18.094-4.2656 2.4844-8.25 2.1094-12-1.0781-4.8281-4.125-5.4375-8.8125-1.8281-14.062 0.32813-0.42188 2.4375-3.2344 6.4688-8.3906 0.65625-0.84375 1.2188-2.1562 1.5938-3.9375 1.2656-5.1562-1.3125-11.062-4.7344-14.812-3.1875-3.4219-7.2656-6.4688-11.672-9.375-11.016-7.0312-18.281-11.719-21.75-14.109-7.125-4.9219-13.219-10.875-18.094-17.859-0.65625-1.0312-1.3594-1.0312-2.0625 0-0.60937 0.84375-1.0312 1.875-1.3125 3.0469-2.8594 12.984-4.7812 23.438-5.7188 31.312-1.2656 9.9375-1.875 14.953-1.875 14.953-1.0781 7.3594-1.5938 12.234-1.6406 14.484-0.046876 4.6406-0.046876 9.5156-0.046876 14.578-0.09375 3.75 0.42188 8.1562 1.3125 13.359 1.4062 7.9219 2.25 12.375 2.4375 13.266 0.60938 3.5625 1.5469 6.9844 2.6719 10.172 0.32812 0.79688 0.89062 1.3125 1.6875 1.5 10.078 1.8281 20.203 3.1875 29.25 5.4844 11.859 3 23.953 6.2812 36.234 9.75 14.25 4.0312 27.656 8.9062 40.078 14.719 7.6875 3.6094 13.359 6.375 16.922 8.25 5.0625 2.6719 11.156 6.2812 18.141 10.781 6.75 4.3125 12.422 8.5781 17.062 12.656 10.734 9.5625 19.922 19.312 27.562 29.25 9.75 12.75 18.891 26.859 27.234 42.375 10.875 20.109 20.156 40.875 27.656 62.156 2.4844 6.8906 5.6719 17.391 9.6094 31.5 2.2031 7.8281 4.125 15.562 5.9531 23.25 3.2344 14.203 6.0469 27.094 8.4375 38.578 0.23438 1.3125 0.60938 3.2344 1.125 5.6719 1.4062 7.3125 3.1875 16.5 5.1562 27.516 1.6406 8.8125 3.1406 16.688 4.5938 23.578 6.375 31.547 11.344 57.797 15.047 78.656 0.9375 5.2031 1.9219 14.625-4.5469 17.062-7.0312 2.625-13.969 3.9375-20.766 3.9375-420.74-0.046875-641.44 0-662.11 0.14062-4.2188 0-8.25-0.70312-12.281-2.25-5.1094-1.9219-8.5312-11.812-9.0469-16.078-0.375-2.6719-0.14062-6.9844 0.70312-12.984 0.98438-7.4531 1.4062-14.859 1.3125-22.266-0.14062-5.1094 0.046875-9.9375 0.46875-14.484 0.65625-6.9844 0.70312-16.125 2.0156-24.516 0.75-5.0625 1.1719-8.3438 1.1719-9.9375 0.1875-8.9062 1.0312-18 2.5312-27.234 0.84375-5.5781 1.5-10.172 1.7812-13.922 0.5625-6.9375 1.0781-11.625 1.5-14.016 1.3125-7.4531 2.3438-13.734 3-18.938 0.9375-7.2656 2.0625-12.141 3.5625-20.672 3.2812-18.375 8.0156-38.062 14.203-59.016 4.6875-15.797 10.688-31.547 17.297-45.797 12.844-27.469 30.281-50.578 52.266-69.375 10.922-9.3281 23.766-18.188 38.484-26.625 23.016-13.219 47.578-23.719 73.688-31.594 13.781-4.1719 22.969-6.6562 27.516-7.5469 3.9844-0.79688 7.6406-1.3125 11.062-1.6875 1.0781-0.14062 1.5-0.70312 1.3594-1.7344-0.46875-3.5625-1.5469-9.0938-1.7344-13.641-0.23438-4.3594-0.60938-10.875-1.1719-19.641-0.1875-2.4375-0.1875-5.8125-0.09375-10.125 0-1.4062-0.65625-2.2969-2.0625-2.5312-5.25-0.9375-11.625-1.6406-17.812-3.3281-25.359-6.9844-46.781-20.391-64.5-40.125-1.5938-1.8281-4.3125-5.0625-8.1094-9.75-3-3.7031-5.4375-7.0781-7.4531-10.172-7.7344-12.375-14.109-25.312-19.125-38.812-4.5-12.328-7.6875-22.5-9.5625-30.656-1.3125-6.0469-2.9062-14.344-4.7812-24.984-0.65625-3.3281-0.9375-6.7969-1.0312-10.547-0.046875-3.2812-0.42188-6.75-1.125-10.641-0.28125-1.5469-0.42188-3.6094-0.23438-5.3906 0.14062-0.60938-0.046875-0.65625-0.375-0.09375zm293.86 245.72c-4.3594-0.046875-7.7344-2.8125-9.4219-6.375-1.6875-3.6094-3.1875-8.2969-4.3125-14.109-2.1094-10.266-3.3281-16.078-3.5625-17.484-0.60938-3.3281-0.98438-5.9531-1.125-7.9688-0.1875-3.7969-0.42188-6.4688-0.70312-7.9688-0.42188-2.9531-0.42188-6.9375 0-12 0.28125-2.8125 0.51562-7.6406 0.84375-14.344 0.1875-4.1719 0.98438-8.1562 1.6875-12.281 0.28125-1.7812 0.60938-4.8281 1.0312-9.2812 0.32812-3.6094 0.89062-7.3125 1.6406-11.109 3.7969-19.734 7.875-36.938 12.188-51.562 0.375-1.2656 0.5625-2.4375 0.60938-3.6094 0.14062-1.6875 0.09375-2.9531-0.046875-3.7031-1.6875-8.8594-2.0625-17.578-0.98438-26.016 1.4062-11.906 4.0312-23.156 7.875-33.75 3.8438-10.734 6.4688-18.094 7.9688-22.031 2.3906-6.4688 4.125-11.766 5.2031-15.938 1.5469-5.8125 2.8125-11.25 3.9375-16.266 1.0781-4.8281 1.3594-10.078 0.9375-15.703-0.14062-0.84375-0.60938-1.4062-1.5-1.5469-7.7344-1.0781-15.562-2.7656-23.484-4.9219-25.312-7.125-49.594-16.875-72.703-29.391-1.3594-0.75-4.2656-1.3125-8.6719-1.7344-2.5781-0.1875-4.4062-0.65625-5.4375-1.2188-2.2031-1.2188-3.6562-2.625-4.3125-4.125-1.6406-3.4688-2.9531-5.5312-3.8906-6.2344-16.312-11.578-27.422-19.734-33.375-24.516-23.766-19.172-44.109-41.25-61.078-66.281-0.375-0.5625-0.9375-0.84375-1.5469-0.75-0.70312 0.046875-1.1719 0.375-1.4531 0.9375-5.6719 11.531-11.344 21.797-17.156 30.75-13.688 21.375-31.031 40.219-51.891 56.672-2.1094 1.6875-3.2344 3.3281-3.4219 5.0156-0.9375 8.4844-2.2031 17.156-3.7031 26.062-0.51562 2.8125-0.70312 6.2344-0.60938 10.312 0.046875 2.4844-0.14062 5.9062-0.65625 10.172-0.375 3.5156-0.60938 10.125-0.79688 19.734-0.23438 13.125-0.1875 24.141 0.14062 33.141 0.23438 5.8125 1.0312 10.172 1.2188 15.234 0.14062 3.0938 0.5625 6.8906 1.4062 11.391 1.9688 10.922 3.2344 19.172 5.4844 27.562 5.4375 20.297 13.312 39.141 23.625 56.391 4.3125 7.2188 10.641 15.047 15.984 20.812 16.312 17.484 36.094 28.734 59.344 33.609 7.7344 1.6406 16.219 2.0156 24.281 2.625 3.0938 0.23438 7.4531 0.046875 13.266-0.51562 6-0.60938 10.359-1.1719 13.125-1.5938 11.25-1.9688 21.938-6 31.922-12.281 6.1875-3.7969 13.969-5.8125 18.656 1.4531 9.6562 14.812-23.578 26.672-32.953 29.438-4.8281 1.3594-10.875 2.6719-18.188 3.9844-7.4531 1.2656-14.672 1.8281-21.703 1.5938-1.0312-0.09375-1.5938 0.46875-1.5469 1.5469 0.32812 4.6406 0.60938 8.6719 1.0781 12.188 0.375 2.9531 0.5625 5.1094 0.5625 6.6094-0.14062 5.625 0.046875 9.8906 1.125 16.453 0.75 4.2656 1.1719 8.1094 1.5 11.625 0.42188 6-0.14062 13.688-6.6562 14.812-4.875 0.79688-10.406 1.9219-16.688 3.3281-1.2188 0.23438-3.4688 0.65625-6.6562 1.3594-1.7812 0.375-2.3438 1.4531-1.8281 3.2344 4.5469 16.312 12.562 30.141 23.953 41.391 4.5938 4.5469 9.9844 8.625 16.172 12.188 6.5625 3.7969 12.797 6.4219 18.75 8.0156 20.109 5.1094 39.75 3.6094 58.734-4.6875 9.7031-4.2188 18.328-9.6562 25.969-16.266 14.484-12.703 25.172-27.984 31.969-45.797 0.65625-1.5938 1.7812-2.7188 1.7812-4.2188 0-1.125-0.5625-1.7344-1.6875-1.7344-2.3906-0.046875-5.7656-0.1875-10.219-0.32812zm47.906-297.84c0-1.3125-0.70312-2.0156-2.0156-2.0156s-1.9219 0.70313-1.9219 2.0156 0.60938 1.9219 1.9219 1.9219 2.0156-0.60937 2.0156-1.9219zm-14.438 57.75c-2.5312 2.8125-4.3125 5.7188-5.4375 8.9062-2.0625 5.9062-3.8906 11.391-5.3438 16.5-1.0312 3.6562-1.875 7.5938-2.3438 11.766-0.9375 6.9844-1.4062 11.016-1.5 12-0.28125 2.4844-0.09375 5.8594 0.60938 10.125 0.79688 5.0625 3.5625 8.25 8.1094 9.5625 21.469 6.0469 44.25-8.1094 58.266-23.109 14.391-15.469 26.25-35.156 27.609-56.016 1.0312-14.812-4.3594-29.484-18.422-35.672-5.8594-2.625-12.141-3-18.797-1.3125-15.562 3.9844-27.141 12.938-34.875 26.625-2.3906 4.3125-4.0781 9-5.0625 14.109-0.46875 2.2969-1.5938 5.0625-2.8125 6.5156zm-216.94 411.1c0.046875 1.0312 0.5625 1.5 1.5469 1.5 8.0625-0.046875 27.141-0.046875 57.141-0.09375 7.5938 0 15.609-0.1875 24-0.65625 34.125-1.6875 62.672-1.9688 101.67-2.2969 0.9375 0 2.9531-0.14062 6-0.32812 2.1094-0.1875 4.125-0.28125 6-0.42188 2.8125-0.23438 11.578-0.32812 26.203-0.1875 1.0312 0 1.5938-0.51562 1.5469-1.5469-0.42188-25.875-0.32812-51.938 0.375-78.375 0.32812-10.828 0.79688-19.641 1.5469-26.438 0.75-6.375 1.0781-12.562 1.0312-18.469-0.14062-8.3438 0.375-19.547 1.3594-33.469 0.14062-1.4062-0.51562-2.2031-1.7344-2.5312l-8.5781-1.9688c-0.75-0.1875-1.2656 0.09375-1.5 0.79688-0.51562 1.6406-0.51562 3.1406-1.1719 5.0156-10.266 27.984-27.328 50.156-51.328 66.656-8.25 5.625-17.391 10.266-27.422 13.781-5.3906 1.875-10.5 2.7188-15.469 3.9844-4.125 1.0781-7.9688 1.6875-11.812 2.0625-12.984 1.0781-25.547-0.046875-37.688-3.3281-12.188-3.2812-23.062-8.3438-32.625-15.281-20.906-15.188-34.875-35.391-41.812-60.562-0.65625-2.7656-2.0625-4.4531-4.9688-2.9062-0.75 0.46875-1.125 1.125-1.0781 2.0156 0 1.6875 0.1875 3.8906 0.375 6.5625 0.1875 2.25 0.32812 4.3594 0.32812 6.3281-0.09375 8.9062 0 16.688 0.046875 23.25 0 0.5625 0.42188 5.2969 1.4531 14.156 0.42188 4.4062 0.79688 9.1406 0.98438 14.203 0.32812 7.1719 0.5625 11.953 0.75 14.25 0.51562 6.1406 0.70312 10.875 0.70312 14.25-0.14062 10.312 0.42188 20.062 1.7344 29.25 1.0781 7.5 0.89062 16.453 2.0625 24.516 0.32812 2.0625 0.14062 4.1719 0.32812 6.2812zm317.63-0.60938c1.9219 1.6875 4.125 4.4531 6.5625 8.3906 2.4375 3.7969 3.6094 8.625 3.4688 14.297-0.23437 12.328 0.14063 22.875 1.0312 31.734 0.75 7.2656 1.1719 12.469 1.3125 15.516 0.23438 5.5781 0.42188 10.734 0.5625 15.609 0.09375 4.2656 0.98438 8.3906 1.0312 12.75v15.516c0 3.5625 0.32813 8.7656 1.0312 15.516 1.0312 10.5 1.6875 21 1.875 31.5 0.046876 4.3594 1.125 8.4375 1.125 13.031v16.219c-0.09375 4.2188 0.28125 9.6094 1.0312 15.984 0.89063 8.1094 1.4531 16.359 1.5938 24.75 0 0.98438 0.46875 1.5 1.4062 1.5h118.88c1.5938 0 2.25-0.79688 2.0156-2.2969-0.79688-5.25-1.875-10.781-3.2344-16.5 0-0.14062-0.32812-2.1562-1.0312-6.0938-0.1875-1.4062-0.60937-3.4219-1.125-6-5.8125-28.312-11.156-55.688-16.125-82.125-1.6875-9.0469-4.3594-22.172-8.0625-39.469-2.25-10.312-4.7812-21.188-7.7812-32.578-7.5-28.453-17.625-55.734-30.516-81.75-9.3281-18.938-20.438-36.75-33.234-53.484-6.8906-9-15.328-17.906-25.406-26.625-8.8125-7.6406-17.719-12.656-29.156-19.078-5.4375-3.1406-10.219-5.2969-14.203-6.7031-0.9375-0.28125-1.5 0-1.6875 1.0312-0.046876 0.09375-0.046876 0.375-0.14063 0.5625-0.60937 5.4375-0.84375 15-0.79687 28.594 0.046874 0.9375 0 2.1562-0.1875 3.5625-0.23438 2.8125-0.75 6.6562-0.75 8.9062 0 13.312-0.51563 25.922-1.6406 37.875-0.65625 7.4062-1.125 15.422-1.2188 23.906-0.28125 19.828-0.46875 29.766-0.46875 29.766 0.14063 2.625 1.2656 3.7969 3.5156 3.6094 6.75-0.65625 13.734-0.9375 21-0.75 3.7969 0.14062 6.9375 1.2656 9.3281 3.3281zm-394.45-122.76c-0.1875-0.28125-0.375-0.375-0.70313-0.1875-8.6719 6.0938-13.969 9.75-15.984 11.203-6.6094 4.6875-11.812 8.6719-15.562 11.953-10.125 8.8125-19.266 18.844-27.422 30.188-5.9062 8.1562-10.125 14.812-12.844 19.781-8.5312 16.406-15.844 34.406-21.938 54-4.875 15.938-8.5312 30.188-11.109 42.75-3.8906 19.406-6.2344 32.203-6.9844 38.344-1.125 8.8125-1.875 14.109-2.2031 16.031-1.1719 7.125-1.9219 12.469-2.25 16.031-0.046876 0.65625-0.42188 4.7812-1.1719 12.375-0.5625 5.625-2.0625 12.609-2.4375 19.031-0.51562 7.6875-0.75 11.578-0.75 11.719-0.84375 7.7344-1.0312 15.469-2.0156 23.812-1.125 9.0938-1.5469 18.797-1.3594 29.062 0.046876 3.4688-0.09375 6.375-0.375 8.5312-0.375 2.5312-0.70312 5.3438-0.89062 8.4375-0.14063 1.3125 0.51562 2.0156 1.8281 2.0156h103.78c1.0312 0 1.5-0.51562 1.5-1.5469 0-67.125 0-134.26 0.09375-201.28 0-8.8125 1.3125-15.469 3.8438-20.062 1.3125-2.2969 2.5312-3.1875 4.9688-3.9375 4.3594-1.4062 9-1.9688 13.781-1.6875 1.4062 0.09375 2.0156-0.5625 1.9688-1.9219-0.5625-13.453-1.0312-25.734-1.4531-36.891-0.046876-2.0625-0.14063-4.0312-0.14063-5.9062-0.23437-10.453-0.375-16.828-0.42187-19.266-0.14063-5.8125-0.51563-12.188-1.1719-19.172-1.2656-13.641-1.875-27.188-1.7812-40.688 0-0.84375-0.23437-1.6875-0.79687-2.7188z"/>
 <path d="m417.74 381.74c-6.4219 0.5625-12.797 2.0625-18.984 4.4531-1.6875 0.60938-5.7188 2.5312-11.953 5.7188-1.5469 0.84375-3.6094 1.2656-6.1875 1.2656-3.8906 0-6.6094-1.7344-8.2031-5.3906-3.0938-7.2188 2.7188-12.938 8.625-16.125 8.3438-4.3594 17.391-7.4062 27.188-9.0938 3.9375-0.70312 6.5156-1.0781 7.6875-1.2188 1.2188-0.046874 3.8438-0.09375 7.8281-0.1875 9.9844-0.046874 19.453 1.4062 28.359 4.2656 6.4688 2.0625 13.125 6.7031 11.344 14.391-0.89062 3.7969-3.2812 6.0469-7.125 6.6562-2.5312 0.46875-4.6406 0.375-6.3281-0.09375-6.7031-2.0625-10.922-3.2812-12.75-3.5625-6.5156-1.2656-12.984-1.6406-19.5-1.0781z"/>
 <path d="m434.44 412.18c2.8594 2.25 5.0625 4.875 6.6094 7.9688 3.3281 6.4688 2.0156 15.656-0.375 22.594-0.46875 1.4062-1.5 2.9062-3.0938 4.6406-4.7812 5.1094-9.0938 8.8594-16.641 6.9844-8.25-2.1094-13.312-7.5938-15.047-16.547-0.375-1.7344-0.46875-4.9219-0.1875-9.7031 0.28125-7.2188 1.4062-10.359 5.1562-15.797 1.4062-2.0156 3.3281-3.375 5.8125-4.1719 6-1.9688 11.953-0.65625 17.766 4.0312z"/>
 <path d="m597.19 429.94c0.1875 8.2031-1.3594 13.875-8.3906 19.078-2.7188 2.0625-4.7812 3.1875-6.0469 3.4219-6.0469 1.1719-11.016 0.375-15-2.4844-6.7969-5.0156-8.25-11.203-8.4375-19.219-0.1875-7.9219 0.98438-14.25 7.6406-19.5 3.7969-3 8.7188-4.0312 14.859-3.1875 1.2656 0.1875 3.3281 1.3125 6.1875 3.2812 7.2656 4.875 9 10.5 9.1875 18.609z"/>
 <path d="m494.21 522.94c2.8125 1.2656 4.5 1.9219 5.1094 2.0625 7.1719 1.5 13.688 2.1094 14.203 10.266 0.42188 6.4688-3.5156 10.406-10.031 11.062-9.4688 0.84375-22.547-4.6875-28.219-12.188-1.875-2.4375-3.2812-6-4.125-10.688-0.5625-2.7656-0.375-6.4688 0.5625-11.156 1.7344-8.6719 2.7188-13.359 2.9062-13.969 2.8125-10.266 5.8125-20.625 9-31.219 1.0312-3.0938 2.25-6.2344 3.9375-9.2812 2.0156-3.8906 5.5312-5.3438 10.453-4.4531 8.2031 1.5469 8.8125 8.625 6.5156 15.562-6.0938 18.328-10.406 34.5-12.844 48.562-0.1875 0.89062 0 1.9219 0.46875 3.2344 0.28125 1.0312 0.98438 1.7812 2.0625 2.2031z"/>
 <path d="m693.94 497.26c0.32812-1.3594-0.046875-2.1094-1.125-2.2031-3.3281-0.23438-5.0625-0.375-5.2969-0.42188-2.5781-0.32812-4.5-1.3125-5.8125-3-1.4062-1.6875-2.0625-3.7031-2.1562-5.9531-0.09375-6.7969 6.1406-11.109 11.766-14.344 8.0625-4.5938 16.688-6.1875 25.875-4.8281 3.2344 0.42188 5.4375 1.5469 6.7031 3.2344 2.2969 3.0938 2.625 6.75 0.98438 10.969-1.0781 2.5312-5.0625 3.75-7.7344 4.5469-0.89062 0.23438-1.3125 0.79688-1.4062 1.6875-0.375 4.3125-0.79688 7.8281-1.3125 10.641-2.1562 11.25-7.7812 20.438-16.875 27.422-8.25 6.2344-17.156 8.3906-26.906 6.2344-5.5781-1.1719-5.7188-9.0469-4.4531-13.312 0.375-1.3125 1.1719-2.2969 2.3906-3 4.7344-2.7188 10.359-2.8125 14.859-5.6719 4.1719-2.6719 7.6406-6.5156 10.312-11.391 0.046875-0.1875 0.1875-0.42188 0.1875-0.60938z"/>
 <path d="m541.74 554.06c0.375-0.375 1.7812-2.2031 4.2656-5.3906 2.0156-2.6719 6.5156-6.9375 10.172-6.1875 10.406 2.0156 10.781 12.938 5.4375 20.156-4.5938 6.375-9.9844 11.625-16.125 15.844-1.6875 1.125-5.2969 3.375-10.875 6.6562-3.75 2.25-7.5938 3.9375-11.625 5.1094-6.6094 2.0156-10.969 3.1406-12.984 3.375-6.0469 0.89062-12.047 0.98438-18 0.375-2.2031-0.23438-4.5-0.9375-6.9375-2.0156-2.2969-1.0312-3.75-2.8125-4.2656-5.1562-0.84375-3.9375-0.65625-8.9062 2.7656-11.438 1.7344-1.2656 5.8594-1.875 8.5781-1.6406s5.25 0.42188 7.3594 0.42188c5.4375 0 11.578-1.3125 18.328-3.9375 9.2344-3.5625 17.25-9 23.906-16.172z"/>
</svg>
