<?xml version="1.0" encoding="UTF-8"?>
<svg width="1200pt" height="1200pt" version="1.1" viewBox="0 0 1200 1200" xmlns="http://www.w3.org/2000/svg">
 <path d="m491.58 658.13c-3.8906 0.75-7.7812 1.2656-11.578 1.4531-4.5 0.28125-8.0625 0.1875-10.641-0.375-12.562-2.7188-18.984-4.0781-19.312-4.125-11.109-2.5781-21.844-6.0938-32.344-10.5-7.125-3.0938-14.25-6.7031-21.328-10.969-16.125-9.6562-30.938-21.234-44.438-34.734-7.6406-7.5469-14.062-14.812-19.453-21.797-26.25-34.078-44.25-71.719-54-112.88-0.84375-3.8438-2.3438-11.203-4.4062-22.125-1.0312-5.25-1.5938-9.8438-1.7812-13.781-0.1875-3.6094-0.5625-6.9375-1.1719-9.9375-1.875-9.6562-1.6406-17.859-2.0625-29.672-0.14062-3.5156-0.046875-8.625 0.1875-15.375 0.375-10.359 0.23438-19.266 1.9219-30.375 0.65625-4.1719 1.0781-8.3906 1.4062-12.562 0.42188-5.9531 0.84375-10.172 1.3594-12.703 1.125-6.0469 2.25-12.094 3.2344-18.234 1.5-8.8125 3.2812-15.141 5.625-25.359 2.9062-12.469 7.125-26.062 12.75-40.875 5.0625-13.594 11.203-26.812 18.328-39.844 9.75-17.812 21.141-33.984 34.266-48.656 12.938-14.578 26.719-27.938 41.906-38.906 3.9375-2.8125 7.875-5.9062 11.438-8.25 23.25-15.188 47.812-26.859 73.641-35.109 3.9844-1.3125 8.0625-2.4375 12.141-3.4219 6.2344-1.5938 10.781-3.1875 16.359-3.9375 3.3281-0.46875 7.3125-1.125 12-2.0625 6.2344-1.2656 11.109-1.9688 14.625-2.0625 6.75-0.1875 12.703-1.2188 19.734-0.9375 13.875 0.375 26.812 2.7188 38.953 6.9375 0.75 0.23438 1.875 0 3.4219-0.75 7.2656-3.5625 14.766-5.625 22.641-6.1406 5.9531-0.375 8.9531-0.60938 9-0.60938 5.4844-0.5625 12-1.5 17.625-1.6406 8.4375-0.1875 16.359 0.14062 23.953 0.98438 4.5 0.51562 9 0.9375 13.594 1.2188 6.2812 0.375 10.781 0.9375 13.5 1.5469 2.9531 0.60938 9.5156 2.1094 19.828 4.3594 33.75 7.3125 64.547 22.125 92.438 44.344 29.625 23.625 53.391 50.156 71.203 79.734 16.922 28.125 29.531 57.328 37.734 87.422 6.375 23.578 10.453 41.156 12.188 52.688 2.8594 19.641 4.5 30.75 4.9219 33.469 0.65625 4.7344 0.9375 8.4375 0.89062 11.156-0.046875 2.1562-0.046875 4.6406 0 7.4531 0 3.2344 0.14062 5.7656 0.32812 7.5 0.75 8.5781 0.79688 17.391 0.09375 26.484-0.23438 3.8906-0.375 8.25-0.375 13.219 0 6.375-0.046875 10.781-0.28125 13.219-0.65625 5.7656-2.4375 16.453-5.4375 32.016-3.1406 16.172-8.4375 33-16.031 50.438-5.1562 12.047-11.812 23.484-18.797 34.266-20.297 31.359-47.672 55.219-80.625 72.75-27.797 14.812-57.234 26.156-88.359 34.125-4.7812 1.2188-10.406 2.4375-16.875 3.6562-8.5312 1.5938-14.203 2.5781-17.016 2.9531-8.4375 1.0781-17.25 1.6875-26.578 1.8281-1.4062 0-2.1094 0.75-1.9688 2.25 0.65625 7.6875 2.1094 15.234 4.4062 22.688 0.46875 1.3594 1.125 2.1094 2.1562 2.2969 11.297 2.0156 19.969 3.6094 26.062 4.8281 3.8438 0.79688 9.2812 2.1562 16.359 4.1719 4.6875 1.3594 10.172 2.8125 16.359 4.4531 22.594 5.7188 43.781 13.734 63.703 24 14.812 7.6875 30 16.875 42.703 28.359 10.406 9.4219 19.312 18.938 26.484 28.453 10.734 14.25 20.016 28.547 27.75 42.938 6.75 12.609 13.172 26.062 19.312 40.312 5.8125 13.547 10.828 27.422 14.953 41.484 3.8438 13.312 6 20.062 8.5312 31.078 5.7188 23.906 9.375 40.406 11.016 49.359 3.3281 17.438 5.8125 30.562 7.4531 39.234 1.4062 7.7812 4.125 21.188 7.9219 40.219 5.7656 28.359 9.7031 49.406 11.766 63.188 0.42188 2.8125 0.23438 5.8594-0.5625 9.2344-0.5625 2.2031-1.9688 3.7969-4.2656 4.8281-3.4219 1.5-8.0625 2.6719-13.875 3.5625-3 0.42188-7.6875 0.65625-14.203 0.65625-437.26-0.046875-663.74-0.046875-679.55-0.09375-5.1094 0-11.625-0.75-15.047-4.9688-1.0781-1.3125-2.25-3.375-3.5156-6.2812-2.25-5.1562-2.9531-10.594-2.0625-16.312 1.4531-9.8438 2.1094-18.562 2.0625-26.156-0.14062-7.7812 0.046875-13.5 0.51562-17.062 0-0.23438 0.375-5.9062 1.0312-17.062 0.1875-2.6719 0.51562-5.6719 1.0781-8.8125 0.70312-4.125 1.0781-7.0312 1.125-8.8594 0.1875-9.7969 0.98438-18.984 2.3906-27.562 1.0312-6.5625 1.875-12.516 2.2969-17.812 0.5625-7.0781 1.3594-12.984 2.3906-17.812 0.60938-2.9531 1.125-6.3281 1.5-10.172 0.28125-2.9062 0.79688-6.2812 1.5469-10.219 1.2656-6.5625 2.2969-12.281 3.1875-17.25 2.6719-15.562 6.9844-33.609 12.891-54.188 5.9062-20.906 13.547-40.594 22.875-59.062 14.812-29.344 35.438-53.859 61.875-73.359 8.7188-6.5156 18.188-12.609 28.312-18.422 20.812-11.953 43.594-22.031 68.531-30.281 11.391-3.75 22.969-6.9844 34.5-9.7969 4.125-0.9375 8.2031-1.5469 12.188-1.875 1.5938-0.046875 2.25-0.9375 1.9688-2.4844-0.89062-5.1562-1.4062-8.7656-1.5-11.062-0.65625-12.469-1.125-21.094-1.5-25.969-0.09375-0.98438-0.5625-1.3594-1.5-1.1719zm-106.59-326.63c0 0.9375 0.28125 1.4531 0.84375 1.3594 4.3594-0.046875 10.359-0.23438 18.047-0.5625 4.0781-0.1875 7.7344 0.28125 11.672 0.375 2.0625 0.09375 4.9688 0.51562 8.7188 1.3125 3.5625 0.75 7.9688 1.6875 13.312 2.7656 6.375 1.2656 13.734 5.5781 16.125 11.953 0.42188 1.125 0.375 2.25-0.09375 3.4219-1.9688 5.2031-5.1562 7.9219-9.5625 8.2969-2.1562 0.1875-5.8594-0.5625-11.156-2.25-7.8281-2.4844-12.844-3.7969-14.953-3.9375-2.8125-0.09375-5.625-0.28125-8.4375-0.5625-3-0.23438-5.8125-0.28125-8.4375-0.1875-4.7344 0.28125-9.375 0.51562-14.016 0.75-3.9375 0.28125-6.4219-0.046875-6.8438 4.4062-0.32812 3.4219-1.2656 9.75-2.7656 18.938-1.0781 6.2812-0.98438 11.156-0.98438 17.438-0.09375 2.4375-0.75 5.4375-0.89062 7.5938-0.89062 18.141-0.98438 36-0.375 53.719 0.1875 5.25 1.125 9.5625 1.2656 14.344 0.046875 3.5156 0.46875 7.0781 1.2188 10.828 2.0156 9.7031 3.7031 21.562 6.7031 32.109 4.875 17.391 11.438 33.656 19.688 48.75 4.0781 7.4062 8.5781 14.156 13.547 20.25 6.6562 8.0156 12.938 14.531 18.938 19.312 16.641 13.594 37.453 22.641 59.344 24.891 6.5625 0.70312 11.062 1.0781 13.547 1.1719 4.3125 0.14062 10.922-0.1875 19.734-0.9375 15.562-1.3125 29.766-6 42.656-14.109 6.2344-3.9375 14.297-5.4375 18.938 2.0156 6.4688 10.547-8.0625 18.938-15.703 22.781-8.25 4.2188-16.828 7.2656-25.547 9.1875-11.531 2.5312-22.125 4.3125-33.656 3.9375-1.5-0.046875-2.25 0.65625-2.1562 2.1562 0.1875 3.8438 0.5625 8.2969 1.1719 13.312 0.60938 5.1094-0.046875 12.234 0.5625 16.172 1.3125 8.25 2.9531 16.312 2.4844 24.891-0.09375 2.625 0.1875 4.5938 1.0312 6 1.1719 2.0625 2.4844 3.75 3.9375 4.9688 18.422 16.078 27.656 24.141 27.75 24.281 6.4688 5.25 13.312 10.359 20.484 15.281 1.7344 1.2188 3.5156 1.2188 5.25-0.046875 12.188-8.7656 24.328-17.438 35.672-27.141 6.1875-5.1562 15.375-11.812 22.688-18.469 1.8281-1.6406 4.4531-3.9375 7.8281-6.9375 1.6875-1.5 2.2031-3.2812 1.6406-5.3906-1.0312-3.2344-2.3438-6.7031-2.9531-10.547-0.9375-5.625-2.0156-11.203-3.1406-16.688-1.125-5.625-1.0312-11.391-1.6875-16.031-0.46875-3.0469-0.46875-7.0312-0.046875-12 0.1875-2.8594 0.51562-8.0625 0.89062-15.562 0.23438-4.125 0.98438-8.3438 1.7344-12 0.42188-2.4375 0.79688-5.4375 0.98438-9.0469 0.65625-9.6094 3.8438-20.25 4.9688-27.984 0.84375-5.8125 2.4844-10.594 3.9844-16.969 1.3125-5.6719 2.2969-9.9375 3.1406-12.656 1.5469-5.3438 3.2344-10.594 4.9219-15.844 1.125-3.375 2.0156-6.375 5.3906-7.3125 4.9688-1.4062 8.5312-1.2188 12.469 1.8281 5.1562 4.125 9.7031 7.1719 16.594 7.8281 18 1.5938 36.281-8.7656 49.031-20.906 8.9531-8.625 16.406-18.188 22.266-28.688 5.8594-10.547 9.7031-21.844 11.297-33.938 0.32812-2.2969 0.32812-4.5469-0.09375-6.6562-0.89062-4.8281-2.1562-9.2812-3.6562-13.453-2.8594-7.7344-9.75-14.297-17.859-17.203-6.7969-2.3438-14.109-2.1094-21.891 0.70312-20.672 7.4531-33.234 21.984-37.734 43.547-0.14062 0.70312-0.79688 2.0156-2.0156 3.9375-0.79688 1.4062-1.875 2.3438-3.1875 2.7656-4.0312 1.3594-10.5 0.42188-13.031-3.2344-3.2812-4.7812-1.5-12.656 0.23438-17.953 4.7344-14.625 13.266-26.812 25.453-36.609 2.2969-1.8281 3.6562-2.9531 4.0312-3.3281 2.0156-1.6406 1.9688-3.375 1.4062-5.7656-1.0781-4.3125-1.8281-7.875-7.2656-6.8438-9.5156 1.7344-19.547 3.1875-30.375 4.4062-6.7031 0.75-14.672 1.125-23.953 1.125h-26.625c-5.8594 0.09375-10.922-0.09375-15.188-0.5625-5.4844-0.42188-10.5-1.0312-15.047-1.7812-0.42188-0.09375-0.70312 0.09375-0.9375 0.42188-0.1875 0.32812-0.1875 0.60938 0.046875 0.9375 4.0781 5.625 6.2812 11.953 6.5156 18.938 0.046875 3.4219 0.046875 8.3906 0 14.672-0.1875 7.7812-2.2031 14.766-6.0469 20.953-5.25 8.3906-17.391 10.078-25.031 3.4219-2.9062-2.5312-4.7812-4.7812-5.5312-6.75-1.5938-3.6094-2.7656-6.6094-3.6562-9.0469-0.9375-2.625-1.5-6-1.5469-10.266-0.23438-7.7344 0-13.547 0.60938-17.484 0.70312-4.4531 3.3281-11.203 7.4062-14.578 0.5625-0.42188 1.6875-1.2188 3.2812-2.3438 0.46875-0.28125 0.65625-0.70312 0.5625-1.2188-0.046875-0.42188-0.28125-0.79688-0.75-0.98438-0.75-0.32812-1.7344-0.60938-3-0.9375-8.5312-1.875-13.031-2.8594-13.547-3-8.8125-2.4844-16.312-4.7344-22.547-6.7969-7.0312-2.3906-15.281-5.8125-24.75-10.453-18.516-9-33.891-20.062-46.125-33.188-4.2188-4.5469-6.9375-7.5-8.2031-8.7656-3.1406-3.2344-6.0469-6.75-8.6719-10.406-8.4375-11.719-13.781-19.781-16.078-24.281-3.2344-6.2812-6.4219-12.562-9.7031-18.844-1.0312-2.1562-1.9219-4.9688-2.4844-8.4375-0.14062-0.46875-0.42188-1.0312-1.0781-1.6875-0.28125-0.375-0.5625-0.32812-0.75 0.09375-6 13.453-10.172 24.844-12.609 34.078-1.5469 6.2344-4.125 16.312-7.5469 30.328-0.09375 0.23438-0.09375 0.42188-0.09375 0.60938zm215.58 435.79c-1.125 1.2188-0.98438 2.3438 0.375 3.2812 10.641 7.1719 24.75 15.234 33.562 21.047 3.75 2.4375 7.5469 4.8281 11.438 6.9844 2.25 1.2656 6.0469 3.5625 11.578 6.9375 8.25 5.0625 15.797 9.4688 22.688 13.125 0.65625 0.375 1.3125 0.375 1.9688 0s1.0312-0.9375 1.0312-1.6875c0.28125-7.1719 1.5938-14.25 1.6875-21.281 0.046875-12.094 0-21.703-0.14062-28.875-0.046875-3.4688-0.375-7.2188-0.89062-11.25-1.2188-10.406-2.0625-21.562-2.8594-29.812-0.32812-2.625-0.046875-5.3906-0.14062-8.0156-0.046875-1.1719-0.65625-1.9219-1.7812-2.25-4.2188-0.9375-6.5156-1.5-7.0312-1.6406-2.4375-0.75-4.7812-0.046875-6.6094 1.4531-5.7656 4.7344-10.078 9.3281-16.688 14.812-13.922 11.578-27.938 22.5-41.812 32.812-1.6406 1.1719-5.0156 2.8125-6.375 4.3594zm-136.64 56.016c0.84375-0.32812 1.875-0.98438 3.1875-2.0625 1.4062-1.0781 2.3906-1.8281 2.9531-2.1094 26.625-15.703 44.391-25.969 53.25-30.891 9.4219-5.25 19.078-10.453 28.875-15.562 0.98438-0.51562 1.0781-1.0781 0.1875-1.7344-19.641-14.25-37.875-30.656-54.797-49.078-2.0625-2.2969-4.2188-2.6719-6.375-1.1719-0.32812 0.1875-0.5625 0.46875-0.70312 0.84375-4.8281 15.75-10.641 35.391-17.438 58.828-1.1719 4.1719-2.9531 10.828-5.2969 20.016-2.3906 9.1875-4.2188 15.797-5.3906 19.922-0.32812 1.0781-0.32812 1.875 0.046875 2.4844 0.32812 0.5625 0.84375 0.75 1.5 0.51562zm322.87 71.203c1.6406-0.65625 3.375-1.0781 5.3438-1.2656 5.25-0.5625 8.8125 1.3594 10.594 5.7656 1.6875 4.125 2.5312 8.8594 2.5312 14.25v15.938c0 3.375 0.375 8.6719 1.125 15.984 1.0312 10.266 1.5938 20.578 1.7344 30.938 0 2.9531 0.5625 6.4219 0.79687 8.6719 0.28125 2.1562 0.375 4.3125 0.375 6.5156-0.046874 1.4531-0.046874 6.9844 0 16.547 0 3 0.375 8.5312 1.2188 16.453 0.9375 9.1875 1.5 18.984 1.6875 29.438 0 1.4531 0.09375 2.9531 0.28125 4.5 0.51563 4.0781 0.89063 7.0781 0.89063 11.391v15.75c-0.046876 4.3594 0.32812 9.5625 0.98437 15.609 1.0781 8.8594 1.6406 17.625 1.7812 26.297 0 1.0781 0.5625 1.6406 1.5469 1.6406h122.68c0.75 0 1.4062-0.32812 1.875-0.9375 0.51562-0.5625 0.65625-1.2656 0.46875-2.0156-1.875-8.4375-3.5156-16.5-4.8281-24.234-0.42188-2.7656-3.1406-16.125-8.0625-40.172-1.2656-5.9531-2.2969-11.719-3.3281-17.344-0.9375-5.625-2.0625-11.344-3.2344-17.344-0.1875-0.70312-0.60938-2.9531-1.2656-6.5625-2.8125-14.906-6.6562-33.891-11.719-57-4.4062-20.016-9.8906-39.844-16.594-59.391-7.7344-22.828-17.812-45.375-30.094-67.734-3.5625-6.4688-9-15-16.266-25.781-9.75-14.297-20.672-26.906-32.812-37.781-5.5781-5.0156-12-9.75-19.172-14.203-20.391-12.703-43.078-22.688-67.969-30.141-7.7344-2.2969-13.547-3.9844-17.438-5.0625-1.5469-0.42188-3.4219-1.6875-5.5312-1.5938-0.51562 0-0.75 0.23438-0.75 0.75-0.09375 2.8594 0.9375 6.0469 1.1719 8.25 0.75 6.2812 1.1719 12.562 1.2656 18.609 0 1.875 0.09375 3.5625 0.23438 5.0625 0 0.32812 0.1875 2.0156 0.42188 5.0625 0.28125 2.625 0.375 5.2031 0.46875 7.6406 0 7.3594 0.23438 20.625-0.65625 31.219-0.5625 7.125-0.60938 17.016-1.6875 25.078-0.75 6-1.5938 15.375-4.9688 19.453-3.5625 4.3125-8.0156 5.7188-13.266 4.3594-3.0469-0.75-6.7031-2.9531-9.75-4.5469-2.1094-1.2188-4.5-2.5781-7.125-4.125-8.2969-5.2031-14.062-8.7188-17.25-10.594-15-8.625-27-16.781-42.188-25.922-3.0469-1.875-6.375-4.3594-8.625-6.5156-0.42188-0.375-0.75-0.28125-0.9375 0.28125-0.9375 3.4688 0.1875 5.4375 1.5469 9.7969 0.75 2.4844 1.3125 4.4531 1.6406 5.8125 1.9219 8.7656 3.6094 15.75 5.1094 20.953 3.8438 13.219 8.1562 27.047 12.844 41.438 2.7188 8.25 5.4844 15.797 8.1562 22.547 5.9062 14.672 12.75 29.953 20.625 45.938 2.0156 4.0781 3.1406 7.1719 3.2812 9.3281 0.28125 3.4688-0.375 6.8438-2.0625 10.125-0.75 1.4062-2.4375 2.8594-5.2031 4.2188-5.2969 2.5781-10.453 4.0781-15.422 4.5-4.4531 0.375-7.2656-1.5-9.9375-4.6875-5.3438-6.2812-6.7031-11.906-9.3281-21.609-17.438-63.938-27.984-102.19-31.641-114.8-2.25-7.7812-4.5-16.828-6.7969-27.188-0.42188-1.875-0.98438-1.9688-1.6875-0.14062-0.51562 1.2656-1.2656 2.6719-2.2031 4.3125-0.28125 0.5625-0.98438 2.1094-1.9688 4.6875-2.7188 6.75-6.4688 15.516-11.156 26.391-4.7812 10.969-9.9844 24.094-15.562 39.375-2.1562 5.8125-6.0469 15.656-11.812 29.531-2.5312 6.1875-5.6719 13.594-9.4219 22.078-5.2031 11.578-9 20.25-11.484 26.062-3.4688 8.0156-9.0938 12.797-16.828 14.391-0.75 0.09375-2.5781 0.42188-5.5781 0.9375-2.8594 0.42188-4.7344 0.5625-5.625 0.28125-8.1562-2.0625-12.234-6.4688-12.188-13.219 0-3.0938 1.5938-7.9688 4.7812-14.578 4.3594-9.3281 7.5-15.797 9.4219-19.547 21.188-41.625 41.438-80.25 60.703-115.97 0.75-1.4062 1.5-3.0938 2.25-4.9688 0.09375-0.28125 0.046875-0.51562-0.14062-0.70312s-0.42188-0.23438-0.70312-0.1875c-0.98438 0.32812-1.7812 0.42188-2.6719 1.0781-2.8594 2.0625-4.7344 3.375-5.6719 3.8438-6.0938 3.3281-12.328 6.8906-18.703 10.781-8.8125 5.3438-15 9.0469-18.562 11.156-13.828 8.0625-28.734 17.344-44.672 27.75-3.5625 2.3906-7.5938 2.9062-12 1.4531-2.7656-0.9375-4.8281-2.8125-6.0938-5.625-1.4062-3.3281-2.0625-6.3281-1.7344-8.9531 0.375-3.4219 1.5-8.9062 3.4219-16.5 5.5312-21.234 9.375-36.234 11.578-44.859 2.9531-11.484 7.8281-28.359 14.672-50.578 0.375-1.1719-0.09375-1.9219-1.3594-2.1094-0.60938-0.14062-1.5 0.046875-2.625 0.51562-0.23438 0.046875-4.2656 1.5-12 4.3125-20.672 7.3594-39.562 16.031-56.625 26.109-6.0469 3.5156-13.078 8.0625-21.047 13.641-11.344 7.7812-21.469 16.547-30.516 26.25-7.125 7.6875-14.625 17.531-22.453 29.484-3.75 5.7656-7.5469 12.797-11.297 21.141-6.375 13.875-11.578 27.422-15.703 40.547-7.125 22.875-12.422 44.625-15.938 65.297-1.3125 7.4531-1.9688 11.719-2.1562 12.562-0.9375 4.8281-1.6406 9-2.0156 12.703-0.60938 6.1875-1.3594 11.438-2.25 15.797-0.9375 4.6406-1.5469 9.2812-1.875 13.828 0 0.14062-0.51562 4.7344-1.3594 14.016-0.5625 5.25-2.0156 11.859-2.3906 17.859-0.42188 6.9375-0.60938 10.453-0.60938 10.547-0.84375 8.0625-1.3125 18.703-2.3906 28.219-0.98438 8.7188-1.3594 17.25-1.1719 25.5 0.1875 6.6562-0.51562 11.859-1.2656 19.688-0.1875 1.7812 0.5625 2.6719 2.3906 2.6719h106.36c1.3125 0 1.9219-0.70312 1.9219-1.9219v-209.9c0-4.125 0.46875-7.5 1.2656-10.031 1.7344-5.5312 7.8281-8.8125 13.312-7.125 6.5625 1.9688 8.8125 9.4219 8.8125 15.938 0 101.44 0 171.84-0.046875 211.36 0 1.125 0.5625 1.6875 1.6875 1.6875h397.69c1.875 0 2.6719-0.9375 2.4844-2.8125-0.375-3.8906-0.60938-7.8281-0.60938-11.812-0.09375-7.2656-1.125-13.922-1.125-21.516 0-10.688 0.046875-18.609-1.0781-29.344-1.2656-11.953-1.9219-23.719-2.1094-35.203-0.09375-4.3594-1.0312-9.3281-0.89062-13.312 0.32812-12.938-0.23438-25.312-1.8281-37.172-0.46875-3.8906-0.9375-10.219-1.1719-18.891-0.046875-1.6406-0.32812-7.875-0.89062-18.75-0.1875-3.9375-0.23438-8.9531-0.1875-15 0-5.8594-0.1875-9.9844-0.65625-16.453-0.32812-3.1875 0.1875-6.6094 1.3594-10.359 0.60938-1.875 1.6875-3.1875 3.2344-3.7969z"/>
 <path d="m425.26 393.56c5.2031 3.5625 8.4375 7.3594 10.125 13.641 2.4375 9 3.1406 18.562 2.0625 28.734-0.98437 9.3281-4.6875 15.703-13.641 18.422-3.1875 0.9375-6.6562 0.89062-10.5-0.375-6.6562-2.1094-11.531-8.8125-13.547-15.234-1.6406-5.625-3.0469-12.984-2.3906-18.984 0.89062-7.2656 2.2031-13.078 3.8438-17.391 1.875-5.0156 5.3438-8.8594 10.547-11.672 5.625-3 8.2969-0.65625 13.5 2.8594z"/>
 <path d="m719.68 469.92c-0.75 0.84375-1.875 2.2031-3.375 4.2656-3.0469 4.1719-7.6875 7.3125-12.844 5.2969-3.375-1.3125-5.25-3.6094-5.7188-6.9844-0.75-5.1094 0.5625-9.8906 3.9375-14.062 2.625-3.375 4.8281-5.6719 6.4688-7.0781 4.1719-3.4219 9.0938-6.4688 14.812-9.0469 4.5938-2.1094 9.5625-3.3281 14.859-3.5625 6.5625-0.23438 11.766 0.14062 15.422 1.2656 6.2812 1.875 7.4531 9.4688 5.5312 14.859-0.75 2.0625-2.2031 3.375-4.2656 4.0781-3.5156 1.125-6.3281 1.5-8.3906 1.1719-1.9219-0.23438-3.5625-0.375-4.9688-0.23438-1.2656 0.046875-1.7812 0.65625-1.5 1.875 2.1094 9.75 1.3125 18.797-2.3438 27.047-1.9219 4.3594-4.875 8.4844-8.9062 12.516-4.4531 4.3125-8.5312 7.5469-12.281 9.6094-3.4688 1.9219-12.844 3.0469-16.031-0.9375-3.1875-3.9375-3.375-8.6719-0.65625-13.078 0.75-1.2188 2.3906-2.625 4.875-4.125 6.5156-3.8438 12.281-7.6875 14.531-15.469 0.375-1.3125 0.98438-3 1.7812-5.1562 0.14062-0.42188 0.14062-1.125-0.1875-1.9688-0.09375-0.5625-0.375-0.65625-0.75-0.28125z"/>
 <path d="m485.63 501.05c-0.23438 6.7031 1.5469 9.8438 8.2031 11.391 5.4844 1.3125 13.359 2.8125 15.938 6.9844 1.125 1.875 1.4062 4.5938 0.9375 8.0156-1.0312 6.5156-6.5156 8.4375-12.375 8.1094-2.1562-0.09375-5.1562-0.65625-9-1.5938-3.5625-0.89062-6.375-1.8281-8.5781-2.9531-11.016-5.4844-16.453-14.859-16.312-28.125 0-5.625 0.5625-10.922 1.5-15.938 2.6719-13.688 5.625-26.203 8.8594-37.547 0.9375-3.1875 3.5156-8.2031 7.0312-9.4688 3.2344-1.125 9.0938-0.9375 11.25 2.5312 5.4375 8.9062-0.51562 19.172-2.1562 28.172-0.60938 3.1406-1.875 9.1875-3.8438 18.188-0.75 3.4219-1.2656 7.5469-1.4531 12.234z"/>
 <path d="m564.52 524.06c2.4375-3.2344 5.5312-4.875 9.1875-4.875 4.4062 0.046875 7.5 1.6406 9.1875 4.7344 3.0469 5.625 0.84375 10.5-3 15.375-7.5938 9.5156-17.719 17.953-30.469 25.406-9.2812 5.3438-18.844 8.2969-28.547 8.7188-6.5625 0.28125-12.234 0.14062-17.062-0.5625-5.3906-0.65625-12.609-4.5-14.109-10.125-0.9375-3.5625 0-6.6562 2.7188-9.375 3.8906-3.7969 10.5-2.2969 16.312-1.2188 2.625 0.46875 5.1562 0.65625 7.4531 0.5625 8.5781-0.51562 16.125-2.625 22.734-6.5156 9.3281-5.4375 18.562-12.984 25.594-22.125z"/>
</svg>
