<?xml version="1.0" encoding="utf-8"?>
<!-- Generator: Adobe Illustrator 26.0.1, SVG Export Plug-In . SVG Version: 6.00 Build 0)  -->
<svg version="1.1" id="Layer_1" xmlns="http://www.w3.org/2000/svg" xmlns:xlink="http://www.w3.org/1999/xlink" x="0px" y="0px"
	 viewBox="0 0 537.6 246.6" style="enable-background:new 0 0 537.6 246.6;" xml:space="preserve">
<style type="text/css">
	.st0{fill:#3A1751;}
	.st1{fill:#B3C0C1;}
	.st2{fill:#6B6C6C;}
	.st3{fill:none;stroke:#FFFFFF;stroke-width:1.7805;stroke-miterlimit:10;}
	.st4{fill:#ED2649;}
	.st5{fill:#FFFFFF;}
</style>
<g>
	<g>
		<rect x="3" y="4.8" class="st0" width="523" height="184.5"/>
		<g>
			<path class="st1" d="M19,206.2h4.9l7.6,17.9c0.8,1.8,1.6,4.5,1.6,4.5h0.1c0,0,0.9-2.6,1.6-4.5l7.6-17.9h4.9l2.7,33.1h-4.6
				l-1.6-20.9c-0.1-2,0-4.9,0-4.9h-0.1c0,0-1,3-1.8,4.9l-6.6,14.9h-4.1l-6.6-14.9c-0.8-1.8-1.8-5-1.8-5h-0.1c0,0,0,3-0.1,5
				l-1.6,20.9h-4.6L19,206.2z"/>
			<path class="st1" d="M95,229.7H82.5l-3.3,9.5h-4.8l11.9-33.1h4.9l11.9,33.1h-4.8L95,229.7z M88.8,210.7c0,0-0.8,3-1.3,4.7
				l-3.7,10.5h10l-3.7-10.5C89.6,213.7,88.9,210.7,88.8,210.7L88.8,210.7z"/>
			<path class="st1" d="M128.7,206.2h10.1c3.5,0,4.9,0.3,6.2,0.8c3.4,1.3,5.6,4.6,5.6,9c0,4.2-2.3,7.8-6,9v0.1c0,0,0.4,0.4,1,1.5
				l7,12.9h-5.3l-7-13.2h-7.1v13.2h-4.6V206.2z M140,222.1c3.6,0,5.9-2.3,5.9-6c0-2.4-0.9-4.2-2.6-5.1c-0.9-0.5-2-0.8-4.5-0.8h-5.3
				v11.9H140z"/>
			<path class="st1" d="M179.4,206.2h4.6v13.9h4.9l8.3-13.9h5.1l-9.6,15.7v0.1l10.2,17.3h-5.3l-8.8-15.2h-4.9v15.2h-4.6V206.2z"/>
			<path class="st1" d="M229.3,206.2h19.2v4h-14.6v10.4h11.9v4h-11.9v10.6h15.4v4h-20V206.2z"/>
			<path class="st1" d="M283.9,210.2h-11.4v-4h27.3v4h-11.4v29.1h-4.6V210.2z"/>
			<path class="st1" d="M320.3,222.7c0-2.4,1.9-4.3,4.3-4.3c2.4,0,4.3,1.9,4.3,4.3s-1.9,4.3-4.3,4.3
				C322.2,227.1,320.3,225.1,320.3,222.7z"/>
			<path class="st1" d="M356.5,206.2h11c10.1,0,16.8,6.1,16.8,16.5c0,10.5-6.7,16.6-16.8,16.6h-11V206.2z M367.1,235.2
				c7.5,0,12.3-4.4,12.3-12.6c0-8.1-4.9-12.5-12.3-12.5h-6v25H367.1z"/>
			<path class="st1" d="M411.8,206.2h19.2v4h-14.6v10.4h11.9v4h-11.9v10.6h15.4v4h-20V206.2z"/>
			<path class="st1" d="M459.3,206.2h4.6v29.1h14.8v4h-19.5V206.2z"/>
			<path class="st1" d="M504.8,206.2h4.6v33.1h-4.6V206.2z"/>
		</g>
		<g>
			<g>
				<path class="st2" d="M58.2,151"/>
				<path class="st2" d="M463.8,161.5"/>
			</g>
		</g>
		<rect x="10" y="11.8" class="st3" width="508.9" height="170.4"/>
		<rect x="14.4" y="16.2" class="st3" width="500.1" height="161.6"/>
	</g>
	<g>
		<path class="st4" d="M90.1,77.2c0-12.4-4.8-21.3-17.5-30.2c-3.3-2.3-7.5-3.4-12.3-3.4H38.1v98.8l8.9,8.9h22.2
			c14.6,0,22-11.7,22-29.4c0-11.3-2.9-17.9-9-23.8C87.9,93.3,90.1,87.2,90.1,77.2z M60.2,140.9H39.7V45.1h20.7
			c11.7,0,19.4,6.7,19.4,24.1c0,11.7-3,19.5-9.3,22.6c6.5,2.5,10.4,9.6,10.4,23.4C80.8,132.5,73.7,140.9,60.2,140.9z"/>
		<path class="st4" d="M57.3,97.7H55V129h3.7c5.3,0,7.4-4.4,7.4-15C66,101.8,62.2,97.7,57.3,97.7z"/>
		<path class="st4" d="M65.4,71.5c0-12.4-2.7-14.3-7-14.3H55v28.8h3.4C63.2,85.9,65.4,82.8,65.4,71.5z"/>
		<path class="st4" d="M129,43.6v7.6l-7.1-7.6h-18.2V123c0,6,1.5,10.8,4.3,14.2c11.8,14.3,18.1,15.7,26,15.7
			c11.7,0,21.5-9.1,21.5-22.3V52.6l-8.9-9H129z M145.1,122.8c0,13.1-8,19.6-20,19.6c-12.4,0-19.9-6.6-19.9-19.5V45.1h15.2v79.5
			c0,4.1,2.2,6.3,5.6,6.3s4.6-2.5,4.6-6.5V45.1h14.6V122.8z"/>
		<path class="st4" d="M188.8,97.7h-2.3V129h3.7c5.3,0,7.3-4.4,7.3-15C197.5,101.8,193.7,97.7,188.8,97.7z"/>
		<path class="st4" d="M196.9,71.5c0-12.4-2.7-14.3-7-14.3h-3.4v28.8h3.4C194.8,85.9,196.9,82.8,196.9,71.5z"/>
		<path class="st4" d="M221.6,77.2c0-12.4-4.8-21.3-17.5-30.2c-3.3-2.3-7.5-3.4-12.3-3.4h-22.2v98.8l8.9,8.9h22.2
			c14.6,0,22.1-11.7,22.1-29.4c0-11.3-2.9-17.9-9-23.8C219.5,93.3,221.6,87.2,221.6,77.2z M191.7,140.9h-20.5V45.1h20.7
			c11.7,0,19.4,6.7,19.4,24.1c0,11.7-3,19.5-9.3,22.6c6.5,2.5,10.4,9.6,10.4,23.4C212.4,132.5,205.3,140.9,191.7,140.9z"/>
		<path class="st4" d="M254.8,97.7h-2.3V129h3.7c5.3,0,7.3-4.4,7.3-15C263.6,101.8,259.8,97.7,254.8,97.7z"/>
		<path class="st4" d="M262.9,71.5c0-12.4-2.7-14.3-7-14.3h-3.4v28.8h3.4C260.8,85.9,262.9,82.8,262.9,71.5z"/>
		<path class="st4" d="M287.6,77.2c0-12.4-4.8-21.3-17.5-30.2c-3.3-2.3-7.5-3.4-12.3-3.4h-22.2v98.8l8.9,8.9h22.2
			c14.6,0,22.1-11.7,22.1-29.4c0-11.3-2.9-17.9-9-23.8C285.5,93.3,287.6,87.2,287.6,77.2z M257.7,140.9h-20.5V45.1h20.7
			c11.7,0,19.4,6.7,19.4,24.1c0,11.7-3,19.5-9.3,22.6c6.5,2.5,10.4,9.6,10.4,23.4C278.4,132.5,271.3,140.9,257.7,140.9z"/>
		<path class="st4" d="M301.7,43.6v98.8l9,8.9h18.2V52.6l-8.9-9H301.7z M318.5,141.2h-15.3V45.1h15.3V141.2z"/>
		<path class="st4" d="M370.9,127.5v-19.4h14.3v-15l-8.9-9.1h-5.4V67.4h17.2V52.6l-8.9-9h-35.6v98.8l8.7,8.9h36v-14.8l-9-9H370.9z
			 M377.9,140.9h-32.7V45.1h32.6v11.9h-17.2v28.5h14.3v12.2h-14.3V129h17.4V140.9z"/>
		<path class="st4" d="M401.3,43.6v17.1l5.4,5.4c-1,1-3.2,2.7-5.2,3.9l5.3,5.2l9,9c7-4.2,11.7-8.9,11.7-16.3V52.5l-8.9-8.9H401.3z
			 M417.1,59.5c0,5.4-3.5,10.5-10,14.1l-3.2-3.2c3.5-2.3,7.1-5.2,7.1-11.2h-8.2V45.1h14.3V59.5z"/>
		<path class="st4" d="M474.9,85.2l12.8,1.1c0.5-3.8,0.9-8,0.9-13.3c0-13.3-4.7-20.4-16.9-28.5c-2.7-1.8-6.2-2.5-10.8-2.5
			c-15.1,0-20.1,10.1-20.1,23.1v1.5c0,11.4,3.4,19.4,11.7,29.4c5.4,6.6,9,12.5,10,18.1l-6.1-5.8l-14.2-1.5
			c-0.4,2.7-1.1,8.5-1.1,14.4c0,6.3,1,11.5,3.4,15.3c8.5,13.6,16.6,16.3,24.5,16.3c12.5,0,20.8-8.4,20.8-23.1v-1.9
			c0-10.6-3-22.4-9-32.8C478.5,91,474.9,85.2,474.9,85.2z M479.7,120.9c0,15.2-7.7,21.5-19.6,21.5c-12.4,0-17.5-7.5-17.5-21.3
			c0-5.3,0.5-10,0.9-12.8l11.2,1.3c-0.4,2.9-0.8,6.8-0.8,10.1c0,8.1,1.3,11.2,5.2,11.2c3.5,0,5.1-2.9,5.1-8.9v-2.7
			c0-7.5-2-14.2-10.4-24.3c-8.1-9.8-11.4-17.6-11.4-28.5V65c0-12.4,4.8-21.5,18.6-21.5c13.2,0,17.4,8.1,17.4,21.3
			c0,4.8-0.4,8.1-0.8,11.2l-11.3-1.3c0.3-2.5,0.5-3.4,0.5-8.5c0-8.2-1.1-11.3-4.7-11.3c-3.5,0-4.4,2.8-4.4,8.4v2
			c0,5.8,2.2,11.7,8.2,19.4c8.4,10.6,13.8,22.2,13.8,34.3V120.9z"/>
	</g>
	<g>
		<path class="st5" d="M268,91.8c6.2-3,9.3-10.9,9.3-22.6c0-17.4-7.7-24.1-19.4-24.1h-20.7v95.8h20.5c13.6,0,20.7-8.5,20.7-25.7
			C278.4,101.4,274.5,94.3,268,91.8z M252.5,57.2h3.4c4.3,0,7,1.9,7,14.3c0,11.3-2.2,14.4-7,14.4h-3.4V57.2z M256.2,129h-3.7V97.7
			h2.3c4.9,0,8.7,4.1,8.7,16.3C263.6,124.6,261.5,129,256.2,129z"/>
		<path class="st5" d="M202,91.8c6.2-3,9.3-10.9,9.3-22.6c0-17.4-7.7-24.1-19.4-24.1h-20.7v95.8h20.5c13.6,0,20.7-8.5,20.7-25.7
			C212.4,101.4,208.4,94.3,202,91.8z M186.5,57.2h3.4c4.3,0,7,1.9,7,14.3c0,11.3-2.2,14.4-7,14.4h-3.4V57.2z M190.2,129h-3.7V97.7
			h2.3c4.9,0,8.7,4.1,8.7,16.3C197.5,124.6,195.5,129,190.2,129z"/>
		<rect x="303.2" y="45.1" class="st5" width="15.3" height="96.1"/>
		<polygon class="st5" points="360.5,97.7 374.8,97.7 374.8,85.6 360.5,85.6 360.5,57.1 377.7,57.1 377.7,45.1 345.2,45.1 
			345.2,140.9 377.9,140.9 377.9,129 360.5,129 		"/>
		<path class="st5" d="M130.5,124.5c0,3.9-1.1,6.5-4.6,6.5s-5.6-2.3-5.6-6.3V45.1h-15.2V123c0,12.9,7.5,19.5,19.9,19.5
			c12,0,20-6.6,20-19.6V45.1h-14.6V124.5z"/>
		<path class="st5" d="M70.4,91.8c6.2-3,9.3-10.9,9.3-22.6c0-17.4-7.7-24.1-19.4-24.1H39.7v95.8h20.5c13.6,0,20.7-8.5,20.7-25.7
			C80.8,101.4,76.9,94.3,70.4,91.8z M55,57.2h3.4c4.3,0,7,1.9,7,14.3c0,11.3-2.2,14.4-7,14.4H55V57.2z M58.7,129H55V97.7h2.3
			c4.9,0,8.7,4.1,8.7,16.3C66,124.6,64,129,58.7,129z"/>
		<path class="st5" d="M402.8,59.2h8.2c0,6-3.5,8.9-7.1,11.2l3.2,3.2c6.5-3.5,10-8.6,10-14.1V45.1h-14.3V59.2z"/>
		<path class="st5" d="M457.7,65.3v-2c0-5.6,0.9-8.4,4.4-8.4c3.5,0,4.7,3,4.7,11.3c0,5.1-0.3,6-0.5,8.5l11.3,1.3
			c0.4-3,0.8-6.3,0.8-11.2c0-13.2-4.2-21.3-17.4-21.3c-13.8,0-18.6,9.1-18.6,21.5v1.5c0,10.9,3.3,18.8,11.4,28.5
			c8.4,10.1,10.4,16.9,10.4,24.3v2.7c0,6-1.5,8.9-5.1,8.9c-3.9,0-5.2-3-5.2-11.2c0-3.3,0.4-7.2,0.8-10.1l-11.2-1.3
			c-0.4,2.8-0.9,7.5-0.9,12.8c0,13.8,5.1,21.3,17.5,21.3c11.9,0,19.6-6.3,19.6-21.5V119c0-12.2-5.4-23.7-13.8-34.3
			C459.8,77,457.7,71.1,457.7,65.3z"/>
	</g>
</g>
</svg>
