<?xml version="1.0" encoding="UTF-8"?>
<svg id="Layer_1" xmlns="http://www.w3.org/2000/svg" version="1.1" viewBox="0 0 230 146.77">
  <!-- Generator: Adobe Illustrator 29.6.0, SVG Export Plug-In . SVG Version: 2.1.1 Build 207)  -->
  <defs>
    <style>
      .st0, .st1 {
        fill: #90278e;
      }

      .st2 {
        fill: #9b8579;
      }

      .st3 {
        fill: #fff;
      }

      .st4 {
        fill: #009345;
      }

      .st4, .st5, .st1 {
        stroke-width: .49px;
      }

      .st4, .st1 {
        stroke: #fff;
      }

      .st5 {
        fill: none;
        stroke: #c8caca;
      }
    </style>
  </defs>
  <g>
    <path class="st4" d="M219.03,32.75l-.13-.06-.46-.21-.05-.75-.96-.27-2.94-10.01.69-.32.16-2.03,1.02-1.45-.05-.8-.37-.48-.11-1.44.37-.32.11-2.68,1.23-3.16s.37-2.84,1.87.05l.48-.05s2.73-4.01,4.33,1.39l1.82,5.3,1.5.27.21,1.66s5.51,1.18-.75,5.3l-1.61.75-.16,1.23-1.39-1.28-.38.32v2.19l-.96.75v.8s-1.07.16-.91.32-.59.43-.59.43l-.8-.32-.38.75-.53,2.94-.27,1.18h.01Z"/>
    <polygon class="st4" points="218.77 33.71 217.48 35.05 215.45 35.59 212.72 36.23 212.08 36.39 212.19 27.61 213.47 26.43 213.52 24.99 213.1 24.51 213.26 21.35 214.49 21.46 217.43 31.47 218.39 31.73 218.45 32.48 219.03 32.75 218.77 33.71"/>
    <polygon class="st4" points="213.1 23.12 206.19 24.83 206.41 26.38 207.05 28.42 207.05 29.43 207 30.51 207.53 31.41 208.07 32.64 208.71 33.87 209.19 35.32 209.24 36.76 212.08 36.39 212.19 27.61 213.47 26.43 213.52 24.99 213.1 24.51 213.1 23.12"/>
    <polygon class="st4" points="216.68 43.08 216.09 39.71 217.8 39.23 219.52 41.58 219.25 42.17 218.55 42.28 216.68 43.08"/>
    <path class="st4" d="M218.5,34.09l1.02.96-.8,1.44.22.8,1.12.16,1.61,1.87,1.34-.16s1.23-.59-1.02-1.5c0,.16,1.5-.21,1.5-.21,0,0,2.73,1.87-2.03,3.75l-.43-.91-.91.54v.86l-.59-.1-1.71-2.35-8.4,1.76-.16-4.23,8.24-1.71,1.02-.96h-.02Z"/>
    <polygon class="st4" points="209.94 46.67 209.4 40.99 216.09 39.71 216.68 43.08 215.61 43.72 214.91 44.26 212.83 44.63 209.94 46.67"/>
    <path class="st4" d="M201.86,42.76l-17.5,3.64-.11-1.82,2.78-2.89-.11-.86s-3.64-1.71,1.23-3c-.16.16,3.11.05,3.11.05l.75.21.91-.37,1.44-.32,1.39-1.66,1.07-.21-.06-1.23-.27-1.07-.8-.32-.22-1.18,1.34-1.34,1.02-1.23.86-1.5,1.23-1.28,2.03-.48,1.82-.43,1.18-.21,1.23-.43.11,1.12.69,2.25v2.3l2.19,4.82.21,5.67.48,5.46-.11.86-.05.64.8-.54,2.14-.59,1.93-1.12.75-.64.8.37-.91,1.07-2.03,1.45-1.93.86-1.61.43h-.59l.05-2.25-3.8-1.13-1.02-.59-.54-.91-.37-.96-.75-.05-.8-.59h.04Z"/>
    <polygon class="st4" points="207.42 59.51 207.32 58.22 205.92 57.96 204.85 57.42 204.16 56.51 204.05 55.23 206.46 52.71 204.69 50.78 203.84 50.46 203.78 49.61 204.53 49.13 204.11 48.49 204.32 47.73 204.8 47.47 204.91 46.13 205.34 45.86 209.14 46.99 209.24 49.02 208.49 50.09 209.51 50.3 209.78 55.12 208.12 57.63 208.07 58.92 207.42 59.51"/>
    <polygon class="st4" points="202.61 55.71 204.59 62.61 207.21 62.34 206.94 60.42 205.76 59.62 205.18 58.33 204.16 57.42 203.94 56.08 203.89 55.23 202.61 55.71"/>
    <polygon class="st4" points="207 64.54 205.18 65.34 204.37 64.27 202.61 63.95 202.07 62.51 202.55 62.08 201.96 61.59 202.23 59.94 201.75 59.29 202.23 58.06 201.8 57.96 200.84 59.4 200.89 61.33 201.32 63.25 202.12 64.32 202.5 65.5 201.16 65.23 199.18 64.75 197.95 64 198.06 63.36 196.4 60.42 195.6 59.88 195.17 59.62 193.4 58.38 192.17 58.92 190.89 59.24 190.41 59.24 189.76 59.72 189.34 60.1 188.75 60.85 188.1 61.54 187.57 58.55 202.61 55.71 204.59 62.61 207.21 62.34 207.37 63.84 207 64.54"/>
  </g>
  <g>
    <g>
      <polygon class="st2" points="181.19 47.12 180.27 47.36 176.62 50.25 176.18 50.65 175.01 50.73 174.01 51.29 172.89 51.29 172.08 50.73 170.48 50.69 169.52 49.89 168.67 50.29 166.75 50.41 163.82 50.65 165.58 65.42 166.75 65.5 166.95 65.18 167.55 65.3 168.47 66.78 170.12 66.82 170.44 67.51 171.04 67.1 171.4 66.82 172 66.9 172.53 67.43 173.69 66.26 174.01 66.42 175.4 67.75 176.31 67.75 176.46 67.1 176.9 66.68 177.12 64.43 177.81 64.38 177.81 64.96 178.4 64.86 178.35 63.09 178.93 61.91 180.11 61.7 181.88 59.93 181.77 54.96 182.28 53.66 181.19 47.12"/>
      <polygon class="st2" points="152.9 52.25 153.86 52.58 155.83 51.37 163.82 50.65 165.58 65.42 165.18 65.94 165.38 66.42 165.82 66.78 164.66 67.71 163.34 67.75 163.21 69.23 161.53 70.8 161.49 72.08 160.08 72 159.76 71.68 158.96 72.24 158.92 73.21 158.28 73.12 157.83 72.48 157.15 72.68 156.47 73.61 155.91 73.57 155.51 73 153.38 73.25 152.3 74.05 152.38 71.88 154.02 69.35 154.26 67.39 153.58 66.7 152.9 52.42 152.9 52.25"/>
      <polygon class="st2" points="151.16 47.89 151.21 49.44 152.12 50.57 152.9 52.25 153.58 66.7 154.26 67.39 154.02 69.35 152.38 71.88 152.12 75.93 150.81 76.25 150.85 77.38 151.09 77.62 150.77 78.46 149.13 77.74 147.88 78.14 147.84 79.04 147.04 78.99 146.4 77.65 146.45 76.84 145.49 74.65 144.2 74.65 142.01 71.92 143.13 69.41 142.76 68.87 140.41 68.5 140.46 67.1 137.2 64.16 136.71 62.82 136.66 60.68 137.25 60.36 137.14 59.29 138.32 58.97 138.32 57.63 138.91 57.26 138.75 56.4 138.16 55.92 138.21 55.06 138.75 54.58 139.71 54.58 141.1 53.51 141.69 51.1 139.44 49.07 139.39 48.27 151.16 47.89"/>
      <path class="st2" d="M136.76,43.34l-.11-1.87-2.89-2.41-.59-.91h-.8l-.16-.69h-1.12l-.75-.86-.16-2.83.32-.8.05-.8-.69-.75.32-.64,1.93-2.19.21-3.05s2.36.05,2.19,0c-.16-.05,2.84-1.61,2.84-1.61l.8.38-.96,1.39.48.32,1.02-.21,1.07.59.65.8,1.12.21,2.35.43,4.55,1.07,1.07,1.02.43,2.35.69,1.02-1.39,2.35.16.91.54-.16,3.05-4.39.21.8-1.71,4.01v1.82l-.43,1.07.27,1.5-.59,1.07-.27,1.18.69,4.44-11.77.37-1.18-.59-.96-1.07-.11-1.34.8-.43-.32-.64-.86-.86h0Z"/>
      <polygon class="st2" points="113.17 13.38 113.75 14.71 111.96 16.44 113.43 18.62 116.33 20.57 119.24 23.97 127.01 26.16 136.76 43.34 136.66 41.47 133.77 39.06 133.34 38.15 132.38 38.15 132.22 37.46 131.09 37.46 130.34 36.6 130.18 33.77 130.5 32.96 130.56 32.16 129.86 31.41 129.97 30.98 132.11 28.57 132.32 25.52 135.59 22.74 136.34 21.35 142.06 18.25 142.28 17.76 140.89 17.87 140.08 17.44 137.35 17.39 137.25 16.85 135.53 17.87 133.98 17.87 133.87 17.23 132.91 17.23 132.65 16.27 131.79 16.75 129.38 15.2 127.94 15.09 127.24 15.57 126.17 15.68 125.85 15.25 124.51 15.3 123.28 14.77 122.26 11.24 120.87 11.13 120.93 13.16 113.17 13.38"/>
      <polygon class="st2" points="155.83 51.37 156.83 49.53 157.67 48.16 157.64 44.91 155.75 41.7 156.03 38.09 156.47 35.08 157.03 34.88 156.91 33.75 158 32.87 158.24 31.99 158.8 31.78 159 32.55 158.52 33.51 158.44 34.31 159.36 33.99 159.44 31.38 159.92 31.1 160.97 31.06 161.13 30.42 160.32 30.42 160.25 29.46 161.69 28.38 162.53 29.26 163.13 28.9 165.62 30.02 166.75 30.14 167.71 31.55 167.07 32.03 167.11 32.51 167.87 33.19 167.79 35.96 167.07 36.88 166.75 37.97 166.26 38.01 166.06 39.57 167.19 39.85 168.11 38.53 168.51 37.65 169.92 36.84 171.36 38.97 172.25 42.14 172.33 45.11 171.4 45.07 170.56 46.96 170.4 48.28 169.52 49.89 168.67 50.29 155.83 51.37"/>
      <polygon class="st2" points="150.63 33.28 152.38 29.26 152.94 29.26 153.58 29.42 154.47 28.86 154.95 29.1 155.71 28.05 157.83 27.73 158.28 27.21 161.01 27.61 163.74 27.05 166.1 27.33 166.35 26.85 165.78 26.09 164.22 26.57 163.58 26.09 163.34 24 162.61 24.24 162.29 24.44 160.77 25 159.8 24.68 159.8 23.28 159.04 23.4 157.67 24 155.35 24.04 153.78 25.36 150.93 25.28 149.37 23.6 148.04 23.36 146.72 24.04 146.6 23.32 147.16 22.6 147.2 22.11 148.97 20.83 149.29 20.51 149.09 20.07 147.44 20.39 145.07 22.43 144.91 23.16 143.03 24.32 141.86 24.52 141.22 25.2 139.62 25.68 139.53 26.25 139.76 26.38 140.41 27.18 148.43 28.89 149.5 29.91 149.93 32.27 150.63 33.28"/>
    </g>
    <polygon class="st2" points="158.73 115.7 156.91 116.29 156.59 116.02 157.12 115.64 156.48 113.98 155.73 113.82 155.41 114.63 155.35 115.43 154.12 115.64 153.27 107.62 153.48 89.63 164.88 88.83 164.88 90.6 168.57 102.05 169.38 103.28 169.43 104.46 168.89 104.94 169.16 109.33 169.59 109.7 169.7 110.45 157.44 111.79 157.34 112.75 158.62 113.77 158.73 115.7"/>
    <polygon class="st2" points="154.12 115.64 151.23 115.91 149.41 116.23 148.77 117.03 148.18 116.23 147.17 114.79 147.22 112.86 138.71 113.02 138.5 110.67 140.37 107.67 140.8 106.97 140.96 105.9 141.17 105.53 140.64 104.73 140.21 103.39 140.05 102.21 140.05 101.3 140.16 99.48 140.1 96.91 141.01 95.04 142.19 93.97 142.4 92.37 143.74 91.19 143.74 90.28 144.01 90.12 153.48 89.63 153.27 107.62 154.12 115.64"/>
    <path class="st2" d="M162.41,110.52l-4.7-2.19-1.21,2.75-1.94,4.05-2.35.41-3.81-19.11v-6.31l8.01-.41,4.29,1.46,2.02,3.08s4.21,7.29,4.37,7.61c.16.32-4.7,8.66-4.7,8.66h.02Z"/>
  </g>
  <path class="st5" d="M19.85,0l20.21,5.34,4.03.66,20.66,3.8,22.91,2.95,25.3,1.06,7.76-.21-.05-2.03,1.39.11,1.02,3.53,1.23.54,1.34-.05.32.43,1.07-.11.69-.48,1.45.11,2.41,1.55.86-.48.27.96h.96l-.11,1.04,1.77-.39,1.71-1.02-.08.93,2.92-.34.8.43,1.18.38-5.73,3.1-.75,1.39-3.27,2.78h2.2l2.84-1.61.42.54-.97,1.34.87.21,1.02-.22.92-.11,1.6-.48.64-.68.65.06,2.41-1.42.16-.72,2.37-2.05,1.38.06-2.06,1.7-.61.85.57,1.04,1.01-.31,1.64-.13,1.57,1.69,2.85.08,1.57-1.32,2.33-.04,1.36-.6.76,1.29.96.32,2.57-1.01.24,2.09.64.48,1.57-.48.56.76-2.61.2-2.73.56-2.73-.4-.44.52-2.13.32-.76,1.04-.54-.63-.83.95-1.2-.16-3.14,6.38.16.91.54-.16,3.26-3.59-1.71,4.01v1.82l-.43,1.07-.17,1.27-.61,2.06.49,4.61v1.94l1.36.97.77,1.69.96.32,1.97-1.21,1.85-3.21-.04-3.25-1.89-3.21.72-6.62.56-.2-.12-1.12,1.08-.88.24-.88.76.56-.48.96-.08.8,1.31-.26-.31-2.67,1.53-.32.16-.65h-.8l-.08-.96,1.44-1.09.84.88.6-.36,2.49,1.12,1.12.12.96,1.41-.64.48.04.48.76.68-.08,2.77-1.53,2.05-.68-.07.48,1.64,1.13.28,1.32-2.21,1.2-.44,1.65,1.76.88,3.17-.35,2.72-.49.21-.84,1.89-.36.82-.97,1.7.73,1.34,2.19.36.75.12h1.13l1-.56,1.16-.08,5.02-3.53,2.98-2.91,2.84-2.68-.11-.86s-3.17-1.68,1.23-3l3.11.05.75.22,1.28-.25,1.08-.45,1.39-1.66,1.07-.21-.32-2.3-.42-.36-.59-1.14,2.35-2.57.86-1.5,1.23-1.28,5.86-1.28,7.3-1.99.16-1.77,1.23.11.69-.32.16-2.03,1.02-1.45-.05-.8-.37-.48.27-1.76.11-2.68,2-4.19,1.11,1.09.48-.05s3.03-3.1,3.63.79c.24.36,2.06,6.07,2.06,6.07l1.95.1.21,1.66s5.72.86-2.35,6.05l-.3.82-1.25-.87-.38.32-.44,1.76-.53,1.18v.8l-.91.32-1.39.11-1.3,4.27-.14,1.56-.27.38,1.02.96-.8,1.45.22.8,1.12.16,1.61,1.87s2.72-.02,1.38-1.35l.44-.52s2.73,1.87-2.03,3.75l-.35-1.29-1.09.49-.49,1.18-2.67,1.01-1.93,1.66-2.2-.08-2.83,2.28-.75.53.11,2.03-1.14,1.1,1.41.18.27,4.82-1.66,2.52-.5,1.23-2.76-1.44-.88-1.72.18,1.72.91,1.32,1.46,1.46.84,3.64-.35,1.7-.8.96.12,1.73-.48,1.37-.96-.28.28-3.97-.35-1.26-2.22-.14-.53-1.45.48-.43-.59-.48.27-1.66-.48-.64.48-1.23-.43-.11-1.35,1.52.49,3.64,1.21,1.82.83,1.26.16,1.82-.59.86,1.34,1.76-.48.7.16.59,1.61-.54,3.16,5.4-.48,1.45-1.23,1.76-1.71.32-.08,2.46h1.34l-.45,1.44s-3.8-1.08-5.99,4.99l-2.57,1.06-1.44,1.82-.54,2.84-5.03,4.6-1.76,2.68s-1.4,2.44-2.01,7.29l2.6,5.98,3.84,5.56.12,1.4,3.77,7.1.73,5.95-.48.76v1.92l-1.12,1.29h-1.18l-.86.28-.61-1.7-1.85-1.74h-1.39l-.7-.7-.27-1.34-.86-.91-1.23.43-1.39-2.89-1.98-2.57,1.55-1.71-.03-1.45-1.53.59-.05.43-.61-1.75.18-.72v-2.73l-1.34-1.55-1.44-.27-3.48-3.53-1.23-.54-1.82.21v1.02l-2.4.82-2.09.58-.05-.75-3.75-1.92-4.67-.45-1.21,1.09h-.8l-1.61-.05-.64-1.66-1.2-.47-.49,1.7-5.38,1.02-2.27,1.89.67.68.91-.06.11-.69,1.02.22-.11.85-1.02.75-.27,1.18,2.73.8-.11,1.29-2.62-.91-.86-1.23-.75.48-.27,1.71-1.02-.21.37-1.09-1.49.92-.59.7-1.55.16-1.61-1.45.32-.32-.06-.87-1.44.33-.37-1.12-2.68-.11.11,1.18-3.26-.32-1.55-.8-3.37.43-3.32,1.23-6.22,4.29-7.7,4.7-.2,1.13.46.74-1.56,2.66.12,1.7,1.46,3.64-1.09.61-1.02-.31-2.73-.27-.87-1.24-1.7.28-2.03-1.71-.43-1.71-.45-1.1-.56-2.91-1.13-.69-2.2-3.56-2.19-4.63-3.16-3.64-3.69-.43-.43-.54h-.96l-2.08.97-.49,1.7-1.58,1.46-3.28-2.19-2.91-2.27-.11-2.41-.39-2.25-1.94-1.82-.56.49-2.35-3.64-1.5-.32-1.23-1.92-.79-.67-6.97-.35-.44,1.68-4.01-.24-9.68-.8-15.34-10.01.12-1.09-11.11-.83-.16-3.85-2.62-3.85-1.5-.32-.05-1.5-1.55-.27-2.25-3.26h-1.12l-1.55-.96-1.39-.33-.64-.53,1.37-3.36-2.87-4.4-.11-1.02-1.23-1.66-.05-2.03.75-.37.43-1.55-.91-.32-.86-1.18-.11-2.78.43-1.18-1.44-1.39.05-2.2-1.93-3.75.8-2.65-.21-3.83-1.23-1.71.43-1.55,2.84-3.8.48-8.3,2.78-4.23,4.98-12.47v-2.14l1.02-.96-.59-.27.32-.94,1.21-.24-1.32-.85-.02-4.97-.85-.61.98-1.96,1.45,1.6,5.1,1.82,1.46,1.94.24-4.25.61-.73L19.9.02l-.05-.02Z"/>
  <g>
    <polygon class="st1" points="181.15 47.09 182.43 54.05 183.45 59.29 202.61 55.71 204.43 55.01 206.46 52.71 204.69 50.78 203.84 50.46 203.78 49.61 204.53 49.13 204.11 48.49 204.32 47.73 204.8 47.47 204.91 46.13 205.34 45.86 204.32 45.27 203.41 43.4 202.66 43.35 201.86 42.76 184.36 46.4 184.2 44.36 181.15 47.09"/>
    <polygon class="st1" points="205.98 73.15 193.4 75.88 173.55 78.29 174.89 77.27 175.58 77.01 175.47 76.2 178.63 73.05 179.65 74.06 181.04 74.38 181.68 73.74 182.32 74.17 183.5 73.9 183.93 72.83 185 72.62 185.91 72.4 186.5 71.5 186.45 69.89 188.05 65.34 188.59 65.72 188.96 66.04 189.98 65.93 190.09 64.27 190.94 64 192.49 61.59 192.49 59.77 193.35 59.88 195.28 60.79 195.33 59.83 196.4 60.42 198.06 63.36 197.95 64 199.18 64.75 201.59 65.45 202.07 66.09 202.98 66.2 203.14 68.02 203.52 68.44 202.55 68.87 202.71 69.41 203.89 70.64 203.78 71.28 203.41 71.33 203.57 71.92 204.37 71.82 205.18 71.39 205.98 73.15"/>
    <path class="st1" d="M197.15,90.28l-5.62-4.01-4.92.27-1.02-1.29-6.15.32-3.91,1.98-5.19.32.05-1.23,1.13-.16.21-1.12,4.12-2.41.37-1.12,1.82-.54.59-.86,1.45-.11.91-1.34.06-1.61,11.77-1.39,13.16-2.83.7,1.18,1.66,2.46-.48,1.44-.7.91-.54.86-1.71.32-.05,1.98,1.76.21-.91,1.71s-4.71-.48-5.78,5.62l-2.78.43h0Z"/>
    <polygon class="st1" points="188.37 102.21 187.46 102.21 186.93 101.41 186.98 100.55 186.29 100.02 185.43 100.02 185.32 98.84 184.15 96.75 183.34 96.7 181.63 94.72 179.92 93.28 179.44 93.11 177.51 90.33 176.17 90.22 175.16 89.53 174.99 88.46 175.74 87.5 179.44 85.57 185.59 85.25 186.61 86.53 191.53 86.26 197.15 90.28 195.71 92.1 195.44 93.06 195.17 94.93 194.42 95.68 193.03 97.23 190.41 99.54 190.14 99.54 190.03 100.34 188.37 102.21"/>
    <polygon class="st1" points="186.82 109.97 184.09 109.92 184.09 110.77 184.52 110.83 184.47 112.7 183.56 112.27 183.5 111.68 171.09 112.16 169.86 110.67 169.59 109.7 169.16 109.33 169 106.87 168.89 104.94 169.43 104.46 169.38 103.28 168.57 102.05 167.13 97.29 166.06 93.65 164.99 90.87 164.88 88.83 175.53 87.55 174.99 88.46 175.16 89.53 176.17 90.22 177.51 90.33 179.44 93.11 179.92 93.28 181.63 94.72 183.34 96.7 184.15 96.75 185.32 98.84 185.43 100.02 186.29 100.02 186.98 100.55 186.93 101.41 187.46 102.21 188.37 102.21 188.27 103.01 187.89 103.82 187.3 105.96 186.82 109.97"/>
    <polygon class="st1" points="182.27 53.62 181.79 55.12 181.9 60.1 180.13 61.86 178.95 62.08 178.37 63.25 178.42 65.02 177.83 65.13 177.83 64.54 177.14 64.59 176.92 66.84 176.44 67.43 176.33 67.91 175.42 67.91 175.42 70 176.54 70.53 177.19 72.08 178.63 73.05 179.65 74.06 181.04 74.38 181.68 73.74 182.32 74.17 183.5 73.9 183.93 72.83 185.91 72.4 186.5 71.5 186.45 69.89 188.05 65.34 188.96 66.04 189.98 65.93 190.09 64.27 190.94 64 192.49 61.59 192.49 59.77 193.35 59.88 195.28 60.79 195.33 59.83 193.4 58.38 190.41 59.24 188.1 61.54 187.57 58.55 183.5 59.13 182.27 53.62"/>
    <polygon class="st1" points="181.04 77.38 155.03 80.38 153 80.38 153.05 81.66 146.36 81.77 146.26 83.8 145.46 85.73 145.24 87.12 144.87 87.66 143.9 87.82 144.01 88.46 144.33 88.67 144.01 90.12 153.27 89.69 164.88 88.83 170.39 88.03 170.39 86.64 171.52 86.48 171.73 85.35 175.85 82.95 176.22 81.82 178.04 81.29 178.63 80.43 180.08 80.32 180.99 78.99 181.04 77.38"/>
    <polygon class="st1" points="207 64.54 205.46 65.26 205.22 66.75 204.89 69.31 205.34 70.2 205.86 69.6 206.34 68.23 206.22 66.51 207.02 65.54 207 64.54"/>
    <polygon class="st1" points="146.82 81.75 147.34 81.07 147.86 81.11 147.86 80.03 148.22 79.79 148.14 79.47 147.94 78.87 147.9 78.3 149.15 77.9 150.79 78.62 151.11 77.78 150.87 77.54 150.83 76.42 152.16 76.26 152.2 75.33 152.32 74.21 153.4 73.41 155.53 73.17 155.93 73.73 156.49 73.77 157.17 72.84 157.86 72.65 158.3 73.29 158.94 73.37 158.98 72.4 159.78 71.84 160.1 72.16 161.51 72.24 161.55 70.96 163.23 69.39 163.36 67.91 164.68 67.87 165.84 66.95 165.4 66.58 165.16 65.94 165.6 65.58 166.77 65.66 166.97 65.34 167.57 65.46 168.49 66.95 170.14 66.98 170.46 67.67 171.42 66.98 172.03 67.07 172.55 67.59 173.71 66.42 174.03 66.58 175.42 67.91 175.42 70 176.54 70.53 177.19 72.08 178.63 73.05 175.47 76.2 175.52 77.14 174.89 77.27 173.75 78.14 155.03 80.38 153 80.38 153.05 81.66 146.82 81.75"/>
    <polygon class="st0" points="196.09 60.65 193.34 58.79 189.69 61.7 179.01 71.66 179.25 73.03 178.2 74.01 182.97 75.71 193.09 73.2 196.09 60.65"/>
  </g>
  <circle class="st4" cx="188.47" cy="69.03" r="2.95"/>
  <path class="st3" d="M187.73,69.84h.56v-1.35h-.49v-.44c.3-.06.48-.13.68-.25h.52v2.04h.47v.57h-1.73v-.57h0Z"/>
  <circle class="st4" cx="192.71" cy="81.24" r="2.95"/>
  <path class="st3" d="M191.97,82.05h.56v-1.35h-.49v-.44c.3-.06.48-.13.68-.25h.52v2.04h.47v.57h-1.73v-.57h0Z"/>
  <circle class="st4" cx="195.33" cy="50.07" r="2.95"/>
  <path class="st3" d="M194.59,50.88h.56v-1.35h-.49v-.44c.3-.06.48-.13.68-.25h.52v2.04h.47v.57h-1.73v-.57h0Z"/>
  <g>
    <circle class="st1" cx="199.88" cy="59.77" r="2.95"/>
    <path class="st3" d="M199.94,59.63c0-.17.02-.43.02-.6h-.02c-.06.15-.14.3-.21.46l-.23.43h1.34v.52h-1.99v-.48l.86-1.49h.86v2.53h-.64v-1.38Z"/>
  </g>
</svg>