<?xml version="1.0" encoding="UTF-8"?>
<svg id="Layer_1" xmlns="http://www.w3.org/2000/svg" version="1.1" viewBox="0 0 230 146.77">
  <!-- Generator: Adobe Illustrator 29.6.0, SVG Export Plug-In . SVG Version: 2.1.1 Build 207)  -->
  <defs>
    <style>
      .st0, .st1 {
        fill: #90278e;
      }

      .st2 {
        fill: #9b8579;
      }

      .st3 {
        fill: #fff;
      }

      .st4 {
        fill: #009345;
      }

      .st4, .st5, .st1 {
        stroke-width: .49px;
      }

      .st4, .st1 {
        stroke: #fff;
      }

      .st5 {
        fill: none;
        stroke: #c8caca;
      }
    </style>
  </defs>
  <g>
    <g>
      <polygon class="st2" points="181.14 47.48 180.22 47.72 176.56 50.62 176.12 51.02 174.95 51.1 173.95 51.66 172.82 51.66 172.02 51.1 170.41 51.06 169.45 50.26 168.6 50.66 166.67 50.78 163.74 51.02 165.51 65.81 166.67 65.89 166.87 65.57 167.48 65.69 168.4 67.17 170.05 67.21 170.37 67.9 170.97 67.49 171.33 67.21 171.94 67.29 172.46 67.82 173.63 66.65 173.95 66.81 175.34 68.14 176.25 68.14 176.4 67.49 176.84 67.07 177.05 64.82 177.75 64.76 177.75 65.35 178.34 65.24 178.29 63.48 178.88 62.3 180.05 62.08 181.82 60.32 181.71 55.33 182.22 54.03 181.14 47.48"/>
      <polygon class="st2" points="152.81 52.63 153.77 52.95 155.74 51.74 163.74 51.02 165.51 65.81 165.11 66.33 165.31 66.81 165.75 67.17 164.58 68.1 163.26 68.14 163.14 69.63 161.45 71.19 161.41 72.48 160 72.4 159.68 72.08 158.88 72.64 158.84 73.6 158.19 73.52 157.75 72.88 157.07 73.08 156.39 74 155.82 73.96 155.42 73.4 153.29 73.64 152.21 74.45 152.29 72.28 153.94 69.74 154.18 67.78 153.49 67.09 152.81 52.79 152.81 52.63"/>
      <polygon class="st2" points="151.07 48.26 151.12 49.81 152.03 50.94 152.81 52.63 153.49 67.09 154.18 67.78 153.94 69.74 152.29 72.28 152.03 76.33 150.72 76.66 150.76 77.78 151 78.02 150.68 78.87 149.03 78.14 147.79 78.54 147.75 79.44 146.94 79.39 146.3 78.05 146.35 77.24 145.39 75.05 144.1 75.05 141.91 72.32 143.03 69.8 142.66 69.26 140.3 68.89 140.36 67.49 137.09 64.55 136.61 63.21 136.55 61.07 137.14 60.74 137.03 59.67 138.21 59.35 138.21 58.01 138.8 57.64 138.64 56.78 138.05 56.3 138.1 55.44 138.64 54.96 139.6 54.96 141 53.88 141.59 51.47 139.34 49.44 139.28 48.63 151.07 48.26"/>
      <path class="st2" d="M136.66,43.71l-.11-1.87-2.89-2.41-.59-.91h-.8l-.16-.7h-1.12l-.75-.86-.16-2.84.32-.8.05-.8-.7-.75.32-.64,1.93-2.2.21-3.05s2.36.05,2.2,0,2.84-1.61,2.84-1.61l.8.38-.96,1.39.48.32,1.02-.21,1.07.59.65.8,1.12.21,2.36.43,4.56,1.07,1.07,1.02.43,2.36.7,1.02-1.39,2.36.16.91.54-.16,3.05-4.39.21.8-1.71,4.02v1.82l-.43,1.07.27,1.5-.59,1.07-.27,1.18.7,4.45-11.79.37-1.18-.59-.97-1.07-.11-1.34.8-.43-.32-.64-.86-.86h0Z"/>
      <polygon class="st2" points="113.03 13.7 113.62 15.04 111.82 16.78 113.3 18.95 116.2 20.91 119.11 24.31 126.89 26.5 136.66 43.71 136.55 41.83 133.66 39.42 133.23 38.51 132.26 38.51 132.1 37.81 130.98 37.81 130.23 36.96 130.07 34.12 130.39 33.31 130.44 32.51 129.75 31.76 129.85 31.33 132 28.92 132.21 25.87 135.48 23.08 136.23 21.69 141.96 18.58 142.18 18.1 140.78 18.2 139.98 17.78 137.25 17.72 137.14 17.19 135.43 18.2 133.87 18.2 133.76 17.56 132.8 17.56 132.53 16.6 131.67 17.08 129.26 15.53 127.82 15.42 127.12 15.9 126.05 16.01 125.73 15.58 124.39 15.63 123.16 15.1 122.14 11.56 120.75 11.45 120.8 13.49 113.03 13.7"/>
      <polygon class="st2" points="155.74 51.74 156.75 49.9 157.59 48.53 157.55 45.27 155.66 42.06 155.94 38.44 156.39 35.43 156.95 35.23 156.83 34.1 157.91 33.22 158.15 32.34 158.72 32.13 158.92 32.9 158.44 33.86 158.36 34.67 159.28 34.35 159.36 31.73 159.84 31.45 160.89 31.41 161.05 30.77 160.24 30.77 160.16 29.81 161.61 28.72 162.45 29.6 163.06 29.24 165.55 30.37 166.67 30.49 167.64 31.89 167 32.38 167.03 32.86 167.8 33.54 167.72 36.31 167 37.24 166.67 38.32 166.19 38.36 165.99 39.93 167.12 40.21 168.04 38.89 168.44 38 169.85 37.2 171.29 39.33 172.18 42.5 172.26 45.48 171.33 45.44 170.49 47.32 170.33 48.65 169.45 50.26 168.6 50.66 155.74 51.74"/>
      <polygon class="st2" points="150.53 33.63 152.29 29.6 152.85 29.6 153.49 29.76 154.38 29.2 154.86 29.44 155.62 28.4 157.75 28.08 158.19 27.55 160.93 27.95 163.66 27.39 166.03 27.68 166.27 27.19 165.71 26.43 164.14 26.91 163.5 26.43 163.26 24.34 162.53 24.58 162.21 24.78 160.69 25.34 159.72 25.02 159.72 23.62 158.96 23.74 157.59 24.34 155.26 24.38 153.69 25.71 150.84 25.63 149.27 23.94 147.95 23.7 146.62 24.38 146.5 23.66 147.06 22.93 147.11 22.45 148.87 21.17 149.19 20.84 148.99 20.4 147.35 20.72 144.97 22.77 144.82 23.5 142.93 24.66 141.76 24.86 141.12 25.54 139.51 26.03 139.43 26.59 139.66 26.72 140.3 27.53 148.34 29.24 149.41 30.26 149.84 32.62 150.53 33.63"/>
    </g>
    <polygon class="st0" points="158.64 116.14 156.82 116.73 156.5 116.46 157.03 116.09 156.39 114.43 155.64 114.27 155.32 115.07 155.27 115.87 154.04 116.09 153.18 108.05 153.39 90.05 164.81 89.25 165.8 91.02 168.5 102.48 169.31 103.71 169.36 104.89 168.82 105.38 169.09 109.77 169.52 110.14 169.63 110.89 157.36 112.23 157.25 113.2 158.54 114.21 158.64 116.14"/>
    <polygon class="st0" points="154.04 116.09 151.14 116.36 149.32 116.68 148.68 117.48 148.09 116.68 147.07 115.23 147.12 113.3 138.61 113.46 138.39 111.11 140.27 108.11 140.69 107.41 140.86 106.34 141.07 105.96 140.53 105.16 140.11 103.82 139.95 102.64 139.95 101.73 140.05 99.91 140 97.34 140.91 95.46 142.09 94.39 142.3 92.78 143.64 91.6 143.64 90.69 143.91 90.53 153.39 90.05 153.18 108.05 154.04 116.09"/>
    <path class="st0" d="M161.85,110.96l-4.7-2.19-1.22,2.76-1.95,4.05-2.35.41-3.81-19.13v-6.32l8.02-.41,4.3,1.46,2.03,3.08s4.21,7.29,4.38,7.62c.16.32-4.7,8.67-4.7,8.67h0Z"/>
  </g>
  <path class="st5" d="M19.88,0l20.23,5.35,4.04.66,20.68,3.8,22.94,2.96,25.33,1.06,7.77-.21-.06-2.04,1.39.11,1.02,3.54,1.23.54,1.34-.05.32.43,1.07-.11.7-.48,1.45.11,2.41,1.55.86-.48.27.97h.96l-.11,1.04,1.77-.4,1.71-1.02-.08.93,2.92-.34.8.43,1.18.38-5.73,3.11-.75,1.39-3.27,2.78h2.2l2.84-1.61.42.54-.97,1.34.88.21,1.02-.22.93-.11,1.61-.48.64-.68.65.06,2.41-1.42.16-.72,2.37-2.05,1.38.06-2.07,1.7-.61.85.57,1.04,1.01-.31,1.64-.13,1.57,1.69,2.85.08,1.57-1.33,2.33-.04,1.37-.6.76,1.29.97.32,2.57-1.01.24,2.09.64.48,1.57-.48.56.76-2.61.2-2.73.56-2.73-.4-.44.52-2.13.32-.77,1.04-.54-.63-.83.95-1.2-.16-3.15,6.39.16.91.54-.16,3.27-3.59-1.71,4.02v1.82l-.43,1.07-.17,1.27-.61,2.07.49,4.62v1.95l1.36.97.78,1.69.97.32,1.97-1.21,1.85-3.21-.04-3.26-1.89-3.21.72-6.63.56-.2-.12-1.12,1.08-.88.24-.89.76.56-.48.97-.08.8,1.31-.26-.31-2.67,1.53-.32.16-.65h-.8l-.08-.96,1.45-1.09.84.89.6-.36,2.49,1.12,1.12.12.97,1.41-.64.48.04.48.77.68-.08,2.77-1.53,2.05-.68-.07.48,1.64,1.13.28,1.33-2.21,1.2-.44,1.65,1.76.89,3.18-.35,2.72-.49.21-.84,1.89-.36.82-.97,1.7.73,1.34,2.19.36.75.12h1.13l1-.56,1.16-.08,5.02-3.54,2.99-2.92,2.84-2.68-.11-.86s-3.18-1.69,1.23-3l3.11.05.75.22,1.28-.25,1.08-.45,1.39-1.66,1.07-.21-.32-2.3-.43-.36-.59-1.14,2.36-2.57.86-1.5,1.23-1.28,5.87-1.28,7.31-1.99.16-1.77,1.23.11.7-.32.16-2.04,1.02-1.45-.05-.8-.37-.48.27-1.77.11-2.68,2-4.19,1.11,1.09.48-.05s3.03-3.1,3.64.79c.24.36,2.07,6.08,2.07,6.08l1.96.1.21,1.66s5.73.86-2.36,6.05l-.3.82-1.25-.87-.38.32-.44,1.77-.53,1.18v.8l-.91.32-1.39.11-1.3,4.27-.14,1.57-.27.38,1.02.97-.81,1.45.22.8,1.12.16,1.61,1.87s2.72-.02,1.38-1.36l.44-.52s2.73,1.87-2.03,3.75l-.35-1.29-1.09.49-.49,1.18-2.67,1.01-1.93,1.66-2.2-.08-2.84,2.28-.75.54.11,2.04-1.14,1.1,1.41.18.27,4.82-1.66,2.52-.5,1.23-2.77-1.44-.88-1.72.18,1.72.91,1.32,1.46,1.46.85,3.65-.35,1.7-.8.97.12,1.73-.48,1.37-.97-.28.28-3.97-.35-1.26-2.22-.14-.53-1.45.48-.43-.59-.48.27-1.66-.48-.64.48-1.23-.43-.11-1.35,1.52.49,3.65,1.22,1.82.83,1.26.16,1.82-.59.86,1.34,1.77-.48.7.16.59,1.61-.54,3.16,5.41-.48,1.45-1.23,1.77-1.71.32-.08,2.47h1.34l-.45,1.44s-3.81-1.08-6,5l-2.58,1.06-1.45,1.82-.54,2.84-5.04,4.6-1.77,2.68s-1.4,2.44-2.01,7.3l2.6,5.98,3.84,5.57.12,1.4,3.77,7.11.73,5.96-.48.76v1.92l-1.12,1.3h-1.18l-.86.28-.61-1.7-1.85-1.74h-1.39l-.7-.7-.27-1.34-.86-.91-1.23.43-1.39-2.89-1.98-2.57,1.56-1.71-.03-1.45-1.53.59-.05.43-.61-1.75.18-.72v-2.73l-1.34-1.55-1.45-.27-3.48-3.53-1.23-.54-1.82.21v1.02l-2.4.82-2.1.58-.05-.75-3.75-1.93-4.68-.45-1.22,1.09h-.8l-1.61-.05-.64-1.66-1.2-.47-.49,1.7-5.39,1.02-2.27,1.9.67.68.91-.06.11-.7,1.02.22-.11.85-1.02.75-.27,1.18,2.73.8-.11,1.29-2.62-.91-.86-1.23-.75.48-.27,1.71-1.02-.21.37-1.09-1.49.92-.59.7-1.55.16-1.61-1.45.32-.32-.06-.87-1.44.33-.37-1.12-2.68-.11.11,1.18-3.27-.32-1.55-.81-3.38.43-3.32,1.23-6.22,4.29-7.7,4.71-.2,1.13.47.74-1.56,2.66.12,1.7,1.46,3.65-1.09.61-1.02-.31-2.73-.27-.87-1.24-1.7.28-2.04-1.71-.43-1.71-.45-1.11-.56-2.91-1.13-.7-2.2-3.56-2.19-4.64-3.16-3.64-3.7-.43-.43-.54h-.96l-2.08.97-.49,1.7-1.58,1.46-3.28-2.19-2.91-2.27-.11-2.41-.39-2.25-1.95-1.82-.56.49-2.36-3.65-1.5-.32-1.23-1.93-.79-.67-6.97-.35-.44,1.68-4.01-.24-9.69-.8-15.35-10.02.12-1.09-11.13-.83-.16-3.86-2.63-3.86-1.5-.32-.05-1.5-1.55-.27-2.25-3.27h-1.12l-1.55-.97-1.39-.33-.64-.53,1.37-3.36-2.87-4.41-.11-1.02-1.23-1.66-.06-2.04.75-.37.43-1.55-.91-.32-.86-1.18-.11-2.78.43-1.18-1.45-1.39.05-2.2-1.93-3.75.8-2.65-.21-3.83L0,44.42l.43-1.55,2.84-3.8.48-8.31,2.78-4.23,4.98-12.48v-2.14l1.02-.96-.59-.27.32-.94,1.22-.24-1.32-.85-.02-4.98-.85-.61.98-1.96,1.46,1.6,5.11,1.82,1.46,1.95.24-4.26.61-.73L19.88.02v-.02Z"/>
  <g>
    <path class="st1" d="M201.83,43.12l-17.52,3.64-.11-1.82,2.78-2.89-.11-.86s-3.64-1.71,1.23-3c-.16.16,3.11.05,3.11.05l.75.21.91-.37,1.45-.32,1.39-1.66,1.07-.21-.06-1.23-.27-1.07-.8-.32-.22-1.18,1.34-1.34,1.02-1.23.86-1.5,1.23-1.29,2.03-.48,1.82-.43,1.18-.21,1.23-.43.11,1.12.7,2.25v2.3l2.2,4.82.21,5.68.48,5.47-.11.86-.06.64.81-.54,2.14-.59,1.93-1.12.75-.64.8.37-.91,1.07-2.04,1.45-1.93.86-1.61.43h-.59l.05-2.25-3.8-1.13-1.02-.59-.54-.91-.37-.97-.75-.05-.8-.59h.04Z"/>
    <polygon class="st1" points="181.09 47.46 182.38 54.42 183.39 59.67 202.58 56.09 204.4 55.39 206.43 53.09 204.66 51.16 203.81 50.84 203.75 49.98 204.5 49.5 204.08 48.85 204.29 48.1 204.77 47.84 204.88 46.5 205.31 46.23 204.29 45.64 203.38 43.76 202.63 43.71 201.83 43.12 184.31 46.76 184.14 44.73 181.09 47.46"/>
    <polygon class="st1" points="206.97 64.92 205.15 65.73 204.34 64.66 202.57 64.34 202.04 62.89 202.52 62.46 201.93 61.98 202.2 60.32 201.72 59.67 202.2 58.44 201.77 58.33 200.81 59.78 200.86 61.71 201.29 63.64 202.09 64.71 202.47 65.89 201.13 65.62 199.15 65.14 197.91 64.39 198.02 63.75 196.36 60.8 195.56 60.26 195.13 60 193.36 58.76 192.13 59.3 190.84 59.62 190.36 59.62 189.72 60.1 189.29 60.48 188.7 61.23 188.06 61.93 187.52 58.93 202.58 56.09 204.56 63 207.18 62.73 207.34 64.23 206.97 64.92"/>
    <polygon class="st1" points="205.95 73.55 193.36 76.28 173.48 78.69 174.82 77.68 175.52 77.41 175.41 76.61 178.57 73.44 179.59 74.46 180.99 74.78 181.63 74.14 182.27 74.57 183.45 74.3 183.88 73.23 184.95 73.02 185.86 72.8 186.45 71.89 186.4 70.28 188 65.73 188.54 66.1 188.91 66.43 189.93 66.32 190.04 64.66 190.9 64.39 192.45 61.98 192.45 60.16 193.31 60.26 195.24 61.17 195.29 60.21 196.36 60.8 198.02 63.75 197.91 64.39 199.15 65.14 201.56 65.84 202.04 66.48 202.95 66.58 203.11 68.41 203.49 68.84 202.52 69.27 202.68 69.8 203.86 71.03 203.75 71.68 203.38 71.73 203.54 72.32 204.34 72.21 205.15 71.78 205.95 73.55"/>
    <path class="st1" d="M197.11,90.69l-5.63-4.02-4.93.27-1.02-1.29-6.16.32-3.91,1.98-5.2.32.05-1.23,1.13-.16.21-1.12,4.13-2.41.37-1.12,1.82-.54.59-.86,1.45-.11.91-1.34.06-1.61,11.79-1.39,13.18-2.84.7,1.18,1.66,2.47-.48,1.45-.7.91-.54.86-1.71.32-.05,1.98,1.77.21-.91,1.72s-4.71-.48-5.79,5.62l-2.79.43h0Z"/>
    <polygon class="st1" points="188.33 102.64 187.42 102.64 186.88 101.84 186.93 100.98 186.24 100.45 185.38 100.45 185.27 99.27 184.09 97.18 183.29 97.12 181.57 95.14 179.86 93.7 179.38 93.53 177.45 90.75 176.11 90.64 175.09 89.94 174.93 88.87 175.68 87.91 179.38 85.98 185.54 85.66 186.56 86.95 191.48 86.68 197.11 90.69 195.67 92.52 195.4 93.48 195.13 95.36 194.38 96.11 192.99 97.66 190.36 99.96 190.09 99.96 189.99 100.77 188.33 102.64"/>
    <polygon class="st1" points="182.22 54 181.73 55.49 181.84 60.48 180.07 62.25 178.9 62.46 178.31 63.64 178.36 65.41 177.77 65.51 177.77 64.92 177.07 64.98 176.86 67.23 176.38 67.82 176.27 68.3 175.36 68.3 175.36 70.39 176.48 70.93 177.13 72.48 178.57 73.44 179.59 74.46 180.99 74.78 181.63 74.14 182.27 74.57 183.45 74.3 183.88 73.23 185.86 72.8 186.45 71.89 186.4 70.28 188 65.73 188.91 66.43 189.93 66.32 190.04 64.66 190.9 64.39 192.45 61.98 192.45 60.16 193.31 60.26 195.24 61.17 195.29 60.21 193.36 58.76 190.36 59.62 188.06 61.93 187.52 58.93 183.45 59.51 182.22 54"/>
    <polygon class="st1" points="206.97 64.92 205.43 65.65 205.19 67.14 204.87 69.71 205.31 70.59 205.83 69.99 206.31 68.62 206.19 66.89 207 65.93 206.97 64.92"/>
    <polygon class="st1" points="146.72 82.16 147.24 81.48 147.77 81.52 147.77 80.44 148.13 80.19 148.05 79.87 147.85 79.27 147.81 78.71 149.05 78.31 150.7 79.03 151.02 78.19 150.78 77.94 150.74 76.82 152.07 76.66 152.11 75.73 152.23 74.61 153.31 73.81 155.44 73.56 155.84 74.13 156.41 74.17 157.09 73.24 157.77 73.04 158.21 73.68 158.86 73.77 158.9 72.8 159.7 72.24 160.02 72.56 161.43 72.64 161.47 71.35 163.16 69.79 163.28 68.3 164.6 68.26 165.77 67.34 165.33 66.97 165.09 66.33 165.53 65.97 166.69 66.05 166.89 65.73 167.5 65.85 168.42 67.34 170.07 67.38 170.39 68.06 171.35 67.38 171.96 67.46 172.48 67.98 173.65 66.81 173.97 66.97 175.36 68.3 175.36 70.39 176.48 70.93 177.13 72.48 178.57 73.44 175.41 76.61 175.45 77.54 174.82 77.68 173.68 78.55 154.95 80.78 152.91 80.78 152.96 82.07 146.72 82.16"/>
    <polygon class="st0" points="196.05 61.03 193.29 59.17 189.65 62.08 178.95 72.05 179.19 73.43 178.14 74.4 182.92 76.11 193.05 73.59 196.05 61.03"/>
    <polygon class="st0" points="186.77 110.41 184.04 110.36 184.04 111.21 184.47 111.27 184.42 113.14 183.5 112.72 183.45 112.12 171.02 112.61 169.79 111.11 169.52 110.14 169.09 109.77 168.93 107.3 168.82 105.38 169.36 104.89 169.31 103.71 168.5 102.48 167.06 97.71 165.99 94.07 164.91 91.28 164.81 89.25 175.47 87.96 174.93 88.87 175.09 89.94 176.11 90.64 177.45 90.75 179.38 93.53 179.86 93.7 181.57 95.14 183.29 97.12 184.09 97.18 185.27 99.27 185.38 100.45 186.24 100.45 186.93 100.98 186.88 101.84 187.42 102.64 188.33 102.64 188.22 103.45 187.84 104.25 187.25 106.39 186.77 110.41"/>
    <polygon class="st1" points="180.99 77.78 154.95 80.78 152.91 80.78 152.96 82.07 146.27 82.18 146.16 84.21 145.36 86.14 145.14 87.53 144.77 88.07 143.8 88.23 143.91 88.87 144.23 89.09 143.91 90.53 153.18 90.11 164.81 89.25 170.32 88.44 170.32 87.05 171.45 86.89 171.66 85.77 175.79 83.35 176.16 82.23 177.98 81.69 178.57 80.84 180.02 80.73 180.93 79.39 180.99 77.78"/>
  </g>
  <g>
    <path class="st4" d="M219.02,33.1l-.13-.06-.46-.21-.05-.75-.97-.27-2.94-10.02.7-.32.16-2.03,1.02-1.45-.05-.8-.37-.48-.11-1.45.37-.32.11-2.68,1.23-3.16s.37-2.84,1.87.05l.48-.05s2.73-4.02,4.34,1.39l1.82,5.31,1.5.27.21,1.66s5.52,1.18-.75,5.3l-1.61.75-.16,1.23-1.39-1.29-.38.32v2.2l-.96.75v.8s-1.07.16-.91.32-.59.43-.59.43l-.8-.32-.38.75-.53,2.95-.27,1.18h0Z"/>
    <polygon class="st4" points="218.75 34.07 217.47 35.4 215.43 35.94 212.7 36.58 212.06 36.74 212.17 27.96 213.45 26.78 213.5 25.33 213.08 24.85 213.24 21.69 214.47 21.8 217.41 31.82 218.38 32.08 218.43 32.83 219.02 33.1 218.75 34.07"/>
    <polygon class="st4" points="213.08 23.46 206.16 25.17 206.38 26.73 207.02 28.76 207.02 29.78 206.97 30.85 207.5 31.76 208.04 32.99 208.68 34.23 209.16 35.67 209.22 37.12 212.06 36.74 212.17 27.96 213.45 26.78 213.5 25.33 213.08 24.85 213.08 23.46"/>
    <polygon class="st4" points="216.67 43.44 216.08 40.07 217.79 39.59 219.51 41.94 219.24 42.53 218.54 42.64 216.67 43.44"/>
    <path class="st4" d="M218.49,34.44l1.02.97-.81,1.45.22.8,1.12.16,1.61,1.87,1.34-.16s1.23-.59-1.02-1.5c0,.16,1.5-.21,1.5-.21,0,0,2.73,1.87-2.03,3.75l-.43-.91-.91.54v.86l-.59-.1-1.72-2.36-8.41,1.77-.16-4.23,8.25-1.72,1.02-.96v-.02Z"/>
    <polygon class="st4" points="209.91 47.03 209.38 41.35 216.08 40.07 216.67 43.44 215.59 44.08 214.9 44.62 212.81 45 209.91 47.03"/>
    <polygon class="st4" points="207.4 59.89 207.29 58.6 205.9 58.33 204.83 57.8 204.13 56.89 204.02 55.6 206.43 53.09 204.66 51.16 203.81 50.84 203.75 49.98 204.5 49.5 204.08 48.85 204.29 48.1 204.77 47.84 204.88 46.5 205.31 46.23 209.11 47.35 209.22 49.39 208.47 50.46 209.49 50.68 209.76 55.49 208.09 58.01 208.04 59.3 207.4 59.89"/>
    <polygon class="st4" points="202.58 56.09 204.56 63 207.18 62.73 206.91 60.8 205.74 60 205.15 58.71 204.13 57.8 203.91 56.46 203.86 55.6 202.58 56.09"/>
  </g>
  <g>
    <circle class="st4" cx="198.23" cy="51.1" r="2.95"/>
    <path class="st3" d="M198.4,50.38h-1.09v-.58h1.82v.42c-.58.68-.65,1.12-.7,2.11h-.69c.05-.8.18-1.31.66-1.96Z"/>
  </g>
  <g>
    <circle class="st4" cx="195.29" cy="82.11" r="2.95"/>
    <path class="st3" d="M195.35,81.98c0-.17.02-.43.02-.6h-.02c-.06.15-.14.3-.21.46l-.23.43h1.34v.52h-1.99v-.48l.86-1.49h.86v2.53h-.64v-1.38Z"/>
  </g>
  <g>
    <circle class="st4" cx="200.47" cy="60.59" r="2.95"/>
    <path class="st3" d="M199.46,61.52l.3-.43c.15.14.33.24.51.24.24,0,.38-.1.38-.33s-.14-.33-.34-.33c-.14,0-.2.02-.35.12l-.3-.19.06-1.3h1.5v.58h-.91l-.03.37c.09-.03.16-.04.24-.04.44,0,.82.25.82.78,0,.57-.44.9-.96.9-.42,0-.71-.15-.92-.36Z"/>
  </g>
</svg>