<?xml version="1.0" encoding="UTF-8"?>
<svg id="Layer_1" xmlns="http://www.w3.org/2000/svg" version="1.1" viewBox="0 0 230 146.77">
  <!-- Generator: Adobe Illustrator 29.6.0, SVG Export Plug-In . SVG Version: 2.1.1 Build 207)  -->
  <defs>
    <style>
      .st0 {
        fill: #cdba9e;
      }

      .st1, .st2 {
        fill: #6a8cc3;
      }

      .st3 {
        fill: #6f7b34;
      }

      .st3, .st2, .st4, .st5 {
        stroke-width: .49px;
      }

      .st3, .st2, .st5 {
        stroke: #fff;
      }

      .st6 {
        fill: #9b8579;
      }

      .st4 {
        fill: none;
        stroke: #c8caca;
      }

      .st5 {
        fill: #90278e;
      }
    </style>
  </defs>
  <polygon class="st0" points="112.53 98.22 114.03 100.7 120.47 103.14 126.79 102.52 130.27 98.22 120.47 94.66 113.8 96.64 112.53 98.22"/>
  <g>
    <polygon class="st6" points="195.79 140.04 194.61 140.04 194.13 140.74 193.27 140.68 193 139.45 192.73 138.6 191.29 136.88 189.9 136.88 189.2 136.18 188.93 134.85 188.07 133.94 187.48 133.99 187.43 134.42 186.84 134.36 185.45 131.47 183.47 128.9 185.02 127.19 184.81 126.38 183.47 126.33 183.42 126.76 183.9 127.03 183.42 128.05 183.15 127.51 182.67 126.76 182.61 124.56 182.99 124.3 182.99 121.56 181.65 120.01 180.2 119.74 176.72 116.21 175.49 115.67 173.67 115.89 173.67 116.91 171.15 118.14 169.17 118.3 169.12 117.55 165.37 115.62 160.82 115.57 159.48 116.26 158.67 116.26 158.57 114.34 157.28 113.32 157.39 112.35 169.81 111.01 171.04 112.73 183.31 112.25 183.52 112.84 184.44 113.27 184.49 111.39 184.06 111.34 184.06 110.48 186.79 110.53 187.11 111.98 188.93 116.05 192.09 120.39 193.32 121.67 193.16 122.42 192.89 123.01 197.07 130.19 197.71 135.49 197.61 136.45 196.91 136.83 196.96 138.38 197.71 137.74 197.66 139.02 197.02 140.36 193.81 143.15 193.59 142.61 196.64 140.15 196.8 139.51 195.79 140.04"/>
    <polygon class="st6" points="87.47 78.9 109.24 80.61 123.67 80.65 123.74 83.46 124.67 90.13 124.63 99.77 121.78 97.84 121.19 98.11 117.54 98.22 116.85 98.97 115.4 98.91 113.37 97.84 113.15 99.13 111.87 99.02 111.06 98 109.94 98.06 109.56 98.33 108.71 98.38 107.85 96.77 107.15 96.72 106.35 97.25 103.25 96.13 103.19 95.22 100.84 95.16 99.66 93.93 100.25 82.79 87.11 82 87.47 78.9"/>
    <polygon class="st6" points="123.67 80.65 108.87 80.7 87.36 79.69 88.33 63.19 116.6 59.89 124.97 58.75 126.04 64.75 126.04 65.55 125.51 65.98 125.51 67.05 123.6 69.19 123.67 80.65"/>
    <path class="st6" d="M136.72,44.02l-.11-1.87-2.89-2.41-.59-.91h-.8l-.16-.69h-1.12l-.75-.86-.16-2.84.32-.8.05-.8-.69-.75.32-.64,1.93-2.2.21-3.05s2.36.05,2.2,0,2.84-1.61,2.84-1.61l.8.38-.96,1.39.48.32,1.02-.21,1.07.59.65.8,1.12.21,2.35.43,4.55,1.07,1.07,1.02.43,2.36.69,1.02-1.39,2.36.16.91.54-.16,3.05-4.39.21.8-1.71,4.02v1.82l-.43,1.07.27,1.5-.59,1.07-.27,1.18.69,4.44-11.78.37-1.18-.59-.96-1.07-.11-1.34.8-.43-.32-.64-.86-.86h0Z"/>
    <polygon class="st6" points="56.17 47.88 58.85 31.17 86.06 34.44 86.13 52.26 56.17 47.88"/>
    <polygon class="st6" points="88.7 57.89 89.05 52.83 85.04 52.46 85.04 45.68 107.96 47.07 109.4 48.25 110.26 48.25 110.58 47.88 112.78 47.88 115.88 49.91 117.81 55.75 118.72 60.57 119.15 62.23 120.49 63.78 88.33 63.19 88.7 57.89"/>
    <polygon class="st6" points="115.94 44.13 136.72 44.02 137.57 44.88 137.89 45.52 137.09 45.95 137.2 47.29 138.16 48.36 139.34 48.95 139.4 49.91 141.64 51.78 141.05 54.19 139.66 55.27 138.7 55.27 138.16 55.75 138.11 56.61 138.75 57.25 138.86 57.94 138.32 58.48 138.27 59.66 137.09 59.98 137.2 61.05 136.61 61.37 135.97 60.14 118.72 60.57 117.76 56.12 115.88 49.91 115.29 48.36 115.78 47.13 116.05 46 115.35 45.47 115.29 44.13 115.94 44.13"/>
    <polygon class="st6" points="113.1 14.03 113.69 15.37 113.42 15.8 113.37 19.28 114.44 21.15 114.44 24.53 114.87 26.94 115.4 28.7 115.51 31.76 114.49 32.67 115.94 34.44 115.94 44.13 136.72 44.02 136.61 42.15 133.72 39.74 133.29 38.83 132.33 38.83 132.16 38.13 131.04 38.13 130.29 37.27 130.13 34.44 130.45 33.63 130.5 32.83 129.81 32.08 129.92 31.65 132.06 29.24 132.27 26.19 135.54 23.4 136.29 22.01 142.02 18.9 142.23 18.42 140.84 18.53 140.04 18.1 137.31 18.05 137.2 17.51 135.49 18.53 133.93 18.53 133.82 17.89 132.86 17.89 132.59 16.92 131.74 17.4 129.33 15.85 127.88 15.75 127.19 16.23 126.11 16.33 125.79 15.9 124.45 15.96 123.22 15.42 122.2 11.89 120.81 11.78 120.87 13.82 113.1 14.03"/>
    <polygon class="st6" points="88.15 12.74 86.65 29.61 115.51 30.9 115.4 28.7 114.87 26.94 114.44 24.53 114.44 21.15 113.37 19.28 113.42 15.8 113.69 15.37 113.1 14.03 88.15 12.74"/>
    <polygon class="st6" points="85.04 45.68 86.65 29.61 115.51 30.9 115.51 31.76 114.49 32.67 115.94 34.44 115.94 44.13 115.29 44.13 115.35 45.47 116.05 46 115.29 48.36 115.72 49.54 112.78 47.88 110.37 47.93 110.26 48.25 109.4 48.25 107.96 47.07 85.04 45.68"/>
    <polygon class="st6" points="64.85 10.01 44.18 6.21 43.43 9.75 43.11 11.09 43.86 13.55 43.69 15.21 45.09 16.39 46.37 19.55 47.87 20.78 45.94 25.22 46.48 26.29 47.18 26.67 48.46 25.76 49.27 30.15 50.71 31.49 50.77 33.36 51.51 33.36 55.21 33.36 56.17 33.79 56.66 32.88 57.51 32.99 58.26 34.22 58.85 31.17 86.06 34.81 88.15 12.74 64.85 10.01"/>
    <polygon class="st6" points="32.08 42.9 35.18 31.33 34.16 30.95 34.32 29.61 36.2 27.9 36.41 26.88 38.61 24.42 38.72 23.46 37.59 22.65 37.75 17.99 40.54 5.35 44.18 6.21 43.11 11.09 43.86 13.55 43.69 15.21 45.09 16.39 46.37 19.55 47.87 20.78 45.94 25.22 46.48 26.29 47.18 26.67 48.46 25.76 49.27 30.15 50.71 31.49 50.77 33.36 55.21 33.36 56.17 33.79 56.66 32.88 57.51 32.99 58.26 34.22 56.17 47.88 32.08 42.9"/>
    <polygon class="st6" points="11.94 13.55 11.19 12.8 11.56 12.1 12.31 11.73 12.58 11.14 11.99 10.87 11.94 9.69 13.01 9.69 12.21 8.84 12.1 4.39 11.51 3.75 12.31 1.29 12.8 1.34 14.29 3 18.31 4.5 19.28 4.77 20.24 6.21 20.35 2.84 20.61 1.93 19.76 .8 19.92 .21 20.35 0 40.54 5.35 37.75 17.78 37.59 21.53 31.06 19.87 23.72 20.03 21.42 19.6 18.53 18.42 16.12 18.8 15.21 17.62 15.31 15.37 14.56 14.51 13.6 14.46 13.22 13.71 11.94 13.55"/>
    <polygon class="st6" points="32.08 42.9 20.08 40.27 4.01 35.61 3.32 34.59 3.8 30.95 6.58 26.72 11.56 14.25 13.38 14.03 13.6 14.46 14.56 14.51 15.31 15.37 15.21 17.62 16.12 18.8 18.53 18.42 21.42 19.6 23.72 20.03 31.06 19.87 37.59 21.53 37.59 22.65 38.72 23.46 38.61 24.42 36.41 26.88 36.2 27.9 34.32 29.61 34.16 30.95 35.18 31.33 32.08 42.9"/>
  </g>
  <g>
    <path class="st3" d="M219.03,33.26l-.13-.06-.46-.21-.05-.75-.96-.27-2.94-10.01.7-.32.16-2.03,1.02-1.45-.05-.8-.37-.48-.11-1.45.37-.32.11-2.68,1.23-3.16s.37-2.84,1.87.05l.48-.05s2.73-4.02,4.34,1.39l1.82,5.3,1.5.27.21,1.66s5.52,1.18-.75,5.3l-1.61.75-.16,1.23-1.39-1.29-.38.32v2.2l-.96.75v.8s-1.07.16-.91.32-.59.43-.59.43l-.8-.32-.38.75-.53,2.95-.27,1.18h0Z"/>
    <polygon class="st3" points="213.08 23.62 206.17 25.33 206.39 26.89 207.03 28.92 207.03 29.94 206.98 31.01 207.51 31.92 208.05 33.15 208.69 34.38 209.17 35.83 209.23 37.27 212.07 36.9 212.17 28.12 213.46 26.94 213.51 25.49 213.08 25.01 213.08 23.62"/>
    <polygon class="st3" points="216.67 43.59 216.08 40.22 217.8 39.74 219.51 42.1 219.24 42.68 218.55 42.79 216.67 43.59"/>
    <path class="st3" d="M218.49,34.6l1.02.96-.81,1.44.22.8,1.12.16,1.61,1.87,1.34-.16s1.23-.59-1.02-1.5c0,.16,1.5-.21,1.5-.21,0,0,2.73,1.87-2.03,3.75l-.43-.91-.91.54v.86l-.59-.1-1.71-2.36-8.41,1.77-.16-4.23,8.25-1.71,1.02-.96h0Z"/>
    <polygon class="st3" points="209.92 47.18 209.39 41.5 216.08 40.22 216.67 43.59 215.6 44.24 214.9 44.77 212.82 45.15 209.92 47.18"/>
    <path class="st3" d="M201.84,43.27l-17.51,3.64-.11-1.82,2.78-2.89-.11-.86s-3.64-1.71,1.23-3c-.16.16,3.11.05,3.11.05l.75.21.91-.37,1.45-.32,1.39-1.66,1.07-.21-.06-1.23-.27-1.07-.8-.32-.22-1.18,1.34-1.34,1.02-1.23.86-1.5,1.23-1.29,2.03-.48,1.82-.43,1.18-.21,1.23-.43.11,1.12.69,2.25v2.3l2.2,4.82.21,5.68.48,5.46-.11.86-.06.64.8-.54,2.14-.59,1.93-1.12.75-.64.8.37-.91,1.07-2.04,1.45-1.93.86-1.61.43h-.59l.05-2.25-3.8-1.13-1.02-.59-.54-.91-.37-.96-.75-.05-.8-.59h.05Z"/>
    <polygon class="st3" points="181.11 47.61 182.4 54.57 183.41 59.82 202.59 56.23 204.41 55.54 206.44 53.23 204.67 51.3 203.82 50.98 203.77 50.13 204.51 49.64 204.09 49 204.3 48.25 204.78 47.99 204.89 46.65 205.32 46.38 204.3 45.79 203.39 43.91 202.64 43.86 201.84 43.27 184.33 46.91 184.16 44.88 181.11 47.61"/>
    <polygon class="st3" points="207.41 60.04 207.3 58.75 205.91 58.48 204.84 57.95 204.14 57.04 204.03 55.75 206.44 53.23 204.67 51.3 203.82 50.98 203.77 50.13 204.51 49.64 204.09 49 204.3 48.25 204.78 47.99 204.89 46.65 205.32 46.38 209.12 47.5 209.23 49.54 208.48 50.61 209.5 50.82 209.76 55.64 208.1 58.16 208.05 59.44 207.41 60.04"/>
    <polygon class="st3" points="202.59 56.23 204.57 63.14 207.19 62.87 206.92 60.94 205.75 60.14 205.16 58.86 204.14 57.95 203.92 56.61 203.87 55.75 202.59 56.23"/>
    <polygon class="st3" points="206.98 65.07 205.16 65.87 204.35 64.8 202.59 64.48 202.05 63.03 202.53 62.6 201.94 62.12 202.21 60.46 201.73 59.82 202.21 58.59 201.78 58.48 200.82 59.93 200.87 61.85 201.3 63.78 202.1 64.85 202.48 66.03 201.14 65.76 199.16 65.28 197.93 64.53 198.03 63.89 196.38 60.94 195.57 60.41 195.14 60.14 193.37 58.91 192.14 59.44 190.86 59.77 190.38 59.77 189.73 60.25 189.31 60.62 188.72 61.37 188.07 62.07 187.54 59.07 202.59 56.23 204.57 63.14 207.19 62.87 207.35 64.37 206.98 65.07"/>
    <path class="st3" d="M197.13,90.83l-5.62-4.02-4.93.27-1.02-1.29-6.16.32-3.91,1.98-5.2.32.05-1.23,1.13-.16.21-1.12,4.12-2.41.37-1.12,1.82-.54.59-.86,1.45-.11.91-1.34.06-1.61,11.78-1.39,13.17-2.84.7,1.18,1.66,2.46-.48,1.45-.7.91-.54.86-1.71.32-.05,1.98,1.77.21-.91,1.71s-4.71-.48-5.78,5.62l-2.79.43v.02Z"/>
    <polygon class="st3" points="186.79 110.53 184.06 110.48 184.06 111.34 184.49 111.39 184.44 113.27 183.52 112.84 183.47 112.25 171.04 112.73 169.81 111.23 169.54 110.27 169.12 109.89 168.96 107.43 168.85 105.5 169.39 105.02 169.33 103.84 168.53 102.61 167.08 97.84 166.01 94.2 164.94 91.42 164.83 89.38 175.49 88.09 174.95 89.01 175.12 90.08 176.13 90.77 177.47 90.88 179.4 93.67 179.88 93.83 181.59 95.27 183.31 97.25 184.11 97.31 185.29 99.39 185.4 100.57 186.25 100.57 186.95 101.11 186.9 101.97 187.43 102.77 188.34 102.77 188.23 103.57 187.86 104.37 187.27 106.52 186.79 110.53"/>
    <polygon class="st3" points="181.01 77.92 154.98 80.92 152.94 80.92 153 82.21 146.3 82.31 146.2 84.35 145.39 86.28 145.18 87.67 144.8 88.2 143.84 88.36 143.95 89.01 144.27 89.22 143.95 90.67 153.21 90.24 164.83 89.38 170.35 88.58 170.35 87.18 171.47 87.02 171.69 85.9 175.81 83.49 176.18 82.37 178.01 81.83 178.59 80.97 180.04 80.87 180.95 79.53 181.01 77.92"/>
    <polygon class="st3" points="146.76 82.3 147.28 81.62 147.8 81.66 147.8 80.57 148.16 80.33 148.08 80.01 147.88 79.41 147.84 78.84 149.09 78.44 150.73 79.16 151.06 78.32 150.81 78.08 150.77 76.96 152.1 76.8 152.14 75.87 152.26 74.75 153.35 73.94 155.47 73.7 155.88 74.27 156.44 74.31 157.12 73.38 157.8 73.18 158.24 73.82 158.89 73.9 158.93 72.94 159.73 72.38 160.05 72.7 161.46 72.78 161.5 71.49 163.19 69.93 163.31 68.44 164.63 68.4 165.8 67.48 165.36 67.12 165.11 66.47 165.56 66.11 166.72 66.19 166.92 65.87 167.52 65.99 168.45 67.48 170.09 67.52 170.41 68.2 171.38 67.52 171.98 67.6 172.5 68.12 173.67 66.95 173.99 67.12 175.38 68.44 175.38 70.53 176.51 71.07 177.15 72.62 178.59 73.58 175.43 76.74 175.48 77.68 174.85 77.81 173.71 78.68 154.98 80.92 152.94 80.92 153 82.21 146.76 82.3"/>
    <polygon class="st3" points="155.8 52.05 156.8 50.21 157.64 48.84 157.6 45.59 155.72 42.37 155.99 38.76 156.44 35.75 157 35.55 156.88 34.42 157.96 33.54 158.2 32.65 158.77 32.45 158.97 33.22 158.49 34.18 158.41 34.98 159.33 34.66 159.41 32.05 159.89 31.77 160.94 31.73 161.1 31.09 160.29 31.09 160.21 30.12 161.66 29.04 162.5 29.92 163.1 29.56 165.6 30.69 166.72 30.81 167.68 32.21 167.04 32.69 167.08 33.18 167.85 33.86 167.77 36.63 167.04 37.56 166.72 38.64 166.24 38.68 166.04 40.25 167.16 40.53 168.09 39.2 168.49 38.32 169.89 37.52 171.34 39.64 172.22 42.82 172.3 45.79 171.38 45.75 170.54 47.64 170.38 48.96 169.49 50.57 168.65 50.97 155.8 52.05"/>
    <polygon class="st3" points="150.59 33.95 152.34 29.92 152.9 29.92 153.55 30.08 154.43 29.52 154.91 29.76 155.68 28.72 157.8 28.4 158.24 27.87 160.98 28.28 163.71 27.72 166.08 28 166.32 27.51 165.76 26.75 164.19 27.23 163.55 26.75 163.31 24.66 162.58 24.9 162.26 25.1 160.74 25.67 159.77 25.34 159.77 23.94 159.01 24.06 157.64 24.66 155.31 24.7 153.75 26.03 150.9 25.95 149.33 24.26 148 24.02 146.68 24.7 146.56 23.98 147.12 23.26 147.16 22.77 148.93 21.49 149.25 21.17 149.05 20.73 147.4 21.05 145.03 23.1 144.87 23.82 142.98 24.98 141.82 25.18 141.17 25.87 139.57 26.35 139.49 26.91 139.71 27.05 140.36 27.85 148.39 29.56 149.46 30.58 149.89 32.94 150.59 33.95"/>
    <polygon class="st3" points="154.07 116.21 151.18 116.48 149.35 116.8 148.71 117.6 148.12 116.8 147.11 115.35 147.16 113.42 138.64 113.59 138.43 111.23 140.3 108.23 140.73 107.53 140.89 106.46 141.11 106.09 140.57 105.28 140.14 103.95 139.98 102.77 139.98 101.86 140.09 100.04 140.04 97.47 140.95 95.59 142.13 94.52 142.34 92.92 143.68 91.74 143.68 90.83 143.95 90.67 153.43 90.18 153.21 108.18 154.07 116.21"/>
    <polygon class="st3" points="128.31 121.19 128.31 119.91 128.58 116.05 129.22 115.41 129.11 112.09 127.88 110.8 127.93 109.62 126.81 108.02 126.81 102.5 139.88 102.55 140.14 103.95 140.57 105.28 141.11 106.09 140.84 107.16 138.43 111.23 138.64 113.59 147.16 113.42 147.11 115.35 148.71 117.6 147.53 118.73 147.75 119.37 148.66 119.31 148.77 118.62 149.3 118.24 149.78 118.83 149.68 119.69 148.66 120.44 148.44 120.98 148.39 121.62 150.21 121.99 151.12 122.42 151.71 123.17 151.01 123.71 150.32 123.6 149.25 122.96 148.39 122.8 147.69 122.53 147.53 121.56 146.78 122.05 146.62 123.01 146.52 123.76 145.18 124.3 145.5 123.55 145.55 122.96 144.37 123.39 143.79 124.08 143.25 124.3 142.23 124.24 141.16 123.76 140.68 123.33 140.63 122.8 140.95 122.48 140.89 122.05 139.45 121.94 139.07 120.82 136.39 120.71 136.61 121.3 138.54 121.78 138.22 122.42 136.5 121.89 134.95 121.94 133.24 121.56 131.68 120.76 130.13 120.87 128.31 121.19"/>
    <polygon class="st3" points="181.18 47.8 180.26 48.04 176.6 50.93 176.16 51.33 174.99 51.41 173.99 51.97 172.86 51.97 172.06 51.41 170.45 51.37 169.49 50.57 168.65 50.97 166.72 51.09 163.79 51.33 165.56 66.11 166.72 66.19 166.92 65.87 167.52 65.99 168.45 67.48 170.09 67.52 170.41 68.2 171.02 67.8 171.38 67.52 171.98 67.6 172.5 68.12 173.67 66.95 173.99 67.12 175.38 68.44 176.29 68.44 176.44 67.8 176.88 67.37 177.1 65.12 177.79 65.07 177.79 65.66 178.38 65.55 178.33 63.78 178.92 62.6 180.09 62.39 181.86 60.62 181.75 55.64 182.26 54.34 181.18 47.8"/>
    <polygon class="st3" points="152.86 52.94 153.83 53.26 155.8 52.05 163.79 51.33 165.56 66.11 165.15 66.63 165.36 67.12 165.8 67.48 164.63 68.4 163.31 68.44 163.19 69.93 161.5 71.49 161.46 72.78 160.05 72.7 159.73 72.38 158.93 72.94 158.89 73.9 158.24 73.82 157.8 73.18 157.12 73.38 156.44 74.31 155.88 74.27 155.47 73.7 153.35 73.94 152.26 74.75 152.34 72.58 153.99 70.05 154.23 68.08 153.55 67.4 152.86 53.1 152.86 52.94"/>
  </g>
  <polygon class="st5" points="123.7 82.98 123.6 69.19 124.56 60.57 135.97 60.14 136.77 61.37 136.66 63.51 137.15 64.85 140.41 67.8 140.36 69.19 142.72 69.57 143.09 70.1 141.97 72.62 144.16 75.35 145.45 75.35 146.04 76.47 146.41 77.54 146.36 78.35 147 79.69 147.8 79.74 148.16 80.33 147.8 80.57 147.8 81.66 147.28 81.62 146.76 82.3 146.3 82.31 146.2 84.35 145.79 85.43 143.26 85.55 143.18 84.91 144.19 84.23 144.39 83.54 143.79 82.86 123.7 82.98"/>
  <g>
    <polygon class="st2" points="218.76 34.22 217.47 35.56 215.44 36.09 212.71 36.74 212.07 36.9 212.17 28.12 213.46 26.94 213.51 25.49 213.08 25.01 213.24 21.85 214.48 21.96 217.42 31.97 218.38 32.24 218.44 32.99 219.03 33.26 218.76 34.22"/>
    <polygon class="st2" points="205.96 73.69 193.37 76.42 173.51 78.83 174.85 77.81 175.54 77.54 175.43 76.74 178.59 73.58 179.61 74.6 181.01 74.92 181.65 74.28 182.29 74.71 183.47 74.44 183.9 73.37 184.97 73.15 185.88 72.94 186.47 72.03 186.41 70.42 188.02 65.87 188.56 66.25 188.93 66.57 189.95 66.46 190.06 64.8 190.91 64.53 192.47 62.12 192.47 60.3 193.32 60.41 195.25 61.32 195.3 60.35 196.38 60.94 198.03 63.89 197.93 64.53 199.16 65.28 201.57 65.98 202.05 66.62 202.96 66.73 203.12 68.55 203.5 68.98 202.53 69.41 202.69 69.94 203.87 71.17 203.77 71.82 203.39 71.87 203.55 72.46 204.35 72.35 205.16 71.92 205.96 73.69"/>
    <polygon class="st2" points="188.34 102.77 187.43 102.77 186.9 101.97 186.95 101.11 186.25 100.57 185.4 100.57 185.29 99.39 184.11 97.31 183.31 97.25 181.59 95.27 179.88 93.83 179.4 93.67 177.47 90.88 176.13 90.77 175.12 90.08 174.95 89.01 175.7 88.04 179.4 86.11 185.56 85.79 186.58 87.08 191.5 86.81 197.13 90.83 195.68 92.65 195.41 93.61 195.14 95.49 194.39 96.24 193 97.79 190.38 100.09 190.11 100.09 190 100.89 188.34 102.77"/>
    <polygon class="st2" points="182.24 54.14 181.75 55.64 181.86 60.62 180.09 62.39 178.92 62.6 178.33 63.78 178.38 65.55 177.79 65.66 177.79 65.07 177.1 65.12 176.88 67.37 176.4 67.96 176.29 68.44 175.38 68.44 175.38 70.53 176.51 71.07 177.15 72.62 178.59 73.58 179.61 74.6 181.01 74.92 181.65 74.28 182.29 74.71 183.47 74.44 183.9 73.37 185.88 72.94 186.47 72.03 186.41 70.42 188.02 65.87 188.93 66.57 189.95 66.46 190.06 64.8 190.91 64.53 192.47 62.12 192.47 60.3 193.32 60.41 195.25 61.32 195.3 60.35 193.37 58.91 190.38 59.77 188.07 62.07 187.54 59.07 183.47 59.66 182.24 54.14"/>
    <polygon class="st2" points="158.67 116.26 156.85 116.85 156.53 116.58 157.07 116.21 156.42 114.55 155.68 114.39 155.35 115.19 155.3 116 154.07 116.21 153.21 108.18 153.43 90.18 164.83 89.38 164.83 91.15 168.53 102.61 169.33 103.84 169.39 105.02 168.85 105.5 169.12 109.89 169.54 110.27 169.65 111.02 157.39 112.35 157.28 113.32 158.57 114.34 158.67 116.26"/>
    <polygon class="st2" points="139.88 102.55 126.81 102.5 126.6 99.98 125.15 100.15 124.63 99.77 124.67 90.13 123.67 83.66 123.7 82.98 143.79 82.86 144.39 83.54 144.19 84.23 143.18 84.91 143.26 85.55 145.79 85.43 145.39 86.28 145.18 87.67 144.8 88.2 143.84 88.36 143.95 89.01 144.27 89.22 143.95 90.67 143.68 90.83 143.68 91.74 142.34 92.92 142.13 94.52 140.95 95.59 140.04 97.47 140.09 100.29 139.88 102.55"/>
    <polygon class="st2" points="206.98 65.07 205.44 65.79 205.2 67.28 204.88 69.85 205.32 70.73 205.84 70.13 206.32 68.76 206.2 67.04 207 66.07 206.98 65.07"/>
    <polygon class="st2" points="151.12 48.57 151.18 50.13 152.09 51.25 152.86 52.94 153.55 67.4 154.23 68.08 153.99 70.05 152.34 72.58 152.09 76.63 150.77 76.96 150.81 78.08 151.06 78.32 150.73 79.16 149.09 78.44 147.84 78.84 147.8 79.74 147 79.69 146.36 78.35 146.41 77.54 145.45 75.35 144.16 75.35 141.97 72.62 143.09 70.1 142.72 69.57 140.36 69.19 140.41 67.8 137.15 64.85 136.66 63.51 136.61 61.37 137.2 61.05 137.09 59.98 138.27 59.66 138.27 58.32 138.86 57.94 138.7 57.09 138.11 56.61 138.16 55.75 138.7 55.27 139.66 55.27 141.05 54.19 141.64 51.78 139.4 49.75 139.34 48.95 151.12 48.57"/>
    <polygon class="st1" points="196.07 61.34 193.32 59.47 189.67 62.39 178.98 72.35 179.22 73.73 178.17 74.7 182.95 76.41 193.08 73.89 196.07 61.34"/>
    <polygon class="st2" points="123.44 82.98 123.33 69.19 121.35 67.05 121.35 65.98 121.88 65.55 121.88 64.75 120.81 64.59 118.88 62.23 118.46 60.57 135.7 60.14 136.5 61.37 136.4 63.51 136.88 64.85 140.14 67.8 140.09 69.19 142.45 69.57 142.82 70.1 141.7 72.62 143.89 75.35 145.18 75.35 145.77 76.47 146.14 77.54 146.09 78.35 146.73 79.69 147.54 79.74 147.9 80.33 147.54 80.57 147.54 81.66 147.01 81.62 146.49 82.3 146.04 82.31 145.93 84.35 145.53 85.43 143 85.55 142.92 84.91 143.92 84.23 144.12 83.54 143.52 82.86 123.44 82.98"/>
  </g>
  <g>
    <polygon class="st0" points="132.26 26.02 139.6 21.15 142.52 20.18 145.44 14.67 141.22 13.05 133.12 14.35 125.02 18.24 125.35 20.5 128.91 20.5 129.88 22.12 127.94 25.28 128.91 27.31 132.26 26.02"/>
    <polygon class="st0" points="224.83 13.7 223.54 15.32 221.88 15.64 220.78 16.01 219.81 15.64 219.08 16.98 217.62 17.34 216.77 17.83 216.03 17.35 216.16 16.37 215.92 15.1 216.25 12.73 216.65 12 218.11 8.11 219 8.43 219.41 9.32 221.15 7.99 222 7.74 222.97 8.35 223.82 10.17 224.91 12.85 224.83 13.7"/>
  </g>
  <path class="st4" d="M19.87.32l20.22,5.34,4.04.66,20.67,3.8,22.93,2.95,25.32,1.06,7.77-.21-.06-2.04,1.39.11,1.02,3.54,1.23.54,1.34-.05.32.43,1.07-.11.69-.48,1.45.11,2.41,1.55.86-.48.27.96h.96l-.11,1.04,1.77-.39,1.71-1.02-.08.93,2.92-.34.8.43,1.18.38-5.73,3.11-.75,1.39-3.27,2.78h2.2l2.84-1.61.42.54-.97,1.34.88.21,1.02-.22.92-.11,1.6-.48.64-.68.65.06,2.41-1.42.16-.72,2.37-2.05,1.38.06-2.07,1.7-.61.85.57,1.04,1.01-.31,1.64-.13,1.57,1.69,2.85.08,1.57-1.33,2.33-.04,1.37-.6.76,1.29.96.32,2.57-1.01.24,2.09.64.48,1.57-.48.56.76-2.61.2-2.73.56-2.73-.4-.44.52-2.13.32-.77,1.04-.54-.63-.83.95-1.2-.16-3.15,6.38.16.91.54-.16,3.27-3.59-1.71,4.01v1.82l-.43,1.07-.17,1.27-.61,2.07.49,4.62v1.94l1.36.97.77,1.69.96.32,1.97-1.21,1.85-3.21-.04-3.25-1.89-3.21.72-6.63.56-.2-.12-1.12,1.08-.88.24-.88.76.56-.48.96-.08.8,1.31-.26-.31-2.67,1.53-.32.16-.65h-.8l-.08-.96,1.45-1.09.84.88.6-.36,2.49,1.12,1.12.12.96,1.41-.64.48.04.48.77.68-.08,2.77-1.53,2.05-.68-.07.48,1.64,1.13.28,1.33-2.21,1.2-.44,1.65,1.76.88,3.17-.35,2.72-.49.21-.84,1.89-.36.82-.97,1.7.73,1.34,2.19.36.75.12h1.13l1-.56,1.16-.08,5.02-3.54,2.99-2.92,2.84-2.68-.11-.86s-3.17-1.69,1.23-3l3.11.05.75.22,1.28-.25,1.08-.45,1.39-1.66,1.07-.21-.32-2.3-.43-.36-.59-1.14,2.36-2.57.86-1.5,1.23-1.28,5.87-1.28,7.3-1.99.16-1.77,1.23.11.7-.32.16-2.04,1.02-1.45-.05-.8-.37-.48.27-1.77.11-2.68,2-4.19,1.11,1.09.48-.05s3.03-3.1,3.64.79c.24.36,2.07,6.08,2.07,6.08l1.96.1.21,1.66s5.72.86-2.35,6.05l-.3.82-1.25-.87-.38.32-.44,1.77-.53,1.18v.8l-.91.32-1.39.11-1.3,4.27-.14,1.56-.27.38,1.02.96-.81,1.45.22.8,1.12.16,1.61,1.87s2.72-.02,1.38-1.36l.44-.52s2.73,1.87-2.03,3.75l-.35-1.29-1.09.49-.49,1.18-2.67,1.01-1.93,1.66-2.2-.08-2.83,2.28-.75.54.11,2.04-1.14,1.1,1.41.18.27,4.82-1.66,2.52-.5,1.23-2.76-1.44-.88-1.72.18,1.72.91,1.32,1.46,1.46.85,3.65-.35,1.7-.8.96.12,1.73-.48,1.37-.96-.28.28-3.97-.35-1.26-2.22-.14-.53-1.45.48-.43-.59-.48.27-1.66-.48-.64.48-1.23-.43-.11-1.35,1.52.49,3.65,1.22,1.82.83,1.26.16,1.82-.59.86,1.34,1.77-.48.7.16.59,1.61-.54,3.16,5.41-.48,1.45-1.23,1.77-1.71.32-.08,2.46h1.34l-.45,1.44s-3.81-1.08-5.99,5l-2.58,1.06-1.45,1.82-.54,2.84-5.04,4.6-1.77,2.68s-1.4,2.44-2.01,7.3l2.6,5.98,3.84,5.56.12,1.4,3.77,7.11.73,5.95-.48.76v1.92l-1.12,1.29h-1.18l-.86.28-.61-1.7-1.85-1.74h-1.39l-.7-.7-.27-1.34-.86-.91-1.23.43-1.39-2.89-1.98-2.57,1.56-1.71-.03-1.45-1.53.59-.05.43-.61-1.75.18-.72v-2.73l-1.34-1.55-1.44-.27-3.48-3.53-1.23-.54-1.82.21v1.02l-2.4.82-2.09.58-.05-.75-3.75-1.93-4.68-.45-1.22,1.09h-.8l-1.61-.05-.64-1.66-1.2-.47-.49,1.7-5.38,1.02-2.27,1.9.67.68.91-.06.11-.69,1.02.22-.11.85-1.02.75-.27,1.18,2.73.8-.11,1.29-2.62-.91-.86-1.23-.75.48-.27,1.71-1.02-.21.37-1.09-1.49.92-.59.7-1.55.16-1.61-1.45.32-.32-.06-.87-1.44.33-.37-1.12-2.68-.11.11,1.18-3.27-.32-1.55-.81-3.37.43-3.32,1.23-6.22,4.29-7.7,4.71-.2,1.13.47.74-1.56,2.66.12,1.7,1.46,3.65-1.09.61-1.02-.31-2.73-.27-.87-1.24-1.7.28-2.04-1.71-.43-1.71-.45-1.11-.56-2.91-1.13-.7-2.2-3.56-2.19-4.63-3.16-3.64-3.7-.43-.43-.54h-.96l-2.08.97-.49,1.7-1.58,1.46-3.28-2.19-2.91-2.27-.11-2.41-.39-2.25-1.94-1.82-.56.49-2.36-3.65-1.5-.32-1.23-1.93-.79-.67-6.97-.35-.44,1.68-4.01-.24-9.69-.8-15.35-10.02.12-1.09-11.12-.83-.16-3.85-2.62-3.85-1.5-.32-.05-1.5-1.55-.27-2.25-3.27h-1.12l-1.55-.96-1.39-.33-.64-.53,1.37-3.36-2.87-4.41-.11-1.02-1.23-1.66-.06-2.04.75-.37.43-1.55-.91-.32-.86-1.18-.11-2.78.43-1.18-1.44-1.39.05-2.2-1.93-3.75.8-2.65-.21-3.83-1.23-1.71.43-1.55,2.84-3.8.48-8.3,2.78-4.23,4.98-12.48v-2.14l1.02-.96-.59-.27.32-.94,1.22-.24-1.32-.85-.02-4.98-.85-.61.98-1.96,1.45,1.6,5.1,1.82,1.46,1.94.24-4.25.61-.73-1.26-1.45h-.11Z"/>
</svg>