<?xml version="1.0" encoding="UTF-8"?>
<svg id="Layer_1" xmlns="http://www.w3.org/2000/svg" version="1.1" viewBox="0 0 230 146.77">
  <!-- Generator: Adobe Illustrator 29.6.0, SVG Export Plug-In . SVG Version: 2.1.1 Build 207)  -->
  <defs>
    <style>
      .st0, .st1 {
        fill: #6a8cc3;
      }

      .st2 {
        fill: #6f7b34;
      }

      .st2, .st1, .st3, .st4 {
        stroke-width: .49px;
      }

      .st2, .st1, .st4 {
        stroke: #fff;
      }

      .st5 {
        fill: #9b8579;
      }

      .st3 {
        fill: none;
        stroke: #c8caca;
      }

      .st4 {
        fill: #ef7763;
      }
    </style>
  </defs>
  <g>
    <polygon class="st2" points="213.08 23.63 206.17 25.34 206.38 26.9 207.03 28.93 207.03 29.95 206.97 31.02 207.51 31.93 208.04 33.16 208.69 34.39 209.17 35.84 209.22 37.29 212.06 36.91 212.17 28.13 213.45 26.95 213.51 25.5 213.08 25.02 213.08 23.63"/>
    <polygon class="st2" points="181 77.94 154.96 80.94 152.93 80.94 152.98 82.23 146.28 82.33 146.18 84.37 145.38 86.3 145.16 87.69 144.78 88.23 143.82 88.39 143.93 89.03 144.25 89.24 143.93 90.69 153.19 90.26 164.82 89.4 170.33 88.6 170.33 87.21 171.46 87.05 171.67 85.92 175.8 83.51 176.17 82.39 177.99 81.85 178.58 80.99 180.03 80.89 180.94 79.55 181 77.94"/>
    <polygon class="st2" points="146.74 82.32 147.26 81.64 147.79 81.68 147.79 80.59 148.15 80.35 148.07 80.03 147.87 79.43 147.83 78.86 149.07 78.46 150.72 79.18 151.04 78.34 150.8 78.1 150.76 76.98 152.08 76.82 152.12 75.89 152.24 74.77 153.33 73.96 155.46 73.72 155.86 74.28 156.42 74.32 157.1 73.4 157.79 73.2 158.23 73.84 158.87 73.92 158.91 72.96 159.72 72.4 160.04 72.72 161.44 72.8 161.48 71.51 163.17 69.95 163.29 68.46 164.62 68.42 165.78 67.49 165.34 67.13 165.1 66.49 165.54 66.13 166.71 66.21 166.91 65.89 167.51 66.01 168.43 67.49 170.08 67.53 170.4 68.22 171.37 67.53 171.97 67.62 172.49 68.14 173.66 66.97 173.98 67.13 175.37 68.46 175.37 70.55 176.49 71.08 177.14 72.64 178.58 73.6 175.42 76.76 175.46 77.7 174.83 77.83 173.7 78.7 154.96 80.94 152.93 80.94 152.98 82.23 146.74 82.32"/>
  </g>
  <polygon class="st4" points="60.48 106.22 60.37 108.79 56.03 108.1 60.53 76.66 86.76 79.51 84.42 107.08 67.81 105.9 67.76 107.08 60.48 106.22"/>
  <g>
    <polygon class="st5" points="86.76 79.51 109.22 80.63 123.64 80.67 123.72 83.48 124.65 90.15 124.61 99.8 121.75 97.87 121.16 98.13 117.52 98.24 116.82 98.99 115.38 98.94 113.34 97.87 113.13 99.15 111.84 99.05 111.04 98.03 109.91 98.08 109.54 98.35 108.68 98.4 107.83 96.8 107.13 96.74 106.32 97.28 103.22 96.15 103.16 95.24 100.81 95.19 99.63 93.96 100.22 82.82 86.4 82.6 86.76 79.51"/>
    <polygon class="st5" points="63.31 54.69 92.56 57.91 91.22 79.71 60.53 76.66 63.31 54.69"/>
    <polygon class="st5" points="123.64 80.67 108.84 80.73 91.22 79.71 92.19 63.21 120.47 63.8 121.06 64.6 122.13 64.76 122.13 65.57 121.59 66 121.59 67.07 123.57 69.21 123.64 80.67"/>
    <polygon class="st5" points="63.31 54.69 55.22 53.78 56.14 47.89 44.03 45.64 38.89 72.85 60.53 76.66 63.31 54.69"/>
    <polygon class="st5" points="20.03 40.28 15.8 56.62 33.96 83.35 34.55 83.08 34.76 77.51 35.73 77.35 37.01 78.42 37.87 78.31 44.03 45.64 20.03 40.28"/>
    <polygon class="st5" points="55.22 53.78 58.82 31.18 86.03 34.82 84.15 56.89 55.22 53.78"/>
    <polygon class="st5" points="92.56 57.91 84.15 56.89 85.01 45.69 107.93 47.09 109.38 48.27 110.24 48.27 110.56 47.89 112.75 47.89 115.86 49.93 117.79 55.76 118.7 60.59 119.13 62.25 120.47 63.8 92.19 63.21 92.56 57.91"/>
    <polygon class="st5" points="113.07 14.04 113.66 15.38 113.4 15.81 113.34 19.29 114.41 21.16 114.41 24.54 114.84 26.95 115.38 28.71 115.49 31.77 114.47 32.68 115.91 34.45 115.91 44.14 136.7 44.03 136.59 42.16 133.7 39.75 133.27 38.84 132.3 38.84 132.14 38.14 131.02 38.14 130.27 37.28 130.11 34.45 130.43 33.64 130.48 32.84 129.79 32.09 129.89 31.66 132.04 29.25 132.25 26.2 135.52 23.41 136.27 22.02 142 18.91 142.21 18.43 140.82 18.54 140.02 18.11 137.29 18.06 137.18 17.52 135.46 18.54 133.91 18.54 133.8 17.89 132.84 17.89 132.57 16.93 131.71 17.41 129.31 15.86 127.86 15.75 127.16 16.23 126.09 16.34 125.77 15.91 124.43 15.97 123.2 15.43 122.18 11.89 120.79 11.79 120.84 13.82 113.07 14.04"/>
    <polygon class="st5" points="88.12 12.75 86.61 29.62 115.49 30.91 115.38 28.71 114.84 26.95 114.41 24.54 114.41 21.16 113.34 19.29 113.4 15.81 113.66 15.38 113.07 14.04 88.12 12.75"/>
    <polygon class="st5" points="85.01 45.69 86.61 29.62 115.49 30.91 115.49 31.77 114.47 32.68 115.91 34.45 115.91 44.14 115.27 44.14 115.33 45.48 116.02 46.02 115.27 48.37 115.7 49.55 112.75 47.89 110.34 47.94 110.24 48.27 109.38 48.27 107.93 47.09 85.01 45.69"/>
    <polygon class="st5" points="64.81 10.02 44.14 6.22 43.39 9.75 43.07 11.09 43.82 13.55 43.65 15.21 45.05 16.39 46.33 19.55 47.83 20.79 45.9 25.23 46.44 26.3 47.14 26.68 48.42 25.77 49.23 30.16 50.67 31.5 50.73 33.37 51.48 33.37 55.17 33.37 56.14 33.8 56.62 32.89 57.47 33 58.22 34.23 58.82 31.18 86.03 34.82 88.12 12.75 64.81 10.02"/>
    <polygon class="st5" points="32.03 42.91 35.14 31.34 34.12 30.96 34.28 29.62 36.16 27.91 36.37 26.89 38.57 24.43 38.67 23.47 37.55 22.66 37.71 18 40.5 5.36 44.14 6.22 43.07 11.09 43.82 13.55 43.65 15.21 45.05 16.39 46.33 19.55 47.83 20.79 45.9 25.23 46.44 26.3 47.14 26.68 48.42 25.77 49.23 30.16 50.67 31.5 50.73 33.37 55.17 33.37 56.14 33.8 56.62 32.89 57.47 33 58.22 34.23 56.14 47.89 32.03 42.91"/>
    <polygon class="st5" points="11.89 13.55 11.14 12.81 11.52 12.11 12.27 11.73 12.53 11.14 11.94 10.88 11.89 9.7 12.96 9.7 12.16 8.84 12.05 4.4 11.46 3.75 12.27 1.29 12.75 1.34 14.25 3 18.26 4.5 19.23 4.77 20.19 6.22 20.3 2.84 20.57 1.93 19.71 .81 19.87 .22 20.3 0 40.5 5.36 37.71 17.79 37.55 21.54 31.01 19.88 23.68 20.04 21.37 19.61 18.48 18.43 16.07 18.8 15.16 17.63 15.27 15.38 14.52 14.52 13.55 14.47 13.18 13.72 11.89 13.55"/>
    <polygon class="st5" points="32.03 42.91 20.03 40.28 3.96 35.62 3.27 34.61 3.75 30.96 6.54 26.73 11.52 14.25 13.34 14.04 13.55 14.47 14.52 14.52 15.27 15.38 15.16 17.63 16.07 18.8 18.48 18.43 21.37 19.61 23.68 20.04 31.01 19.88 37.55 21.54 37.55 22.66 38.67 23.47 38.57 24.43 36.37 26.89 36.16 27.91 34.28 29.62 34.12 30.96 35.14 31.34 32.03 42.91"/>
    <polygon class="st5" points="72.14 106.34 72.04 108.92 56.03 108.22 60.53 76.78 86.76 79.63 84.42 107.2 67.81 106.02 67.76 107.2 72.14 106.34"/>
    <polygon class="st5" points="56.03 108.22 55.86 101.95 51.48 101.95 48.08 102.11 46.14 100.01 43.22 100.01 39.33 98.55 37.87 99.68 33.98 96.12 33.01 97.21 32.64 96.24 31.31 96.24 31.55 84.33 33.96 83.47 34.55 83.2 34.76 77.63 35.73 77.47 37.01 78.54 37.87 78.44 38.89 72.97 60.53 76.78 56.03 108.22"/>
  </g>
  <g>
    <path class="st1" d="M219.02,33.27l-.13-.06-.46-.21-.05-.75-.96-.27-2.94-10.02.7-.32.16-2.03,1.02-1.45-.05-.8-.37-.48-.11-1.45.37-.32.11-2.68,1.23-3.16s.37-2.84,1.87.05l.48-.05s2.73-4.02,4.34,1.39l1.82,5.3,1.5.27.21,1.66s5.52,1.18-.75,5.3l-1.61.75-.16,1.23-1.39-1.29-.38.32v2.2l-.96.75v.8s-1.07.16-.91.32c.16.16-.59.43-.59.43l-.8-.32-.38.75-.53,2.95-.27,1.18Z"/>
    <polygon class="st1" points="218.76 34.23 217.47 35.57 215.44 36.11 212.7 36.75 212.06 36.91 212.17 28.13 213.45 26.95 213.51 25.5 213.08 25.02 213.24 21.86 214.47 21.97 217.42 31.98 218.38 32.25 218.43 33 219.02 33.27 218.76 34.23"/>
    <polygon class="st1" points="216.67 43.61 216.08 40.23 217.79 39.75 219.51 42.11 219.24 42.7 218.54 42.8 216.67 43.61"/>
    <path class="st1" d="M218.49,34.61l1.02.96-.81,1.45.22.8,1.12.16,1.61,1.87,1.34-.16s1.23-.59-1.02-1.5c0,.16,1.5-.21,1.5-.21,0,0,2.73,1.87-2.03,3.75l-.43-.91-.91.54v.86l-.59-.1-1.71-2.36-8.41,1.77-.16-4.23,8.25-1.71,1.02-.96Z"/>
    <polygon class="st1" points="209.92 47.2 209.38 41.52 216.08 40.23 216.67 43.61 215.6 44.25 214.9 44.78 212.81 45.16 209.92 47.2"/>
    <path class="st1" d="M201.83,43.29l-17.52,3.64-.11-1.82,2.78-2.89-.11-.86s-3.64-1.71,1.23-3c-.16.16,3.11.05,3.11.05l.75.21.91-.37,1.45-.32,1.39-1.66,1.07-.21-.06-1.23-.27-1.07-.8-.32-.22-1.18,1.34-1.34,1.02-1.23.86-1.5,1.23-1.29,2.03-.48,1.82-.43,1.18-.21,1.23-.43.11,1.12.7,2.25v2.3l2.2,4.82.21,5.68.48,5.46-.11.86-.06.64.81-.54,2.14-.59,1.93-1.12.75-.64.8.37-.91,1.07-2.04,1.45-1.93.86-1.61.43h-.59l.05-2.25-3.8-1.13-1.02-.59-.54-.91-.37-.96-.75-.05-.8-.59Z"/>
    <polygon class="st1" points="181.1 47.62 182.39 54.59 183.4 59.84 202.58 56.25 204.4 55.55 206.44 53.25 204.67 51.32 203.81 51 203.76 50.14 204.51 49.66 204.08 49.02 204.3 48.27 204.78 48 204.88 46.66 205.31 46.39 204.3 45.8 203.39 43.93 202.64 43.87 201.83 43.29 184.32 46.93 184.15 44.89 181.1 47.62"/>
    <polygon class="st1" points="207.4 60.05 207.29 58.76 205.9 58.5 204.83 57.96 204.13 57.05 204.03 55.77 206.44 53.25 204.67 51.32 203.81 51 203.76 50.14 204.51 49.66 204.08 49.02 204.3 48.27 204.78 48 204.88 46.66 205.31 46.39 209.12 47.52 209.22 49.55 208.47 50.62 209.49 50.84 209.76 55.66 208.1 58.18 208.04 59.46 207.4 60.05"/>
    <polygon class="st1" points="202.58 56.25 204.56 63.16 207.19 62.89 206.92 60.96 205.74 60.16 205.15 58.87 204.13 57.96 203.92 56.62 203.87 55.77 202.58 56.25"/>
    <polygon class="st1" points="206.97 65.08 205.15 65.89 204.35 64.82 202.58 64.5 202.05 63.05 202.53 62.62 201.94 62.14 202.21 60.48 201.72 59.84 202.21 58.6 201.78 58.5 200.81 59.94 200.87 61.87 201.29 63.8 202.1 64.87 202.47 66.05 201.13 65.78 199.15 65.3 197.92 64.55 198.03 63.91 196.37 60.96 195.56 60.43 195.14 60.16 193.37 58.93 192.14 59.46 190.85 59.78 190.37 59.78 189.72 60.26 189.3 60.64 188.71 61.39 188.06 62.09 187.53 59.09 202.58 56.25 204.56 63.16 207.19 62.89 207.35 64.39 206.97 65.08"/>
    <polygon class="st1" points="205.96 73.71 193.37 76.44 173.5 78.85 174.83 77.83 175.53 77.56 175.42 76.76 178.58 73.6 179.6 74.62 181 74.94 181.64 74.3 182.28 74.73 183.46 74.46 183.89 73.39 184.96 73.17 185.87 72.96 186.46 72.05 186.4 70.44 188.01 65.89 188.55 66.26 188.92 66.59 189.94 66.48 190.05 64.82 190.9 64.55 192.46 62.14 192.46 60.32 193.31 60.43 195.24 61.34 195.3 60.37 196.37 60.96 198.03 63.91 197.92 64.55 199.15 65.3 201.56 66 202.05 66.64 202.96 66.74 203.12 68.57 203.49 69 202.53 69.42 202.69 69.96 203.87 71.19 203.76 71.83 203.39 71.89 203.55 72.48 204.35 72.37 205.15 71.94 205.96 73.71"/>
    <path class="st1" d="M197.12,90.85l-5.63-4.02-4.93.27-1.02-1.29-6.16.32-3.91,1.98-5.2.32.05-1.23,1.13-.16.21-1.12,4.13-2.41.37-1.12,1.82-.54.59-.86,1.45-.11.91-1.34.06-1.61,11.78-1.39,13.18-2.84.7,1.18,1.66,2.47-.48,1.45-.7.91-.54.86-1.71.32-.05,1.98,1.77.21-.91,1.71s-4.71-.48-5.79,5.62l-2.79.43Z"/>
    <polygon class="st1" points="188.33 102.79 187.42 102.79 186.89 101.99 186.94 101.13 186.24 100.6 185.39 100.6 185.28 99.42 184.1 97.33 183.3 97.28 181.58 95.3 179.87 93.85 179.39 93.69 177.46 90.9 176.12 90.8 175.1 90.1 174.94 89.03 175.69 88.07 179.39 86.14 185.55 85.81 186.57 87.1 191.49 86.83 197.12 90.85 195.67 92.67 195.4 93.64 195.14 95.51 194.39 96.26 192.99 97.81 190.37 100.12 190.1 100.12 189.99 100.92 188.33 102.79"/>
    <polygon class="st1" points="186.78 110.56 184.05 110.51 184.05 111.36 184.48 111.42 184.43 113.29 183.51 112.87 183.46 112.28 171.03 112.76 169.8 111.26 169.53 110.29 169.1 109.92 168.94 107.45 168.84 105.53 169.37 105.04 169.32 103.87 168.52 102.63 167.07 97.87 166 94.22 164.93 91.44 164.82 89.4 175.48 88.12 174.94 89.03 175.1 90.1 176.12 90.8 177.46 90.9 179.39 93.69 179.87 93.85 181.58 95.3 183.3 97.28 184.1 97.33 185.28 99.42 185.39 100.6 186.24 100.6 186.94 101.13 186.89 101.99 187.42 102.79 188.33 102.79 188.23 103.6 187.85 104.4 187.26 106.54 186.78 110.56"/>
    <polygon class="st1" points="195.78 140.08 194.6 140.08 194.12 140.77 193.26 140.72 192.99 139.49 192.73 138.63 191.28 136.91 189.89 136.91 189.19 136.22 188.92 134.88 188.06 133.97 187.48 134.02 187.42 134.45 186.83 134.4 185.44 131.5 183.46 128.93 185.01 127.22 184.8 126.41 183.46 126.36 183.41 126.79 183.89 127.06 183.41 128.08 183.14 127.54 182.66 126.79 182.6 124.59 182.98 124.33 182.98 121.59 181.64 120.04 180.19 119.77 176.71 116.24 175.48 115.7 173.66 115.92 173.66 116.94 171.14 118.17 169.16 118.33 169.1 117.58 165.36 115.65 160.8 115.6 159.46 116.29 158.66 116.29 158.55 114.36 157.27 113.35 157.37 112.38 169.8 111.04 171.03 112.76 183.3 112.28 183.51 112.87 184.43 113.29 184.48 111.42 184.05 111.36 184.05 110.51 186.78 110.56 187.1 112.01 188.92 116.08 192.08 120.42 193.32 121.7 193.15 122.45 192.89 123.04 197.06 130.22 197.71 135.52 197.6 136.49 196.9 136.86 196.96 138.41 197.71 137.77 197.65 139.06 197.01 140.4 193.8 143.18 193.58 142.65 196.64 140.18 196.8 139.54 195.78 140.08"/>
    <polygon class="st1" points="182.23 54.16 181.74 55.66 181.85 60.64 180.08 62.41 178.91 62.62 178.32 63.8 178.37 65.57 177.78 65.67 177.78 65.08 177.08 65.14 176.87 67.39 176.39 67.98 176.28 68.46 175.37 68.46 175.37 70.55 176.49 71.08 177.14 72.64 178.58 73.6 179.6 74.62 181 74.94 181.64 74.3 182.28 74.73 183.46 74.46 183.89 73.39 185.87 72.96 186.46 72.05 186.4 70.44 188.01 65.89 188.92 66.59 189.94 66.48 190.05 64.82 190.9 64.55 192.46 62.14 192.46 60.32 193.31 60.43 195.24 61.34 195.3 60.37 193.37 58.93 190.37 59.78 188.06 62.09 187.53 59.09 183.46 59.67 182.23 54.16"/>
    <polygon class="st1" points="158.66 116.29 156.84 116.88 156.52 116.61 157.05 116.24 156.41 114.58 155.66 114.42 155.34 115.22 155.28 116.02 154.05 116.24 153.19 108.21 153.41 90.21 164.82 89.4 164.82 91.17 168.52 102.63 169.32 103.87 169.37 105.04 168.84 105.53 169.1 109.92 169.53 110.29 169.64 111.04 157.37 112.38 157.27 113.35 158.55 114.36 158.66 116.29"/>
    <polygon class="st1" points="154.05 116.24 151.16 116.51 149.34 116.83 148.69 117.63 148.1 116.83 147.09 115.38 147.14 113.45 138.63 113.61 138.41 111.26 140.29 108.26 140.71 107.56 140.87 106.49 141.09 106.11 140.55 105.31 140.12 103.97 139.96 102.79 139.96 101.88 140.07 100.06 140.02 97.49 140.93 95.62 142.11 94.55 142.32 92.94 143.66 91.76 143.66 90.85 143.93 90.69 153.41 90.21 153.19 108.21 154.05 116.24"/>
    <polygon class="st1" points="128.29 121.22 128.29 119.93 128.55 116.08 129.2 115.44 129.09 112.11 127.86 110.83 127.91 109.65 126.79 108.04 126.79 102.53 139.86 102.58 140.12 103.97 140.55 105.31 141.09 106.11 140.82 107.19 138.41 111.26 138.63 113.61 147.14 113.45 147.09 115.38 148.69 117.63 147.52 118.76 147.73 119.4 148.64 119.34 148.75 118.65 149.28 118.27 149.77 118.86 149.66 119.72 148.64 120.47 148.43 121.01 148.37 121.65 150.19 122.02 151.11 122.45 151.69 123.2 151 123.74 150.3 123.63 149.23 122.99 148.37 122.83 147.68 122.56 147.52 121.59 146.77 122.08 146.61 123.04 146.5 123.79 145.16 124.33 145.48 123.58 145.53 122.99 144.36 123.42 143.77 124.11 143.23 124.33 142.21 124.27 141.14 123.79 140.66 123.36 140.61 122.83 140.93 122.51 140.87 122.08 139.43 121.97 139.05 120.85 136.37 120.74 136.59 121.33 138.52 121.81 138.2 122.45 136.48 121.92 134.93 121.97 133.21 121.59 131.66 120.79 130.11 120.9 128.29 121.22"/>
    <polygon class="st1" points="139.86 102.58 126.79 102.53 126.57 100.01 125.13 100.17 124.61 99.8 124.65 90.15 123.64 83.69 123.68 83 143.77 82.88 144.37 83.56 144.17 84.25 143.16 84.93 143.25 85.57 145.78 85.45 145.38 86.3 145.16 87.69 144.78 88.23 143.82 88.39 143.93 89.03 144.25 89.24 143.93 90.69 143.66 90.85 143.66 91.76 142.32 92.94 142.11 94.55 140.93 95.62 140.02 97.49 140.07 100.32 139.86 102.58"/>
    <polygon class="st1" points="206.97 65.08 205.43 65.81 205.19 67.3 204.87 69.87 205.31 70.75 205.84 70.15 206.32 68.78 206.2 67.05 207 66.09 206.97 65.08"/>
    <polygon class="st1" points="181.17 47.81 180.25 48.05 176.59 50.94 176.15 51.35 174.98 51.43 173.98 51.99 172.85 51.99 172.05 51.43 170.44 51.39 169.48 50.58 168.64 50.98 166.71 51.1 163.77 51.35 165.54 66.13 166.71 66.21 166.91 65.89 167.51 66.01 168.43 67.49 170.08 67.53 170.4 68.22 171.01 67.82 171.37 67.53 171.97 67.62 172.49 68.14 173.66 66.97 173.98 67.13 175.37 68.46 176.28 68.46 176.43 67.82 176.87 67.39 177.08 65.14 177.78 65.08 177.78 65.67 178.37 65.57 178.32 63.8 178.91 62.62 180.08 62.41 181.85 60.64 181.74 55.66 182.25 54.36 181.17 47.81"/>
    <polygon class="st1" points="152.85 52.95 153.81 53.28 155.78 52.07 163.77 51.35 165.54 66.13 165.14 66.65 165.34 67.13 165.78 67.49 164.62 68.42 163.29 68.46 163.17 69.95 161.48 71.51 161.44 72.8 160.04 72.72 159.72 72.4 158.91 72.96 158.87 73.92 158.23 73.84 157.79 73.2 157.1 73.4 156.42 74.32 155.86 74.28 155.46 73.72 153.33 73.96 152.24 74.77 152.32 72.6 153.97 70.07 154.21 68.1 153.53 67.42 152.85 53.11 152.85 52.95"/>
    <polygon class="st1" points="123.68 83 123.57 69.21 121.59 67.07 121.59 66 122.13 65.57 122.13 64.76 121.06 64.6 119.13 62.25 118.7 60.59 135.95 60.16 136.75 61.39 136.64 63.53 137.13 64.87 140.39 67.82 140.34 69.21 142.7 69.58 143.07 70.12 141.95 72.64 144.14 75.37 145.43 75.37 146.02 76.49 146.39 77.56 146.34 78.37 146.98 79.71 147.79 79.76 148.15 80.35 147.79 80.59 147.79 81.68 147.26 81.64 146.74 82.32 146.28 82.33 146.18 84.37 145.78 85.45 143.25 85.57 143.16 84.93 144.17 84.25 144.37 83.56 143.77 82.88 123.68 83"/>
    <polygon class="st1" points="151.11 48.59 151.16 50.14 152.07 51.26 152.85 52.95 153.53 67.42 154.21 68.1 153.97 70.07 152.32 72.6 152.07 76.66 150.76 76.98 150.8 78.1 151.04 78.34 150.72 79.18 149.07 78.46 147.83 78.86 147.79 79.76 146.98 79.71 146.34 78.37 146.39 77.56 145.43 75.37 144.14 75.37 141.95 72.64 143.07 70.12 142.7 69.58 140.34 69.21 140.39 67.82 137.13 64.87 136.64 63.53 136.59 61.39 137.18 61.07 137.07 59.99 138.25 59.67 138.25 58.34 138.84 57.96 138.68 57.1 138.09 56.62 138.14 55.76 138.68 55.28 139.64 55.28 141.04 54.21 141.62 51.8 139.38 49.77 139.32 48.96 151.11 48.59"/>
    <path class="st1" d="M136.7,44.03l-.11-1.87-2.89-2.41-.59-.91h-.8l-.16-.7h-1.12l-.75-.86-.16-2.84.32-.8.05-.8-.7-.75.32-.64,1.93-2.2.21-3.05s2.36.05,2.2,0c-.16-.05,2.84-1.61,2.84-1.61l.8.38-.96,1.39.48.32,1.02-.21,1.07.59.65.8,1.12.21,2.35.43,4.55,1.07,1.07,1.02.43,2.36.7,1.02-1.39,2.36.16.91.54-.16,3.05-4.39.21.8-1.71,4.02v1.82l-.43,1.07.27,1.5-.59,1.07-.27,1.18.7,4.44-11.78.37-1.18-.59-.96-1.07-.11-1.34.8-.43-.32-.64-.86-.86Z"/>
    <polygon class="st1" points="115.91 44.14 136.7 44.03 137.55 44.89 137.88 45.53 137.07 45.96 137.18 47.3 138.14 48.37 139.32 48.96 139.38 49.93 141.62 51.8 141.04 54.21 139.64 55.28 138.68 55.28 138.14 55.76 138.09 56.62 138.73 57.26 138.84 57.96 138.3 58.5 138.25 59.67 137.07 59.99 137.18 61.07 136.59 61.39 135.95 60.16 118.7 60.59 117.74 56.14 115.86 49.93 115.27 48.37 115.75 47.14 116.02 46.02 115.33 45.48 115.27 44.14 115.91 44.14"/>
    <polygon class="st1" points="155.78 52.07 156.78 50.22 157.63 48.86 157.59 45.6 155.7 42.39 155.98 38.77 156.42 35.76 156.99 35.56 156.86 34.43 157.95 33.55 158.19 32.66 158.75 32.46 158.95 33.23 158.47 34.19 158.39 35 159.31 34.67 159.4 32.06 159.88 31.78 160.92 31.74 161.08 31.1 160.28 31.1 160.2 30.14 161.64 29.05 162.49 29.93 163.09 29.57 165.58 30.7 166.71 30.82 167.67 32.22 167.03 32.7 167.07 33.19 167.83 33.87 167.75 36.64 167.03 37.57 166.71 38.65 166.22 38.69 166.02 40.26 167.15 40.54 168.07 39.21 168.48 38.33 169.88 37.53 171.33 39.66 172.21 42.83 172.29 45.8 171.37 45.76 170.52 47.65 170.36 48.98 169.48 50.58 168.64 50.98 155.78 52.07"/>
    <polygon class="st1" points="150.57 33.96 152.32 29.93 152.89 29.93 153.53 30.09 154.41 29.53 154.89 29.77 155.66 28.73 157.79 28.41 158.23 27.88 160.96 28.29 163.69 27.72 166.06 28.01 166.3 27.52 165.74 26.76 164.18 27.24 163.53 26.76 163.29 24.67 162.57 24.91 162.25 25.11 160.72 25.68 159.76 25.35 159.76 23.95 158.99 24.07 157.63 24.67 155.3 24.71 153.73 26.04 150.88 25.96 149.31 24.27 147.98 24.03 146.66 24.71 146.54 23.99 147.1 23.27 147.14 22.78 148.91 21.5 149.23 21.17 149.03 20.73 147.38 21.05 145.01 23.1 144.85 23.83 142.97 24.99 141.8 25.19 141.16 25.88 139.55 26.36 139.47 26.92 139.69 27.05 140.34 27.86 148.37 29.57 149.45 30.59 149.87 32.95 150.57 33.96"/>
    <polygon class="st1" points="31.66 96.05 19.98 94.92 19.82 91.06 17.19 87.21 15.69 86.88 15.64 85.39 14.09 85.12 11.84 81.85 10.71 81.85 9.16 80.89 7.71 80.94 7.12 80.03 8.09 77.03 5.62 72.26 5.52 71.24 4.29 69.58 4.23 67.55 4.98 67.17 5.41 65.62 4.5 65.3 3.64 64.12 3.53 61.34 3.96 60.16 2.52 58.76 2.57 56.57 .64 52.82 1.39 49.71 1.23 46.34 0 44.62 .43 43.07 3.27 39.27 3.38 35.94 3.96 35.62 20.03 40.28 15.8 56.62 33.96 83.35 33.83 84.37 35.35 87.48 35.41 88.06 33.05 89.89 33 91.65 31.76 92.4 31.6 94.87 32.67 94.65 32.65 95.22 31.66 96.05"/>
    <polygon class="st1" points="111.73 141.74 110.56 142.65 109.91 142.32 109.22 141.63 106.48 141.36 105.63 140.5 103.91 140.4 103.06 139.75 102.36 139.32 101.88 138.68 101.45 136.97 100.91 136.33 100.54 135.74 100.43 132.95 100.11 132.58 99.31 132.26 97.17 129.31 96.52 128.88 95.51 125.34 94.92 124.06 91.75 120.42 88.06 119.99 87.63 119.45 86.67 119.45 84.95 120.58 84.69 121.7 84.15 122.67 82.76 124.17 82.06 123.79 79.27 122.02 76.33 119.13 76.22 116.72 76.22 116.35 75.31 114.2 74.13 113.24 73.33 113.13 70.92 110.03 70.28 109.6 69.47 109.17 69.04 108.04 68.24 107.24 68.08 106.12 84.42 107.08 86.35 82.65 100.22 82.82 99.63 93.96 100.81 95.19 103.16 95.24 103.22 96.15 106.32 97.28 107.13 96.74 107.83 96.8 108.68 98.4 109.54 98.35 109.91 98.08 111.04 98.03 111.84 99.05 113.13 99.15 113.34 97.87 115.38 98.94 116.82 98.99 117.52 98.24 121.16 98.13 121.75 97.87 125.13 100.17 126.57 100.01 126.79 102.53 126.79 108.04 127.81 109.81 127.86 110.83 129.09 112.11 129.2 115.44 128.55 116.08 128.29 121.22 124.96 122.45 118.7 127.22 114.36 129.58 112.27 130.92 111.04 131.45 110.99 132.2 111.36 132.41 111.31 133.33 110.34 135.74 110.4 137.99 111.73 141.74"/>
    <polygon class="st0" points="195.95 61.17 193.19 59.31 189.55 62.22 178.85 72.19 179.09 73.57 178.04 74.54 182.82 76.24 192.95 73.73 195.95 61.17"/>
  </g>
  <path class="st3" d="M19.93,0l20.23,5.34,4.04.66,20.68,3.8,22.93,2.96,25.33,1.06,7.77-.21-.06-2.04,1.39.11,1.02,3.54,1.23.54,1.34-.05.32.43,1.07-.11.7-.48,1.45.11,2.41,1.55.86-.48.27.96h.96l-.11,1.04,1.77-.39,1.71-1.02-.08.93,2.92-.34.8.43,1.18.38-5.73,3.11-.75,1.39-3.27,2.78h2.2l2.84-1.61.42.54-.97,1.34.88.21,1.02-.22.92-.11,1.6-.48.64-.68.65.06,2.41-1.42.16-.72,2.37-2.05,1.38.06-2.07,1.7-.61.85.57,1.04,1.01-.31,1.64-.13,1.57,1.69,2.85.08,1.57-1.33,2.33-.04,1.37-.6.76,1.29.96.32,2.57-1.01.24,2.09.64.48,1.57-.48.56.76-2.61.2-2.73.56-2.73-.4-.44.52-2.13.32-.77,1.04-.54-.63-.83.95-1.2-.16-3.15,6.39.16.91.54-.16,3.27-3.59-1.71,4.02v1.82l-.43,1.07-.17,1.27-.61,2.07.49,4.62v1.94l1.36.97.78,1.69.96.32,1.97-1.21,1.85-3.21-.04-3.26-1.89-3.21.72-6.63.56-.2-.12-1.12,1.08-.88.24-.89.76.56-.48.96-.08.8,1.31-.26-.31-2.67,1.53-.32.16-.65h-.8l-.08-.96,1.45-1.09.84.88.6-.36,2.49,1.12,1.12.12.96,1.41-.64.48.04.48.77.68-.08,2.77-1.53,2.05-.68-.07.48,1.64,1.13.28,1.33-2.21,1.2-.44,1.65,1.76.89,3.18-.35,2.72-.49.21-.84,1.89-.36.82-.97,1.7.73,1.34,2.19.36.75.12h1.13l1-.56,1.16-.08,5.02-3.54,2.99-2.92,2.84-2.68-.11-.86s-3.18-1.69,1.23-3l3.11.05.75.22,1.28-.25,1.08-.45,1.39-1.66,1.07-.21-.32-2.3-.43-.36-.59-1.14,2.36-2.57.86-1.5,1.23-1.28,5.87-1.28,7.31-1.99.16-1.77,1.23.11.7-.32.16-2.04,1.02-1.45-.05-.8-.37-.48.27-1.77.11-2.68,2-4.19,1.11,1.09.48-.05s3.03-3.1,3.64.79c.24.36,2.07,6.08,2.07,6.08l1.96.1.21,1.66s5.72.86-2.35,6.05l-.3.82-1.25-.87-.38.32-.44,1.77-.53,1.18v.8l-.91.32-1.39.11-1.3,4.27-.14,1.56-.27.38,1.02.96-.81,1.45.22.8,1.12.16,1.61,1.87s2.72-.02,1.38-1.36l.44-.52s2.73,1.87-2.03,3.75l-.35-1.29-1.09.49-.49,1.18-2.67,1.01-1.93,1.66-2.2-.08-2.84,2.28-.75.54.11,2.04-1.14,1.1,1.41.18.27,4.82-1.66,2.52-.5,1.23-2.77-1.44-.88-1.72.18,1.72.91,1.32,1.46,1.46.85,3.65-.35,1.7-.8.96.12,1.73-.48,1.37-.96-.28.28-3.97-.35-1.26-2.22-.14-.53-1.45.48-.43-.59-.48.27-1.66-.48-.64.48-1.23-.43-.11-1.35,1.52.49,3.65,1.22,1.82.83,1.26.16,1.82-.59.86,1.34,1.77-.48.7.16.59,1.61-.54,3.16,5.41-.48,1.45-1.23,1.77-1.71.32-.08,2.47h1.34l-.45,1.44s-3.81-1.08-5.99,5l-2.58,1.06-1.45,1.82-.54,2.84-5.04,4.6-1.77,2.68s-1.4,2.44-2.01,7.3l2.6,5.98,3.84,5.56.12,1.4,3.77,7.11.73,5.96-.48.76v1.92s-1.12,1.3-1.12,1.3h-1.18l-.86.28-.61-1.7-1.85-1.74h-1.39l-.7-.7-.27-1.34-.86-.91-1.23.43-1.39-2.89-1.98-2.57,1.56-1.71-.03-1.45-1.53.59-.05.43-.61-1.75.18-.72v-2.73l-1.34-1.55-1.45-.27-3.48-3.53-1.23-.54-1.82.21v1.02l-2.4.82-2.09.58-.05-.75-3.75-1.93-4.68-.45-1.22,1.09h-.8l-1.61-.05-.64-1.66-1.2-.47-.49,1.7-5.38,1.02-2.27,1.9.67.68.91-.06.11-.7,1.02.22-.11.85-1.02.75-.27,1.18,2.73.8-.11,1.29-2.62-.91-.86-1.23-.75.48-.27,1.71-1.02-.21.37-1.09-1.49.92-.59.7-1.55.16-1.61-1.45.32-.32-.06-.87-1.44.33-.37-1.12-2.68-.11.11,1.18-3.27-.32-1.55-.81-3.38.43-3.32,1.23-6.22,4.29-7.7,4.71-.2,1.13.47.74-1.56,2.66.12,1.7,1.46,3.65-1.09.61-1.02-.31-2.73-.27-.87-1.24-1.7.28-2.04-1.71-.43-1.71-.45-1.11-.56-2.91-1.13-.7-2.2-3.56-2.19-4.63-3.16-3.64-3.7-.43-.43-.54h-.96l-2.08.97-.49,1.7-1.58,1.46-3.28-2.19-2.91-2.27-.11-2.41-.39-2.25-1.94-1.82-.56.49-2.36-3.65-1.5-.32-1.23-1.93-.79-.67-6.97-.35-.44,1.68-4.01-.24-9.69-.8-15.35-10.02.12-1.09-11.12-.83-.16-3.86-2.62-3.86-1.5-.32-.05-1.5-1.55-.27-2.25-3.27h-1.12l-1.55-.96-1.39-.33-.64-.53,1.37-3.36-2.87-4.41-.11-1.02-1.23-1.66-.06-2.04.75-.37.43-1.55-.91-.32-.86-1.18-.11-2.78.43-1.18-1.45-1.39.05-2.2-1.93-3.75.8-2.65-.21-3.83-1.23-1.71.43-1.55,2.84-3.8.48-8.3,2.78-4.23,4.98-12.48v-2.14l1.02-.96-.59-.27.32-.94,1.22-.24-1.32-.85-.02-4.98-.85-.61.98-1.96,1.45,1.6,5.11,1.82,1.46,1.94.24-4.25.61-.73-1.26-1.45Z"/>
</svg>