<?xml version="1.0" encoding="UTF-8"?>
<svg id="Layer_1" xmlns="http://www.w3.org/2000/svg" version="1.1" viewBox="0 0 230 146.77">
  <!-- Generator: Adobe Illustrator 29.6.0, SVG Export Plug-In . SVG Version: 2.1.1 Build 207)  -->
  <defs>
    <style>
      .st0 {
        fill: #df6f5c;
      }

      .st0, .st1, .st2, .st3 {
        stroke: #fff;
        stroke-width: .49px;
      }

      .st1, .st4 {
        fill: #6f7b34;
      }

      .st5 {
        fill: #9b8579;
      }

      .st2 {
        fill: #6a8cc3;
      }

      .st3 {
        fill: #abcdec;
      }
    </style>
  </defs>
  <g>
    <polygon class="st2" points="206.97 66.88 205.15 67.68 204.35 66.61 202.58 66.29 202.05 64.84 202.53 64.41 201.94 63.93 202.21 62.27 201.72 61.63 202.21 60.4 201.78 60.29 200.81 61.74 200.87 63.66 201.29 65.59 202.1 66.66 202.47 67.84 201.13 67.57 199.15 67.09 197.92 66.34 198.03 65.7 196.37 62.75 195.56 62.22 195.14 61.95 193.37 60.72 192.14 61.25 190.85 61.57 190.37 61.57 189.72 62.06 189.3 62.43 188.71 63.18 188.06 63.88 187.53 60.88 202.58 58.04 204.56 64.95 207.19 64.68 207.35 66.18 206.97 66.88"/>
    <path class="st2" d="M197.12,92.64l-5.63-4.02-4.93.27-1.02-1.29-6.16.32-3.91,1.98-5.2.32.05-1.23,1.13-.16.21-1.12,4.13-2.41.37-1.12,1.82-.54.59-.86,1.45-.11.91-1.34.06-1.61,11.78-1.39,13.18-2.84.7,1.18,1.66,2.47-.48,1.45-.7.91-.54.86-1.71.32-.05,1.98,1.77.21-.91,1.71s-4.71-.48-5.79,5.62l-2.79.43Z"/>
    <polygon class="st2" points="188.33 104.59 187.42 104.59 186.89 103.78 186.94 102.93 186.24 102.39 185.39 102.39 185.28 101.21 184.1 99.12 183.3 99.07 181.58 97.09 179.87 95.64 179.39 95.48 177.46 92.7 176.12 92.59 175.1 91.89 174.94 90.82 175.69 89.86 179.39 87.93 185.55 87.61 186.57 88.89 191.49 88.62 197.12 92.64 195.67 94.46 195.4 95.43 195.14 97.3 194.39 98.05 192.99 99.6 190.37 101.91 190.1 101.91 189.99 102.71 188.33 104.59"/>
    <polygon class="st2" points="186.78 112.35 184.05 112.3 184.05 113.16 184.48 113.21 184.43 115.09 183.51 114.66 183.46 114.07 171.03 114.55 169.8 113.05 169.53 112.08 169.1 111.71 168.94 109.25 168.84 107.32 169.37 106.84 169.32 105.66 168.52 104.43 167.07 99.66 166 96.02 164.93 93.23 164.82 91.2 175.48 89.91 174.94 90.82 175.1 91.89 176.12 92.59 177.46 92.7 179.39 95.48 179.87 95.64 181.58 97.09 183.3 99.07 184.1 99.12 185.28 101.21 185.39 102.39 186.24 102.39 186.94 102.93 186.89 103.78 187.42 104.59 188.33 104.59 188.23 105.39 187.85 106.19 187.26 108.34 186.78 112.35"/>
    <polygon class="st2" points="195.78 141.87 194.6 141.87 194.12 142.56 193.26 142.51 192.99 141.28 192.73 140.42 191.28 138.71 189.89 138.71 189.19 138.01 188.92 136.67 188.06 135.76 187.48 135.81 187.42 136.24 186.83 136.19 185.44 133.3 183.46 130.73 185.01 129.01 184.8 128.21 183.46 128.15 183.41 128.58 183.89 128.85 183.41 129.87 183.14 129.33 182.66 128.58 182.6 126.39 182.98 126.12 182.98 123.39 181.64 121.83 180.19 121.57 176.71 118.03 175.48 117.5 173.66 117.71 173.66 118.73 171.14 119.96 169.16 120.12 169.1 119.37 165.36 117.44 160.8 117.39 159.46 118.08 158.66 118.08 158.55 116.16 157.27 115.14 157.37 114.17 169.8 112.83 171.03 114.55 183.3 114.07 183.51 114.66 184.43 115.09 184.48 113.21 184.05 113.16 184.05 112.3 186.78 112.35 187.1 113.8 188.92 117.87 192.08 122.21 193.32 123.49 193.15 124.24 192.89 124.83 197.06 132.01 197.71 137.31 197.6 138.28 196.9 138.65 196.96 140.21 197.71 139.56 197.65 140.85 197.01 142.19 193.8 144.97 193.58 144.44 196.64 141.97 196.8 141.33 195.78 141.87"/>
    <polygon class="st2" points="158.66 118.08 156.84 118.68 156.52 118.41 157.05 118.03 156.41 116.37 155.66 116.21 155.34 117.02 155.28 117.82 154.05 118.03 153.19 110 153.41 92 164.82 91.2 164.82 92.96 168.52 104.43 169.32 105.66 169.37 106.84 168.84 107.32 169.1 111.71 169.53 112.08 169.64 112.84 157.37 114.17 157.27 115.14 158.55 116.16 158.66 118.08"/>
    <polygon class="st2" points="154.05 118.03 151.16 118.3 149.34 118.62 148.69 119.42 148.1 118.62 147.09 117.17 147.14 115.25 138.63 115.41 138.41 113.05 140.29 110.05 140.71 109.35 140.87 108.28 141.09 107.91 140.55 107.1 140.12 105.77 139.96 104.59 139.96 103.68 140.07 101.86 140.02 99.28 140.93 97.41 142.11 96.34 142.32 94.73 143.66 93.55 143.66 92.64 143.93 92.48 153.41 92 153.19 110 154.05 118.03"/>
    <polygon class="st2" points="128.29 123.01 128.29 121.73 128.55 117.87 129.2 117.23 129.09 113.91 127.86 112.62 127.91 111.44 126.79 109.84 126.79 104.32 139.86 104.37 140.12 105.77 140.55 107.1 141.09 107.91 140.82 108.98 138.41 113.05 138.63 115.41 147.14 115.25 147.09 117.17 148.69 119.42 147.52 120.55 147.73 121.19 148.64 121.14 148.75 120.44 149.28 120.07 149.77 120.66 149.66 121.51 148.64 122.26 148.43 122.8 148.37 123.44 150.19 123.82 151.11 124.24 151.69 124.99 151 125.53 150.3 125.42 149.23 124.78 148.37 124.62 147.68 124.35 147.52 123.39 146.77 123.87 146.61 124.83 146.5 125.58 145.16 126.12 145.48 125.37 145.53 124.78 144.36 125.21 143.77 125.91 143.23 126.12 142.21 126.07 141.14 125.58 140.66 125.16 140.61 124.62 140.93 124.3 140.87 123.87 139.43 123.76 139.05 122.64 136.37 122.53 136.59 123.12 138.52 123.6 138.2 124.24 136.48 123.71 134.93 123.76 133.21 123.39 131.66 122.58 130.11 122.69 128.29 123.01"/>
    <polygon class="st2" points="111.73 143.53 110.56 144.44 109.91 144.12 109.22 143.42 106.48 143.15 105.63 142.3 103.91 142.19 103.06 141.55 102.36 141.12 101.88 140.47 101.45 138.76 100.91 138.12 100.54 137.53 100.43 134.74 100.11 134.37 99.31 134.05 97.17 131.1 96.52 130.67 95.51 127.14 94.92 125.85 91.75 122.21 88.06 121.78 87.63 121.24 86.67 121.24 84.95 122.37 84.69 123.5 84.15 124.46 82.76 125.96 82.06 125.58 79.27 123.82 76.33 120.92 76.22 118.51 76.22 118.14 75.31 116 74.13 115.03 73.33 114.93 70.92 111.82 70.28 111.39 69.47 110.96 69.04 109.84 68.24 109.03 68.08 107.91 84.42 108.87 86.35 84.45 100.22 84.61 99.63 95.75 100.81 96.98 103.16 97.04 103.22 97.95 106.32 99.07 107.13 98.54 107.83 98.59 108.68 100.2 109.54 100.14 109.91 99.87 111.04 99.82 111.84 100.84 113.13 100.95 113.34 99.66 115.38 100.73 116.82 100.78 117.52 100.03 121.16 99.93 121.75 99.66 125.13 101.96 126.57 101.8 126.79 104.32 126.79 109.84 127.81 111.6 127.86 112.62 129.09 113.91 129.2 117.23 128.55 117.87 128.29 123.01 124.96 124.25 118.7 129.01 114.36 131.37 112.27 132.71 111.04 133.24 110.99 133.99 111.36 134.21 111.31 135.12 110.34 137.53 110.4 139.78 111.73 143.53"/>
    <polygon class="st2" points="139.86 104.37 126.79 104.32 126.57 101.8 125.13 101.96 124.61 101.59 124.65 91.95 123.64 85.48 123.68 84.79 143.77 84.67 144.37 85.36 144.17 86.04 143.16 86.72 143.25 87.37 145.78 87.24 145.38 88.09 145.16 89.48 144.78 90.02 143.82 90.18 143.93 90.82 144.25 91.04 143.93 92.48 143.66 92.64 143.66 93.55 142.32 94.73 142.11 96.34 140.93 97.41 140.02 99.28 140.07 102.11 139.86 104.37"/>
  </g>
  <polygon class="st3" points="123.68 84.79 123.57 71 121.59 68.86 121.59 67.79 122.13 67.36 122.13 66.56 121.06 66.4 119.13 64.04 118.7 62.38 135.95 61.95 136.75 63.18 136.64 65.32 137.13 66.66 140.39 69.61 140.34 71 142.7 71.38 143.07 71.91 141.95 74.43 144.14 77.16 145.43 77.16 146.02 78.29 146.39 79.36 146.34 80.16 146.98 81.5 147.79 81.55 148.15 82.14 147.79 82.38 147.79 83.47 147.26 83.43 146.74 84.11 146.28 84.12 146.18 86.16 145.78 87.24 143.25 87.37 143.16 86.72 144.17 86.04 144.37 85.36 143.77 84.67 123.68 84.79"/>
  <g>
    <polygon class="st5" points="86.76 81.3 109.22 82.42 123.64 82.46 123.72 85.28 124.65 91.95 124.61 101.59 121.75 99.66 121.16 99.93 117.52 100.03 116.82 100.78 115.38 100.73 113.34 99.66 113.13 100.95 111.84 100.84 111.04 99.82 109.91 99.87 109.54 100.14 108.68 100.2 107.83 98.59 107.13 98.54 106.32 99.07 103.22 97.95 103.16 97.04 100.81 96.98 99.63 95.75 100.22 84.61 86.4 84.39 86.76 81.3"/>
    <polygon class="st5" points="60.48 108.01 60.37 110.59 56.03 109.89 60.53 78.45 86.76 81.3 84.42 108.87 67.81 107.69 67.76 108.87 60.48 108.01"/>
    <polygon class="st5" points="63.31 56.49 92.56 59.7 91.22 81.5 60.53 78.45 63.31 56.49"/>
    <polygon class="st5" points="123.64 82.46 108.84 82.52 91.22 81.5 92.19 65 120.47 65.59 121.06 66.4 122.13 66.56 122.13 67.36 121.59 67.79 121.59 68.86 123.57 71 123.64 82.46"/>
    <polygon class="st5" points="56.03 109.89 46.33 108.66 30.48 98.86 32.62 96.93 32.67 96.44 31.6 96.66 31.76 94.2 33 93.45 33.05 91.68 35.03 90.23 35.41 89.86 35.35 89.27 33.85 86.05 33.96 85.14 34.55 84.87 34.76 79.3 35.73 79.14 37.01 80.22 37.87 80.11 38.89 74.64 60.53 78.45 56.03 109.89"/>
    <polygon class="st5" points="63.31 56.49 55.22 55.58 56.14 49.68 44.03 47.43 38.89 74.64 60.53 78.45 63.31 56.49"/>
    <polygon class="st5" points="20.03 42.08 15.8 58.41 33.96 85.14 34.55 84.87 34.76 79.3 35.73 79.14 37.01 80.22 37.87 80.11 44.03 47.43 20.03 42.08"/>
    <polygon class="st5" points="55.22 55.58 58.82 32.97 86.03 36.61 84.15 58.68 55.22 55.58"/>
    <polygon class="st5" points="92.56 59.7 84.15 58.68 85.01 47.49 107.93 48.88 109.38 50.06 110.24 50.06 110.56 49.68 112.75 49.68 115.86 51.72 117.79 57.56 118.7 62.38 119.13 64.04 120.47 65.59 92.19 65 92.56 59.7"/>
    <polygon class="st5" points="88.12 14.54 86.61 31.42 115.49 32.7 115.38 30.51 114.84 28.74 114.41 26.33 114.41 22.95 113.34 21.08 113.4 17.6 113.66 17.17 113.07 15.83 88.12 14.54"/>
    <polygon class="st5" points="85.01 47.49 86.61 31.42 115.49 32.7 115.49 33.56 114.47 34.47 115.91 36.24 115.91 45.93 115.27 45.93 115.33 47.27 116.02 47.81 115.27 50.16 115.7 51.34 112.75 49.68 110.34 49.74 110.24 50.06 109.38 50.06 107.93 48.88 85.01 47.49"/>
    <polygon class="st5" points="64.81 11.81 44.14 8.01 43.39 11.54 43.07 12.88 43.82 15.35 43.65 17.01 45.05 18.19 46.33 21.35 47.83 22.58 45.9 27.03 46.44 28.09 47.14 28.47 48.42 27.56 49.23 31.95 50.67 33.29 50.73 35.17 51.48 35.17 55.17 35.17 56.14 35.59 56.62 34.69 57.47 34.79 58.22 36.02 58.82 32.97 86.03 36.61 88.12 14.54 64.81 11.81"/>
    <polygon class="st5" points="32.03 44.7 35.14 33.13 34.12 32.76 34.28 31.42 36.16 29.7 36.37 28.69 38.57 26.22 38.67 25.26 37.55 24.45 37.71 19.79 40.5 7.15 44.14 8.01 43.07 12.88 43.82 15.35 43.65 17.01 45.05 18.19 46.33 21.35 47.83 22.58 45.9 27.03 46.44 28.09 47.14 28.47 48.42 27.56 49.23 31.95 50.67 33.29 50.73 35.17 55.17 35.17 56.14 35.59 56.62 34.69 57.47 34.79 58.22 36.02 56.14 49.68 32.03 44.7"/>
    <polygon class="st5" points="11.89 15.35 11.14 14.6 11.52 13.9 12.27 13.53 12.53 12.94 11.94 12.67 11.89 11.49 12.96 11.49 12.16 10.63 12.05 6.19 11.46 5.55 12.27 3.08 12.75 3.14 14.25 4.8 18.26 6.3 19.23 6.56 20.19 8.01 20.3 4.64 20.57 3.72 19.71 2.6 19.87 2.01 20.3 1.8 40.5 7.15 37.71 19.58 37.55 23.33 31.01 21.67 23.68 21.83 21.37 21.4 18.48 20.22 16.07 20.6 15.16 19.42 15.27 17.17 14.52 16.31 13.55 16.26 13.18 15.51 11.89 15.35"/>
  </g>
  <g>
    <path class="st0" d="M219.02,35.06l-.13-.06-.46-.21-.05-.75-.96-.27-2.94-10.02.7-.32.16-2.03,1.02-1.45-.05-.8-.37-.48-.11-1.45.37-.32.11-2.68,1.23-3.16s.37-2.84,1.87.05l.48-.05s2.73-4.02,4.34,1.39l1.82,5.3,1.5.27.21,1.66s5.52,1.18-.75,5.3l-1.61.75-.16,1.23-1.39-1.29-.38.32v2.2l-.96.75v.8s-1.07.16-.91.32c.16.16-.59.43-.59.43l-.8-.32-.38.75-.53,2.95-.27,1.18Z"/>
    <polygon class="st0" points="218.76 36.02 217.47 37.36 215.44 37.9 212.7 38.54 212.06 38.7 212.17 29.92 213.45 28.74 213.51 27.29 213.08 26.81 213.24 23.65 214.47 23.76 217.42 33.78 218.38 34.04 218.43 34.79 219.02 35.06 218.76 36.02"/>
    <polygon class="st0" points="213.08 25.42 206.17 27.13 206.38 28.69 207.03 30.72 207.03 31.74 206.97 32.81 207.51 33.72 208.04 34.95 208.69 36.19 209.17 37.63 209.22 39.08 212.06 38.7 212.17 29.92 213.45 28.74 213.51 27.29 213.08 26.81 213.08 25.42"/>
    <polygon class="st0" points="216.67 45.4 216.08 42.02 217.79 41.54 219.51 43.9 219.24 44.49 218.54 44.6 216.67 45.4"/>
    <path class="st0" d="M218.49,36.4l1.02.96-.81,1.45.22.8,1.12.16,1.61,1.87,1.34-.16s1.23-.59-1.02-1.5c0,.16,1.5-.21,1.5-.21,0,0,2.73,1.87-2.03,3.75l-.43-.91-.91.54v.86l-.59-.1-1.71-2.36-8.41,1.77-.16-4.23,8.25-1.71,1.02-.96Z"/>
    <polygon class="st0" points="209.92 48.99 209.38 43.31 216.08 42.02 216.67 45.4 215.6 46.04 214.9 46.58 212.81 46.95 209.92 48.99"/>
    <path class="st0" d="M201.83,45.08l-17.52,3.64-.11-1.82,2.78-2.89-.11-.86s-3.64-1.71,1.23-3c-.16.16,3.11.05,3.11.05l.75.21.91-.37,1.45-.32,1.39-1.66,1.07-.21-.06-1.23-.27-1.07-.8-.32-.22-1.18,1.34-1.34,1.02-1.23.86-1.5,1.23-1.29,2.03-.48,1.82-.43,1.18-.21,1.23-.43.11,1.12.7,2.25v2.3l2.2,4.82.21,5.68.48,5.46-.11.86-.06.64.81-.54,2.14-.59,1.93-1.12.75-.64.8.37-.91,1.07-2.04,1.45-1.93.86-1.61.43h-.59l.05-2.25-3.8-1.13-1.02-.59-.54-.91-.37-.96-.75-.05-.8-.59Z"/>
    <polygon class="st0" points="181.1 49.42 182.39 56.38 183.4 61.63 202.58 58.04 204.4 57.35 206.44 55.04 204.67 53.11 203.81 52.79 203.76 51.93 204.51 51.45 204.08 50.81 204.3 50.06 204.78 49.79 204.88 48.45 205.31 48.18 204.3 47.59 203.39 45.72 202.64 45.67 201.83 45.08 184.32 48.72 184.15 46.68 181.1 49.42"/>
    <polygon class="st0" points="207.4 61.84 207.29 60.56 205.9 60.29 204.83 59.76 204.13 58.84 204.03 57.56 206.44 55.04 204.67 53.11 203.81 52.79 203.76 51.93 204.51 51.45 204.08 50.81 204.3 50.06 204.78 49.79 204.88 48.45 205.31 48.18 209.12 49.31 209.22 51.35 208.47 52.42 209.49 52.63 209.76 57.45 208.1 59.97 208.04 61.25 207.4 61.84"/>
    <polygon class="st0" points="202.58 58.04 204.56 64.95 207.19 64.68 206.92 62.75 205.74 61.95 205.15 60.66 204.13 59.76 203.92 58.42 203.87 57.56 202.58 58.04"/>
    <polygon class="st0" points="181.17 49.6 180.25 49.84 176.59 52.74 176.15 53.14 174.98 53.22 173.98 53.78 172.85 53.78 172.05 53.22 170.44 53.18 169.48 52.37 168.64 52.78 166.71 52.9 163.77 53.14 165.54 67.92 166.71 68 166.91 67.68 167.51 67.8 168.43 69.29 170.08 69.33 170.4 70.01 171.01 69.61 171.37 69.33 171.97 69.41 172.49 69.93 173.66 68.77 173.98 68.93 175.37 70.25 176.28 70.25 176.43 69.61 176.87 69.18 177.08 66.93 177.78 66.88 177.78 67.47 178.37 67.36 178.32 65.59 178.91 64.41 180.08 64.2 181.85 62.43 181.74 57.45 182.25 56.15 181.17 49.6"/>
    <polygon class="st0" points="152.85 54.74 153.81 55.07 155.78 53.86 163.77 53.14 165.54 67.92 165.14 68.44 165.34 68.93 165.78 69.29 164.62 70.21 163.29 70.25 163.17 71.74 161.48 73.31 161.44 74.59 160.04 74.51 159.72 74.19 158.91 74.75 158.87 75.72 158.23 75.63 157.79 74.99 157.1 75.19 156.42 76.12 155.86 76.08 155.46 75.52 153.33 75.76 152.24 76.56 152.32 74.39 153.97 71.86 154.21 69.89 153.53 69.21 152.85 54.91 152.85 54.74"/>
    <polygon class="st0" points="151.11 50.38 151.16 51.93 152.07 53.06 152.85 54.74 153.53 69.21 154.21 69.89 153.97 71.86 152.32 74.39 152.07 78.45 150.76 78.77 150.8 79.89 151.04 80.14 150.72 80.98 149.07 80.26 147.83 80.66 147.79 81.55 146.98 81.5 146.34 80.16 146.39 79.36 145.43 77.16 144.14 77.16 141.95 74.43 143.07 71.91 142.7 71.38 140.34 71 140.39 69.61 137.13 66.66 136.64 65.32 136.59 63.18 137.18 62.86 137.07 61.79 138.25 61.47 138.25 60.13 138.84 59.75 138.68 58.9 138.09 58.41 138.14 57.56 138.68 57.07 139.64 57.07 141.04 56 141.62 53.59 139.38 51.56 139.32 50.75 151.11 50.38"/>
    <path class="st0" d="M136.7,45.83l-.11-1.87-2.89-2.41-.59-.91h-.8l-.16-.7h-1.12l-.75-.86-.16-2.84.32-.8.05-.8-.7-.75.32-.64,1.93-2.2.21-3.05s2.36.05,2.2,0c-.16-.05,2.84-1.61,2.84-1.61l.8.38-.96,1.39.48.32,1.02-.21,1.07.59.65.8,1.12.21,2.35.43,4.55,1.07,1.07,1.02.43,2.36.7,1.02-1.39,2.36.16.91.54-.16,3.05-4.39.21.8-1.71,4.02v1.82l-.43,1.07.27,1.5-.59,1.07-.27,1.18.7,4.44-11.78.37-1.18-.59-.96-1.07-.11-1.34.8-.43-.32-.64-.86-.86Z"/>
    <polygon class="st0" points="115.91 45.93 136.7 45.83 137.55 46.68 137.88 47.33 137.07 47.75 137.18 49.09 138.14 50.16 139.32 50.75 139.38 51.72 141.62 53.59 141.04 56 139.64 57.07 138.68 57.07 138.14 57.56 138.09 58.41 138.73 59.06 138.84 59.75 138.3 60.29 138.25 61.47 137.07 61.79 137.18 62.86 136.59 63.18 135.95 61.95 118.7 62.38 117.74 57.93 115.86 51.72 115.27 50.16 115.75 48.93 116.02 47.81 115.33 47.27 115.27 45.93 115.91 45.93"/>
    <polygon class="st0" points="113.07 15.83 113.66 17.17 113.4 17.6 113.34 21.08 114.41 22.95 114.41 26.33 114.84 28.74 115.38 30.51 115.49 33.56 114.47 34.47 115.91 36.24 115.91 45.93 136.7 45.83 136.59 43.95 133.7 41.54 133.27 40.63 132.3 40.63 132.14 39.93 131.02 39.93 130.27 39.08 130.11 36.24 130.43 35.44 130.48 34.63 129.79 33.88 129.89 33.45 132.04 31.04 132.25 27.99 135.52 25.2 136.27 23.81 142 20.71 142.21 20.22 140.82 20.33 140.02 19.9 137.29 19.85 137.18 19.31 135.46 20.33 133.91 20.33 133.8 19.69 132.84 19.69 132.57 18.72 131.71 19.2 129.31 17.65 127.86 17.54 127.16 18.03 126.09 18.13 125.77 17.7 124.43 17.76 123.2 17.22 122.18 13.69 120.79 13.58 120.84 15.62 113.07 15.83"/>
    <polygon class="st0" points="32.03 44.7 20.03 42.08 3.96 37.42 3.27 36.4 3.75 32.76 6.54 28.52 11.52 16.04 13.34 15.83 13.55 16.26 14.52 16.31 15.27 17.17 15.16 19.42 16.07 20.6 18.48 20.22 21.37 21.4 23.68 21.83 31.01 21.67 37.55 23.33 37.55 24.45 38.67 25.26 38.57 26.22 36.37 28.69 36.16 29.7 34.28 31.42 34.12 32.76 35.14 33.13 32.03 44.7"/>
    <polygon class="st0" points="31.66 97.84 19.98 96.71 19.82 92.86 17.19 89 15.69 88.68 15.64 87.18 14.09 86.91 11.84 83.64 10.71 83.64 9.16 82.68 7.71 82.73 7.12 81.82 8.09 78.82 5.62 74.05 5.52 73.04 4.29 71.38 4.23 69.34 4.98 68.97 5.41 67.41 4.5 67.09 3.64 65.91 3.53 63.13 3.96 61.95 2.52 60.56 2.57 58.36 .64 54.61 1.39 51.5 1.23 48.13 0 46.41 .43 44.86 3.27 41.06 3.38 37.74 3.96 37.42 20.03 42.08 15.8 58.41 33.96 85.14 33.83 86.16 35.35 89.27 35.41 89.86 33.05 91.68 33 93.45 31.76 94.2 31.6 96.66 32.67 96.44 32.65 97.01 31.66 97.84"/>
    <polygon class="st0" points="155.78 53.86 156.78 52.01 157.63 50.65 157.59 47.39 155.7 44.18 155.98 40.56 156.42 37.55 156.99 37.35 156.86 36.23 157.95 35.34 158.19 34.46 158.75 34.26 158.95 35.02 158.47 35.98 158.39 36.79 159.31 36.47 159.4 33.86 159.88 33.57 160.92 33.53 161.08 32.89 160.28 32.89 160.2 31.93 161.64 30.84 162.49 31.73 163.09 31.37 165.58 32.49 166.71 32.61 167.67 34.02 167.03 34.5 167.07 34.98 167.83 35.66 167.75 38.43 167.03 39.36 166.71 40.44 166.22 40.48 166.02 42.05 167.15 42.33 168.07 41.01 168.48 40.12 169.88 39.32 171.33 41.45 172.21 44.62 172.29 47.59 171.37 47.55 170.52 49.44 170.36 50.77 169.48 52.37 168.64 52.78 155.78 53.86"/>
    <polygon class="st0" points="150.57 35.76 152.32 31.73 152.89 31.73 153.53 31.89 154.41 31.32 154.89 31.56 155.66 30.52 157.79 30.2 158.23 29.68 160.96 30.08 163.69 29.52 166.06 29.8 166.3 29.32 165.74 28.55 164.18 29.04 163.53 28.55 163.29 26.46 162.57 26.7 162.25 26.91 160.72 27.47 159.76 27.15 159.76 25.74 158.99 25.86 157.63 26.46 155.3 26.5 153.73 27.83 150.88 27.75 149.31 26.06 147.98 25.82 146.66 26.5 146.54 25.78 147.1 25.06 147.14 24.58 148.91 23.29 149.23 22.97 149.03 22.53 147.38 22.85 145.01 24.9 144.85 25.62 142.97 26.78 141.8 26.99 141.16 27.67 139.55 28.15 139.47 28.71 139.69 28.85 140.34 29.65 148.37 31.36 149.45 32.38 149.87 34.74 150.57 35.76"/>
  </g>
  <g>
    <polygon class="st1" points="205.96 75.5 193.37 78.23 173.5 80.64 174.83 79.63 175.53 79.36 175.42 78.56 178.58 75.39 179.6 76.41 181 76.73 181.64 76.09 182.28 76.52 183.46 76.25 183.89 75.18 184.96 74.97 185.87 74.75 186.46 73.84 186.4 72.24 188.01 67.68 188.55 68.06 188.92 68.38 189.94 68.27 190.05 66.61 190.9 66.34 192.46 63.93 192.46 62.11 193.31 62.22 195.24 63.13 195.3 62.16 196.37 62.75 198.03 65.7 197.92 66.34 199.15 67.09 201.56 67.79 202.05 68.43 202.96 68.54 203.12 70.36 203.49 70.79 202.53 71.22 202.69 71.75 203.87 72.98 203.76 73.63 203.39 73.68 203.55 74.27 204.35 74.16 205.15 73.73 205.96 75.5"/>
    <polygon class="st1" points="182.23 55.95 181.74 57.45 181.85 62.43 180.08 64.2 178.91 64.41 178.32 65.59 178.37 67.36 177.78 67.47 177.78 66.88 177.08 66.93 176.87 69.18 176.39 69.77 176.28 70.25 175.37 70.25 175.37 72.34 176.49 72.88 177.14 74.43 178.58 75.39 179.6 76.41 181 76.73 181.64 76.09 182.28 76.52 183.46 76.25 183.89 75.18 185.87 74.75 186.46 73.84 186.4 72.24 188.01 67.68 188.92 68.38 189.94 68.27 190.05 66.61 190.9 66.34 192.46 63.93 192.46 62.11 193.31 62.22 195.24 63.13 195.3 62.16 193.37 60.72 190.37 61.57 188.06 63.88 187.53 60.88 183.46 61.47 182.23 55.95"/>
    <polygon class="st1" points="181 79.73 154.96 82.73 152.93 82.73 152.98 84.02 146.28 84.12 146.18 86.16 145.38 88.09 145.16 89.48 144.78 90.02 143.82 90.18 143.93 90.82 144.25 91.04 143.93 92.48 153.19 92.05 164.82 91.2 170.33 90.39 170.33 89 171.46 88.84 171.67 87.71 175.8 85.3 176.17 84.18 177.99 83.64 178.58 82.79 180.03 82.68 180.94 81.34 181 79.73"/>
    <polygon class="st1" points="206.97 66.88 205.43 67.6 205.19 69.09 204.87 71.66 205.31 72.54 205.84 71.94 206.32 70.57 206.2 68.85 207 67.88 206.97 66.88"/>
    <polygon class="st1" points="146.74 84.11 147.26 83.43 147.79 83.47 147.79 82.38 148.15 82.14 148.07 81.82 147.87 81.22 147.83 80.66 149.07 80.26 150.72 80.98 151.04 80.14 150.8 79.89 150.76 78.77 152.08 78.61 152.12 77.68 152.24 76.56 153.33 75.76 155.46 75.52 155.86 76.08 156.42 76.12 157.1 75.19 157.79 74.99 158.23 75.63 158.87 75.72 158.91 74.75 159.72 74.19 160.04 74.51 161.44 74.59 161.48 73.31 163.17 71.74 163.29 70.25 164.62 70.21 165.78 69.29 165.34 68.93 165.1 68.28 165.54 67.92 166.71 68 166.91 67.68 167.51 67.8 168.43 69.29 170.08 69.33 170.4 70.01 171.37 69.33 171.97 69.41 172.49 69.93 173.66 68.77 173.98 68.93 175.37 70.25 175.37 72.34 176.49 72.88 177.14 74.43 178.58 75.39 175.42 78.56 175.46 79.49 174.83 79.63 173.7 80.5 154.96 82.73 152.93 82.73 152.98 84.02 146.74 84.11"/>
    <polygon class="st4" points="196.43 62.96 193.68 61.1 190.03 64.02 179.34 73.98 179.58 75.36 178.53 76.33 183.31 78.04 193.44 75.52 196.43 62.96"/>
  </g>
</svg>