<?xml version="1.0" encoding="UTF-8"?>
<svg id="Layer_1" xmlns="http://www.w3.org/2000/svg" version="1.1" viewBox="0 0 230 146.77">
  <!-- Generator: Adobe Illustrator 29.6.0, SVG Export Plug-In . SVG Version: 2.1.1 Build 207)  -->
  <defs>
    <style>
      .st0 {
        fill: #df6f5c;
      }

      .st0, .st1, .st2 {
        stroke: #fff;
        stroke-width: .49px;
      }

      .st1 {
        fill: #f7b2b2;
      }

      .st3 {
        fill: #fff;
      }

      .st2 {
        fill: #6a8cc3;
      }
    </style>
  </defs>
  <g>
    <path class="st0" d="M219.03,33.26l-.13-.06-.46-.21-.05-.75-.96-.27-2.95-10.02.7-.32.16-2.03,1.02-1.45-.06-.8-.37-.48-.11-1.45.38-.32.1-2.68,1.23-3.16s.37-2.84,1.87.05l.48-.05s2.73-4.02,4.34,1.39l1.82,5.3,1.5.27.21,1.66s5.52,1.18-.75,5.3l-1.61.75-.16,1.23-1.39-1.29-.38.32v2.2l-.96.75v.8s-1.08.16-.92.32-.59.43-.59.43l-.8-.32-.38.75-.53,2.95-.27,1.18h.02Z"/>
    <polygon class="st0" points="218.76 34.23 217.47 35.57 215.44 36.1 212.71 36.74 212.06 36.91 212.17 28.12 213.45 26.94 213.51 25.5 213.08 25.01 213.24 21.85 214.47 21.96 217.42 31.98 218.38 32.25 218.43 33 219.03 33.26 218.76 34.23"/>
    <polygon class="st0" points="213.08 23.62 206.17 25.34 206.38 26.89 207.03 28.93 207.03 29.94 206.97 31.02 207.51 31.93 208.04 33.16 208.69 34.39 209.17 35.84 209.22 37.28 212.06 36.91 212.17 28.12 213.45 26.94 213.51 25.5 213.08 25.01 213.08 23.62"/>
    <polygon class="st0" points="216.67 43.6 216.08 40.23 217.79 39.75 219.51 42.1 219.24 42.69 218.54 42.8 216.67 43.6"/>
    <polygon class="st0" points="209.92 47.19 209.38 41.51 216.08 40.23 216.67 43.6 215.6 44.24 214.9 44.78 212.81 45.16 209.92 47.19"/>
    <path class="st0" d="M201.83,43.28l-17.51,3.64-.11-1.82,2.78-2.89-.11-.86s-3.64-1.71,1.23-3c-.16.16,3.11.05,3.11.05l.74.21.91-.37,1.45-.32,1.39-1.66,1.07-.21-.06-1.23-.27-1.07-.8-.32-.22-1.18,1.34-1.34,1.01-1.23.86-1.5,1.23-1.29,2.03-.48,1.82-.43,1.18-.21,1.23-.43.11,1.12.7,2.25v2.3l2.2,4.82.21,5.68.49,5.46-.11.86-.06.64.81-.54,2.14-.59,1.93-1.12.75-.64.8.37-.91,1.07-2.03,1.45-1.93.86-1.61.43h-.59l.05-2.25-3.8-1.13-1.02-.59-.54-.91-.37-.96-.75-.05-.81-.59h.04Z"/>
    <polygon class="st0" points="181.1 47.62 182.39 54.58 183.4 59.83 202.58 56.24 204.4 55.55 206.44 53.25 204.67 51.32 203.81 50.99 203.76 50.14 204.51 49.66 204.08 49.01 204.3 48.26 204.78 48 204.88 46.66 205.31 46.39 204.3 45.8 203.39 43.92 202.64 43.87 201.83 43.28 184.32 46.92 184.15 44.89 181.1 47.62"/>
    <polygon class="st0" points="207.4 60.05 207.29 58.76 205.9 58.49 204.83 57.96 204.13 57.05 204.03 55.76 206.44 53.25 204.67 51.32 203.81 50.99 203.76 50.14 204.51 49.66 204.08 49.01 204.3 48.26 204.78 48 204.88 46.66 205.31 46.39 209.12 47.51 209.22 49.55 208.47 50.62 209.49 50.84 209.76 55.65 208.1 58.17 208.04 59.46 207.4 60.05"/>
    <polygon class="st0" points="202.58 56.24 204.56 63.15 207.19 62.89 206.92 60.96 205.74 60.15 205.15 58.87 204.13 57.96 203.92 56.62 203.87 55.76 202.58 56.24"/>
    <polygon class="st0" points="206.97 65.08 205.15 65.89 204.35 64.82 202.58 64.49 202.05 63.05 202.53 62.62 201.94 62.14 202.21 60.48 201.72 59.83 202.21 58.6 201.78 58.49 200.81 59.94 200.87 61.87 201.29 63.8 202.1 64.87 202.47 66.05 201.13 65.78 199.15 65.3 197.92 64.55 198.03 63.9 196.37 60.96 195.56 60.42 195.14 60.15 193.37 58.92 192.14 59.46 190.85 59.78 190.37 59.78 189.72 60.26 189.3 60.64 188.71 61.39 188.06 62.08 187.53 59.08 202.58 56.24 204.56 63.15 207.19 62.89 207.35 64.39 206.97 65.08"/>
    <polygon class="st0" points="205.96 73.71 193.37 76.44 173.5 78.85 174.83 77.83 175.53 77.56 175.42 76.76 178.58 73.6 179.6 74.62 181 74.94 181.64 74.29 182.28 74.72 183.46 74.46 183.89 73.38 184.96 73.17 185.87 72.96 186.46 72.05 186.4 70.44 188.01 65.88 188.55 66.26 188.92 66.58 189.94 66.47 190.05 64.81 190.91 64.55 192.46 62.14 192.46 60.31 193.31 60.42 195.24 61.33 195.3 60.37 196.37 60.96 198.03 63.9 197.92 64.55 199.15 65.3 201.56 65.99 202.05 66.63 202.96 66.74 203.12 68.56 203.49 68.99 202.53 69.42 202.69 69.96 203.87 71.19 203.76 71.83 203.39 71.88 203.55 72.47 204.35 72.37 205.15 71.94 205.96 73.71"/>
    <path class="st0" d="M197.12,90.85l-5.63-4.02-4.93.27-1.02-1.29-6.16.32-3.91,1.98-5.19.32.05-1.23,1.13-.16.21-1.12,4.13-2.41.37-1.12,1.82-.54.59-.86,1.45-.11.91-1.34.06-1.61,11.78-1.39,13.18-2.84.7,1.18,1.66,2.47-.48,1.45-.7.91-.54.86-1.71.32-.05,1.98,1.77.21-.91,1.71s-4.71-.48-5.79,5.62l-2.79.43h0Z"/>
    <polygon class="st0" points="188.33 102.79 187.42 102.79 186.89 101.99 186.94 101.13 186.24 100.59 185.39 100.59 185.28 99.42 184.1 97.33 183.3 97.27 181.58 95.29 179.87 93.85 179.39 93.69 177.46 90.9 176.12 90.79 175.1 90.1 174.94 89.02 175.69 88.06 179.39 86.13 185.55 85.81 186.56 87.1 191.49 86.83 197.12 90.85 195.67 92.67 195.4 93.63 195.14 95.51 194.39 96.26 192.99 97.81 190.37 100.11 190.1 100.11 189.99 100.92 188.33 102.79"/>
    <polygon class="st0" points="186.78 110.56 184.05 110.51 184.05 111.36 184.48 111.41 184.43 113.29 183.51 112.86 183.46 112.27 171.03 112.75 169.8 111.25 169.53 110.29 169.11 109.91 168.94 107.45 168.84 105.52 169.37 105.04 169.32 103.86 168.52 102.63 167.07 97.86 166 94.22 164.93 91.44 164.82 89.4 175.48 88.11 174.94 89.02 175.1 90.1 176.12 90.79 177.46 90.9 179.39 93.69 179.87 93.85 181.58 95.29 183.3 97.27 184.1 97.33 185.28 99.42 185.39 100.59 186.24 100.59 186.94 101.13 186.89 101.99 187.42 102.79 188.33 102.79 188.23 103.59 187.85 104.4 187.26 106.54 186.78 110.56"/>
    <polygon class="st0" points="195.78 140.07 194.6 140.07 194.12 140.77 193.26 140.71 192.99 139.48 192.73 138.63 191.28 136.91 189.89 136.91 189.19 136.21 188.92 134.88 188.06 133.96 187.48 134.02 187.42 134.45 186.83 134.39 185.44 131.5 183.46 128.93 185.01 127.22 184.8 126.41 183.46 126.36 183.41 126.79 183.89 127.06 183.41 128.07 183.14 127.54 182.66 126.79 182.6 124.59 182.98 124.32 182.98 121.59 181.64 120.04 180.19 119.77 176.71 116.24 175.48 115.7 173.66 115.91 173.66 116.93 171.14 118.16 169.16 118.32 169.11 117.57 165.36 115.65 160.8 115.59 159.46 116.29 158.66 116.29 158.55 114.36 157.27 113.34 157.37 112.38 169.8 111.04 171.03 112.75 183.3 112.27 183.51 112.86 184.43 113.29 184.48 111.41 184.05 111.36 184.05 110.51 186.78 110.56 187.1 112 188.92 116.07 192.08 120.41 193.32 121.7 193.15 122.45 192.88 123.04 197.07 130.22 197.71 135.52 197.6 136.48 196.9 136.86 196.96 138.41 197.71 137.77 197.65 139.05 197.01 140.39 193.8 143.18 193.58 142.64 196.64 140.18 196.8 139.54 195.78 140.07"/>
    <polygon class="st0" points="182.23 54.15 181.74 55.65 181.85 60.63 180.08 62.4 178.91 62.62 178.32 63.8 178.37 65.56 177.78 65.67 177.78 65.08 177.08 65.13 176.87 67.38 176.39 67.97 176.28 68.46 175.37 68.46 175.37 70.55 176.49 71.08 177.14 72.63 178.58 73.6 179.6 74.62 181 74.94 181.64 74.29 182.28 74.72 183.46 74.46 183.89 73.38 185.87 72.96 186.46 72.05 186.4 70.44 188.01 65.88 188.92 66.58 189.94 66.47 190.05 64.81 190.91 64.55 192.46 62.14 192.46 60.31 193.31 60.42 195.24 61.33 195.3 60.37 193.37 58.92 190.37 59.78 188.06 62.08 187.53 59.08 183.46 59.67 182.23 54.15"/>
    <polygon class="st0" points="158.66 116.29 156.84 116.88 156.52 116.61 157.05 116.24 156.41 114.58 155.66 114.41 155.34 115.22 155.28 116.02 154.05 116.24 153.19 108.2 153.41 90.2 164.82 89.4 164.82 91.17 168.52 102.63 169.32 103.86 169.37 105.04 168.84 105.52 169.11 109.91 169.53 110.29 169.64 111.04 157.37 112.38 157.27 113.34 158.55 114.36 158.66 116.29"/>
    <polygon class="st0" points="181 77.94 154.96 80.94 152.93 80.94 152.98 82.22 146.28 82.33 146.18 84.36 145.38 86.29 145.16 87.69 144.78 88.22 143.82 88.38 143.93 89.02 144.25 89.24 143.93 90.68 153.19 90.26 164.82 89.4 170.33 88.6 170.33 87.2 171.46 87.04 171.67 85.92 175.8 83.51 176.17 82.38 177.99 81.85 178.58 80.99 180.03 80.88 180.94 79.54 181 77.94"/>
    <polygon class="st0" points="154.05 116.24 151.16 116.5 149.34 116.82 148.69 117.63 148.1 116.82 147.09 115.38 147.14 113.45 138.62 113.61 138.41 111.25 140.29 108.25 140.71 107.56 140.87 106.49 141.09 106.11 140.55 105.31 140.12 103.97 139.96 102.79 139.96 101.88 140.07 100.06 140.02 97.49 140.93 95.61 142.11 94.54 142.32 92.94 143.66 91.76 143.66 90.85 143.93 90.68 153.41 90.2 153.19 108.2 154.05 116.24"/>
    <polygon class="st0" points="128.28 121.22 128.28 119.93 128.55 116.07 129.2 115.43 129.09 112.11 127.86 110.82 127.91 109.65 126.79 108.04 126.79 102.52 139.85 102.58 140.12 103.97 140.55 105.31 141.09 106.11 140.82 107.18 138.41 111.25 138.62 113.61 147.14 113.45 147.09 115.38 148.69 117.63 147.52 118.75 147.73 119.4 148.64 119.34 148.75 118.65 149.28 118.27 149.76 118.86 149.66 119.72 148.64 120.47 148.43 121 148.37 121.64 150.19 122.02 151.11 122.45 151.69 123.2 151 123.73 150.3 123.63 149.23 122.98 148.37 122.82 147.68 122.56 147.52 121.59 146.77 122.07 146.61 123.04 146.5 123.79 145.16 124.32 145.48 123.57 145.53 122.98 144.36 123.41 143.77 124.11 143.23 124.32 142.21 124.27 141.14 123.79 140.66 123.36 140.61 122.82 140.93 122.5 140.87 122.07 139.43 121.97 139.05 120.84 136.37 120.73 136.59 121.32 138.52 121.81 138.2 122.45 136.48 121.91 134.93 121.97 133.21 121.59 131.66 120.79 130.11 120.9 128.28 121.22"/>
    <polygon class="st0" points="111.73 141.73 110.56 142.64 109.91 142.32 109.22 141.62 106.48 141.36 105.63 140.5 103.91 140.39 103.06 139.75 102.36 139.32 101.88 138.68 101.45 136.96 100.91 136.32 100.54 135.73 100.43 132.95 100.11 132.57 99.31 132.25 97.17 129.3 96.52 128.88 95.51 125.34 94.92 124.05 91.75 120.41 88.06 119.98 87.63 119.45 86.67 119.45 84.95 120.57 84.69 121.7 84.15 122.66 82.76 124.16 82.06 123.79 79.27 122.02 76.33 119.13 76.22 116.72 76.22 116.34 75.31 114.2 74.13 113.24 73.33 113.13 70.92 110.02 70.28 109.59 69.47 109.16 69.04 108.04 68.24 107.24 68.08 106.11 84.42 107.08 86.35 82.65 100.22 82.81 99.63 93.95 100.81 95.18 103.16 95.24 103.22 96.15 106.32 97.28 107.13 96.74 107.83 96.79 108.68 98.4 109.54 98.35 109.91 98.08 111.04 98.03 111.84 99.04 113.13 99.15 113.34 97.86 115.38 98.94 116.82 98.99 117.52 98.24 121.16 98.13 121.75 97.86 125.13 100.17 126.57 100.01 126.79 102.52 126.79 108.04 127.81 109.81 127.86 110.82 129.09 112.11 129.2 115.43 128.55 116.07 128.28 121.22 124.96 122.45 118.7 127.22 114.36 129.57 112.27 130.91 111.04 131.45 110.99 132.2 111.36 132.41 111.31 133.32 110.34 135.73 110.39 137.98 111.73 141.73"/>
    <polygon class="st0" points="86.76 79.5 109.22 80.63 123.64 80.67 123.72 83.48 124.65 90.15 124.61 99.79 121.75 97.86 121.16 98.13 117.52 98.24 116.82 98.99 115.38 98.94 113.34 97.86 113.13 99.15 111.84 99.04 111.04 98.03 109.91 98.08 109.54 98.35 108.68 98.4 107.83 96.79 107.13 96.74 106.32 97.28 103.22 96.15 103.16 95.24 100.81 95.18 99.63 93.95 100.22 82.81 86.4 82.6 86.76 79.5"/>
    <polygon class="st0" points="139.85 102.58 126.79 102.52 126.57 100.01 125.13 100.17 124.61 99.79 124.65 90.15 123.64 83.68 123.68 83 143.77 82.88 144.37 83.56 144.17 84.24 143.16 84.93 143.25 85.57 145.78 85.45 145.38 86.29 145.16 87.69 144.78 88.22 143.82 88.38 143.93 89.02 144.25 89.24 143.93 90.68 143.66 90.85 143.66 91.76 142.32 92.94 142.11 94.54 140.93 95.61 140.02 97.49 140.07 100.31 139.85 102.58"/>
    <polygon class="st0" points="206.97 65.08 205.43 65.8 205.19 67.29 204.87 69.86 205.31 70.75 205.84 70.14 206.32 68.78 206.2 67.05 207 66.09 206.97 65.08"/>
    <polygon class="st0" points="181.17 47.81 180.24 48.05 176.59 50.94 176.15 51.34 174.98 51.42 173.98 51.99 172.85 51.99 172.05 51.42 170.44 51.38 169.48 50.58 168.64 50.98 166.71 51.1 163.77 51.34 165.54 66.13 166.71 66.21 166.91 65.88 167.51 66.01 168.43 67.49 170.08 67.53 170.4 68.21 171.01 67.81 171.37 67.53 171.97 67.61 172.49 68.14 173.66 66.97 173.98 67.13 175.37 68.46 176.28 68.46 176.43 67.81 176.87 67.38 177.08 65.13 177.78 65.08 177.78 65.67 178.37 65.56 178.32 63.8 178.91 62.62 180.08 62.4 181.85 60.63 181.74 55.65 182.25 54.36 181.17 47.81"/>
    <polygon class="st0" points="152.85 52.95 153.81 53.27 155.78 52.07 163.77 51.34 165.54 66.13 165.14 66.65 165.34 67.13 165.78 67.49 164.62 68.42 163.29 68.46 163.17 69.94 161.48 71.51 161.44 72.8 160.04 72.71 159.72 72.39 158.91 72.96 158.87 73.92 158.23 73.84 157.79 73.2 157.1 73.4 156.42 74.32 155.86 74.28 155.46 73.72 153.33 73.96 152.24 74.76 152.32 72.59 153.97 70.06 154.21 68.1 153.53 67.41 152.85 53.11 152.85 52.95"/>
    <polygon class="st0" points="146.74 82.31 147.26 81.63 147.79 81.67 147.79 80.59 148.15 80.35 148.07 80.03 147.87 79.42 147.83 78.86 149.07 78.46 150.72 79.18 151.04 78.34 150.8 78.1 150.76 76.97 152.08 76.81 152.12 75.89 152.24 74.76 153.33 73.96 155.46 73.72 155.86 74.28 156.42 74.32 157.1 73.4 157.79 73.2 158.23 73.84 158.87 73.92 158.91 72.96 159.72 72.39 160.04 72.71 161.44 72.8 161.48 71.51 163.17 69.94 163.29 68.46 164.62 68.42 165.78 67.49 165.34 67.13 165.1 66.49 165.54 66.13 166.71 66.21 166.91 65.88 167.51 66.01 168.43 67.49 170.08 67.53 170.4 68.21 171.37 67.53 171.97 67.61 172.49 68.14 173.66 66.97 173.98 67.13 175.37 68.46 175.37 70.55 176.49 71.08 177.14 72.63 178.58 73.6 175.42 76.76 175.46 77.7 174.83 77.83 173.69 78.7 154.96 80.94 152.93 80.94 152.98 82.22 146.74 82.31"/>
    <polygon class="st0" points="60.47 106.22 60.37 108.79 56.03 108.09 60.53 76.65 86.76 79.5 84.42 107.08 67.81 105.9 67.76 107.08 60.47 106.22"/>
    <polygon class="st0" points="63.31 54.69 92.56 57.9 91.22 79.71 60.53 76.65 63.31 54.69"/>
    <polygon class="st0" points="123.68 83 123.57 69.21 121.59 67.06 121.59 65.99 122.13 65.56 122.13 64.76 121.06 64.6 119.13 62.24 118.7 60.58 135.95 60.15 136.75 61.39 136.64 63.53 137.13 64.87 140.39 67.81 140.34 69.21 142.7 69.58 143.07 70.12 141.95 72.63 144.14 75.37 145.43 75.37 146.02 76.49 146.39 77.56 146.34 78.36 146.98 79.71 147.79 79.76 148.15 80.35 147.79 80.59 147.79 81.67 147.26 81.63 146.74 82.31 146.28 82.33 146.18 84.36 145.78 85.45 143.25 85.57 143.16 84.93 144.17 84.24 144.37 83.56 143.77 82.88 123.68 83"/>
    <polygon class="st0" points="151.11 48.58 151.16 50.14 152.07 51.26 152.85 52.95 153.53 67.41 154.21 68.1 153.97 70.06 152.32 72.59 152.07 76.65 150.76 76.97 150.8 78.1 151.04 78.34 150.72 79.18 149.07 78.46 147.83 78.86 147.79 79.76 146.98 79.71 146.34 78.36 146.39 77.56 145.43 75.37 144.14 75.37 141.95 72.63 143.07 70.12 142.7 69.58 140.34 69.21 140.39 67.81 137.13 64.87 136.64 63.53 136.59 61.39 137.18 61.06 137.07 59.99 138.25 59.67 138.25 58.33 138.84 57.96 138.68 57.1 138.09 56.62 138.14 55.76 138.68 55.28 139.64 55.28 141.04 54.21 141.62 51.8 139.38 49.76 139.32 48.96 151.11 48.58"/>
    <polygon class="st0" points="123.64 80.67 108.84 80.72 91.22 79.71 92.19 63.21 120.47 63.8 121.06 64.6 122.13 64.76 122.13 65.56 121.59 65.99 121.59 67.06 123.57 69.21 123.64 80.67"/>
    <path class="st0" d="M136.7,44.03l-.11-1.87-2.89-2.41-.59-.91h-.81l-.16-.7h-1.12l-.75-.86-.16-2.84.32-.8.05-.8-.7-.75.32-.64,1.93-2.2.21-3.05s2.36.05,2.2,0,2.84-1.61,2.84-1.61l.8.38-.96,1.39.48.32,1.02-.21,1.07.59.65.8,1.12.21,2.35.43,4.55,1.07,1.07,1.02.43,2.36.7,1.02-1.39,2.36.16.91.54-.16,3.05-4.39.21.8-1.71,4.02v1.82l-.43,1.07.27,1.5-.59,1.07-.27,1.18.7,4.44-11.78.37-1.18-.59-.96-1.07-.11-1.34.81-.43-.32-.64-.86-.86h0Z"/>
    <polygon class="st0" points="56.03 108.09 46.33 106.86 30.48 97.06 32.62 95.13 32.67 94.65 31.6 94.86 31.76 92.4 33 91.65 33.05 89.88 35.03 88.44 35.41 88.06 35.35 87.47 33.85 84.26 33.96 83.35 34.55 83.08 34.76 77.51 35.73 77.35 37.01 78.42 37.87 78.31 38.89 72.85 60.53 76.65 56.03 108.09"/>
    <polygon class="st0" points="63.31 54.69 55.22 53.78 56.14 47.89 44.03 45.64 38.89 72.85 60.53 76.65 63.31 54.69"/>
    <polygon class="st0" points="20.03 40.28 15.8 56.62 33.96 83.35 34.55 83.08 34.76 77.51 35.73 77.35 37.01 78.42 37.87 78.31 44.03 45.64 20.03 40.28"/>
    <polygon class="st0" points="55.22 53.78 58.82 31.17 86.03 34.82 84.15 56.89 55.22 53.78"/>
    <polygon class="st0" points="92.56 57.9 84.15 56.89 85.01 45.69 107.93 47.08 109.38 48.26 110.24 48.26 110.56 47.89 112.75 47.89 115.86 49.92 117.79 55.76 118.7 60.58 119.13 62.24 120.47 63.8 92.19 63.21 92.56 57.9"/>
    <polygon class="st0" points="115.91 44.14 136.7 44.03 137.55 44.89 137.88 45.53 137.07 45.96 137.18 47.3 138.14 48.37 139.32 48.96 139.38 49.92 141.62 51.8 141.04 54.21 139.64 55.28 138.68 55.28 138.14 55.76 138.09 56.62 138.73 57.26 138.84 57.96 138.3 58.49 138.25 59.67 137.07 59.99 137.18 61.06 136.59 61.39 135.95 60.15 118.7 60.58 117.74 56.14 115.86 49.92 115.27 48.37 115.75 47.14 116.02 46.01 115.33 45.48 115.27 44.14 115.91 44.14"/>
    <polygon class="st0" points="113.07 14.03 113.66 15.37 113.4 15.8 113.34 19.28 114.41 21.16 114.41 24.53 114.84 26.94 115.38 28.71 115.48 31.76 114.47 32.67 115.91 34.44 115.91 44.14 136.7 44.03 136.59 42.16 133.7 39.75 133.27 38.84 132.3 38.83 132.14 38.14 131.02 38.14 130.27 37.28 130.11 34.44 130.43 33.64 130.48 32.84 129.79 32.08 129.89 31.66 132.04 29.25 132.25 26.19 135.52 23.41 136.27 22.02 142 18.91 142.21 18.43 140.82 18.53 140.02 18.11 137.29 18.05 137.18 17.51 135.46 18.53 133.91 18.53 133.8 17.89 132.84 17.89 132.57 16.93 131.71 17.41 129.31 15.85 127.86 15.75 127.16 16.23 126.09 16.34 125.77 15.91 124.43 15.96 123.2 15.43 122.18 11.89 120.79 11.78 120.84 13.82 113.07 14.03"/>
    <polygon class="st0" points="88.12 12.75 86.61 29.62 115.49 30.91 115.38 28.71 114.84 26.94 114.41 24.53 114.41 21.16 113.34 19.28 113.4 15.8 113.66 15.37 113.07 14.03 88.12 12.75"/>
    <polygon class="st0" points="85.01 45.69 86.61 29.62 115.49 30.91 115.48 31.76 114.47 32.67 115.91 34.44 115.91 44.14 115.27 44.14 115.33 45.48 116.02 46.01 115.27 48.37 115.7 49.55 112.75 47.89 110.34 47.94 110.24 48.26 109.38 48.26 107.93 47.08 85.01 45.69"/>
    <polygon class="st0" points="64.82 10.02 44.14 6.21 43.39 9.75 43.07 11.09 43.81 13.55 43.65 15.21 45.05 16.39 46.33 19.55 47.83 20.78 45.9 25.23 46.44 26.3 47.14 26.67 48.42 25.76 49.23 30.16 50.67 31.49 50.73 33.37 51.48 33.37 55.17 33.37 56.14 33.8 56.62 32.89 57.47 33 58.22 34.23 58.82 31.17 86.03 34.82 88.12 12.75 64.82 10.02"/>
    <polygon class="st0" points="32.03 42.91 35.14 31.34 34.12 30.96 34.28 29.62 36.16 27.91 36.37 26.89 38.57 24.42 38.67 23.46 37.55 22.66 37.71 18 40.5 5.36 44.14 6.21 43.07 11.09 43.81 13.55 43.65 15.21 45.05 16.39 46.33 19.55 47.83 20.78 45.9 25.23 46.44 26.3 47.14 26.67 48.42 25.76 49.23 30.16 50.67 31.49 50.73 33.37 55.17 33.37 56.14 33.8 56.62 32.89 57.47 33 58.22 34.23 56.14 47.89 32.03 42.91"/>
    <polygon class="st0" points="11.89 13.55 11.14 12.8 11.52 12.11 12.27 11.73 12.53 11.14 11.94 10.87 11.89 9.7 12.96 9.7 12.16 8.84 12.05 4.39 11.46 3.75 12.27 1.29 12.75 1.34 14.25 3 18.26 4.5 19.23 4.77 20.19 6.21 20.3 2.84 20.57 1.93 19.71 .8 19.87 .21 20.3 0 40.5 5.36 37.71 17.78 37.55 21.53 31.01 19.87 23.68 20.03 21.37 19.61 18.48 18.43 16.07 18.8 15.16 17.62 15.27 15.37 14.52 14.52 13.55 14.46 13.18 13.71 11.89 13.55"/>
    <polygon class="st0" points="32.03 42.91 20.03 40.28 3.96 35.62 3.27 34.6 3.75 30.96 6.54 26.73 11.52 14.25 13.34 14.03 13.55 14.46 14.52 14.52 15.27 15.37 15.16 17.62 16.07 18.8 18.48 18.43 21.37 19.61 23.68 20.03 31.01 19.87 37.55 21.53 37.55 22.66 38.67 23.46 38.57 24.42 36.37 26.89 36.16 27.91 34.28 29.62 34.12 30.96 35.14 31.34 32.03 42.91"/>
    <polygon class="st0" points="31.65 96.04 19.98 94.92 19.82 91.06 17.19 87.2 15.69 86.88 15.64 85.38 14.09 85.11 11.84 81.85 10.71 81.85 9.16 80.88 7.71 80.94 7.12 80.03 8.09 77.03 5.62 72.26 5.52 71.24 4.29 69.58 4.23 67.54 4.98 67.17 5.41 65.62 4.5 65.29 3.64 64.12 3.53 61.33 3.96 60.15 2.52 58.76 2.57 56.56 .64 52.81 1.39 49.71 1.23 46.33 0 44.62 .43 43.07 3.27 39.26 3.38 35.94 3.96 35.62 20.03 40.28 15.8 56.62 33.96 83.35 33.83 84.36 35.35 87.47 35.41 88.06 33.05 89.88 33 91.65 31.76 92.4 31.6 94.86 32.67 94.65 32.65 95.21 31.65 96.04"/>
    <polygon class="st0" points="155.78 52.07 156.78 50.22 157.63 48.85 157.59 45.6 155.7 42.38 155.98 38.77 156.42 35.76 156.99 35.55 156.86 34.43 157.95 33.55 158.19 32.66 158.75 32.46 158.95 33.22 158.47 34.19 158.39 34.99 159.31 34.67 159.39 32.06 159.88 31.78 160.92 31.74 161.08 31.09 160.28 31.09 160.2 30.13 161.64 29.05 162.49 29.93 163.09 29.57 165.58 30.69 166.71 30.81 167.67 32.22 167.03 32.7 167.07 33.18 167.83 33.87 167.75 36.64 167.03 37.56 166.71 38.65 166.22 38.69 166.03 40.25 167.15 40.54 168.07 39.21 168.48 38.33 169.88 37.52 171.33 39.65 172.21 42.83 172.29 45.8 171.37 45.76 170.52 47.65 170.36 48.97 169.48 50.58 168.64 50.98 155.78 52.07"/>
    <polygon class="st0" points="150.57 33.96 152.32 29.93 152.89 29.93 153.53 30.09 154.41 29.53 154.89 29.77 155.66 28.72 157.79 28.4 158.23 27.88 160.96 28.28 163.69 27.72 166.06 28 166.3 27.52 165.74 26.76 164.18 27.24 163.53 26.76 163.29 24.67 162.57 24.91 162.25 25.11 160.72 25.67 159.75 25.35 159.75 23.94 158.99 24.06 157.63 24.67 155.3 24.71 153.73 26.03 150.88 25.95 149.31 24.26 147.98 24.02 146.66 24.71 146.54 23.99 147.1 23.26 147.14 22.78 148.91 21.49 149.23 21.17 149.03 20.73 147.38 21.05 145.01 23.1 144.85 23.82 142.97 24.99 141.8 25.19 141.15 25.87 139.55 26.35 139.47 26.92 139.69 27.05 140.34 27.85 148.37 29.57 149.45 30.59 149.87 32.94 150.57 33.96"/>
    <polygon class="st0" points="50.08 146.34 48.26 144.89 47.89 145.16 48.21 146.55 47.4 146.5 47.19 146.77 46.39 145.8 45.58 145.32 45.85 144.46 45.64 142.91 45.21 143.82 44.62 141.95 44.3 143.55 43.76 142.7 43.17 141.89 42.75 141.68 42.42 140.29 41.46 139.64 41.94 138.79 40.87 138.57 37.87 136.32 37.92 135.52 37.23 135.63 35.57 135.57 34.5 134.82 32.3 134.71 30.32 133.48 30.1 132.63 28.76 132.63 28.39 133.32 29.41 134.02 29.3 134.61 28.66 135.25 27.8 134.82 26.78 134.66 24.96 135.95 23.51 135.95 23.3 135.52 24.8 132.41 25.82 131.98 26.78 132.04 26.3 131.56 24.96 131.61 22.87 134.02 22.34 134.66 21.05 134.98 20.94 135.73 21.59 136.11 21.59 136.91 16.71 139.8 15.43 140.07 14.41 140.77 14.25 141.3 11.89 141.73 10.07 141.73 7.82 142.43 4.88 142.59 4.71 141.68 7.82 141.62 9.11 140.71 10.77 140.18 11.57 140.71 12.59 139.54 14.41 139.43 14.62 138.84 15.53 138.25 16.93 135.46 15.75 135.79 15.48 134.98 15.16 136.06 14.46 135.95 14.41 134.71 13.44 134.34 11.78 134.56 11.89 132.79 12.37 132.68 12.27 130.97 10.02 131.07 9.8 129.84 9.32 129.09 9.96 128.29 9.86 127.81 9.48 127.38 9.43 126.04 11.94 123.47 12.96 123.47 13.39 124.32 13.98 124.11 14.52 123.63 15.37 123.84 16.5 123.63 16.87 121.27 15.96 121.06 14.2 120.84 12.27 120.31 11.78 118.27 10.98 116.77 11.73 116.4 14.14 116.34 15.64 116.13 15.48 117.25 17.36 118.22 17.78 117.9 16.23 115.16 16.12 113.56 14.84 111.52 15.43 110.72 18 111.04 19.93 108.52 21.43 108.36 24.37 107.77 25.77 108.47 26.78 108.9 27.64 109.11 27.96 110.29 30.21 110.77 31.23 111.79 32.57 111.9 34.01 111.74 35.78 112.38 36.42 112.86 36.32 134.29 37.76 134.45 38.35 134.07 38.83 134.77 40.55 137.02 41.08 137.07 41.62 136.22 42.26 135.41 42.96 135.31 47.83 141.79 48.74 142.32 50.4 143.12 50.99 144.95 50.08 146.34"/>
    <path class="st0" d="M78.58,139.11l-.64-.96.54-.54,2.62,1.55,1.77,1.98s.91.75,1.07.91c.16.16-.7,1.02-.7,1.02l-1.34.11-1.02.59-1.61,1.77-1.12-.7-.11-2.41s-.16-.59-.32-.7c-.16-.11-.48-.75-.48-.75l.22-.86,1.12-1.02h0Z"/>
    <polygon class="st0" points="77.51 135.73 75.53 136.43 73.81 134.29 74.4 133.59 76.28 134.13 77.56 134.56 78.1 135.52 77.51 135.73"/>
    <polygon class="st0" points="73.22 135.46 72.05 135.25 71.83 134.34 72.37 134.02 73.22 134.07 73.54 134.77 73.22 135.46"/>
    <polygon class="st0" points="73.71 133.7 74.13 132.9 71.35 132.52 70.71 132.73 70.71 133.59 71.4 133.75 73.71 133.7"/>
    <polygon class="st0" points="68.46 132.57 66.21 132.41 65.51 131.02 67.01 129.89 67.98 130.43 68.99 132.04 68.46 132.57"/>
    <polygon class="st0" points="60.31 128.66 60.58 127.16 58.44 126.84 57.74 128.29 58.92 129.14 59.67 129.57 60.31 128.66"/>
    <polygon class="st0" points="56.83 128.61 55.71 129.95 55.17 129.25 55.33 128.56 56.35 128.02 56.83 128.61"/>
  </g>
  <g>
    <path class="st2" d="M218.49,34.6l1.02.96-.81,1.45.22.8,1.12.16,1.61,1.87,1.34-.16s1.23-.59-1.02-1.5c0,.16,1.5-.21,1.5-.21,0,0,2.73,1.87-2.03,3.75l-.43-.91-.91.54v.86l-.59-.1-1.71-2.36-8.41,1.77-.16-4.23,8.25-1.71,1.01-.96v-.02Z"/>
    <polygon class="st2" points="200.17 63.8 198.6 63.26 197.27 64.26 197.29 62.6 195.93 61.64 197.52 61.14 198.01 59.56 198.97 60.91 200.63 60.89 199.64 62.22 200.17 63.8"/>
  </g>
  <g>
    <circle class="st1" cx="194.96" cy="70.13" r="2.95"/>
    <path class="st3" d="M194.12,70.81h.54v-1.31h-.48v-.42c.29-.06.47-.13.66-.25h.5v1.98h.46v.55h-1.69v-.55Z"/>
  </g>
</svg>