<?xml version="1.0" encoding="UTF-8"?>
<svg id="Layer_1" xmlns="http://www.w3.org/2000/svg" version="1.1" viewBox="0 0 230 146.77">
  <!-- Generator: Adobe Illustrator 29.6.0, SVG Export Plug-In . SVG Version: 2.1.1 Build 207)  -->
  <defs>
    <style>
      .st0 {
        fill: #df6f5c;
      }

      .st0, .st1 {
        stroke: #fff;
        stroke-width: .49px;
      }

      .st2 {
        fill: #fff;
      }

      .st1 {
        fill: #6a8cc3;
      }
    </style>
  </defs>
  <g>
    <polygon class="st0" points="55.49 53.78 59.09 31.17 86.3 34.82 84.42 56.89 55.49 53.78"/>
    <g>
      <polygon class="st0" points="188.61 102.79 187.7 102.79 187.16 101.99 187.21 101.13 186.51 100.6 185.66 100.6 185.55 99.42 184.37 97.33 183.57 97.27 181.86 95.29 180.14 93.85 179.66 93.69 177.73 90.9 176.39 90.79 175.38 90.1 175.21 89.03 175.96 88.06 179.66 86.13 185.82 85.81 186.83 87.1 191.76 86.83 197.39 90.85 195.94 92.67 195.68 93.63 195.41 95.51 194.66 96.26 193.26 97.81 190.64 100.11 190.37 100.11 190.26 100.92 188.61 102.79"/>
      <polygon class="st0" points="187.05 110.56 184.32 110.51 184.32 111.36 184.75 111.42 184.7 113.29 183.78 112.86 183.73 112.27 171.3 112.75 170.07 111.25 169.8 110.29 169.38 109.91 169.22 107.45 169.11 105.52 169.64 105.04 169.59 103.86 168.79 102.63 167.34 97.86 166.27 94.22 165.2 91.44 165.09 89.4 175.75 88.11 175.21 89.03 175.38 90.1 176.39 90.79 177.73 90.9 179.66 93.69 180.14 93.85 181.86 95.29 183.57 97.27 184.37 97.33 185.55 99.42 185.66 100.6 186.51 100.6 187.21 101.13 187.16 101.99 187.7 102.79 188.61 102.79 188.5 103.59 188.12 104.4 187.53 106.54 187.05 110.56"/>
      <polygon class="st0" points="182.5 54.16 182.02 55.65 182.12 60.64 180.35 62.4 179.18 62.62 178.59 63.8 178.64 65.56 178.05 65.67 178.05 65.08 177.36 65.13 177.14 67.39 176.66 67.97 176.55 68.46 175.64 68.46 175.64 70.55 176.77 71.08 177.41 72.63 178.85 73.6 179.87 74.62 181.26 74.94 181.91 74.29 182.55 74.72 183.73 74.46 184.16 73.38 186.14 72.96 186.73 72.05 186.67 70.44 188.28 65.88 189.19 66.58 190.21 66.47 190.32 64.81 191.18 64.55 192.73 62.14 192.73 60.31 193.59 60.42 195.52 61.33 195.57 60.37 193.64 58.92 190.64 59.78 188.34 62.08 187.8 59.08 183.73 59.67 182.5 54.16"/>
      <polygon class="st0" points="158.93 116.29 157.11 116.88 156.78 116.61 157.32 116.24 156.68 114.58 155.93 114.41 155.61 115.22 155.55 116.02 154.32 116.24 153.47 108.2 153.68 90.2 165.09 89.4 165.09 91.17 168.79 102.63 169.59 103.86 169.64 105.04 169.11 105.52 169.38 109.91 169.8 110.29 169.91 111.04 157.64 112.38 157.54 113.34 158.82 114.36 158.93 116.29"/>
      <polygon class="st0" points="181.26 77.94 155.23 80.94 153.2 80.94 153.25 82.22 146.55 82.33 146.45 84.36 145.65 86.29 145.43 87.69 145.05 88.22 144.09 88.38 144.2 89.03 144.52 89.24 144.2 90.69 153.47 90.26 165.09 89.4 170.61 88.6 170.61 87.2 171.73 87.04 171.95 85.92 176.07 83.51 176.44 82.38 178.26 81.85 178.85 80.99 180.3 80.88 181.21 79.54 181.26 77.94"/>
      <polygon class="st0" points="154.32 116.24 151.43 116.5 149.61 116.82 148.96 117.63 148.38 116.82 147.36 115.38 147.41 113.45 138.89 113.61 138.68 111.25 140.56 108.26 140.98 107.56 141.15 106.49 141.36 106.11 140.82 105.31 140.4 103.97 140.24 102.79 140.24 101.88 140.34 100.06 140.29 97.49 141.2 95.61 142.38 94.54 142.59 92.94 143.93 91.76 143.93 90.85 144.2 90.69 153.68 90.2 153.47 108.2 154.32 116.24"/>
      <polygon class="st0" points="128.56 121.22 128.56 119.93 128.82 116.07 129.47 115.43 129.36 112.11 128.13 110.82 128.18 109.65 127.06 108.04 127.06 102.52 140.13 102.58 140.4 103.97 140.82 105.31 141.36 106.11 141.09 107.18 138.68 111.25 138.89 113.61 147.41 113.45 147.36 115.38 148.96 117.63 147.79 118.75 148 119.4 148.91 119.34 149.02 118.65 149.56 118.27 150.04 118.86 149.93 119.72 148.91 120.47 148.7 121 148.64 121.64 150.46 122.02 151.37 122.45 151.96 123.2 151.27 123.73 150.57 123.63 149.5 122.98 148.64 122.82 147.95 122.56 147.79 121.59 147.04 122.07 146.88 123.04 146.77 123.79 145.43 124.32 145.75 123.57 145.8 122.98 144.62 123.41 144.04 124.11 143.5 124.32 142.48 124.27 141.41 123.79 140.93 123.36 140.88 122.82 141.2 122.5 141.15 122.07 139.7 121.97 139.32 120.84 136.65 120.73 136.86 121.32 138.79 121.81 138.47 122.45 136.75 121.91 135.2 121.97 133.49 121.59 131.93 120.79 130.38 120.9 128.56 121.22"/>
      <polygon class="st0" points="112.01 141.73 110.83 142.64 110.18 142.32 109.49 141.62 106.76 141.36 105.9 140.5 104.19 140.39 103.33 139.75 102.63 139.32 102.15 138.68 101.72 136.96 101.19 136.32 100.81 135.73 100.7 132.95 100.38 132.57 99.57 132.25 97.44 129.3 96.79 128.88 95.78 125.34 95.19 124.05 92.02 120.41 88.33 119.98 87.9 119.45 86.94 119.45 85.22 120.57 84.95 121.7 84.42 122.66 83.03 124.16 82.33 123.79 79.54 122.02 76.6 119.13 76.49 116.72 76.49 116.34 75.58 114.2 74.41 113.24 73.6 113.13 71.19 110.02 70.55 109.59 69.74 109.16 69.31 108.04 68.51 107.24 68.35 106.11 84.69 107.08 86.61 82.65 100.49 82.81 99.9 93.95 101.08 95.18 103.43 95.24 103.49 96.15 106.6 97.28 107.4 96.74 108.09 96.79 108.95 98.4 109.81 98.35 110.18 98.08 111.31 98.03 112.11 99.04 113.4 99.15 113.61 97.86 115.65 98.94 117.1 98.99 117.79 98.24 121.43 98.13 122.02 97.86 125.4 100.17 126.84 100.01 127.06 102.52 127.06 108.04 128.07 109.81 128.13 110.82 129.36 112.11 129.47 115.43 128.82 116.07 128.56 121.22 125.24 122.45 118.97 127.22 114.63 129.57 112.54 130.91 111.31 131.45 111.26 132.2 111.63 132.41 111.58 133.32 110.62 135.73 110.67 137.98 112.01 141.73"/>
      <polygon class="st0" points="87.03 79.5 109.49 80.63 123.91 80.67 123.99 83.48 124.92 90.15 124.88 99.79 122.02 97.86 121.43 98.13 117.79 98.24 117.1 98.99 115.65 98.94 113.61 97.86 113.4 99.15 112.11 99.04 111.31 98.03 110.18 98.08 109.81 98.35 108.95 98.4 108.09 96.79 107.4 96.74 106.6 97.28 103.49 96.15 103.43 95.24 101.08 95.18 99.9 93.95 100.49 82.81 86.67 82.6 87.03 79.5"/>
      <polygon class="st0" points="140.13 102.58 127.06 102.52 126.84 100.01 125.4 100.17 124.88 99.79 124.92 90.15 123.91 83.68 123.95 83 144.04 82.88 144.64 83.56 144.44 84.24 143.43 84.93 143.52 85.57 146.05 85.45 145.65 86.29 145.43 87.69 145.05 88.22 144.09 88.38 144.2 89.03 144.52 89.24 144.2 90.69 143.93 90.85 143.93 91.76 142.59 92.94 142.38 94.54 141.2 95.61 140.29 97.49 140.34 100.31 140.13 102.58"/>
      <polygon class="st0" points="147.01 82.32 147.53 81.63 148.06 81.67 148.06 80.59 148.42 80.35 148.34 80.03 148.13 79.42 148.09 78.86 149.34 78.46 150.99 79.18 151.31 78.34 151.07 78.1 151.03 76.97 152.35 76.81 152.39 75.89 152.51 74.76 153.6 73.96 155.73 73.72 156.13 74.28 156.69 74.32 157.38 73.4 158.06 73.2 158.5 73.84 159.14 73.92 159.18 72.96 159.99 72.39 160.31 72.71 161.71 72.8 161.75 71.51 163.44 69.94 163.56 68.46 164.89 68.42 166.06 67.49 165.61 67.13 165.37 66.49 165.81 66.13 166.98 66.21 167.18 65.88 167.78 66.01 168.7 67.49 170.35 67.53 170.67 68.22 171.64 67.53 172.24 67.61 172.76 68.14 173.93 66.97 174.25 67.13 175.64 68.46 175.64 70.55 176.77 71.08 177.41 72.63 178.85 73.6 175.69 76.76 175.73 77.7 175.1 77.83 173.97 78.7 155.23 80.94 153.2 80.94 153.25 82.22 147.01 82.32"/>
      <polygon class="st1" points="63.58 54.69 92.83 57.9 91.49 79.71 60.8 76.65 63.58 54.69"/>
      <polygon class="st0" points="123.95 83 123.84 69.21 121.86 67.06 121.86 65.99 122.4 65.56 122.4 64.76 121.33 64.6 119.4 62.24 118.97 60.58 136.22 60.15 137.02 61.39 136.91 63.53 137.4 64.87 140.66 67.81 140.61 69.21 142.97 69.58 143.34 70.12 142.22 72.63 144.41 75.37 145.7 75.37 146.29 76.49 146.66 77.56 146.61 78.36 147.25 79.71 148.06 79.76 148.42 80.35 148.06 80.59 148.06 81.67 147.53 81.63 147.01 82.32 146.55 82.33 146.45 84.36 146.05 85.45 143.52 85.57 143.43 84.93 144.44 84.24 144.64 83.56 144.04 82.88 123.95 83"/>
      <polygon class="st0" points="123.91 80.67 109.11 80.72 91.49 79.71 92.46 63.21 120.74 63.8 121.33 64.6 122.4 64.76 122.4 65.56 121.86 65.99 121.86 67.06 123.84 69.21 123.91 80.67"/>
      <polygon class="st0" points="56.3 108.09 46.6 106.86 30.75 97.06 32.89 95.13 32.95 94.65 31.87 94.86 32.04 92.4 33.27 91.65 33.32 89.88 35.3 88.44 35.68 88.06 35.62 87.47 34.12 84.26 34.23 83.35 34.82 83.08 35.03 77.51 36 77.35 37.29 78.42 38.14 78.31 39.16 72.85 60.8 76.65 56.3 108.09"/>
      <polygon class="st0" points="63.58 54.69 55.49 53.78 56.41 47.89 44.3 45.64 39.16 72.85 60.8 76.65 63.58 54.69"/>
      <polygon class="st0" points="92.83 57.9 84.42 56.89 85.28 45.69 108.2 47.08 109.65 48.26 110.51 48.26 110.83 47.89 113.03 47.89 116.13 49.92 118.06 55.76 118.97 60.58 119.4 62.24 120.74 63.8 92.46 63.21 92.83 57.9"/>
      <polygon class="st0" points="88.39 12.75 86.89 29.62 115.76 30.91 115.65 28.71 115.11 26.94 114.69 24.53 114.69 21.16 113.61 19.28 113.67 15.8 113.93 15.37 113.34 14.03 88.39 12.75"/>
      <polygon class="st0" points="85.28 45.69 86.89 29.62 115.76 30.91 115.76 31.76 114.74 32.67 116.19 34.44 116.19 44.14 115.54 44.14 115.6 45.48 116.29 46.01 115.54 48.37 115.97 49.55 113.03 47.89 110.62 47.94 110.51 48.26 109.65 48.26 108.2 47.08 85.28 45.69"/>
      <polygon class="st0" points="65.08 10.02 44.41 6.21 43.66 9.75 43.33 11.09 44.09 13.55 43.92 15.21 45.32 16.39 46.6 19.55 48.1 20.78 46.18 25.23 46.71 26.3 47.41 26.68 48.69 25.76 49.5 30.16 50.94 31.5 51 33.37 51.75 33.37 55.44 33.37 56.41 33.8 56.89 32.89 57.75 33 58.49 34.23 59.09 31.17 86.3 34.82 88.39 12.75 65.08 10.02"/>
      <polygon class="st0" points="32.3 42.91 35.41 31.34 34.39 30.96 34.55 29.62 36.43 27.91 36.64 26.89 38.84 24.42 38.95 23.46 37.82 22.66 37.98 18 40.77 5.36 44.41 6.21 43.33 11.09 44.09 13.55 43.92 15.21 45.32 16.39 46.6 19.55 48.1 20.78 46.18 25.23 46.71 26.3 47.41 26.68 48.69 25.76 49.5 30.16 50.94 31.5 51 33.37 55.44 33.37 56.41 33.8 56.89 32.89 57.75 33 58.49 34.23 56.41 47.89 32.3 42.91"/>
      <polygon class="st0" points="50.35 146.34 48.53 144.89 48.16 145.16 48.48 146.55 47.68 146.5 47.46 146.77 46.66 145.8 45.85 145.32 46.12 144.46 45.91 142.91 45.48 143.82 44.89 141.95 44.57 143.55 44.03 142.7 43.44 141.89 43.02 141.68 42.69 140.29 41.73 139.64 42.21 138.79 41.14 138.57 38.14 136.32 38.2 135.52 37.5 135.63 35.84 135.57 34.77 134.82 32.57 134.72 30.59 133.48 30.37 132.63 29.03 132.63 28.66 133.32 29.68 134.02 29.57 134.61 28.93 135.25 28.07 134.82 27.05 134.66 25.23 135.95 23.79 135.95 23.57 135.52 25.07 132.41 26.09 131.98 27.05 132.04 26.57 131.56 25.23 131.61 23.14 134.02 22.61 134.66 21.32 134.99 21.22 135.73 21.86 136.11 21.86 136.91 16.98 139.81 15.7 140.07 14.68 140.77 14.52 141.3 12.16 141.73 10.34 141.73 8.09 142.43 5.15 142.59 4.98 141.68 8.09 141.62 9.38 140.71 11.04 140.18 11.84 140.71 12.86 139.54 14.68 139.43 14.89 138.84 15.8 138.25 17.2 135.47 16.02 135.79 15.75 134.99 15.43 136.06 14.73 135.95 14.68 134.72 13.71 134.34 12.05 134.56 12.16 132.79 12.64 132.68 12.54 130.97 10.29 131.07 10.07 129.84 9.59 129.09 10.23 128.29 10.13 127.81 9.75 127.38 9.7 126.04 12.21 123.47 13.23 123.47 13.66 124.32 14.25 124.11 14.78 123.63 15.65 123.84 16.77 123.63 17.14 121.27 16.23 121.06 14.47 120.84 12.54 120.31 12.05 118.27 11.25 116.77 12 116.4 14.41 116.34 15.91 116.13 15.75 117.25 17.63 118.22 18.05 117.9 16.5 115.16 16.39 113.56 15.11 111.52 15.7 110.72 18.27 111.04 20.2 108.52 21.7 108.36 24.64 107.77 26.04 108.47 27.05 108.9 27.91 109.11 28.23 110.29 30.48 110.77 31.5 111.79 32.84 111.9 34.28 111.74 36.05 112.38 36.69 112.86 36.59 134.29 38.03 134.45 38.62 134.07 39.1 134.77 40.82 137.02 41.36 137.07 41.89 136.22 42.53 135.41 43.23 135.31 48.11 141.79 49.01 142.32 50.67 143.13 51.27 144.95 50.35 146.34"/>
    </g>
  </g>
  <g>
    <path class="st1" d="M219.3,33.26l-.13-.06-.46-.21-.05-.75-.97-.27-2.94-10.02.7-.32.16-2.03,1.02-1.45-.05-.8-.38-.48-.1-1.45.37-.32.11-2.68,1.23-3.16s.38-2.84,1.88.05l.48-.05s2.73-4.02,4.34,1.39l1.82,5.3,1.5.27.21,1.66s5.52,1.18-.75,5.3l-1.61.75-.16,1.23-1.39-1.29-.38.32v2.2l-.96.75v.8s-1.07.16-.91.32-.59.43-.59.43l-.81-.32-.37.75-.53,2.95-.27,1.18h0Z"/>
    <polygon class="st1" points="219.03 34.23 217.74 35.57 215.71 36.1 212.97 36.74 212.33 36.91 212.44 28.12 213.72 26.94 213.78 25.5 213.35 25.01 213.51 21.85 214.74 21.96 217.68 31.98 218.65 32.25 218.71 33 219.3 33.26 219.03 34.23"/>
    <polygon class="st1" points="213.35 23.62 206.44 25.34 206.66 26.89 207.3 28.93 207.3 29.94 207.24 31.02 207.78 31.93 208.31 33.16 208.96 34.39 209.44 35.84 209.5 37.28 212.33 36.91 212.44 28.12 213.72 26.94 213.78 25.5 213.35 25.01 213.35 23.62"/>
    <polygon class="st1" points="216.94 43.6 216.35 40.23 218.06 39.75 219.78 42.1 219.51 42.69 218.81 42.8 216.94 43.6"/>
    <path class="st1" d="M218.76,34.6l1.02.96-.81,1.45.21.8,1.12.16,1.61,1.87,1.34-.16s1.23-.59-1.02-1.5c0,.16,1.5-.21,1.5-.21,0,0,2.73,1.87-2.04,3.75l-.43-.91-.91.54v.86l-.59-.1-1.72-2.36-8.41,1.77-.16-4.23,8.25-1.72,1.02-.96h.02Z"/>
    <polygon class="st1" points="210.19 47.19 209.65 41.51 216.35 40.23 216.94 43.6 215.87 44.24 215.17 44.78 213.08 45.16 210.19 47.19"/>
    <path class="st1" d="M202.1,43.28l-17.51,3.64-.11-1.82,2.78-2.89-.11-.86s-3.64-1.71,1.23-3c-.16.16,3.11.05,3.11.05l.75.21.91-.37,1.45-.32,1.39-1.66,1.07-.21-.05-1.23-.27-1.07-.8-.32-.22-1.18,1.34-1.34,1.01-1.23.86-1.5,1.23-1.29,2.04-.48,1.82-.43,1.17-.21,1.23-.43.11,1.12.7,2.25v2.3l2.2,4.82.21,5.68.48,5.46-.11.86-.05.64.8-.54,2.14-.59,1.93-1.12.75-.64.8.37-.91,1.07-2.04,1.45-1.93.86-1.61.43h-.59l.05-2.25-3.8-1.13-1.02-.59-.53-.91-.38-.96-.75-.05-.81-.59h.04Z"/>
    <polygon class="st1" points="181.38 47.62 182.66 54.58 183.68 59.83 202.85 56.24 204.67 55.55 206.71 53.25 204.94 51.32 204.08 50.99 204.03 50.14 204.78 49.66 204.35 49.01 204.56 48.26 205.05 48 205.15 46.66 205.58 46.39 204.56 45.8 203.66 43.92 202.91 43.87 202.1 43.28 184.59 46.92 184.43 44.89 181.38 47.62"/>
    <polygon class="st1" points="207.67 60.05 207.57 58.76 206.17 58.49 205.1 57.96 204.41 57.05 204.3 55.76 206.71 53.25 204.94 51.32 204.08 50.99 204.03 50.14 204.78 49.66 204.35 49.01 204.56 48.26 205.05 48 205.15 46.66 205.58 46.39 209.39 47.51 209.5 49.55 208.74 50.62 209.76 50.84 210.03 55.65 208.37 58.17 208.31 59.46 207.67 60.05"/>
    <polygon class="st1" points="202.85 56.24 204.83 63.15 207.46 62.89 207.19 60.96 206.01 60.15 205.42 58.87 204.41 57.96 204.19 56.62 204.14 55.76 202.85 56.24"/>
    <polygon class="st1" points="207.24 65.08 205.42 65.89 204.62 64.82 202.85 64.49 202.32 63.05 202.8 62.62 202.21 62.14 202.48 60.48 202 59.83 202.48 58.6 202.05 58.49 201.08 59.94 201.14 61.87 201.57 63.8 202.37 64.87 202.74 66.05 201.4 65.78 199.42 65.3 198.19 64.55 198.3 63.9 196.64 60.96 195.83 60.42 195.41 60.15 193.64 58.92 192.41 59.46 191.12 59.78 190.64 59.78 189.99 60.26 189.57 60.64 188.98 61.39 188.34 62.08 187.8 59.08 202.85 56.24 204.83 63.15 207.46 62.89 207.62 64.39 207.24 65.08"/>
    <polygon class="st1" points="206.23 73.71 193.64 76.44 173.77 78.85 175.1 77.83 175.8 77.56 175.69 76.76 178.85 73.6 179.87 74.62 181.26 74.94 181.91 74.29 182.55 74.72 183.73 74.46 184.16 73.38 185.23 73.17 186.14 72.96 186.73 72.05 186.67 70.44 188.28 65.88 188.82 66.26 189.19 66.58 190.21 66.47 190.32 64.81 191.18 64.55 192.73 62.14 192.73 60.31 193.59 60.42 195.52 61.33 195.57 60.37 196.64 60.96 198.3 63.9 198.19 64.55 199.42 65.3 201.83 65.99 202.32 66.63 203.23 66.74 203.39 68.56 203.76 68.99 202.8 69.42 202.96 69.96 204.14 71.19 204.03 71.83 203.66 71.88 203.82 72.47 204.62 72.37 205.42 71.94 206.23 73.71"/>
    <path class="st1" d="M197.39,90.85l-5.63-4.02-4.93.27-1.01-1.29-6.16.32-3.91,1.98-5.2.32.05-1.23,1.12-.16.21-1.12,4.12-2.41.38-1.12,1.82-.54.59-.86,1.45-.11.91-1.34.05-1.61,11.78-1.39,13.18-2.84.7,1.18,1.66,2.47-.48,1.45-.7.91-.54.86-1.71.32-.05,1.98,1.76.21-.91,1.71s-4.71-.48-5.79,5.62l-2.78.43h.02Z"/>
    <polygon class="st1" points="196.05 140.07 194.87 140.07 194.39 140.77 193.53 140.71 193.26 139.48 192.99 138.63 191.55 136.91 190.16 136.91 189.46 136.21 189.19 134.88 188.34 133.97 187.75 134.02 187.7 134.45 187.1 134.39 185.71 131.5 183.73 128.93 185.28 127.22 185.07 126.41 183.73 126.36 183.68 126.79 184.16 127.06 183.68 128.07 183.41 127.54 182.93 126.79 182.87 124.59 183.25 124.32 183.25 121.59 181.91 120.04 180.46 119.77 176.98 116.24 175.75 115.7 173.93 115.91 173.93 116.93 171.41 118.16 169.43 118.32 169.38 117.57 165.63 115.65 161.07 115.59 159.74 116.29 158.93 116.29 158.82 114.36 157.54 113.34 157.64 112.38 170.07 111.04 171.3 112.75 183.57 112.27 183.78 112.86 184.7 113.29 184.75 111.42 184.32 111.36 184.32 110.51 187.05 110.56 187.37 112 189.19 116.07 192.35 120.41 193.59 121.7 193.43 122.45 193.16 123.04 197.34 130.22 197.98 135.52 197.87 136.48 197.18 136.86 197.23 138.41 197.98 137.77 197.93 139.05 197.28 140.39 194.07 143.18 193.85 142.64 196.91 140.18 197.07 139.54 196.05 140.07"/>
    <polygon class="st1" points="200.44 63.8 198.87 63.26 197.54 64.26 197.56 62.6 196.2 61.64 197.79 61.14 198.28 59.56 199.24 60.91 200.9 60.89 199.91 62.22 200.44 63.8"/>
    <polygon class="st1" points="207.24 65.08 205.7 65.81 205.46 67.29 205.14 69.86 205.58 70.75 206.11 70.14 206.59 68.78 206.47 67.05 207.27 66.09 207.24 65.08"/>
    <polygon class="st1" points="181.44 47.81 180.52 48.05 176.86 50.94 176.42 51.34 175.25 51.42 174.25 51.99 173.12 51.99 172.32 51.42 170.71 51.38 169.75 50.58 168.9 50.98 166.98 51.1 164.04 51.34 165.81 66.13 166.98 66.21 167.18 65.88 167.78 66.01 168.7 67.49 170.35 67.53 170.67 68.22 171.27 67.81 171.64 67.53 172.24 67.61 172.76 68.14 173.93 66.97 174.25 67.13 175.64 68.46 176.55 68.46 176.7 67.81 177.14 67.39 177.36 65.13 178.05 65.08 178.05 65.67 178.64 65.56 178.59 63.8 179.18 62.62 180.35 62.4 182.12 60.64 182.02 55.65 182.52 54.36 181.44 47.81"/>
    <polygon class="st1" points="153.12 52.95 154.08 53.27 156.05 52.07 164.04 51.34 165.81 66.13 165.41 66.65 165.61 67.13 166.06 67.49 164.89 68.42 163.56 68.46 163.44 69.94 161.75 71.51 161.71 72.8 160.31 72.71 159.99 72.39 159.18 72.96 159.14 73.92 158.5 73.84 158.06 73.2 157.38 73.4 156.69 74.32 156.13 74.28 155.73 73.72 153.6 73.96 152.51 74.76 152.59 72.59 154.24 70.06 154.48 68.1 153.8 67.41 153.12 53.11 153.12 52.95"/>
    <polygon class="st1" points="60.75 106.22 60.64 108.79 56.3 108.09 60.8 76.65 87.03 79.5 84.69 107.08 68.09 105.9 68.03 107.08 60.75 106.22"/>
    <polygon class="st1" points="151.37 48.58 151.43 50.14 152.34 51.26 153.12 52.95 153.8 67.41 154.48 68.1 154.24 70.06 152.59 72.59 152.34 76.65 151.03 76.97 151.07 78.1 151.31 78.34 150.99 79.18 149.34 78.46 148.09 78.86 148.06 79.76 147.25 79.71 146.61 78.36 146.66 77.56 145.7 75.37 144.41 75.37 142.22 72.63 143.34 70.12 142.97 69.58 140.61 69.21 140.66 67.81 137.4 64.87 136.91 63.53 136.86 61.39 137.45 61.06 137.34 59.99 138.52 59.67 138.52 58.33 139.11 57.96 138.95 57.1 138.36 56.62 138.41 55.76 138.95 55.28 139.91 55.28 141.3 54.21 141.9 51.8 139.65 49.76 139.6 48.96 151.37 48.58"/>
    <path class="st1" d="M136.97,44.03l-.11-1.87-2.89-2.41-.59-.91h-.8l-.16-.7h-1.12l-.75-.86-.16-2.84.32-.8.05-.8-.69-.75.32-.64,1.93-2.2.21-3.05s2.36.05,2.2,0,2.84-1.61,2.84-1.61l.8.38-.96,1.39.48.32,1.01-.21,1.07.59.65.8,1.12.21,2.36.43,4.55,1.07,1.07,1.02.43,2.36.69,1.02-1.39,2.36.16.91.54-.16,3.05-4.39.22.8-1.72,4.02v1.82l-.43,1.07.27,1.5-.59,1.07-.26,1.18.69,4.44-11.78.37-1.18-.59-.96-1.07-.11-1.34.8-.43-.32-.64-.86-.86h0Z"/>
    <polygon class="st1" points="20.3 40.28 16.07 56.62 34.23 83.35 34.82 83.08 35.03 77.51 36 77.35 37.29 78.42 38.14 78.31 44.3 45.64 20.3 40.28"/>
    <polygon class="st1" points="116.19 44.14 136.97 44.03 137.83 44.89 138.14 45.53 137.34 45.96 137.45 47.3 138.41 48.37 139.6 48.96 139.65 49.92 141.9 51.8 141.3 54.21 139.91 55.28 138.95 55.28 138.41 55.76 138.36 56.62 139 57.26 139.11 57.96 138.57 58.49 138.52 59.67 137.34 59.99 137.45 61.06 136.86 61.39 136.22 60.15 118.97 60.58 118.01 56.14 116.13 49.92 115.54 48.37 116.02 47.14 116.29 46.01 115.6 45.48 115.54 44.14 116.19 44.14"/>
    <polygon class="st1" points="113.34 14.03 113.93 15.37 113.67 15.8 113.61 19.28 114.69 21.16 114.69 24.53 115.11 26.94 115.65 28.71 115.76 31.76 114.74 32.67 116.19 34.44 116.19 44.14 136.97 44.03 136.86 42.16 133.97 39.75 133.54 38.84 132.58 38.83 132.41 38.14 131.29 38.14 130.54 37.28 130.38 34.44 130.7 33.64 130.75 32.84 130.06 32.08 130.17 31.66 132.31 29.25 132.52 26.19 135.79 23.41 136.54 22.02 142.27 18.91 142.49 18.43 141.09 18.53 140.29 18.11 137.56 18.05 137.45 17.51 135.74 18.53 134.18 18.53 134.07 17.89 133.11 17.89 132.84 16.93 131.98 17.41 129.58 15.85 128.13 15.75 127.43 16.23 126.36 16.34 126.04 15.91 124.7 15.96 123.47 15.43 122.45 11.89 121.06 11.78 121.11 13.82 113.34 14.03"/>
    <polygon class="st1" points="12.16 13.55 11.41 12.8 11.79 12.11 12.54 11.73 12.81 11.14 12.21 10.87 12.16 9.7 13.23 9.7 12.43 8.84 12.32 4.39 11.73 3.75 12.54 1.29 13.02 1.34 14.52 3 18.54 4.5 19.5 4.77 20.47 6.21 20.57 2.84 20.84 1.93 19.98 .8 20.14 .21 20.57 0 40.77 5.36 37.98 17.78 37.82 21.53 31.28 19.87 23.95 20.03 21.64 19.61 18.75 18.43 16.34 18.8 15.43 17.62 15.54 15.37 14.78 14.52 13.82 14.46 13.45 13.71 12.16 13.55"/>
    <polygon class="st1" points="32.3 42.91 20.3 40.28 4.23 35.62 3.54 34.6 4.02 30.96 6.8 26.73 11.79 14.25 13.61 14.03 13.82 14.46 14.78 14.52 15.54 15.37 15.43 17.62 16.34 18.8 18.75 18.43 21.64 19.61 23.95 20.03 31.28 19.87 37.82 21.53 37.82 22.66 38.95 23.46 38.84 24.42 36.64 26.89 36.43 27.91 34.55 29.62 34.39 30.96 35.41 31.34 32.3 42.91"/>
    <polygon class="st1" points="31.93 96.04 20.25 94.92 20.09 91.06 17.46 87.2 15.96 86.88 15.91 85.38 14.36 85.11 12.11 81.85 10.98 81.85 9.43 80.88 7.98 80.94 7.39 80.03 8.36 77.03 5.89 72.26 5.79 71.24 4.56 69.58 4.5 67.54 5.25 67.17 5.68 65.62 4.77 65.29 3.91 64.12 3.81 61.33 4.23 60.15 2.79 58.76 2.84 56.56 .91 52.81 1.66 49.71 1.5 46.33 .27 44.62 .7 43.07 3.54 39.26 3.65 35.94 4.23 35.62 20.3 40.28 16.07 56.62 34.23 83.35 34.1 84.36 35.62 87.47 35.68 88.06 33.32 89.88 33.27 91.65 32.04 92.4 31.87 94.86 32.95 94.65 32.92 95.21 31.93 96.04"/>
    <polygon class="st1" points="156.05 52.07 157.06 50.22 157.9 48.85 157.86 45.6 155.97 42.38 156.25 38.77 156.69 35.76 157.26 35.55 157.14 34.43 158.22 33.55 158.46 32.66 159.02 32.46 159.22 33.22 158.74 34.19 158.66 34.99 159.59 34.67 159.67 32.06 160.15 31.78 161.19 31.74 161.35 31.09 160.55 31.09 160.47 30.13 161.92 29.05 162.76 29.93 163.36 29.57 165.85 30.69 166.98 30.81 167.94 32.22 167.3 32.7 167.34 33.18 168.1 33.87 168.02 36.64 167.3 37.56 166.98 38.65 166.49 38.69 166.3 40.25 167.42 40.54 168.34 39.21 168.75 38.33 170.15 37.52 171.59 39.65 172.48 42.83 172.56 45.8 171.64 45.76 170.79 47.65 170.63 48.97 169.75 50.58 168.9 50.98 156.05 52.07"/>
    <polygon class="st1" points="150.84 33.96 152.59 29.93 153.16 29.93 153.8 30.09 154.68 29.53 155.17 29.77 155.93 28.72 158.06 28.4 158.5 27.88 161.23 28.28 163.96 27.72 166.34 28 166.58 27.52 166.01 26.76 164.45 27.24 163.8 26.76 163.56 24.67 162.84 24.91 162.52 25.11 160.99 25.67 160.03 25.35 160.03 23.94 159.26 24.06 157.9 24.67 155.57 24.71 154 26.03 151.15 25.95 149.58 24.26 148.26 24.02 146.93 24.71 146.81 23.99 147.37 23.26 147.42 22.78 149.18 21.49 149.5 21.17 149.3 20.73 147.65 21.05 145.28 23.1 145.12 23.82 143.23 24.99 142.07 25.19 141.43 25.87 139.82 26.35 139.74 26.92 139.97 27.05 140.61 27.85 148.64 29.57 149.71 30.59 150.15 32.94 150.84 33.96"/>
    <path class="st1" d="M78.85,139.11l-.64-.96.54-.54,2.62,1.55,1.77,1.98s.91.75,1.07.91c.16.16-.7,1.02-.7,1.02l-1.34.11-1.02.59-1.61,1.77-1.12-.7-.11-2.41s-.16-.59-.32-.7c-.16-.11-.48-.75-.48-.75l.22-.86,1.12-1.02h0Z"/>
    <polygon class="st1" points="77.78 135.74 75.8 136.43 74.08 134.29 74.67 133.59 76.55 134.13 77.83 134.56 78.37 135.52 77.78 135.74"/>
    <polygon class="st1" points="73.49 135.47 72.31 135.25 72.1 134.34 72.64 134.02 73.49 134.08 73.82 134.77 73.49 135.47"/>
    <polygon class="st1" points="73.98 133.7 74.41 132.9 71.62 132.52 70.98 132.73 70.98 133.59 71.67 133.75 73.98 133.7"/>
    <polygon class="st1" points="68.73 132.57 66.48 132.41 65.78 131.02 67.28 129.9 68.24 130.43 69.26 132.04 68.73 132.57"/>
    <polygon class="st1" points="60.58 128.66 60.85 127.16 58.71 126.84 58.01 128.29 59.19 129.14 59.94 129.57 60.58 128.66"/>
    <polygon class="st1" points="57.1 128.61 55.98 129.95 55.44 129.25 55.6 128.56 56.62 128.02 57.1 128.61"/>
  </g>
  <circle class="st1" cx="109.76" cy="57.69" r="2.95"/>
  <path class="st2" d="M109.02,58.5h.56v-1.35h-.49v-.44c.3-.06.48-.13.68-.25h.52v2.04h.47v.57h-1.73v-.57h0Z"/>
</svg>