<?xml version="1.0" encoding="UTF-8"?>
<svg id="Layer_1" xmlns="http://www.w3.org/2000/svg" version="1.1" viewBox="0 0 50 50">
  <!-- Generator: Adobe Illustrator 30.1.0, SVG Export Plug-In . SVG Version: 2.1.1 Build 136)  -->
  <defs>
    <style>
      .st0 {
        fill: none;
        stroke: #000;
        stroke-miterlimit: 10;
        stroke-width: .5px;
      }
    </style>
  </defs>
  <path class="st0" d="M5.77,24.95s-1.9-1.01-2.03-1.65-.51-3.68-.63-5.58S.57,8.84,4.5,3.64c0,0,2.41-5.2,6.22,0,0,0,3.81,3.04,4.44,7.36l1.14,1.52,2.03.63s3.93-.76,4.69-.51,4.82,0,4.82,0l4.69.51s4.57-6.22,4.95-7.74S41.41-.16,43.95.6s4.82,8.12,4.82,8.12c0,0-.63,14.71-2.54,15.47s-3.04,1.27-3.04,1.27l.19,1.33-.51,2.28.51,4.31s.76,3.17-1.78,6.98c-2.54,3.81-2.92,4.44-2.92,4.44l.38,3.42s1.27.38-1.78.63-5.58.63-5.58.63c0,0-12.18-2.79-21.44-.76,0,0-1.78-1.27-2.03-2.03s-2.16-1.4-1.27-4.69c0,0,.63-2.16-.89-5.2,0,0-1.52-3.3-.13-6.09,0,0,2.03-2.28-.19-5.77Z"/>
  <path class="st0" d="M32.6,22.73s1.9-2.16,5.71-1.4c5.58,1.12-.42,4,0,3.68,0,0-5.45-2.79-5.71-2.28Z"/>
  <path class="st0" d="M38.81,23.11l-1.54-1.94s3.19-.22,1.54,1.94Z"/>
  <path class="st0" d="M16.87,24.13s2.66-3.04,3.81-2.92,5.45,0,5.45,0l1.78,1.4s1.27,1.52,1.65,2.41"/>
  <path class="st0" d="M23.97,22.1l-.76,5.07,2.28.76s-1.9-4.95-.63-5.83h-.89Z"/>
  <path class="st0" d="M25.87,22.61c-.38,0-.76.38-.89,1.78s1.14,1.65,1.14,1.65c0,0,1.14.13,1.52-1.01s-.13-1.78-.13-1.78c0,0-1.14-.63-1.65-.63Z"/>
  <path class="st0" d="M29.68,26.79s-2.42-1.17-2.29-1.29-1.26.52-1.26.52l.89.25h1.01l1.14.76h.51v-.25Z"/>
  <path class="st0" d="M8.43,21.15s-1.14,2.92-1.01,3.17,1.01.63,1.01.63c0,0,4.06-1.4,4.44-1.9s.38-1.27.38-1.27c0,0-.89-2.03-2.03-2.03s-2.79,1.4-2.79,1.4Z"/>
  <path class="st0" d="M12.11,21.15c.13.76,0,1.14,0,1.14,0,0,.1,1.26-.65,1.52"/>
  <path class="st0" d="M8.24,21.85s-.44,1.7.19,2.21,1.28.35,1.28.35"/>
  <path class="st0" d="M20.29,23.62s-.76-1.65,0-1.78,2.03.25,1.9.63.13,2.03-1.65,2.41l-.63-.51s.51-.51.38-.76Z"/>
  <path class="st0" d="M16.87,23.75s1.14.38,1.65.25,1.4,0,1.4,0l.13-.25s-.76.13-1.01,0-.76,0-1.01.13-1.14-.13-1.14-.13Z"/>
  <path class="st0" d="M15.28,31.04s.25-.38.63-.25,1.27.89,1.27.89v.38l-1.65.38-.25-1.4Z"/>
  <path class="st0" d="M18.45,31.93v-.63l-.51-.51s-.25-.13-.51.38-.25.76-.25.76c0,0,.51-.13,1.01,0s.25,0,.25,0Z"/>
  <path class="st0" d="M8.94,45.25s4.57-11.42,5.33-12.18,4.19-1.14,4.19-1.14c0,0,3.17-.34,4.95.59s4.5,3.86,4.5,3.86l3.36,7.98,2.28,4.31"/>
  <path class="st0" d="M37.29,47.97l-3.81-1.14-7.99-13.7s-4.82-3.68-8.24-3.42-5.71,5.58-5.83,6.72-1.97,7.93-1.97,7.93l-.54,3.23"/>
  <path class="st0" d="M37.29,13.47s3.04-8.24,5.33-7.1,1.27,13.32-.89,14.71"/>
  <path class="st0" d="M7.23,19.43s-3.55-12.81.13-13.19,5.96,6.72,5.96,6.72"/>
  <path class="st0" d="M5.71,24s4.44-10.27,12.18-11.8c0,0,3.55.25,5.2.63,0,0,6.85-1.01,9.51,0s9.64,4.57,10.02,10.91c0,0,.89.63,0,2.54"/>
  <path class="st0" d="M7.35,33.89s-.38-6.72,7.99-10.15c0,0,2.41-2.41,4.57-2.66s3.3,0,3.3,0c0,0,1.89-.11,3.74.77s5.65,3.03,5.65,3.03c0,0,3.3,3.68,3.17,4.82s1.52,11.54,1.52,11.54l1.01,3.55"/>
  <path class="st0" d="M34.88,21.08s.49,2.43.69,2.61"/>
  <path class="st0" d="M39.99,22.14s-.39,1.72-1.04,2.3"/>
</svg>