<?xml version="1.0" encoding="UTF-8"?>
<svg id="Layer_1" data-name="Layer 1" xmlns="http://www.w3.org/2000/svg" xmlns:xlink="http://www.w3.org/1999/xlink" viewBox="0 0 500 500">
  <defs>
    <style>
      .cls-1 {
        fill: url(#linear-gradient);
      }

      .cls-2 {
        fill: #fff;
        stroke-width: 3px;
      }

      .cls-2, .cls-3 {
        stroke: #000;
      }

      .cls-3 {
        fill: none;
        stroke-miterlimit: 10;
        stroke-width: 5px;
      }
    </style>
    <linearGradient id="linear-gradient" x1="265.47" y1="124.8" x2="265.47" y2="383.18" gradientUnits="userSpaceOnUse">
      <stop offset="0" stop-color="#fff33b"/>
      <stop offset=".04" stop-color="#fee62d"/>
      <stop offset=".12" stop-color="#fdd51b"/>
      <stop offset=".2" stop-color="#fdca0f"/>
      <stop offset=".28" stop-color="#fdc70c"/>
      <stop offset=".67" stop-color="#f3903f"/>
      <stop offset=".89" stop-color="#ed683c"/>
      <stop offset="1" stop-color="#e93e3a"/>
    </linearGradient>
  </defs>
  <rect class="cls-1" x="64.7" y="148.81" width="401.56" height="276.59"/>
  <rect class="cls-3" x="64.7" y="148.81" width="401.56" height="276.59"/>
  <g>
    <path class="cls-2" d="M200.53,431.75c-1.3-8.47-2.44-17.49-3.44-27.06l-8.67-92.08c-1-11.16-1.64-21.47-1.94-30.94-.3-9.46-.25-19.28.15-29.45-1.79-.4-4.63-.64-8.52-.75-3.89-.1-7.73-.1-11.51,0-3.79.1-6.78.35-8.97.75-3.39,6.78-7.23,13.86-11.51,21.23-4.29,7.38-8.42,14.4-12.41,21.08-3.99,6.68-7.58,12.61-10.76,17.79l-55.31,92.38c-5.38,8.97-10.87,17.74-16.44,26.31-5.58,8.57-11.86,17.24-18.84,26.01h-15.25c-.6,1.4-1.14,3.19-1.64,5.38-.5,2.2-.75,4.09-.75,5.68,6.98-.4,12.61-.6,16.89-.6h28.1c7.47,0,15.29.2,23.47.6.6-1.59,1.14-3.48,1.64-5.68.5-2.19.75-3.98.75-5.38h-27.21c3.39-9.37,7.37-18.69,11.96-27.95,4.58-9.27,8.97-17.39,13.15-24.37l3.59-5.98h65.5l.57,5.98c1,9.17,1.79,17.89,2.39,26.16.6,8.27.79,16.99.6,26.16h-20.93c-.6,1.4-1.15,3.19-1.64,5.38-.5,2.2-.75,4.09-.75,5.68,6.77-.4,13.65-.6,20.63-.6h46.79c6.08,0,12.51.2,19.28.6.6-1.59,1.14-3.44,1.64-5.53.5-2.09.75-3.93.75-5.53h-15.55c-2.59-8.37-4.54-16.79-5.83-25.26ZM94.24,386.75l49.33-82.22,7.85,82.22h-57.18Z"/>
    <path class="cls-2" d="M395.76,438.63c-1.49-.9-3.04-1.74-4.63-2.54-4.19,5.58-7.77,9.72-10.76,12.41s-5.88,4.04-8.67,4.04c-3.19,0-4.93-1.59-5.23-4.78-.3-3.19.15-7.57,1.35-13.15l10.17-47.84c1.99-8.97,4.34-18.69,7.03-29.15,2.69-10.46,5.43-19.68,8.22-27.65-3.19-.6-6.38-.6-9.57,0l-15.41,8.88c-2.7-2.38-5.78-4.5-9.26-6.34-8.87-4.68-19.78-7.03-32.74-7.03-13.95,0-26.21,2.64-36.77,7.92-10.57,5.28-19.48,12.36-26.76,21.23-7.28,8.87-12.76,18.89-16.44,30.05-3.69,11.16-5.53,22.72-5.53,34.68,0,16.94,3.63,29.95,10.91,39.02,7.27,9.07,17.29,13.6,30.05,13.6,10.76,0,20.58-2.99,29.45-8.97,6.5-4.38,12.37-9.84,17.64-16.36-.05,5.5,1.08,10.51,3.43,15.02,3.59,6.88,10.56,10.31,20.93,10.31,9.37,0,18.13-2.79,26.31-8.37,8.17-5.58,15.05-12.75,20.63-21.53-1.4-1.39-2.84-2.54-4.34-3.44ZM317.43,442.66c-5.28,4.98-11.02,7.47-17.19,7.47-5.78,0-10.17-2.49-13.15-7.47-2.99-4.98-4.48-12.16-4.48-21.53,0-8.17,1.09-17.04,3.29-26.61,2.19-9.57,5.33-18.69,9.42-27.36,4.08-8.67,8.82-15.79,14.2-21.38,5.38-5.58,11.26-8.37,17.64-8.37s10.66,2.84,12.86,8.52c2.19,5.68,3.29,13.21,3.29,22.57s-1.05,18.54-3.14,28.1-5.08,18.39-8.97,26.46-8.47,14.6-13.75,19.58Z"/>
  </g>
</svg>