<?xml version="1.0" encoding="UTF-8"?>
<svg id="Layer_1" xmlns="http://www.w3.org/2000/svg" version="1.1" viewBox="0 0 500 500">
  <!-- Generator: Adobe Illustrator 30.1.0, SVG Export Plug-In . SVG Version: 2.1.1 Build 136)  -->
  <defs>
    <style>
      .st0, .st1, .st2, .st3, .st4, .st5, .st6, .st7, .st8, .st9, .st10 {
        stroke: #000;
      }

      .st0, .st1, .st2, .st3, .st4, .st5, .st6, .st7, .st8, .st10 {
        fill: none;
        stroke-miterlimit: 10;
      }

      .st0, .st9 {
        stroke-width: 2px;
      }

      .st1 {
        stroke-width: 10px;
      }

      .st2 {
        stroke-width: 7.33px;
      }

      .st3 {
        stroke-width: 9.11px;
      }

      .st4 {
        stroke-width: 5.56px;
      }

      .st5 {
        stroke-width: 8.22px;
      }

      .st6 {
        stroke-width: 6.44px;
      }

      .st7 {
        stroke-width: 3.78px;
      }

      .st8 {
        stroke-width: 4.67px;
      }

      .st9 {
        fill: #fdfbf6;
      }

      .st10 {
        stroke-width: 2.89px;
      }
    </style>
  </defs>
  <g>
    <line class="st1" x1="35.43" y1="226.48" x2="456.02" y2="226.48"/>
    <line class="st3" x1="35.43" y1="251.33" x2="456.02" y2="251.33"/>
    <line class="st5" x1="35.43" y1="276.18" x2="456.02" y2="276.18"/>
    <line class="st2" x1="35.43" y1="301.03" x2="456.02" y2="301.03"/>
    <line class="st6" x1="35.43" y1="325.88" x2="456.02" y2="325.88"/>
    <line class="st4" x1="35.43" y1="350.73" x2="456.02" y2="350.73"/>
    <line class="st8" x1="35.43" y1="375.58" x2="456.02" y2="375.58"/>
    <line class="st7" x1="35.43" y1="400.43" x2="456.02" y2="400.43"/>
    <line class="st10" x1="35.43" y1="425.28" x2="456.02" y2="425.28"/>
    <line class="st0" x1="35.43" y1="450.14" x2="456.02" y2="450.14"/>
  </g>
  <g>
    <path class="st9" d="M171.39,172.04l-10.69-29.09c-45.41,14.19-84.27,52.01-84.27,110.36,0,29.78,14.26,47.25,36.1,47.25,24.89,0,40.58-19.09,40.58-40.12,0-19.43-14.89-30.75-34.95-30.75-.9,0-1.82.06-2.73.17.64-16.02,20.28-44.42,55.95-57.82h0Z"/>
    <path class="st9" d="M225.25,229.68c-.9,0-1.81.06-2.73.17.64-16.02,20.28-44.42,55.95-57.82l-10.69-29.09c-45.41,14.19-84.27,52.01-84.27,110.36,0,29.78,14.26,47.25,36.1,47.25,24.89,0,40.59-19.09,40.59-40.12,0-19.43-14.89-30.75-34.95-30.75h0Z"/>
  </g>
</svg>