<?xml version="1.0" encoding="UTF-8"?>
<svg id="Layer_1" data-name="Layer 1" xmlns="http://www.w3.org/2000/svg" xmlns:xlink="http://www.w3.org/1999/xlink" viewBox="0 0 500 500">
  <defs>
    <style>
      .cls-1 {
        fill: url(#linear-gradient);
      }

      .cls-2, .cls-3, .cls-4, .cls-5, .cls-6, .cls-7, .cls-8, .cls-9, .cls-10, .cls-11, .cls-12 {
        stroke: #000;
      }

      .cls-2, .cls-3, .cls-5, .cls-6, .cls-7, .cls-8, .cls-9, .cls-10, .cls-11, .cls-12 {
        fill: none;
        stroke-miterlimit: 10;
      }

      .cls-2, .cls-4 {
        stroke-width: 2px;
      }

      .cls-3 {
        stroke-width: 10px;
      }

      .cls-4 {
        fill: #fff;
      }

      .cls-5 {
        stroke-width: 7.33px;
      }

      .cls-6 {
        stroke-width: 9.11px;
      }

      .cls-7 {
        stroke-width: 5.56px;
      }

      .cls-8 {
        stroke-width: 8.22px;
      }

      .cls-9 {
        stroke-width: 6.44px;
      }

      .cls-10 {
        stroke-width: 3.78px;
      }

      .cls-11 {
        stroke-width: 4.67px;
      }

      .cls-12 {
        stroke-width: 2.89px;
      }
    </style>
    <linearGradient id="linear-gradient" x1="245.72" y1="207.07" x2="245.72" y2="416" gradientUnits="userSpaceOnUse">
      <stop offset="0" stop-color="#fff33b"/>
      <stop offset=".04" stop-color="#fee62d"/>
      <stop offset=".12" stop-color="#fdd51b"/>
      <stop offset=".2" stop-color="#fdca0f"/>
      <stop offset=".28" stop-color="#fdc70c"/>
      <stop offset=".67" stop-color="#f3903f"/>
      <stop offset=".89" stop-color="#ed683c"/>
      <stop offset="1" stop-color="#e93e3a"/>
    </linearGradient>
  </defs>
  <rect class="cls-1" x="35.43" y="226.48" width="420.59" height="223.66"/>
  <g>
    <line class="cls-3" x1="35.43" y1="226.48" x2="456.02" y2="226.48"/>
    <line class="cls-6" x1="35.43" y1="251.33" x2="456.02" y2="251.33"/>
    <line class="cls-8" x1="35.43" y1="276.18" x2="456.02" y2="276.18"/>
    <line class="cls-5" x1="35.43" y1="301.03" x2="456.02" y2="301.03"/>
    <line class="cls-9" x1="35.43" y1="325.88" x2="456.02" y2="325.88"/>
    <line class="cls-7" x1="35.43" y1="350.73" x2="456.02" y2="350.73"/>
    <line class="cls-11" x1="35.43" y1="375.58" x2="456.02" y2="375.58"/>
    <line class="cls-10" x1="35.43" y1="400.43" x2="456.02" y2="400.43"/>
    <line class="cls-12" x1="35.43" y1="425.28" x2="456.02" y2="425.28"/>
    <line class="cls-2" x1="35.43" y1="450.14" x2="456.02" y2="450.14"/>
  </g>
  <g>
    <path class="cls-4" d="M171.39,172.04l-10.69-29.09c-45.41,14.19-84.27,52.01-84.27,110.36,0,29.78,14.26,47.25,36.1,47.25,24.89,0,40.58-19.09,40.58-40.12,0-19.43-14.89-30.75-34.95-30.75-.9,0-1.82.06-2.73.17.64-16.02,20.28-44.42,55.95-57.82Z"/>
    <path class="cls-4" d="M225.25,229.68c-.9,0-1.81.06-2.73.17.64-16.02,20.28-44.42,55.95-57.82l-10.69-29.09c-45.41,14.19-84.27,52.01-84.27,110.36,0,29.78,14.26,47.25,36.1,47.25,24.89,0,40.59-19.09,40.59-40.12,0-19.43-14.89-30.75-34.95-30.75Z"/>
  </g>
</svg>