<?xml version="1.0" encoding="UTF-8"?>
<svg id="Layer_1" data-name="Layer 1" xmlns="http://www.w3.org/2000/svg" viewBox="0 0 500 500">
  <defs>
    <style>
      .cls-1 {
        fill-rule: evenodd;
      }

      .cls-2 {
        fill: #fff;
        stroke-width: 2px;
      }

      .cls-2, .cls-3 {
        stroke: #000;
      }

      .cls-3 {
        fill: none;
        stroke-miterlimit: 10;
        stroke-width: 5px;
      }
    </style>
  </defs>
  <rect class="cls-3" x="49.22" y="161.6" width="401.56" height="276.59"/>
  <rect x="20.93" y="151.79" width="458.14" height="11.98"/>
  <rect class="cls-2" x="90.71" y="325.06" width="28.79" height="79.49"/>
  <rect class="cls-2" x="141.08" y="271.75" width="28.79" height="132.8"/>
  <rect class="cls-2" x="191.45" y="224.56" width="28.79" height="180"/>
  <path d="M339.27,244.02c-43.63,0-79.04,35.41-79.04,79.04s34.25,77.83,76.88,78.98c.7.07,1.44.06,2.16.06s1.46,0,2.16-.06c42.63-1.15,76.88-36.07,76.88-78.98s-35.41-79.04-79.04-79.04h0ZM337.3,248.15v33.41h-27.6c1.4-4.39,3.03-8.5,4.82-12.16,6.14-12.62,14.24-20.21,22.79-21.24h0ZM341.25,248.15c8.54,1.03,16.64,8.62,22.79,21.24,1.79,3.67,3.42,7.77,4.82,12.16h-27.6v-33.41ZM324.76,249.39c-5.33,4.14-10.03,10.47-13.83,18.28-2.05,4.19-3.84,8.88-5.37,13.89h-28.84c10.89-16.39,28.03-28.25,48.04-32.17h0ZM353.79,249.39c20.01,3.92,37.15,15.78,48.04,32.17h-28.84c-1.54-5.02-3.33-9.7-5.37-13.89-3.81-7.81-8.5-14.14-13.83-18.28h0ZM274.25,285.51h30.13c-2.84,10.64-4.42,22.72-4.57,35.57h-35.57c.34-12.94,3.92-25.06,10-35.57ZM308.59,285.51h28.71v35.57h-33.53c.16-12.94,1.9-25.06,4.82-35.57h0ZM341.25,285.51h28.71c2.92,10.51,4.65,22.63,4.82,35.57h-33.53v-35.57ZM374.16,285.51h30.13c6.08,10.51,9.66,22.62,10,35.57h-35.57c-.15-12.84-1.73-24.93-4.57-35.57ZM264.25,325.03h35.57c.15,12.84,1.73,24.95,4.57,35.57h-30.13c-6.07-10.51-9.67-22.63-10-35.57ZM303.77,325.03h33.53v35.57h-28.71c-2.92-10.5-4.65-22.63-4.82-35.57h0ZM341.25,325.03h33.53c-.16,12.94-1.9,25.07-4.82,35.57h-28.71v-35.57ZM378.73,325.03h35.57c-.33,12.94-3.93,25.06-10,35.57h-30.13c2.84-10.62,4.42-22.72,4.57-35.57ZM276.72,364.55h28.84c1.54,5.01,3.33,9.64,5.37,13.83,3.83,7.87,8.58,14.25,13.96,18.4-20.07-3.89-37.25-15.81-48.16-32.23h0ZM309.7,364.55h27.6v33.47c-8.54-1.04-16.64-8.75-22.79-21.36-1.79-3.67-3.42-7.71-4.82-12.1h0ZM341.25,364.55h27.6c-1.4,4.39-3.03,8.44-4.82,12.1-6.14,12.62-14.24,20.32-22.79,21.36v-33.47ZM372.99,364.55h28.84c-10.91,16.43-28.1,28.34-48.16,32.23,5.38-4.15,10.13-10.54,13.96-18.4,2.05-4.19,3.84-8.82,5.37-13.83h0Z"/>
  <path class="cls-1" d="M154.65,201.95l6.74,8.79c-40.02,2.99-60.43,52.81-68.31,86.35,12.45-36.26,31.02-70.89,70.07-75.3l-1.52,9.45,24.19-19.89-31.17-9.41Z"/>
</svg>