<?xml version="1.0" encoding="UTF-8"?>
<svg id="Layer_1" data-name="Layer 1" xmlns="http://www.w3.org/2000/svg" xmlns:xlink="http://www.w3.org/1999/xlink" viewBox="0 0 500 500">
  <defs>
    <style>
      .cls-1 {
        fill: url(#linear-gradient-5);
      }

      .cls-2 {
        fill: url(#linear-gradient-4);
      }

      .cls-3 {
        fill: url(#linear-gradient-3);
      }

      .cls-4 {
        fill: url(#linear-gradient-2);
      }

      .cls-5 {
        fill: url(#linear-gradient);
      }

      .cls-6 {
        fill: none;
        stroke: #000;
        stroke-miterlimit: 10;
        stroke-width: 3px;
      }
    </style>
    <linearGradient id="linear-gradient" x1="180.93" y1="77.81" x2="180.93" y2="400.84" gradientTransform="translate(39.9 -37.49) rotate(13.28)" gradientUnits="userSpaceOnUse">
      <stop offset="0" stop-color="#fff33b"/>
      <stop offset=".04" stop-color="#fee62d"/>
      <stop offset=".12" stop-color="#fdd51b"/>
      <stop offset=".2" stop-color="#fdca0f"/>
      <stop offset=".28" stop-color="#fdc70c"/>
      <stop offset=".67" stop-color="#f3903f"/>
      <stop offset=".89" stop-color="#ed683c"/>
      <stop offset="1" stop-color="#e93e3a"/>
    </linearGradient>
    <linearGradient id="linear-gradient-2" x1="154.06" y1="77.81" x2="154.06" y2="400.84" gradientTransform="translate(37.26 -18.88) rotate(7.97)" xlink:href="#linear-gradient"/>
    <linearGradient id="linear-gradient-3" x1="190.44" y1="77.81" x2="190.44" y2="400.84" gradientTransform="translate(530.6 129.87) rotate(81.88)" xlink:href="#linear-gradient"/>
    <linearGradient id="linear-gradient-4" x1="350.9" y1="77.81" x2="350.9" y2="400.84" gradientTransform="translate(614.64 -64.06) rotate(72.63)" xlink:href="#linear-gradient"/>
    <linearGradient id="linear-gradient-5" x1="306.72" y1="77.81" x2="306.72" y2="400.84" gradientTransform="matrix(1,0,0,1,0,0)" xlink:href="#linear-gradient"/>
  </defs>
  <g>
    <circle class="cls-5" cx="180.93" cy="152.61" r="52.36" transform="translate(-30.22 45.65) rotate(-13.28)"/>
    <circle class="cls-4" cx="154.06" cy="257.9" r="29" transform="translate(-34.28 23.86) rotate(-7.97)"/>
    <circle class="cls-3" cx="190.44" cy="370.77" r="70.16" transform="translate(-203.51 506.94) rotate(-81.88)"/>
    <circle class="cls-2" cx="350.9" cy="386.13" r="52.89" transform="translate(-122.39 605.73) rotate(-72.63)"/>
    <circle class="cls-1" cx="306.72" cy="233.1" r="70"/>
  </g>
  <path d="M180.64,97.25c-30.38,0-55.07,24.69-55.07,55.07s24.69,55.07,55.07,55.07,55.06-24.69,55.06-55.07-24.68-55.07-55.06-55.07ZM180.64,102.67c27.45,0,49.64,22.19,49.64,49.64s-22.19,49.64-49.64,49.64-49.65-22.19-49.65-49.64,22.2-49.64,49.65-49.64ZM306.73,160.29c-40.33,0-73.07,32.76-73.07,73.09s32.75,73.07,73.07,73.07,73.07-32.75,73.07-73.07-32.75-73.09-73.07-73.09ZM306.73,165.71c37.4,0,67.65,30.27,67.65,67.67s-30.26,67.65-67.65,67.65-67.66-30.26-67.66-67.65,30.26-67.67,67.66-67.67ZM154.73,224.46c-17.94,0-32.53,14.62-32.53,32.56s14.59,32.53,32.53,32.53,32.56-14.59,32.56-32.53-14.62-32.56-32.56-32.56ZM154.73,229.87c15.01,0,27.14,12.13,27.14,27.14s-12.13,27.11-27.14,27.11-27.11-12.1-27.11-27.11,12.1-27.14,27.11-27.14ZM190.77,297.65c-40.33,0-73.07,32.75-73.07,73.07s32.75,73.09,73.07,73.09,73.07-32.76,73.07-73.09-32.75-73.07-73.07-73.07ZM190.77,303.07c37.4,0,67.66,30.26,67.66,67.66s-30.26,67.67-67.66,67.67-67.66-30.27-67.66-67.67,30.26-67.66,67.66-67.66ZM351.29,330.89c-30.38,0-55.07,24.69-55.07,55.07s24.69,55.06,55.07,55.06,55.07-24.68,55.07-55.06-24.69-55.07-55.07-55.07ZM351.29,336.3c27.45,0,49.64,22.2,49.64,49.65s-22.19,49.64-49.64,49.64-49.64-22.19-49.64-49.64,22.19-49.65,49.64-49.65Z"/>
  <polyline class="cls-6" points="179.3 155.84 107.51 84.04 43.14 84.04"/>
  <polyline class="cls-6" points="306.72 237.1 387.99 155.84 454.47 155.84"/>
  <line class="cls-6" x1="146.59" y1="257" x2="43.14" y2="257"/>
  <line class="cls-6" x1="190.77" y1="376.82" x2="190.77" y2="480.19"/>
  <polyline class="cls-6" points="347.54 385.95 415.52 453.93 454.47 453.93"/>
  <rect x="12.73" y="75.04" width="57.03" height="18.06"/>
  <rect x="12.73" y="247.97" width="57.03" height="18.06"/>
  <rect x="162.25" y="466.59" width="57.03" height="18.06"/>
  <rect x="431.24" y="444.9" width="57.03" height="18.06"/>
  <rect x="431.24" y="146.81" width="57.03" height="18.06"/>
</svg>