<?xml version="1.0" encoding="UTF-8"?>
<svg id="Layer_1" data-name="Layer 1" xmlns="http://www.w3.org/2000/svg" viewBox="0 0 500 500">
  <defs>
    <style>
      .cls-1 {
        fill: none;
        stroke: #000;
        stroke-miterlimit: 10;
        stroke-width: 3px;
      }
    </style>
  </defs>
  <path d="M180.64,97.25c-30.38,0-55.07,24.69-55.07,55.07s24.69,55.07,55.07,55.07,55.06-24.69,55.06-55.07-24.68-55.07-55.06-55.07ZM180.64,102.67c27.45,0,49.64,22.19,49.64,49.64s-22.19,49.64-49.64,49.64-49.65-22.19-49.65-49.64,22.2-49.64,49.65-49.64ZM306.73,160.29c-40.33,0-73.07,32.76-73.07,73.09s32.75,73.07,73.07,73.07,73.07-32.75,73.07-73.07-32.75-73.09-73.07-73.09ZM306.73,165.71c37.4,0,67.65,30.27,67.65,67.67s-30.26,67.65-67.65,67.65-67.66-30.26-67.66-67.65,30.26-67.67,67.66-67.67ZM154.73,224.46c-17.94,0-32.53,14.62-32.53,32.56s14.59,32.53,32.53,32.53,32.56-14.59,32.56-32.53-14.62-32.56-32.56-32.56ZM154.73,229.87c15.01,0,27.14,12.13,27.14,27.14s-12.13,27.11-27.14,27.11-27.11-12.1-27.11-27.11,12.1-27.14,27.11-27.14ZM190.77,297.65c-40.33,0-73.07,32.75-73.07,73.07s32.75,73.09,73.07,73.09,73.07-32.76,73.07-73.09-32.75-73.07-73.07-73.07ZM190.77,303.07c37.4,0,67.66,30.26,67.66,67.66s-30.26,67.67-67.66,67.67-67.66-30.27-67.66-67.67,30.26-67.66,67.66-67.66ZM351.29,330.89c-30.38,0-55.07,24.69-55.07,55.07s24.69,55.06,55.07,55.06,55.07-24.68,55.07-55.06-24.69-55.07-55.07-55.07ZM351.29,336.3c27.45,0,49.64,22.2,49.64,49.65s-22.19,49.64-49.64,49.64-49.64-22.19-49.64-49.64,22.19-49.65,49.64-49.65Z"/>
  <polyline class="cls-1" points="179.3 155.84 107.51 84.04 43.14 84.04"/>
  <polyline class="cls-1" points="306.72 237.1 387.99 155.84 454.47 155.84"/>
  <line class="cls-1" x1="146.59" y1="257" x2="43.14" y2="257"/>
  <line class="cls-1" x1="190.77" y1="376.82" x2="190.77" y2="480.19"/>
  <polyline class="cls-1" points="347.54 385.95 415.52 453.93 454.47 453.93"/>
  <rect x="12.73" y="75.04" width="57.03" height="18.06"/>
  <rect x="12.73" y="247.97" width="57.03" height="18.06"/>
  <rect x="162.25" y="466.59" width="57.03" height="18.06"/>
  <rect x="431.24" y="444.9" width="57.03" height="18.06"/>
  <rect x="431.24" y="146.81" width="57.03" height="18.06"/>
</svg>