<?xml version="1.0" encoding="UTF-8"?>
<svg id="Layer_1" xmlns="http://www.w3.org/2000/svg" version="1.1" viewBox="0 0 428 79.49">
  <!-- Generator: Adobe Illustrator 30.3.0, SVG Export Plug-In . SVG Version: 2.1.3 Build 182)  -->
  <defs>
    <style>
      .st0 {
        fill: #49833d;
      }

      .st1 {
        fill: #fff;
      }

      .st2 {
        fill: #ffd248;
      }
    </style>
  </defs>
  <g>
    <path class="st0" d="M91.33,28.69c-.45-.61-1.04-1.06-1.76-1.34-.72-.28-1.43-.42-2.13-.42-.89,0-1.69.16-2.42.48-.72.32-1.35.77-1.87,1.33-.52.56-.93,1.22-1.21,1.98-.28.76-.42,1.58-.42,2.46,0,.93.14,1.79.41,2.56s.66,1.44,1.17,1.99c.51.56,1.12.99,1.82,1.29.71.31,1.51.46,2.39.46s1.73-.18,2.44-.54c.71-.36,1.28-.84,1.71-1.44l2.44,1.71c-.76.95-1.68,1.69-2.78,2.21-1.1.52-2.38.78-3.84.78-1.34,0-2.56-.22-3.68-.66s-2.08-1.06-2.89-1.86c-.81-.8-1.43-1.75-1.88-2.85-.45-1.1-.68-2.32-.68-3.66s.24-2.6.71-3.71c.47-1.1,1.13-2.04,1.96-2.81.83-.77,1.81-1.37,2.94-1.79,1.13-.42,2.35-.63,3.67-.63.55,0,1.12.05,1.72.16.6.1,1.17.27,1.71.48.55.22,1.06.49,1.55.81.48.32.89.71,1.23,1.16l-2.32,1.84Z"/>
    <path class="st0" d="M95.8,24.68h11.33v2.66h-8.29v4.35h7.85v2.56h-7.85v4.83h8.72v2.71h-11.76v-17.1Z"/>
    <path class="st0" d="M110.54,24.68h4.03l7.95,12.8h.05v-12.8h3.04v17.1h-3.86l-8.12-13.21h-.05v13.21h-3.04v-17.1Z"/>
    <path class="st0" d="M132.83,27.34h-5.24v-2.66h13.53v2.66h-5.24v14.44h-3.04v-14.44Z"/>
    <path class="st0" d="M143.1,24.68h5.94c.81,0,1.59.08,2.34.25.76.17,1.43.45,2.02.83.59.39,1.06.89,1.41,1.52.35.63.53,1.39.53,2.29,0,1.24-.35,2.25-1.05,3.03-.7.78-1.65,1.31-2.86,1.58l4.57,7.58h-3.67l-3.96-7.25h-2.22v7.25h-3.04v-17.1ZM148.63,32.05c.44,0,.87-.03,1.3-.1.43-.06.83-.19,1.17-.36.35-.18.63-.43.86-.76.23-.33.34-.75.34-1.27,0-.47-.1-.85-.31-1.15-.21-.3-.48-.54-.8-.71s-.69-.3-1.1-.36-.81-.1-1.2-.1h-2.75v4.81h2.49Z"/>
    <path class="st0" d="M163.65,24.68h2.63l7.37,17.1h-3.48l-1.59-3.91h-7.42l-1.55,3.91h-3.41l7.44-17.1ZM167.52,35.26l-2.63-6.96-2.68,6.96h5.31Z"/>
    <path class="st0" d="M175.34,24.68h3.04v14.4h7.27v2.71h-10.31v-17.1Z"/>
    <path class="st0" d="M190.59,24.68h3.41l4.71,13.16h.1l4.76-13.16h3.29l-6.86,17.1h-2.63l-6.76-17.1Z"/>
    <path class="st0" d="M208.49,24.68h11.33v2.66h-8.29v4.35h7.85v2.56h-7.85v4.83h8.72v2.71h-11.76v-17.1Z"/>
    <path class="st0" d="M223.22,24.68h5.94c.81,0,1.59.08,2.34.25.76.17,1.43.45,2.02.83.59.39,1.06.89,1.41,1.52.35.63.53,1.39.53,2.29,0,1.24-.35,2.25-1.05,3.03-.7.78-1.65,1.31-2.86,1.58l4.57,7.58h-3.67l-3.96-7.25h-2.22v7.25h-3.04v-17.1ZM228.75,32.05c.43,0,.87-.03,1.3-.1.44-.06.83-.19,1.17-.36.35-.18.63-.43.86-.76.23-.33.34-.75.34-1.27,0-.47-.1-.85-.31-1.15-.21-.3-.48-.54-.8-.71-.32-.18-.69-.3-1.1-.36-.41-.06-.81-.1-1.2-.1h-2.75v4.81h2.49Z"/>
    <path class="st0" d="M238.56,24.68h4.76l4.44,12.15h.07l4.4-12.15h4.78v17.1h-3.02v-13.74h-.05l-5.19,13.74h-2.13l-5.12-13.74h-.05v13.74h-2.9v-17.1Z"/>
    <path class="st0" d="M260.1,33.19c0-1.37.23-2.6.69-3.71s1.1-2.04,1.91-2.81c.81-.77,1.78-1.37,2.9-1.79,1.12-.42,2.34-.63,3.66-.63s2.57.21,3.7.63c1.13.42,2.1,1.01,2.92,1.79.82.77,1.46,1.71,1.92,2.81s.69,2.34.69,3.71-.23,2.56-.69,3.66c-.46,1.1-1.1,2.05-1.92,2.85-.82.8-1.79,1.42-2.92,1.86-1.13.44-2.36.66-3.7.66s-2.54-.22-3.66-.66c-1.12-.44-2.09-1.06-2.9-1.86-.81-.8-1.45-1.75-1.91-2.85-.46-1.1-.69-2.32-.69-3.66ZM263.41,33.19c0,.92.14,1.76.42,2.52.28.77.68,1.43,1.21,1.99.52.56,1.14,1,1.86,1.32s1.51.47,2.38.47,1.67-.16,2.39-.47c.72-.31,1.35-.75,1.87-1.32.52-.56.93-1.23,1.21-1.99.28-.76.42-1.61.42-2.52s-.14-1.71-.42-2.46c-.28-.76-.68-1.42-1.2-1.98-.52-.56-1.14-1.01-1.86-1.33-.72-.32-1.53-.48-2.42-.48s-1.69.16-2.4.48c-.72.32-1.33.77-1.85,1.33-.52.56-.91,1.22-1.2,1.98-.28.76-.42,1.58-.42,2.46Z"/>
    <path class="st0" d="M281.46,24.68h4.03l7.95,12.8h.05v-12.8h3.04v17.1h-3.87l-8.12-13.21h-.05v13.21h-3.04v-17.1Z"/>
    <path class="st0" d="M303.75,27.34h-5.24v-2.66h13.53v2.66h-5.24v14.44h-3.04v-14.44Z"/>
    <path class="st0" d="M78.99,51.16h5.94c.81,0,1.59.08,2.34.25.76.17,1.43.45,2.02.83.59.39,1.06.89,1.41,1.52.35.63.53,1.39.53,2.29,0,1.24-.35,2.25-1.05,3.03-.7.78-1.65,1.31-2.86,1.58l4.57,7.58h-3.67l-3.96-7.25h-2.22v7.25h-3.04v-17.1ZM84.52,58.53c.44,0,.87-.03,1.3-.1.43-.06.83-.19,1.17-.36.35-.18.63-.43.86-.76.23-.33.34-.75.34-1.27,0-.47-.1-.85-.31-1.15-.21-.3-.48-.54-.8-.71s-.69-.3-1.1-.36-.81-.1-1.2-.1h-2.75v4.81h2.49Z"/>
    <path class="st0" d="M94.18,51.16h11.33v2.66h-8.29v4.35h7.85v2.56h-7.85v4.83h8.72v2.71h-11.76v-17.1Z"/>
    <path class="st0" d="M108.92,51.16h11.04v2.66h-8v4.69h7.54v2.56h-7.54v7.2h-3.04v-17.1Z"/>
    <path class="st0" d="M136.38,61.98c0,1.03-.18,1.96-.53,2.79-.35.83-.84,1.53-1.45,2.11s-1.34,1.03-2.17,1.34-1.75.47-2.73.47-1.89-.16-2.73-.47c-.84-.31-1.57-.76-2.19-1.34-.62-.58-1.1-1.28-1.45-2.11s-.52-1.76-.52-2.79v-10.82h3.04v10.7c0,.5.06.99.19,1.49s.34.93.64,1.32c.3.39.69.7,1.18.94.49.24,1.1.36,1.82.36s1.33-.12,1.82-.36c.49-.24.89-.56,1.18-.94.3-.39.51-.83.64-1.32s.19-.99.19-1.49v-10.7h3.04v10.82Z"/>
    <path class="st0" d="M154.98,67.37c-.87.42-1.82.74-2.86.98s-2.23.35-3.59.35-2.65-.22-3.79-.66c-1.14-.44-2.13-1.06-2.95-1.86-.82-.8-1.46-1.75-1.92-2.85-.46-1.1-.69-2.32-.69-3.66s.24-2.6.71-3.71c.47-1.1,1.13-2.04,1.96-2.81.83-.77,1.81-1.37,2.94-1.79,1.13-.42,2.35-.63,3.67-.63s2.62.2,3.76.59c1.14.4,2.05.91,2.74,1.56l-2.1,2.27c-.43-.48-1.04-.89-1.82-1.23-.78-.34-1.63-.51-2.55-.51s-1.72.16-2.45.48c-.73.32-1.36.77-1.87,1.33-.52.56-.91,1.22-1.2,1.98-.28.76-.42,1.58-.42,2.46s.14,1.76.42,2.52c.28.77.68,1.43,1.21,1.99.52.56,1.16,1,1.91,1.32.75.31,1.6.47,2.55.47,1.3,0,2.44-.2,3.41-.6v-4.35h-3.6v-2.51h6.55v8.87Z"/>
    <path class="st0" d="M158.68,51.16h11.33v2.66h-8.29v4.35h7.85v2.56h-7.85v4.83h8.72v2.71h-11.76v-17.1Z"/>
    <path class="st0" d="M173.41,51.16h11.33v2.66h-8.29v4.35h7.85v2.56h-7.85v4.83h8.72v2.71h-11.76v-17.1Z"/>
    <path class="st0" d="M199.11,51.16h2.63l7.37,17.1h-3.48l-1.59-3.91h-7.42l-1.55,3.91h-3.41l7.44-17.1ZM202.98,61.74l-2.63-6.96-2.68,6.96h5.31Z"/>
    <path class="st0" d="M222.71,55.17c-.45-.61-1.04-1.06-1.76-1.34-.72-.28-1.43-.42-2.12-.42-.89,0-1.69.16-2.42.48-.72.32-1.35.77-1.87,1.33-.52.56-.93,1.22-1.21,1.98-.28.76-.42,1.58-.42,2.46,0,.93.14,1.79.41,2.56s.66,1.44,1.17,1.99c.51.56,1.11.99,1.82,1.29.71.31,1.51.46,2.39.46s1.73-.18,2.44-.54,1.28-.84,1.71-1.44l2.44,1.71c-.76.95-1.68,1.69-2.78,2.21-1.09.52-2.38.78-3.84.78-1.34,0-2.56-.22-3.68-.66s-2.08-1.06-2.89-1.86c-.81-.8-1.43-1.75-1.88-2.85-.45-1.1-.68-2.32-.68-3.66s.24-2.6.71-3.71c.47-1.1,1.13-2.04,1.96-2.81.83-.77,1.81-1.37,2.94-1.79,1.13-.42,2.35-.63,3.67-.63.55,0,1.12.05,1.71.16.6.1,1.17.27,1.71.48.55.22,1.06.49,1.55.81s.89.71,1.23,1.16l-2.32,1.84Z"/>
    <path class="st0" d="M231.14,53.82h-5.24v-2.66h13.53v2.66h-5.24v14.44h-3.04v-14.44Z"/>
    <path class="st0" d="M241.41,51.16h3.04v17.1h-3.04v-17.1Z"/>
    <path class="st0" d="M247.4,59.66c0-1.37.23-2.6.69-3.71s1.1-2.04,1.91-2.81c.81-.77,1.78-1.37,2.9-1.79,1.12-.42,2.34-.63,3.66-.63s2.57.21,3.7.63c1.13.42,2.1,1.01,2.92,1.79.82.77,1.46,1.71,1.92,2.81s.69,2.34.69,3.71-.23,2.56-.69,3.66c-.46,1.1-1.1,2.05-1.92,2.85-.82.8-1.79,1.42-2.92,1.86-1.13.44-2.36.66-3.7.66s-2.54-.22-3.66-.66c-1.12-.44-2.09-1.06-2.9-1.86-.81-.8-1.45-1.75-1.91-2.85-.46-1.1-.69-2.32-.69-3.66ZM250.71,59.66c0,.92.14,1.76.42,2.52.28.77.68,1.43,1.21,1.99.52.56,1.14,1,1.86,1.32s1.51.47,2.38.47,1.67-.16,2.39-.47c.72-.31,1.35-.75,1.87-1.32.52-.56.93-1.23,1.21-1.99.28-.76.42-1.61.42-2.52s-.14-1.71-.42-2.46c-.28-.76-.68-1.42-1.2-1.98-.52-.56-1.14-1.01-1.86-1.33-.72-.32-1.53-.48-2.42-.48s-1.69.16-2.4.48c-.72.32-1.33.77-1.85,1.33-.52.56-.91,1.22-1.2,1.98-.28.76-.42,1.58-.42,2.46Z"/>
    <path class="st0" d="M268.73,51.16h4.03l7.95,12.8h.05v-12.8h3.04v17.1h-3.87l-8.12-13.21h-.05v13.21h-3.04v-17.1Z"/>
    <path class="st0" d="M293.61,51.16h4.03l7.95,12.8h.05v-12.8h3.04v17.1h-3.87l-8.12-13.21h-.05v13.21h-3.04v-17.1Z"/>
    <path class="st0" d="M312.45,51.16h11.33v2.66h-8.29v4.35h7.85v2.56h-7.85v4.83h8.72v2.71h-11.76v-17.1Z"/>
    <path class="st0" d="M330.64,53.82h-5.24v-2.66h13.53v2.66h-5.24v14.44h-3.04v-14.44Z"/>
    <path class="st0" d="M339.16,51.16h3.33l3.31,12.56h.05l3.77-12.56h3.14l3.7,12.56h.05l3.38-12.56h3.24l-5,17.1h-2.95l-4.01-12.83h-.05l-4.01,12.83h-2.95l-5-17.1Z"/>
    <path class="st0" d="M364.04,59.66c0-1.37.23-2.6.69-3.71s1.1-2.04,1.91-2.81c.81-.77,1.78-1.37,2.9-1.79,1.12-.42,2.34-.63,3.66-.63s2.57.21,3.7.63c1.13.42,2.1,1.01,2.92,1.79.82.77,1.46,1.71,1.92,2.81s.69,2.34.69,3.71-.23,2.56-.69,3.66c-.46,1.1-1.1,2.05-1.92,2.85-.82.8-1.79,1.42-2.92,1.86-1.13.44-2.36.66-3.7.66s-2.54-.22-3.66-.66c-1.12-.44-2.09-1.06-2.9-1.86-.81-.8-1.45-1.75-1.91-2.85-.46-1.1-.69-2.32-.69-3.66ZM367.35,59.66c0,.92.14,1.76.42,2.52.28.77.68,1.43,1.21,1.99.52.56,1.14,1,1.86,1.32s1.51.47,2.38.47,1.67-.16,2.39-.47c.72-.31,1.35-.75,1.87-1.32.52-.56.93-1.23,1.21-1.99.28-.76.42-1.61.42-2.52s-.14-1.71-.42-2.46c-.28-.76-.68-1.42-1.2-1.98-.52-.56-1.14-1.01-1.86-1.33-.72-.32-1.53-.48-2.42-.48s-1.69.16-2.4.48c-.72.32-1.33.77-1.85,1.33-.52.56-.91,1.22-1.2,1.98-.28.76-.42,1.58-.42,2.46Z"/>
    <path class="st0" d="M385.37,51.16h5.94c.81,0,1.59.08,2.34.25.76.17,1.43.45,2.02.83.59.39,1.06.89,1.41,1.52.35.63.53,1.39.53,2.29,0,1.24-.35,2.25-1.05,3.03-.7.78-1.65,1.31-2.86,1.58l4.57,7.58h-3.67l-3.96-7.25h-2.22v7.25h-3.04v-17.1ZM390.91,58.53c.43,0,.87-.03,1.3-.1.44-.06.83-.19,1.17-.36.35-.18.63-.43.86-.76.23-.33.34-.75.34-1.27,0-.47-.1-.85-.31-1.15-.21-.3-.48-.54-.8-.71-.32-.18-.69-.3-1.1-.36-.41-.06-.81-.1-1.2-.1h-2.75v4.81h2.49Z"/>
    <path class="st0" d="M400.57,51.16h3.04v7.39h.07l7.15-7.39h4.11l-8,7.9,8.53,9.2h-4.28l-7.51-8.58h-.07v8.58h-3.04v-17.1Z"/>
  </g>
  <g>
    <path class="st1" d="M31,11.01H14.47v33.14l6.22-2.1c.11-1.97.55-3.95,1.36-5.87,3.79-8.99,14.15-13.2,23.14-9.41,2.62,1.1,4.83,2.77,6.55,4.79l10.5-3.55,1.01-.34.78.72,7.22,6.64V11.01H31Z"/>
    <path class="st2" d="M45.2,26.77c-8.99-3.79-19.35.42-23.14,9.41-.81,1.92-1.25,3.9-1.36,5.87l31.05-10.49c-1.73-2.02-3.94-3.68-6.55-4.79Z"/>
    <polygon class="st1" points="63.26 27.67 62.26 28.01 51.75 31.56 20.7 42.05 14.47 44.15 14.47 44.84 20.69 42.74 52.9 31.85 62.83 28.5 71.27 36.26 71.27 35.04 71.27 35.03 64.04 28.39 63.26 27.67"/>
    <path class="st0" d="M13.07,9.61v33.81s0,.95,0,.95v24.33h59.59V9.61H13.07ZM71.27,30.78v4.25h0v1.23l-8.44-7.76-9.93,3.35-32.21,10.88-6.22,2.1V11.01h56.79v19.77Z"/>
  </g>
</svg>