<?xml version="1.0" encoding="UTF-8"?>
<svg id="Layer_1" xmlns="http://www.w3.org/2000/svg" version="1.1" viewBox="0 0 428 79.49">
  <!-- Generator: Adobe Illustrator 30.3.0, SVG Export Plug-In . SVG Version: 2.1.3 Build 182)  -->
  <defs>
    <style>
      .st0 {
        fill: none;
      }

      .st1 {
        fill: #fff;
      }
    </style>
  </defs>
  <g>
    <path class="st1" d="M91.34,28.7c-.45-.61-1.04-1.06-1.76-1.34-.73-.28-1.43-.42-2.13-.42-.89,0-1.69.16-2.42.48-.73.32-1.35.77-1.87,1.33-.52.56-.93,1.22-1.21,1.98-.28.76-.42,1.58-.42,2.46,0,.93.14,1.79.41,2.56.27.77.66,1.44,1.17,1.99s1.12.99,1.82,1.29c.71.31,1.51.46,2.39.46s1.73-.18,2.44-.54c.71-.36,1.28-.84,1.72-1.44l2.44,1.72c-.76.95-1.68,1.69-2.78,2.21-1.1.52-2.38.79-3.84.79-1.34,0-2.56-.22-3.68-.66s-2.08-1.06-2.89-1.86c-.81-.8-1.43-1.75-1.88-2.85s-.68-2.32-.68-3.66.24-2.6.71-3.71c.47-1.1,1.13-2.04,1.96-2.81.83-.77,1.81-1.37,2.94-1.79,1.13-.42,2.35-.63,3.67-.63.55,0,1.12.05,1.72.16.6.1,1.17.27,1.71.48s1.06.49,1.55.81c.48.32.89.71,1.23,1.16l-2.32,1.84Z"/>
    <path class="st1" d="M95.81,24.69h11.33v2.66h-8.29v4.35h7.85v2.56h-7.85v4.83h8.72v2.71h-11.77v-17.1Z"/>
    <path class="st1" d="M110.55,24.69h4.03l7.95,12.8h.05v-12.8h3.04v17.1h-3.87l-8.12-13.21h-.05v13.21h-3.04v-17.1Z"/>
    <path class="st1" d="M132.85,27.34h-5.24v-2.66h13.53v2.66h-5.24v14.45h-3.04v-14.45Z"/>
    <path class="st1" d="M143.12,24.69h5.94c.81,0,1.59.08,2.34.25.76.17,1.43.45,2.02.83.59.39,1.06.89,1.41,1.52.35.63.53,1.39.53,2.3,0,1.24-.35,2.25-1.05,3.03-.7.78-1.65,1.31-2.86,1.58l4.57,7.59h-3.67l-3.96-7.25h-2.22v7.25h-3.04v-17.1ZM148.65,32.05c.43,0,.87-.03,1.3-.1.43-.06.83-.18,1.17-.36.35-.18.63-.43.86-.76.23-.33.34-.75.34-1.27,0-.47-.1-.85-.31-1.15-.21-.3-.48-.54-.8-.71-.32-.18-.69-.3-1.1-.36-.41-.06-.81-.1-1.2-.1h-2.75v4.81h2.49Z"/>
    <path class="st1" d="M163.68,24.69h2.63l7.37,17.1h-3.48l-1.59-3.91h-7.42l-1.55,3.91h-3.41l7.44-17.1ZM167.54,35.27l-2.63-6.96-2.68,6.96h5.31Z"/>
    <path class="st1" d="M175.37,24.69h3.04v14.4h7.27v2.71h-10.32v-17.1Z"/>
    <path class="st1" d="M190.61,24.69h3.41l4.71,13.17h.1l4.76-13.17h3.29l-6.86,17.1h-2.63l-6.76-17.1Z"/>
    <path class="st1" d="M208.52,24.69h11.33v2.66h-8.29v4.35h7.85v2.56h-7.85v4.83h8.72v2.71h-11.77v-17.1Z"/>
    <path class="st1" d="M223.25,24.69h5.94c.81,0,1.59.08,2.34.25s1.43.45,2.02.83,1.06.89,1.41,1.52c.35.63.53,1.39.53,2.3,0,1.24-.35,2.25-1.05,3.03-.7.78-1.65,1.31-2.86,1.58l4.57,7.59h-3.67l-3.96-7.25h-2.22v7.25h-3.04v-17.1ZM228.78,32.05c.43,0,.87-.03,1.3-.1.43-.06.83-.18,1.17-.36.35-.18.63-.43.86-.76s.34-.75.34-1.27c0-.47-.1-.85-.31-1.15-.21-.3-.48-.54-.8-.71-.32-.18-.69-.3-1.1-.36-.41-.06-.81-.1-1.2-.1h-2.75v4.81h2.49Z"/>
    <path class="st1" d="M238.59,24.69h4.76l4.45,12.15h.07l4.4-12.15h4.78v17.1h-3.02v-13.75h-.05l-5.19,13.75h-2.13l-5.12-13.75h-.05v13.75h-2.9v-17.1Z"/>
    <path class="st1" d="M260.14,33.19c0-1.37.23-2.6.69-3.71.46-1.1,1.09-2.04,1.91-2.81.81-.77,1.78-1.37,2.9-1.79,1.12-.42,2.34-.63,3.66-.63s2.57.21,3.7.63c1.13.42,2.1,1.01,2.92,1.79.82.77,1.46,1.71,1.92,2.81.46,1.1.69,2.34.69,3.71s-.23,2.56-.69,3.66-1.1,2.05-1.92,2.85-1.8,1.42-2.92,1.86c-1.13.44-2.36.66-3.7.66s-2.54-.22-3.66-.66c-1.12-.44-2.09-1.06-2.9-1.86s-1.45-1.75-1.91-2.85-.69-2.32-.69-3.66ZM263.45,33.19c0,.92.14,1.76.42,2.52.28.77.68,1.43,1.21,1.99.52.56,1.14,1,1.86,1.32.72.31,1.51.47,2.38.47s1.67-.16,2.39-.47c.72-.31,1.35-.75,1.87-1.32.52-.56.93-1.23,1.21-1.99.28-.76.42-1.61.42-2.52s-.14-1.71-.42-2.46c-.28-.76-.68-1.42-1.2-1.98-.52-.56-1.14-1.01-1.86-1.33s-1.53-.48-2.42-.48-1.69.16-2.4.48c-.72.32-1.33.77-1.85,1.33-.52.56-.91,1.22-1.2,1.98-.28.76-.42,1.58-.42,2.46Z"/>
    <path class="st1" d="M281.5,24.69h4.03l7.95,12.8h.05v-12.8h3.04v17.1h-3.87l-8.12-13.21h-.05v13.21h-3.04v-17.1Z"/>
    <path class="st1" d="M303.8,27.34h-5.24v-2.66h13.53v2.66h-5.24v14.45h-3.04v-14.45Z"/>
    <path class="st1" d="M79,51.17h5.94c.81,0,1.59.08,2.34.25.76.17,1.43.45,2.02.83.59.39,1.06.89,1.41,1.52.35.63.53,1.39.53,2.3,0,1.24-.35,2.25-1.05,3.03-.7.78-1.65,1.31-2.86,1.58l4.57,7.59h-3.67l-3.96-7.25h-2.22v7.25h-3.04v-17.1ZM84.53,58.54c.43,0,.87-.03,1.3-.1.43-.06.83-.18,1.17-.36.35-.18.63-.43.86-.76.23-.33.34-.75.34-1.27,0-.47-.1-.85-.31-1.15-.21-.3-.48-.54-.8-.71-.32-.18-.69-.3-1.1-.36-.41-.06-.81-.1-1.2-.1h-2.75v4.81h2.49Z"/>
    <path class="st1" d="M94.19,51.17h11.33v2.66h-8.29v4.35h7.85v2.56h-7.85v4.83h8.72v2.71h-11.77v-17.1Z"/>
    <path class="st1" d="M108.93,51.17h11.04v2.66h-8v4.69h7.54v2.56h-7.54v7.2h-3.04v-17.1Z"/>
    <path class="st1" d="M136.4,61.99c0,1.03-.18,1.96-.53,2.79-.35.83-.84,1.53-1.45,2.11-.61.58-1.34,1.03-2.17,1.34-.84.31-1.75.47-2.73.47s-1.89-.16-2.73-.47c-.84-.31-1.57-.76-2.19-1.34-.62-.58-1.1-1.28-1.45-2.11-.35-.83-.52-1.76-.52-2.79v-10.82h3.04v10.7c0,.5.06.99.19,1.49.13.49.34.93.64,1.32.3.39.69.7,1.18.94.49.24,1.1.36,1.82.36s1.33-.12,1.82-.36c.49-.24.89-.56,1.18-.94.3-.39.51-.83.64-1.32.13-.49.19-.99.19-1.49v-10.7h3.04v10.82Z"/>
    <path class="st1" d="M155,67.38c-.87.42-1.82.75-2.86.98-1.04.23-2.23.35-3.59.35s-2.65-.22-3.79-.66-2.13-1.06-2.95-1.86c-.82-.8-1.46-1.75-1.92-2.85s-.69-2.32-.69-3.66.24-2.6.71-3.71c.47-1.1,1.13-2.04,1.96-2.81.83-.77,1.81-1.37,2.94-1.79,1.13-.42,2.35-.63,3.67-.63s2.62.2,3.76.59c1.14.4,2.05.91,2.74,1.56l-2.1,2.27c-.44-.48-1.04-.89-1.82-1.23s-1.63-.51-2.55-.51-1.72.16-2.45.48-1.36.77-1.87,1.33c-.52.56-.91,1.22-1.2,1.98-.28.76-.42,1.58-.42,2.46s.14,1.76.42,2.52c.28.77.68,1.43,1.21,1.99.52.56,1.16,1,1.91,1.32s1.6.47,2.55.47c1.3,0,2.44-.2,3.41-.6v-4.35h-3.6v-2.51h6.55v8.87Z"/>
    <path class="st1" d="M158.7,51.17h11.33v2.66h-8.29v4.35h7.85v2.56h-7.85v4.83h8.72v2.71h-11.77v-17.1Z"/>
    <path class="st1" d="M173.44,51.17h11.33v2.66h-8.29v4.35h7.85v2.56h-7.85v4.83h8.72v2.71h-11.77v-17.1Z"/>
    <path class="st1" d="M199.14,51.17h2.63l7.37,17.1h-3.48l-1.59-3.91h-7.42l-1.55,3.91h-3.41l7.44-17.1ZM203.01,61.75l-2.63-6.96-2.68,6.96h5.31Z"/>
    <path class="st1" d="M222.74,55.18c-.45-.61-1.04-1.06-1.76-1.34-.72-.28-1.43-.42-2.13-.42-.89,0-1.69.16-2.42.48-.72.32-1.35.77-1.87,1.33-.52.56-.93,1.22-1.21,1.98-.28.76-.42,1.58-.42,2.46,0,.93.14,1.79.41,2.56.27.77.66,1.44,1.17,1.99s1.12.99,1.82,1.29c.71.31,1.51.46,2.39.46s1.73-.18,2.44-.54c.71-.36,1.28-.84,1.72-1.44l2.44,1.72c-.76.95-1.68,1.69-2.78,2.21-1.09.52-2.38.79-3.84.79-1.34,0-2.57-.22-3.68-.66-1.12-.44-2.08-1.06-2.89-1.86-.81-.8-1.43-1.75-1.88-2.85s-.68-2.32-.68-3.66.24-2.6.71-3.71c.47-1.1,1.13-2.04,1.96-2.81.83-.77,1.81-1.37,2.94-1.79,1.13-.42,2.35-.63,3.67-.63.55,0,1.12.05,1.72.16.6.1,1.17.27,1.71.48s1.06.49,1.55.81c.48.32.89.71,1.23,1.16l-2.32,1.84Z"/>
    <path class="st1" d="M231.18,53.83h-5.24v-2.66h13.53v2.66h-5.24v14.45h-3.04v-14.45Z"/>
    <path class="st1" d="M241.44,51.17h3.04v17.1h-3.04v-17.1Z"/>
    <path class="st1" d="M247.44,59.67c0-1.37.23-2.6.69-3.71.46-1.1,1.09-2.04,1.91-2.81.81-.77,1.78-1.37,2.9-1.79,1.12-.42,2.34-.63,3.66-.63s2.57.21,3.7.63c1.13.42,2.1,1.01,2.92,1.79.82.77,1.46,1.71,1.92,2.81.46,1.1.69,2.34.69,3.71s-.23,2.56-.69,3.66-1.1,2.05-1.92,2.85-1.8,1.42-2.92,1.86c-1.13.44-2.36.66-3.7.66s-2.54-.22-3.66-.66c-1.12-.44-2.09-1.06-2.9-1.86s-1.45-1.75-1.91-2.85-.69-2.32-.69-3.66ZM250.75,59.67c0,.92.14,1.76.42,2.52.28.77.68,1.43,1.21,1.99.52.56,1.14,1,1.86,1.32.72.31,1.51.47,2.38.47s1.67-.16,2.39-.47c.72-.31,1.35-.75,1.87-1.32.52-.56.93-1.23,1.21-1.99.28-.76.42-1.61.42-2.52s-.14-1.71-.42-2.46c-.28-.76-.68-1.42-1.2-1.98-.52-.56-1.14-1.01-1.86-1.33s-1.53-.48-2.42-.48-1.69.16-2.4.48c-.72.32-1.33.77-1.85,1.33-.52.56-.91,1.22-1.2,1.98-.28.76-.42,1.58-.42,2.46Z"/>
    <path class="st1" d="M268.77,51.17h4.03l7.95,12.8h.05v-12.8h3.04v17.1h-3.87l-8.12-13.21h-.05v13.21h-3.04v-17.1Z"/>
    <path class="st1" d="M293.65,51.17h4.03l7.95,12.8h.05v-12.8h3.04v17.1h-3.87l-8.12-13.21h-.05v13.21h-3.04v-17.1Z"/>
    <path class="st1" d="M312.5,51.17h11.33v2.66h-8.29v4.35h7.85v2.56h-7.85v4.83h8.72v2.71h-11.77v-17.1Z"/>
    <path class="st1" d="M330.69,53.83h-5.24v-2.66h13.53v2.66h-5.24v14.45h-3.04v-14.45Z"/>
    <path class="st1" d="M339.21,51.17h3.33l3.31,12.56h.05l3.77-12.56h3.14l3.7,12.56h.05l3.38-12.56h3.24l-5,17.1h-2.95l-4.01-12.83h-.05l-4.01,12.83h-2.95l-5-17.1Z"/>
    <path class="st1" d="M364.1,59.67c0-1.37.23-2.6.69-3.71.46-1.1,1.09-2.04,1.91-2.81.81-.77,1.78-1.37,2.9-1.79,1.12-.42,2.34-.63,3.66-.63s2.57.21,3.7.63c1.13.42,2.1,1.01,2.92,1.79.82.77,1.46,1.71,1.92,2.81.46,1.1.69,2.34.69,3.71s-.23,2.56-.69,3.66-1.1,2.05-1.92,2.85-1.8,1.42-2.92,1.86c-1.13.44-2.36.66-3.7.66s-2.54-.22-3.66-.66c-1.12-.44-2.09-1.06-2.9-1.86s-1.45-1.75-1.91-2.85-.69-2.32-.69-3.66ZM367.41,59.67c0,.92.14,1.76.42,2.52.28.77.68,1.43,1.21,1.99.52.56,1.14,1,1.86,1.32.72.31,1.51.47,2.38.47s1.67-.16,2.39-.47c.72-.31,1.35-.75,1.87-1.32.52-.56.93-1.23,1.21-1.99.28-.76.42-1.61.42-2.52s-.14-1.71-.42-2.46c-.28-.76-.68-1.42-1.2-1.98-.52-.56-1.14-1.01-1.86-1.33s-1.53-.48-2.42-.48-1.69.16-2.4.48c-.72.32-1.33.77-1.85,1.33-.52.56-.91,1.22-1.2,1.98-.28.76-.42,1.58-.42,2.46Z"/>
    <path class="st1" d="M385.43,51.17h5.94c.81,0,1.59.08,2.34.25s1.43.45,2.02.83,1.06.89,1.41,1.52c.35.63.53,1.39.53,2.3,0,1.24-.35,2.25-1.05,3.03-.7.78-1.65,1.31-2.86,1.58l4.57,7.59h-3.67l-3.96-7.25h-2.22v7.25h-3.04v-17.1ZM390.96,58.54c.43,0,.87-.03,1.3-.1.43-.06.83-.18,1.17-.36.35-.18.63-.43.86-.76s.34-.75.34-1.27c0-.47-.1-.85-.31-1.15-.21-.3-.48-.54-.8-.71-.32-.18-.69-.3-1.1-.36-.41-.06-.81-.1-1.2-.1h-2.75v4.81h2.49Z"/>
    <path class="st1" d="M400.63,51.17h3.04v7.39h.07l7.15-7.39h4.11l-8,7.9,8.53,9.2h-4.28l-7.51-8.58h-.07v8.58h-3.04v-17.1Z"/>
  </g>
  <g>
    <path class="st0" d="M31,11.01H14.48v33.83l6.22-2.1,32.22-10.89,9.93-3.35,8.44,7.76V11.01H31ZM20.7,42.06c.11-1.97.55-3.95,1.36-5.87,3.79-8.99,14.15-13.2,23.14-9.41,2.62,1.1,4.83,2.77,6.55,4.79l-31.06,10.49Z"/>
    <path class="st1" d="M45.21,26.77c-8.99-3.79-19.35.42-23.14,9.41-.81,1.92-1.25,3.9-1.36,5.87l31.06-10.49c-1.73-2.02-3.94-3.69-6.55-4.79Z"/>
    <path class="st1" d="M13.07,9.61v33.81s0,.95,0,.95v24.33h59.6V9.61H13.07ZM71.28,30.79v5.48l-8.44-7.76-9.93,3.35-32.22,10.89-6.22,2.1V11.01h56.8v19.77Z"/>
  </g>
</svg>