<?xml version="1.0" encoding="UTF-8"?>
<svg id="Layer_1" xmlns="http://www.w3.org/2000/svg" version="1.1" viewBox="0 0 200 230">
  <!-- Generator: Adobe Illustrator 30.3.0, SVG Export Plug-In . SVG Version: 2.1.3 Build 182)  -->
  <defs>
    <style>
      .st0 {
        fill: #fff;
      }
    </style>
  </defs>
  <path class="st0" d="M33.55,217.19c-1.56.8-3.35,1.2-5.37,1.2s-3.7-.34-5.26-1.01c-1.56-.67-2.9-1.62-4.01-2.84-1.12-1.22-1.97-2.68-2.58-4.38-.6-1.7-.9-3.58-.9-5.63,0-1.95.31-3.75.93-5.42.62-1.66,1.5-3.12,2.66-4.36,1.15-1.24,2.52-2.21,4.12-2.92,1.59-.71,3.36-1.06,5.31-1.06,1.52,0,3.08.31,4.67.93,1.59.62,2.89,1.6,3.88,2.95l5.1-4.04c-.74-.99-1.65-1.84-2.71-2.55-1.06-.71-2.2-1.3-3.4-1.78-1.2-.48-2.46-.83-3.77-1.06-1.31-.23-2.57-.34-3.77-.34-2.9,0-5.6.46-8.07,1.38-2.48.92-4.63,2.23-6.45,3.93-1.82,1.7-3.26,3.76-4.3,6.19-1.04,2.43-1.57,5.14-1.57,8.15s.5,5.62,1.49,8.05c.99,2.43,2.37,4.52,4.14,6.27,1.77,1.75,3.89,3.12,6.35,4.09,2.46.97,5.16,1.46,8.1,1.46,3.22,0,6.04-.58,8.45-1.73,2.41-1.15,4.44-2.77,6.11-4.86l-5.37-3.77c-.96,1.31-2.21,2.36-3.77,3.16Z"/>
  <polygon class="st0" points="61.81 214.78 61.59 214.78 51.24 185.83 43.75 185.83 58.62 223.43 64.41 223.43 79.5 185.83 72.27 185.83 61.81 214.78"/>
  <path class="st0" d="M109.32,203.28c1.54-1.72,2.31-3.94,2.31-6.67,0-1.98-.39-3.67-1.17-5.05-.78-1.38-1.82-2.5-3.11-3.35-1.29-.85-2.77-1.46-4.44-1.83-1.67-.37-3.38-.56-5.15-.56h-13.07v37.61h6.69v-15.94h4.89l8.71,15.94h8.07l-10.04-16.68c2.66-.6,4.75-1.76,6.29-3.48ZM99.73,201.81c-.96.14-1.91.21-2.87.21h-5.47v-10.57h6.06c.85,0,1.73.07,2.63.21.9.14,1.71.41,2.42.8.71.39,1.29.91,1.75,1.57.46.66.69,1.5.69,2.52,0,1.13-.25,2.06-.74,2.79-.5.73-1.12,1.28-1.89,1.67-.76.39-1.62.66-2.58.8Z"/>
  <path class="st0" d="M131.5,185.83l-16.36,37.61h7.49l3.4-8.61h16.31l3.51,8.61h7.65l-16.2-37.61h-5.79ZM128.31,209.09l5.9-15.3,5.79,15.3h-11.69Z"/>
  <polygon class="st0" points="185.26 185.83 185.26 213.98 185.15 213.98 167.68 185.83 158.8 185.83 158.8 223.43 165.5 223.43 165.5 194.38 165.6 194.38 183.45 223.43 191.95 223.43 191.95 185.83 185.26 185.83"/>
  <path class="st0" d="M107.22,52.15c-24.38-10.28-52.48,1.15-62.76,25.53-2.2,5.21-3.39,10.58-3.69,15.92l84.23-28.46c-4.69-5.48-10.68-9.99-17.78-12.99Z"/>
  <path class="st0" d="M179.41,165.86h2.32V5.61H20.08v91.7s0,2.57,0,2.57v65.98h159.33ZM23.88,99.3V9.41h154.05v68.49l-22.89-21.05-26.93,9.1-87.37,29.52-16.86,5.7v-1.86Z"/>
</svg>