<?xml version="1.0" encoding="UTF-8"?>
<svg id="Layer_1" xmlns="http://www.w3.org/2000/svg" version="1.1" viewBox="0 0 400 400">
  <!-- Generator: Adobe Illustrator 30.3.0, SVG Export Plug-In . SVG Version: 2.1.3 Build 182)  -->
  <defs>
    <style>
      .st0 {
        fill: #fff;
      }

      .st1 {
        fill: #4b833d;
      }

      .st2 {
        fill: #ffd248;
      }
    </style>
  </defs>
  <path class="st0" d="M122.95,17.21H15.49v215.44l40.44-13.65c.72-12.81,3.58-25.68,8.84-38.16,24.64-58.44,91.99-85.81,150.43-61.17,17.03,7.15,31.4,18.01,42.58,31.14l68.26-23.08,6.57-2.21,5.07,4.68,46.94,43.17V17.21H122.95Z"/>
  <path class="st2" d="M215.26,119.66c-58.44-24.64-125.79,2.73-150.43,61.17-5.27,12.48-8.13,25.35-8.84,38.16l201.85-68.19c-11.25-13.13-25.61-23.92-42.58-31.14Z"/>
  <polygon class="st0" points="332.66 125.51 326.16 127.72 257.84 150.8 55.99 218.99 15.49 232.64 15.49 237.13 55.92 223.48 265.31 152.68 329.87 130.91 384.73 181.35 384.73 173.42 384.73 173.36 337.73 130.19 332.66 125.51"/>
  <path class="st1" d="M6.39,8.11v384.13h387.39V8.11H6.39ZM384.73,145.73v27.63h0v8l-54.87-50.45-64.55,21.78L55.92,223.41l-40.44,13.65V17.21h369.18v128.52h.06Z"/>
</svg>