<?xml version="1.0" encoding="UTF-8"?>
<svg fill="#FFFFFF" width="100pt" height="100pt" version="1.1" viewBox="0 0 100 100" xmlns="http://www.w3.org/2000/svg">
 <path d="m1.5625 25c-0.9375 0-1.5625 0.625-1.5625 1.5625v43.75c0 0.9375 0.625 1.5625 1.5625 1.5625h93.75c0.9375 0 1.5625-0.625 1.5625-1.5625v-43.75c0-0.9375-0.625-1.5625-1.5625-1.5625zm5.2734 6.25h4.6875c0.625 0 0.97656 0.35156 0.97656 0.97656v4.6875c0 0.3125-0.27344 0.58594-0.58594 0.58594h-5.0781c-0.3125 0-0.58594-0.27344-0.58594-0.58594v-4.6875c0-0.625 0.27344-0.97656 0.58594-0.97656zm9.375 0h4.6875c0.625 0 0.97656 0.35156 0.97656 0.97656v4.6875c0 0.3125-0.27344 0.58594-0.58594 0.58594h-5.0781c-0.3125 0-0.58594-0.27344-0.58594-0.58594v-4.6875c0-0.625 0.27344-0.97656 0.58594-0.97656zm9.375 0h4.6875c0.625 0 0.97656 0.35156 0.97656 0.97656v4.6875c0 0.3125-0.27344 0.58594-0.58594 0.58594h-5.0781c-0.3125 0-0.58594-0.27344-0.58594-0.58594v-4.6875c0-0.625 0.27344-0.97656 0.58594-0.97656zm9.375 0h4.6875c0.625 0 0.97656 0.35156 0.97656 0.97656v4.6875c0 0.3125-0.27344 0.58594-0.58594 0.58594h-4.6875c-0.625 0-0.97656-0.27344-0.97656-0.58594v-4.6875c0-0.625 0.27344-0.97656 0.58594-0.97656zm9.375 0h4.6875c0.625 0 0.97656 0.35156 0.97656 0.97656v4.6875c0 0.3125-0.27344 0.58594-0.58594 0.58594h-4.6875c-0.625 0-0.97656-0.27344-0.97656-0.58594v-4.6875c0-0.625 0.27344-0.97656 0.58594-0.97656zm9.375 0h4.6875c0.625 0 0.97656 0.35156 0.97656 0.97656v4.6875c0 0.3125-0.27344 0.58594-0.58594 0.58594h-4.6875c-0.625 0-0.97656-0.27344-0.97656-0.58594v-4.6875c0-0.625 0.27344-0.97656 0.58594-0.97656zm9.375 0h4.6875c0.625 0 0.97656 0.35156 0.97656 0.97656v4.6875c0 0.3125-0.27344 0.58594-0.58594 0.58594h-4.6875c-0.625 0-0.97656-0.27344-0.97656-0.58594v-4.6875c0-0.625 0.27344-0.97656 0.58594-0.97656zm9.375 0h4.6875c0.625 0 0.97656 0.35156 0.97656 0.97656v4.6875c0 0.3125-0.27344 0.58594-0.58594 0.58594h-4.6875c-0.625 0-0.97656-0.27344-0.97656-0.58594v-4.6875c0-0.625 0.27344-0.97656 0.58594-0.97656zm9.375 0h7.8125c0.625 0 0.97656 0.35156 0.97656 0.97656v4.6875c0 0.3125-0.27344 0.58594-0.58594 0.58594h-7.8125c-0.625 0-0.97656-0.27344-0.97656-0.58594v-4.6875c0-0.625 0.27344-0.97656 0.58594-0.97656zm-75 9.375h7.8125c0.625 0 0.97656 0.27344 0.97656 0.58594v4.6875c0 0.625-0.27344 0.97656-0.58594 0.97656h-8.2031c-0.3125 0-0.58594-0.27344-0.58594-0.58594v-5.0781c0-0.3125 0.27344-0.58594 0.58594-0.58594zm12.5 0h4.6875c0.625 0 0.97656 0.27344 0.97656 0.58594v4.6875c0 0.625-0.27344 0.97656-0.58594 0.97656h-5.0781c-0.3125 0-0.58594-0.27344-0.58594-0.58594v-5.0781c0-0.3125 0.27344-0.58594 0.58594-0.58594zm9.375 0h4.6875c0.625 0 0.97656 0.27344 0.97656 0.58594v4.6875c0 0.625-0.27344 0.97656-0.58594 0.97656h-5.0781c-0.3125 0-0.58594-0.27344-0.58594-0.58594v-5.0781c0-0.3125 0.27344-0.58594 0.58594-0.58594zm9.375 0h4.6875c0.625 0 0.97656 0.27344 0.97656 0.58594v4.6875c0 0.625-0.27344 0.97656-0.58594 0.97656h-4.6875c-0.625 0-0.97656-0.27344-0.97656-0.58594v-5.0781c0-0.3125 0.27344-0.58594 0.58594-0.58594zm9.375 0h4.6875c0.625 0 0.97656 0.27344 0.97656 0.58594v4.6875c0 0.625-0.27344 0.97656-0.58594 0.97656h-4.6875c-0.625 0-0.97656-0.27344-0.97656-0.58594v-5.0781c0-0.3125 0.27344-0.58594 0.58594-0.58594zm9.375 0h4.6875c0.625 0 0.97656 0.27344 0.97656 0.58594v4.6875c0 0.625-0.27344 0.97656-0.58594 0.97656h-4.6875c-0.625 0-0.97656-0.27344-0.97656-0.58594v-5.0781c0-0.3125 0.27344-0.58594 0.58594-0.58594zm9.375 0h4.6875c0.625 0 0.97656 0.27344 0.97656 0.58594v4.6875c0 0.625-0.27344 0.97656-0.58594 0.97656h-4.6875c-0.625 0-0.97656-0.27344-0.97656-0.58594v-5.0781c0-0.3125 0.27344-0.58594 0.58594-0.58594zm9.375 0h4.6875c0.625 0 0.97656 0.27344 0.97656 0.58594v4.6875c0 0.625-0.27344 0.97656-0.58594 0.97656h-4.6875c-0.625 0-0.97656-0.27344-0.97656-0.58594v-5.0781c0-0.3125 0.27344-0.58594 0.58594-0.58594zm9.375 0h4.6875c0.625 0 0.97656 0.27344 0.97656 0.58594v5.0781c0 0.3125-0.27344 0.58594-0.58594 0.58594h-4.6875c-0.625 0-0.97656-0.27344-0.97656-0.58594v-5.0781c0-0.3125 0.27344-0.58594 0.58594-0.58594zm-78.125 9.375h10.938c0.625 0 0.97656 0.27344 0.97656 0.58594v4.6875c0 0.625-0.27344 0.97656-0.58594 0.97656h-11.328c-0.3125 0-0.58594-0.27344-0.58594-0.58594v-5.0781c0-0.3125 0.27344-0.58594 0.58594-0.58594zm15.625 0h4.6875c0.625 0 0.97656 0.27344 0.97656 0.58594v4.6875c0 0.625-0.27344 0.97656-0.58594 0.97656h-5.0781c-0.3125 0-0.58594-0.27344-0.58594-0.58594v-5.0781c0-0.3125 0.27344-0.58594 0.58594-0.58594zm9.375 0h4.6875c0.625 0 0.97656 0.27344 0.97656 0.58594v4.6875c0 0.3125-0.27344 0.68359-0.58594 0.68359h-4.6875c-0.625 0.3125-0.97656 0.019531-0.97656-0.29297v-5.0781c0-0.3125 0.27344-0.58594 0.58594-0.58594zm9.375 0h4.6875c0.625 0 0.97656 0.27344 0.97656 0.58594v4.6875c0 0.3125-0.27344 0.68359-0.58594 0.68359h-4.6875c-0.625 0.3125-0.97656 0.019531-0.97656-0.29297v-5.0781c0-0.3125 0.27344-0.58594 0.58594-0.58594zm9.375 0h4.6875c0.625 0 0.97656 0.27344 0.97656 0.58594v4.6875c0 0.3125-0.27344 0.68359-0.58594 0.68359h-4.6875c-0.625 0.3125-0.97656 0.019531-0.97656-0.29297v-5.0781c0-0.3125 0.27344-0.58594 0.58594-0.58594zm9.375 0h4.6875c0.625 0 0.97656 0.27344 0.97656 0.58594v4.6875c0 0.3125-0.27344 0.68359-0.58594 0.68359h-4.6875c-0.625 0.3125-0.97656 0.019531-0.97656-0.29297v-5.0781c0-0.3125 0.27344-0.58594 0.58594-0.58594zm9.375 0h4.6875c0.625 0 0.97656 0.27344 0.97656 0.58594v4.6875c0 0.625-0.27344 0.97656-0.58594 0.97656h-4.6875c-0.625 0-0.97656-0.27344-0.97656-0.58594v-5.0781c0-0.3125 0.27344-0.58594 0.58594-0.58594zm9.375 0h10.938c0.625 0 0.97656 0.27344 0.97656 0.58594v5.0781c0 0.3125-0.27344 0.58594-0.58594 0.58594h-10.938c-0.625 0-0.97656-0.27344-0.97656-0.58594v-5.0781c0-0.3125 0.27344-0.58594 0.58594-0.58594zm-71.875 9.375h4.6875c0.625 0 0.97656 0.27344 0.97656 0.58594v5.0781c0 0.3125-0.27344 0.58594-0.58594 0.58594h-5.0781c-0.3125 0-0.58594-0.27344-0.58594-0.58594v-4.6875c0-0.625 0.27344-0.97656 0.58594-0.97656zm9.375 0h4.6875c0.625 0 0.97656 0.27344 0.97656 0.58594v5.0781c0 0.3125-0.27344 0.58594-0.58594 0.58594h-5.0781c-0.3125 0-0.58594-0.27344-0.58594-0.58594v-4.6875c0-0.625 0.27344-0.97656 0.58594-0.97656zm9.375 0h45.312c0.3125 0 0.68359 0.27344 0.68359 0.58594v5.0781h0.29297c0 0.3125-0.27344 0.58594-0.58594 0.58594h-45.703c-0.3125 0-0.58594-0.27344-0.58594-0.58594v-4.6875c0-0.625 0.27344-0.97656 0.58594-0.97656zm50.391 0.29297h4.6875c0.3125 0 0.58594 0.37109 0.58594 0.68359v4.6875c0 0.3125-0.27344 0.58594-0.58594 0.58594h-4.6875c-0.3125 0-0.68359-0.27344-0.68359-0.58594v-4.6875c0-0.3125 0.37109-0.68359 0.68359-0.68359zm9.375 0h4.6875c0.3125 0 0.58594 0.37109 0.58594 0.68359v4.6875c0 0.3125-0.27344 0.58594-0.58594 0.58594h-4.6875c-0.3125 0-0.68359-0.27344-0.68359-0.58594v-4.6875c0-0.3125 0.37109-0.68359 0.68359-0.68359z"/>
</svg>
