<?xml version="1.0" encoding="UTF-8"?>
<svg id="Layer_1" xmlns="http://www.w3.org/2000/svg" version="1.1" viewBox="0 0 250 35">
  <!-- Generator: Adobe Illustrator 30.3.0, SVG Export Plug-In . SVG Version: 2.1.3 Build 182)  -->
  <defs>
    <style>
      .st0 {
        fill: #fff;
      }
    </style>
  </defs>
  <path class="st0" d="M217.12,32.21h7.68v-9.85c-.06-.24-.1-.5-.07-.82-.13-.19-.27-.39-.26-.73.15-.03.24,0,.33.05v-.65s-.07-.07-.07-.12c.01-.08.04-.12.07-.14v-8.45h-7.68v20.72ZM221.4,31.52c-.13-.13.19-.31.26-.24.13.13-.19.31-.26.24ZM221.65,29.33c-.13-.13.19-.31.26-.24.13.13-.19.31-.26.24ZM222.93,24.22c.86-.59-.62.82,0,0h0ZM224.47,28.36c-.13-.13.19-.31.26-.24.13.13-.19.31-.26.24ZM224.47,24.71c-.18-.3-.27-.53,0-.24.26.28.2.58,0,.24ZM224.21,19.6v-.73c.75-.36.75,1.09,0,.73ZM223.96,16.43h.51v.49h-.51v-.49ZM224.21,22.27c0,.24-.31.19-.51.24,0-.24.31-.19.51-.24ZM222.68,13.52c.35-.08.21-.61.26-.97.4-.75.22,1.05.26,1.46-.04.75.9,1.09.26,1.7-.99-.11-.1-2.01-1.02-2.19.05-.28.26-.14.26,0ZM222.93,18.38c.06-.3.51-.24.51,0-.11.35-.23-.02-.51,0ZM223.44,21.54c-.55.11-.49-.35-.51-.73.31.11.52.31.51.73ZM221.91,13.52c0,.24-.32.19-.51.24,0-.24.31-.19.51-.24ZM221.4,21.06c.46.46.84.98.77,1.95.91.38.15-.83.77-.73.48.27,1.18.34,1.28.97-.92-.76-1.24.62-2.56.24.63-.78-.82-1.64-.26-2.43ZM220.89,18.63c.13.13-.19.31-.26.24-.13-.13.19-.31.26-.24ZM220.89,26.17c.13.13-.19.31-.26.24-.13-.13.19-.31.26-.24ZM218.58,26.9c.13.13-.19.31-.26.24-.13-.13.19-.31.26-.24ZM218.07,14.73c-.14.37-.27.01-.26-.24.13-.37.27-.02.26.24Z"/>
  <path class="st0" d="M230.95,12.98c.09.23.22.43.43.54.04,1.78.78,3.8,1.02,4.62.17-1.47-.25-3.3-.51-5.11-.03-.2-.06-.39-.09-.59,0,0-.02,0-.03.01-.29.16-.56.35-.83.53Z"/>
  <path class="st0" d="M219.47,9.09c.18.07.37.13.56.17-.11-.16-.28-.28-.56-.17Z"/>
  <path class="st0" d="M233.17,21.06c.06-1.2-.16-2.12-.77-2.68.34.81.23,2.06.77,2.68Z"/>
  <path class="st0" d="M247.77,31.76c.47,0,.74.2.94.45h.44v-4.08c-.51.92-.54,1.39-.62,2.65-.81-.4-.12-1.97,0-2.92h.62v-5.94c0-2.16-.47-4.06-1.42-5.7-.37-.64-.82-1.22-1.3-1.75.02.08.04.16.06.25-.21-.05-.26-.24-.51-.24.11.91.3,1.7.26,2.43-.03.47-.27.69-.26.97.04.68.79,1.2.26,1.95.51.5-.11.48-.26.97.27.83.08-.68.77-.24.18.66-.53.47-.77.73.26.32.25.9.51,1.22-.98-.04-.09.2-.26.73-.18,1.08.02,1.26-.26,2.43.83.3.2-.79,1.02-.49-.22.36-.2.94-1.02.73.61,1.34.19,2.16.26,3.89-.14.54.49.35.51.73.14.54-.49.35-.51.73,0,.32,0,.63,0,.94h1.69c-.06-.15-.12-.29-.16-.45ZM248.79,25.44c.13.13-.19.31-.26.24-.13-.13.19-.31.26-.24ZM248.28,26.9h.51v.49h-.51v-.49ZM246.49,24.46c-.13-.13.19-.31.26-.24.13.13-.19.31-.26.24ZM246.49,28.35c.05-.28.26-.13.26,0-.05.28-.26.13-.26,0ZM246.74,26.65c-.12-.52.37-.46.77-.49-.11.3-.33.5-.77.49ZM247,27.87c-.13-.13.19-.31.26-.24.13.13-.19.31-.26.24ZM247.51,26.9c-.13-.13.19-.31.26-.24.13.13-.19.31-.26.24Z"/>
  <path class="st0" d="M233.43,21.54c-.07-.07-.39.12-.26.24.07.07.39-.12.26-.24Z"/>
  <path class="st0" d="M169,20.13c0-.48-.03-.94-.08-1.38-.06.09-.21.16-.26.12-.13-.12.15-.29.24-.24-.17-1.24-.54-2.35-1.13-3.33-.83-1.36-1.99-2.41-3.48-3.16-1.49-.75-3.25-1.12-5.28-1.12-1.04,0-2,.1-2.88.3-.88.2-1.66.47-2.34.8-.68.33-1.27.71-1.78,1.14h-.12c-.28-.25-.6-.47-.96-.69-.11.03-.19.09-.19.23-.14.05-.18-.16-.13-.41-.16-.09-.31-.18-.48-.27-.69-.33-1.48-.6-2.36-.8-.88-.2-1.84-.3-2.88-.3-1.14,0-2.19.14-3.16.38.21,1.49-.26,3.64.3,4.8.07.39-.24.42-.26.73.71.36-.54,1.09.51.97-.8.59-.15,1.04-.26,2.19.42-.49.32-1.48,1.02-1.7.55.08-.37.75-.51.97.07.16.14.29.2.42.05-.17.1-.34.18-.5.21-.41.53-.75.94-1.02.41-.27.9-.4,1.46-.4s1.09.13,1.52.4c.43.27.75.61.98,1.02.23.41.34.87.34,1.38v11.56h3.26c.19-1.29-.26-2.28.08-3.61.13-.37.27-.02.26.24.04.28-.06.43-.26.49.24.65.4,2,.19,2.88h2.87c.09-.32.09-.66-.25-.69.19-.8,1.08.51.61.69h.88v-5.07h-.46v-.49h.46v-6c0-.51.11-.97.32-1.38.21-.41.53-.75.94-1.02.41-.27.91-.4,1.5-.4s1.08.13,1.48.4c.4.27.71.61.92,1.02.21.41.32.87.32,1.38v11.56h.4c.2-.19.44-.26.77,0h.05c-.16-1.2.71-1.42.77-2.4,1.12.23,1.51,1.16,2.05,1.95-.12.14-.21.3-.31.45h3.98v-12.08ZM142.54,12.79c-.13-.13.19-.31.26-.24.13.13-.19.31-.26.24ZM144.33,16.19c-.13-.13.19-.31.26-.24.13.13-.19.31-.26.24ZM144.84,15.71c.05-.28.26-.14.26,0-.05.27-.26.13-.26,0ZM146.63,14.73c-.13-.13.19-.31.26-.24.13.13-.19.31-.26.24ZM147.91,15.46h-.77v-.73h.77v.73ZM154.31,26.9c-.05.27-.26.13-.26,0,.05-.28.26-.14.26,0ZM154.06,12.06c.13.13-.19.31-.26.24-.13-.13.19-.31.26-.24ZM153.8,23.49c.13.13-.19.31-.26.24-.13-.13.19-.31.26-.24ZM153.8,27.14c.13.13-.19.31-.26.24-.13-.13.19-.31.26-.24ZM153.03,21.3c.78-.66-.7.74,0,0h0ZM152.52,13.76c.13.13-.19.31-.26.24-.13-.13.19-.31.26-.24ZM150.47,13.27c-.05.28-.26.14-.26,0,.05-.27.26-.13.26,0ZM149.45,14.49c-.06.3-.51.24-.51,0,.11-.36.22.02.51,0ZM148.68,23c-.3.25-.6.19-.26,0,.32-.17.56-.26.26,0ZM148.94,29.33c0-.24.31-.19.51-.24,0,.24-.31.19-.51.24ZM148.94,18.14c-.01-.88.14-1.92-.51-2.19.19-.43.47-.04.77,0,.2,1.43.92,2.37,1.02,3.89-.71-.05-.39-1.27-1.28-1.7ZM152.01,26.9c.13.13-.19.31-.26.24-.13-.13.19-.31.26-.24ZM152.01,27.38c.38.21.55.61.51,1.22-.31-.38-1.13-.65-.51-1.22ZM152.52,29.09c.44-.92.42.53.77.49-.44.92-.42-.53-.77-.49ZM153.55,31.27c-.06-.89-.35-.93,0-1.7-.44-1.04-.56-2.38-1.54-2.92-.14-2.63-1.47-4.11-1.79-6.57.66.92,1.27,1.87,1.28,3.41.48-.18.18-.73.77-.24-1.05.62.29.59-.26,1.46.32.85.75.45,1.28.73-.33.49-.87,1.13,0,1.22-.73,1.27,1.14,1.93.77,3.65-.21-.05-.26-.24-.51-.24-.08.64.35.8,1.02.73-.17.33-.55.45-1.02.49ZM154.31,29.09c-.13-.13.19-.31.26-.24.13.13-.19.31-.26.24ZM154.31,25.19c0-.24.32-.19.51-.24,0,.24-.31.19-.51.24ZM154.57,16.92c-.13-.13.19-.31.26-.24.13.13-.19.31-.26.24ZM159.18,13.27c-.13-.13.19-.31.26-.24.13.13-.19.31-.26.24ZM159.18,11.81c-.13-.13.19-.31.26-.24.13.13-.19.31-.26.24ZM160.2,14.73h-.51v-.49h.51v.49ZM162.51,25.44c.78-.66-.7.74,0,0h0ZM162.51,26.41c-.05.28-.26.13-.26,0,.05-.28.26-.13.26,0ZM163.02,18.87c.13.13-.19.31-.26.24-.13-.13.19-.31.26-.24ZM163.02,15.46c-.22-.04-.24.1-.26.24-.3-.04-.21-.45-.26-.73.43-.09.48.19.51.49ZM162.25,18.38c.13.13-.19.31-.26.24-.13-.13.18-.31.26-.24ZM162.25,19.35c-.05.28-.26.14-.26,0,.05-.27.26-.13.26,0ZM162,19.84c.53.06.07,1.07.51,1.22v1.95c-.16.5.41,1.69-.51,1.46v-4.62ZM162.25,27.62c-.13-.13.19-.31.26-.24.13.13-.19.31-.26.24ZM162.51,28.84c.89,1.57-.55,1.83,0,0h0ZM162.76,21.54c.11-.35.23.03.51,0-.06.31-.51.25-.51,0ZM163.79,24.71c-.13-.13.19-.31.26-.24.13.13-.19.31-.26.24ZM164.04,20.33c-.13-.13.19-.31.26-.24.13.13-.19.31-.26.24ZM165.32,17.89h-.51v-.49h.51v.49ZM164.04,15.22c-.22-.78.4-.75.51-1.22.34.09.4.43.77.49-.18.48-.68.65-1.28.73ZM166.6,16.19c-.13-.13.19-.31.26-.24.13.13-.19.31-.26.24ZM167.11,20.57c-.13-.13.19-.31.26-.24.13.13-.18.31-.26.24ZM167.37,29.09c-.13-.13.19-.31.26-.24.13.13-.19.31-.26.24Z"/>
  <path class="st0" d="M73.76,12.39c-1.71-.92-3.6-1.38-5.68-1.38-1.97,0-3.78.43-5.43,1.25,0,.01,0,.03,0,.04.04.42.83,1.99-.26,1.95.13-.63.06-1.24-.04-1.85-1.73.92-3.11,2.19-4.13,3.81-1.03,1.63-1.54,3.51-1.54,5.64s.51,4.02,1.54,5.66c1.03,1.64,2.4,2.91,4.12,3.82,1.47.77,3.07,1.2,4.8,1.31.03-.05.07-.1.12-.15.08.06.13.12.18.17.2,0,.4.03.6.03.9,0,1.76-.1,2.59-.27.07-.13.19-.39.21-.42.02-.02-.02-.24,0-.24.55-.09.44.32.21.58.94-.23,1.83-.56,2.68-1.01,1.72-.91,3.09-2.18,4.1-3.82,1.01-1.64,1.52-3.53,1.52-5.66s-.51-4.01-1.52-5.64c-1.01-1.63-2.37-2.9-4.08-3.82ZM58.3,26.9c.06-.31.51-.25.51,0-.23.15-.46.29-.51,0ZM58.55,22.03c-.13-.13.19-.31.26-.24.13.13-.19.31-.26.24ZM61.11,19.35c-.13-.13.19-.31.26-.24.13.13-.19.31-.26.24ZM61.62,19.35c-.13-.13.19-.31.26-.24.13.13-.19.31-.26.24ZM72.63,27.87c-.05.27-.26.13-.26,0,.05-.28.26-.14.26,0ZM70.33,17.16c-.34-.16-.48-.52-.51-.97.77-.24.45.54.51.97ZM67.51,14c.24.8.19,1.9.26,3.16-.72-1.02-.79-2.65-1.02-4.14.53-.21.67.63.77.97ZM66.23,13.27c-.06.31-.51.25-.51,0,.11-.35.22.03.51,0ZM63.42,13.27c.05-.27.26-.13.26,0-.05.28-.26.14-.26,0ZM64.18,32.01c0-.24.31-.19.51-.24,0,.24-.31.19-.51.24ZM64.7,26.41c.13.13-.19.31-.26.24-.13-.13.19-.31.26-.24ZM64.7,31.52c-.13-.13.19-.31.26-.24.13.13-.19.31-.26.24ZM66.49,27.87c1.11.1-.27,1.41,0,0h0ZM66.75,27.38c-.13-.13.19-.31.26-.24.13.13-.19.31-.26.24ZM67.51,27.14c.05-.28.26-.14.26,0-.05.27-.26.13-.26,0ZM69.05,30.3c-.13-.13.19-.31.26-.24.13.13-.19.31-.26.24ZM69.05,28.6c-.13-.13.19-.31.26-.24.13.13-.19.31-.26.24ZM70.84,27.87h-.51v-.49h.51v.49ZM71.26,23.87c-.31.6-.74,1.07-1.3,1.42-.2.12-.41.22-.63.29.05.38.16.71.49.82-.19,2.01,1.26,3.62.77,5.11-.71-.13.36-1.96-1.02-1.46-.11-1.89-.46-3.04-.73-4.33-.25.05-.51.08-.79.08-.72,0-1.36-.17-1.92-.52-.56-.35-1-.82-1.32-1.42-.32-.6-.48-1.29-.48-2.06s.16-1.45.48-2.04c.32-.59.76-1.05,1.32-1.4.56-.35,1.2-.52,1.92-.52s1.36.17,1.92.52c.56.35.99.81,1.3,1.4s.46,1.27.46,2.04-.15,1.46-.46,2.06ZM72.38,29.57c-.05-.21.1-.23.26-.24.05-.21-.1-.23-.26-.24.28-1,1.07.87,0,.49ZM77.76,25.68c.13.13-.19.31-.26.24-.13-.13.19-.31.26-.24ZM77.24,20.33c.13.13-.19.31-.26.24-.13-.13.19-.31.26-.24ZM76.48,22.52c.13.13-.19.31-.26.24-.13-.13.19-.31.26-.24ZM76.22,24.95h-1.02c-.2-.94,1.23-.94,1.02,0Z"/>
  <path class="st0" d="M237.95,17.95c-.23-2.44-.53-4.71-.85-6.89-1.72.08-3.27.45-4.66,1.09.07.22.14.44.23.64-.2,1.06.32,2.25,0,2.67.32.83.45,1.85.77,2.68.05.28.26.13.26,0,.29.05.14.24,0,.24-.62.92.6,3.26.26,3.89-2.2.14-.84-3.1-2.56-3.41.76-1.83-.69-3.52-.77-5.35-.3.04-.22.44-.26.73-.34-.16-.33-.39-.25-.65-.97.79-1.79,1.73-2.44,2.83-.98,1.69-1.47,3.63-1.48,5.83.03,0,.05,0,.07,0,.07.06.02.14-.06.2,0,.35.02.69.05,1.02,0,0,0,0,0,0,.04.04.03.09,0,.13.02.22.05.42.08.63.07-.04.15-.06.18-.03.09.09-.03.2-.14.24.08.5.18.99.32,1.46.03,0,.06,0,.08,0,.06.05.02.12-.03.17.18.58.38,1.14.65,1.66.8,1.56,1.89,2.78,3.28,3.66,1.34.85,2.84,1.28,4.51,1.31-.07-.48-.15-.96-.22-1.45-.04-.45-.17-.81-.51-.97.42-1.38-.73-2.91-.51-4.87-.06-.94-.98-2.48,0-2.92.18.58.31.72.51,1.7-.23-.15-.46-.29-.51,0-.19,1.06.51-.2.51.49.62.59-.62.65-.26,1.7.35-.07.21-.61.26-.97.57.1.2,1.29,0,1.46.2,1.19.95,1.86.77,3.41.27.23.08.9.77.73,0,.24-.32.19-.51.24.09.48.17.95.26,1.43.92-.03,1.76-.16,2.46-.41.55-.2,1.02-.48,1.46-.8-.01-.07-.03-.14-.08-.22-.22-.71-.38-.27-1.02-.24-.12-.52.37-.46.77-.49,0-.81,0-1.62,0-2.43-.68-.08.24,1.36-.77.97.56-.38-.45-2.34.77-1.7-.34-.3-.26-.99-.26-1.62-.07.03-.14.05-.22.08-.16.21-.24.49-.28.07-.27.06-.55.1-.85.1-.69,0-1.32-.17-1.88-.52s-.99-.83-1.3-1.46c-.31-.63-.46-1.34-.46-2.14,0-.62.1-1.17.3-1.67-.08.04-.17-.05-.17-.14.05-.26.22-.15.25-.03.03-.07.06-.14.09-.2.31-.59.74-1.05,1.3-1.4s1.19-.52,1.88-.52c.08,0,.16.01.23.01ZM232.92,12.3c-.13-.13.19-.31.26-.24.13.13-.19.31-.26.24ZM230.36,26.9c-.45-.06-.58-.42-.51-.97.45.06.58.42.51.97ZM229.85,25.44c-.13-.13.19-.31.26-.24.13.13-.19.31-.26.24ZM230.1,22.27c-.05.28-.26.14-.26,0,.05-.28.26-.13.26,0ZM229.85,23.73c.13.13-.19.31-.26.24-.13-.13.19-.31.26-.24ZM228.05,21.3c-.05.28-.26.14-.26,0,.05-.27.26-.13.26,0ZM226.26,23c0-.24.31-.19.51-.24,0,.24-.31.19-.51.24ZM226.52,22.27c-.13-.13.19-.31.26-.24.13.13-.19.31-.26.24ZM227.29,24.46c-.13-.13.19-.31.26-.24.13.13-.19.31-.26.24ZM227.54,18.87c-.13-.13.19-.31.26-.24.13.13-.19.31-.26.24ZM227.8,24.46c.05-.27.26-.13.26,0-.05.28-.26.14-.26,0ZM228.05,22.03c.45.22.57.76.51,1.46-.65-.03-.51-.81-.51-1.46ZM228.82,24.71c-.45-.06-.58-.42-.51-.97.45.06.58.42.51.97ZM229.33,27.14s-.24-.02-.26,0c.56-.63.68.79.51,1.22.19-.49-.49-.44-.26-.97.03-.07-.01-.17,0-.24ZM230.1,30.3c-.34-.16-.48-.52-.51-.97.45.06.58.42.51.97ZM230.1,27.87c-.13-.13.19-.31.26-.24.13.13-.19.31-.26.24ZM230.87,30.54c-.13-.13.19-.31.26-.24.13.13-.19.31-.26.24ZM230.87,21.06c-.63-.23.33-.96.77-.97-.08.5-.69.48-.77.97ZM230.87,19.6c.07-.56.68-.56,1.02-.24-.22.71-.38.27-1.02.24ZM232.15,22.27c-.13-.13.19-.31.26-.24.13.13-.19.31-.26.24ZM239.06,30.06c-.05.27-.26.13-.26,0,.05-.28.26-.14.26,0ZM239.32,31.52c-.05.28-.26.13-.26,0,.05-.28.26-.13.26,0ZM238.81,31.76c.13.13-.19.31-.26.24-.13-.13.19-.31.26-.24ZM235.73,30.79v-.73h.77c-.27.23-.08.9-.77.73ZM236.5,29.81h-.51v-.49h.51v.49ZM236.76,32.01c.05-.28.26-.14.26,0-.05.27-.26.13-.26,0ZM237.53,31.52c.13.13-.19.31-.26.24-.13-.13.19-.31.26-.24ZM237.27,27.62c-.17.25-.59.25-.51.73-.48-.03-.18-.8-.77-.73.22-.71.82.15,1.28,0ZM235.99,26.65c.13.13-.19.31-.26.24-.13-.13.19-.31.26-.24ZM233.69,16.68c0-.24.32-.19.51-.24,0,.24-.31.19-.51.24ZM233.94,13.27c-.75-.2.15-.78,0-1.22.6.06.15,1.07,0,1.22ZM234.45,17.16c.05-.28.26-.13.26,0-.05.28-.26.14-.26,0ZM234.45,12.79c.06-.31.51-.24.51,0-.23.15-.46.29-.51,0ZM235.22,12.06c-.13-.13.19-.31.26-.24.13.13-.19.31-.26.24ZM236.25,14.49c0-.24.31-.19.51-.24,0,.24-.31.19-.51.24ZM236.76,12.06c-.7-.74.78.66,0,0h0Z"/>
  <path class="st0" d="M45.12,27.51c1.01-1.64,1.52-3.53,1.52-5.66s-.51-4.01-1.52-5.64c-.94-1.51-2.19-2.7-3.73-3.6-.21,3.02-.9,6.11-.51,9.17-.5,1.95.07,4.93-.77,6.57.05,1.18.04,2.29,0,3.38.3-.13.61-.25.9-.4,1.72-.91,3.09-2.18,4.1-3.82ZM44.47,17.89c.51-.4.33.02,1.02,0,.2.94-1.23.94-1.02,0ZM44.73,19.11c.13.13-.19.31-.26.24-.13-.13.19-.31.26-.24ZM41.14,19.6c-.13-.13.19-.31.26-.24.13.13-.19.31-.26.24ZM41.65,27.38c-.13-.13.19-.31.26-.24.13.13-.19.31-.26.24ZM41.91,22.52c-.13-.13.19-.31.26-.24.13.13-.19.31-.26.24Z"/>
  <path class="st0" d="M103.58,22.83c.09-1.1.15-2.18.13-3.18-.11.71-.19,1.44-.19,2.24,0,.33.04.63.06.94Z"/>
  <path class="st0" d="M84.92,31.76c.24.08.41.21.48.45h3.03v-11.44c0-.51.12-.98.36-1.42.24-.44.59-.8,1.06-1.08.47-.28,1.01-.42,1.62-.42s1.14.14,1.58.42c.44.28.78.64,1.02,1.08.24.44.36.91.36,1.42v1.17c.08-.13.22-.03.22.09-.04.2-.16.18-.22.1v10.08h7.15c.11-.28.43-.36.49-.69.02.02.02.06.04.08v-1.86c-.55-.25.05-.72-.04-1.38.02,0,.02,0,.04.01v-8.07c0-1.79-.42-3.38-1.26-4.78-.18-.29-.38-.57-.59-.84-.04.13-.11.24-.24.3.2.54.54.95.51,1.7-.22.77-.34-.43-.26-.73-.37-.06-.09-.73-.51-.73v-1.1c-.7-.75-1.54-1.39-2.54-1.9-1.57-.8-3.44-1.2-5.6-1.2s-4.05.4-5.68,1.2c-1.63.8-2.89,1.9-3.8,3.3-.91,1.4-1.36,2.99-1.36,4.78v11.92h4.17c-.03-.14-.03-.3-.04-.45ZM102.08,21.79c.13.13-.19.31-.26.24-.13-.13.19-.31.26-.24ZM102.08,22.52c-.05.28-.26.14-.26,0,.05-.27.26-.13.26,0ZM102.08,23.49c.13.13-.19.31-.26.24-.13-.13.19-.31.26-.24ZM102.08,24.95c.13.13-.19.31-.26.24-.13-.13.19-.31.26-.24ZM101.31,31.27c.27-.25.65.35.51.49-.06.06-.63-.37-.51-.49ZM101.31,32.01c-.23.15-.46.29-.51,0,.06-.31.51-.25.51,0ZM100.29,17.16c.79,1.27.56,3.53.77,5.35-.85-.09-.4-1.4-.51-2.19-.22-.69-.3-1.5-.51-2.19.35-.07.21-.61.26-.97ZM99.52,29.81c-.05.28-.26.14-.26,0,.05-.27.26-.13.26,0ZM99.01,16.68c.13.13-.19.31-.26.24-.13-.13.19-.31.26-.24ZM98.49,15.46c.13.13-.19.31-.26.24-.13-.13.19-.31.26-.24ZM97.98,26.65c.13.13-.19.31-.26.24-.13-.13.19-.31.26-.24ZM96.96,15.95c.13.13-.19.31-.26.24-.13-.13.19-.31.26-.24ZM95.93,31.76c-.05.28-.26.14-.26,0,.05-.27.26-.13.26,0ZM95.17,30.79c-.05.28-.26.14-.26,0,.05-.27.26-.13.26,0ZM94.65,14c.13.13-.19.31-.26.24-.13-.13.19-.31.26-.24ZM91.84,11.57c-.06.3-.51.24-.51,0,.11-.35.22.02.51,0ZM90.56,11.08c.45.06.58.42.51.97-.45-.06-.58-.42-.51-.97ZM89.79,13.27c.13.13-.19.31-.26.24-.13-.13.19-.31.26-.24ZM89.02,11.81c.13.13-.19.31-.26.24-.13-.13.19-.31.26-.24ZM82.36,29.81c-.13-.13.18-.31.26-.24.13.13-.19.31-.26.24ZM87.23,27.38c-.13-.13.19-.31.26-.24.13.13-.19.31-.26.24ZM88,15.22c.86-.59-.62.82,0,0h0ZM87.74,19.35c-.05.28-.26.14-.26,0,.05-.27.26-.13.26,0ZM87.48,16.43c0,.24-.31.19-.51.24,0-.24.31-.19.51-.24ZM86.97,14.73c-.2.44-.27-.15-.26-.49.2-.44.27.15.26.49ZM86.72,12.06c.13.13-.19.31-.26.24-.13-.13.19-.31.26-.24ZM85.95,27.62c.13.13-.19.31-.26.24-.13-.13.19-.31.26-.24ZM85.18,26.17c1.11.1-.27,1.41,0,0h0ZM85.18,19.35c.13.13-.19.31-.26.24-.13-.13.19-.31.26-.24ZM85.18,23.73c-.06.31-.51.25-.51,0,.11-.35.22.03.51,0ZM83.13,27.62c.05-.27.26-.13.26,0-.05.28-.26.14-.26,0ZM83.9,26.65c.14-.37.27-.01.26.24-.14.37-.27.01-.26-.24ZM83.39,25.68c.58-2.56-.45-4.52,0-6.32.45.03.54,2.27.77.97.64.04.07.82,0,.97-.27,1.44.67,4.04-.77,4.38ZM84.41,29.57c.14-.37.27-.02.26.24-.14.37-.27.02-.26-.24ZM84.67,28.36c-.13-.13.19-.31.26-.24.13.13-.19.31-.26.24Z"/>
  <path class="st0" d="M103.98,25.13c.26.87.63,1.66,1.12,2.38.65.95,1.47,1.75,2.42,2.41.08-.08.2.03.2.13,0,0,0,0,0,0,.52.35,1.08.68,1.69.95,1.71.76,3.66,1.14,5.82,1.18.1-.35.22-.69.17-.92.96-.23,1.74-1.63,2.82-.97.06.29-.25.81-.51.97-.1.06-.33-.29-.51-.24-.21.06-.25.82-.77.24-.37.17-.57.51-.67.94h6.57v-2.73c-.33.24-.6.52-1.03.09.23-.52.54-.38,1.03-.36v-2.95h-7.4c-.64,0-1.21-.07-1.72-.2-.51-.13-.91-.35-1.2-.66-.29-.31-.49-.69-.6-1.14h12.72c.11-.45.19-1.01.24-1.66.05-.65.08-1.23.08-1.74,0-2.05-.45-3.81-1.34-5.28-.89-1.47-2.09-2.59-3.6-3.38-.43-.22-.87-.41-1.33-.57-.14.32-.34.58-.72.67.09-.26.15-.55.23-.82-1.02-.3-2.11-.47-3.28-.47-1.84,0-3.59.41-5.26,1.22s-3.02,2.02-4.06,3.62c-.18.27-.31.57-.46.86-.19,1.31-.41,2.55-.49,3.86-.09,1.57-.08,3.05-.15,4.56ZM121.28,30.3c.13.13-.19.31-.26.24-.13-.13.19-.31.26-.24ZM120,31.52c.05-.2.26-.24.26-.49.6.13.16,1.15-.26.49ZM119.49,26.41c.13.13-.19.31-.26.24-.13-.13.19-.31.26-.24ZM120,29.57c-.04.28.06.43.26.49-.18.76-.68.32-1.28.24.22-.36.38-.77,1.02-.73ZM119.23,31.03c.13.13-.19.31-.26.24-.13-.13.19-.31.26-.24ZM116.42,29.09c.13.13-.19.31-.26.24-.13-.13.19-.31.26-.24ZM123.07,23.73c-.44.79-.69-.61-.77-.97.53.07.24.9.77.97ZM122.31,22.27c.13.13-.19.31-.26.24-.13-.13.18-.31.26-.24ZM121.28,18.87h.51v.49h-.51v-.49ZM120.26,18.14c.13.13-.19.31-.26.24-.13-.13.19-.31.26-.24ZM120,17.16c.13.13-.19.31-.26.24-.13-.13.19-.31.26-.24ZM119.75,16.68c.13.13-.19.31-.26.24-.13-.13.19-.31.26-.24ZM119.23,15.71c-.14.37-.27.01-.26-.24.14-.37.27-.02.26.24ZM118.72,14.73c-.51-.32-.57-1.08-.77-1.7.51.32.57,1.08.77,1.7ZM111.04,27.38c-.13-.13.19-.31.26-.24.13.13-.19.31-.26.24ZM115.65,23.25c.06-.31.51-.24.51,0-.11.35-.23-.03-.51,0ZM116.16,22.27v-.49c.55-.11.49.35.51.73-.21-.04-.26-.24-.51-.24ZM117.44,13.52c-.05.27-.26.13-.26,0,.05-.28.26-.14.26,0ZM117.19,14.49c.13.13-.19.31-.26.24-.13-.13.19-.31.26-.24ZM115.14,14.98c-.38-.37-.41-1.07-.51-1.7.77.03.82,1.38.51,1.7ZM114.88,12.3c-.05.28-.26.14-.26,0,.05-.27.26-.13.26,0ZM114.63,11.57c.13.13-.19.31-.26.24-.13-.13.19-.31.26-.24ZM112.32,15.22c.13.13-.19.31-.26.24-.13-.13.19-.31.26-.24ZM111.34,18.81c.15-.37.35-.69.62-.96.27-.27.59-.48.98-.64.39-.16.83-.24,1.34-.24.4,0,.77.05,1.1.16.33.11.62.26.86.46.24.2.45.43.62.68.17.25.3.53.38.82.08.29.12.6.12.92h-6.32c.05-.43.15-.83.3-1.2ZM111.3,22.03c.13.13-.19.31-.26.24-.13-.13.19-.31.26-.24ZM108.99,25.19c-.05.28-.26.13-.26,0,.05-.28.26-.14.26,0ZM107.97,25.44c-.05.28-.26.14-.26,0,.05-.28.26-.13.26,0ZM107.71,27.87c.85.24-.29.48-.26.73-.85-.24.29-.48.26-.73ZM106.94,27.14c.13.13-.19.31-.26.24-.13-.13.19-.31.26-.24ZM104.9,23.25c.4-1.15,1.27-.32,0,0h0ZM104.9,23.49c0,.24-.31.19-.51.24,0-.24.31-.19.51-.24Z"/>
  <path class="st0" d="M35.36,11.01c-.05,0-.1,0-.16,0,.32.65-.2,2.74-.2,1.03,0-.48-.7-.31-.51-.97.15.02.27,0,.35-.04-1.88.07-3.61.51-5.2,1.35-1.73.92-3.11,2.19-4.14,3.82-1.03,1.63-1.54,3.51-1.54,5.64s.51,4.02,1.54,5.66c1.03,1.64,2.4,2.91,4.12,3.82,1.72.91,3.62,1.36,5.7,1.36.17,0,.32-.02.48-.03.11-.06.19-.06.21-.01,1.26-.06,2.45-.28,3.57-.69.3-3.06.66-5.86.28-8.23.15-.51.64-.69.51-1.46,0-1.06.09-2.19-.26-2.92.44-1.52.55-3.11.51-5.84.1-.82.09-.86.17-1.24-1.64-.84-3.45-1.27-5.44-1.27ZM26.29,18.14c0-.24.31-.19.51-.24,0,.24-.31.19-.51.24ZM28.34,19.6c-.13-.13.19-.31.26-.24.13.13-.19.31-.26.24ZM29.36,18.63c.05-.28.26-.14.26,0-.05.27-.26.13-.26,0ZM36.79,16.19c.13.13-.19.31-.26.24-.13-.13.19-.31.26-.24ZM35.25,14c.13.13-.19.31-.26.24-.13-.13.19-.31.26-.24ZM34.74,11.81c.02.34.04.69-.26.73-.02-.34-.04-.69.26-.73ZM34.74,13.03c.13.13-.19.31-.26.24-.13-.13.19-.31.26-.24ZM34.23,14.24h.51v.49h-.51v-.49ZM34.23,15.46h.51v.49h-.51v-.49ZM34.74,16.92c-.05.28-.26.13-.26,0,.05-.28.26-.14.26,0ZM29.87,30.3c-.03-.44.31-.51.26-.97.74.04.62,1.16-.26.97ZM31.41,27.87c-.16-.58-1.12-.4-.77-1.46.98.35,1.25,1.9.77,2.92-.42.04-.42-1.5,0-1.46ZM31.41,30.54c-.13-.13.19-.31.26-.24.13.13-.19.31-.26.24ZM33.97,31.52c.86-.59-.62.82,0,0h0ZM35,32.01c.05-.28.26-.14.26,0-.05.27-.26.13-.26,0ZM36.28,31.03c-.13-.13.19-.31.26-.24.13.13-.19.31-.26.24ZM38.54,23.87c-.31.6-.74,1.07-1.3,1.42-.07.04-.14.07-.21.11,0,.01.01.02.01.04-.04.22-.17.17-.23.08-.45.2-.95.3-1.5.3-.28,0-.53-.03-.79-.08.02.58.04,1.17-.56,1.17.18-.32.21-.77.2-1.26-.27-.09-.53-.2-.78-.35-.56-.35-1-.82-1.32-1.42-.32-.6-.48-1.29-.48-2.06s.16-1.45.48-2.04c.32-.59.76-1.05,1.32-1.4.56-.35,1.2-.52,1.92-.52s1.36.17,1.92.52c.56.35.99.81,1.3,1.4s.46,1.27.46,2.04-.15,1.46-.46,2.06ZM39.6,13.76c-.13-.13.19-.31.26-.24.13.13-.19.31-.26.24Z"/>
  <path class="st0" d="M8.11,11.57c.13.13-.19.31-.26.24-.06-.06-.02-.14.05-.19-.52.17-1.03.36-1.51.59-1.63.8-2.89,1.9-3.8,3.3-.91,1.4-1.36,2.99-1.36,4.78v11.92h1.7c.42-.42.83-.84,1.07-1.42.84.5-.47.99-.77,1.22.03.08.04.15.05.21h5.58v-11.44c0-.41.1-.8.26-1.17,0,0,0,0,0,0,0-.05.03-.08.05-.1.02-.05.03-.1.06-.14.24-.44.59-.8,1.06-1.08.47-.28,1.01-.42,1.62-.42s1.14.14,1.58.42c.44.28.78.64,1.02,1.08.24.44.36.91.36,1.42v1.17c.13-.06.25-.12.4-.16.48.29.97,1.82-.26,1.7-.19-.74.44-.72.26-1.46-.15.11-.27.23-.4.35v7.28c.11-.05.27-.05.4-.09,0,.2-.22.2-.4.22v2.42h3.3c.03-.54.09-1.09.17-1.67.12.52.19,1.08.25,1.67h.51c-.05-.12.2-.27.27-.21.07.07,0,.15-.08.21h3.26v-11.92c0-1.79-.42-3.38-1.26-4.78-.84-1.4-2.05-2.5-3.62-3.3-.41-.21-.85-.39-1.31-.55.06,1.92.2,3.88.7,5.25v.49c-.79-.17-.49-.17-1.28,0,.25-2.12.09-3.95-.03-5.91-1.12-.31-2.34-.49-3.68-.49-1.45,0-2.77.2-3.98.56,0,0,.01,0,.01,0ZM20.14,31.27c1.02,1.26-1.33.94,0,0h0ZM21.17,19.6c.06-.31.51-.25.51,0-.11.35-.22-.03-.51,0ZM21.68,28.11c-.13-.13.19-.31.26-.24.13.13-.19.31-.26.24ZM22.19,31.03c-.13-.13.19-.31.26-.24.13.13-.19.31-.26.24ZM22.45,19.84c0,.24-.31.19-.51.24,0-.24.31-.19.51-.24ZM21.68,21.3c-.13-.13.19-.31.26-.24.13.13-.19.31-.26.24ZM21.68,18.14c.48-.61.03.4,0,.73-1.01-.55-1.13,1.49-1.28.24.38-.36,1.08-.43,1.28-.97ZM21.17,16.43c.86-.59-.62.82,0,0h0ZM20.4,15.46c.86-.59-.62.82,0,0h0ZM20.14,27.87c.13.13-.19.31-.26.24-.13-.13.19-.31.26-.24ZM19.89,16.68c.13.13-.19.31-.26.24-.13-.13.19-.31.26-.24ZM16.05,22.76c0-.24.31-.19.51-.24,0,.24-.31.19-.51.24ZM16.82,25.44c0,.24-.31.19-.51.24,0-.24.31-.19.51-.24ZM16.3,29.57c-.13-.13.19-.31.26-.24.13.13-.19.31-.26.24ZM16.56,28.11c-.13-.13.18-.31.26-.24.13.13-.19.31-.26.24ZM16.82,22.52c-.13-.13.19-.31.26-.24.13.13-.18.31-.26.24ZM17.33,23c-.45.28.22-.73.26-.49-.06-.42-.55-.56-.26-1.22,1.16.55.12,1.63,0,1.7ZM17.58,23.25c.86-.59-.62.82,0,0h0ZM17.84,29.09c-.13-.13.19-.31.26-.24.13.13-.19.31-.26.24ZM18.1,26.65c.05-.27.26-.13.26,0-.05.28-.26.14-.26,0ZM18.35,21.06c.74.21.29.36.26.97-.59-.07-.59-.65-.26-.97ZM18.35,22.76c-.13-.13.19-.31.26-.24.13.13-.19.31-.26.24ZM18.61,23.73c.05-.27.26-.13.26,0-.05.28-.26.14-.26,0ZM18.35,15.71c.34.16.48.52.51.97-.45-.06-.58-.42-.51-.97ZM16.56,18.14c-.3-.04-.22-.44-.26-.73.3.04.22.45.26.73ZM16.56,19.35c.32-.47.43-1.14.51-1.22.18-.16.87.18.77-.24.05-.21-.1-.23-.26-.24.43.02.69-.55,1.54-.73-.07,1.16-2.07,1.75-1.54,2.68-.56.07-1.56,1.07-1.79,2.19-1.25-.69.15-1.54.77-2.43ZM14.77,18.38c.22-.04.24.1.26.24.04.28.47.2.77.24-.26.64-1.99.13-1.02-.49ZM12.98,13.76c.13.13-.19.31-.26.24-.13-.13.19-.31.26-.24ZM12.21,17.41c.13.13-.19.31-.26.24-.13-.13.19-.31.26-.24ZM10.93,13.76c.13.13-.19.31-.26.24-.13-.13.19-.31.26-.24ZM8.11,22.27c-.32-.11-.53-.31-.51-.73.32.11.53.31.51.73ZM7.34,16.92c.78-.66-.7.74,0,0h0ZM5.04,14.73s.09-.69.26-.49c.21.24-.62,1.18-.26.49ZM3.25,25.92c.05-.28.26-.14.26,0-.05.27-.26.13-.26,0ZM4.01,16.68c-.13-.13.19-.31.26-.24.13.13-.19.31-.26.24ZM4.27,15.95c-.13-.13.19-.31.26-.24.13.13-.19.31-.26.24ZM4.53,30.54c0-.24.31-.19.51-.24,0,.24-.31.19-.51.24ZM5.55,29.09c.42.69-1.06,1.37,0,0h0ZM5.55,13.52c-.13-.13.19-.31.26-.24.13.13-.19.31-.26.24ZM6.06,28.11c-.13-.13.19-.31.26-.24.13.13-.19.31-.26.24ZM6.06,25.68c-.13-.13.19-.31.26-.24.13.13-.19.31-.26.24ZM6.32,23c.05-.28.26-.14.26,0-.05.27-.26.13-.26,0ZM6.32,18.63c-.13-.13.19-.31.26-.24.13.13-.19.31-.26.24ZM6.83,31.52c-.61-.53.62.03.77.24-.25.81-.51-.27-.77-.24ZM7.6,28.11c-.21-.13-.42-.25-.77-.24.05-.2.26-.24.26-.49h.51v.73ZM9.14,15.22c.13.13-.19.31-.26.24-.13-.13.19-.31.26-.24ZM8.11,27.14c-.34.16-.57-.16-.26-.24.07-.02.19.03.26,0,.39-.19.19.15,0,.24Z"/>
  <path class="st0" d="M141.29,11.51c-.57.17-1.12.36-1.63.62-.75.38-1.41.83-1.99,1.37,0,0,0,.01,0,.02-.03.15-.1.17-.16.14-.5.49-.95,1.02-1.32,1.63-.83,1.36-1.24,2.97-1.24,4.84v1.27c.07-.01.15.06.15.14-.03.14-.09.17-.15.15v1.57c.14.12.19.46,0,.64v8.31h7.64v-.75c-.05.15-.04.37-.06.55-.65-1.73-.1-4.61-2.56-4.62-.02-.79-.13-1.5-.51-1.95.09-.38.45.21.51-.24.58.26.1,1.53.26,2.19.45-.06,1.28.25,1.02-.49.55.36-.28.69.51.97.56.04.11-.86.26-1.22.22-.77.34.43.26.73,0,.27.15.42.32.54v-6.37s-.05,0-.06,0c-.07-.07-.02-.15.06-.2v-.45c-.03-.1-.03-.22-.06-.32-.88.92-.13,1.91-.51,3.16-.29.79-.29-.65-.26-.97-.52.23-.55.93-.51,1.7-1.29-.58.14-1.7.51-2.19-.19-3.91-.4-6.93-.48-10.76ZM140.23,12.54c-.06.3-.51.24-.51,0,.11-.35.23.02.51,0ZM136.9,20.08c.22.04.24-.1.26-.24.5-.1.37,1.11-.26.73v-.49ZM135.37,23.98c-.13-.13.19-.31.26-.24.13.13-.19.31-.26.24ZM135.88,23.73c0-.24.31-.19.51-.24,0,.24-.31.19-.51.24ZM137.16,31.27c-.13-.13.19-.31.26-.24.13.13-.19.31-.26.24ZM136.9,28.84c.06-.3.51-.24.51,0-.11.36-.23-.02-.51,0ZM136.65,23.73c.68.09.86.64,1.02,1.22-.56-.19-1.02-.49-1.02-1.22ZM137.67,23.25c-.13-.13.19-.31.26-.24.13.13-.19.31-.26.24ZM138.44,27.62c.05-.27.26-.13.26,0-.05.28-.26.14-.26,0ZM137.92,26.17c-.11-.51.18-.65.26-.97.69-.17-.18,1.15.51.97-.11.36-.33-.1-.77,0ZM138.69,16.43c-.13-.13.19-.31.26-.24.13.13-.19.31-.26.24ZM138.95,25.92c.05-.28.26-.14.26,0-.05.27-.26.13-.26,0ZM139.46,14.98c.33-1.18-1.49-1.14-.77-1.95.46-.03.54.3,1.02.24-.15.95.22,1.41.51,1.95.54.6-.27-.36-.77-.24Z"/>
  <path class="st0" d="M184.95,24.25h1.78c-.38-.43-.76-.86-1.18-1.25-.52.31-.59.78-.6,1.25Z"/>
  <path class="st0" d="M181.28,11.01c-1.84,0-3.59.41-5.26,1.22-.61.3-1.16.66-1.68,1.06.24.38.12.95-.57.95-.15-.14-.2-.23-.2-.31-.6.56-1.14,1.19-1.61,1.92-1.04,1.6-1.56,3.61-1.56,6.04,0,.36.04.7.06,1.05.17.34.35.67.5,1.04-.13.2-.21.33-.28.42.25,1.15.67,2.2,1.3,3.11,1.05,1.53,2.49,2.7,4.3,3.5,1.81.8,3.88,1.2,6.2,1.2h.58c.28-1.15.28-1.88.45-2.88.42-.11.42,1.33,0,1.22.07.37.26,1.22-.07,1.67h5.76v-3.24s-.05-.06-.06-.13c0-.04.04-.07.06-.09v-.64s-.04,0-.06,0c.03-.02.04-.05.06-.07v-1.75c-.16-.12-.38.1-.83.12-.03-.06-.08-.1-.11-.16h-6.46c-.64,0-1.21-.07-1.72-.2-.51-.13-.91-.35-1.2-.66-.29-.31-.49-.69-.6-1.14h6.35c.11-.61.21-1.22.41-1.74-.44-1.02-.46-1.13-1.02-2.19-.26-.69.59,1.25,1.54.97.35,1.29,1.19,2.12,2.03,2.95h3.42c.11-.45.19-1.01.24-1.66.05-.65.08-1.23.08-1.74,0-2.05-.45-3.81-1.34-5.28-.65-1.07-1.47-1.95-2.45-2.66-.06.07-.12,0-.15-.11-.32-.22-.65-.43-1-.61-1.51-.79-3.21-1.18-5.1-1.18ZM173.52,16.19c.05-.27.26-.13.26,0-.05.28-.26.14-.26,0ZM175.05,17.65c-.13-.13.19-.31.26-.24.13.13-.19.31-.26.24ZM185.55,30.54c.11-.35.23.03.51,0-.06.31-.51.24-.51,0ZM185.81,29.81c.13.13-.19.31-.26.24-.13-.13.19-.31.26-.24ZM185.29,28.36c.64.04.07.82,0,.97-.43-.48-.28-1.52-.51-2.19.86-.25.4.76.51,1.22ZM184.01,26.9c.22-.77.34.43.26.73-.22.77-.34-.43-.26-.73ZM184.01,28.36c-.05.28-.26.13-.26,0,.05-.28.26-.13.26,0ZM181.97,28.36c1.11.1-.27,1.41,0,0h0ZM184.27,23.25c-.05.28-.26.13-.26,0,.05-.28.26-.13.26,0ZM184.27,14.49c-.05.27-.26.13-.26,0,.05-.28.26-.14.26,0ZM184.27,15.95c.13.13-.19.31-.26.24-.13-.13.19-.31.26-.24ZM180.94,14.73c.13.13-.19.31-.26.24-.13-.13.19-.31.26-.24ZM177.61,16.43c-.13-.13.19-.31.26-.24.13.13-.19.31-.26.24ZM182.48,21.3c-.13-.13.19-.31.26-.24.13.13-.19.31-.26.24ZM177.92,20.01c.05-.43.15-.83.3-1.2.15-.37.35-.69.62-.96.27-.27.59-.48.98-.64.39-.16.83-.24,1.34-.24.4,0,.77.05,1.1.16.23.07.42.17.6.29.05-.02.11-.04.13-.01.04.04.03.07.02.11.03.03.08.05.11.07.24.2.45.43.62.68.17.25.3.53.38.82.08.29.12.6.12.92h-6.32ZM184.27,17.41c-.13-.13.19-.31.26-.24.13.13-.19.31-.26.24ZM185.29,12.54c.13.13-.19.31-.26.24-.13-.13.19-.31.26-.24ZM185.29,17.89c.13.13-.19.31-.26.24-.13-.13.19-.31.26-.24ZM185.04,19.35c-.13-.13.19-.31.26-.24.13.13-.19.31-.26.24ZM185.29,13.76c-.13-.13.19-.31.26-.24.13.13-.19.31-.26.24ZM185.81,20.08c-.79-.69.45-1.51.26-2.43.67.58-.11,1.83-.26,2.43ZM189.13,17.41c.12-.35.23.03.51,0-.06.31-.51.25-.51,0ZM189.13,15.95c-.7-.74.78.66,0,0h0ZM188.88,20.33c-.11.35-.22-.02-.51,0,.06-.31.51-.24.51,0ZM188.37,23.49c.13.13-.19.31-.26.24-.13-.13.19-.31.26-.24ZM186.57,23c-.04-.28.06-.43.26-.49.04.28-.06.43-.26.49ZM186.57,19.35c-.13-.13.19-.31.26-.24.13.13-.19.31-.26.24ZM187.09,16.68c-.13-.13.19-.31.26-.24.13.13-.19.31-.26.24ZM187.09,13.27c.63,1.18-.31,2.95-.51,4.14-.61-1.15.47-2.79.51-4.14Z"/>
  <path class="st0" d="M185.81,22.52c-.07-.07-.39.12-.26.24.07.07.39-.12.26-.24Z"/>
  <path class="st0" d="M142.28,28.6c.07.35.21.55.32.73v-.92c-.06,0-.15.05-.32.19Z"/>
  <path class="st0" d="M164.55,32.01c-.06-.06-.32.08-.27.21h.19c.09-.05.15-.14.08-.21Z"/>
  <path class="st0" d="M142.6,30.17s-.03.08-.06.13c.02.03.04.07.06.1v-.23Z"/>
  <path class="st0" d="M237.99,11.02s-.08,0-.12,0c-.04,0-.07,0-.11,0,0,.02.01.04.02.06.12.02.18,0,.21-.06Z"/>
  <path class="st0" d="M195.48,29.63c1.01,1,2.22,1.77,3.62,2.3,1.01.39,2.12.63,3.31.73.01-.06.02-.13.05-.18.01.06.02.13.03.19.32.03.66.04,1,.04-.04-.84-.11-1.71.25-2.18.73.12.9.76,1.02,1.46.51-.08.8.05.77.49.73.04-.31-1.59.77-1.22.03.31.13.74.21,1.2,1.2-.23,2.31-.59,3.31-1.14.3-.16.58-.35.86-.54,0,0-.03,0-.03,0-.13-.13.19-.31.26-.24.03.03.03.06.02.09,1.2-.85,2.17-1.92,2.91-3.22.96-1.68,1.44-3.65,1.44-5.92V3.01h-7.68v5.89c.43-.21.46.57,0,.41v3.82h-.24c-.4-.48-.87-.88-1.4-1.2-.53-.32-1.11-.55-1.74-.7-.63-.15-1.31-.22-2.06-.22-1.84,0-3.5.44-4.98,1.32-.5.3-.95.65-1.38,1.02-.01.23-.02.45,0,.64-.22-.01-.34-.12-.42-.26-.67.66-1.25,1.41-1.74,2.27-.57,1.02-.93,2.16-1.13,3.41.07-.06.18-.1.22-.07.13.12-.17.3-.25.25-.09.63-.16,1.28-.16,1.97,0,1.65.27,3.16.82,4.52.55,1.36,1.33,2.54,2.34,3.54ZM208.59,24.95c-.13-.13.19-.31.26-.24.13.13-.19.31-.26.24ZM208.34,7.19c0-.24.31-.19.51-.24,0,.24-.32.19-.51.24ZM209.62,14.98c-.13-.13.19-.31.26-.24.13.13-.19.31-.26.24ZM210.39,12.06c.82.27.73,1.42,1.02,2.19-1.08-.03-.85-1.3-1.02-2.19ZM210.39,8.41c-.7-.74.78.66,0,0h0ZM211.16,19.11c-.13-.13.19-.31.26-.24.13.13-.19.31-.26.24ZM211.67,19.6c-.13-.13.19-.31.26-.24.13.13-.19.31-.26.24ZM211.92,7.19c.34.16.48.52.51.97-.77.24-.45-.54-.51-.97ZM212.95,19.35c.13.13-.19.31-.26.24-.13-.13.19-.31.26-.24ZM212.69,18.87v-.49h.51v.49h-.51ZM212.69,25.19c.05-.28.26-.14.26,0-.05.28-.26.13-.26,0ZM213.2,25.68c.13.13-.19.31-.26.24-.13-.13.19-.31.26-.24ZM213.2,26.41c-.05.28-.26.13-.26,0,.05-.28.26-.13.26,0ZM213.2,27.87c.05-.28.26-.14.26,0-.05.27-.26.13-.26,0ZM213.46,27.38h-.51v-.49h.51v.49ZM214.23,26.41c-.45-.39-.56-1.09-.51-1.95.45.39.56,1.09.51,1.95ZM214.23,5.97c-.05.28-.26.14-.26,0,.05-.28.26-.13.26,0ZM213.72,19.6c.13.13-.19.31-.26.24-.13-.13.19-.31.26-.24ZM213.46,11.33c-.05.28-.26.14-.26,0,.05-.27.26-.13.26,0ZM212.44,5.49c.23-.48.86-.48.26,0,.19.88-.44.88-.26,0ZM212.18,6.46c-.08.5-.69.48-.77.97-.63-.23.33-.96.77-.97ZM211.41,7.68c.13.13-.19.31-.26.24-.13-.13.19-.31.26-.24ZM210.9,11.08c.13.13-.19.31-.26.24-.13-.13.19-.31.26-.24ZM210.39,5.97c-.05.28-.26.14-.26,0,.05-.28.26-.13.26,0ZM210.13,6.46c.37.06.09.73.51.73-.29.78-.73-.23-.51-.73ZM209.88,13.76c.13.13-.19.31-.26.24-.13-.13.19-.31.26-.24ZM209.62,11.57h-.77c.13-.2.27-.4.26-.73.55-.11.49.35.51.73ZM209.36,5.24c-.05.28-.26.14-.26,0,.05-.28.26-.14.26,0ZM208.59,6.7c-.13-.13.19-.31.26-.24.13.13-.19.31-.26.24ZM208.08,5.24c.21.13.42.25.77.24v.73c-.25,0-.2-.3-.26-.49-.22-.04-.24.09-.26.24-.22.04-.24-.09-.26-.24v-.49ZM200.91,28.11c0-.24.32-.19.51-.24,0,.24-.31.19-.51.24ZM204.5,30.54c-.42-.42-.78-.89-.77-1.7.39.44.92.75.77,1.7ZM207.06,27.38c-.13-.13.19-.31.26-.24.13.13-.19.31-.26.24ZM207.57,26.65c.13.13-.19.31-.26.24-.13-.13.19-.31.26-.24ZM206.03,14.24c.13.13-.19.31-.26.24-.13-.13.19-.31.26-.24ZM204.75,14.24c-.05.28-.26.14-.26,0,.05-.27.26-.13.26,0ZM202.45,13.52c-.14.37-.27.02-.26-.24.14-.37.27-.01.26.24ZM202.19,17.16c.46.18.04.44,0,.73-.46-.18-.04-.44,0-.73ZM201.68,14.98c.13.13-.19.31-.26.24-.13-.13.19-.31.26-.24ZM200.62,19.85c.31-.59.74-1.05,1.3-1.4s1.19-.52,1.88-.52,1.35.17,1.9.52c.55.35.97.81,1.28,1.4.31.59.46,1.27.46,2.04s-.15,1.51-.46,2.14c-.31.63-.73,1.11-1.28,1.46-.55.35-1.18.52-1.9.52-.3,0-.59-.04-.86-.1.02.08.03.16.03.26-.59,1.54-.09,4.13-.26,6.08-.92-.68-.49-2.1-.51-3.16-.02-1.1-.03-2.29-.03-3.46-.08-.04-.16-.08-.24-.13-.56-.35-.99-.83-1.3-1.46-.31-.63-.46-1.34-.46-2.14s.15-1.45.46-2.04ZM195.79,21.79c.05-.28.26-.14.26,0-.05.27-.26.13-.26,0ZM198.61,25.19c.13.13-.19.31-.26.24-.13-.13.19-.31.26-.24ZM196.82,25.44c.09-.29.68-.2.77,0,.23.53-.94.56-.77,0ZM196.82,30.3c-.56-.04-.55-.61-.51-1.22.38.21.55.61.51,1.22ZM196.05,27.14c-.13-.13.19-.31.26-.24.13.13-.19.31-.26.24ZM196.3,25.68c-.14.37-.27.02-.26-.24.13-.37.27-.02.26.24ZM196.05,21.3c-.63-.96-.43-2.43-.51-4.38.76,1.37.32,1.98.51,4.38ZM195.28,17.65c-.11.35-.22-.03-.51,0,.06-.31.51-.25.51,0ZM195.02,16.43c.13.13-.19.31-.26.24-.13-.13.19-.31.26-.24Z"/>
  <path class="st0" d="M238.04,11.08c-.1,1.14.45,1.38-.26,1.95.73,1.69.6,3.33.7,4.98.41.08.79.22,1.13.44.55.35.97.81,1.28,1.4.31.59.46,1.27.46,2.04s-.15,1.51-.46,2.14c-.31.63-.73,1.11-1.28,1.46-.06.04-.12.07-.19.1.11.38.25.72.4,1.06v1.7c.06.92.96,1.03,1.02,1.95-.43.09-.48-.19-.51-.49-.18.47-.23.9-.25,1.34.05-.04.11-.07.15-.12.57-.55,1.03-1.18,1.38-1.9h.24v3.08h3.83c0-.39,0-.77.02-1.18.04-.6-.13-1.01-.51-1.22,0-.48.7-.31.51-.97v-3.65c-.06-1.16.25-2.67-.51-3.16-.83-.3-.2.79-1.02.49-.08-.89.69-.97,1.28-1.22.12-2.6.18-5.18.17-7.6-.56-.49-1.16-.93-1.84-1.3-1.61-.88-3.49-1.33-5.63-1.37-.03.03-.07.06-.12.06ZM245.21,23.49c.13.13-.19.31-.26.24-.13-.13.19-.31.26-.24ZM245.21,19.6c.13.13-.19.31-.26.24-.13-.13.19-.31.26-.24ZM244.44,27.62c-.06.31-.51.25-.51,0,.11-.35.22.03.51,0Z"/>
  <path class="st0" d="M216.88,5.29c0,1.09.4,2.05,1.2,2.86.39.4.83.7,1.3.9.22-.68.89-.29.98.26.2.03.39.06.6.06.12,0,.23-.02.34-.03.03-.21-.09-.3-.67-.2.31-.46.78-.2,1.03.17.82-.14,1.55-.52,2.18-1.15.8-.81,1.2-1.77,1.2-2.86s-.37-1.98-1.09-2.76c-.08.01-.17.02-.25.04,0-.1.06-.14.14-.17,0,0,0,0,0,0-.8-.81-1.76-1.22-2.88-1.22s-2.08.41-2.88,1.22c-.8.81-1.2,1.78-1.2,2.9ZM222.68,7.92c-.29-.51-.27-.52.26-.24.14.51-1,.52-.26.24ZM223.96,6.7c-.04.29-.47.21-.77.24.04-.28.47-.2.77-.24ZM222.93,6.46h-.51v-.73c.34.09.4.43.77.49.05.21-.1.23-.26.24ZM222.17,5.49c-.13-.13.19-.31.26-.24.13.13-.19.31-.26.24ZM222.17,4.51c.05-.28.26-.14.26,0-.05.28-.26.14-.26,0ZM221.91,1.35c.42.25.28,1.03.51,1.46-.92.23-.36-.96-.51-1.46ZM222.17,7.92c0,.24-.31.19-.51.24,0-.24.32-.19.51-.24ZM221.65,6.46c-.23.15-.46.3-.51,0,.06-.31.51-.24.51,0ZM221.4,5.73c.13.13-.19.31-.26.24-.13-.13.19-.31.26-.24ZM221.65,8.41c-.1.61-1.17.19-.77-.49.57-.13.36.47.77.49ZM220.89,7.19c-.7-.31-.78-1.21-.77-2.19.75.26.83,1.16.77,2.19ZM219.61,6.7c1.08.02-.16,1.07.77,1.46-.81,1.01-1.09-1.34-.77-1.46Z"/>
</svg>