<?xml version="1.0" encoding="UTF-8"?>
<svg id="Layer_1" xmlns="http://www.w3.org/2000/svg" version="1.1" viewBox="0 0 250 75">
  <!-- Generator: Adobe Illustrator 30.3.0, SVG Export Plug-In . SVG Version: 2.1.3 Build 182)  -->
  <defs>
    <style>
      .st0 {
        fill: #fff;
      }
    </style>
  </defs>
  <path class="st0" d="M231.78,72.32h.63c.29-.18.52-.46.27-.7-.22-.21-1.08.29-.9.7Z"/>
  <g>
    <path class="st0" d="M247.46,26.68c-.19.31-.72.56-.89.4-.43-.41.51-.97.81-.83-.12-.9-.28-1.77-.47-2.63-.67-2.61-1.67-5.02-2.99-7.19-2.66-4.39-6.47-7.84-11.31-10.27-4.83-2.42-10.63-3.66-17.24-3.71.19.41-.72.92-.94.71-.25-.24-.03-.53.26-.71-3.35.02-6.48.35-9.3.98-2.91.66-5.52,1.55-7.74,2.63-2.21,1.08-4.16,2.32-5.78,3.69,0,0,0,0,0,0,.45.43-.63,1.05-.87.82-.08-.08-.1-.16-.1-.24h-1.96l-.69-.61c-1.52-1.35-3.42-2.58-5.66-3.66-2.28-1.1-4.91-1.99-7.82-2.65-2.92-.67-6.16-1.01-9.64-1.01h-.04c-3.46,0-6.69.35-9.69,1.01.26,4.89-.84,11.08.87,14.59.25,1.34-.82,1.42-.87,2.48,2.42,1.23-1.83,3.68,1.73,3.3-1.81,1.34-1.43,2.47-1.09,4.24.95-1.81,2.34-3.32,4.14-4.49,1.85-1.19,4.03-1.79,6.46-1.79h.01c2.52,0,4.76.6,6.65,1.79,1.86,1.17,3.3,2.68,4.3,4.5,1,1.82,1.5,3.86,1.5,6.04v6.52c.23-.06.28,0,0,.28l-.03,31.46h9.05c.64-4.38-.87-7.73.26-12.25.45-1.27.9-.05.87.82.14.96-.19,1.47-.87,1.65.82,2.19,1.37,6.77.66,9.78h9.73c.31-1.07.32-2.24-.84-2.36.63-2.71,3.67,1.73,2.07,2.36h1.24l.03-38.24c0-2.18.48-4.19,1.41-5.99.95-1.83,2.35-3.36,4.16-4.53,1.85-1.19,4.07-1.79,6.6-1.79h.01c2.55,0,4.76.62,6.57,1.83,1.75,1.17,3.12,2.69,4.06,4.51.03.06.05.12.08.18.27-.28.68.08.68.43-.05.29-.16.44-.28.5.6,1.51.91,3.14.91,4.88v.28c.07.05.15.09.23.12v6.6c-.4,1.29.61,3.91-.24,4.76v3.75c.07-.08.14-.16.24-.27,1.58-1.35.43-.19-.25.42v2.42c.14.1.25.28.25.46-.05.27-.14.41-.25.48v2.78c.1-.02.2-.02.25.03.25.23.03.53-.25.71v5.26c.06-.32.14-.66.25-1.02,2.12,3.76.33,5.3-.26,3.7v7.68s.04.03.07.05h.19c-.54-4.06,2.39-4.8,2.61-8.13,3.81.79,5.11,3.95,6.95,6.6-.39.47-.71,1.01-1.04,1.53h13.5V31.36c0-1.62-.1-3.18-.28-4.69ZM158.02,6.46c-.45-.43.63-1.05.87-.82.45.43-.63,1.05-.87.82ZM164.09,18c-.45-.43.63-1.05.87-.82.45.43-.63,1.05-.87.82ZM165.83,16.36c.17-.94.87-.46.87,0-.17.93-.87.45-.87,0ZM171.9,13.06c-.45-.43.63-1.05.87-.82.45.43-.63,1.05-.87.82ZM197.95,54.3c-.16.93-.87.45-.87,0,.17-.94.87-.46.87,0ZM196.21,42.75c.45.43-.63,1.05-.87.82-.45-.43.63-1.05.87-.82ZM195.35,55.95c-.45-.43.63-1.05.87-.82.45.43-.63,1.05-.87.82ZM193.61,35.32c2.64-2.25-2.37,2.51,0,0h0ZM184.93,8.1c-.17.94-.87.46-.87,0,.17-.93.87-.45.87,0ZM181.45,12.23c-.22,1.03-1.73.83-1.73,0,.38-1.21.76.08,1.73,0ZM179.72,62.55c.02-.8,1.06-.64,1.73-.82-.02.8-1.06.64-1.73.82ZM179.72,24.6c-.04-3,.48-6.51-1.74-7.42.64-1.47,1.58-.12,2.61,0,.67,4.86,3.13,8.02,3.47,13.2-2.4-.18-1.31-4.3-4.34-5.78ZM189.27,55.12c-.45-.43.63-1.05.87-.82.45.43-.63,1.05-.87.82ZM190.13,55.95c1.29.7,1.87,2.08,1.74,4.12-1.05-1.28-3.83-2.21-1.74-4.12ZM191.87,61.72c1.48-3.13,1.43,1.79,2.61,1.65-1.48,3.13-1.43-1.79-2.61-1.65ZM195.35,69.15c-.19-3.02-1.19-3.16,0-5.78-1.49-3.53-1.91-8.08-5.21-9.9-.46-8.91-4.99-13.95-6.07-22.27,2.22,3.11,4.32,6.34,4.34,11.55,1.64-.61.6-2.46,2.61-.82-3.56,2.09.99,1.99-.87,4.95,1.08,2.87,2.53,1.52,4.35,2.48-1.1,1.65-2.95,3.83,0,4.12-2.46,4.3,3.86,6.55,2.6,12.38-.7-.16-.87-.83-1.73-.82-.27,2.17,1.2,2.71,3.47,2.47-.57,1.11-1.86,1.54-3.47,1.65ZM197.95,61.72c-.45-.43.63-1.05.87-.83.45.43-.63,1.05-.87.83ZM197.95,48.52c.03-.8,1.07-.64,1.74-.82-.02.8-1.06.64-1.74.82ZM198.82,20.48c-.46-.43.63-1.05.87-.82.45.43-.63,1.05-.87.82ZM214.45,8.1c-.45-.43.63-1.05.87-.82.45.43-.63,1.05-.87.82ZM224,26.25c-.45-.43.62-1.05.87-.83.45.43-.63,1.05-.87.83ZM225.73,13.88c1.47-.3,1.64.64,1.73,1.65-.74-.15-.82.32-.87.83-1.02-.14-.73-1.51-.87-2.48ZM227.46,27.08c.45.43-.63,1.05-.87.82-.45-.43.63-1.05.87-.82ZM226.6,36.15c.39-1.2.77.09,1.74,0-.22,1.04-1.73.84-1.74,0ZM230.07,46.87c-.45-.43.63-1.05.87-.82.45.43-.63,1.05-.87.82ZM230.94,32.02c-.45-.43.63-1.05.87-.82.45.43-.63,1.05-.87.82ZM230.94,14.7c-.74-2.63,1.37-2.55,1.74-4.12,1.14.29,1.36,1.45,2.61,1.65-.61,1.62-2.32,2.2-4.35,2.47ZM239.62,18c-.45-.43.63-1.05.87-.82.45.43-.63,1.05-.87.82ZM241.36,32.85c-.45-.43.63-1.05.87-.82.45.43-.62,1.05-.87.82ZM242.22,61.72c-.45-.43.63-1.05.87-.83.45.43-.63,1.05-.87.83Z"/>
    <path class="st0" d="M149.34,5.36c.23.15.51.3.86.27-.21.98-1.56.84-1.71.12-.24.11-.49.21-.72.33-.76.38-1.48.79-2.18,1.23,1.06.17,1.47.95,2.87.79-.51,3.23.75,4.8,1.74,6.6,1.83,2.02-.92-1.23-2.61-.82,1-3.63-3.91-3.86-3.07-5.89-2.44,1.65-4.54,3.61-6.3,5.88.79,1.04,1.56,2.11,2.26,3.24,3.8,6.12,5.73,13.26,5.72,21.22,0,4.74-.71,9.19-2.07,13.32.13.2.38.29.85.17-.2.66-.51.51-.99.29-.91,2.64-2.08,5.14-3.54,7.5-.13.22-.29.41-.42.63.33.08.61.31.62.66-.29.92-.59.39-1.14.12-2.02,2.98-4.38,5.63-7.07,7.93v3.38s22.16,0,22.16,0v-13.88c-1.04-1.51-2.65-2.48-5.27-2.5-.07-2.68-.45-5.08-1.73-6.6.3-1.29,1.52.72,1.73-.82,1.97.87.33,5.18.87,7.42,1.54-.19,4.35.83,3.47-1.65,1.63,1.06-.27,2.03.94,2.9v-16.33c-.98,1.08-1.05,3.04-.94,5.18-3.71-1.65-.8-4.65.95-6.53v-5.47c0-1.12.14-2.2.39-3.23-.49-9.22-.95-17.43-1.18-27.02-1.57.42-3.06.95-4.49,1.56ZM144.99,18.82c-.45-.43.63-1.05.87-.82.45.43-.63,1.05-.87.82ZM139.78,69.15c-.45-.43.63-1.05.87-.82.45.43-.63,1.05-.87.82ZM144.12,56.77c.17-.93.87-.45.87,0-.17.94-.87.46-.87,0ZM145.86,51c.17-.94.87-.46.87,0-.17.93-.87.45-.87,0Z"/>
    <path class="st0" d="M140.18,47.13c.15-.62.28-1.25.4-1.88.41-2.27.63-4.63.63-7.09,0-2.1-.17-4.11-.46-6.06-.08-.51-.15-1.01-.24-1.51-.79-4.04-2.23-7.75-4.34-11.13-.36-.57-.73-1.12-1.12-1.67-.94-1.34-1.95-2.6-3.04-3.78-2.62-2.78-5.67-5.13-9.14-7-5.65-3.05-12.01-4.6-18.92-4.6h-.04c-6.53,0-12.61,1.4-18.11,4.12.16,1.45,2.72,6.57-.85,6.41.42-2.03.21-3.99-.11-5.94-4.36,2.31-8.08,5.34-11.1,9.03,2.68,4.99,4.04,10.62,4.04,16.79l-.03,31.94c2.11,1.86,4.44,3.48,7.02,4.84,4.86,2.56,10.18,3.96,15.91,4.34.1-.16.23-.32.41-.5.26.2.44.39.59.56.67.03,1.32.11,2,.11,2.99,0,5.84-.34,8.6-.9.23-.43.64-1.31.7-1.38.05-.06-.06-.8,0-.81,1.82-.3,1.47,1.05.7,1.93,3.11-.75,6.08-1.87,8.9-3.35,3.76-1.98,7.01-4.51,9.75-7.55,1.41-1.57,2.7-3.27,3.85-5.12,1.86-3.01,3.19-6.28,4.02-9.79ZM80.7,29.87c-.44-.42.61-1.03.85-.8.44.42-.61,1.03-.85.8ZM82.4,29.87c-.44-.42.61-1.03.85-.8.44.42-.61,1.03-.85.8ZM111.27,22.61c-1.14-.53-1.58-1.72-1.7-3.23,2.56-.81,1.51,1.8,1.7,3.23ZM97.69,9.7c-.21,1.02-1.69.82-1.7,0,.38-1.17.74.09,1.7,0ZM89.2,9.7c-.16.92-.85.45-.85,0,.16-.91.85-.44.85,0ZM90.89,71.82c.02-.79,1.04-.63,1.7-.81-.02.78-1.04.63-1.7.81ZM92.59,53.26c.44.42-.61,1.03-.85.8-.44-.42.61-1.03.85-.8ZM92.59,70.2c-.44-.42.61-1.03.85-.8.44.42-.61,1.03-.85.8ZM98.53,58.11c3.68.33-.89,4.68,0,0h0ZM99.38,56.49c-.44-.42.61-1.03.85-.8.44.42-.61,1.03-.85.8ZM101.93,55.69c.16-.92.85-.45.85,0-.16.91-.85.44-.85,0ZM107.03,66.17c-.44-.42.61-1.03.85-.8.44.42-.61,1.02-.85.8ZM107.03,60.52c-.44-.42.61-1.03.85-.81.44.42-.61,1.03-.85.81ZM111.82,52.52c-.72.45-1.48.82-2.27,1.13-.43,6.48,4.15,11.7,2.57,16.56-2.37-.44,1.19-6.51-3.4-4.84-.26-4.6-.95-7.87-1.67-10.97-1.05.21-2.15.32-3.28.32h-.01c-2.99,0-5.71-.75-8.06-2.21-2.33-1.45-4.19-3.45-5.52-5.94-1.31-2.47-1.98-5.3-1.98-8.42,0-3.13.68-5.95,2-8.37,1.33-2.43,3.19-4.4,5.52-5.84,1.97-1.21,4.18-1.92,6.58-2.13-1.93-3.4-2.22-8.35-2.92-12.91,1.76-.69,2.21,2.08,2.55,3.23.73,2.49.66,5.82.82,9.64.34-.02.68-.03,1.02-.03h.02c2.98,0,5.69.74,8.06,2.21,2.35,1.46,4.18,3.44,5.46,5.89,1.26,2.42,1.9,5.22,1.89,8.34,0,3.1-.64,5.92-1.9,8.38-1.29,2.51-3.13,4.52-5.48,5.97ZM118.91,58.11c-.16.91-.85.44-.85,0,.16-.92.85-.45.85,0ZM118.06,63.75c-.15-.69.33-.76.85-.81.16-.68-.33-.76-.85-.8.93-3.31,3.55,2.87,0,1.61ZM130.8,48.43h-3.4c-.67-3.11,4.07-3.11,3.4,0ZM130.8,41.17c-.44-.42.61-1.03.85-.81.44.42-.61,1.03-.85.81Z"/>
    <path class="st0" d="M68.55,17.24c-2.78-4.63-6.77-8.27-11.97-10.91-1.37-.7-2.82-1.29-4.32-1.8.21,6.36.66,12.85,2.32,17.38v1.61c-2.61-.56-1.63-.56-4.23,0,.82-7,.28-13.05-.1-19.55-2.5-.69-5.16-1.16-7.99-1.41-1.28-.09-2.58-.16-3.92-.16h-.05c-4.84,0-9.3.62-13.34,1.81.41.42-.62,1.02-.85.79-.19-.18-.09-.39.09-.56-1.69.54-3.32,1.18-4.86,1.93-5.33,2.61-9.53,6.25-12.48,10.8-2.94,4.52-4.43,9.76-4.43,15.58l-.03,39.71h5.47c1.38-1.37,2.75-2.77,3.54-4.7,2.78,1.67-1.55,3.28-2.54,4.03.09.26.14.48.17.68h3.78s11.74,0,11.74,0v-16.65c-.89.17-1.38-.7-.45-.93.13-.03.3,0,.47.02v-15.45c-.82-.38-1.35-1.05-1.31-2.27.57.19,1.03.49,1.33.94v-3.66c0-2.19.53-4.27,1.57-6.18,1.06-1.93,2.61-3.52,4.63-4.73,2.02-1.21,4.36-1.82,6.96-1.82h.01c2.63,0,4.94.63,6.88,1.87,1.88,1.2,3.36,2.77,4.4,4.67.43.03.9.02,1.3.07-.16.39-.49.65-.89.8.52,1.14.88,2.34,1.05,3.58.81-.9,1.73-1.83,2.38-2.78,1.06-1.54,1.43-3.78,1.69-4.02.6-.54,2.87.6,2.54-.8.16-.68-.33-.76-.85-.8,1.41.05,2.27-1.82,5.08-2.42-.22,3.83-6.86,5.79-5.08,8.85-1.69.22-4.56,2.95-5.64,6.22l-.03,35.5h7.65c.11-1.78.28-3.61.56-5.52.38,1.71.64,3.57.82,5.52h1.69c-.17-.4.66-.89.88-.68.24.23.02.51-.26.68h10.78v-39.42c0-4.46-.79-8.55-2.38-12.28-.51-1.21-1.11-2.39-1.79-3.52ZM8.85,51.67c.16-.92.85-.45.85,0-.16.91-.85.44-.85,0ZM22.4,21.9c2.57-2.2-2.31,2.44,0,0h0ZM19.02,50.06c.44.42-.61,1.03-.85.8-.44-.42.61-1.02.85-.8ZM14.78,14.66c.07-.13.28-2.28.85-1.61.68.81-2.05,3.9-.85,1.61ZM11.39,21.1c-.44-.42.61-1.03.85-.81.44.42-.61,1.03-.85.81ZM12.24,18.69c-.44-.42.61-1.03.85-.8.44.42-.61,1.03-.85.8ZM13.08,66.96c.02-.78,1.04-.63,1.69-.8-.02.78-1.04.63-1.69.8ZM16.47,62.13c1.4,2.3-3.52,4.51,0,0h0ZM16.47,10.64c-.44-.42.61-1.03.85-.81.44.42-.61,1.03-.85.81ZM18.17,58.91c-.44-.42.61-1.03.85-.8.44.42-.61,1.02-.85.8ZM19.02,42.02c.16-.92.85-.45.85,0-.16.91-.85.44-.85,0ZM19.02,27.54c-.44-.42.61-1.03.85-.81.44.42-.61,1.03-.85.81ZM20.71,70.17c-2.03-1.75,2.05.1,2.54.8-.83,2.67-1.67-.9-2.54-.8ZM23.25,56.5v2.42c-.68-.43-1.37-.84-2.54-.8.16-.65.85-.8.84-1.61h1.69ZM27.48,17.07c-.44-.42.61-1.02.85-.8.44.42-.61,1.03-.85.8ZM33.41,12.25c-.44-.42.61-1.03.85-.8.44.42-.61,1.03-.85.8ZM40.18,12.25c-.44-.42.61-1.03.85-.8.44.42-.61,1.03-.85.8ZM52.04,23.51c.99.13.71,1.47.85,2.42-.99-.13-.72-1.46-.85-2.42ZM58.81,17.88c1.14.53,1.58,1.72,1.69,3.22-1.49-.2-1.93-1.39-1.69-3.22ZM58.81,35.58c2.46.7.95,1.2.85,3.22-1.96-.23-1.95-2.15-.85-3.22ZM52.89,40.41c-.02.78-1.04.63-1.69.81.02-.79,1.04-.63,1.69-.81ZM53.73,50.06c-.03.78-1.04.63-1.69.8.02-.78,1.03-.62,1.69-.8ZM52.04,63.74c-.44-.42.61-1.03.85-.8.44.42-.61,1.03-.85.8ZM52.89,58.91c-.44-.42.61-1.03.85-.8.44.42-.61,1.02-.85.8ZM53.73,40.41c-.44-.42.61-1.03.84-.8.44.42-.61,1.03-.84.8ZM55.43,42.02c-1.48.92.74-2.4.85-1.61-.19-1.37-1.82-1.87-.85-4.02,3.83,1.8.39,5.39,0,5.63ZM56.27,42.82c2.84-1.94-2.05,2.7,0,0h0ZM57.12,62.13c-.44-.42.61-1.03.85-.81.44.42-.61,1.03-.85.81ZM57.97,54.08c.16-.91.85-.44.85,0-.16.92-.85.45-.85,0ZM58.81,41.21c-.44-.42.61-1.03.85-.81.44.42-.61,1.03-.85.81ZM59.66,44.43c.16-.91.85-.44.85,0-.16.92-.85.45-.85,0ZM68.13,20.29c2.84-1.94-2.05,2.7,0,0h0ZM65.59,17.07c2.84-1.94-2.05,2.7,0,0h0ZM64.74,58.11c.44.42-.61,1.02-.85.8-.44-.42.61-1.03.85-.8ZM63.05,21.9c-.44-.42.61-1.03.85-.8.44.42-.61,1.03-.85.8ZM64.74,69.37c3.37,4.16-4.41,3.11,0,0h0ZM65.59,29.14c.48-.45,1.1-.77,1.72-1.08-.08.29-.14.59-.21.88-.94,1.17-1.21,2.73-1.51.2ZM69.82,58.91c-.44-.42.61-1.03.85-.8.44.42-.61,1.02-.85.8ZM71.52,68.57c-.44-.42.61-1.03.85-.81.44.42-.61,1.03-.85.81Z"/>
  </g>
</svg>