<?xml version="1.0" encoding="UTF-8"?>
<svg id="Layer_1" xmlns="http://www.w3.org/2000/svg" version="1.1" viewBox="0 0 230 146.77">
  <!-- Generator: Adobe Illustrator 29.6.0, SVG Export Plug-In . SVG Version: 2.1.1 Build 207)  -->
  <defs>
    <style>
      .st0 {
        fill: #6d5a38;
      }

      .st0, .st1, .st2 {
        stroke-width: .49px;
      }

      .st0, .st2 {
        stroke: #fff;
      }

      .st3 {
        fill: #9aa0a6;
      }

      .st4 {
        fill: #d4d6d8;
      }

      .st5 {
        fill: #9b8579;
      }

      .st1 {
        fill: none;
        stroke: #c8caca;
      }

      .st2 {
        fill: #ef7763;
      }
    </style>
  </defs>
  <polygon class="st0" points="213.08 23.63 206.16 25.34 206.38 26.9 207.02 28.93 207.02 29.95 206.97 31.02 207.5 31.93 208.04 33.16 208.68 34.4 209.16 35.84 209.22 37.29 212.06 36.91 212.17 28.13 213.45 26.95 213.5 25.5 213.08 25.02 213.08 23.63"/>
  <path class="st2" d="M197.12,90.63l-5.63-4.02-4.93.27-1.02-1.29-6.16.32-3.91,1.98-5.2,2.27-23.28-3.18-.82-4.05,25.5,2.77,2.18-4.35.37-1.12-4.01-.54-13.03,3.03,1.45-.11.91-1.34,21.45-3.55,11.78-1.39,13.18-2.84.7,1.18,1.66,2.47-.48,1.45-.7.91-.54.86-1.71.32-.05,1.98,1.77.21-.91,1.71s-4.71-.48-5.79,5.62l-2.79.43h0Z"/>
  <polygon class="st3" points="153.19 107.99 153.41 89.99 164.82 89.18 164.82 90.95 168.52 102.41 169.32 103.65 169.37 104.83 168.84 105.31 169.1 109.7 169.53 110.07 169.64 110.83 153.19 107.99"/>
  <g>
    <polygon class="st4" points="216.67 43.39 216.08 40.01 217.79 39.53 219.51 41.89 219.24 42.48 218.54 42.58 216.67 43.39"/>
    <path class="st0" d="M201.83,43.07l-17.52,3.64-.11-1.82,2.78-2.89-.11-.86s-3.64-1.71,1.23-3c-.16.16,3.11.05,3.11.05l.75.21.91-.37,1.45-.32,1.39-1.66,1.07-.21-.06-1.23-.27-1.07-.8-.32-.22-1.18,1.34-1.34,1.02-1.23.86-1.5,1.23-1.29,2.03-.48,1.82-.43,1.18-.21,1.23-.43.11,1.12.7,2.25v2.3l2.2,4.82.21,5.68.48,5.46-.11.86-.06.64.81-.54,2.14-.59,1.93-1.12.75-.64.8.37-.91,1.07-2.04,1.45-1.93.86-1.61.43h-.59l.05-2.25-3.8-1.13-1.02-.59-.54-.91-.37-.96-.75-.05-.8-.59h.04Z"/>
    <path class="st0" d="M181,77.72l-26.03,3h-2.03l.05,1.29-6.69.1-.11,2.04-.8,1.93-.21,1.39-.38.54-.96.16.11.64.32.21-.32,1.45,9.27-.43,11.63-.86,5.52-.8,5.14-.48,5.1-2.21h4.78l1.21,1.19,4.93-.27,5.63,4.02,2.57-.63c1.09-5.9,6.02-5.71,6.02-5.71l.67-1.52-1.54-.12.02-2.13,1.82-.43,1.15-1.64.43-1.52-2.07-3.46-13.55,2.92-11.64,1.33h-.04Z"/>
  </g>
  <g>
    <polygon class="st5" points="181.17 47.59 180.25 47.83 176.59 50.72 176.15 51.13 174.98 51.21 173.98 51.77 172.85 51.77 172.05 51.21 170.44 51.17 169.48 50.36 168.64 50.77 166.71 50.89 163.77 51.13 165.54 65.91 166.71 65.99 166.91 65.67 167.51 65.79 168.43 67.28 170.08 67.32 170.4 68 171.01 67.6 171.37 67.32 171.97 67.4 172.49 67.92 173.66 66.75 173.98 66.92 175.37 68.24 176.28 68.24 176.43 67.6 176.87 67.17 177.08 64.92 177.78 64.87 177.78 65.46 178.37 65.35 178.32 63.58 178.91 62.4 180.08 62.19 181.85 60.42 181.74 55.44 182.25 54.14 181.17 47.59"/>
    <polygon class="st5" points="152.85 52.73 153.81 53.06 155.78 51.85 163.77 51.13 165.54 65.91 165.14 66.43 165.34 66.92 165.78 67.28 164.62 68.2 163.29 68.24 163.17 69.73 161.48 71.3 161.44 72.58 160.04 72.5 159.72 72.18 158.91 72.74 158.87 73.71 158.23 73.62 157.79 72.98 157.1 73.18 156.42 74.11 155.86 74.07 155.46 73.5 153.33 73.75 152.24 74.55 152.32 72.38 153.97 69.85 154.21 67.88 153.53 67.2 152.85 52.9 152.85 52.73"/>
    <polygon class="st5" points="151.11 48.37 151.16 49.92 152.07 51.05 152.85 52.73 153.53 67.2 154.21 67.88 153.97 69.85 152.32 72.38 152.07 76.44 150.76 76.76 150.8 77.88 151.04 78.13 150.72 78.97 149.07 78.24 147.83 78.65 147.79 79.54 146.98 79.49 146.34 78.15 146.39 77.35 145.43 75.15 144.14 75.15 141.95 72.42 143.07 69.9 142.7 69.37 140.34 68.99 140.39 67.6 137.13 64.65 136.64 63.31 136.59 61.17 137.18 60.85 137.07 59.78 138.25 59.46 138.25 58.12 138.84 57.74 138.68 56.89 138.09 56.4 138.14 55.54 138.68 55.06 139.64 55.06 141.04 53.99 141.62 51.58 139.38 49.55 139.32 48.74 151.11 48.37"/>
    <path class="st5" d="M136.7,43.82l-.11-1.87-2.89-2.41-.59-.91h-.8l-.16-.7h-1.12l-.75-.86-.16-2.84.32-.8.05-.8-.7-.75.32-.64,1.93-2.2.21-3.05s2.36.05,2.2,0,2.84-1.61,2.84-1.61l.8.38-.96,1.39.48.32,1.02-.21,1.07.59.65.8,1.12.21,2.35.43,4.55,1.07,1.07,1.02.43,2.36.7,1.02-1.39,2.36.16.91.54-.16,3.05-4.39.21.8-1.71,4.02v1.82l-.43,1.07.27,1.5-.59,1.07-.27,1.18.7,4.44-11.78.37-1.18-.59-.96-1.07-.11-1.34.8-.43-.32-.64-.86-.86h0Z"/>
    <polygon class="st5" points="113.07 13.82 113.66 15.16 111.86 16.89 113.34 19.07 116.24 21.02 119.16 24.43 126.94 26.61 136.7 43.82 136.59 41.94 133.7 39.53 133.27 38.62 132.3 38.62 132.14 37.92 131.02 37.92 130.27 37.07 130.11 34.23 130.43 33.42 130.48 32.62 129.79 31.87 129.89 31.44 132.04 29.03 132.25 25.98 135.52 23.19 136.27 21.8 142 18.69 142.21 18.21 140.82 18.32 140.02 17.89 137.29 17.84 137.18 17.3 135.46 18.32 133.91 18.32 133.8 17.68 132.84 17.68 132.57 16.71 131.71 17.19 129.31 15.64 127.86 15.53 127.16 16.02 126.09 16.12 125.77 15.69 124.43 15.75 123.2 15.21 122.18 11.68 120.79 11.57 120.84 13.61 113.07 13.82"/>
    <polygon class="st5" points="155.78 51.85 156.78 50 157.63 48.64 157.59 45.38 155.7 42.17 155.98 38.55 156.42 35.54 156.99 35.34 156.86 34.21 157.95 33.33 158.19 32.45 158.75 32.25 158.95 33.01 158.47 33.97 158.39 34.78 159.31 34.46 159.4 31.84 159.88 31.56 160.92 31.52 161.08 30.88 160.28 30.88 160.2 29.92 161.64 28.83 162.49 29.72 163.09 29.35 165.58 30.48 166.71 30.6 167.67 32.01 167.03 32.49 167.07 32.97 167.83 33.65 167.75 36.42 167.03 37.35 166.71 38.43 166.22 38.47 166.02 40.04 167.15 40.32 168.07 38.99 168.48 38.11 169.88 37.31 171.33 39.44 172.21 42.61 172.29 45.58 171.37 45.54 170.52 47.43 170.36 48.76 169.48 50.36 168.64 50.77 155.78 51.85"/>
    <polygon class="st5" points="150.57 33.75 152.32 29.72 152.89 29.72 153.53 29.87 154.41 29.31 154.89 29.55 155.66 28.51 157.79 28.19 158.23 27.67 160.96 28.07 163.69 27.51 166.06 27.79 166.3 27.31 165.74 26.54 164.18 27.02 163.53 26.54 163.29 24.45 162.57 24.69 162.25 24.9 160.72 25.46 159.76 25.13 159.76 23.73 158.99 23.85 157.63 24.45 155.3 24.49 153.73 25.82 150.88 25.74 149.31 24.05 147.98 23.81 146.66 24.49 146.54 23.77 147.1 23.05 147.14 22.56 148.91 21.28 149.23 20.96 149.03 20.52 147.38 20.84 145.01 22.89 144.85 23.61 142.97 24.77 141.8 24.97 141.16 25.66 139.55 26.14 139.47 26.7 139.69 26.84 140.34 27.64 148.37 29.35 149.45 30.37 149.87 32.73 150.57 33.75"/>
  </g>
  <g>
    <path class="st3" d="M219.02,33.05l-.13-.06-.46-.21-.05-.75-.96-.27-2.94-10.02.7-.32.16-2.03,1.02-1.45-.05-.8-.37-.48-.11-1.45.37-.32.11-2.68,1.23-3.16s.37-2.84,1.87.05l.48-.05s2.73-4.02,4.34,1.39l1.82,5.3,1.5.27.21,1.66s5.52,1.18-.75,5.3l-1.61.75-.16,1.23-1.39-1.29-.38.32v2.2l-.96.75v.8s-1.07.16-.91.32-.59.43-.59.43l-.8-.32-.38.75-.53,2.95-.27,1.18h0Z"/>
    <polygon class="st3" points="218.76 34.01 217.47 35.35 215.44 35.89 212.7 36.53 212.06 36.69 212.17 27.91 213.45 26.73 213.51 25.28 213.08 24.8 213.24 21.64 214.47 21.75 217.42 31.76 218.38 32.03 218.43 32.78 219.02 33.05 218.76 34.01"/>
    <path class="st3" d="M218.49,34.39l1.02.96-.81,1.45.22.8,1.12.16,1.61,1.87,1.34-.16s1.23-.59-1.02-1.5c0,.16,1.5-.21,1.5-.21,0,0,2.73,1.87-2.03,3.75l-.43-.91-.91.54v.86l-.59-.1-1.71-2.36-8.41,1.77-.16-4.23,8.25-1.71,1.02-.96v-.02h0Z"/>
    <polygon class="st3" points="209.92 46.98 209.38 41.3 216.08 40.01 216.67 43.39 215.6 44.03 214.9 44.57 212.81 44.94 209.92 46.98"/>
    <polygon class="st3" points="181.1 47.4 182.39 54.37 183.4 59.62 202.58 56.03 204.4 55.33 206.44 53.03 204.67 51.1 203.81 50.78 203.76 49.92 204.51 49.44 204.08 48.8 204.3 48.05 204.78 47.78 204.88 46.44 205.31 46.17 204.3 45.58 203.39 43.71 202.64 43.66 201.83 43.07 184.32 46.71 184.15 44.67 181.1 47.4"/>
    <polygon class="st3" points="207.4 59.83 207.29 58.55 205.9 58.28 204.83 57.74 204.13 56.83 204.03 55.55 206.44 53.03 204.67 51.1 203.81 50.78 203.76 49.92 204.51 49.44 204.08 48.8 204.3 48.05 204.78 47.78 204.88 46.44 205.31 46.17 209.12 47.3 209.22 49.33 208.47 50.41 209.49 50.62 209.76 55.44 208.1 57.96 208.04 59.24 207.4 59.83"/>
    <polygon class="st3" points="202.58 56.03 204.56 62.94 207.19 62.67 206.92 60.74 205.74 59.94 205.15 58.65 204.13 57.74 203.92 56.41 203.87 55.55 202.58 56.03"/>
    <polygon class="st3" points="206.97 64.87 205.15 65.67 204.35 64.6 202.58 64.28 202.05 62.83 202.53 62.4 201.94 61.92 202.21 60.26 201.72 59.62 202.21 58.39 201.78 58.28 200.81 59.73 200.87 61.65 201.29 63.58 202.1 64.65 202.47 65.83 201.13 65.56 199.15 65.08 197.92 64.33 198.03 63.69 196.37 60.74 195.56 60.21 195.14 59.94 193.37 58.71 192.14 59.24 190.85 59.56 190.37 59.56 189.72 60.05 189.3 60.42 188.71 61.17 188.06 61.87 187.53 58.87 202.58 56.03 204.56 62.94 207.19 62.67 207.35 64.17 206.97 64.87"/>
    <polygon class="st3" points="205.96 73.49 193.37 76.22 173.5 78.63 174.83 77.61 175.53 77.35 175.42 76.54 178.58 73.38 179.6 74.4 181 74.72 181.64 74.08 182.28 74.51 183.46 74.24 183.89 73.17 184.96 72.96 185.87 72.74 186.46 71.83 186.4 70.22 188.01 65.67 188.55 66.05 188.92 66.37 189.94 66.26 190.05 64.6 190.9 64.33 192.46 61.92 192.46 60.1 193.31 60.21 195.24 61.12 195.3 60.15 196.37 60.74 198.03 63.69 197.92 64.33 199.15 65.08 201.56 65.78 202.05 66.42 202.96 66.53 203.12 68.35 203.49 68.78 202.53 69.21 202.69 69.74 203.87 70.97 203.76 71.62 203.39 71.67 203.55 72.26 204.35 72.15 205.15 71.72 205.96 73.49"/>
    <polygon class="st3" points="188.33 102.58 187.42 102.58 186.89 101.77 186.94 100.92 186.24 100.38 185.39 100.38 185.28 99.2 184.1 97.11 183.3 97.06 181.58 95.08 179.87 93.63 179.39 93.47 177.46 90.68 176.12 90.58 175.1 89.88 174.94 88.81 175.69 87.85 179.39 85.92 185.55 85.59 186.57 86.88 191.49 86.61 197.12 90.63 195.67 92.45 195.4 93.42 195.14 95.29 194.39 96.04 192.99 97.59 190.37 99.9 190.1 99.9 189.99 100.7 188.33 102.58"/>
    <polygon class="st3" points="186.78 110.34 184.05 110.29 184.05 111.15 184.48 111.2 184.43 113.07 183.51 112.65 183.46 112.06 171.03 112.54 169.8 111.04 169.53 110.07 169.1 109.7 168.94 107.24 168.84 105.31 169.37 104.83 169.32 103.65 168.52 102.41 167.07 97.65 166 94.01 164.93 91.22 164.82 89.18 175.48 87.9 174.94 88.81 175.1 89.88 176.12 90.58 177.46 90.68 179.39 93.47 179.87 93.63 181.58 95.08 183.3 97.06 184.1 97.11 185.28 99.2 185.39 100.38 186.24 100.38 186.94 100.92 186.89 101.77 187.42 102.58 188.33 102.58 188.23 103.38 187.85 104.18 187.26 106.32 186.78 110.34"/>
    <polygon class="st3" points="138.63 113.4 138.41 111.04 140.29 108.04 140.71 107.34 140.87 106.27 141.09 105.9 140.55 105.09 140.12 103.76 139.96 102.58 139.96 101.66 140.07 99.84 140.02 97.27 140.93 95.4 142.11 94.33 142.32 92.72 143.66 91.54 143.66 90.63 143.93 90.47 153.41 89.99 153.19 107.99 138.63 113.4"/>
    <polygon class="st3" points="206.97 64.87 205.43 65.59 205.19 67.08 204.87 69.65 205.31 70.53 205.84 69.93 206.32 68.56 206.2 66.84 207 65.87 206.97 64.87"/>
    <polygon class="st3" points="182.23 53.94 181.74 55.44 181.85 60.42 180.08 62.19 178.91 62.4 178.32 63.58 178.37 65.35 177.78 65.46 177.78 64.87 177.08 64.92 176.87 67.17 176.39 67.76 176.28 68.24 175.37 68.24 175.37 70.33 176.49 70.87 177.14 72.42 178.58 73.38 179.6 74.4 181 74.72 181.64 74.08 182.28 74.51 183.46 74.24 183.89 73.17 185.87 72.74 186.46 71.83 186.4 70.22 188.01 65.67 188.92 66.37 189.94 66.26 190.05 64.6 190.9 64.33 192.46 61.92 192.46 60.1 193.31 60.21 195.24 61.12 195.3 60.15 193.37 58.71 190.37 59.56 188.06 61.87 187.53 58.87 183.46 59.46 182.23 53.94"/>
    <polygon class="st3" points="146.74 82.1 147.26 81.42 147.79 81.46 147.79 80.37 148.15 80.13 148.07 79.81 147.87 79.21 147.83 78.65 149.07 78.24 150.72 78.97 151.04 78.13 150.8 77.88 150.76 76.76 152.08 76.6 152.12 75.67 152.24 74.55 153.33 73.75 155.46 73.5 155.86 74.07 156.42 74.11 157.1 73.18 157.79 72.98 158.23 73.62 158.87 73.71 158.91 72.74 159.72 72.18 160.04 72.5 161.44 72.58 161.48 71.3 163.17 69.73 163.29 68.24 164.62 68.2 165.78 67.28 165.34 66.92 165.1 66.27 165.54 65.91 166.71 65.99 166.91 65.67 167.51 65.79 168.43 67.28 170.08 67.32 170.4 68 171.37 67.32 171.97 67.4 172.49 67.92 173.66 66.75 173.98 66.92 175.37 68.24 175.37 70.33 176.49 70.87 177.14 72.42 178.58 73.38 175.42 76.54 175.46 77.48 174.83 77.61 173.7 78.49 154.96 80.72 152.93 80.72 152.98 82.01 146.74 82.1"/>
    <polygon class="st3" points="197.56 74.26 175.92 77.91 172.7 78.33 166.26 73.65 173.49 68.61 174.52 68.18 176.1 68.79 180.66 65.15 186.25 63.26 189.78 61.99 192.45 59.43 194.09 59.8 196.1 61.01 198.35 69.34 197.56 74.26"/>
    <path class="st3" d="M170.13,110.89l-.81-.24-12.88.81-8.1-14.66v-6.32l8.02-.41,8.18-.49,5.92-.81s4.21,13.13,4.38,13.45c.16.32-4.7,8.67-4.7,8.67h-.01Z"/>
  </g>
  <path class="st1" d="M19.87,0l20.23,5.34,4.04.66,20.68,3.8,22.93,2.96,25.33,1.06,7.77-.21-.06-2.04,1.39.11,1.02,3.54,1.23.54,1.34-.05.32.43,1.07-.11.7-.48,1.45.11,2.41,1.55.86-.48.27.96h.96l-.11,1.04,1.77-.39,1.71-1.02-.08.93,2.92-.34.8.43,1.18.38-5.73,3.11-.75,1.39-3.27,2.78h2.2l2.84-1.61.42.54-.97,1.34.88.21,1.02-.22.92-.11,1.6-.48.64-.68.65.06,2.41-1.42.16-.72,2.37-2.05,1.38.06-2.07,1.7-.61.85.57,1.04,1.01-.31,1.64-.13,1.57,1.69,2.85.08,1.57-1.33,2.33-.04,1.37-.6.76,1.29.96.32,2.57-1.01.24,2.09.64.48,1.57-.48.56.76-2.61.2-2.73.56-2.73-.4-.44.52-2.13.32-.77,1.04-.54-.63-.83.95-1.2-.16-3.15,6.39.16.91.54-.16,3.27-3.59-1.71,4.01v1.82l-.43,1.07-.17,1.27-.61,2.07.49,4.62v1.94l1.36.97.78,1.69.96.32,1.97-1.21,1.85-3.21-.04-3.26-1.89-3.21.72-6.63.56-.2-.12-1.12,1.08-.88.24-.89.76.56-.48.96-.08.8,1.31-.26-.31-2.67,1.53-.32.16-.65h-.8l-.08-.96,1.45-1.09.84.88.6-.36,2.49,1.12,1.12.12.96,1.41-.64.48.04.48.77.68-.08,2.77-1.53,2.05-.68-.07.48,1.64,1.13.28,1.33-2.21,1.2-.44,1.65,1.76.89,3.18-.35,2.72-.49.21-.84,1.89-.36.82-.97,1.7.73,1.34,2.19.36.75.12h1.13l1-.56,1.16-.08,5.02-3.54,2.99-2.92,2.84-2.68-.11-.86s-3.18-1.69,1.23-3l3.11.05.75.22,1.28-.25,1.08-.45,1.39-1.66,1.07-.21-.32-2.3-.43-.36-.59-1.14,2.36-2.57.86-1.5,1.23-1.28,5.87-1.28,7.31-1.99.16-1.77,1.23.11.7-.32.16-2.04,1.02-1.45-.05-.8-.37-.48.27-1.77.11-2.68,2-4.19,1.11,1.09.48-.05s3.03-3.1,3.64.79c.24.36,2.07,6.08,2.07,6.08l1.96.1.21,1.66s5.72.86-2.35,6.05l-.3.82-1.25-.87-.38.32-.44,1.77-.53,1.18v.8l-.91.32-1.39.11-1.3,4.27-.14,1.56-.27.38,1.02.96-.81,1.45.22.8,1.12.16,1.61,1.87s2.72-.02,1.38-1.36l.44-.52s2.73,1.87-2.03,3.75l-.35-1.29-1.09.49-.49,1.18-2.67,1.01-1.93,1.66-2.2-.08-2.84,2.28-.75.54.11,2.04-1.14,1.1,1.41.18.27,4.82-1.66,2.52-.5,1.23-2.77-1.44-.88-1.72.18,1.72.91,1.32,1.46,1.46.85,3.65-.35,1.7-.8.96.12,1.73-.48,1.37-.96-.28.28-3.97-.35-1.26-2.22-.14-.53-1.45.48-.43-.59-.48.27-1.66-.48-.64.48-1.23-.43-.11-1.35,1.52.49,3.65,1.22,1.82.83,1.26.16,1.82-.59.86,1.34,1.77-.48.7.16.59,1.61-.54,3.16,5.41-.48,1.45-1.23,1.77-1.71.32-.08,2.47h1.34l-.45,1.44s-3.81-1.08-5.99,5l-2.58,1.06-1.45,1.82-.54,2.84-5.04,4.6-1.77,2.68s-1.4,2.44-2.01,7.3l2.6,5.98,3.84,5.56.12,1.4,3.77,7.11.73,5.96-.48.76v1.92l-1.12,1.3h-1.18l-.86.28-.61-1.7-1.85-1.74h-1.39l-.7-.7-.27-1.34-.86-.91-1.23.43-1.39-2.89-1.98-2.57,1.56-1.71-.03-1.45-1.53.59-.05.43-.61-1.75.18-.72v-2.73l-1.34-1.55-1.45-.27-3.48-3.53-1.23-.54-1.82.21v1.02l-2.4.82-2.09.58-.05-.75-3.75-1.93-4.68-.45-1.22,1.09h-.8l-1.61-.05-.64-1.66-1.2-.47-.49,1.7-5.38,1.02-2.27,1.9.67.68.91-.06.11-.7,1.02.22-.11.85-1.02.75-.27,1.18,2.73.8-.11,1.29-2.62-.91-.86-1.23-.75.48-.27,1.71-1.02-.21.37-1.09-1.49.92-.59.7-1.55.16-1.61-1.45.32-.32-.06-.87-1.44.33-.37-1.12-2.68-.11.11,1.18-3.27-.32-1.55-.81-3.38.43-3.32,1.23-6.22,4.29-7.7,4.71-.2,1.13.47.74-1.56,2.66.12,1.7,1.46,3.65-1.09.61-1.02-.31-2.73-.27-.87-1.24-1.7.28-2.04-1.71-.43-1.71-.45-1.11-.56-2.91-1.13-.7-2.2-3.56-2.19-4.63-3.16-3.64-3.7-.43-.43-.54h-.96l-2.08.97-.49,1.7-1.58,1.46-3.28-2.19-2.91-2.27-.11-2.41-.39-2.25-1.94-1.82-.56.49-2.36-3.65-1.5-.32-1.23-1.93-.79-.67-6.97-.35-.44,1.68-4.01-.24-9.69-.8-15.35-10.02.12-1.09-11.12-.83-.16-3.86-2.62-3.86-1.5-.32-.05-1.5-1.55-.27-2.25-3.27h-1.12l-1.55-.96-1.39-.33-.64-.53,1.37-3.36-2.87-4.41-.11-1.02-1.23-1.66-.06-2.04.75-.37.43-1.55-.91-.32-.86-1.18-.11-2.78.43-1.18-1.45-1.39.05-2.2-1.93-3.75.8-2.65-.21-3.83-1.23-1.71.43-1.55,2.84-3.8.48-8.3,2.78-4.23,4.98-12.48v-2.14l1.02-.96-.59-.27.32-.94,1.22-.24-1.32-.85-.02-4.98-.85-.61.98-1.96,1.45,1.6,5.11,1.82,1.46,1.94.24-4.25.61-.73L20.01.02l-.14-.02Z"/>
  <polygon class="st4" points="169.64 110.83 168.84 105.31 140.71 107.34 138.41 111.04 138.63 113.4 169.64 110.83"/>
</svg>