<?xml version="1.0" encoding="UTF-8"?>
<svg id="Layer_1" xmlns="http://www.w3.org/2000/svg" version="1.1" viewBox="0 0 230 146.77">
  <!-- Generator: Adobe Illustrator 29.6.0, SVG Export Plug-In . SVG Version: 2.1.1 Build 207)  -->
  <defs>
    <style>
      .st0 {
        fill: #9aa0a6;
      }

      .st1 {
        fill: #9b8579;
      }

      .st2 {
        fill: none;
        stroke: #c8caca;
        stroke-width: .49px;
      }
    </style>
  </defs>
  <g>
    <g>
      <polygon class="st1" points="181.09 47.7 180.17 47.94 176.51 50.84 176.06 51.24 174.9 51.32 173.89 51.89 172.76 51.89 171.96 51.32 170.35 51.28 169.39 50.48 168.54 50.88 166.61 51 163.68 51.24 165.45 66.04 166.61 66.12 166.81 65.8 167.42 65.92 168.34 67.41 169.99 67.45 170.31 68.14 170.92 67.73 171.28 67.45 171.88 67.53 172.4 68.06 173.57 66.89 173.89 67.05 175.29 68.38 176.2 68.38 176.35 67.73 176.79 67.3 177 65.05 177.7 65 177.7 65.59 178.29 65.48 178.24 63.71 178.83 62.53 180.01 62.32 181.78 60.55 181.67 55.56 182.18 54.26 181.09 47.7"/>
      <polygon class="st1" points="152.73 52.85 153.7 53.17 155.67 51.97 163.68 51.24 165.45 66.04 165.04 66.57 165.25 67.05 165.69 67.41 164.52 68.34 163.19 68.38 163.07 69.87 161.38 71.43 161.34 72.72 159.94 72.64 159.61 72.32 158.81 72.88 158.77 73.85 158.13 73.77 157.68 73.12 157 73.32 156.32 74.25 155.75 74.21 155.35 73.65 153.22 73.89 152.13 74.69 152.21 72.52 153.86 69.99 154.1 68.02 153.42 67.33 152.73 53.01 152.73 52.85"/>
      <polygon class="st1" points="150.99 48.48 151.05 50.04 151.96 51.16 152.73 52.85 153.42 67.33 154.1 68.02 153.86 69.99 152.21 72.52 151.96 76.58 150.65 76.9 150.69 78.03 150.93 78.27 150.61 79.11 148.96 78.39 147.71 78.79 147.67 79.69 146.87 79.64 146.22 78.3 146.27 77.49 145.31 75.29 144.02 75.29 141.82 72.56 142.95 70.04 142.58 69.5 140.22 69.13 140.27 67.73 137 64.78 136.52 63.44 136.46 61.3 137.05 60.97 136.94 59.9 138.12 59.58 138.12 58.24 138.71 57.87 138.55 57.01 137.96 56.53 138.02 55.67 138.55 55.18 139.52 55.18 140.91 54.11 141.5 51.7 139.25 49.66 139.2 48.85 150.99 48.48"/>
      <path class="st1" d="M136.57,43.92l-.11-1.88-2.9-2.41-.59-.91h-.8l-.16-.7h-1.13l-.75-.86-.16-2.84.32-.8.05-.8-.7-.75.32-.64,1.93-2.2.21-3.06s2.36.05,2.2,0,2.84-1.61,2.84-1.61l.81.38-.96,1.39.48.32,1.02-.21,1.07.59.65.8,1.13.21,2.36.43,4.56,1.07,1.07,1.02.43,2.36.7,1.02-1.39,2.36.16.91.54-.16,3.06-4.4.21.8-1.71,4.02v1.82l-.43,1.07.27,1.5-.59,1.07-.27,1.18.7,4.45-11.8.37-1.18-.59-.97-1.07-.11-1.34.8-.43-.32-.64-.86-.86v.02Z"/>
      <polygon class="st1" points="112.92 13.89 113.51 15.23 111.71 16.97 113.19 19.15 116.09 21.1 119.01 24.51 126.8 26.7 136.57 43.92 136.46 42.05 133.56 39.63 133.14 38.72 132.17 38.72 132.01 38.02 130.88 38.02 130.13 37.16 129.97 34.32 130.29 33.52 130.35 32.72 129.65 31.96 129.76 31.53 131.9 29.12 132.12 26.06 135.39 23.28 136.14 21.88 141.88 18.77 142.09 18.29 140.7 18.4 139.89 17.97 137.16 17.91 137.05 17.38 135.33 18.4 133.78 18.4 133.67 17.75 132.71 17.75 132.44 16.79 131.58 17.27 129.17 15.71 127.72 15.61 127.02 16.09 125.95 16.2 125.63 15.77 124.29 15.82 123.05 15.29 122.04 11.75 120.64 11.64 120.7 13.68 112.92 13.89"/>
      <polygon class="st1" points="155.67 51.97 156.68 50.12 157.52 48.75 157.48 45.49 155.59 42.27 155.87 38.65 156.32 35.64 156.88 35.44 156.76 34.31 157.84 33.43 158.09 32.54 158.65 32.34 158.85 33.1 158.37 34.07 158.29 34.87 159.21 34.55 159.29 31.94 159.77 31.66 160.82 31.62 160.98 30.97 160.18 30.97 160.1 30.01 161.54 28.92 162.39 29.81 162.99 29.44 165.49 30.57 166.61 30.69 167.58 32.1 166.94 32.58 166.97 33.06 167.74 33.75 167.66 36.52 166.94 37.45 166.61 38.53 166.13 38.57 165.93 40.14 167.06 40.42 167.98 39.1 168.38 38.21 169.79 37.41 171.24 39.54 172.12 42.72 172.2 45.69 171.28 45.65 170.43 47.54 170.27 48.87 169.39 50.48 168.54 50.88 155.67 51.97"/>
      <polygon class="st1" points="150.46 33.84 152.21 29.81 152.78 29.81 153.42 29.97 154.31 29.4 154.79 29.64 155.55 28.6 157.68 28.28 158.13 27.75 160.86 28.16 163.6 27.59 165.97 27.88 166.21 27.39 165.65 26.63 164.08 27.11 163.43 26.63 163.19 24.54 162.47 24.78 162.15 24.98 160.62 25.54 159.65 25.22 159.65 23.81 158.89 23.93 157.52 24.54 155.19 24.58 153.62 25.9 150.77 25.82 149.2 24.13 147.87 23.89 146.54 24.58 146.42 23.85 146.99 23.13 147.03 22.65 148.8 21.36 149.12 21.04 148.92 20.6 147.27 20.92 144.89 22.97 144.73 23.69 142.84 24.86 141.68 25.06 141.03 25.74 139.42 26.23 139.34 26.79 139.57 26.92 140.22 27.73 148.26 29.44 149.33 30.46 149.76 32.82 150.46 33.84"/>
    </g>
    <polygon class="st1" points="180.94 78.03 154.88 81.03 152.84 81.03 152.89 82.32 146.19 82.43 146.08 84.47 145.28 86.4 145.06 87.79 144.69 88.33 143.72 88.49 143.83 89.13 144.15 89.35 143.83 90.79 153.1 90.37 164.74 89.51 170.27 88.7 170.27 87.31 171.39 87.15 171.61 86.02 175.74 83.61 176.11 82.48 177.93 81.95 178.52 81.09 179.97 80.98 180.88 79.64 180.94 78.03"/>
  </g>
  <g>
    <polygon class="st0" points="206.95 65.16 205.41 65.89 205.16 67.37 204.84 69.95 205.28 70.83 205.81 70.23 206.29 68.86 206.17 67.13 206.97 66.17 206.95 65.16"/>
    <g>
      <path class="st0" d="M219.01,33.31l-.13-.06-.46-.21-.05-.75-.97-.27-2.95-10.03.7-.32.16-2.04,1.02-1.45-.05-.8-.37-.48-.11-1.45.37-.32.11-2.68,1.23-3.16s.37-2.84,1.88.05l.48-.05s2.73-4.02,4.34,1.39l1.82,5.31,1.5.27.21,1.66s5.53,1.18-.75,5.31l-1.61.75-.16,1.23-1.39-1.29-.38.32v2.2l-.96.75v.8s-1.07.16-.91.32-.59.43-.59.43l-.8-.32-.38.75-.53,2.95-.27,1.18h0Z"/>
      <polygon class="st0" points="218.74 34.27 217.46 35.61 215.42 36.15 212.68 36.79 212.04 36.95 212.15 28.16 213.43 26.98 213.49 25.53 213.06 25.05 213.22 21.88 214.46 21.99 217.4 32.02 218.37 32.29 218.42 33.04 219.01 33.31 218.74 34.27"/>
      <polygon class="st0" points="213.06 23.65 206.14 25.37 206.36 26.93 207 28.96 207 29.98 206.95 31.06 207.48 31.97 208.02 33.2 208.66 34.43 209.14 35.88 209.2 37.33 212.04 36.95 212.15 28.16 213.43 26.98 213.49 25.53 213.06 25.05 213.06 23.65"/>
      <polygon class="st0" points="216.65 43.66 216.06 40.28 217.78 39.8 219.5 42.16 219.23 42.75 218.53 42.85 216.65 43.66"/>
      <path class="st0" d="M218.47,34.65l1.02.97-.81,1.45.22.8,1.13.16,1.61,1.88,1.34-.16s1.23-.59-1.02-1.5c0,.16,1.5-.21,1.5-.21,0,0,2.73,1.87-2.04,3.75l-.43-.91-.91.54v.86l-.59-.1-1.72-2.36-8.42,1.77-.16-4.24,8.26-1.72,1.02-.96v-.02h0Z"/>
      <polygon class="st0" points="209.9 47.25 209.36 41.57 216.06 40.28 216.65 43.66 215.58 44.3 214.88 44.84 212.79 45.21 209.9 47.25"/>
      <path class="st0" d="M201.8,43.34l-17.54,3.65-.11-1.82,2.79-2.9-.11-.86s-3.65-1.72,1.23-3c-.16.16,3.11.05,3.11.05l.75.21.91-.37,1.45-.32,1.4-1.66,1.07-.21-.06-1.23-.27-1.07-.8-.32-.22-1.18,1.34-1.34,1.02-1.23.86-1.5,1.23-1.29,2.04-.48,1.82-.43,1.18-.21,1.23-.43.11,1.13.7,2.25v2.31l2.2,4.83.21,5.68.48,5.47-.11.86-.06.64.81-.54,2.14-.59,1.93-1.13.75-.64.8.37-.91,1.07-2.04,1.45-1.93.86-1.61.43h-.59l.05-2.25-3.81-1.13-1.02-.59-.54-.91-.37-.97-.75-.05-.8-.59.04-.02h0Z"/>
      <polygon class="st0" points="181.04 47.68 182.33 54.65 183.35 59.91 202.55 56.31 204.37 55.62 206.41 53.31 204.64 51.38 203.78 51.06 203.73 50.2 204.48 49.72 204.05 49.07 204.27 48.32 204.75 48.06 204.85 46.71 205.28 46.44 204.27 45.86 203.35 43.98 202.6 43.93 201.8 43.34 184.26 46.98 184.1 44.94 181.04 47.68"/>
      <polygon class="st0" points="207.38 60.12 207.27 58.83 205.87 58.56 204.8 58.03 204.1 57.12 204 55.83 206.41 53.31 204.64 51.38 203.78 51.06 203.73 50.2 204.48 49.72 204.05 49.07 204.27 48.32 204.75 48.06 204.85 46.71 205.28 46.44 209.09 47.57 209.2 49.61 208.45 50.68 209.47 50.9 209.74 55.72 208.07 58.24 208.02 59.53 207.38 60.12"/>
      <polygon class="st0" points="202.55 56.31 204.53 63.23 207.16 62.96 206.89 61.03 205.71 60.23 205.12 58.94 204.1 58.03 203.89 56.69 203.84 55.83 202.55 56.31"/>
      <polygon class="st0" points="206.95 65.16 205.12 65.97 204.32 64.89 202.55 64.57 202.01 63.12 202.5 62.69 201.91 62.21 202.17 60.55 201.69 59.91 202.17 58.67 201.74 58.56 200.78 60.01 200.83 61.94 201.26 63.88 202.07 64.95 202.44 66.13 201.1 65.86 199.12 65.38 197.88 64.62 197.99 63.98 196.33 61.03 195.52 60.5 195.09 60.23 193.32 58.99 192.09 59.53 190.8 59.85 190.32 59.85 189.68 60.33 189.25 60.71 188.66 61.46 188.02 62.16 187.48 59.16 202.55 56.31 204.53 63.23 207.16 62.96 207.32 64.46 206.95 65.16"/>
      <polygon class="st0" points="205.93 73.8 193.32 76.53 173.43 78.94 174.77 77.92 175.47 77.66 175.36 76.85 178.52 73.69 179.54 74.71 180.94 75.03 181.58 74.38 182.22 74.81 183.4 74.55 183.83 73.47 184.91 73.26 185.82 73.04 186.41 72.13 186.35 70.52 187.96 65.97 188.5 66.34 188.87 66.66 189.89 66.55 190 64.89 190.86 64.62 192.41 62.21 192.41 60.39 193.27 60.5 195.2 61.41 195.26 60.44 196.33 61.03 197.99 63.98 197.88 64.62 199.12 65.38 201.53 66.07 202.01 66.72 202.92 66.82 203.09 68.65 203.46 69.08 202.5 69.51 202.66 70.04 203.84 71.27 203.73 71.92 203.35 71.97 203.51 72.56 204.32 72.45 205.12 72.03 205.93 73.8"/>
      <path class="st0" d="M197.08,90.96l-5.63-4.02-4.93.27-1.02-1.29-6.17.32-3.91,1.98-5.04.87-.11-1.78,1.13-.16.21-1.13,4.13-2.41.37-1.13,1.82-.54.59-.86,1.45-.11.91-1.34.06-1.61,11.8-1.4,13.19-2.84.7,1.18,1.66,2.47-.48,1.45-.7.91-.54.86-1.71.32-.05,1.98,1.77.21-.91,1.72s-4.72-.48-5.79,5.63l-2.79.43v.02h-.01Z"/>
      <polygon class="st0" points="188.29 102.91 187.37 102.91 186.84 102.11 186.89 101.25 186.19 100.72 185.34 100.72 185.23 99.54 184.05 97.45 183.24 97.39 181.53 95.41 179.81 93.96 179.33 93.8 177.4 91.01 176.06 90.9 175.04 90.2 174.88 89.13 175.63 88.17 179.33 86.24 185.5 85.91 186.52 87.2 191.45 86.93 197.08 90.96 195.63 92.78 195.36 93.75 195.1 95.62 194.35 96.37 192.95 97.93 190.32 100.23 190.05 100.23 189.95 101.04 188.29 102.91"/>
      <polygon class="st0" points="186.73 110.69 184 110.64 184 111.49 184.42 111.55 184.37 113.43 183.46 113 183.41 112.41 170.96 112.89 169.73 111.39 169.46 110.42 169.03 110.05 168.87 107.58 168.77 105.65 169.3 105.17 169.25 103.99 168.44 102.75 167 97.98 165.92 94.33 164.85 91.55 164.74 89.51 175.41 88.22 174.88 89.13 175.04 90.2 176.06 90.9 177.4 91.01 179.33 93.8 179.81 93.96 181.53 95.41 183.24 97.39 184.05 97.45 185.23 99.54 185.34 100.72 186.19 100.72 186.89 101.25 186.84 102.11 187.37 102.91 188.29 102.91 188.18 103.72 187.8 104.52 187.21 106.67 186.73 110.69"/>
      <polygon class="st0" points="182.17 54.22 181.69 55.72 181.8 60.71 180.03 62.48 178.85 62.69 178.26 63.87 178.31 65.64 177.72 65.75 177.72 65.16 177.02 65.21 176.81 67.47 176.33 68.06 176.22 68.54 175.31 68.54 175.31 70.63 176.43 71.17 177.08 72.72 178.52 73.69 179.54 74.71 180.94 75.03 181.58 74.38 182.22 74.81 183.4 74.55 183.83 73.47 185.82 73.04 186.41 72.13 186.35 70.52 187.96 65.97 188.87 66.66 189.89 66.55 190 64.89 190.86 64.62 192.41 62.21 192.41 60.39 193.27 60.5 195.2 61.41 195.26 60.44 193.32 58.99 190.32 59.85 188.02 62.16 187.48 59.16 183.4 59.74 182.17 54.22"/>
      <polygon class="st0" points="147.04 113.58 138.52 113.75 138.3 111.39 140.18 108.38 140.61 107.69 140.77 106.61 140.98 106.24 140.45 105.43 140.02 104.09 139.86 102.91 139.86 102 139.97 100.18 139.91 97.61 140.83 95.73 142 94.66 142.22 93.05 143.56 91.87 143.56 90.96 143.83 90.79 153.32 90.31 153.1 108.33 153.62 113.15 147.04 113.58"/>
      <polygon class="st0" points="146.64 82.41 147.16 81.73 147.69 81.77 147.69 80.69 148.05 80.44 147.97 80.12 147.77 79.52 147.73 78.96 148.98 78.55 150.63 79.28 150.95 78.43 150.71 78.19 150.67 77.07 151.99 76.91 152.03 75.98 152.15 74.85 153.24 74.05 155.37 73.81 155.77 74.37 156.34 74.41 157.02 73.49 157.7 73.29 158.15 73.93 158.79 74.01 158.83 73.04 159.63 72.48 159.96 72.8 161.36 72.88 161.4 71.6 163.09 70.03 163.21 68.54 164.54 68.5 165.71 67.57 165.27 67.21 165.02 66.57 165.47 66.21 166.63 66.29 166.83 65.97 167.44 66.09 168.36 67.57 170.01 67.61 170.33 68.3 171.3 67.61 171.9 67.7 172.42 68.22 173.59 67.05 173.91 67.21 175.31 68.54 175.31 70.63 176.43 71.17 177.08 72.72 178.52 73.69 175.36 76.85 175.4 77.79 174.77 77.92 173.63 78.8 154.88 81.03 152.84 81.03 152.89 82.32 146.64 82.41"/>
      <path class="st0" d="M170.06,111.24l-.81-.24-13.36,1.77-4.43.52-3.22-16.16v-6.33l6.74-.7,8.86-.53,6.54-.49s4.22,13.14,4.38,13.47-4.71,8.68-4.71,8.68h0Z"/>
      <polygon class="st0" points="196.02 61.26 193.26 59.4 189.61 62.32 178.9 72.3 179.14 73.68 178.09 74.65 182.87 76.35 193.02 73.84 196.02 61.26"/>
    </g>
  </g>
  <path class="st2" d="M19.89,0l20.25,5.35,4.04.66,20.7,3.81,22.96,2.96,25.36,1.06,7.78-.21-.06-2.04,1.4.11,1.02,3.54,1.23.54,1.34-.05.32.43,1.07-.11.7-.48,1.45.11,2.41,1.56.86-.48.27.97h.96l-.11,1.04,1.77-.4,1.72-1.02-.08.93,2.92-.34.8.43,1.18.38-5.74,3.11-.75,1.39-3.27,2.79h2.2l2.84-1.61.42.54-.97,1.34.88.21,1.02-.22.93-.11,1.61-.48.64-.68.65.06,2.41-1.43.16-.72,2.37-2.05,1.38.06-2.07,1.7-.61.85.57,1.04,1.01-.31,1.64-.13,1.57,1.69,2.85.08,1.57-1.33,2.33-.04,1.37-.6.76,1.29.97.32,2.57-1.01.24,2.09.64.48,1.57-.48.56.76-2.61.2-2.73.56-2.74-.4-.44.52-2.13.32-.77,1.05-.54-.63-.83.95-1.21-.16-3.15,6.39.16.91.54-.16,3.27-3.59-1.72,4.02v1.83l-.43,1.07-.17,1.27-.61,2.07.49,4.62v1.95l1.36.97.78,1.69.97.32,1.97-1.21,1.85-3.22-.04-3.26-1.89-3.22.72-6.64.56-.2-.12-1.13,1.09-.88.24-.89.76.56-.48.97-.08.8,1.32-.26-.31-2.67,1.53-.32.16-.65h-.8l-.08-.96,1.45-1.09.84.89.6-.36,2.49,1.13,1.13.12.97,1.41-.64.48.04.48.77.68-.08,2.78-1.53,2.05-.68-.07.48,1.64,1.13.28,1.33-2.21,1.2-.44,1.66,1.76.89,3.18-.35,2.72-.49.21-.84,1.89-.37.82-.97,1.7.73,1.34,2.19.37.75.12h1.13l1.01-.56,1.17-.08,5.03-3.54,2.99-2.92,2.84-2.68-.11-.86s-3.18-1.69,1.23-3l3.11.05.75.22,1.28-.25,1.08-.45,1.4-1.67,1.07-.21-.32-2.3-.43-.36-.59-1.14,2.36-2.57.86-1.5,1.23-1.29,5.88-1.28,7.31-1.99.16-1.77,1.23.11.7-.32.16-2.04,1.02-1.45-.05-.8-.37-.48.27-1.77.11-2.68,2-4.2,1.11,1.09.48-.05s3.03-3.11,3.64.79c.24.37,2.07,6.08,2.07,6.08l1.96.1.21,1.66s5.73.86-2.36,6.06l-.3.82-1.25-.87-.38.32-.44,1.77-.53,1.18v.8l-.91.32-1.39.11-1.3,4.28-.14,1.57-.27.38,1.02.97-.81,1.45.22.8,1.13.16,1.61,1.87s2.72-.02,1.38-1.36l.44-.52s2.74,1.87-2.04,3.75l-.35-1.29-1.1.49-.49,1.18-2.68,1.01-1.94,1.67-2.2-.08-2.84,2.29-.75.54.11,2.04-1.14,1.1,1.41.18.27,4.83-1.66,2.52-.5,1.23-2.77-1.45-.88-1.72.18,1.72.91,1.32,1.46,1.46.85,3.65-.35,1.7-.8.97.12,1.73-.48,1.37-.97-.29.28-3.98-.35-1.26-2.22-.14-.53-1.45.48-.43-.59-.48.27-1.66-.48-.64.48-1.23-.43-.11-1.35,1.52.49,3.65,1.22,1.83.83,1.26.16,1.82-.59.86,1.34,1.77-.48.7.16.59,1.61-.54,3.16,5.42-.48,1.45-1.24,1.77-1.71.32-.08,2.47h1.34l-.45,1.45s-3.81-1.08-6,5l-2.58,1.06-1.45,1.82-.54,2.84-5.04,4.61-1.77,2.68s-1.4,2.44-2.01,7.31l2.6,5.99,3.85,5.57.12,1.4,3.77,7.12.73,5.96-.48.76v1.92l-1.13,1.3h-1.18l-.86.29-.61-1.7-1.85-1.75h-1.39l-.7-.7-.27-1.34-.86-.91-1.23.43-1.39-2.89-1.99-2.57,1.56-1.71-.03-1.45-1.53.59-.05.43-.61-1.75.18-.72v-2.73l-1.34-1.56-1.45-.27-3.49-3.54-1.23-.54-1.82.21v1.02l-2.41.82-2.1.58-.05-.75-3.75-1.93-4.68-.45-1.22,1.1h-.8l-1.61-.05-.64-1.66-1.2-.48-.49,1.7-5.39,1.02-2.28,1.9.67.68.91-.06.11-.7,1.02.22-.11.86-1.02.75-.27,1.18,2.73.8-.11,1.29-2.63-.91-.86-1.23-.75.48-.27,1.72-1.02-.21.37-1.09-1.49.92-.59.7-1.56.16-1.61-1.45.32-.32-.06-.87-1.44.33-.37-1.13-2.68-.11.11,1.18-3.27-.32-1.56-.81-3.38.43-3.33,1.24-6.23,4.3-7.71,4.71-.2,1.13.47.75-1.56,2.66.12,1.7,1.46,3.65-1.1.61-1.02-.31-2.74-.27-.87-1.24-1.7.28-2.04-1.72-.43-1.71-.45-1.11-.56-2.92-1.13-.7-2.2-3.57-2.19-4.64-3.17-3.64-3.7-.43-.43-.54h-.96l-2.08.97-.49,1.7-1.58,1.46-3.29-2.19-2.91-2.27-.11-2.41-.39-2.26-1.95-1.83-.56.49-2.36-3.65-1.5-.32-1.23-1.93-.79-.67-6.98-.35-.44,1.68-4.02-.24-9.7-.8-15.37-10.03.12-1.1-11.14-.83-.16-3.86-2.63-3.86-1.5-.32-.05-1.5-1.56-.27-2.25-3.27h-1.13l-1.56-.97-1.4-.33-.64-.53,1.37-3.37-2.88-4.41-.11-1.02-1.23-1.66-.06-2.04.75-.37.43-1.56-.91-.32-.86-1.18-.11-2.79.43-1.18-1.45-1.39.05-2.2-1.93-3.75.8-2.65-.21-3.84-1.23-1.72.43-1.56,2.84-3.81.48-8.31,2.79-4.24,4.99-12.49v-2.14l1.02-.97-.59-.27.32-.94,1.22-.24-1.32-.86-.02-4.99-.85-.61.98-1.97,1.46,1.6,5.11,1.83,1.46,1.95.24-4.26.61-.73-1.27-1.45h-.01Z"/>
</svg>