<?xml version="1.0" encoding="UTF-8"?>
<svg id="Layer_1" xmlns="http://www.w3.org/2000/svg" version="1.1" viewBox="0 0 230 146.77">
  <!-- Generator: Adobe Illustrator 29.6.0, SVG Export Plug-In . SVG Version: 2.1.1 Build 207)  -->
  <defs>
    <style>
      .st0, .st1 {
        fill: #90278e;
      }

      .st2 {
        fill: #cdba9e;
      }

      .st3 {
        fill: #9b8579;
      }

      .st4 {
        fill: #fff;
      }

      .st5 {
        fill: #009345;
      }

      .st5, .st6, .st7, .st1, .st8 {
        stroke-width: .49px;
      }

      .st5, .st6, .st1, .st8 {
        stroke: #fff;
      }

      .st6 {
        fill: #6a8cc3;
      }

      .st7 {
        fill: none;
        stroke: #c8caca;
      }

      .st8 {
        fill: #ef7763;
      }
    </style>
  </defs>
  <polygon class="st8" points="218.49 33.87 217.21 35.21 215.17 35.75 212.44 36.39 211.8 36.55 211.91 27.77 213.19 26.6 213.25 25.15 212.82 24.67 212.98 21.51 214.21 21.62 217.15 31.63 218.12 31.89 218.17 32.64 218.76 32.91 218.49 33.87"/>
  <polygon class="st8" points="212.82 23.28 205.92 24.99 206.13 26.55 206.77 28.58 206.77 29.59 206.72 30.67 207.25 31.58 207.79 32.8 208.43 34.04 208.91 35.48 208.97 36.93 211.8 36.55 211.91 27.77 213.19 26.6 213.25 25.15 212.82 24.67 212.82 23.28"/>
  <path class="st6" d="M218.22,34.25l1.02.96-.8,1.44.22.8,1.12.16,1.61,1.87,1.34-.16s1.23-.59-1.02-1.5c0,.16,1.5-.21,1.5-.21,0,0,2.73,1.87-2.03,3.75l-.43-.91-.91.54v.86l-.59-.1-1.71-2.35-8.4,1.76-.16-4.23,8.24-1.71,1.02-.96h-.02Z"/>
  <polygon class="st8" points="209.66 46.83 209.13 41.15 215.82 39.87 216.41 43.24 215.33 43.88 214.64 44.42 212.55 44.79 209.66 46.83"/>
  <path class="st8" d="M201.58,42.92l-17.5,3.64-.11-1.82,2.78-2.89-.11-.86s-3.64-1.71,1.23-3c-.16.16,3.11.05,3.11.05l.75.21.91-.37,1.44-.32,1.39-1.66,1.07-.21-.06-1.23-.27-1.07-.8-.32-.22-1.18,1.34-1.34,1.02-1.23.86-1.5,1.23-1.28,2.03-.48,1.82-.43,1.18-.21,1.23-.43.11,1.12.69,2.25v2.3l2.19,4.82.21,5.67.48,5.46-.11.86-.05.64.8-.54,2.14-.59,1.93-1.12.75-.64.8.37-.91,1.07-2.03,1.45-1.93.86-1.61.43h-.59l.05-2.25-3.8-1.13-1.02-.59-.54-.91-.37-.96-.75-.05-.8-.59s.04,0,.04,0Z"/>
  <polygon class="st8" points="180.87 47.25 182.16 54.21 183.17 59.45 202.33 55.87 204.15 55.18 206.18 52.87 204.42 50.95 203.56 50.63 203.51 49.77 204.26 49.29 203.83 48.65 204.04 47.9 204.53 47.63 204.63 46.29 205.06 46.02 204.04 45.43 203.14 43.56 202.39 43.51 201.58 42.92 184.08 46.56 183.92 44.53 180.87 47.25"/>
  <polygon class="st8" points="207.15 59.67 207.04 58.38 205.65 58.12 204.58 57.58 203.88 56.67 203.78 55.39 206.18 52.87 204.42 50.95 203.56 50.63 203.51 49.77 204.26 49.29 203.83 48.65 204.04 47.9 204.53 47.63 204.63 46.29 205.06 46.02 208.86 47.15 208.97 49.18 208.22 50.25 209.24 50.47 209.5 55.28 207.84 57.8 207.79 59.08 207.15 59.67"/>
  <polygon class="st8" points="202.33 55.87 204.31 62.77 206.93 62.51 206.66 60.58 205.49 59.78 204.9 58.49 203.88 57.58 203.67 56.25 203.62 55.39 202.33 55.87"/>
  <polygon class="st8" points="206.72 64.7 204.9 65.5 204.1 64.43 202.33 64.11 201.8 62.67 202.28 62.24 201.69 61.76 201.96 60.1 201.48 59.45 201.96 58.22 201.53 58.12 200.56 59.56 200.62 61.49 201.05 63.42 201.85 64.49 202.22 65.66 200.89 65.4 198.91 64.91 197.68 64.16 197.78 63.52 196.12 60.58 195.32 60.04 194.89 59.78 193.13 58.55 191.9 59.08 190.61 59.4 190.13 59.4 189.49 59.88 189.06 60.26 188.47 61.01 187.83 61.7 187.29 58.71 202.33 55.87 204.31 62.77 206.93 62.51 207.09 64 206.72 64.7"/>
  <polygon class="st8" points="205.7 73.31 193.13 76.04 173.27 78.45 174.61 77.43 175.31 77.17 175.2 76.37 178.36 73.21 179.37 74.22 180.77 74.55 181.41 73.9 182.05 74.33 183.23 74.06 183.66 72.99 184.73 72.78 185.64 72.57 186.22 71.66 186.17 70.05 187.78 65.5 188.31 65.88 188.69 66.2 189.7 66.09 189.81 64.43 190.67 64.16 192.22 61.76 192.22 59.94 193.07 60.04 195 60.95 195.05 59.99 196.12 60.58 197.78 63.52 197.68 64.16 198.91 64.91 201.32 65.61 201.8 66.25 202.71 66.36 202.87 68.18 203.24 68.61 202.28 69.03 202.44 69.57 203.62 70.8 203.51 71.44 203.14 71.5 203.3 72.08 204.1 71.98 204.9 71.55 205.7 73.31"/>
  <path class="st8" d="M196.87,90.44l-5.62-4.01-4.92.27-1.02-1.29-6.15.32-3.91,1.98-5.19.32.05-1.23,1.13-.16.21-1.12,4.12-2.41.37-1.12,1.82-.54.59-.86,1.45-.11.91-1.34.06-1.61,11.77-1.39,13.16-2.83.7,1.18,1.66,2.46-.48,1.44-.7.91-.54.86-1.71.32-.05,1.98,1.76.21-.91,1.71s-4.71-.48-5.78,5.62l-2.78.43h0Z"/>
  <polygon class="st8" points="188.1 102.37 187.19 102.37 186.65 101.57 186.71 100.71 186.01 100.18 185.16 100.18 185.05 99 183.87 96.92 183.07 96.86 181.36 94.88 179.64 93.44 179.16 93.28 177.24 90.49 175.9 90.39 174.88 89.69 174.72 88.62 175.47 87.66 179.16 85.73 185.31 85.41 186.33 86.69 191.25 86.42 196.87 90.44 195.43 92.26 195.16 93.22 194.9 95.1 194.15 95.85 192.75 97.4 190.13 99.7 189.86 99.7 189.76 100.5 188.1 102.37"/>
  <polygon class="st8" points="186.55 110.13 183.82 110.08 183.82 110.93 184.24 110.99 184.19 112.86 183.28 112.43 183.23 111.84 170.81 112.33 169.58 110.83 169.31 109.86 168.89 109.49 168.73 107.03 168.62 105.1 169.15 104.62 169.1 103.44 168.3 102.21 166.85 97.45 165.78 93.81 164.71 91.03 164.61 88.99 175.25 87.71 174.72 88.62 174.88 89.69 175.9 90.39 177.24 90.49 179.16 93.28 179.64 93.44 181.36 94.88 183.07 96.86 183.87 96.92 185.05 99 185.16 100.18 186.01 100.18 186.71 100.71 186.65 101.57 187.19 102.37 188.1 102.37 187.99 103.17 187.62 103.98 187.03 106.12 186.55 110.13"/>
  <polygon class="st8" points="182 53.78 181.51 55.28 181.62 60.26 179.86 62.02 178.68 62.24 178.09 63.41 178.14 65.18 177.56 65.29 177.56 64.7 176.86 64.75 176.65 67 176.16 67.59 176.06 68.07 175.15 68.07 175.15 70.16 176.27 70.69 176.91 72.24 178.36 73.21 179.37 74.22 180.77 74.55 181.41 73.9 182.05 74.33 183.23 74.06 183.66 72.99 185.64 72.57 186.22 71.66 186.17 70.05 187.78 65.5 188.69 66.2 189.7 66.09 189.81 64.43 190.67 64.16 192.22 61.76 192.22 59.94 193.07 60.04 195 60.95 195.05 59.99 193.13 58.55 190.13 59.4 187.83 61.7 187.29 58.71 183.23 59.29 182 53.78"/>
  <polygon class="st8" points="158.45 115.86 156.63 116.45 156.31 116.18 156.84 115.8 156.2 114.15 155.45 113.98 155.13 114.79 155.08 115.59 153.85 115.8 152.99 107.78 153.21 89.8 164.61 88.99 164.6 90.76 168.3 102.21 169.1 103.44 169.15 104.62 168.62 105.1 168.89 109.49 169.31 109.86 169.42 110.61 157.17 111.95 157.06 112.91 158.34 113.93 158.45 115.86"/>
  <polygon class="st8" points="180.77 77.54 154.76 80.54 152.73 80.54 152.78 81.83 146.09 81.93 145.98 83.96 145.18 85.89 144.97 87.28 144.59 87.82 143.63 87.98 143.73 88.62 144.06 88.83 143.73 90.28 152.99 89.85 164.61 88.99 170.12 88.19 170.12 86.8 171.24 86.64 171.45 85.52 175.58 83.11 175.95 81.98 177.77 81.45 178.36 80.59 179.8 80.49 180.71 79.15 180.77 77.54"/>
  <polygon class="st8" points="153.85 115.8 150.96 116.07 149.14 116.39 148.5 117.2 147.91 116.39 146.89 114.95 146.94 113.02 138.44 113.18 138.22 110.83 140.1 107.83 140.52 107.13 140.68 106.06 140.9 105.69 140.36 104.89 139.93 103.55 139.77 102.37 139.77 101.46 139.88 99.64 139.83 97.07 140.74 95.2 141.91 94.13 142.13 92.53 143.47 91.35 143.47 90.44 143.73 90.28 153.21 89.8 152.99 107.78 153.85 115.8"/>
  <polygon class="st2" points="128.39 120.82 128.39 119.54 128.66 115.68 129.3 115.04 129.19 111.72 127.96 110.44 128.02 109.26 126.89 107.66 126.89 102.15 139.95 102.2 140.22 103.59 140.65 104.93 141.18 105.73 140.91 106.8 138.51 110.87 138.72 113.22 147.23 113.06 147.18 114.99 148.78 117.24 147.6 118.36 147.82 119 148.73 118.95 148.83 118.25 149.37 117.88 149.85 118.47 149.74 119.32 148.73 120.07 148.51 120.61 148.46 121.25 150.28 121.62 151.19 122.05 151.78 122.8 151.08 123.34 150.38 123.23 149.32 122.59 148.46 122.43 147.76 122.16 147.6 121.2 146.85 121.68 146.69 122.64 146.59 123.39 145.25 123.93 145.57 123.18 145.62 122.59 144.45 123.02 143.86 123.71 143.32 123.93 142.3 123.87 141.23 123.39 140.75 122.96 140.7 122.43 141.02 122.11 140.97 121.68 139.52 121.57 139.15 120.45 136.47 120.34 136.69 120.93 138.61 121.41 138.29 122.05 136.58 121.52 135.03 121.57 133.31 121.2 131.76 120.39 130.21 120.5 128.39 120.82"/>
  <polygon class="st6" points="199.93 63.41 198.35 62.88 197.02 63.87 197.05 62.22 195.69 61.26 197.27 60.77 197.77 59.18 198.72 60.54 200.38 60.52 199.39 61.85 199.93 63.41"/>
  <polygon class="st8" points="86.62 79.11 109.06 80.23 123.47 80.27 123.55 83.08 124.47 89.74 124.43 99.38 121.58 97.45 120.99 97.72 117.35 97.82 116.66 98.57 115.21 98.52 113.18 97.45 112.96 98.74 111.68 98.63 110.88 97.61 109.75 97.66 109.38 97.93 108.52 97.99 107.67 96.38 106.97 96.33 106.17 96.86 103.06 95.74 103.01 94.83 100.66 94.77 99.48 93.54 100.07 82.41 86.26 82.2 86.62 79.11"/>
  <polygon class="st8" points="206.72 64.7 205.18 65.42 204.94 66.91 204.62 69.47 205.06 70.36 205.58 69.76 206.06 68.39 205.94 66.67 206.75 65.7 206.72 64.7"/>
  <polygon class="st8" points="180.94 47.44 180.02 47.68 176.36 50.57 175.92 50.97 174.76 51.05 173.76 51.62 172.63 51.62 171.83 51.05 170.22 51.01 169.26 50.21 168.42 50.61 166.49 50.73 163.56 50.97 165.33 65.74 166.49 65.82 166.69 65.5 167.3 65.62 168.22 67.11 169.86 67.15 170.18 67.83 170.79 67.43 171.15 67.15 171.75 67.23 172.27 67.75 173.44 66.58 173.76 66.75 175.15 68.07 176.06 68.07 176.21 67.43 176.65 67 176.86 64.75 177.56 64.7 177.56 65.29 178.14 65.18 178.09 63.41 178.68 62.24 179.86 62.02 181.62 60.26 181.51 55.28 182.02 53.98 180.94 47.44"/>
  <polygon class="st8" points="152.64 52.58 153.61 52.9 155.57 51.7 163.56 50.97 165.33 65.74 164.92 66.26 165.13 66.75 165.57 67.11 164.41 68.03 163.08 68.07 162.96 69.56 161.27 71.12 161.23 72.41 159.83 72.32 159.51 72 158.71 72.57 158.67 73.53 158.02 73.45 157.58 72.81 156.9 73.01 156.22 73.93 155.65 73.89 155.25 73.33 153.13 73.57 152.04 74.37 152.12 72.21 153.77 69.68 154.01 67.71 153.33 67.03 152.64 52.74 152.64 52.58"/>
  <polygon class="st8" points="146.54 81.92 147.06 81.23 147.59 81.27 147.59 80.19 147.95 79.95 147.87 79.63 147.67 79.03 147.63 78.46 148.87 78.06 150.52 78.79 150.84 77.94 150.6 77.7 150.56 76.58 151.88 76.42 151.92 75.5 152.04 74.37 153.13 73.57 155.25 73.33 155.65 73.89 156.22 73.93 156.9 73.01 157.58 72.81 158.02 73.45 158.67 73.53 158.71 72.57 159.51 72 159.83 72.32 161.23 72.41 161.27 71.12 162.96 69.56 163.08 68.07 164.41 68.03 165.57 67.11 165.13 66.75 164.89 66.1 165.33 65.74 166.49 65.82 166.69 65.5 167.3 65.62 168.22 67.11 169.86 67.15 170.18 67.83 171.15 67.15 171.75 67.23 172.27 67.75 173.44 66.58 173.76 66.75 175.15 68.07 175.15 70.16 176.27 70.69 176.91 72.24 178.36 73.21 175.2 76.37 175.24 77.3 174.61 77.43 173.47 78.31 154.76 80.54 152.73 80.54 152.78 81.83 146.54 81.92"/>
  <polygon class="st8" points="150.9 48.22 150.96 49.77 151.87 50.89 152.64 52.58 153.33 67.03 154.01 67.71 153.77 69.68 152.12 72.21 151.87 76.26 150.56 76.58 150.6 77.7 150.84 77.94 150.52 78.79 148.87 78.06 147.63 78.46 147.59 79.36 146.79 79.31 146.14 77.97 146.2 77.17 145.23 74.97 143.95 74.97 141.76 72.24 142.88 69.73 142.51 69.19 140.15 68.82 140.2 67.43 136.94 64.48 136.46 63.15 136.4 61.01 136.99 60.68 136.88 59.61 138.06 59.29 138.06 57.96 138.65 57.58 138.49 56.73 137.9 56.24 137.95 55.39 138.49 54.9 139.45 54.9 140.84 53.83 141.43 51.43 139.19 49.39 139.13 48.59 150.9 48.22"/>
  <polygon class="st8" points="123.47 80.27 108.68 80.32 91.08 79.31 92.04 62.83 120.3 63.41 120.88 64.22 121.95 64.38 121.95 65.18 121.42 65.61 121.42 66.68 123.4 68.82 123.47 80.27"/>
  <path class="st8" d="M136.51,43.67l-.11-1.87-2.89-2.41-.59-.91h-.8l-.16-.69h-1.12l-.75-.86-.16-2.83.32-.8.05-.8-.69-.75.32-.64,1.93-2.19.21-3.05s2.36.05,2.2,0,2.84-1.61,2.84-1.61l.8.38-.96,1.39.48.32,1.02-.21,1.07.59.65.8,1.12.21,2.35.43,4.55,1.07,1.07,1.02.43,2.35.69,1.02-1.39,2.35.16.91.54-.16,3.05-4.39.21.8-1.71,4.01v1.82l-.43,1.07.27,1.5-.59,1.07-.27,1.18.69,4.44-11.77.37-1.18-.59-.96-1.07-.11-1.34.8-.43-.32-.64-.86-.86h0Z"/>
  <polygon class="st8" points="92.41 57.53 84.01 56.51 84.87 45.33 107.77 46.72 109.22 47.9 110.08 47.9 110.39 47.52 112.59 47.52 115.69 49.55 117.62 55.39 118.53 60.2 118.96 61.86 120.3 63.41 92.04 62.83 92.41 57.53"/>
  <polygon class="st8" points="115.75 43.78 136.51 43.67 137.37 44.52 137.69 45.17 136.88 45.59 136.99 46.93 137.95 48 139.13 48.59 139.19 49.56 141.43 51.43 140.84 53.83 139.45 54.9 138.49 54.9 137.95 55.39 137.9 56.24 138.55 56.89 138.65 57.58 138.12 58.12 138.06 59.29 136.88 59.61 136.99 60.68 136.4 61.01 135.76 59.78 118.53 60.2 117.57 55.76 115.69 49.55 115.1 48 115.59 46.77 115.85 45.65 115.16 45.11 115.1 43.78 115.75 43.78"/>
  <polygon class="st8" points="84.87 45.33 86.48 29.27 115.32 30.56 115.32 31.41 114.3 32.32 115.75 34.09 115.75 43.78 115.1 43.78 115.16 45.11 115.85 45.65 115.1 48 115.53 49.18 112.59 47.52 110.18 47.57 110.08 47.9 109.22 47.9 107.77 46.72 84.87 45.33"/>
  <polygon class="st8" points="155.57 51.7 156.58 49.85 157.42 48.49 157.38 45.23 155.49 42.02 155.77 38.41 156.22 35.4 156.78 35.2 156.66 34.08 157.74 33.19 157.98 32.31 158.54 32.11 158.75 32.87 158.26 33.84 158.18 34.64 159.11 34.32 159.19 31.71 159.67 31.43 160.71 31.39 160.87 30.74 160.07 30.74 159.99 29.78 161.43 28.7 162.28 29.58 162.88 29.22 165.37 30.34 166.49 30.46 167.45 31.87 166.81 32.35 166.85 32.83 167.62 33.51 167.54 36.28 166.81 37.21 166.49 38.29 166.01 38.33 165.81 39.9 166.93 40.18 167.86 38.85 168.26 37.97 169.66 37.17 171.11 39.29 171.99 42.46 172.07 45.43 171.15 45.39 170.3 47.28 170.14 48.6 169.26 50.21 168.42 50.61 155.57 51.7"/>
  <polygon class="st8" points="150.37 33.61 152.12 29.58 152.68 29.58 153.33 29.74 154.21 29.18 154.69 29.42 155.45 28.38 157.58 28.06 158.02 27.53 160.75 27.93 163.48 27.37 165.85 27.66 166.09 27.17 165.53 26.41 163.96 26.89 163.32 26.41 163.08 24.32 162.36 24.56 162.04 24.77 160.51 25.33 159.55 25 159.55 23.6 158.79 23.72 157.42 24.32 155.09 24.36 153.53 25.69 150.68 25.61 149.11 23.92 147.79 23.68 146.47 24.36 146.34 23.64 146.91 22.92 146.95 22.44 148.71 21.15 149.03 20.83 148.83 20.39 147.19 20.71 144.82 22.76 144.66 23.48 142.77 24.64 141.61 24.85 140.96 25.53 139.36 26.01 139.28 26.57 139.51 26.7 140.15 27.51 148.18 29.22 149.25 30.24 149.68 32.59 150.37 33.61"/>
  <g>
    <polygon class="st5" points="209.94 46.83 209.4 41.15 216.09 39.87 216.68 43.24 215.61 43.88 214.91 44.42 212.83 44.79 209.94 46.83"/>
    <polygon class="st5" points="202.61 55.87 204.59 62.77 207.21 62.51 206.94 60.58 205.76 59.78 205.18 58.49 204.16 57.58 203.94 56.25 203.89 55.39 202.61 55.87"/>
  </g>
  <g>
    <path class="st1" d="M219.03,32.91l-.13-.06-.46-.21-.05-.75-.96-.27-2.94-10.01.69-.32.16-2.03,1.02-1.45-.05-.8-.37-.48-.11-1.44.37-.32.11-2.68,1.23-3.16s.37-2.84,1.87.05l.48-.05s2.73-4.01,4.33,1.39l1.82,5.3,1.5.27.21,1.66s5.51,1.18-.75,5.3l-1.61.75-.16,1.23-1.39-1.28-.38.32v2.19l-.96.75v.8s-1.07.16-.91.32-.59.43-.59.43l-.8-.32-.38.75-.53,2.94-.27,1.18h.01Z"/>
    <polygon class="st1" points="218.77 33.87 217.48 35.21 215.45 35.75 212.72 36.39 212.08 36.55 212.19 27.77 213.47 26.6 213.52 25.15 213.1 24.67 213.26 21.51 214.49 21.62 217.43 31.63 218.39 31.89 218.45 32.64 219.03 32.91 218.77 33.87"/>
    <polygon class="st1" points="181.19 47.28 180.27 47.52 176.62 50.41 176.18 50.81 175.01 50.89 174.01 51.45 172.89 51.45 172.08 50.89 170.48 50.85 169.52 50.05 168.67 50.45 166.75 50.57 163.82 50.81 165.58 65.58 166.75 65.66 166.95 65.34 167.55 65.46 168.47 66.94 170.12 66.98 170.44 67.67 171.04 67.27 171.4 66.98 172.01 67.07 172.53 67.59 173.69 66.42 174.01 66.58 175.4 67.91 176.31 67.91 176.46 67.27 176.9 66.84 177.12 64.59 177.81 64.54 177.81 65.12 178.4 65.02 178.35 63.25 178.93 62.08 180.11 61.86 181.88 60.09 181.77 55.12 182.28 53.82 181.19 47.28"/>
    <polygon class="st1" points="213.1 23.28 206.19 24.99 206.41 26.55 207.05 28.58 207.05 29.59 207 30.67 207.53 31.58 208.07 32.8 208.71 34.04 209.19 35.48 209.24 36.93 212.08 36.55 212.19 27.77 213.47 26.6 213.52 25.15 213.1 24.67 213.1 23.28"/>
    <polygon class="st1" points="216.68 43.24 216.09 39.87 217.8 39.39 219.52 41.74 219.25 42.33 218.55 42.44 216.68 43.24"/>
    <path class="st1" d="M218.5,34.25l1.02.96-.8,1.44.22.8,1.12.16,1.61,1.87,1.34-.16s1.23-.59-1.02-1.5c0,.16,1.5-.21,1.5-.21,0,0,2.73,1.87-2.03,3.75l-.43-.91-.91.54v.86l-.59-.1-1.71-2.35-8.4,1.76-.16-4.23,8.24-1.71,1.02-.96h-.02Z"/>
    <path class="st1" d="M201.86,42.92l-17.5,3.64-.11-1.82,2.78-2.89-.11-.86s-3.64-1.71,1.23-3c-.16.16,3.11.05,3.11.05l.75.21.91-.37,1.44-.32,1.39-1.66,1.07-.21-.06-1.23-.27-1.07-.8-.32-.22-1.18,1.34-1.34,1.02-1.23.86-1.5,1.23-1.28,2.03-.48,1.82-.43,1.18-.21,1.23-.43.11,1.12.69,2.25v2.3l2.19,4.82.21,5.67.48,5.46-.11.86-.05.64.8-.54,2.14-.59,1.93-1.12.75-.64.8.37-.91,1.07-2.03,1.45-1.93.86-1.61.43h-.59l.05-2.25-3.8-1.13-1.02-.59-.54-.91-.37-.96-.75-.05-.8-.59s.04,0,.04,0Z"/>
    <polygon class="st1" points="181.15 47.25 182.43 54.21 183.45 59.45 202.61 55.87 204.43 55.18 206.46 52.87 204.69 50.95 203.84 50.63 203.78 49.77 204.53 49.29 204.11 48.65 204.32 47.9 204.8 47.63 204.91 46.29 205.34 46.02 204.32 45.43 203.41 43.56 202.66 43.51 201.86 42.92 184.36 46.56 184.2 44.53 181.15 47.25"/>
    <polygon class="st1" points="207.42 59.67 207.32 58.38 205.92 58.12 204.85 57.58 204.16 56.67 204.05 55.39 206.46 52.87 204.69 50.95 203.84 50.63 203.78 49.77 204.53 49.29 204.11 48.65 204.32 47.9 204.8 47.63 204.91 46.29 205.34 46.02 209.14 47.15 209.24 49.18 208.49 50.25 209.51 50.47 209.78 55.28 208.12 57.8 208.07 59.08 207.42 59.67"/>
    <polygon class="st1" points="207 64.7 205.18 65.5 204.37 64.43 202.61 64.11 202.07 62.67 202.55 62.24 201.96 61.76 202.23 60.1 201.75 59.45 202.23 58.22 201.8 58.12 200.84 59.56 200.89 61.49 201.32 63.42 202.12 64.49 202.5 65.66 201.16 65.4 199.18 64.91 197.95 64.16 198.06 63.52 196.4 60.58 195.6 60.04 195.17 59.78 193.4 58.55 192.17 59.08 190.89 59.4 190.41 59.4 189.76 59.88 189.34 60.26 188.75 61.01 188.1 61.7 187.57 58.71 202.61 55.87 204.59 62.77 207.21 62.51 207.37 64 207 64.7"/>
    <polygon class="st1" points="205.98 73.31 193.4 76.04 173.55 78.45 174.89 77.43 175.58 77.17 175.47 76.37 178.63 73.21 179.65 74.22 181.04 74.55 181.68 73.9 182.32 74.33 183.5 74.06 183.93 72.99 185 72.78 185.91 72.57 186.5 71.66 186.45 70.05 188.05 65.5 188.59 65.88 188.96 66.2 189.98 66.09 190.09 64.43 190.94 64.16 192.49 61.76 192.49 59.94 193.35 60.04 195.28 60.95 195.33 59.99 196.4 60.58 198.06 63.52 197.95 64.16 199.18 64.91 201.59 65.61 202.07 66.25 202.98 66.36 203.14 68.18 203.52 68.61 202.55 69.03 202.71 69.57 203.89 70.8 203.78 71.44 203.41 71.5 203.57 72.08 204.37 71.98 205.18 71.55 205.98 73.31"/>
    <path class="st1" d="M197.15,90.44l-5.62-4.01-4.92.27-1.02-1.29-6.15.32-3.91,1.98-5.19.32.05-1.23,1.13-.16.21-1.12,4.12-2.41.37-1.12,1.82-.54.59-.86,1.45-.11.91-1.34.06-1.61,11.77-1.39,13.16-2.83.7,1.18,1.66,2.46-.48,1.44-.7.91-.54.86-1.71.32-.05,1.98,1.76.21-.91,1.71s-4.71-.48-5.78,5.62l-2.78.43h0Z"/>
    <polygon class="st1" points="188.37 102.37 187.46 102.37 186.93 101.57 186.98 100.71 186.29 100.18 185.43 100.18 185.32 99 184.15 96.92 183.34 96.86 181.63 94.88 179.92 93.44 179.44 93.28 177.51 90.49 176.17 90.39 175.16 89.69 174.99 88.62 175.74 87.66 179.44 85.73 185.59 85.41 186.61 86.69 191.53 86.42 197.15 90.44 195.71 92.26 195.44 93.22 195.17 95.1 194.42 95.85 193.03 97.4 190.41 99.7 190.14 99.7 190.03 100.5 188.37 102.37"/>
    <polygon class="st1" points="186.82 110.13 184.09 110.08 184.09 110.93 184.52 110.99 184.47 112.86 183.56 112.43 183.5 111.84 171.09 112.33 169.86 110.83 169.59 109.86 169.16 109.49 169 107.03 168.89 105.1 169.43 104.62 169.38 103.44 168.57 102.21 167.13 97.45 166.06 93.81 164.99 91.03 164.88 88.99 175.53 87.71 174.99 88.62 175.16 89.69 176.17 90.39 177.51 90.49 179.44 93.28 179.92 93.44 181.63 94.88 183.34 96.86 184.15 96.92 185.32 99 185.43 100.18 186.29 100.18 186.98 100.71 186.93 101.57 187.46 102.37 188.37 102.37 188.27 103.17 187.89 103.98 187.3 106.12 186.82 110.13"/>
    <polygon class="st1" points="182.27 53.78 181.79 55.28 181.9 60.26 180.13 62.02 178.95 62.24 178.37 63.41 178.42 65.18 177.83 65.29 177.83 64.7 177.14 64.75 176.92 67 176.44 67.59 176.33 68.07 175.42 68.07 175.42 70.16 176.54 70.69 177.19 72.24 178.63 73.21 179.65 74.22 181.04 74.55 181.68 73.9 182.32 74.33 183.5 74.06 183.93 72.99 185.91 72.57 186.5 71.66 186.45 70.05 188.05 65.5 188.96 66.2 189.98 66.09 190.09 64.43 190.94 64.16 192.49 61.76 192.49 59.94 193.35 60.04 195.28 60.95 195.33 59.99 193.4 58.55 190.41 59.4 188.1 61.7 187.57 58.71 183.5 59.29 182.27 53.78"/>
    <polygon class="st1" points="181.04 77.54 155.03 80.54 153 80.54 153.05 81.83 146.36 81.93 146.26 83.96 145.46 85.89 145.24 87.28 144.87 87.82 143.9 87.98 144.01 88.62 144.33 88.83 144.01 90.28 153.27 89.85 164.88 88.99 170.39 88.19 170.39 86.8 171.52 86.64 171.73 85.52 175.85 83.11 176.22 81.98 178.04 81.45 178.63 80.59 180.08 80.49 180.99 79.15 181.04 77.54"/>
    <polygon class="st1" points="207 64.7 205.46 65.42 205.22 66.91 204.89 69.47 205.34 70.36 205.86 69.76 206.34 68.39 206.22 66.67 207.02 65.7 207 64.7"/>
    <polygon class="st1" points="146.82 81.92 147.34 81.23 147.86 81.27 147.86 80.19 148.22 79.95 148.14 79.63 147.94 79.03 147.9 78.46 149.15 78.06 150.79 78.79 151.11 77.94 150.87 77.7 150.83 76.58 152.16 76.42 152.2 75.5 152.32 74.37 153.4 73.57 155.53 73.33 155.93 73.89 156.49 73.93 157.17 73.01 157.86 72.81 158.3 73.45 158.94 73.53 158.98 72.57 159.78 72 160.1 72.32 161.51 72.41 161.55 71.12 163.23 69.56 163.36 68.07 164.68 68.03 165.84 67.11 165.4 66.75 165.16 66.1 165.6 65.74 166.77 65.82 166.97 65.5 167.57 65.62 168.49 67.11 170.14 67.15 170.46 67.83 171.42 67.15 172.03 67.23 172.55 67.75 173.71 66.58 174.03 66.75 175.42 68.07 175.42 70.16 176.54 70.69 177.19 72.24 178.63 73.21 175.47 76.37 175.52 77.3 174.89 77.43 173.75 78.31 155.03 80.54 153 80.54 153.05 81.83 146.82 81.92"/>
    <polygon class="st0" points="196.09 60.81 193.34 58.95 189.69 61.86 179.01 71.82 179.25 73.2 178.2 74.17 182.97 75.87 193.09 73.36 196.09 60.81"/>
  </g>
  <g>
    <polygon class="st3" points="152.9 52.42 153.86 52.74 155.83 51.53 163.82 50.81 165.58 65.58 165.18 66.1 165.38 66.58 165.82 66.94 164.66 67.87 163.34 67.91 163.21 69.39 161.53 70.96 161.49 72.24 160.08 72.16 159.76 71.84 158.96 72.4 158.92 73.37 158.28 73.29 157.83 72.64 157.15 72.84 156.47 73.77 155.91 73.73 155.51 73.17 153.38 73.41 152.3 74.21 152.38 72.04 154.02 69.51 154.26 67.55 153.58 66.86 152.9 52.58 152.9 52.42"/>
    <polygon class="st3" points="151.16 48.05 151.21 49.61 152.12 50.73 152.9 52.42 153.58 66.86 154.26 67.55 154.02 69.51 152.38 72.04 152.12 76.1 150.81 76.42 150.85 77.54 151.09 77.78 150.77 78.62 149.13 77.9 147.88 78.3 147.84 79.2 147.04 79.15 146.4 77.81 146.45 77 145.49 74.81 144.2 74.81 142.01 72.08 143.13 69.57 142.76 69.03 140.41 68.66 140.46 67.27 137.2 64.32 136.71 62.98 136.66 60.84 137.25 60.52 137.14 59.45 138.32 59.13 138.32 57.79 138.91 57.42 138.75 56.56 138.16 56.08 138.21 55.22 138.75 54.74 139.71 54.74 141.1 53.67 141.69 51.26 139.44 49.23 139.39 48.43 151.16 48.05"/>
    <path class="st3" d="M136.76,43.51l-.11-1.87-2.89-2.41-.59-.91h-.8l-.16-.69h-1.12l-.75-.86-.16-2.83.32-.8.05-.8-.69-.75.32-.64,1.93-2.19.21-3.05s2.36.05,2.19,0c-.16-.05,2.84-1.61,2.84-1.61l.8.38-.96,1.39.48.32,1.02-.21,1.07.59.65.8,1.12.21,2.35.43,4.55,1.07,1.07,1.02.43,2.35.69,1.02-1.39,2.35.16.91.54-.16,3.05-4.39.21.8-1.71,4.01v1.82l-.43,1.07.27,1.5-.59,1.07-.27,1.18.69,4.44-11.77.37-1.18-.59-.96-1.07-.11-1.34.8-.43-.32-.64-.86-.86h0Z"/>
    <polygon class="st3" points="113.17 13.54 113.75 14.88 111.96 16.61 113.43 18.78 116.33 20.73 119.24 24.13 127.01 26.32 136.76 43.51 136.66 41.63 133.77 39.22 133.34 38.32 132.38 38.31 132.22 37.62 131.09 37.62 130.34 36.76 130.18 33.93 130.5 33.12 130.56 32.32 129.86 31.57 129.97 31.14 132.11 28.74 132.32 25.68 135.59 22.9 136.34 21.51 142.06 18.41 142.28 17.93 140.89 18.03 140.08 17.61 137.35 17.55 137.25 17.02 135.53 18.03 133.98 18.03 133.87 17.39 132.91 17.39 132.65 16.43 131.79 16.91 129.38 15.36 127.94 15.25 127.24 15.73 126.17 15.84 125.85 15.41 124.51 15.47 123.28 14.93 122.26 11.4 120.87 11.29 120.93 13.32 113.17 13.54"/>
    <polygon class="st3" points="155.83 51.53 156.83 49.69 157.68 48.32 157.64 45.07 155.75 41.86 156.03 38.25 156.47 35.24 157.03 35.04 156.91 33.91 158 33.03 158.24 32.15 158.8 31.95 159 32.71 158.52 33.67 158.44 34.48 159.36 34.15 159.44 31.55 159.92 31.27 160.97 31.23 161.13 30.58 160.32 30.58 160.25 29.62 161.69 28.54 162.53 29.42 163.13 29.06 165.62 30.18 166.75 30.3 167.71 31.71 167.07 32.19 167.11 32.67 167.87 33.35 167.79 36.12 167.07 37.04 166.75 38.13 166.26 38.17 166.06 39.73 167.19 40.01 168.11 38.69 168.51 37.81 169.92 37 171.36 39.13 172.25 42.3 172.33 45.27 171.4 45.23 170.56 47.12 170.4 48.44 169.52 50.05 168.67 50.45 155.83 51.53"/>
    <polygon class="st3" points="150.63 33.45 152.38 29.42 152.94 29.42 153.58 29.58 154.47 29.02 154.95 29.26 155.71 28.21 157.83 27.89 158.28 27.37 161.01 27.77 163.74 27.21 166.1 27.49 166.35 27.01 165.78 26.25 164.22 26.73 163.58 26.25 163.34 24.16 162.61 24.4 162.29 24.6 160.77 25.16 159.8 24.84 159.8 23.44 159.04 23.56 157.68 24.16 155.35 24.2 153.78 25.53 150.93 25.45 149.37 23.76 148.04 23.52 146.72 24.2 146.6 23.48 147.16 22.76 147.2 22.28 148.97 20.99 149.29 20.67 149.09 20.23 147.44 20.55 145.07 22.6 144.91 23.32 143.03 24.48 141.86 24.68 141.22 25.36 139.62 25.85 139.53 26.41 139.76 26.54 140.41 27.35 148.43 29.06 149.5 30.07 149.93 32.43 150.63 33.45"/>
    <polygon class="st3" points="158.73 115.86 156.91 116.45 156.59 116.18 157.12 115.8 156.48 114.15 155.73 113.98 155.41 114.79 155.35 115.59 154.12 115.8 153.27 107.78 153.48 89.8 164.88 88.99 164.88 90.76 168.57 102.21 169.38 103.44 169.43 104.62 168.89 105.1 169.16 109.49 169.59 109.86 169.7 110.61 157.44 111.95 157.34 112.91 158.62 113.93 158.73 115.86"/>
    <polygon class="st3" points="154.12 115.8 151.23 116.07 149.41 116.39 148.77 117.2 148.18 116.39 147.17 114.95 147.22 113.02 138.71 113.18 138.5 110.83 140.37 107.83 140.8 107.13 140.96 106.06 141.17 105.69 140.64 104.89 140.21 103.55 140.05 102.37 140.05 101.46 140.16 99.64 140.1 97.07 141.01 95.2 142.19 94.13 142.4 92.53 143.74 91.35 143.74 90.44 144.01 90.28 153.48 89.8 153.27 107.78 154.12 115.8"/>
    <path class="st3" d="M161.93,110.68l-4.7-2.19-1.21,2.75-1.94,4.05-2.35.41-3.81-19.11v-6.31l8.01-.41,4.29,1.46,2.02,3.08s4.21,7.29,4.37,7.61c.16.32-4.7,8.66-4.7,8.66h.02Z"/>
    <polygon class="st3" points="150.59 121.73 151.19 122.05 151.78 122.8 151.08 123.34 150.38 123.23 149.32 122.59 148.46 122.43 147.76 122.16 147.43 122.08 146.79 121.97 146.59 123.39 145.13 123.96 145.57 123.18 145.53 122.7 144.45 123.02 144.03 123.71 143.32 123.93 142.42 123.96 141.44 123.71 140.75 122.96 140.7 122.43 140.8 122.26 140.97 121.68 139.52 121.57 139.22 120.56 138.21 119.42 136.75 118.45 136.26 116.26 133.35 115.29 132.13 113.11 127.28 108.01 123.63 106.31 119.75 103.39 117.56 102.18 115.38 100.72 111.49 100.48 108.82 99.75 105.66 99.75 103.48 98.78 100.32 98.29 97.89 98.05 95.46 95.62 90.12 93.43 85.5 92.22 83.32 91.25 80.89 90.52 77.97 86.63 76.03 85.66 77.97 83.23 77.73 79.83 79.19 77.89 77.97 76.68 77.73 74.73 74.57 73.28 74.09 68.18 77.25 64.78 77.49 63.08 75.55 62.59 74.57 60.16 73.12 58.46 73.36 57.25 71.9 56.76 70.57 54.09 69.35 53.6 66.07 48.02 64.74 44.74 61.7 42.19 60.49 39.52 60.24 36.97 59.52 36.72 58.79 35.27 58.06 33.69 57.09 33.69 57.33 34.42 55.27 34.66 54.05 34.05 53.2 34.3 52.35 34.05 51.62 34.9 51.02 32.47 50.17 31.99 50.17 30.77 49.07 27.37 49.92 25.19 51.99 23.12 53.32 23.37 54.54 24.09 55.87 24.22 56.36 21.79 56.6 19.48 55.75 17.17 54.66 14.99 54.9 13.65 53.2 11.83 52.59 9.64 52.84 8.43 114.39 13.79 116.99 14.02 122.06 23.37 124.85 22.27 128.01 24.94 131.65 32.72 138.94 41.22 145.25 52.87 146.22 75.95 147.27 78.78 147.68 80.48 146.54 81.92 146.06 83.31 144.68 87.52 143.87 87.68 143.55 90.52 143.79 92.87 141 95.38 141.09 97.51 141.45 101.27 141.85 103.23 141.85 105.98 141.52 108.65 138.71 113.18 138.69 114.69 139.54 114.93 140.51 116.87 142.7 118.57 145.13 118.33 146.63 118.89 147.07 119.06 147.55 119.11 149.37 117.88 149.85 118.47 149.74 119.32 148.73 120.19 148.46 121.25 150.59 121.73"/>
  </g>
  <polygon class="st2" points="114.4 19.85 114.39 13.79 93.11 11.91 93.03 13.69 98.54 14.34 101.13 20.49 103.07 22.76 105.98 20.82 107.93 20.17 108.9 22.44 108.9 26.65 110.84 27.62 114.08 28.27 114.4 19.85"/>
  <path class="st7" d="M19.85,0l20.21,5.34,4.03.66,20.66,3.8,22.91,2.95,25.3,1.06,7.76-.21-.05-2.03,1.39.11,1.02,3.53,1.23.54,1.34-.05.32.43,1.07-.11.69-.48,1.45.11,2.41,1.55.86-.48.27.96h.96l-.11,1.04,1.77-.39,1.71-1.02-.08.93,2.92-.34.8.43,1.18.38-5.73,3.1-.75,1.39-3.27,2.78h2.2l2.84-1.61.42.54-.97,1.34.87.21,1.02-.22.92-.11,1.6-.48.64-.68.65.06,2.41-1.42.16-.72,2.37-2.05,1.38.06-2.06,1.7-.61.85.57,1.04,1.01-.31,1.64-.13,1.57,1.69,2.85.08,1.57-1.32,2.33-.04,1.36-.6.76,1.29.96.32,2.57-1.01.24,2.09.64.48,1.57-.48.56.76-2.61.2-2.73.56-2.73-.4-.44.52-2.13.32-.76,1.04-.54-.63-.83.95-1.2-.16-3.14,6.38.16.91.54-.16,3.26-3.59-1.71,4.01v1.82l-.43,1.07-.17,1.27-.61,2.06.49,4.61v1.94l1.36.97.77,1.69.96.32,1.97-1.21,1.85-3.21-.04-3.25-1.89-3.21.72-6.62.56-.2-.12-1.12,1.08-.88.24-.88.76.56-.48.96-.08.8,1.31-.26-.31-2.67,1.53-.32.16-.65h-.8l-.08-.96,1.44-1.09.84.88.6-.36,2.49,1.12,1.12.12.96,1.41-.64.48.04.48.76.68-.08,2.77-1.53,2.05-.68-.07.48,1.64,1.13.28,1.32-2.21,1.2-.44,1.65,1.76.88,3.17-.35,2.72-.49.21-.84,1.89-.36.82-.97,1.7.73,1.34,2.19.36.75.12h1.13l1-.56,1.16-.08,5.02-3.53,2.98-2.91,2.84-2.68-.11-.86s-3.17-1.68,1.23-3l3.11.05.75.22,1.28-.25,1.08-.45,1.39-1.66,1.07-.21-.32-2.3-.42-.36-.59-1.14,2.35-2.57.86-1.5,1.23-1.28,5.86-1.28,7.3-1.99.16-1.77,1.23.11.69-.32.16-2.03,1.02-1.45-.05-.8-.37-.48.27-1.76.11-2.68,2-4.19,1.11,1.09.48-.05s3.03-3.1,3.63.79c.24.36,2.06,6.07,2.06,6.07l1.95.1.21,1.66s5.72.86-2.35,6.05l-.3.82-1.25-.87-.38.32-.44,1.76-.53,1.18v.8l-.91.32-1.39.11-1.3,4.27-.14,1.56-.27.38,1.02.96-.8,1.45.22.8,1.12.16,1.61,1.87s2.72-.02,1.38-1.35l.44-.52s2.73,1.87-2.03,3.75l-.35-1.29-1.09.49-.49,1.18-2.67,1.01-1.93,1.66-2.2-.08-2.83,2.28-.75.54.11,2.03-1.14,1.1,1.41.18.27,4.82-1.66,2.52-.5,1.23-2.76-1.44-.88-1.72.18,1.72.91,1.32,1.46,1.46.84,3.64-.35,1.7-.8.96.12,1.73-.48,1.37-.96-.28.28-3.97-.35-1.26-2.22-.14-.53-1.45.48-.43-.59-.48.27-1.66-.48-.64.48-1.23-.43-.11-1.35,1.52.49,3.64,1.21,1.82.83,1.26.16,1.82-.59.86,1.34,1.76-.48.7.16.59,1.61-.54,3.16,5.4-.48,1.45-1.23,1.76-1.71.32-.08,2.46h1.34l-.45,1.44s-3.8-1.08-5.99,4.99l-2.57,1.06-1.44,1.82-.54,2.84-5.03,4.6-1.76,2.68s-1.4,2.44-2.01,7.29l2.6,5.98,3.84,5.56.12,1.4,3.77,7.1.73,5.95-.48.76v1.92l-1.12,1.29h-1.18l-.86.28-.61-1.7-1.85-1.74h-1.39l-.7-.7-.27-1.34-.86-.91-1.23.43-1.39-2.89-1.98-2.57,1.55-1.71-.03-1.45-1.53.59-.05.43-.61-1.75.18-.72v-2.73l-1.34-1.55-1.44-.27-3.48-3.53-1.23-.54-1.82.21v1.02l-2.4.82-2.09.58-.05-.75-3.75-1.92-4.67-.45-1.21,1.09h-.8l-1.61-.05-.64-1.66-1.2-.47-.49,1.7-5.38,1.02-2.27,1.89.67.68.91-.06.11-.69,1.02.22-.11.85-1.02.75-.27,1.18,2.73.8-.11,1.29-2.62-.91-.86-1.23-.75.48-.27,1.71-1.02-.21.37-1.09-1.49.92-.59.7-1.55.16-1.61-1.45.32-.32-.06-.87-1.44.33-.37-1.12-2.68-.11.11,1.18-3.26-.32-1.55-.8-3.37.43-3.32,1.23-6.22,4.29-7.7,4.7-.2,1.13.46.74-1.56,2.66.12,1.7,1.46,3.64-1.09.61-1.02-.31-2.73-.27-.87-1.24-1.7.28-2.03-1.71-.43-1.71-.45-1.1-.56-2.91-1.13-.69-2.2-3.56-2.19-4.63-3.16-3.64-3.69-.43-.43-.54h-.96l-2.08.97-.49,1.7-1.58,1.46-3.28-2.19-2.91-2.27-.11-2.41-.39-2.25-1.94-1.82-.56.49-2.35-3.64-1.5-.32-1.23-1.92-.79-.67-6.97-.35-.44,1.68-4.01-.24-9.68-.8-15.34-10.01.12-1.09-11.11-.83-.16-3.85-2.62-3.85-1.5-.32-.05-1.5-1.55-.27-2.25-3.26h-1.12l-1.55-.96-1.39-.33-.64-.53,1.37-3.36-2.87-4.4-.11-1.02-1.23-1.66-.05-2.03.75-.37.43-1.55-.91-.32-.86-1.18-.11-2.78.43-1.18-1.44-1.39.05-2.2-1.93-3.75.8-2.64-.21-3.83-1.23-1.71.43-1.55,2.84-3.8.48-8.3,2.78-4.23,4.98-12.47v-2.14l1.02-.96-.59-.27.32-.94,1.21-.24-1.32-.85-.02-4.97-.85-.61.98-1.96,1.45,1.6,5.1,1.82,1.46,1.94.24-4.25.61-.73L19.9.04l-.05-.04Z"/>
  <polygon class="st2" points="224.83 13.38 223.53 15 221.87 15.32 220.78 15.69 219.8 15.32 219.08 16.66 217.62 17.03 216.77 17.51 216.02 17.03 216.16 16.05 215.92 14.79 216.24 12.41 216.65 11.68 218.1 7.79 218.99 8.12 219.4 9 221.14 7.67 221.99 7.43 222.96 8.03 223.81 9.86 224.91 12.53 224.83 13.38"/>
  <g>
    <circle class="st5" cx="199.18" cy="59.94" r="2.95"/>
    <path class="st4" d="M198.23,60.79c.6-.55,1.06-.98,1.06-1.32,0-.23-.13-.34-.31-.34-.17,0-.3.12-.42.24l-.37-.37c.26-.28.5-.41.88-.41.51,0,.87.33.87.83,0,.41-.38.86-.73,1.21.13-.02.31-.03.42-.03h.42v.58h-1.84v-.39Z"/>
  </g>
</svg>