<?xml version="1.0" encoding="UTF-8"?>
<svg id="Layer_1" xmlns="http://www.w3.org/2000/svg" version="1.1" viewBox="0 0 230 146.77">
  <!-- Generator: Adobe Illustrator 29.6.0, SVG Export Plug-In . SVG Version: 2.1.1 Build 207)  -->
  <defs>
    <style>
      .st0 {
        fill: gray;
      }

      .st1, .st2 {
        fill: #90278e;
      }

      .st3 {
        fill: #cdba9e;
      }

      .st4 {
        fill: #9b8579;
      }

      .st5 {
        fill: #d649d6;
      }

      .st5, .st6, .st7, .st8, .st2, .st9 {
        stroke-width: .49px;
      }

      .st5, .st6, .st7, .st2, .st9 {
        stroke: #fff;
      }

      .st10 {
        fill: #fff;
      }

      .st6 {
        fill: #009345;
      }

      .st7 {
        fill: #6a8cc3;
      }

      .st8 {
        fill: none;
        stroke: #c8caca;
      }

      .st9 {
        fill: #ef7763;
      }
    </style>
  </defs>
  <polygon class="st9" points="218.48 34.07 217.2 35.41 215.16 35.95 212.43 36.59 211.78 36.75 211.89 27.97 213.18 26.79 213.23 25.34 212.8 24.86 212.96 21.7 214.2 21.81 217.14 31.83 218.11 32.09 218.16 32.84 218.75 33.11 218.48 34.07"/>
  <polygon class="st9" points="212.8 23.47 205.89 25.18 206.11 26.74 206.75 28.77 206.75 29.79 206.7 30.86 207.23 31.77 207.77 33 208.41 34.24 208.89 35.68 208.94 37.13 211.78 36.75 211.89 27.97 213.18 26.79 213.23 25.34 212.8 24.86 212.8 23.47"/>
  <path class="st7" d="M218.21,34.45l1.02.96-.81,1.45.22.8,1.12.16,1.61,1.87,1.34-.16s1.23-.59-1.02-1.5c0,.16,1.5-.21,1.5-.21,0,0,2.73,1.87-2.03,3.75l-.43-.91-.91.54v.86l-.59-.1-1.72-2.36-8.41,1.77-.16-4.23,8.25-1.72,1.02-.96h0Z"/>
  <polygon class="st9" points="209.64 47.04 209.11 41.36 215.8 40.07 216.39 43.45 215.32 44.09 214.62 44.63 212.53 45 209.64 47.04"/>
  <path class="st9" d="M201.55,43.13l-17.52,3.64-.11-1.82,2.78-2.89-.11-.86s-3.64-1.71,1.23-3c-.16.16,3.11.05,3.11.05l.75.21.91-.37,1.45-.32,1.39-1.66,1.07-.21-.06-1.23-.27-1.07-.8-.32-.22-1.18,1.34-1.34,1.02-1.23.86-1.5,1.23-1.29,2.03-.48,1.82-.43,1.18-.21,1.23-.43.11,1.12.7,2.25v2.3l2.2,4.82.21,5.68.48,5.46-.11.86-.06.64.81-.54,2.14-.59,1.93-1.12.75-.64.8.37-.91,1.07-2.04,1.45-1.93.86-1.61.43h-.59l.05-2.25-3.8-1.13-1.02-.59-.54-.91-.37-.96-.75-.05-.8-.59h.04Z"/>
  <polygon class="st9" points="180.82 47.47 182.11 54.43 183.12 59.68 202.3 56.09 204.12 55.4 206.16 53.09 204.39 51.16 203.53 50.84 203.48 49.99 204.23 49.5 203.8 48.86 204.02 48.11 204.5 47.84 204.61 46.5 205.04 46.23 204.02 45.65 203.11 43.77 202.36 43.72 201.55 43.13 184.03 46.77 183.87 44.74 180.82 47.47"/>
  <polygon class="st9" points="207.12 59.9 207.02 58.61 205.62 58.34 204.55 57.81 203.86 56.9 203.75 55.61 206.16 53.09 204.39 51.16 203.53 50.84 203.48 49.99 204.23 49.5 203.8 48.86 204.02 48.11 204.5 47.84 204.61 46.5 205.04 46.23 208.84 47.36 208.94 49.4 208.2 50.47 209.21 50.68 209.48 55.5 207.82 58.02 207.77 59.31 207.12 59.9"/>
  <polygon class="st9" points="202.3 56.09 204.28 63 206.91 62.73 206.64 60.81 205.46 60 204.87 58.72 203.86 57.81 203.64 56.47 203.59 55.61 202.3 56.09"/>
  <polygon class="st9" points="206.7 64.93 204.87 65.74 204.07 64.66 202.3 64.34 201.77 62.9 202.25 62.47 201.66 61.98 201.93 60.32 201.45 59.68 201.93 58.45 201.5 58.34 200.53 59.79 200.59 61.72 201.02 63.65 201.82 64.72 202.19 65.9 200.86 65.63 198.87 65.14 197.64 64.39 197.75 63.75 196.09 60.81 195.28 60.27 194.86 60 193.09 58.77 191.86 59.31 190.57 59.63 190.09 59.63 189.44 60.11 189.02 60.49 188.43 61.24 187.78 61.93 187.25 58.93 202.3 56.09 204.28 63 206.91 62.73 207.07 64.24 206.7 64.93"/>
  <polygon class="st9" points="205.68 73.56 193.09 76.29 173.21 78.7 174.55 77.68 175.25 77.41 175.14 76.61 178.3 73.45 179.32 74.47 180.71 74.79 181.36 74.14 182 74.57 183.18 74.31 183.61 73.23 184.68 73.02 185.59 72.81 186.18 71.9 186.12 70.29 187.73 65.73 188.27 66.11 188.64 66.43 189.66 66.32 189.77 64.66 190.62 64.39 192.18 61.98 192.18 60.16 193.03 60.27 194.96 61.18 195.02 60.22 196.09 60.81 197.75 63.75 197.64 64.39 198.87 65.14 201.29 65.84 201.77 66.48 202.68 66.59 202.84 68.41 203.21 68.84 202.25 69.27 202.41 69.81 203.59 71.04 203.48 71.68 203.11 71.73 203.27 72.32 204.07 72.22 204.87 71.79 205.68 73.56"/>
  <path class="st9" d="M196.84,90.7l-5.63-4.02-4.93.27-1.02-1.29-6.16.32-3.91,1.98-5.2.32.05-1.23,1.13-.16.21-1.12,4.13-2.41.37-1.12,1.82-.54.59-.86,1.45-.11.91-1.34.06-1.61,11.78-1.39,13.18-2.84.7,1.18,1.66,2.47-.48,1.45-.7.91-.54.86-1.71.32-.05,1.98,1.77.21-.91,1.72s-4.71-.48-5.79,5.62l-2.79.43h0Z"/>
  <polygon class="st9" points="188.05 102.64 187.14 102.64 186.61 101.84 186.66 100.98 185.96 100.45 185.11 100.45 185 99.27 183.82 97.18 183.02 97.13 181.3 95.14 179.59 93.7 179.11 93.54 177.18 90.75 175.84 90.65 174.82 89.95 174.66 88.88 175.41 87.91 179.11 85.98 185.27 85.66 186.29 86.95 191.21 86.68 196.84 90.7 195.39 92.52 195.13 93.48 194.86 95.36 194.11 96.11 192.72 97.66 190.09 99.97 189.82 99.97 189.71 100.77 188.05 102.64"/>
  <polygon class="st9" points="186.5 110.41 183.77 110.36 183.77 111.21 184.2 111.27 184.15 113.14 183.23 112.72 183.18 112.13 170.75 112.61 169.52 111.11 169.25 110.14 168.82 109.77 168.66 107.31 168.55 105.38 169.09 104.89 169.04 103.72 168.23 102.48 166.79 97.71 165.72 94.07 164.64 91.29 164.54 89.25 175.2 87.96 174.66 88.88 174.82 89.95 175.84 90.65 177.18 90.75 179.11 93.54 179.59 93.7 181.3 95.14 183.02 97.13 183.82 97.18 185 99.27 185.11 100.45 185.96 100.45 186.66 100.98 186.61 101.84 187.14 102.64 188.05 102.64 187.95 103.45 187.57 104.25 186.98 106.39 186.5 110.41"/>
  <polygon class="st9" points="181.95 54 181.46 55.5 181.57 60.48 179.8 62.25 178.63 62.47 178.04 63.64 178.09 65.41 177.5 65.52 177.5 64.93 176.8 64.98 176.59 67.23 176.11 67.82 176 68.31 175.09 68.31 175.09 70.4 176.21 70.93 176.86 72.48 178.3 73.45 179.32 74.47 180.71 74.79 181.36 74.14 182 74.57 183.18 74.31 183.61 73.23 185.59 72.81 186.18 71.9 186.12 70.29 187.73 65.73 188.64 66.43 189.66 66.32 189.77 64.66 190.62 64.39 192.18 61.98 192.18 60.16 193.03 60.27 194.96 61.18 195.02 60.22 193.09 58.77 190.09 59.63 187.78 61.93 187.25 58.93 183.18 59.52 181.95 54"/>
  <polygon class="st9" points="158.38 116.14 156.55 116.73 156.23 116.46 156.77 116.09 156.12 114.43 155.38 114.27 155.05 115.07 155 115.88 153.77 116.09 152.91 108.06 153.13 90.05 164.54 89.25 164.54 91.02 168.23 102.48 169.04 103.72 169.09 104.89 168.55 105.38 168.82 109.77 169.25 110.14 169.36 110.89 157.09 112.23 156.98 113.2 158.27 114.22 158.38 116.14"/>
  <polygon class="st9" points="180.71 77.79 154.68 80.79 152.64 80.79 152.7 82.07 146 82.18 145.89 84.22 145.09 86.15 144.88 87.54 144.5 88.07 143.54 88.23 143.64 88.88 143.97 89.09 143.64 90.54 152.91 90.11 164.54 89.25 170.05 88.45 170.05 87.06 171.18 86.89 171.39 85.77 175.52 83.36 175.89 82.23 177.71 81.7 178.3 80.84 179.75 80.73 180.66 79.39 180.71 77.79"/>
  <polygon class="st9" points="153.77 116.09 150.87 116.36 149.05 116.68 148.41 117.48 147.82 116.68 146.8 115.23 146.86 113.3 138.34 113.46 138.13 111.11 140 108.11 140.43 107.41 140.59 106.34 140.8 105.96 140.27 105.16 139.84 103.82 139.68 102.64 139.68 101.73 139.79 99.91 139.73 97.34 140.64 95.47 141.82 94.39 142.04 92.79 143.38 91.61 143.38 90.7 143.64 90.54 153.13 90.05 152.91 108.06 153.77 116.09"/>
  <polygon class="st7" points="199.89 63.64 198.32 63.11 196.99 64.1 197.01 62.44 195.66 61.49 197.24 60.99 197.73 59.41 198.69 60.76 200.35 60.74 199.36 62.07 199.89 63.64"/>
  <polygon class="st9" points="86.47 79.35 108.93 80.48 123.36 80.52 123.44 83.33 124.36 90 124.32 99.64 121.47 97.72 120.87 97.98 117.23 98.09 116.54 98.84 115.09 98.79 113.05 97.72 112.84 99 111.55 98.9 110.75 97.88 109.63 97.93 109.25 98.2 108.39 98.25 107.54 96.65 106.84 96.59 106.04 97.13 102.93 96 102.88 95.09 100.52 95.04 99.34 93.81 99.93 82.66 86.11 82.45 86.47 79.35"/>
  <polygon class="st9" points="206.7 64.93 205.16 65.65 204.91 67.14 204.59 69.71 205.04 70.6 205.56 69.99 206.04 68.63 205.92 66.9 206.72 65.94 206.7 64.93"/>
  <polygon class="st9" points="180.89 47.65 179.96 47.89 176.31 50.79 175.87 51.19 174.7 51.27 173.7 51.83 172.57 51.83 171.77 51.27 170.16 51.23 169.2 50.43 168.35 50.83 166.42 50.95 163.49 51.19 165.26 65.98 166.42 66.05 166.62 65.73 167.23 65.86 168.15 67.34 169.8 67.38 170.12 68.06 170.72 67.66 171.08 67.38 171.69 67.46 172.21 67.98 173.38 66.82 173.7 66.98 175.09 68.31 176 68.31 176.15 67.66 176.59 67.23 176.8 64.98 177.5 64.93 177.5 65.52 178.09 65.41 178.04 63.64 178.63 62.47 179.8 62.25 181.57 60.48 181.46 55.5 181.97 54.2 180.89 47.65"/>
  <polygon class="st9" points="152.56 52.8 153.53 53.12 155.5 51.91 163.49 51.19 165.26 65.98 164.86 66.5 165.06 66.98 165.5 67.34 164.34 68.27 163.01 68.31 162.89 69.79 161.2 71.36 161.16 72.65 159.75 72.56 159.43 72.24 158.63 72.81 158.59 73.77 157.95 73.69 157.5 73.05 156.82 73.25 156.14 74.17 155.58 74.13 155.17 73.57 153.05 73.81 151.96 74.61 152.04 72.44 153.69 69.91 153.93 67.94 153.24 67.26 152.56 52.96 152.56 52.8"/>
  <polygon class="st9" points="146.46 82.17 146.98 81.48 147.5 81.52 147.5 80.44 147.86 80.2 147.78 79.88 147.58 79.28 147.54 78.71 148.79 78.31 150.43 79.03 150.75 78.19 150.51 77.95 150.47 76.82 151.8 76.66 151.84 75.74 151.96 74.61 153.05 73.81 155.17 73.57 155.58 74.13 156.14 74.17 156.82 73.25 157.5 73.05 157.95 73.69 158.59 73.77 158.63 72.81 159.43 72.24 159.75 72.56 161.16 72.65 161.2 71.36 162.89 69.79 163.01 68.31 164.34 68.27 165.5 67.34 165.06 66.98 164.82 66.34 165.26 65.98 166.42 66.05 166.62 65.73 167.23 65.86 168.15 67.34 169.8 67.38 170.12 68.06 171.08 67.38 171.69 67.46 172.21 67.98 173.38 66.82 173.7 66.98 175.09 68.31 175.09 70.4 176.21 70.93 176.86 72.48 178.3 73.45 175.14 76.61 175.18 77.55 174.55 77.68 173.42 78.55 154.68 80.79 152.64 80.79 152.7 82.07 146.46 82.17"/>
  <polygon class="st9" points="150.82 48.43 150.87 49.98 151.79 51.11 152.56 52.8 153.24 67.26 153.93 67.94 153.69 69.91 152.04 72.44 151.79 76.5 150.47 76.82 150.51 77.95 150.75 78.19 150.43 79.03 148.79 78.31 147.54 78.71 147.5 79.61 146.7 79.56 146.05 78.22 146.11 77.41 145.14 75.22 143.86 75.22 141.66 72.48 142.79 69.97 142.41 69.43 140.06 69.06 140.11 67.66 136.84 64.72 136.36 63.38 136.3 61.23 136.89 60.91 136.79 59.84 137.97 59.52 137.97 58.18 138.55 57.81 138.39 56.95 137.8 56.47 137.86 55.61 138.39 55.13 139.36 55.13 140.75 54.05 141.34 51.64 139.09 49.61 139.04 48.8 150.82 48.43"/>
  <polygon class="st9" points="123.36 80.52 108.56 80.57 90.93 79.56 91.89 63.06 120.18 63.64 120.77 64.45 121.84 64.61 121.84 65.41 121.31 65.84 121.31 66.91 123.29 69.06 123.36 80.52"/>
  <path class="st9" d="M136.41,43.88l-.11-1.87-2.89-2.41-.59-.91h-.8l-.16-.7h-1.12l-.75-.86-.16-2.84.32-.8.05-.8-.7-.75.32-.64,1.93-2.2.21-3.05s2.36.05,2.2,0,2.84-1.61,2.84-1.61l.8.38-.96,1.39.48.32,1.02-.21,1.07.59.65.8,1.12.21,2.36.43,4.55,1.07,1.07,1.02.43,2.36.7,1.02-1.39,2.36.16.91.54-.16,3.05-4.39.21.8-1.71,4.02v1.82l-.43,1.07.27,1.5-.59,1.07-.27,1.18.7,4.44-11.78.37-1.18-.59-.96-1.07-.11-1.34.8-.43-.32-.64-.86-.86h-.01Z"/>
  <polygon class="st9" points="92.27 57.75 83.86 56.73 84.72 45.54 107.64 46.93 109.09 48.11 109.95 48.11 110.27 47.73 112.47 47.73 115.57 49.77 117.5 55.61 118.41 60.43 118.84 62.09 120.18 63.64 91.89 63.06 92.27 57.75"/>
  <polygon class="st9" points="115.63 43.99 136.41 43.88 137.27 44.73 137.59 45.38 136.79 45.8 136.89 47.14 137.86 48.22 139.04 48.8 139.09 49.77 141.34 51.64 140.75 54.05 139.36 55.13 138.39 55.13 137.86 55.61 137.8 56.47 138.45 57.11 138.55 57.81 138.02 58.34 137.97 59.52 136.79 59.84 136.89 60.91 136.3 61.23 135.66 60 118.41 60.43 117.45 55.98 115.57 49.77 114.98 48.22 115.47 46.98 115.73 45.86 115.04 45.32 114.98 43.99 115.63 43.99"/>
  <polygon class="st9" points="84.72 45.54 86.32 29.47 115.2 30.75 115.2 31.61 114.18 32.52 115.63 34.29 115.63 43.99 114.98 43.99 115.04 45.32 115.73 45.86 114.98 48.22 115.41 49.39 112.47 47.73 110.06 47.79 109.95 48.11 109.09 48.11 107.64 46.93 84.72 45.54"/>
  <polygon class="st9" points="155.5 51.91 156.5 50.07 157.34 48.7 157.3 45.44 155.42 42.23 155.7 38.61 156.14 35.6 156.7 35.4 156.58 34.28 157.67 33.39 157.91 32.51 158.47 32.31 158.67 33.07 158.19 34.03 158.11 34.84 159.03 34.52 159.11 31.9 159.59 31.62 160.64 31.58 160.8 30.94 160 30.94 159.92 29.98 161.36 28.89 162.2 29.78 162.81 29.41 165.3 30.54 166.42 30.66 167.39 32.07 166.75 32.55 166.78 33.03 167.55 33.71 167.47 36.48 166.75 37.41 166.42 38.49 165.94 38.53 165.74 40.1 166.87 40.38 167.79 39.06 168.19 38.17 169.6 37.37 171.04 39.5 171.93 42.67 172.01 45.65 171.08 45.61 170.24 47.49 170.08 48.82 169.2 50.43 168.35 50.83 155.5 51.91"/>
  <polygon class="st9" points="150.29 33.81 152.04 29.78 152.6 29.78 153.24 29.94 154.13 29.37 154.61 29.61 155.38 28.57 157.5 28.25 157.95 27.73 160.68 28.13 163.41 27.57 165.78 27.85 166.02 27.37 165.46 26.6 163.89 27.08 163.25 26.6 163.01 24.51 162.29 24.75 161.96 24.95 160.44 25.52 159.47 25.19 159.47 23.79 158.71 23.91 157.34 24.51 155.01 24.55 153.45 25.88 150.6 25.8 149.03 24.11 147.7 23.87 146.38 24.55 146.26 23.83 146.82 23.11 146.86 22.62 148.63 21.34 148.95 21.02 148.75 20.57 147.1 20.9 144.73 22.95 144.57 23.67 142.68 24.83 141.51 25.03 140.87 25.72 139.27 26.2 139.18 26.76 139.41 26.9 140.06 27.7 148.09 29.41 149.16 30.43 149.59 32.79 150.29 33.81"/>
  <g>
    <path class="st6" d="M219.02,33.11l-.13-.06-.46-.21-.05-.75-.96-.27-2.94-10.02.7-.32.16-2.03,1.02-1.45-.05-.8-.37-.48-.11-1.45.37-.32.11-2.68,1.23-3.16s.37-2.84,1.87.05l.48-.05s2.73-4.02,4.34,1.39l1.82,5.31,1.5.27.21,1.66s5.52,1.18-.75,5.3l-1.61.75-.16,1.23-1.39-1.29-.38.32v2.2l-.96.75v.8s-1.07.16-.91.32-.59.43-.59.43l-.8-.32-.38.75-.53,2.95-.27,1.18h0Z"/>
    <polygon class="st6" points="218.75 34.07 217.47 35.41 215.43 35.95 212.7 36.59 212.06 36.75 212.17 27.97 213.45 26.79 213.5 25.34 213.08 24.86 213.24 21.7 214.47 21.81 217.42 31.83 218.38 32.09 218.43 32.84 219.02 33.11 218.75 34.07"/>
    <polygon class="st6" points="216.67 43.45 216.08 40.07 217.79 39.59 219.51 41.95 219.24 42.54 218.54 42.65 216.67 43.45"/>
    <path class="st6" d="M218.49,34.45l1.02.96-.81,1.45.22.8,1.12.16,1.61,1.87,1.34-.16s1.23-.59-1.02-1.5c0,.16,1.5-.21,1.5-.21,0,0,2.73,1.87-2.03,3.75l-.43-.91-.91.54v.86l-.59-.1-1.72-2.36-8.41,1.77-.16-4.23,8.25-1.72,1.02-.96h0Z"/>
    <polygon class="st6" points="209.92 47.04 209.38 41.36 216.08 40.07 216.67 43.45 215.59 44.09 214.9 44.63 212.81 45 209.92 47.04"/>
    <polygon class="st6" points="202.58 56.09 204.56 63 207.18 62.73 206.92 60.81 205.74 60 205.15 58.72 204.13 57.81 203.92 56.47 203.86 55.61 202.58 56.09"/>
  </g>
  <g>
    <polygon class="st2" points="213.08 23.47 206.17 25.18 206.38 26.74 207.02 28.77 207.02 29.79 206.97 30.86 207.51 31.77 208.04 33 208.68 34.24 209.17 35.68 209.22 37.13 212.06 36.75 212.17 27.97 213.45 26.79 213.5 25.34 213.08 24.86 213.08 23.47"/>
    <polygon class="st2" points="181.14 47.49 180.22 47.73 176.56 50.62 176.12 51.03 174.96 51.11 173.95 51.67 172.83 51.67 172.02 51.11 170.42 51.07 169.45 50.26 168.61 50.67 166.68 50.79 163.75 51.03 165.51 65.81 166.68 65.89 166.88 65.57 167.48 65.69 168.41 67.18 170.05 67.22 170.38 67.9 170.98 67.5 171.34 67.22 171.94 67.3 172.46 67.82 173.63 66.66 173.95 66.82 175.34 68.14 176.26 68.14 176.4 67.5 176.84 67.07 177.06 64.82 177.76 64.77 177.76 65.36 178.34 65.25 178.29 63.48 178.88 62.3 180.06 62.09 181.83 60.32 181.72 55.34 182.23 54.04 181.14 47.49"/>
    <path class="st2" d="M201.83,43.13l-17.52,3.64-.11-1.82,2.78-2.89-.11-.86s-3.64-1.71,1.23-3c-.16.16,3.11.05,3.11.05l.75.21.91-.37,1.45-.32,1.39-1.66,1.07-.21-.06-1.23-.27-1.07-.8-.32-.22-1.18,1.34-1.34,1.02-1.23.86-1.5,1.23-1.29,2.03-.48,1.82-.43,1.18-.21,1.23-.43.11,1.12.7,2.25v2.3l2.2,4.82.21,5.68.48,5.46-.11.86-.06.64.81-.54,2.14-.59,1.93-1.12.75-.64.8.37-.91,1.07-2.04,1.45-1.93.86-1.61.43h-.59l.05-2.25-3.8-1.13-1.02-.59-.54-.91-.37-.96-.75-.05-.8-.59h.04Z"/>
    <polygon class="st2" points="181.1 47.47 182.38 54.43 183.4 59.68 202.58 56.09 204.4 55.4 206.44 53.09 204.67 51.16 203.81 50.84 203.76 49.99 204.51 49.5 204.08 48.86 204.29 48.11 204.77 47.84 204.88 46.5 205.31 46.23 204.29 45.65 203.38 43.77 202.63 43.72 201.83 43.13 184.31 46.77 184.15 44.74 181.1 47.47"/>
    <polygon class="st2" points="207.4 59.9 207.29 58.61 205.9 58.34 204.83 57.81 204.13 56.9 204.02 55.61 206.44 53.09 204.67 51.16 203.81 50.84 203.76 49.99 204.51 49.5 204.08 48.86 204.29 48.11 204.77 47.84 204.88 46.5 205.31 46.23 209.11 47.36 209.22 49.4 208.47 50.47 209.49 50.68 209.76 55.5 208.1 58.02 208.04 59.31 207.4 59.9"/>
    <polygon class="st2" points="206.97 64.93 205.15 65.74 204.35 64.66 202.58 64.34 202.04 62.9 202.52 62.47 201.94 61.98 202.2 60.32 201.72 59.68 202.2 58.45 201.77 58.34 200.81 59.79 200.86 61.72 201.29 63.65 202.09 64.72 202.47 65.9 201.13 65.63 199.15 65.14 197.92 64.39 198.02 63.75 196.36 60.81 195.56 60.27 195.13 60 193.36 58.77 192.13 59.31 190.84 59.63 190.36 59.63 189.72 60.11 189.29 60.49 188.7 61.24 188.06 61.93 187.52 58.93 202.58 56.09 204.56 63 207.18 62.73 207.34 64.24 206.97 64.93"/>
    <polygon class="st2" points="205.95 73.56 193.36 76.29 173.49 78.7 174.83 77.68 175.53 77.41 175.42 76.61 178.58 73.45 179.6 74.47 180.99 74.79 181.63 74.14 182.27 74.57 183.45 74.31 183.88 73.23 184.95 73.02 185.86 72.81 186.45 71.9 186.4 70.29 188.01 65.73 188.54 66.11 188.92 66.43 189.94 66.32 190.04 64.66 190.9 64.39 192.45 61.98 192.45 60.16 193.31 60.27 195.24 61.18 195.29 60.22 196.36 60.81 198.02 63.75 197.92 64.39 199.15 65.14 201.56 65.84 202.04 66.48 202.95 66.59 203.11 68.41 203.49 68.84 202.52 69.27 202.69 69.81 203.86 71.04 203.76 71.68 203.38 71.73 203.54 72.32 204.35 72.22 205.15 71.79 205.95 73.56"/>
    <path class="st2" d="M197.11,90.7l-5.63-4.02-4.93.27-1.02-1.29-6.16.32-3.91,1.98-5.2.32.05-1.23,1.13-.16.21-1.12,4.13-2.41.37-1.12,1.82-.54.59-.86,1.45-.11.91-1.34.06-1.61,11.78-1.39,13.18-2.84.7,1.18,1.66,2.47-.48,1.45-.7.91-.54.86-1.71.32-.05,1.98,1.77.21-.91,1.72s-4.71-.48-5.79,5.62l-2.79.43h0Z"/>
    <polygon class="st2" points="188.33 102.64 187.42 102.64 186.88 101.84 186.94 100.98 186.24 100.45 185.38 100.45 185.28 99.27 184.1 97.18 183.29 97.13 181.58 95.14 179.87 93.7 179.38 93.54 177.46 90.75 176.12 90.65 175.1 89.95 174.94 88.88 175.69 87.91 179.38 85.98 185.54 85.66 186.56 86.95 191.49 86.68 197.11 90.7 195.67 92.52 195.4 93.48 195.13 95.36 194.38 96.11 192.99 97.66 190.36 99.97 190.1 99.97 189.99 100.77 188.33 102.64"/>
    <polygon class="st2" points="186.78 110.41 184.04 110.36 184.04 111.21 184.47 111.27 184.42 113.14 183.51 112.72 183.46 112.13 171.03 112.61 169.79 111.11 169.53 110.14 169.1 109.77 168.94 107.31 168.83 105.38 169.37 104.89 169.31 103.72 168.51 102.48 167.06 97.71 165.99 94.07 164.92 91.29 164.81 89.25 175.47 87.96 174.94 88.88 175.1 89.95 176.12 90.65 177.46 90.75 179.38 93.54 179.87 93.7 181.58 95.14 183.29 97.13 184.1 97.18 185.28 99.27 185.38 100.45 186.24 100.45 186.94 100.98 186.88 101.84 187.42 102.64 188.33 102.64 188.22 103.45 187.85 104.25 187.26 106.39 186.78 110.41"/>
    <polygon class="st2" points="182.22 54 181.74 55.5 181.85 60.48 180.08 62.25 178.9 62.47 178.31 63.64 178.37 65.41 177.78 65.52 177.78 64.93 177.08 64.98 176.86 67.23 176.38 67.82 176.28 68.31 175.36 68.31 175.36 70.4 176.49 70.93 177.13 72.48 178.58 73.45 179.6 74.47 180.99 74.79 181.63 74.14 182.27 74.57 183.45 74.31 183.88 73.23 185.86 72.81 186.45 71.9 186.4 70.29 188.01 65.73 188.92 66.43 189.94 66.32 190.04 64.66 190.9 64.39 192.45 61.98 192.45 60.16 193.31 60.27 195.24 61.18 195.29 60.22 193.36 58.77 190.36 59.63 188.06 61.93 187.52 58.93 183.45 59.52 182.22 54"/>
    <polygon class="st2" points="180.99 77.79 154.95 80.79 152.92 80.79 152.97 82.07 146.28 82.18 146.17 84.22 145.37 86.15 145.15 87.54 144.78 88.07 143.81 88.23 143.92 88.88 144.24 89.09 143.92 90.54 153.19 90.11 164.81 89.25 170.33 88.45 170.33 87.06 171.45 86.89 171.67 85.77 175.79 83.36 176.17 82.23 177.99 81.7 178.58 80.84 180.03 80.73 180.93 79.39 180.99 77.79"/>
    <polygon class="st2" points="206.97 64.93 205.43 65.65 205.19 67.14 204.87 69.71 205.31 70.6 205.83 69.99 206.31 68.63 206.19 66.9 207 65.94 206.97 64.93"/>
    <polygon class="st2" points="146.73 82.17 147.25 81.48 147.78 81.52 147.78 80.44 148.14 80.2 148.06 79.88 147.86 79.28 147.82 78.71 149.06 78.31 150.71 79.03 151.03 78.19 150.79 77.95 150.75 76.82 152.08 76.66 152.11 75.74 152.23 74.61 153.32 73.81 155.45 73.57 155.85 74.13 156.42 74.17 157.1 73.25 157.78 73.05 158.22 73.69 158.87 73.77 158.91 72.81 159.71 72.24 160.03 72.56 161.44 72.65 161.48 71.36 163.16 69.79 163.29 68.31 164.61 68.27 165.78 67.34 165.33 66.98 165.09 66.34 165.53 65.98 166.7 66.05 166.9 65.73 167.5 65.86 168.43 67.34 170.07 67.38 170.4 68.06 171.36 67.38 171.96 67.46 172.48 67.98 173.65 66.82 173.97 66.98 175.36 68.31 175.36 70.4 176.49 70.93 177.13 72.48 178.58 73.45 175.42 76.61 175.46 77.55 174.83 77.68 173.69 78.55 154.95 80.79 152.92 80.79 152.97 82.07 146.73 82.17"/>
    <polygon class="st1" points="196.05 61.04 193.3 59.17 189.65 62.09 178.95 72.06 179.2 73.44 178.14 74.41 182.92 76.11 193.06 73.6 196.05 61.04"/>
  </g>
  <polygon class="st0" points="150.51 122.02 151.11 122.34 151.69 123.09 151 123.63 150.3 123.52 149.23 122.88 148.37 122.72 147.68 122.45 147.35 122.37 146.7 122.26 146.5 123.68 145.04 124.25 145.48 123.47 145.44 122.99 144.35 123.31 143.94 124.01 143.23 124.22 142.32 124.25 141.35 124.01 140.66 123.26 140.61 122.72 140.7 122.55 140.87 121.97 139.43 121.86 139.12 120.85 138.11 119.71 136.65 118.74 136.16 116.55 133.25 115.58 132.03 113.39 127.17 108.28 123.52 106.58 119.63 103.66 117.44 102.45 115.26 100.99 111.37 100.75 108.69 100.02 105.53 100.02 103.34 99.05 100.18 98.56 97.75 98.32 95.32 95.88 89.97 93.7 85.35 92.48 83.16 91.51 80.73 90.78 77.81 86.89 75.87 85.92 77.81 83.49 77.57 80.08 79.03 78.14 77.81 76.92 77.57 74.98 74.41 73.52 73.92 68.41 77.08 65.01 77.33 63.31 75.38 62.82 74.41 60.39 72.95 58.69 73.19 57.47 71.74 56.98 70.4 54.31 69.18 53.82 65.9 48.23 64.56 44.95 61.52 42.4 60.31 39.72 60.07 37.17 59.34 36.93 58.61 35.47 57.88 33.89 56.9 33.89 57.15 34.62 55.08 34.86 53.87 34.25 53.01 34.49 52.16 34.25 51.43 35.1 50.83 32.67 49.98 32.18 49.98 30.97 48.88 27.57 49.73 25.38 51.8 23.31 53.14 23.55 54.35 24.28 55.69 24.4 56.18 21.97 56.42 19.66 55.57 17.35 54.47 15.17 54.72 13.83 53.01 12.01 98.84 16.62 101.03 17.48 101.64 20.03 103.1 19.66 105.04 21.37 106.26 21.12 106.62 20.39 108.33 19.42 109.3 19.54 109.42 21.12 110.64 22.22 110.64 23.92 111.61 26.35 111.85 28.78 113.19 29.88 116.23 30.36 117.44 29.15 118.29 27.69 119.51 27.69 119.51 23.92 121.94 23.55 124.74 22.46 127.9 25.13 131.54 32.91 138.84 41.42 145.16 53.09 146.13 76.19 147.19 79.03 147.59 80.73 146.46 82.17 145.97 83.56 144.59 87.78 143.78 87.94 143.46 90.78 143.7 93.13 140.91 95.64 141 97.78 141.36 101.54 141.76 103.5 141.76 106.26 141.43 108.93 138.62 113.46 138.6 114.97 139.45 115.21 140.42 117.16 142.61 118.86 145.04 118.62 146.54 119.18 146.98 119.35 147.46 119.4 149.28 118.17 149.77 118.76 149.66 119.61 148.64 120.48 148.37 121.54 150.51 122.02"/>
  <polygon class="st3" points="128.28 121.11 128.28 119.83 128.55 115.97 129.2 115.33 129.09 112.01 127.86 110.72 127.91 109.54 126.78 107.93 126.78 102.42 139.85 102.47 140.12 103.86 140.55 105.2 141.09 106 140.82 107.08 138.41 111.15 138.62 113.51 147.14 113.34 147.09 115.27 148.69 117.52 147.52 118.65 147.73 119.29 148.64 119.24 148.75 118.54 149.28 118.17 149.77 118.76 149.66 119.61 148.64 120.36 148.43 120.9 148.37 121.54 150.19 121.92 151.11 122.34 151.69 123.09 151 123.63 150.3 123.52 149.23 122.88 148.37 122.72 147.68 122.45 147.52 121.49 146.77 121.97 146.61 122.93 146.5 123.68 145.16 124.22 145.48 123.47 145.53 122.88 144.35 123.31 143.77 124.01 143.23 124.22 142.21 124.17 141.14 123.68 140.66 123.26 140.61 122.72 140.93 122.4 140.87 121.97 139.43 121.86 139.05 120.74 136.37 120.63 136.59 121.22 138.52 121.7 138.19 122.34 136.48 121.81 134.93 121.86 133.21 121.49 131.66 120.68 130.1 120.79 128.28 121.11"/>
  <g>
    <polygon class="st4" points="152.82 52.63 153.78 52.96 155.75 51.75 163.75 51.03 165.51 65.81 165.11 66.33 165.32 66.82 165.76 67.18 164.59 68.1 163.27 68.14 163.14 69.63 161.46 71.2 161.42 72.48 160.01 72.4 159.69 72.08 158.89 72.64 158.85 73.61 158.2 73.53 157.76 72.88 157.08 73.08 156.4 74.01 155.83 73.97 155.43 73.41 153.3 73.65 152.21 74.45 152.3 72.28 153.94 69.75 154.18 67.78 153.5 67.1 152.82 52.8 152.82 52.63"/>
    <polygon class="st4" points="151.08 48.27 151.13 49.82 152.04 50.95 152.82 52.63 153.5 67.1 154.18 67.78 153.94 69.75 152.3 72.28 152.04 76.34 150.73 76.66 150.77 77.79 151.01 78.03 150.69 78.87 149.04 78.15 147.8 78.55 147.76 79.45 146.95 79.39 146.31 78.05 146.36 77.25 145.4 75.05 144.11 75.05 141.92 72.32 143.04 69.8 142.67 69.27 140.31 68.89 140.36 67.5 137.1 64.55 136.61 63.21 136.56 61.07 137.15 60.75 137.04 59.68 138.22 59.36 138.22 58.02 138.81 57.64 138.65 56.79 138.06 56.3 138.11 55.45 138.65 54.96 139.61 54.96 141.01 53.89 141.59 51.48 139.35 49.45 139.29 48.64 151.08 48.27"/>
    <path class="st4" d="M136.67,43.71l-.11-1.87-2.89-2.41-.59-.91h-.8l-.16-.7h-1.12l-.75-.86-.16-2.84.32-.8.05-.8-.7-.75.32-.64,1.93-2.2.21-3.05s2.36.05,2.2,0,2.84-1.61,2.84-1.61l.8.38-.96,1.39.48.32,1.02-.21,1.07.59.65.8,1.12.21,2.36.43,4.55,1.07,1.07,1.02.43,2.36.7,1.02-1.39,2.36.16.91.54-.16,3.05-4.39.21.8-1.71,4.02v1.82l-.43,1.07.27,1.5-.59,1.07-.27,1.18.7,4.44-11.78.37-1.18-.59-.96-1.07-.11-1.34.8-.43-.32-.64-.86-.86h-.01Z"/>
    <polygon class="st4" points="113.04 13.71 113.63 15.05 111.83 16.79 113.31 18.96 116.21 20.92 119.12 24.32 126.9 26.51 136.67 43.71 136.56 41.84 133.67 39.43 133.24 38.52 132.27 38.52 132.11 37.82 130.99 37.82 130.24 36.96 130.08 34.13 130.4 33.32 130.45 32.52 129.76 31.77 129.86 31.34 132.01 28.93 132.22 25.88 135.49 23.09 136.24 21.7 141.97 18.59 142.19 18.11 140.79 18.21 139.99 17.79 137.26 17.73 137.15 17.2 135.43 18.21 133.88 18.21 133.77 17.57 132.81 17.57 132.54 16.61 131.68 17.09 129.28 15.54 127.83 15.43 127.13 15.91 126.06 16.02 125.74 15.59 124.4 15.64 123.17 15.11 122.15 11.57 120.76 11.46 120.81 13.5 113.04 13.71"/>
    <polygon class="st4" points="155.75 51.75 156.76 49.9 157.6 48.54 157.56 45.28 155.67 42.07 155.95 38.45 156.4 35.44 156.96 35.24 156.84 34.11 157.92 33.23 158.16 32.34 158.72 32.14 158.93 32.91 158.44 33.87 158.36 34.68 159.29 34.35 159.37 31.74 159.85 31.46 160.89 31.42 161.05 30.78 160.25 30.78 160.17 29.81 161.62 28.73 162.46 29.61 163.06 29.25 165.55 30.38 166.68 30.5 167.64 31.9 167 32.38 167.04 32.87 167.81 33.55 167.72 36.32 167 37.25 166.68 38.33 166.2 38.37 166 39.94 167.12 40.22 168.05 38.89 168.45 38.01 169.85 37.21 171.3 39.34 172.19 42.51 172.26 45.48 171.34 45.44 170.5 47.33 170.34 48.66 169.45 50.26 168.61 50.67 155.75 51.75"/>
    <polygon class="st4" points="150.54 33.64 152.3 29.61 152.86 29.61 153.5 29.77 154.39 29.21 154.87 29.45 155.63 28.41 157.76 28.09 158.2 27.56 160.93 27.96 163.67 27.4 166.04 27.69 166.28 27.2 165.72 26.44 164.15 26.92 163.5 26.44 163.27 24.35 162.54 24.59 162.22 24.79 160.69 25.35 159.73 25.03 159.73 23.63 158.97 23.75 157.6 24.35 155.27 24.39 153.7 25.72 150.85 25.64 149.28 23.95 147.96 23.71 146.63 24.39 146.51 23.67 147.07 22.94 147.11 22.46 148.88 21.18 149.2 20.85 149 20.41 147.35 20.73 144.98 22.78 144.82 23.51 142.94 24.67 141.77 24.87 141.13 25.55 139.52 26.04 139.44 26.6 139.66 26.73 140.31 27.54 148.35 29.25 149.42 30.27 149.85 32.63 150.54 33.64"/>
    <polygon class="st4" points="158.65 116.14 156.83 116.73 156.51 116.46 157.04 116.09 156.4 114.43 155.65 114.27 155.33 115.07 155.28 115.88 154.04 116.09 153.19 108.06 153.4 90.05 164.81 89.25 164.81 91.02 168.51 102.48 169.31 103.72 169.37 104.89 168.83 105.38 169.1 109.77 169.53 110.14 169.63 110.89 157.36 112.23 157.26 113.2 158.54 114.22 158.65 116.14"/>
    <polygon class="st4" points="154.04 116.09 151.15 116.36 149.33 116.68 148.68 117.48 148.1 116.68 147.08 115.23 147.13 113.3 138.62 113.46 138.4 111.11 140.28 108.11 140.7 107.41 140.86 106.34 141.08 105.96 140.54 105.16 140.11 103.82 139.95 102.64 139.95 101.73 140.06 99.91 140.01 97.34 140.92 95.47 142.1 94.39 142.31 92.79 143.65 91.61 143.65 90.7 143.92 90.54 153.4 90.05 153.19 108.06 154.04 116.09"/>
    <path class="st4" d="M161.85,110.96l-4.7-2.19-1.22,2.76-1.95,4.05-2.35.41-3.81-19.13v-6.32l8.02-.41,4.3,1.46,2.03,3.08s4.21,7.29,4.38,7.62c.16.32-4.7,8.67-4.7,8.67h0Z"/>
    <polygon class="st4" points="150.51 122.02 151.11 122.34 151.69 123.09 151 123.63 150.3 123.52 149.23 122.88 148.37 122.72 147.68 122.45 147.35 122.37 146.7 122.26 146.5 123.68 145.04 124.25 145.48 123.47 145.44 122.99 144.35 123.31 143.94 124.01 143.23 124.22 142.32 124.25 141.35 124.01 140.66 123.26 140.61 122.72 140.7 122.55 140.87 121.97 139.43 121.86 139.12 120.85 138.11 119.71 136.65 118.74 136.16 116.55 133.25 115.58 132.03 113.39 127.17 108.28 123.52 106.58 119.63 103.66 117.44 102.45 115.26 100.99 111.37 100.75 108.69 100.02 105.53 100.02 103.34 99.05 100.18 98.56 97.75 98.32 95.32 95.88 89.97 93.7 85.35 92.48 83.16 91.51 80.73 90.78 77.81 86.89 75.87 85.92 77.81 83.49 77.57 80.08 79.03 78.14 77.81 76.92 77.57 74.98 74.41 73.52 73.92 68.41 77.08 65.01 77.33 63.31 75.38 62.82 74.41 60.39 72.95 58.69 73.19 57.47 71.74 56.98 70.4 54.31 69.18 53.82 65.9 48.23 64.56 44.95 61.52 42.4 60.31 39.72 60.07 37.17 59.34 36.93 58.61 35.47 57.88 33.89 56.9 33.89 57.15 34.62 55.08 34.86 53.87 34.25 53.01 34.49 52.16 34.25 51.43 35.1 50.83 32.67 49.98 32.18 49.98 30.97 48.88 27.57 49.73 25.38 51.8 23.31 53.14 23.55 54.35 24.28 55.69 24.4 56.18 21.97 56.42 19.66 55.57 17.35 54.47 15.17 54.72 13.83 53.01 12.01 52.41 9.82 52.65 8.6 114.27 13.97 116.87 14.19 121.94 23.55 124.74 22.46 127.9 25.13 131.54 32.91 138.84 41.42 145.16 53.09 146.13 76.19 147.19 79.03 147.59 80.73 146.46 82.17 145.97 83.56 144.59 87.78 143.78 87.94 143.46 90.78 143.7 93.13 140.91 95.64 141 97.78 141.36 101.54 141.76 103.5 141.76 106.26 141.43 108.93 138.62 113.46 138.6 114.97 139.45 115.21 140.42 117.16 142.61 118.86 145.04 118.62 146.54 119.18 146.98 119.35 147.46 119.4 149.28 118.17 149.77 118.76 149.66 119.61 148.64 120.48 148.37 121.54 150.51 122.02"/>
  </g>
  <polygon class="st3" points="114.28 20.03 114.27 13.97 92.89 12.09 92.89 13.87 98.4 14.52 100.99 20.68 102.93 22.95 105.85 21 107.8 20.35 108.77 22.62 108.77 26.84 110.71 27.81 113.96 28.46 114.28 20.03"/>
  <path class="st8" d="M19.87,0l20.23,5.34,4.04.66,20.68,3.8,22.94,2.96,25.33,1.06,7.77-.21-.06-2.04,1.39.11,1.02,3.54,1.23.54,1.34-.05.32.43,1.07-.11.7-.48,1.45.11,2.41,1.55.86-.48.27.96h.96l-.11,1.04,1.77-.4,1.71-1.02-.08.93,2.92-.34.8.43,1.18.38-5.73,3.11-.75,1.39-3.27,2.78h2.2l2.84-1.61.42.54-.97,1.34.88.21,1.02-.22.93-.11,1.6-.48.64-.68.65.06,2.41-1.42.16-.72,2.37-2.05,1.38.06-2.07,1.7-.61.85.57,1.04,1.01-.31,1.64-.13,1.57,1.69,2.85.08,1.57-1.33,2.33-.04,1.37-.6.76,1.29.96.32,2.57-1.01.24,2.09.64.48,1.57-.48.56.76-2.61.2-2.73.56-2.73-.4-.44.52-2.13.32-.77,1.04-.54-.63-.83.95-1.2-.16-3.15,6.39.16.91.54-.16,3.27-3.59-1.71,4.02v1.82l-.43,1.07-.17,1.27-.61,2.07.49,4.62v1.95l1.36.97.78,1.69.96.32,1.97-1.21,1.85-3.21-.04-3.26-1.89-3.21.72-6.63.56-.2-.12-1.12,1.08-.88.24-.89.76.56-.48.96-.08.8,1.31-.26-.31-2.67,1.53-.32.16-.65h-.8l-.08-.96,1.45-1.09.84.88.6-.36,2.49,1.12,1.12.12.96,1.41-.64.48.04.48.77.68-.08,2.77-1.53,2.05-.68-.07.48,1.64,1.13.28,1.33-2.21,1.2-.44,1.65,1.76.89,3.18-.35,2.72-.49.21-.84,1.89-.36.82-.97,1.7.73,1.34,2.19.36.75.12h1.13l1-.56,1.16-.08,5.02-3.54,2.99-2.92,2.84-2.68-.11-.86s-3.18-1.69,1.23-3l3.11.05.75.22,1.28-.25,1.08-.45,1.39-1.66,1.07-.21-.32-2.3-.43-.36-.59-1.14,2.36-2.57.86-1.5,1.23-1.28,5.87-1.28,7.31-1.99.16-1.77,1.23.11.7-.32.16-2.04,1.02-1.45-.05-.8-.37-.48.27-1.77.11-2.68,2-4.19,1.11,1.09.48-.05s3.03-3.1,3.64.79c.24.36,2.07,6.08,2.07,6.08l1.96.1.21,1.66s5.72.86-2.36,6.05l-.3.82-1.25-.87-.38.32-.44,1.77-.53,1.18v.8l-.91.32-1.39.11-1.3,4.27-.14,1.57-.27.38,1.02.96-.81,1.45.22.8,1.12.16,1.61,1.87s2.72-.02,1.38-1.36l.44-.52s2.73,1.87-2.03,3.75l-.35-1.29-1.09.49-.49,1.18-2.67,1.01-1.93,1.66-2.2-.08-2.84,2.28-.75.54.11,2.04-1.14,1.1,1.41.18.27,4.82-1.66,2.52-.5,1.23-2.77-1.44-.88-1.72.18,1.72.91,1.32,1.46,1.46.85,3.65-.35,1.7-.8.96.12,1.73-.48,1.37-.96-.28.28-3.97-.35-1.26-2.22-.14-.53-1.45.48-.43-.59-.48.27-1.66-.48-.64.48-1.23-.43-.11-1.35,1.52.49,3.65,1.22,1.82.83,1.26.16,1.82-.59.86,1.34,1.77-.48.7.16.59,1.61-.54,3.16,5.41-.48,1.45-1.23,1.77-1.71.32-.08,2.47h1.34l-.45,1.44s-3.81-1.08-5.99,5l-2.58,1.06-1.45,1.82-.54,2.84-5.04,4.6-1.77,2.68s-1.4,2.44-2.01,7.3l2.6,5.98,3.84,5.57.12,1.4,3.77,7.11.73,5.96-.48.76v1.92l-1.12,1.3h-1.18l-.86.28-.61-1.7-1.85-1.74h-1.39l-.7-.7-.27-1.34-.86-.91-1.23.43-1.39-2.89-1.98-2.57,1.56-1.71-.03-1.45-1.53.59-.05.43-.61-1.75.18-.72v-2.73l-1.34-1.55-1.45-.27-3.48-3.53-1.23-.54-1.82.21v1.02l-2.4.82-2.1.58-.05-.75-3.75-1.93-4.68-.45-1.22,1.09h-.8l-1.61-.05-.64-1.66-1.2-.47-.49,1.7-5.39,1.02-2.27,1.9.67.68.91-.06.11-.7,1.02.22-.11.85-1.02.75-.27,1.18,2.73.8-.11,1.29-2.62-.91-.86-1.23-.75.48-.27,1.71-1.02-.21.37-1.09-1.49.92-.59.7-1.55.16-1.61-1.45.32-.32-.06-.87-1.44.33-.37-1.12-2.68-.11.11,1.18-3.27-.32-1.55-.81-3.38.43-3.32,1.23-6.22,4.29-7.7,4.71-.2,1.13.47.74-1.56,2.66.12,1.7,1.46,3.65-1.09.61-1.02-.31-2.73-.27-.87-1.24-1.7.28-2.04-1.71-.43-1.71-.45-1.11-.56-2.91-1.13-.7-2.2-3.56-2.19-4.63-3.16-3.64-3.7-.43-.43-.54h-.96l-2.08.97-.49,1.7-1.58,1.46-3.28-2.19-2.91-2.27-.11-2.41-.39-2.25-1.95-1.82-.56.49-2.36-3.65-1.5-.32-1.23-1.93-.79-.67-6.97-.35-.44,1.68-4.01-.24-9.69-.8-15.35-10.02.12-1.09-11.12-.83-.16-3.86-2.62-3.86-1.5-.32-.05-1.5-1.55-.27-2.25-3.27h-1.12l-1.55-.96-1.39-.33-.64-.53,1.37-3.36-2.87-4.41-.11-1.02-1.23-1.66-.06-2.04.75-.37.43-1.55-.91-.32-.86-1.18-.11-2.78.43-1.18-1.45-1.39.05-2.2-1.93-3.75.8-2.65-.21-3.83-1.23-1.71.43-1.55,2.84-3.8.48-8.3,2.78-4.23,4.98-12.48v-2.14l1.02-.96-.59-.27.32-.94,1.22-.24-1.32-.85-.02-4.98-.85-.61.98-1.96,1.45,1.6,5.11,1.82,1.46,1.95.24-4.25.61-.73L19.98.06l-.11-.06Z"/>
  <g>
    <circle class="st6" cx="198.68" cy="60.01" r="2.95"/>
    <path class="st10" d="M197.73,60.85c.6-.55,1.06-.98,1.06-1.32,0-.23-.13-.34-.31-.34-.17,0-.3.12-.42.24l-.37-.37c.26-.28.5-.41.88-.41.51,0,.87.33.87.83,0,.41-.38.86-.73,1.21.13-.02.31-.03.42-.03h.42v.58h-1.84v-.39Z"/>
  </g>
  <g>
    <circle class="st6" cx="196.58" cy="82.12" r="2.95"/>
    <path class="st10" d="M195.56,83.05l.31-.43c.16.14.34.24.52.24.22,0,.37-.08.37-.24,0-.19-.1-.3-.63-.3v-.48c.42,0,.55-.11.55-.29,0-.15-.09-.23-.26-.23s-.29.07-.45.21l-.34-.42c.25-.21.51-.33.82-.33.56,0,.92.26.92.72,0,.24-.14.43-.41.55v.02c.29.09.49.29.49.61,0,.48-.46.74-.98.74-.41,0-.71-.14-.9-.36Z"/>
  </g>
  <g>
    <circle class="st5" cx="201.63" cy="37.13" r="2.95"/>
    <path class="st10" d="M200.69,37.15c0-.92.5-1.36,1.05-1.36.36,0,.62.15.79.32l-.36.41c-.08-.09-.24-.18-.38-.18-.27,0-.47.2-.47.81s.2.76.35.76c.14,0,.27-.08.27-.35,0-.24-.14-.3-.28-.3-.12,0-.24.06-.34.24l-.03-.43c.12-.18.36-.29.5-.29.43,0,.77.24.77.78s-.4.86-.88.86-.99-.35-.99-1.27Z"/>
  </g>
  <polygon class="st3" points="224.83 13.38 223.53 15 221.87 15.32 220.78 15.69 219.8 15.32 219.08 16.66 217.62 17.03 216.77 17.51 216.02 17.03 216.16 16.05 215.92 14.79 216.24 12.41 216.65 11.68 218.1 7.79 218.99 8.12 219.4 9 221.14 7.67 221.99 7.43 222.96 8.03 223.81 9.86 224.91 12.53 224.83 13.38"/>
</svg>