<?xml version="1.0" encoding="UTF-8"?>
<svg id="Layer_1" xmlns="http://www.w3.org/2000/svg" version="1.1" viewBox="0 0 230 146.77">
  <!-- Generator: Adobe Illustrator 29.6.0, SVG Export Plug-In . SVG Version: 2.1.1 Build 207)  -->
  <defs>
    <style>
      .st0, .st1 {
        fill: #90278e;
      }

      .st2 {
        fill: #cdba9e;
      }

      .st3 {
        fill: #ccc;
      }

      .st4 {
        fill: #9b8579;
      }

      .st5 {
        fill: #fff;
      }

      .st6 {
        fill: #009345;
      }

      .st6, .st7, .st8, .st1, .st9 {
        stroke-width: .49px;
      }

      .st6, .st7, .st1, .st9 {
        stroke: #fff;
      }

      .st7 {
        fill: #6a8cc3;
      }

      .st8 {
        fill: none;
        stroke: #c8caca;
      }

      .st9 {
        fill: #ef7763;
      }
    </style>
  </defs>
  <path class="st9" d="M218.75,32.94l-.13-.06-.46-.21-.05-.75-.96-.27-2.94-10.01.7-.32.16-2.03,1.02-1.45-.05-.8-.37-.48-.11-1.44.37-.32.11-2.68,1.23-3.16s.37-2.84,1.87.05l.48-.05s2.73-4.02,4.34,1.39l1.82,5.3,1.5.27.21,1.66s5.52,1.18-.75,5.3l-1.61.75-.16,1.23-1.39-1.29-.38.32v2.19l-.96.75v.8s-1.07.16-.91.32-.59.43-.59.43l-.8-.32-.38.75-.53,2.94-.27,1.18h0Z"/>
  <polygon class="st9" points="218.49 33.9 217.2 35.24 215.17 35.77 212.43 36.42 211.79 36.58 211.9 27.8 213.18 26.62 213.24 25.17 212.81 24.69 212.97 21.53 214.2 21.64 217.15 31.65 218.11 31.92 218.16 32.67 218.75 32.94 218.49 33.9"/>
  <polygon class="st9" points="212.81 23.3 205.9 25.01 206.12 26.57 206.76 28.6 206.76 29.62 206.71 30.69 207.24 31.6 207.78 32.83 208.42 34.06 208.9 35.51 208.95 36.95 211.79 36.58 211.9 27.8 213.18 26.62 213.24 25.17 212.81 24.69 212.81 23.3"/>
  <polygon class="st9" points="216.4 43.27 215.81 39.9 217.52 39.42 219.24 41.77 218.97 42.36 218.27 42.47 216.4 43.27"/>
  <path class="st7" d="M218.22,34.28l1.02.96-.81,1.44.22.8,1.12.16,1.61,1.87,1.34-.16s1.23-.59-1.02-1.5c0,.16,1.5-.21,1.5-.21,0,0,2.73,1.87-2.03,3.75l-.43-.91-.91.54v.86l-.59-.1-1.71-2.36-8.41,1.77-.16-4.23,8.25-1.71,1.02-.96h0Z"/>
  <polygon class="st9" points="209.65 46.86 209.12 41.18 215.81 39.9 216.4 43.27 215.33 43.91 214.63 44.45 212.54 44.82 209.65 46.86"/>
  <path class="st9" d="M201.57,42.95l-17.51,3.64-.11-1.82,2.78-2.89-.11-.86s-3.64-1.71,1.23-3c-.16.16,3.11.05,3.11.05l.75.21.91-.37,1.44-.32,1.39-1.66,1.07-.21-.06-1.23-.27-1.07-.8-.32-.22-1.18,1.34-1.34,1.02-1.23.86-1.5,1.23-1.29,2.03-.48,1.82-.43,1.18-.21,1.23-.43.11,1.12.69,2.25v2.3l2.19,4.82.21,5.67.48,5.46-.11.86-.05.64.8-.54,2.14-.59,1.93-1.12.75-.64.8.37-.91,1.07-2.04,1.45-1.93.86-1.61.43h-.59l.05-2.25-3.8-1.13-1.02-.59-.54-.91-.37-.96-.75-.05-.8-.59h.06Z"/>
  <polygon class="st9" points="180.85 47.29 182.13 54.25 183.15 59.49 202.32 55.91 204.14 55.21 206.17 52.91 204.4 50.98 203.55 50.66 203.49 49.8 204.24 49.32 203.82 48.68 204.03 47.93 204.51 47.66 204.62 46.32 205.05 46.05 204.03 45.47 203.12 43.59 202.37 43.54 201.57 42.95 184.06 46.59 183.9 44.56 180.85 47.29"/>
  <polygon class="st9" points="207.14 59.71 207.03 58.42 205.64 58.15 204.57 57.62 203.87 56.71 203.76 55.42 206.17 52.91 204.4 50.98 203.55 50.66 203.49 49.8 204.24 49.32 203.82 48.68 204.03 47.93 204.51 47.66 204.62 46.32 205.05 46.05 208.85 47.18 208.95 49.21 208.21 50.29 209.22 50.5 209.49 55.32 207.83 57.83 207.78 59.12 207.14 59.71"/>
  <polygon class="st9" points="202.32 55.91 204.3 62.81 206.92 62.55 206.65 60.62 205.47 59.82 204.89 58.53 203.87 57.62 203.65 56.28 203.6 55.42 202.32 55.91"/>
  <polygon class="st9" points="206.71 64.74 204.89 65.55 204.08 64.47 202.32 64.15 201.78 62.71 202.26 62.28 201.67 61.8 201.94 60.14 201.46 59.49 201.94 58.26 201.51 58.15 200.55 59.6 200.6 61.53 201.03 63.46 201.83 64.53 202.21 65.71 200.87 65.44 198.89 64.96 197.66 64.21 197.77 63.56 196.11 60.62 195.3 60.08 194.87 59.82 193.11 58.58 191.88 59.12 190.59 59.44 190.11 59.44 189.46 59.92 189.04 60.3 188.45 61.05 187.81 61.74 187.27 58.75 202.32 55.91 204.3 62.81 206.92 62.55 207.08 64.05 206.71 64.74"/>
  <polygon class="st9" points="205.69 73.36 193.11 76.09 173.24 78.5 174.58 77.48 175.28 77.22 175.17 76.41 178.33 73.25 179.35 74.27 180.74 74.59 181.38 73.95 182.02 74.38 183.2 74.11 183.63 73.04 184.7 72.83 185.61 72.61 186.2 71.7 186.15 70.1 187.75 65.54 188.29 65.92 188.66 66.24 189.68 66.13 189.79 64.47 190.64 64.21 192.2 61.8 192.2 59.98 193.05 60.08 194.98 60.99 195.03 60.03 196.11 60.62 197.77 63.56 197.66 64.21 198.89 64.96 201.3 65.65 201.78 66.29 202.69 66.4 202.85 68.22 203.23 68.65 202.26 69.08 202.42 69.61 203.6 70.84 203.49 71.49 203.12 71.54 203.28 72.13 204.08 72.02 204.89 71.59 205.69 73.36"/>
  <path class="st9" d="M196.86,90.5l-5.62-4.02-4.92.27-1.02-1.29-6.16.32-3.91,1.98-5.19.32.05-1.23,1.13-.16.21-1.12,4.12-2.41.37-1.12,1.82-.54.59-.86,1.45-.11.91-1.34.06-1.61,11.78-1.39,13.17-2.84.7,1.18,1.66,2.46-.48,1.44-.7.91-.54.86-1.71.32-.05,1.98,1.77.21-.91,1.71s-4.71-.48-5.78,5.62l-2.79.43v.03Z"/>
  <polygon class="st9" points="188.08 102.44 187.17 102.44 186.63 101.63 186.68 100.78 185.99 100.24 185.13 100.24 185.02 99.06 183.85 96.98 183.04 96.92 181.33 94.94 179.62 93.5 179.13 93.33 177.21 90.55 175.87 90.44 174.85 89.75 174.69 88.67 175.44 87.71 179.13 85.78 185.29 85.46 186.31 86.75 191.23 86.48 196.86 90.5 195.41 92.32 195.14 93.28 194.88 95.15 194.13 95.9 192.73 97.46 190.11 99.76 189.84 99.76 189.73 100.56 188.08 102.44"/>
  <polygon class="st9" points="186.52 110.2 183.79 110.15 183.79 111 184.22 111.06 184.17 112.93 183.26 112.5 183.2 111.91 170.78 112.39 169.55 110.89 169.28 109.93 168.85 109.56 168.69 107.09 168.59 105.17 169.12 104.68 169.07 103.51 168.26 102.27 166.82 97.51 165.75 93.87 164.68 91.08 164.57 89.05 175.22 87.76 174.69 88.67 174.85 89.75 175.87 90.44 177.21 90.55 179.13 93.33 179.62 93.5 181.33 94.94 183.04 96.92 183.85 96.98 185.02 99.06 185.13 100.24 185.99 100.24 186.68 100.78 186.63 101.63 187.17 102.44 188.08 102.44 187.97 103.24 187.59 104.04 187 106.18 186.52 110.2"/>
  <polygon class="st9" points="181.97 53.82 181.49 55.32 181.6 60.3 179.83 62.06 178.65 62.28 178.06 63.46 178.12 65.22 177.53 65.33 177.53 64.74 176.83 64.79 176.62 67.04 176.13 67.63 176.03 68.11 175.12 68.11 175.12 70.2 176.24 70.74 176.88 72.29 178.33 73.25 179.35 74.27 180.74 74.59 181.38 73.95 182.02 74.38 183.2 74.11 183.63 73.04 185.61 72.61 186.2 71.7 186.15 70.1 187.75 65.54 188.66 66.24 189.68 66.13 189.79 64.47 190.64 64.21 192.2 61.8 192.2 59.98 193.05 60.08 194.98 60.99 195.03 60.03 193.11 58.58 190.11 59.44 187.81 61.74 187.27 58.75 183.2 59.33 181.97 53.82"/>
  <polygon class="st9" points="158.41 115.93 156.59 116.52 156.27 116.25 156.8 115.87 156.16 114.22 155.41 114.05 155.09 114.86 155.04 115.66 153.81 115.87 152.95 107.84 153.16 89.85 164.57 89.05 164.57 90.82 168.26 102.27 169.07 103.51 169.12 104.68 168.59 105.17 168.85 109.56 169.28 109.93 169.39 110.68 157.13 112.02 157.02 112.98 158.3 114 158.41 115.93"/>
  <polygon class="st9" points="180.74 77.59 154.72 80.59 152.68 80.59 152.73 81.88 146.04 81.98 145.94 84.02 145.13 85.94 144.92 87.34 144.54 87.87 143.58 88.03 143.69 88.67 144.01 88.89 143.69 90.33 152.95 89.91 164.57 89.05 170.08 88.25 170.08 86.85 171.21 86.69 171.42 85.57 175.55 83.16 175.92 82.04 177.74 81.5 178.33 80.64 179.77 80.54 180.68 79.2 180.74 77.59"/>
  <polygon class="st9" points="153.81 115.87 150.91 116.14 149.09 116.46 148.45 117.27 147.86 116.46 146.85 115.02 146.9 113.09 138.39 113.25 138.17 110.89 140.05 107.9 140.47 107.2 140.63 106.13 140.85 105.75 140.31 104.95 139.88 103.61 139.72 102.44 139.72 101.52 139.83 99.71 139.78 97.13 140.69 95.26 141.87 94.19 142.08 92.58 143.42 91.4 143.42 90.5 143.69 90.33 153.16 89.85 152.95 107.84 153.81 115.87"/>
  <polygon class="st7" points="199.91 63.46 198.34 62.92 197.01 63.91 197.03 62.26 195.67 61.3 197.26 60.81 197.75 59.22 198.71 60.58 200.37 60.55 199.37 61.89 199.91 63.46"/>
  <polygon class="st9" points="86.54 79.16 108.99 80.28 123.41 80.32 123.49 83.13 124.41 89.8 124.37 99.44 121.52 97.51 120.93 97.78 117.29 97.88 116.59 98.63 115.15 98.58 113.11 97.51 112.9 98.8 111.61 98.69 110.81 97.67 109.69 97.72 109.31 97.99 108.45 98.05 107.6 96.44 106.9 96.39 106.1 96.92 102.99 95.8 102.94 94.89 100.58 94.83 99.41 93.6 99.99 82.46 86.18 82.25 86.54 79.16"/>
  <polygon class="st9" points="206.71 64.74 205.17 65.46 204.93 66.95 204.61 69.52 205.05 70.4 205.57 69.8 206.05 68.44 205.93 66.71 206.73 65.74 206.71 64.74"/>
  <polygon class="st9" points="180.91 47.47 179.99 47.71 176.33 50.6 175.89 51.01 174.73 51.09 173.72 51.65 172.6 51.65 171.8 51.09 170.19 51.05 169.23 50.24 168.38 50.65 166.46 50.77 163.52 51.01 165.29 65.78 166.46 65.86 166.66 65.54 167.26 65.67 168.18 67.15 169.83 67.19 170.15 67.87 170.75 67.47 171.11 67.19 171.72 67.27 172.24 67.79 173.4 66.63 173.72 66.79 175.12 68.11 176.03 68.11 176.18 67.47 176.62 67.04 176.83 64.79 177.53 64.74 177.53 65.33 178.12 65.22 178.06 63.46 178.65 62.28 179.83 62.06 181.6 60.3 181.49 55.32 182 54.02 180.91 47.47"/>
  <polygon class="st9" points="152.6 52.61 153.56 52.94 155.53 51.73 163.52 51.01 165.29 65.78 164.89 66.31 165.09 66.79 165.53 67.15 164.37 68.07 163.04 68.11 162.92 69.6 161.23 71.17 161.2 72.45 159.79 72.37 159.47 72.05 158.67 72.61 158.63 73.58 157.98 73.49 157.54 72.85 156.86 73.05 156.18 73.98 155.61 73.94 155.21 73.37 153.08 73.62 152 74.42 152.08 72.25 153.73 69.72 153.97 67.75 153.28 67.07 152.6 52.77 152.6 52.61"/>
  <polygon class="st9" points="146.5 81.97 147.02 81.29 147.54 81.33 147.54 80.24 147.9 80 147.82 79.68 147.62 79.08 147.58 78.51 148.83 78.11 150.47 78.84 150.79 77.99 150.55 77.75 150.51 76.63 151.84 76.47 151.88 75.54 152 74.42 153.08 73.62 155.21 73.37 155.61 73.94 156.18 73.98 156.86 73.05 157.54 72.85 157.98 73.49 158.63 73.58 158.67 72.61 159.47 72.05 159.79 72.37 161.2 72.45 161.23 71.17 162.92 69.6 163.04 68.11 164.37 68.07 165.53 67.15 165.09 66.79 164.85 66.15 165.29 65.78 166.46 65.86 166.66 65.54 167.26 65.67 168.18 67.15 169.83 67.19 170.15 67.87 171.11 67.19 171.72 67.27 172.24 67.79 173.4 66.63 173.72 66.79 175.12 68.11 175.12 70.2 176.24 70.74 176.88 72.29 178.33 73.25 175.17 76.41 175.21 77.35 174.58 77.48 173.44 78.35 154.72 80.59 152.68 80.59 152.73 81.88 146.5 81.97"/>
  <polygon class="st9" points="150.86 48.25 150.91 49.8 151.83 50.93 152.6 52.61 153.28 67.07 153.97 67.75 153.73 69.72 152.08 72.25 151.83 76.31 150.51 76.63 150.55 77.75 150.79 77.99 150.47 78.84 148.83 78.11 147.58 78.51 147.54 79.41 146.74 79.36 146.1 78.02 146.15 77.22 145.19 75.02 143.9 75.02 141.71 72.29 142.83 69.77 142.46 69.24 140.1 68.86 140.15 67.47 136.89 64.53 136.41 63.19 136.35 61.05 136.94 60.72 136.83 59.65 138.01 59.33 138.01 57.99 138.6 57.62 138.44 56.76 137.85 56.28 137.9 55.42 138.44 54.94 139.4 54.94 140.8 53.87 141.38 51.46 139.14 49.43 139.08 48.62 150.86 48.25"/>
  <polygon class="st9" points="123.41 80.32 108.62 80.37 91 79.36 91.96 62.87 120.23 63.46 120.82 64.26 121.89 64.42 121.89 65.22 121.36 65.65 121.36 66.72 123.34 68.86 123.41 80.32"/>
  <path class="st9" d="M136.46,43.7l-.11-1.87-2.89-2.41-.59-.91h-.8l-.16-.69h-1.12l-.75-.86-.16-2.84.32-.8.05-.8-.69-.75.32-.64,1.93-2.19.21-3.05s2.36.05,2.2,0,2.84-1.61,2.84-1.61l.8.38-.96,1.39.48.32,1.02-.21,1.07.59.65.8,1.12.21,2.35.43,4.55,1.07,1.07,1.02.43,2.36.69,1.02-1.39,2.36.16.91.54-.16,3.05-4.39.21.8-1.71,4.02v1.82l-.43,1.07.27,1.5-.59,1.07-.27,1.18.69,4.44-11.78.37-1.18-.59-.96-1.07-.11-1.34.8-.43-.32-.64-.86-.86v-.02Z"/>
  <polygon class="st9" points="92.34 57.57 83.93 56.55 84.79 45.36 107.7 46.75 109.15 47.93 110.01 47.93 110.33 47.55 112.52 47.55 115.63 49.59 117.56 55.42 118.47 60.24 118.9 61.9 120.23 63.46 91.96 62.87 92.34 57.57"/>
  <polygon class="st9" points="115.68 43.81 136.46 43.7 137.32 44.55 137.64 45.2 136.83 45.62 136.94 46.96 137.9 48.03 139.08 48.62 139.14 49.59 141.38 51.46 140.8 53.87 139.4 54.94 138.44 54.94 137.9 55.42 137.85 56.28 138.49 56.92 138.6 57.62 138.06 58.15 138.01 59.33 136.83 59.65 136.94 60.72 136.35 61.05 135.71 59.82 118.47 60.24 117.5 55.8 115.63 49.59 115.04 48.03 115.52 46.8 115.79 45.68 115.1 45.14 115.04 43.81 115.68 43.81"/>
  <polygon class="st9" points="84.79 45.36 86.4 29.29 115.26 30.58 115.25 31.44 114.24 32.35 115.68 34.11 115.68 43.81 115.04 43.81 115.1 45.14 115.79 45.68 115.04 48.03 115.47 49.21 112.52 47.55 110.12 47.61 110.01 47.93 109.15 47.93 107.7 46.75 84.79 45.36"/>
  <polygon class="st9" points="155.53 51.73 156.54 49.88 157.38 48.52 157.34 45.26 155.45 42.05 155.73 38.44 156.18 35.43 156.74 35.22 156.62 34.1 157.7 33.22 157.94 32.33 158.5 32.13 158.71 32.9 158.22 33.86 158.14 34.66 159.07 34.34 159.15 31.73 159.63 31.45 160.67 31.41 160.83 30.77 160.03 30.77 159.95 29.8 161.4 28.72 162.24 29.6 162.84 29.24 165.33 30.37 166.46 30.49 167.42 31.89 166.78 32.37 166.82 32.86 167.58 33.54 167.5 36.31 166.78 37.23 166.46 38.32 165.97 38.36 165.77 39.92 166.9 40.2 167.82 38.88 168.22 38 169.63 37.19 171.07 39.32 171.96 42.49 172.04 45.47 171.11 45.43 170.27 47.31 170.11 48.64 169.23 50.24 168.38 50.65 155.53 51.73"/>
  <polygon class="st9" points="150.33 33.63 152.08 29.6 152.64 29.6 153.28 29.76 154.17 29.2 154.65 29.44 155.41 28.4 157.54 28.08 157.98 27.55 160.71 27.96 163.44 27.4 165.81 27.68 166.05 27.19 165.49 26.43 163.93 26.91 163.28 26.43 163.04 24.34 162.32 24.58 162 24.78 160.47 25.35 159.51 25.02 159.51 23.62 158.75 23.74 157.38 24.34 155.05 24.38 153.48 25.71 150.63 25.63 149.07 23.94 147.74 23.7 146.42 24.38 146.3 23.66 146.86 22.94 146.9 22.46 148.67 21.17 148.99 20.85 148.79 20.41 147.14 20.73 144.77 22.78 144.61 23.5 142.72 24.66 141.56 24.86 140.91 25.55 139.31 26.03 139.23 26.59 139.45 26.73 140.1 27.53 148.13 29.24 149.2 30.26 149.63 32.61 150.33 33.63"/>
  <g>
    <path class="st6" d="M219.03,32.94l-.13-.06-.46-.21-.05-.75-.96-.27-2.94-10.01.7-.32.16-2.03,1.02-1.45-.05-.8-.37-.48-.11-1.44.37-.32.11-2.68,1.23-3.16s.37-2.84,1.87.05l.48-.05s2.73-4.02,4.34,1.39l1.82,5.3,1.5.27.21,1.66s5.52,1.18-.75,5.3l-1.61.75-.16,1.23-1.39-1.29-.38.32v2.19l-.96.75v.8s-1.07.16-.91.32-.59.43-.59.43l-.8-.32-.38.75-.53,2.94-.27,1.18h0Z"/>
    <polygon class="st6" points="218.76 33.9 217.48 35.24 215.44 35.77 212.71 36.42 212.07 36.58 212.18 27.8 213.46 26.62 213.51 25.17 213.09 24.69 213.25 21.53 214.48 21.64 217.42 31.65 218.39 31.92 218.44 32.67 219.03 32.94 218.76 33.9"/>
    <polygon class="st6" points="216.67 43.27 216.08 39.9 217.8 39.42 219.51 41.77 219.24 42.36 218.55 42.47 216.67 43.27"/>
    <path class="st6" d="M218.49,34.28l1.02.96-.81,1.44.22.8,1.12.16,1.61,1.87,1.34-.16s1.23-.59-1.02-1.5c0,.16,1.5-.21,1.5-.21,0,0,2.73,1.87-2.03,3.75l-.43-.91-.91.54v.86l-.59-.1-1.71-2.36-8.41,1.77-.16-4.23,8.25-1.71,1.02-.96h0Z"/>
    <polygon class="st6" points="209.93 46.86 209.39 41.18 216.08 39.9 216.67 43.27 215.6 43.91 214.91 44.45 212.82 44.82 209.93 46.86"/>
    <path class="st6" d="M201.84,42.95l-17.51,3.64-.11-1.82,2.78-2.89-.11-.86s-3.64-1.71,1.23-3c-.16.16,3.11.05,3.11.05l.75.21.91-.37,1.44-.32,1.39-1.66,1.07-.21-.06-1.23-.27-1.07-.8-.32-.22-1.18,1.34-1.34,1.02-1.23.86-1.5,1.23-1.29,2.03-.48,1.82-.43,1.18-.21,1.23-.43.11,1.12.69,2.25v2.3l2.19,4.82.21,5.67.48,5.46-.11.86-.06.64.8-.54,2.14-.59,1.93-1.12.75-.64.8.37-.91,1.07-2.04,1.45-1.93.86-1.61.43h-.59l.05-2.25-3.8-1.13-1.02-.59-.54-.91-.37-.96-.75-.05-.8-.59h.07Z"/>
    <polygon class="st6" points="207.41 59.71 207.3 58.42 205.91 58.15 204.84 57.62 204.14 56.71 204.04 55.42 206.45 52.91 204.68 50.98 203.82 50.66 203.77 49.8 204.52 49.32 204.09 48.68 204.31 47.93 204.79 47.66 204.89 46.32 205.32 46.05 209.12 47.18 209.23 49.21 208.48 50.29 209.5 50.5 209.77 55.32 208.11 57.83 208.05 59.12 207.41 59.71"/>
    <polygon class="st6" points="202.59 55.91 204.57 62.81 207.19 62.55 206.93 60.62 205.75 59.82 205.16 58.53 204.14 57.62 203.93 56.28 203.88 55.42 202.59 55.91"/>
  </g>
  <polygon class="st3" points="114.34 19.86 114.32 13.8 92.63 11.92 92.95 13.71 98.46 14.35 101.05 20.51 103 22.78 105.91 20.84 107.86 20.19 108.83 22.45 108.83 26.67 110.77 27.64 114.01 28.29 114.34 19.86"/>
  <g>
    <polygon class="st4" points="113.1 13.55 113.69 14.89 111.89 16.62 113.37 18.8 116.26 20.75 119.18 24.15 126.96 26.34 136.71 43.54 136.61 41.66 133.71 39.25 133.29 38.34 132.32 38.34 132.16 37.65 131.04 37.65 130.29 36.79 130.13 33.95 130.45 33.15 130.5 32.35 129.81 31.59 129.91 31.17 132.06 28.76 132.27 25.7 135.54 22.92 136.29 21.53 142.01 18.42 142.23 17.94 140.84 18.05 140.03 17.62 137.3 17.57 137.19 17.03 135.48 18.05 133.93 18.05 133.82 17.41 132.86 17.41 132.59 16.44 131.73 16.92 129.33 15.37 127.88 15.26 127.18 15.75 126.11 15.85 125.79 15.42 124.45 15.48 123.22 14.94 122.2 11.41 120.81 11.3 120.87 13.34 113.1 13.55"/>
    <g>
      <polygon class="st4" points="152.85 52.45 153.82 52.77 155.79 51.57 163.78 50.84 165.55 65.62 165.14 66.14 165.35 66.63 165.79 66.99 164.62 67.91 163.3 67.95 163.18 69.44 161.49 71 161.45 72.29 160.04 72.21 159.72 71.89 158.92 72.45 158.88 73.41 158.24 73.33 157.79 72.69 157.11 72.89 156.43 73.81 155.87 73.77 155.47 73.21 153.34 73.45 152.25 74.26 152.33 72.09 153.98 69.56 154.22 67.59 153.54 66.91 152.85 52.61 152.85 52.45"/>
      <polygon class="st4" points="151.12 48.09 151.17 49.64 152.08 50.76 152.85 52.45 153.54 66.91 154.22 67.59 153.98 69.56 152.33 72.09 152.08 76.14 150.77 76.46 150.81 77.59 151.05 77.83 150.73 78.67 149.08 77.95 147.84 78.35 147.8 79.25 146.99 79.2 146.35 77.86 146.4 77.05 145.44 74.86 144.16 74.86 141.96 72.13 143.09 69.61 142.71 69.08 140.36 68.7 140.41 67.31 137.14 64.36 136.66 63.03 136.61 60.88 137.19 60.56 137.09 59.49 138.27 59.17 138.27 57.83 138.86 57.46 138.69 56.6 138.11 56.12 138.16 55.26 138.69 54.78 139.66 54.78 141.05 53.71 141.64 51.3 139.39 49.26 139.34 48.46 151.12 48.09"/>
      <path class="st4" d="M136.71,43.54l-.11-1.87-2.89-2.41-.59-.91h-.8l-.16-.69h-1.12l-.75-.86-.16-2.84.32-.8.05-.8-.7-.75.32-.64,1.93-2.19.21-3.05s2.36.05,2.2,0,2.84-1.61,2.84-1.61l.8.38-.96,1.39.48.32,1.02-.21,1.07.59.65.8,1.12.21,2.35.43,4.55,1.07,1.07,1.02.43,2.36.69,1.02-1.39,2.36.16.91.54-.16,3.05-4.39.21.8-1.71,4.02v1.82l-.43,1.07.27,1.5-.59,1.07-.27,1.18.69,4.44-11.78.37-1.18-.59-.96-1.07-.11-1.34.8-.43-.32-.64-.86-.86.02-.02Z"/>
      <polygon class="st4" points="155.79 51.57 156.79 49.72 157.64 48.36 157.6 45.1 155.71 41.89 155.99 38.27 156.43 35.26 156.99 35.06 156.87 33.94 157.96 33.06 158.2 32.17 158.76 31.97 158.96 32.73 158.48 33.7 158.4 34.5 159.32 34.18 159.4 31.57 159.88 31.29 160.93 31.25 161.09 30.6 160.29 30.6 160.21 29.64 161.65 28.56 162.49 29.44 163.1 29.08 165.59 30.2 166.71 30.32 167.67 31.73 167.03 32.21 167.07 32.69 167.84 33.38 167.76 36.15 167.03 37.07 166.71 38.16 166.23 38.19 166.03 39.76 167.15 40.04 168.08 38.72 168.48 37.83 169.88 37.03 171.33 39.16 172.21 42.33 172.29 45.3 171.37 45.26 170.53 47.15 170.37 48.48 169.48 50.08 168.64 50.48 155.79 51.57"/>
      <polygon class="st4" points="150.58 33.47 152.33 29.44 152.9 29.44 153.54 29.6 154.42 29.04 154.9 29.28 155.67 28.24 157.79 27.91 158.24 27.39 160.97 27.79 163.7 27.23 166.07 27.51 166.31 27.03 165.75 26.27 164.18 26.75 163.54 26.27 163.3 24.18 162.57 24.42 162.25 24.62 160.73 25.18 159.76 24.86 159.76 23.46 159 23.58 157.64 24.18 155.31 24.22 153.74 25.55 150.89 25.47 149.32 23.78 148 23.54 146.67 24.22 146.55 23.5 147.11 22.78 147.16 22.29 148.92 21.01 149.24 20.69 149.04 20.24 147.4 20.57 145.03 22.61 144.87 23.34 142.98 24.5 141.81 24.7 141.17 25.38 139.57 25.87 139.48 26.43 139.71 26.56 140.36 27.37 148.39 29.08 149.46 30.1 149.89 32.45 150.58 33.47"/>
      <polygon class="st4" points="158.69 115.93 156.87 116.52 156.55 116.25 157.08 115.87 156.44 114.22 155.69 114.05 155.37 114.86 155.31 115.66 154.08 115.87 153.22 107.84 153.44 89.85 164.85 89.05 164.84 90.82 168.54 102.27 169.34 103.51 169.4 104.68 168.86 105.17 169.13 109.56 169.56 109.93 169.66 110.68 157.4 112.02 157.29 112.98 158.58 114 158.69 115.93"/>
      <polygon class="st4" points="154.08 115.87 151.19 116.14 149.37 116.46 148.73 117.27 148.14 116.46 147.12 115.02 147.17 113.09 138.66 113.25 138.45 110.89 140.32 107.9 140.75 107.2 140.91 106.13 141.12 105.75 140.59 104.95 140.16 103.61 140 102.44 140 101.52 140.11 99.71 140.05 97.13 140.96 95.26 142.14 94.19 142.36 92.58 143.69 91.4 143.69 90.5 143.96 90.33 153.44 89.85 153.22 107.84 154.08 115.87"/>
      <path class="st4" d="M161.89,110.75l-4.7-2.19-1.22,2.75-1.94,4.05-2.35.41-3.81-19.12v-6.32l8.02-.41,4.29,1.46,2.02,3.08s4.21,7.29,4.37,7.61c.16.32-4.7,8.67-4.7,8.67h.02Z"/>
      <polygon class="st4" points="127.22 108.07 123.57 106.37 119.69 103.46 117.5 102.24 115.31 100.78 111.42 100.54 108.75 99.81 105.59 99.81 103.41 98.84 100.25 98.35 97.82 98.11 95.39 95.68 90.04 93.49 85.42 92.28 83.24 91.31 80.81 90.58 77.89 86.69 75.95 85.72 77.89 83.29 77.65 79.88 79.1 77.94 77.89 76.72 77.65 74.78 74.49 73.32 74 68.22 77.16 64.82 77.4 63.12 75.46 62.63 74.49 60.2 73.03 58.5 73.27 57.28 71.81 56.8 70.48 54.13 69.26 53.64 65.98 48.05 64.65 44.77 61.61 42.22 60.39 39.54 60.15 36.99 59.42 36.75 58.69 35.29 57.96 33.71 56.99 33.71 57.23 34.44 55.17 34.68 53.95 34.08 53.1 34.32 52.25 34.08 51.52 34.93 50.92 32.5 50.07 32.01 50.07 30.8 48.97 27.39 49.82 25.21 51.89 23.14 53.22 23.38 54.44 24.11 55.78 24.24 56.26 21.81 56.5 19.5 55.65 17.19 54.56 15 54.8 13.66 53.1 11.84 52.5 9.65 87 12.45 90.4 12.57 93.68 15 95.63 15.37 97.45 17.31 98.91 16.46 101.1 17.31 101.7 19.86 103.16 19.5 105.11 21.2 106.32 20.95 106.69 20.23 108.39 19.25 109.36 19.38 109.48 20.95 110.7 22.05 110.7 23.75 111.67 26.18 111.91 28.61 113.25 29.7 116.28 30.19 117.5 28.97 118.35 27.52 119.57 27.52 119.57 23.75 122 23.38 124.79 22.29 127.95 24.96 131.59 32.74 138.88 41.25 145.2 52.91 146.17 76 147.23 78.83 147.63 80.53 146.5 81.97 146.01 83.36 144.63 87.58 143.83 87.74 143.5 90.58 143.74 92.92 140.95 95.44 141.04 97.57 141.4 101.34 141.8 103.29 140.58 102 125.84 102.48 126.49 103.13 127.22 108.07"/>
      <polyline class="st4" points="127.22 108.07 123.57 106.37 119.69 103.46 117.5 102.24 115.31 100.78 111.42 100.54 108.75 99.81 105.59 99.81 103.41 98.84 100.25 98.35 97.82 98.11 95.39 95.68 90.04 93.49 85.42 92.28 83.24 91.31 80.81 90.58 77.89 86.69 75.95 85.72 77.89 83.29 77.65 79.88 79.1 77.94 77.89 76.72 77.65 74.78 74.49 73.32 74 68.22 77.16 64.82 77.4 63.12 75.46 62.63 74.49 60.2 73.03 58.5 73.27 57.28 71.81 56.8 70.48 54.13 69.26 53.64 65.98 48.05 64.65 44.77 61.61 42.22 60.39 39.54 60.15 36.99 59.42 36.75 58.69 35.29 57.96 33.71 56.99 33.71 57.23 34.44 55.17 34.68 53.95 34.08 53.1 34.32 52.25 34.08 51.52 34.93 50.92 32.5 50.07 32.01 50.07 30.8 48.97 27.39 49.82 25.21 51.89 23.14 53.22 23.38 54.44 24.11 55.78 24.24 56.26 21.81 56.5 19.5 55.65 17.19 54.56 15 54.8 13.66 53.1 11.84 52.5 9.65 52.74 8.44 114.32 13.8 116.93 14.03 122 23.38 124.79 22.29 127.95 24.96 131.59 32.74 138.88 41.25 145.2 52.91 146.17 76 147.23 78.83 147.63 80.53 146.5 81.97 146.01 83.36 144.63 87.58 143.83 87.74 143.5 90.58 143.74 92.92 140.95 95.44 141.04 97.57 141.4 101.34 141.8 103.29 140.26 99.24 126.81 94.38 127.95 102.16 126.65 102.65"/>
    </g>
  </g>
  <g>
    <polygon class="st2" points="132.27 25.7 139.61 20.83 142.53 19.86 145.44 14.35 141.23 12.73 133.13 14.03 125.03 17.92 125.36 20.18 128.92 20.18 129.89 21.81 127.95 24.96 128.92 26.99 132.27 25.7"/>
    <polygon class="st2" points="224.83 13.38 223.53 15 221.87 15.32 220.78 15.69 219.8 15.32 219.08 16.66 217.62 17.03 216.77 17.51 216.02 17.03 216.16 16.05 215.92 14.79 216.24 12.41 216.65 11.68 218.1 7.79 218.99 8.12 219.4 9 221.14 7.67 221.99 7.43 222.96 8.03 223.81 9.86 224.91 12.53 224.83 13.38"/>
    <polygon class="st2" points="157.59 112.04 138.66 113.25 139.13 114.47 140.91 115.44 142.85 116.42 144.96 116.9 146.74 116.9 148.14 116.46 148.68 117.55 149.33 116.75 149.98 116.42 152.25 116.09 153.81 115.87 155.49 115.77 155.37 114.86 155.69 114.05 156.16 114.22 157.03 115.6 156.55 116.25 156.59 116.52 158.69 115.93 158.58 114 157.29 112.98 157.59 112.04"/>
  </g>
  <path class="st8" d="M19.86,0l20.22,5.34,4.04.66,20.67,3.8,22.92,2.95,25.32,1.06,7.76-.21-.06-2.04,1.39.11,1.02,3.54,1.23.54,1.34-.05.32.43,1.07-.11.69-.48,1.45.11,2.41,1.55.86-.48.27.96h.96l-.11,1.04,1.77-.4,1.71-1.02-.08.93,2.92-.34.8.43,1.18.38-5.73,3.11-.75,1.39-3.27,2.78h2.2l2.84-1.61.42.54-.97,1.34.88.21,1.02-.22.92-.11,1.6-.48.64-.68.65.06,2.41-1.42.16-.72,2.37-2.05,1.38.06-2.07,1.7-.61.85.57,1.04,1.01-.31,1.64-.13,1.57,1.69,2.85.08,1.57-1.33,2.33-.04,1.36-.6.76,1.29.96.32,2.57-1.01.24,2.09.64.48,1.57-.48.56.76-2.61.2-2.73.56-2.73-.4-.44.52-2.13.32-.76,1.04-.54-.63-.83.95-1.2-.16-3.15,6.38.16.91.54-.16,3.27-3.59-1.71,4.01v1.82l-.43,1.07-.17,1.27-.61,2.07.49,4.62v1.94l1.36.97.77,1.69.96.32,1.97-1.21,1.85-3.21-.04-3.25-1.89-3.21.72-6.63.56-.2-.12-1.12,1.08-.88.24-.88.76.56-.48.96-.08.8,1.31-.26-.31-2.67,1.53-.32.16-.65h-.8l-.08-.96,1.44-1.09.84.88.6-.36,2.49,1.12,1.12.12.96,1.41-.64.48.04.48.76.68-.08,2.77-1.53,2.05-.68-.07.48,1.64,1.13.28,1.33-2.21,1.2-.44,1.65,1.76.88,3.17-.35,2.72-.49.21-.84,1.89-.36.82-.97,1.7.73,1.34,2.19.36.75.12h1.13l1-.56,1.16-.08,5.02-3.54,2.98-2.92,2.84-2.68-.11-.86s-3.17-1.69,1.23-3l3.11.05.75.22,1.28-.25,1.08-.45,1.39-1.66,1.07-.21-.32-2.3-.43-.36-.59-1.14,2.36-2.57.86-1.5,1.23-1.28,5.87-1.28,7.3-1.99.16-1.77,1.23.11.7-.32.16-2.04,1.02-1.45-.05-.8-.37-.48.27-1.77.11-2.68,2-4.19,1.11,1.09.48-.05s3.03-3.1,3.64.79c.24.36,2.07,6.08,2.07,6.08l1.96.1.21,1.66s5.72.86-2.35,6.05l-.3.82-1.25-.87-.38.32-.44,1.77-.53,1.18v.8l-.91.32-1.39.11-1.3,4.27-.14,1.56-.27.38,1.02.96-.8,1.45.22.8,1.12.16,1.61,1.87s2.72-.02,1.38-1.36l.44-.52s2.73,1.87-2.03,3.75l-.35-1.29-1.09.49-.49,1.18-2.67,1.01-1.93,1.66-2.2-.08-2.83,2.28-.75.54.11,2.04-1.14,1.1,1.41.18.27,4.82-1.66,2.52-.5,1.23-2.76-1.44-.88-1.72.18,1.72.91,1.32,1.46,1.46.84,3.65-.35,1.7-.8.96.12,1.73-.48,1.37-.96-.28.28-3.97-.35-1.26-2.22-.14-.53-1.45.48-.43-.59-.48.27-1.66-.48-.64.48-1.23-.43-.11-1.35,1.52.49,3.65,1.22,1.82.83,1.26.16,1.82-.59.86,1.34,1.77-.48.7.16.59,1.61-.54,3.16,5.41-.48,1.45-1.23,1.77-1.71.32-.08,2.46h1.34l-.45,1.44s-3.8-1.08-5.99,5l-2.58,1.06-1.44,1.82-.54,2.84-5.03,4.6-1.77,2.68s-1.4,2.44-2.01,7.3l2.6,5.98,3.84,5.56.12,1.4,3.77,7.1.73,5.95-.48.76v1.92l-1.12,1.29h-1.18l-.86.28-.61-1.7-1.85-1.74h-1.39l-.7-.7-.27-1.34-.86-.91-1.23.43-1.39-2.89-1.98-2.57,1.55-1.71-.03-1.45-1.53.59-.05.43-.61-1.75.18-.72v-2.73l-1.34-1.55-1.44-.27-3.48-3.53-1.23-.54-1.82.21v1.02l-2.4.82-2.09.58-.05-.75-3.75-1.93-4.68-.45-1.22,1.09h-.8l-1.61-.05-.64-1.66-1.2-.47-.49,1.7-5.38,1.02-2.27,1.89.67.68.91-.06.11-.69,1.02.22-.11.85-1.02.75-.27,1.18,2.73.8-.11,1.29-2.62-.91-.86-1.23-.75.48-.27,1.71-1.02-.21.37-1.09-1.49.92-.59.7-1.55.16-1.61-1.45.32-.32-.06-.87-1.44.33-.37-1.12-2.68-.11.11,1.18-3.27-.32-1.55-.81-3.37.43-3.32,1.23-6.22,4.29-7.7,4.7-.2,1.13.47.74-1.56,2.66.12,1.7,1.46,3.65-1.09.61-1.02-.31-2.73-.27-.87-1.24-1.7.28-2.04-1.71-.43-1.71-.45-1.1-.56-2.91-1.13-.69-2.2-3.56-2.19-4.63-3.16-3.64-3.69-.43-.43-.54h-.96l-2.08.97-.49,1.7-1.58,1.46-3.28-2.19-2.91-2.27-.11-2.41-.39-2.25-1.94-1.82-.56.49-2.36-3.65-1.5-.32-1.23-1.93-.79-.67-6.97-.35-.44,1.68-4.01-.24-9.68-.8-15.35-10.02.12-1.09-11.12-.83-.16-3.85-2.62-3.85-1.5-.32-.05-1.5-1.55-.27-2.25-3.27h-1.12l-1.55-.96-1.39-.33-.64-.53,1.37-3.36-2.87-4.4-.11-1.02-1.23-1.66-.06-2.04.75-.37.43-1.55-.91-.32-.86-1.18-.11-2.78.43-1.18-1.44-1.39.05-2.2-1.93-3.75.8-2.65-.21-3.83-1.31-1.7.43-1.55,2.84-3.8.48-8.3,2.78-4.23,4.98-12.48v-2.14l1.02-.96-.59-.27.32-.94,1.22-.24-1.32-.85-.02-4.98-.85-.61.98-1.96,1.45,1.6,5.1,1.82,1.46,1.94.24-4.25.61-.73L19.87.01h0Z"/>
  <g>
    <polygon class="st0" points="213.09 23.3 206.18 25.01 206.39 26.57 207.04 28.6 207.04 29.62 206.98 30.69 207.52 31.6 208.05 32.83 208.69 34.06 209.18 35.51 209.23 36.95 212.07 36.58 212.18 27.8 213.46 26.62 213.51 25.17 213.09 24.69 213.09 23.3"/>
    <polygon class="st1" points="181.12 47.29 182.41 54.25 183.42 59.49 202.59 55.91 204.41 55.21 206.45 52.91 204.68 50.98 203.82 50.66 203.77 49.8 204.52 49.32 204.09 48.68 204.31 47.93 204.79 47.66 204.89 46.32 205.32 46.05 204.31 45.47 203.4 43.59 202.65 43.54 201.84 42.95 184.33 46.59 184.17 44.56 181.12 47.29"/>
    <polygon class="st1" points="206.98 64.74 205.16 65.55 204.36 64.47 202.59 64.15 202.06 62.71 202.54 62.28 201.95 61.8 202.22 60.14 201.73 59.49 202.22 58.26 201.79 58.15 200.82 59.6 200.88 61.53 201.31 63.46 202.11 64.53 202.48 65.71 201.15 65.44 199.16 64.96 197.93 64.21 198.04 63.56 196.38 60.62 195.58 60.08 195.15 59.82 193.38 58.58 192.15 59.12 190.86 59.44 190.38 59.44 189.74 59.92 189.31 60.3 188.72 61.05 188.08 61.74 187.55 58.75 202.59 55.91 204.57 62.81 207.19 62.55 207.36 64.05 206.98 64.74"/>
    <polygon class="st1" points="205.96 73.36 193.38 76.09 173.52 78.5 174.86 77.48 175.55 77.22 175.44 76.41 178.6 73.25 179.62 74.27 181.01 74.59 181.66 73.95 182.3 74.38 183.48 74.11 183.91 73.04 184.98 72.83 185.89 72.61 186.47 71.7 186.42 70.1 188.03 65.54 188.56 65.92 188.94 66.24 189.96 66.13 190.06 64.47 190.92 64.21 192.47 61.8 192.47 59.98 193.33 60.08 195.26 60.99 195.31 60.03 196.38 60.62 198.04 63.56 197.93 64.21 199.16 64.96 201.58 65.65 202.06 66.29 202.97 66.4 203.13 68.22 203.5 68.65 202.54 69.08 202.7 69.61 203.88 70.84 203.77 71.49 203.4 71.54 203.56 72.13 204.36 72.02 205.16 71.59 205.96 73.36"/>
    <path class="st1" d="M197.13,90.5l-5.62-4.02-4.92.27-1.02-1.29-6.16.32-3.91,1.98-5.19.32.05-1.23,1.13-.16.21-1.12,4.12-2.41.37-1.12,1.82-.54.59-.86,1.45-.11.91-1.34.06-1.61,11.78-1.39,13.17-2.84.7,1.18,1.66,2.46-.48,1.44-.7.91-.54.86-1.71.32-.05,1.98,1.77.21-.91,1.71s-4.71-.48-5.78,5.62l-2.79.43v.03Z"/>
    <polygon class="st1" points="188.35 102.44 187.44 102.44 186.9 101.63 186.96 100.78 186.26 100.24 185.41 100.24 185.3 99.06 184.12 96.98 183.32 96.92 181.6 94.94 179.89 93.5 179.41 93.33 177.48 90.55 176.14 90.44 175.13 89.75 174.96 88.67 175.71 87.71 179.41 85.78 185.57 85.46 186.58 86.75 191.51 86.48 197.13 90.5 195.69 92.32 195.42 93.28 195.15 95.15 194.4 95.9 193.01 97.46 190.38 99.76 190.12 99.76 190.01 100.56 188.35 102.44"/>
    <polygon class="st1" points="182.24 53.82 181.76 55.32 181.87 60.3 180.1 62.06 178.93 62.28 178.34 63.46 178.39 65.22 177.8 65.33 177.8 64.74 177.11 64.79 176.89 67.04 176.41 67.63 176.3 68.11 175.39 68.11 175.39 70.2 176.52 70.74 177.16 72.29 178.6 73.25 179.62 74.27 181.01 74.59 181.66 73.95 182.3 74.38 183.48 74.11 183.91 73.04 185.89 72.61 186.47 71.7 186.42 70.1 188.03 65.54 188.94 66.24 189.96 66.13 190.06 64.47 190.92 64.21 192.47 61.8 192.47 59.98 193.33 60.08 195.26 60.99 195.31 60.03 193.38 58.58 190.38 59.44 188.08 61.74 187.55 58.75 183.48 59.33 182.24 53.82"/>
    <polygon class="st1" points="181.17 47.31 180.24 47.55 176.59 50.44 176.15 50.84 174.98 50.92 173.98 51.49 172.85 51.49 172.05 50.92 170.44 50.88 169.48 50.08 168.64 50.48 166.71 50.6 163.78 50.84 165.55 65.62 166.71 65.7 166.91 65.38 167.51 65.5 168.44 66.99 170.08 67.03 170.4 67.71 171.01 67.31 171.37 67.03 171.97 67.11 172.49 67.63 173.66 66.47 173.98 66.63 175.37 67.95 176.28 67.95 176.43 67.31 176.87 66.88 177.09 64.63 177.78 64.58 177.78 65.17 178.37 65.06 178.32 63.29 178.91 62.12 180.08 61.9 181.85 60.13 181.74 55.15 182.25 53.86 181.17 47.31"/>
    <polygon class="st1" points="206.98 64.74 205.44 65.46 205.2 66.95 204.88 69.52 205.32 70.4 205.84 69.8 206.33 68.44 206.21 66.71 207.01 65.74 206.98 64.74"/>
    <polygon class="st1" points="146.77 81.97 147.29 81.29 147.82 81.33 147.82 80.24 148.18 80 148.1 79.68 147.9 79.08 147.86 78.51 149.1 78.11 150.75 78.84 151.07 77.99 150.83 77.75 150.79 76.63 152.11 76.47 152.15 75.54 152.27 74.42 153.36 73.62 155.49 73.37 155.89 73.94 156.45 73.98 157.13 73.05 157.82 72.85 158.26 73.49 158.9 73.58 158.94 72.61 159.74 72.05 160.06 72.37 161.47 72.45 161.51 71.17 163.2 69.6 163.32 68.11 164.64 68.07 165.81 67.15 165.37 66.79 165.12 66.15 165.57 65.78 166.73 65.86 166.93 65.54 167.54 65.67 168.46 67.15 170.1 67.19 170.42 67.87 171.39 67.19 171.99 67.27 172.51 67.79 173.68 66.63 174 66.79 175.39 68.11 175.39 70.2 176.52 70.74 177.16 72.29 178.6 73.25 175.44 76.41 175.49 77.35 174.86 77.48 173.72 78.35 154.99 80.59 152.96 80.59 153.01 81.88 146.77 81.97"/>
    <polygon class="st0" points="196.07 60.85 193.32 58.99 189.67 61.9 178.98 71.86 179.22 73.24 178.17 74.21 182.95 75.92 193.07 73.4 196.07 60.85"/>
    <polygon class="st1" points="181.01 77.59 154.99 80.59 152.96 80.59 153.01 81.88 146.32 81.98 146.21 84.02 145.41 85.94 145.19 87.34 144.82 87.87 143.85 88.03 143.96 88.67 144.28 88.89 143.96 90.33 153.22 89.91 164.85 89.05 170.36 88.25 170.36 86.85 171.48 86.69 171.7 85.57 175.82 83.16 176.19 82.04 178.01 81.5 178.6 80.64 180.05 80.54 180.96 79.2 181.01 77.59"/>
    <polygon class="st1" points="128.33 120.9 128.33 119.61 128.6 115.75 129.25 115.11 129.14 111.79 127.91 110.51 127.96 109.33 126.84 107.72 124.89 102.21 139.9 100.32 140.17 103.65 140.6 104.99 141.13 105.79 140.86 106.87 138.46 110.94 138.67 113.29 147.18 113.13 147.13 115.06 148.73 117.31 147.56 118.43 147.77 119.07 148.68 119.02 148.79 118.32 149.32 117.95 149.81 118.54 149.7 119.4 148.68 120.15 148.47 120.68 148.41 121.32 150.23 121.7 151.14 122.13 151.73 122.88 151.04 123.41 150.34 123.3 149.27 122.66 148.41 122.5 147.72 122.23 147.56 121.27 146.81 121.75 146.65 122.72 146.54 123.47 145.2 124 145.52 123.25 145.57 122.66 144.4 123.09 143.81 123.79 143.27 124 142.26 123.95 141.19 123.47 140.7 123.04 140.65 122.5 140.97 122.18 140.92 121.75 139.47 121.65 139.1 120.52 136.42 120.41 136.63 121 138.56 121.48 138.24 122.13 136.53 121.59 134.97 121.65 133.26 121.27 131.71 120.47 130.15 120.57 128.33 120.9"/>
    <polygon class="st1" points="186.8 110.2 184.07 110.15 184.07 111 184.49 111.06 184.44 112.93 183.53 112.5 183.48 111.91 171.06 112.39 169.82 110.89 169.56 109.93 169.13 109.56 168.97 107.09 168.86 105.17 169.4 104.68 169.34 103.51 168.54 102.27 167.09 97.51 166.02 93.87 164.95 91.08 164.85 89.05 175.5 87.76 174.96 88.67 175.13 89.75 176.14 90.44 177.48 90.55 179.41 93.33 179.89 93.5 181.6 94.94 183.32 96.92 184.12 96.98 185.3 99.06 185.41 100.24 186.26 100.24 186.96 100.78 186.9 101.63 187.44 102.44 188.35 102.44 188.24 103.24 187.87 104.04 187.28 106.18 186.8 110.2"/>
  </g>
  <g>
    <circle class="st6" cx="198.61" cy="60.46" r="2.95"/>
    <path class="st5" d="M197.6,61.39l.3-.43c.15.14.33.24.51.24.24,0,.38-.1.38-.33s-.14-.33-.34-.33c-.14,0-.2.02-.35.12l-.3-.19.06-1.3h1.5v.58h-.91l-.03.37c.09-.03.16-.04.24-.04.44,0,.82.25.82.78,0,.57-.44.9-.96.9-.42,0-.71-.15-.92-.36Z"/>
  </g>
</svg>