<?xml version="1.0" encoding="UTF-8"?>
<svg id="Layer_1" xmlns="http://www.w3.org/2000/svg" version="1.1" viewBox="0 0 230 146.77">
  <!-- Generator: Adobe Illustrator 29.6.0, SVG Export Plug-In . SVG Version: 2.1.1 Build 207)  -->
  <defs>
    <style>
      .st0, .st1 {
        fill: #90278e;
      }

      .st2 {
        fill: #cdba9e;
      }

      .st3 {
        fill: #9b8579;
      }

      .st4 {
        fill: #009345;
      }

      .st4, .st5, .st6, .st1, .st7 {
        stroke-width: .49px;
      }

      .st4, .st5, .st1, .st7 {
        stroke: #fff;
      }

      .st5 {
        fill: #6a8cc3;
      }

      .st6 {
        fill: none;
        stroke: #c8caca;
      }

      .st7 {
        fill: #ef7763;
      }
    </style>
  </defs>
  <path class="st7" d="M218.75,32.98l-.13-.06-.46-.21-.05-.75-.96-.27-2.94-10.02.7-.32.16-2.03,1.02-1.45-.05-.8-.37-.48-.11-1.45.37-.32.11-2.68,1.23-3.16s.37-2.84,1.87.05l.48-.05s2.73-4.02,4.34,1.39l1.82,5.3,1.5.27.21,1.66s5.52,1.18-.75,5.3l-1.61.75-.16,1.23-1.39-1.29-.38.32v2.2l-.96.75v.8s-1.07.16-.91.32c.16.16-.59.43-.59.43l-.8-.32-.38.75-.53,2.95-.27,1.18Z"/>
  <polygon class="st7" points="218.48 33.95 217.2 35.28 215.16 35.82 212.43 36.46 211.78 36.62 211.89 27.84 213.18 26.66 213.23 25.21 212.8 24.73 212.96 21.57 214.2 21.68 217.14 31.7 218.11 31.96 218.16 32.71 218.75 32.98 218.48 33.95"/>
  <polygon class="st7" points="212.8 23.34 205.89 25.05 206.11 26.61 206.75 28.64 206.75 29.66 206.7 30.73 207.23 31.64 207.77 32.87 208.41 34.11 208.89 35.55 208.94 37 211.78 36.62 211.89 27.84 213.18 26.66 213.23 25.21 212.8 24.73 212.8 23.34"/>
  <polygon class="st7" points="216.39 43.32 215.8 39.95 217.52 39.47 219.23 41.82 218.96 42.41 218.27 42.52 216.39 43.32"/>
  <path class="st5" d="M218.21,34.32l1.02.96-.81,1.45.22.8,1.12.16,1.61,1.87,1.34-.16s1.23-.59-1.02-1.5c0,.16,1.5-.21,1.5-.21,0,0,2.73,1.87-2.03,3.75l-.43-.91-.91.54v.86l-.59-.1-1.72-2.36-8.41,1.77-.16-4.23,8.25-1.72,1.02-.96Z"/>
  <polygon class="st7" points="209.64 46.91 209.11 41.23 215.8 39.95 216.39 43.32 215.32 43.96 214.62 44.5 212.53 44.87 209.64 46.91"/>
  <path class="st7" d="M201.55,43l-17.52,3.64-.11-1.82,2.78-2.89-.11-.86s-3.64-1.71,1.23-3c-.16.16,3.11.05,3.11.05l.75.21.91-.37,1.45-.32,1.39-1.66,1.07-.21-.06-1.23-.27-1.07-.8-.32-.22-1.18,1.34-1.34,1.02-1.23.86-1.5,1.23-1.29,2.03-.48,1.82-.43,1.18-.21,1.23-.43.11,1.12.7,2.25v2.3l2.2,4.82.21,5.68.48,5.46-.11.86-.06.64.81-.54,2.14-.59,1.93-1.12.75-.64.8.37-.91,1.07-2.04,1.45-1.93.86-1.61.43h-.59l.05-2.25-3.8-1.13-1.02-.59-.54-.91-.37-.96-.75-.05-.8-.59Z"/>
  <polygon class="st7" points="180.82 47.34 182.11 54.3 183.12 59.55 202.3 55.96 204.12 55.27 206.16 52.96 204.39 51.03 203.54 50.71 203.48 49.86 204.23 49.37 203.8 48.73 204.02 47.98 204.5 47.71 204.61 46.37 205.04 46.11 204.02 45.52 203.11 43.64 202.36 43.59 201.55 43 184.04 46.64 183.88 44.61 180.82 47.34"/>
  <polygon class="st7" points="207.13 59.77 207.02 58.48 205.62 58.21 204.55 57.68 203.86 56.77 203.75 55.48 206.16 52.96 204.39 51.03 203.54 50.71 203.48 49.86 204.23 49.37 203.8 48.73 204.02 47.98 204.5 47.71 204.61 46.37 205.04 46.11 208.84 47.23 208.94 49.27 208.2 50.34 209.21 50.55 209.48 55.37 207.82 57.89 207.77 59.18 207.13 59.77"/>
  <polygon class="st7" points="202.3 55.96 204.29 62.87 206.91 62.61 206.64 60.68 205.46 59.87 204.87 58.59 203.86 57.68 203.64 56.34 203.59 55.48 202.3 55.96"/>
  <polygon class="st7" points="206.7 64.8 204.87 65.61 204.07 64.53 202.3 64.21 201.77 62.77 202.25 62.34 201.66 61.85 201.93 60.19 201.45 59.55 201.93 58.32 201.5 58.21 200.53 59.66 200.59 61.59 201.02 63.52 201.82 64.59 202.19 65.77 200.86 65.5 198.87 65.02 197.64 64.27 197.75 63.62 196.09 60.68 195.28 60.14 194.86 59.87 193.09 58.64 191.86 59.18 190.57 59.5 190.09 59.5 189.45 59.98 189.02 60.36 188.43 61.11 187.79 61.8 187.25 58.8 202.3 55.96 204.29 62.87 206.91 62.61 207.07 64.11 206.7 64.8"/>
  <polygon class="st7" points="205.68 73.43 193.09 76.16 173.22 78.57 174.56 77.55 175.25 77.28 175.14 76.48 178.3 73.32 179.32 74.34 180.72 74.66 181.36 74.01 182 74.44 183.18 74.18 183.61 73.1 184.68 72.89 185.59 72.68 186.18 71.77 186.13 70.16 187.73 65.6 188.27 65.98 188.64 66.3 189.66 66.19 189.77 64.53 190.63 64.27 192.18 61.85 192.18 60.03 193.04 60.14 194.97 61.05 195.02 60.09 196.09 60.68 197.75 63.62 197.64 64.27 198.87 65.02 201.29 65.71 201.77 66.35 202.68 66.46 202.84 68.28 203.21 68.71 202.25 69.14 202.41 69.68 203.59 70.91 203.48 71.55 203.11 71.6 203.27 72.19 204.07 72.09 204.87 71.66 205.68 73.43"/>
  <path class="st7" d="M196.84,90.57l-5.63-4.02-4.93.27-1.02-1.29-6.16.32-3.91,1.98-5.2.32.05-1.23,1.13-.16.21-1.12,4.13-2.41.37-1.12,1.82-.54.59-.86,1.45-.11.91-1.34.06-1.61,11.78-1.39,13.18-2.84.7,1.18,1.66,2.47-.48,1.45-.7.91-.54.86-1.71.32-.05,1.98,1.77.21-.91,1.72s-4.71-.48-5.79,5.62l-2.79.43Z"/>
  <polygon class="st7" points="188.06 102.51 187.15 102.51 186.61 101.71 186.66 100.85 185.97 100.32 185.11 100.32 185 99.14 183.82 97.05 183.02 97 181.31 95.01 179.59 93.57 179.11 93.41 177.18 90.62 175.84 90.51 174.82 89.82 174.66 88.75 175.41 87.78 179.11 85.85 185.27 85.53 186.29 86.82 191.21 86.55 196.84 90.57 195.39 92.39 195.13 93.35 194.86 95.23 194.11 95.98 192.72 97.53 190.09 99.83 189.82 99.83 189.72 100.64 188.06 102.51"/>
  <polygon class="st7" points="186.5 110.28 183.77 110.23 183.77 111.08 184.2 111.14 184.15 113.01 183.24 112.59 183.18 111.99 170.75 112.48 169.52 110.98 169.25 110.01 168.82 109.64 168.66 107.17 168.56 105.25 169.09 104.76 169.04 103.58 168.24 102.35 166.79 97.58 165.72 93.94 164.65 91.16 164.54 89.12 175.2 87.83 174.66 88.75 174.82 89.82 175.84 90.51 177.18 90.62 179.11 93.41 179.59 93.57 181.31 95.01 183.02 97 183.82 97.05 185 99.14 185.11 100.32 185.97 100.32 186.66 100.85 186.61 101.71 187.15 102.51 188.06 102.51 187.95 103.32 187.57 104.12 186.98 106.26 186.5 110.28"/>
  <polygon class="st7" points="181.95 53.87 181.46 55.37 181.57 60.35 179.8 62.12 178.63 62.34 178.04 63.51 178.09 65.28 177.5 65.39 177.5 64.8 176.81 64.85 176.59 67.1 176.11 67.69 176 68.18 175.09 68.18 175.09 70.27 176.22 70.8 176.86 72.35 178.3 73.32 179.32 74.34 180.72 74.66 181.36 74.01 182 74.44 183.18 74.18 183.61 73.1 185.59 72.68 186.18 71.77 186.13 70.16 187.73 65.6 188.64 66.3 189.66 66.19 189.77 64.53 190.63 64.27 192.18 61.85 192.18 60.03 193.04 60.14 194.97 61.05 195.02 60.09 193.09 58.64 190.09 59.5 187.79 61.8 187.25 58.8 183.18 59.39 181.95 53.87"/>
  <polygon class="st7" points="158.38 116.01 156.56 116.6 156.24 116.33 156.77 115.96 156.13 114.3 155.38 114.14 155.06 114.94 155 115.74 153.77 115.96 152.91 107.92 153.13 89.92 164.54 89.12 164.54 90.89 168.24 102.35 169.04 103.58 169.09 104.76 168.56 105.25 168.82 109.64 169.25 110.01 169.36 110.76 157.09 112.1 156.99 113.07 158.27 114.08 158.38 116.01"/>
  <polygon class="st7" points="180.72 77.66 154.68 80.66 152.65 80.66 152.7 81.94 146 82.05 145.9 84.09 145.09 86.01 144.88 87.41 144.5 87.94 143.54 88.1 143.65 88.75 143.97 88.96 143.65 90.41 152.91 89.98 164.54 89.12 170.06 88.32 170.06 86.92 171.18 86.76 171.39 85.64 175.52 83.23 175.89 82.1 177.72 81.57 178.3 80.71 179.75 80.6 180.66 79.26 180.72 77.66"/>
  <polygon class="st7" points="153.77 115.96 150.88 116.23 149.06 116.55 148.41 117.35 147.82 116.55 146.81 115.1 146.86 113.17 138.34 113.33 138.13 110.98 140 107.98 140.43 107.28 140.59 106.21 140.81 105.83 140.27 105.03 139.84 103.69 139.68 102.51 139.68 101.6 139.79 99.78 139.74 97.21 140.65 95.34 141.83 94.26 142.04 92.66 143.38 91.48 143.38 90.57 143.65 90.41 153.13 89.92 152.91 107.92 153.77 115.96"/>
  <polygon class="st5" points="199.89 63.51 198.32 62.98 196.99 63.97 197.01 62.31 195.66 61.36 197.24 60.86 197.73 59.28 198.69 60.63 200.35 60.61 199.36 61.94 199.89 63.51"/>
  <polygon class="st7" points="86.48 79.22 108.93 80.35 123.36 80.39 123.44 83.2 124.36 89.87 124.32 99.51 121.47 97.59 120.88 97.85 117.24 97.96 116.54 98.71 115.09 98.66 113.06 97.59 112.84 98.87 111.56 98.77 110.76 97.75 109.63 97.8 109.25 98.07 108.4 98.12 107.54 96.51 106.84 96.46 106.04 97 102.93 95.87 102.88 94.96 100.53 94.91 99.35 93.68 99.93 82.53 86.11 82.32 86.48 79.22"/>
  <polygon class="st7" points="206.7 64.8 205.16 65.52 204.91 67.01 204.59 69.58 205.04 70.47 205.56 69.86 206.04 68.5 205.92 66.77 206.72 65.81 206.7 64.8"/>
  <polygon class="st7" points="180.89 47.52 179.97 47.77 176.31 50.66 175.87 51.06 174.7 51.14 173.7 51.7 172.57 51.7 171.77 51.14 170.16 51.1 169.2 50.3 168.36 50.7 166.43 50.82 163.49 51.06 165.26 65.85 166.43 65.93 166.63 65.6 167.23 65.73 168.15 67.21 169.8 67.25 170.12 67.93 170.73 67.53 171.09 67.25 171.69 67.33 172.21 67.85 173.38 66.69 173.7 66.85 175.09 68.18 176 68.18 176.15 67.53 176.59 67.1 176.81 64.85 177.5 64.8 177.5 65.39 178.09 65.28 178.04 63.51 178.63 62.34 179.8 62.12 181.57 60.35 181.46 55.37 181.97 54.07 180.89 47.52"/>
  <polygon class="st7" points="152.56 52.67 153.53 52.99 155.5 51.78 163.49 51.06 165.26 65.85 164.86 66.37 165.06 66.85 165.5 67.21 164.34 68.14 163.01 68.18 162.89 69.66 161.2 71.23 161.16 72.52 159.76 72.43 159.44 72.11 158.63 72.68 158.59 73.64 157.95 73.56 157.51 72.92 156.82 73.12 156.14 74.04 155.58 74 155.18 73.44 153.05 73.68 151.96 74.48 152.04 72.31 153.69 69.78 153.93 67.82 153.25 67.13 152.56 52.83 152.56 52.67"/>
  <polygon class="st7" points="146.46 82.04 146.98 81.35 147.5 81.39 147.5 80.31 147.86 80.07 147.79 79.75 147.58 79.14 147.54 78.58 148.79 78.18 150.44 78.9 150.76 78.06 150.52 77.82 150.48 76.69 151.8 76.53 151.84 75.61 151.96 74.48 153.05 73.68 155.18 73.44 155.58 74 156.14 74.04 156.82 73.12 157.51 72.92 157.95 73.56 158.59 73.64 158.63 72.68 159.44 72.11 159.76 72.43 161.16 72.52 161.2 71.23 162.89 69.66 163.01 68.18 164.34 68.14 165.5 67.21 165.06 66.85 164.82 66.21 165.26 65.85 166.43 65.93 166.63 65.6 167.23 65.73 168.15 67.21 169.8 67.25 170.12 67.93 171.09 67.25 171.69 67.33 172.21 67.85 173.38 66.69 173.7 66.85 175.09 68.18 175.09 70.27 176.22 70.8 176.86 72.35 178.3 73.32 175.14 76.48 175.19 77.42 174.56 77.55 173.42 78.42 154.68 80.66 152.65 80.66 152.7 81.94 146.46 82.04"/>
  <polygon class="st7" points="150.82 48.3 150.88 49.85 151.79 50.98 152.56 52.67 153.25 67.13 153.93 67.82 153.69 69.78 152.04 72.31 151.79 76.37 150.48 76.69 150.52 77.82 150.76 78.06 150.44 78.9 148.79 78.18 147.54 78.58 147.5 79.48 146.7 79.43 146.06 78.09 146.11 77.28 145.15 75.09 143.86 75.09 141.67 72.35 142.79 69.84 142.42 69.3 140.06 68.93 140.11 67.53 136.84 64.59 136.36 63.25 136.31 61.1 136.9 60.78 136.79 59.71 137.97 59.39 137.97 58.05 138.56 57.68 138.4 56.82 137.81 56.34 137.86 55.48 138.4 55 139.36 55 140.75 53.93 141.34 51.51 139.09 49.48 139.04 48.68 150.82 48.3"/>
  <polygon class="st7" points="123.36 80.39 108.56 80.44 90.94 79.43 91.9 62.93 120.18 63.51 120.77 64.32 121.84 64.48 121.84 65.28 121.31 65.71 121.31 66.78 123.29 68.93 123.36 80.39"/>
  <path class="st7" d="M136.41,43.75l-.11-1.87-2.89-2.41-.59-.91h-.8l-.16-.7h-1.12l-.75-.86-.16-2.84.32-.8.05-.8-.7-.75.32-.64,1.93-2.2.21-3.05s2.36.05,2.2,0c-.16-.05,2.84-1.61,2.84-1.61l.8.38-.96,1.39.48.32,1.02-.21,1.07.59.65.8,1.12.21,2.36.43,4.55,1.07,1.07,1.02.43,2.36.7,1.02-1.39,2.36.16.91.54-.16,3.05-4.39.21.8-1.71,4.02v1.82l-.43,1.07.27,1.5-.59,1.07-.27,1.18.7,4.44-11.78.37-1.18-.59-.96-1.07-.11-1.34.8-.43-.32-.64-.86-.86Z"/>
  <polygon class="st7" points="92.27 57.62 83.86 56.6 84.72 45.41 107.65 46.8 109.1 47.98 109.95 47.98 110.27 47.6 112.47 47.6 115.58 49.64 117.51 55.48 118.42 60.3 118.84 61.96 120.18 63.51 91.9 62.93 92.27 57.62"/>
  <polygon class="st7" points="115.63 43.86 136.41 43.75 137.27 44.6 137.59 45.25 136.79 45.68 136.9 47.01 137.86 48.09 139.04 48.68 139.09 49.64 141.34 51.51 140.75 53.93 139.36 55 138.4 55 137.86 55.48 137.81 56.34 138.45 56.98 138.56 57.68 138.02 58.21 137.97 59.39 136.79 59.71 136.9 60.78 136.31 61.1 135.67 59.87 118.42 60.3 117.45 55.85 115.58 49.64 114.99 48.09 115.47 46.86 115.74 45.73 115.04 45.19 114.99 43.86 115.63 43.86"/>
  <polygon class="st7" points="84.72 45.41 86.33 29.34 115.2 30.62 115.2 31.48 114.19 32.39 115.63 34.16 115.63 43.86 114.99 43.86 115.04 45.19 115.74 45.73 114.99 48.09 115.42 49.27 112.47 47.6 110.06 47.66 109.95 47.98 109.1 47.98 107.65 46.8 84.72 45.41"/>
  <polygon class="st7" points="155.5 51.78 156.5 49.94 157.35 48.57 157.31 45.32 155.42 42.1 155.7 38.49 156.14 35.47 156.7 35.27 156.58 34.15 157.67 33.26 157.91 32.38 158.47 32.18 158.67 32.94 158.19 33.91 158.11 34.71 159.03 34.39 159.11 31.78 159.6 31.5 160.64 31.46 160.8 30.81 160 30.81 159.92 29.85 161.36 28.76 162.21 29.65 162.81 29.29 165.3 30.41 166.43 30.53 167.39 31.94 166.75 32.42 166.79 32.9 167.55 33.58 167.47 36.36 166.75 37.28 166.43 38.37 165.94 38.41 165.74 39.97 166.87 40.25 167.79 38.93 168.2 38.04 169.6 37.24 171.05 39.37 171.93 42.54 172.01 45.52 171.09 45.48 170.24 47.36 170.08 48.69 169.2 50.3 168.36 50.7 155.5 51.78"/>
  <polygon class="st7" points="150.29 33.68 152.04 29.65 152.61 29.65 153.25 29.81 154.13 29.24 154.61 29.49 155.38 28.44 157.51 28.12 157.95 27.6 160.68 28 163.41 27.44 165.78 27.72 166.03 27.24 165.46 26.47 163.9 26.96 163.25 26.47 163.01 24.38 162.29 24.63 161.97 24.83 160.44 25.39 159.48 25.07 159.48 23.66 158.71 23.78 157.35 24.38 155.02 24.42 153.45 25.75 150.6 25.67 149.03 23.98 147.7 23.74 146.38 24.42 146.26 23.7 146.82 22.98 146.86 22.5 148.63 21.21 148.95 20.89 148.75 20.45 147.1 20.77 144.73 22.82 144.57 23.54 142.68 24.71 141.52 24.91 140.87 25.59 139.27 26.07 139.19 26.63 139.41 26.77 140.06 27.57 148.09 29.28 149.16 30.3 149.59 32.66 150.29 33.68"/>
  <g>
    <path class="st4" d="M219.02,32.98l-.13-.06-.46-.21-.05-.75-.96-.27-2.94-10.02.7-.32.16-2.03,1.02-1.45-.05-.8-.37-.48-.11-1.45.37-.32.11-2.68,1.23-3.16s.37-2.84,1.87.05l.48-.05s2.73-4.02,4.34,1.39l1.82,5.3,1.5.27.21,1.66s5.52,1.18-.75,5.3l-1.61.75-.16,1.23-1.39-1.29-.38.32v2.2l-.96.75v.8s-1.07.16-.91.32c.16.16-.59.43-.59.43l-.8-.32-.38.75-.53,2.95-.27,1.18Z"/>
    <path class="st4" d="M218.49,34.32l1.02.96-.81,1.45.22.8,1.12.16,1.61,1.87,1.34-.16s1.23-.59-1.02-1.5c0,.16,1.5-.21,1.5-.21,0,0,2.73,1.87-2.03,3.75l-.43-.91-.91.54v.86l-.59-.1-1.72-2.36-8.41,1.77-.16-4.23,8.25-1.72,1.02-.96Z"/>
    <polygon class="st4" points="209.92 46.91 209.38 41.23 216.08 39.95 216.67 43.32 215.59 43.96 214.9 44.5 212.81 44.87 209.92 46.91"/>
    <polygon class="st4" points="202.58 55.96 204.56 62.87 207.18 62.61 206.92 60.68 205.74 59.87 205.15 58.59 204.13 57.68 203.92 56.34 203.86 55.48 202.58 55.96"/>
  </g>
  <g>
    <polygon class="st3" points="113.05 13.59 113.64 14.93 111.83 16.66 113.31 18.84 116.21 20.79 119.13 24.2 126.91 26.38 136.67 43.59 136.56 41.71 133.67 39.3 133.24 38.39 132.28 38.39 132.12 37.69 130.99 37.69 130.24 36.84 130.08 34 130.4 33.19 130.46 32.39 129.76 31.64 129.87 31.21 132.01 28.8 132.22 25.75 135.49 22.96 136.24 21.57 141.97 18.46 142.19 17.98 140.79 18.09 139.99 17.66 137.26 17.61 137.15 17.07 135.44 18.09 133.88 18.09 133.78 17.44 132.81 17.44 132.55 16.48 131.69 16.96 129.28 15.41 127.83 15.3 127.14 15.78 126.06 15.89 125.74 15.46 124.4 15.52 123.17 14.98 122.15 11.44 120.76 11.34 120.82 13.37 113.05 13.59"/>
    <g>
      <g>
        <polygon class="st3" points="152.82 52.51 153.78 52.83 155.75 51.62 163.75 50.9 165.52 65.68 165.11 66.21 165.32 66.69 165.76 67.05 164.59 67.97 163.27 68.01 163.15 69.5 161.46 71.07 161.42 72.35 160.01 72.27 159.69 71.95 158.89 72.51 158.85 73.48 158.2 73.4 157.76 72.75 157.08 72.95 156.4 73.88 155.83 73.84 155.43 73.28 153.3 73.52 152.22 74.32 152.3 72.15 153.95 69.62 154.19 67.65 153.5 66.97 152.82 52.67 152.82 52.51"/>
        <polygon class="st3" points="151.08 48.14 151.13 49.69 152.04 50.82 152.82 52.51 153.5 66.97 154.19 67.65 153.95 69.62 152.3 72.15 152.04 76.21 150.73 76.53 150.77 77.66 151.01 77.9 150.69 78.74 149.05 78.02 147.8 78.42 147.76 79.32 146.96 79.26 146.31 77.92 146.37 77.12 145.4 74.92 144.12 74.92 141.92 72.19 143.05 69.67 142.67 69.14 140.31 68.76 140.37 67.37 137.1 64.42 136.62 63.08 136.56 60.94 137.15 60.62 137.05 59.55 138.22 59.23 138.22 57.89 138.81 57.51 138.65 56.66 138.06 56.17 138.12 55.32 138.65 54.83 139.62 54.83 141.01 53.76 141.6 51.35 139.35 49.32 139.3 48.51 151.08 48.14"/>
        <path class="st3" d="M136.67,43.59l-.11-1.87-2.89-2.41-.59-.91h-.8l-.16-.7h-1.12l-.75-.86-.16-2.84.32-.8.05-.8-.7-.75.32-.64,1.93-2.2.21-3.05s2.36.05,2.2,0c-.16-.05,2.84-1.61,2.84-1.61l.8.38-.96,1.39.48.32,1.02-.21,1.07.59.65.8,1.12.21,2.36.43,4.55,1.07,1.07,1.02.43,2.36.7,1.02-1.39,2.36.16.91.54-.16,3.05-4.39.21.8-1.71,4.02v1.82l-.43,1.07.27,1.5-.59,1.07-.27,1.18.7,4.44-11.78.37-1.18-.59-.96-1.07-.11-1.34.8-.43-.32-.64-.86-.86Z"/>
        <polygon class="st3" points="155.75 51.62 156.76 49.77 157.6 48.41 157.56 45.15 155.67 41.94 155.95 38.32 156.4 35.31 156.96 35.11 156.84 33.98 157.92 33.1 158.16 32.22 158.73 32.01 158.93 32.78 158.45 33.74 158.37 34.55 159.29 34.23 159.37 31.61 159.85 31.33 160.9 31.29 161.06 30.65 160.25 30.65 160.17 29.69 161.62 28.6 162.46 29.48 163.06 29.12 165.56 30.25 166.68 30.37 167.65 31.78 167 32.26 167.04 32.74 167.81 33.42 167.73 36.19 167 37.12 166.68 38.2 166.2 38.24 166 39.81 167.13 40.09 168.05 38.77 168.45 37.88 169.86 37.08 171.3 39.21 172.19 42.38 172.27 45.35 171.34 45.31 170.5 47.2 170.34 48.53 169.45 50.13 168.61 50.54 155.75 51.62"/>
        <polygon class="st3" points="150.54 33.52 152.3 29.48 152.86 29.48 153.5 29.64 154.39 29.08 154.87 29.32 155.63 28.28 157.76 27.96 158.2 27.44 160.94 27.84 163.67 27.28 166.04 27.56 166.28 27.07 165.72 26.31 164.15 26.79 163.51 26.31 163.27 24.22 162.54 24.46 162.22 24.66 160.7 25.23 159.73 24.9 159.73 23.5 158.97 23.62 157.6 24.22 155.27 24.26 153.7 25.59 150.85 25.51 149.28 23.82 147.96 23.58 146.64 24.26 146.51 23.54 147.08 22.82 147.12 22.33 148.88 21.05 149.21 20.73 149.01 20.28 147.36 20.61 144.99 22.65 144.83 23.38 142.94 24.54 141.77 24.74 141.13 25.43 139.52 25.91 139.44 26.47 139.67 26.61 140.31 27.41 148.35 29.12 149.42 30.14 149.85 32.5 150.54 33.52"/>
        <polygon class="st3" points="158.65 116.01 156.83 116.6 156.51 116.33 157.04 115.96 156.4 114.3 155.65 114.14 155.33 114.94 155.28 115.74 154.05 115.96 153.19 107.92 153.4 89.92 164.82 89.12 164.81 90.89 168.51 102.35 169.31 103.58 169.37 104.76 168.83 105.25 169.1 109.64 169.53 110.01 169.64 110.76 157.37 112.1 157.26 113.07 158.55 114.08 158.65 116.01"/>
        <polygon class="st3" points="154.05 115.96 151.15 116.23 149.33 116.55 148.69 117.35 148.1 116.55 147.08 115.1 147.14 113.17 138.62 113.33 138.4 110.98 140.28 107.98 140.71 107.28 140.87 106.21 141.08 105.83 140.55 105.03 140.12 103.69 139.96 102.51 139.96 101.6 140.06 99.78 140.01 97.21 140.92 95.34 142.1 94.26 142.32 92.66 143.65 91.48 143.65 90.57 143.92 90.41 153.4 89.92 153.19 107.92 154.05 115.96"/>
        <path class="st3" d="M161.86,110.83l-4.7-2.19-1.22,2.76-1.94,4.05-2.35.41-3.81-19.13v-6.32l8.02-.41,4.3,1.46,2.03,3.08s4.21,7.29,4.38,7.62-4.7,8.67-4.7,8.67Z"/>
        <polyline class="st3" points="127.17 108.15 123.53 106.45 119.64 103.53 117.45 102.32 115.26 100.86 111.37 100.62 108.7 99.89 105.53 99.89 103.35 98.91 100.19 98.43 97.76 98.18 95.32 95.75 89.98 93.57 85.36 92.35 83.17 91.38 80.74 90.65 77.82 86.76 75.87 85.79 77.82 83.35 77.58 79.95 79.03 78.01 77.82 76.79 77.58 74.85 74.42 73.39 73.93 68.28 77.09 64.88 77.33 63.18 75.39 62.69 74.42 60.26 72.96 58.56 73.2 57.34 71.74 56.85 70.4 54.18 69.19 53.69 65.91 48.1 64.57 44.82 61.53 42.27 60.31 39.59 60.07 37.04 59.34 36.8 58.61 35.34 57.88 33.76 56.91 33.76 57.15 34.49 55.09 34.73 53.87 34.12 53.02 34.37 52.17 34.12 51.44 34.97 50.83 32.54 49.98 32.06 49.98 30.84 48.89 27.44 49.74 25.25 51.81 23.18 53.14 23.43 54.36 24.16 55.7 24.28 56.18 21.85 56.42 19.54 55.57 17.23 54.48 15.04 54.72 13.7 53.02 11.88 52.41 9.69 52.66 8.47 114.27 13.84 116.88 14.07 121.95 23.43 124.74 22.33 127.9 25.01 131.55 32.79 138.84 41.3 145.16 52.96 146.14 76.06 147.19 78.9 147.59 80.6 146.46 82.04 145.97 83.43 144.6 87.65 143.79 87.81 143.46 90.65 143.7 93 140.91 95.51 141 97.65 141.36 101.41 141.76 103.37 140.22 99.32 126.76 94.46 127.9 102.24 126.6 102.72"/>
      </g>
      <polygon class="st3" points="127.17 108.15 123.53 106.45 119.64 103.53 117.45 102.32 115.26 100.86 111.37 100.62 108.7 99.89 105.53 99.89 103.35 98.91 100.19 98.43 97.76 98.18 95.32 95.75 89.98 93.57 85.36 92.35 83.17 91.38 80.74 90.65 77.82 86.76 75.87 85.79 77.82 83.35 77.58 79.95 79.03 78.01 77.82 76.79 77.58 74.85 74.42 73.39 73.93 68.28 77.09 64.88 77.33 63.18 75.39 62.69 74.42 60.26 72.96 58.56 73.2 57.34 71.74 56.85 70.4 54.18 69.19 53.69 65.91 48.1 64.57 44.82 61.53 42.27 60.31 39.59 60.07 37.04 59.34 36.8 58.61 35.34 57.88 33.76 56.91 33.76 57.15 34.49 55.09 34.73 53.87 34.12 53.02 34.37 52.17 34.12 51.44 34.97 50.83 32.54 49.98 32.06 49.98 30.84 48.89 27.44 49.74 25.25 51.81 23.18 53.14 23.43 54.36 24.16 55.7 24.28 56.18 21.85 56.42 19.54 55.57 17.23 54.48 15.04 54.72 13.7 53.02 11.88 52.41 9.69 86.94 12.49 90.34 12.61 93.62 15.04 95.57 15.4 97.39 17.35 98.85 16.5 101.04 17.35 101.64 19.9 103.1 19.54 105.05 21.24 106.26 20.99 106.63 20.27 108.33 19.29 109.3 19.41 109.42 20.99 110.64 22.09 110.64 23.79 111.61 26.22 111.86 28.65 113.19 29.75 116.23 30.23 117.45 29.02 118.3 27.56 119.51 27.56 119.51 23.79 121.95 23.43 124.74 22.33 127.9 25.01 131.55 32.79 138.84 41.3 145.16 52.96 146.14 76.06 147.19 78.9 147.59 80.6 146.46 82.04 145.97 83.43 144.6 87.65 143.79 87.81 143.46 90.65 143.7 93 140.91 95.51 141 97.65 141.36 101.41 141.76 103.37 140.54 102.07 125.79 102.56 126.44 103.21 127.17 108.15"/>
    </g>
  </g>
  <g>
    <polygon class="st2" points="132.22 25.75 139.57 20.87 142.49 19.9 145.41 14.39 141.19 12.77 133.09 14.07 124.98 17.96 125.31 20.22 128.87 20.22 129.85 21.85 127.9 25.01 128.87 27.03 132.22 25.75"/>
    <polygon class="st2" points="224.82 13.42 223.53 15.04 221.87 15.36 220.77 15.73 219.8 15.36 219.07 16.7 217.61 17.06 216.76 17.55 216.02 17.07 216.15 16.09 215.91 14.82 216.23 12.44 216.64 11.72 218.1 7.83 218.99 8.15 219.4 9.04 221.14 7.7 221.99 7.46 222.96 8.07 223.81 9.89 224.91 12.57 224.82 13.42"/>
    <polygon class="st2" points="114.29 19.9 114.27 13.84 93.05 11.96 92.89 13.74 98.4 14.39 100.99 20.55 102.94 22.82 105.86 20.87 107.8 20.23 108.77 22.5 108.77 26.71 110.72 27.68 113.96 28.33 114.29 19.9"/>
    <polygon class="st2" points="157.56 112.12 138.62 113.33 139.08 114.55 140.87 115.53 142.81 116.5 144.92 116.99 146.7 116.99 148.1 116.55 148.65 117.63 149.29 116.83 149.94 116.5 152.21 116.17 153.77 115.96 155.45 115.85 155.33 114.94 155.65 114.14 156.13 114.3 156.99 115.69 156.51 116.33 156.56 116.6 158.65 116.01 158.55 114.08 157.26 113.07 157.56 112.12"/>
  </g>
  <path class="st6" d="M19.87,0l20.23,5.34,4.04.66,20.68,3.8,22.93,2.96,25.33,1.06,7.77-.21-.06-2.04,1.39.11,1.02,3.54,1.23.54,1.34-.05.32.43,1.07-.11.7-.48,1.45.11,2.41,1.55.86-.48.27.96h.96l-.11,1.04,1.77-.4,1.71-1.02-.08.93,2.92-.34.8.43,1.18.38-5.73,3.11-.75,1.39-3.27,2.78h2.2l2.84-1.61.42.54-.97,1.34.88.21,1.02-.22.93-.11,1.6-.48.64-.68.65.06,2.41-1.42.16-.72,2.37-2.05,1.38.06-2.07,1.7-.61.85.57,1.04,1.01-.31,1.64-.13,1.57,1.69,2.85.08,1.57-1.33,2.33-.04,1.37-.6.76,1.29.96.32,2.57-1.01.24,2.09.64.48,1.57-.48.56.76-2.61.2-2.73.56-2.73-.4-.44.52-2.13.32-.77,1.04-.54-.63-.83.95-1.2-.16-3.15,6.39.16.91.54-.16,3.27-3.59-1.71,4.02v1.82l-.43,1.07-.17,1.27-.61,2.07.49,4.62v1.94l1.36.97.78,1.69.96.32,1.97-1.21,1.85-3.21-.04-3.26-1.89-3.21.72-6.63.56-.2-.12-1.12,1.08-.88.24-.88.76.56-.48.96-.08.8,1.31-.26-.31-2.67,1.53-.32.16-.65h-.8l-.08-.96,1.45-1.09.84.89.6-.36,2.49,1.12,1.12.12.96,1.41-.64.48.04.48.77.68-.08,2.77-1.53,2.05-.68-.07.48,1.64,1.13.28,1.33-2.21,1.2-.44,1.65,1.76.89,3.18-.35,2.72-.49.21-.84,1.89-.36.82-.97,1.7.73,1.34,2.19.36.75.12h1.13l1-.56,1.16-.08,5.02-3.54,2.99-2.92,2.84-2.68-.11-.86s-3.18-1.69,1.23-3l3.11.05.75.22,1.28-.25,1.08-.45,1.39-1.66,1.07-.21-.32-2.3-.43-.36-.59-1.14,2.36-2.57.86-1.5,1.23-1.28,5.87-1.28,7.31-1.99.16-1.77,1.23.11.7-.32.16-2.04,1.02-1.45-.05-.8-.37-.48.27-1.77.11-2.68,2-4.19,1.11,1.09.48-.05s3.03-3.1,3.64.79c.24.36,2.07,6.08,2.07,6.08l1.96.1.21,1.66s5.72.86-2.36,6.05l-.3.82-1.25-.87-.38.32-.44,1.77-.53,1.18v.8l-.91.32-1.39.11-1.3,4.27-.14,1.57-.27.38,1.02.96-.81,1.45.22.8,1.12.16,1.61,1.87s2.72-.02,1.38-1.36l.44-.52s2.73,1.87-2.03,3.75l-.35-1.29-1.09.49-.49,1.18-2.67,1.01-1.93,1.66-2.2-.08-2.84,2.28-.75.54.11,2.04-1.14,1.1,1.41.18.27,4.82-1.66,2.52-.5,1.23-2.77-1.44-.88-1.72.18,1.72.91,1.32,1.46,1.46.85,3.65-.35,1.7-.8.96.12,1.73-.48,1.37-.96-.28.28-3.97-.35-1.26-2.22-.14-.53-1.45.48-.43-.59-.48.27-1.66-.48-.64.48-1.23-.43-.11-1.35,1.52.49,3.65,1.22,1.82.83,1.26.16,1.82-.59.86,1.34,1.77-.48.7.16.59,1.61-.54,3.16,5.41-.48,1.45-1.23,1.77-1.71.32-.08,2.47h1.34l-.45,1.44s-3.81-1.08-5.99,5l-2.58,1.06-1.45,1.82-.54,2.84-5.04,4.6-1.77,2.68s-1.4,2.44-2.01,7.3l2.6,5.98,3.84,5.57.12,1.4,3.77,7.11.73,5.96-.48.76v1.92s-1.12,1.3-1.12,1.3h-1.18l-.86.28-.61-1.7-1.85-1.74h-1.39l-.7-.7-.27-1.34-.86-.91-1.23.43-1.39-2.89-1.98-2.57,1.56-1.71-.03-1.45-1.53.59-.05.43-.61-1.75.18-.72v-2.73l-1.34-1.55-1.45-.27-3.48-3.53-1.23-.54-1.82.21v1.02l-2.4.82-2.09.58-.05-.75-3.75-1.93-4.68-.45-1.22,1.09h-.8l-1.61-.05-.64-1.66-1.2-.47-.49,1.7-5.38,1.02-2.27,1.9.67.68.91-.06.11-.7,1.02.22-.11.85-1.02.75-.27,1.18,2.73.8-.11,1.29-2.62-.91-.86-1.23-.75.48-.27,1.71-1.02-.21.37-1.09-1.49.92-.59.7-1.55.16-1.61-1.45.32-.32-.06-.87-1.44.33-.37-1.12-2.68-.11.11,1.18-3.27-.32-1.55-.81-3.38.43-3.32,1.23-6.22,4.29-7.7,4.71-.2,1.13.47.74-1.56,2.66.12,1.7,1.46,3.65-1.09.61-1.02-.31-2.73-.27-.87-1.24-1.7.28-2.04-1.71-.43-1.71-.45-1.11-.56-2.91-1.13-.7-2.2-3.56-2.19-4.63-3.16-3.64-3.7-.43-.43-.54h-.96l-2.08.97-.49,1.7-1.58,1.46-3.28-2.19-2.91-2.27-.11-2.41-.39-2.25-1.94-1.82-.56.49-2.36-3.65-1.5-.32-1.23-1.93-.79-.67-6.97-.35-.44,1.68-4.01-.24-9.69-.8-15.35-10.02.12-1.09-11.12-.83-.16-3.86-2.62-3.86-1.5-.32-.05-1.5-1.55-.27-2.25-3.27h-1.12l-1.55-.96-1.39-.33-.64-.53,1.37-3.36-2.87-4.41-.11-1.02-1.23-1.66-.06-2.04.75-.37.43-1.55-.91-.32-.86-1.18-.11-2.78.43-1.18-1.45-1.39.05-2.2-1.93-3.75.8-2.65-.21-3.83L0,44.41l.43-1.55,2.84-3.8.48-8.3,2.78-4.23,4.98-12.48v-2.14l1.02-.96-.59-.27.32-.94,1.22-.24-1.32-.85-.02-4.98-.85-.61.98-1.96,1.45,1.6,5.11,1.82,1.46,1.94.24-4.25.61-.73-1.26-1.45Z"/>
  <g>
    <polygon class="st1" points="128.29 120.98 128.29 119.7 128.56 115.84 129.2 115.2 129.09 111.87 127.86 110.59 127.91 109.41 126.79 107.8 124.84 102.29 139.86 100.39 140.13 103.73 140.56 105.07 141.09 105.87 140.82 106.94 138.41 111.02 138.63 113.37 147.14 113.21 147.09 115.14 148.7 117.39 147.52 118.52 147.73 119.16 148.64 119.1 148.75 118.41 149.29 118.03 149.77 118.62 149.66 119.48 148.64 120.23 148.43 120.77 148.38 121.41 150.2 121.78 151.11 122.21 151.7 122.96 151 123.5 150.3 123.39 149.23 122.75 148.38 122.59 147.68 122.32 147.52 121.36 146.77 121.84 146.61 122.8 146.5 123.55 145.16 124.09 145.48 123.34 145.54 122.75 144.36 123.18 143.77 123.87 143.23 124.09 142.22 124.03 141.14 123.55 140.66 123.12 140.61 122.59 140.93 122.27 140.88 121.84 139.43 121.73 139.05 120.61 136.38 120.5 136.59 121.09 138.52 121.57 138.2 122.21 136.48 121.68 134.93 121.73 133.22 121.36 131.66 120.55 130.11 120.66 128.29 120.98"/>
    <polygon class="st1" points="218.76 33.95 217.47 35.28 215.44 35.82 212.7 36.46 212.06 36.62 212.17 27.84 213.45 26.66 213.51 25.21 213.08 24.73 213.24 21.57 214.47 21.68 217.42 31.7 218.38 31.96 218.43 32.71 219.02 32.98 218.76 33.95"/>
    <polygon class="st1" points="213.08 23.34 206.17 25.05 206.38 26.61 207.02 28.64 207.02 29.66 206.97 30.73 207.51 31.64 208.04 32.87 208.68 34.11 209.17 35.55 209.22 37 212.06 36.62 212.17 27.84 213.45 26.66 213.51 25.21 213.08 24.73 213.08 23.34"/>
    <polygon class="st0" points="216.67 43.32 216.08 39.95 217.79 39.47 219.51 41.82 219.24 42.41 218.54 42.52 216.67 43.32"/>
    <path class="st1" d="M201.83,43l-17.52,3.64-.11-1.82,2.78-2.89-.11-.86s-3.64-1.71,1.23-3c-.16.16,3.11.05,3.11.05l.75.21.91-.37,1.45-.32,1.39-1.66,1.07-.21-.06-1.23-.27-1.07-.8-.32-.22-1.18,1.34-1.34,1.02-1.23.86-1.5,1.23-1.29,2.03-.48,1.82-.43,1.18-.21,1.23-.43.11,1.12.7,2.25v2.3l2.2,4.82.21,5.68.48,5.46-.11.86-.06.64.81-.54,2.14-.59,1.93-1.12.75-.64.8.37-.91,1.07-2.04,1.45-1.93.86-1.61.43h-.59l.05-2.25-3.8-1.13-1.02-.59-.54-.91-.37-.96-.75-.05-.8-.59Z"/>
    <polygon class="st1" points="181.1 47.34 182.38 54.3 183.4 59.55 202.58 55.96 204.4 55.27 206.44 52.96 204.67 51.03 203.81 50.71 203.76 49.86 204.51 49.37 204.08 48.73 204.29 47.98 204.78 47.71 204.88 46.37 205.31 46.11 204.29 45.52 203.38 43.64 202.63 43.59 201.83 43 184.31 46.64 184.15 44.61 181.1 47.34"/>
    <polygon class="st1" points="207.4 59.77 207.29 58.48 205.9 58.21 204.83 57.68 204.13 56.77 204.03 55.48 206.44 52.96 204.67 51.03 203.81 50.71 203.76 49.86 204.51 49.37 204.08 48.73 204.29 47.98 204.78 47.71 204.88 46.37 205.31 46.11 209.11 47.23 209.22 49.27 208.47 50.34 209.49 50.55 209.76 55.37 208.1 57.89 208.04 59.18 207.4 59.77"/>
    <polygon class="st1" points="206.97 64.8 205.15 65.61 204.35 64.53 202.58 64.21 202.04 62.77 202.53 62.34 201.94 61.85 202.2 60.19 201.72 59.55 202.2 58.32 201.77 58.21 200.81 59.66 200.86 61.59 201.29 63.52 202.1 64.59 202.47 65.77 201.13 65.5 199.15 65.02 197.92 64.27 198.03 63.62 196.37 60.68 195.56 60.14 195.13 59.87 193.36 58.64 192.13 59.18 190.85 59.5 190.37 59.5 189.72 59.98 189.29 60.36 188.7 61.11 188.06 61.8 187.53 58.8 202.58 55.96 204.56 62.87 207.18 62.61 207.35 64.11 206.97 64.8"/>
    <polygon class="st1" points="205.95 73.43 193.36 76.16 173.49 78.57 174.83 77.55 175.53 77.28 175.42 76.48 178.58 73.32 179.6 74.34 180.99 74.66 181.63 74.01 182.28 74.44 183.46 74.18 183.88 73.1 184.96 72.89 185.87 72.68 186.45 71.77 186.4 70.16 188.01 65.6 188.54 65.98 188.92 66.3 189.94 66.19 190.04 64.53 190.9 64.27 192.45 61.85 192.45 60.03 193.31 60.14 195.24 61.05 195.29 60.09 196.37 60.68 198.03 63.62 197.92 64.27 199.15 65.02 201.56 65.71 202.04 66.35 202.95 66.46 203.12 68.28 203.49 68.71 202.53 69.14 202.69 69.68 203.86 70.91 203.76 71.55 203.38 71.6 203.54 72.19 204.35 72.09 205.15 71.66 205.95 73.43"/>
    <path class="st1" d="M197.12,90.57l-5.63-4.02-4.93.27-1.02-1.29-6.16.32-3.91,1.98-5.2.32.05-1.23,1.13-.16.21-1.12,4.13-2.41.37-1.12,1.82-.54.59-.86,1.45-.11.91-1.34.06-1.61,11.78-1.39,13.18-2.84.7,1.18,1.66,2.47-.48,1.45-.7.91-.54.86-1.71.32-.05,1.98,1.77.21-.91,1.72s-4.71-.48-5.79,5.62l-2.79.43Z"/>
    <polygon class="st1" points="188.33 102.51 187.42 102.51 186.88 101.71 186.94 100.85 186.24 100.32 185.39 100.32 185.28 99.14 184.1 97.05 183.3 97 181.58 95.01 179.87 93.57 179.39 93.41 177.46 90.62 176.12 90.51 175.1 89.82 174.94 88.75 175.69 87.78 179.39 85.85 185.54 85.53 186.56 86.82 191.49 86.55 197.12 90.57 195.67 92.39 195.4 93.35 195.13 95.23 194.38 95.98 192.99 97.53 190.37 99.83 190.1 99.83 189.99 100.64 188.33 102.51"/>
    <polygon class="st1" points="186.78 110.28 184.05 110.23 184.05 111.08 184.47 111.14 184.42 113.01 183.51 112.59 183.46 111.99 171.03 112.48 169.8 110.98 169.53 110.01 169.1 109.64 168.94 107.17 168.83 105.25 169.37 104.76 169.31 103.58 168.51 102.35 167.07 97.58 165.99 93.94 164.92 91.16 164.82 89.12 175.47 87.83 174.94 88.75 175.1 89.82 176.12 90.51 177.46 90.62 179.39 93.41 179.87 93.57 181.58 95.01 183.3 97 184.1 97.05 185.28 99.14 185.39 100.32 186.24 100.32 186.94 100.85 186.88 101.71 187.42 102.51 188.33 102.51 188.22 103.32 187.85 104.12 187.26 106.26 186.78 110.28"/>
    <polygon class="st1" points="182.22 53.87 181.74 55.37 181.85 60.35 180.08 62.12 178.9 62.34 178.31 63.51 178.37 65.28 177.78 65.39 177.78 64.8 177.08 64.85 176.87 67.1 176.38 67.69 176.28 68.18 175.37 68.18 175.37 70.27 176.49 70.8 177.13 72.35 178.58 73.32 179.6 74.34 180.99 74.66 181.63 74.01 182.28 74.44 183.46 74.18 183.88 73.1 185.87 72.68 186.45 71.77 186.4 70.16 188.01 65.6 188.92 66.3 189.94 66.19 190.04 64.53 190.9 64.27 192.45 61.85 192.45 60.03 193.31 60.14 195.24 61.05 195.29 60.09 193.36 58.64 190.37 59.5 188.06 61.8 187.53 58.8 183.46 59.39 182.22 53.87"/>
    <polygon class="st1" points="180.99 77.66 154.96 80.66 152.92 80.66 152.97 81.94 146.28 82.05 146.17 84.09 145.37 86.01 145.15 87.41 144.78 87.94 143.81 88.1 143.92 88.75 144.24 88.96 143.92 90.41 153.19 89.98 164.82 89.12 170.33 88.32 170.33 86.92 171.46 86.76 171.67 85.64 175.8 83.23 176.17 82.1 177.99 81.57 178.58 80.71 180.03 80.6 180.94 79.26 180.99 77.66"/>
    <polygon class="st1" points="181.14 47.36 180.22 47.6 176.57 50.5 176.12 50.9 174.96 50.98 173.95 51.54 172.83 51.54 172.03 50.98 170.42 50.94 169.45 50.13 168.61 50.54 166.68 50.66 163.75 50.9 165.52 65.68 166.68 65.76 166.88 65.44 167.49 65.56 168.41 67.05 170.06 67.09 170.38 67.77 170.98 67.37 171.34 67.09 171.95 67.17 172.47 67.69 173.63 66.53 173.95 66.69 175.35 68.01 176.26 68.01 176.41 67.37 176.85 66.94 177.06 64.69 177.76 64.64 177.76 65.23 178.35 65.12 178.29 63.35 178.88 62.17 180.06 61.96 181.83 60.19 181.72 55.21 182.23 53.91 181.14 47.36"/>
    <polygon class="st1" points="206.97 64.8 205.43 65.52 205.19 67.01 204.87 69.58 205.31 70.47 205.83 69.86 206.31 68.5 206.19 66.77 207 65.81 206.97 64.8"/>
    <polygon class="st1" points="146.73 82.04 147.26 81.35 147.78 81.39 147.78 80.31 148.14 80.07 148.06 79.75 147.86 79.14 147.82 78.58 149.07 78.18 150.71 78.9 151.03 78.06 150.79 77.82 150.75 76.69 152.08 76.53 152.12 75.61 152.24 74.48 153.32 73.68 155.45 73.44 155.85 74 156.42 74.04 157.1 73.12 157.78 72.92 158.22 73.56 158.87 73.64 158.91 72.68 159.71 72.11 160.03 72.43 161.44 72.52 161.48 71.23 163.17 69.66 163.29 68.18 164.61 68.14 165.78 67.21 165.34 66.85 165.09 66.21 165.54 65.85 166.7 65.93 166.9 65.6 167.51 65.73 168.43 67.21 170.08 67.25 170.4 67.93 171.36 67.25 171.97 67.33 172.49 67.85 173.65 66.69 173.97 66.85 175.37 68.18 175.37 70.27 176.49 70.8 177.13 72.35 178.58 73.32 175.42 76.48 175.46 77.42 174.83 77.55 173.69 78.42 154.96 80.66 152.92 80.66 152.97 81.94 146.73 82.04"/>
    <polygon class="st0" points="196.05 60.91 193.3 59.04 189.65 61.96 178.96 71.93 179.2 73.31 178.15 74.28 182.93 75.98 193.06 73.47 196.05 60.91"/>
  </g>
</svg>