<?xml version="1.0" encoding="UTF-8"?>
<svg id="Layer_1" xmlns="http://www.w3.org/2000/svg" version="1.1" viewBox="0 0 230 146.77">
  <!-- Generator: Adobe Illustrator 29.6.0, SVG Export Plug-In . SVG Version: 2.1.1 Build 207)  -->
  <defs>
    <style>
      .st0, .st1 {
        fill: #815a82;
      }

      .st2 {
        fill: #cdba9e;
      }

      .st3 {
        fill: #9b8579;
      }

      .st4 {
        fill: #551c57;
      }

      .st4, .st5, .st1, .st6, .st7 {
        stroke-width: .49px;
      }

      .st4, .st5, .st1, .st7 {
        stroke: #fff;
      }

      .st5 {
        fill: #d8a7cd;
      }

      .st8 {
        fill: #fff;
      }

      .st6 {
        fill: none;
        stroke: #c8caca;
      }

      .st7 {
        fill: #90278e;
      }
    </style>
  </defs>
  <g>
    <path class="st7" d="M219.02,33.27l-.13-.06-.46-.21-.05-.75-.97-.27-2.94-10.02.7-.32.16-2.03,1.02-1.45-.05-.8-.37-.48-.11-1.45.37-.32.11-2.68,1.23-3.16s.37-2.84,1.87.05l.48-.05s2.73-4.02,4.34,1.39l1.82,5.31,1.5.27.21,1.66s5.52,1.18-.75,5.3l-1.61.75-.16,1.23-1.39-1.29-.38.32v2.2l-.96.75v.8s-1.07.16-.91.32-.59.43-.59.43l-.8-.32-.38.75-.53,2.95-.27,1.18h0Z"/>
    <polygon class="st7" points="218.75 34.24 217.47 35.57 215.43 36.11 212.7 36.75 212.06 36.91 212.17 28.13 213.45 26.95 213.5 25.5 213.08 25.02 213.24 21.86 214.47 21.97 217.41 31.99 218.38 32.25 218.43 33 219.02 33.27 218.75 34.24"/>
    <polygon class="st7" points="213.08 23.63 206.16 25.34 206.38 26.9 207.02 28.93 207.02 29.95 206.97 31.02 207.5 31.93 208.04 33.16 208.68 34.4 209.16 35.84 209.22 37.29 212.06 36.91 212.17 28.13 213.45 26.95 213.5 25.5 213.08 25.02 213.08 23.63"/>
    <polygon class="st7" points="216.67 43.61 216.07 40.24 217.79 39.76 219.51 42.11 219.24 42.7 218.54 42.81 216.67 43.61"/>
    <path class="st7" d="M218.49,34.61l1.02.97-.81,1.45.22.8,1.12.16,1.61,1.88,1.34-.16s1.23-.59-1.02-1.5c0,.16,1.5-.21,1.5-.21,0,0,2.73,1.87-2.03,3.75l-.43-.91-.91.54v.86l-.59-.1-1.72-2.36-8.41,1.77-.16-4.23,8.25-1.72,1.02-.96v-.03Z"/>
    <polygon class="st7" points="209.91 47.2 209.38 41.52 216.07 40.24 216.67 43.61 215.59 44.25 214.9 44.79 212.81 45.17 209.91 47.2"/>
    <path class="st7" d="M201.83,43.29l-17.52,3.64-.11-1.82,2.78-2.89-.11-.86s-3.64-1.71,1.23-3c-.16.16,3.11.05,3.11.05l.75.21.91-.37,1.45-.32,1.39-1.66,1.07-.21-.06-1.23-.27-1.07-.8-.32-.22-1.18,1.34-1.34,1.02-1.23.86-1.5,1.23-1.29,2.03-.48,1.82-.43,1.18-.21,1.23-.43.11,1.12.7,2.25v2.3l2.2,4.82.21,5.68.48,5.47-.11.86-.06.64.81-.54,2.14-.59,1.93-1.12.75-.64.8.37-.91,1.07-2.04,1.45-1.93.86-1.61.43h-.59l.05-2.25-3.8-1.13-1.02-.59-.54-.91-.37-.97-.75-.05-.8-.59h.04Z"/>
  </g>
  <g>
    <polygon class="st3" points="195.77 140.1 194.59 140.1 194.11 140.8 193.25 140.75 192.99 139.51 192.72 138.66 191.27 136.94 189.88 136.94 189.18 136.24 188.91 134.91 188.05 133.99 187.47 134.05 187.41 134.48 186.82 134.42 185.43 131.53 183.45 128.96 185 127.24 184.79 126.44 183.45 126.39 183.4 126.82 183.88 127.08 183.4 128.1 183.13 127.56 182.64 126.82 182.59 124.62 182.97 124.35 182.97 121.62 181.63 120.06 180.18 119.8 176.7 116.26 175.47 115.73 173.64 115.94 173.64 116.96 171.13 118.19 169.14 118.35 169.09 117.6 165.34 115.67 160.79 115.62 159.45 116.31 158.64 116.31 158.53 114.39 157.25 113.37 157.36 112.4 169.79 111.06 171.02 112.78 183.29 112.3 183.5 112.89 184.42 113.31 184.47 111.44 184.04 111.38 184.04 110.53 186.77 110.58 187.09 112.03 188.91 116.1 192.07 120.44 193.31 121.72 193.15 122.47 192.88 123.07 197.06 130.24 197.7 135.55 197.59 136.51 196.9 136.89 196.95 138.44 197.7 137.8 197.65 139.08 197 140.42 193.79 143.21 193.58 142.67 196.63 140.21 196.79 139.57 195.77 140.1"/>
    <polygon class="st3" points="87.41 78.94 109.19 80.65 123.62 80.69 123.7 83.5 124.62 90.17 124.58 99.81 121.73 97.89 121.14 98.15 117.49 98.26 116.8 99.01 115.35 98.96 113.32 97.89 113.1 99.17 111.82 99.07 111.01 98.05 109.89 98.1 109.51 98.37 108.65 98.42 107.8 96.81 107.1 96.76 106.3 97.3 103.19 96.17 103.14 95.26 100.78 95.21 99.6 93.97 100.19 82.83 87.04 82.03 87.41 78.94"/>
    <polygon class="st3" points="139.84 102.6 126.76 102.55 126.55 100.03 125.1 100.19 124.58 99.81 124.62 90.17 123.62 83.7 123.66 83.02 143.75 82.9 144.35 83.58 144.15 84.26 143.15 84.95 143.23 85.59 145.76 85.47 145.36 86.31 145.14 87.71 144.77 88.24 143.8 88.4 143.91 89.04 144.23 89.26 143.91 90.7 143.64 90.87 143.64 91.78 142.3 92.96 142.09 94.56 140.91 95.63 140 97.51 140.05 100.34 139.84 102.6"/>
    <polygon class="st3" points="123.62 80.69 108.82 80.74 87.3 79.72 88.26 63.22 116.55 59.92 124.92 58.78 125.99 64.77 125.99 65.58 125.46 66.01 125.46 67.08 123.55 69.22 123.62 80.69"/>
    <path class="st3" d="M136.67,44.04l-.11-1.88-2.89-2.41-.59-.91h-.8l-.16-.7h-1.12l-.75-.86-.16-2.84.32-.8.05-.8-.7-.75.32-.64,1.93-2.2.21-3.05s2.36.05,2.2,0,2.84-1.61,2.84-1.61l.8.38-.96,1.39.48.32,1.02-.21,1.07.59.65.8,1.12.21,2.36.43,4.56,1.07,1.07,1.02.43,2.36.7,1.02-1.39,2.36.16.91.54-.16,3.05-4.39.21.8-1.71,4.02v1.82l-.43,1.07.27,1.5-.59,1.07-.27,1.18.7,4.45-11.79.37-1.18-.59-.97-1.07-.11-1.34.8-.43-.32-.64-.86-.86h0Z"/>
    <polygon class="st3" points="56.1 47.9 58.78 31.18 85.99 34.46 86.07 52.29 56.1 47.9"/>
    <polygon class="st3" points="88.64 57.92 88.99 52.85 84.98 52.49 84.98 45.7 107.9 47.09 109.35 48.27 110.21 48.27 110.53 47.9 112.73 47.9 115.83 49.93 117.76 55.77 118.68 60.6 119.1 62.26 120.44 63.81 88.26 63.22 88.64 57.92"/>
    <polygon class="st3" points="115.89 44.15 136.67 44.04 137.53 44.9 137.85 45.54 137.05 45.97 137.16 47.31 138.12 48.38 139.3 48.97 139.36 49.93 141.6 51.81 141.02 54.22 139.62 55.29 138.66 55.29 138.12 55.77 138.07 56.63 138.71 57.27 138.82 57.97 138.28 58.51 138.23 59.68 137.05 60 137.16 61.08 136.57 61.4 135.93 60.17 118.68 60.6 117.71 56.15 115.83 49.93 115.24 48.38 115.73 47.15 116 46.02 115.3 45.49 115.24 44.15 115.89 44.15"/>
    <polygon class="st3" points="113.05 14.04 113.64 15.38 113.37 15.81 113.32 19.29 114.39 21.16 114.39 24.54 114.82 26.95 115.35 28.72 115.46 31.77 114.44 32.68 115.89 34.45 115.89 44.15 136.67 44.04 136.57 42.16 133.68 39.75 133.25 38.84 132.28 38.84 132.12 38.15 131 38.15 130.25 37.29 130.09 34.45 130.41 33.65 130.46 32.84 129.77 32.09 129.87 31.66 132.01 29.25 132.23 26.2 135.5 23.41 136.25 22.02 141.98 18.91 142.2 18.43 140.8 18.54 140 18.11 137.27 18.06 137.16 17.52 135.44 18.54 133.89 18.54 133.78 17.89 132.82 17.89 132.55 16.93 131.69 17.41 129.28 15.86 127.84 15.75 127.14 16.23 126.07 16.34 125.75 15.91 124.41 15.97 123.17 15.43 122.16 11.89 120.76 11.79 120.82 13.82 113.05 14.04"/>
    <polygon class="st3" points="88.08 12.75 86.58 29.63 115.46 30.91 115.35 28.72 114.82 26.95 114.39 24.54 114.39 21.16 113.32 19.29 113.37 15.81 113.64 15.38 113.05 14.04 88.08 12.75"/>
    <polygon class="st3" points="84.98 45.7 86.58 29.63 115.46 30.91 115.46 31.77 114.44 32.68 115.89 34.45 115.89 44.15 115.24 44.15 115.3 45.49 116 46.02 115.24 48.38 115.67 49.56 112.73 47.9 110.32 47.95 110.21 48.27 109.35 48.27 107.9 47.09 84.98 45.7"/>
    <polygon class="st3" points="64.78 10.02 44.09 6.22 43.35 9.75 43.02 11.09 43.77 13.55 43.61 15.21 45.01 16.39 46.29 19.56 47.79 20.79 45.86 25.24 46.4 26.3 47.1 26.68 48.38 25.77 49.19 30.16 50.63 31.5 50.69 33.38 51.44 33.38 55.13 33.38 56.1 33.81 56.58 32.9 57.44 33 58.19 34.23 58.78 31.18 85.99 34.82 88.08 12.75 64.78 10.02"/>
    <polygon class="st3" points="31.99 42.92 35.09 31.34 34.08 30.97 34.24 29.63 36.11 27.91 36.33 26.9 38.53 24.43 38.63 23.47 37.51 22.66 37.67 18 40.45 5.36 44.09 6.22 43.02 11.09 43.77 13.55 43.61 15.21 45.01 16.39 46.29 19.56 47.79 20.79 45.86 25.24 46.4 26.3 47.1 26.68 48.38 25.77 49.19 30.16 50.63 31.5 50.69 33.38 55.13 33.38 56.1 33.81 56.58 32.9 57.44 33 58.19 34.23 56.1 47.9 31.99 42.92"/>
    <polygon class="st3" points="11.84 13.55 11.09 12.81 11.47 12.11 12.22 11.73 12.49 11.14 11.9 10.88 11.84 9.7 12.91 9.7 12.11 8.84 12 4.39 11.41 3.75 12.22 1.29 12.7 1.34 14.2 3 18.22 4.5 19.18 4.77 20.15 6.22 20.25 2.84 20.52 1.93 19.67 .8 19.82 .21 20.25 0 40.45 5.36 37.67 17.79 37.51 21.54 30.97 19.88 23.63 20.04 21.33 19.61 18.43 18.43 16.02 18.8 15.11 17.63 15.22 15.38 14.47 14.52 13.5 14.47 13.13 13.72 11.84 13.55"/>
    <polygon class="st3" points="31.99 42.92 19.99 40.29 3.91 35.63 3.22 34.61 3.7 30.97 6.49 26.73 11.47 14.25 13.29 14.04 13.5 14.47 14.47 14.52 15.22 15.38 15.11 17.63 16.02 18.8 18.43 18.43 21.33 19.61 23.63 20.04 30.97 19.88 37.51 21.54 37.51 22.66 38.63 23.47 38.53 24.43 36.33 26.9 36.11 27.91 34.24 29.63 34.08 30.97 35.09 31.34 31.99 42.92"/>
    <polygon class="st3" points="155.76 52.08 156.77 50.23 157.61 48.86 157.57 45.61 155.68 42.39 155.96 38.78 156.41 35.76 156.97 35.56 156.85 34.44 157.93 33.55 158.17 32.67 158.74 32.47 158.94 33.23 158.45 34.2 158.37 35 159.3 34.68 159.38 32.07 159.86 31.79 160.91 31.75 161.07 31.1 160.26 31.1 160.18 30.14 161.63 29.05 162.47 29.94 163.07 29.58 165.57 30.7 166.69 30.82 167.66 32.23 167.01 32.71 167.05 33.19 167.82 33.87 167.74 36.65 167.01 37.57 166.69 38.66 166.21 38.7 166.01 40.26 167.14 40.54 168.06 39.22 168.46 38.34 169.87 37.53 171.31 39.66 172.2 42.84 172.28 45.81 171.35 45.77 170.51 47.66 170.35 48.98 169.46 50.59 168.62 50.99 155.76 52.08"/>
    <polygon class="st3" points="150.55 33.97 152.31 29.94 152.87 29.94 153.51 30.1 154.4 29.53 154.88 29.78 155.64 28.73 157.77 28.41 158.21 27.89 160.95 28.29 163.68 27.73 166.05 28.01 166.29 27.53 165.73 26.76 164.16 27.25 163.52 26.76 163.28 24.67 162.55 24.91 162.23 25.12 160.71 25.68 159.74 25.35 159.74 23.95 158.98 24.07 157.61 24.67 155.28 24.71 153.71 26.04 150.86 25.96 149.29 24.27 147.97 24.03 146.64 24.71 146.52 23.99 147.08 23.27 147.12 22.78 148.89 21.5 149.21 21.18 149.01 20.73 147.36 21.06 144.99 23.11 144.83 23.83 142.95 24.99 141.78 25.2 141.14 25.88 139.53 26.36 139.45 26.92 139.67 27.06 140.32 27.86 148.36 29.57 149.43 30.59 149.86 32.95 150.55 33.97"/>
  </g>
  <g>
    <polygon class="st4" points="181.09 47.63 182.38 54.59 183.39 59.85 202.58 56.26 204.4 55.56 206.43 53.26 204.66 51.33 203.81 51.01 203.75 50.15 204.5 49.67 204.07 49.02 204.29 48.27 204.77 48.01 204.88 46.67 205.31 46.4 204.29 45.81 203.38 43.93 202.63 43.88 201.83 43.29 184.31 46.93 184.14 44.9 181.09 47.63"/>
    <polygon class="st4" points="207.4 60.06 207.29 58.77 205.9 58.51 204.83 57.97 204.13 57.06 204.02 55.77 206.43 53.26 204.66 51.33 203.81 51.01 203.75 50.15 204.5 49.67 204.07 49.02 204.29 48.27 204.77 48.01 204.88 46.67 205.31 46.4 209.11 47.52 209.22 49.56 208.47 50.63 209.49 50.85 209.75 55.67 208.09 58.18 208.04 59.47 207.4 60.06"/>
    <polygon class="st4" points="202.58 56.26 204.56 63.17 207.18 62.9 206.91 60.97 205.74 60.17 205.15 58.88 204.13 57.97 203.91 56.63 203.86 55.77 202.58 56.26"/>
    <polygon class="st4" points="206.97 65.1 205.15 65.9 204.34 64.83 202.57 64.51 202.04 63.06 202.52 62.63 201.93 62.15 202.2 60.49 201.72 59.85 202.2 58.61 201.77 58.51 200.81 59.95 200.86 61.88 201.29 63.81 202.09 64.88 202.47 66.06 201.13 65.79 199.15 65.31 197.91 64.56 198.02 63.92 196.36 60.97 195.55 60.44 195.13 60.17 193.36 58.94 192.13 59.47 190.84 59.79 190.36 59.79 189.72 60.27 189.29 60.65 188.7 61.4 188.05 62.1 187.52 59.1 202.58 56.26 204.56 63.17 207.18 62.9 207.34 64.4 206.97 65.1"/>
    <path class="st4" d="M197.11,90.87l-5.63-4.02-4.93.27-1.02-1.29-6.16.32-3.91,1.98-5.2.32.05-1.23,1.13-.16.21-1.12,4.13-2.41.37-1.12,1.82-.54.59-.86,1.45-.11.91-1.34.06-1.61,11.79-1.39,13.18-2.84.7,1.18,1.66,2.47-.48,1.45-.7.91-.54.86-1.71.32-.05,1.98,1.77.21-.91,1.72s-4.71-.48-5.79,5.62l-2.79.43h0Z"/>
    <polygon class="st4" points="188.32 102.81 187.41 102.81 186.88 102.01 186.93 101.15 186.24 100.62 185.38 100.62 185.27 99.44 184.09 97.35 183.29 97.29 181.57 95.31 179.86 93.87 179.38 93.71 177.45 90.92 176.11 90.81 175.09 90.12 174.93 89.04 175.68 88.08 179.38 86.15 185.54 85.83 186.56 87.12 191.48 86.85 197.11 90.87 195.66 92.69 195.4 93.65 195.13 95.53 194.38 96.28 192.99 97.83 190.36 100.13 190.09 100.13 189.99 100.94 188.32 102.81"/>
    <polygon class="st4" points="158.64 116.31 156.82 116.91 156.5 116.64 157.03 116.26 156.39 114.6 155.64 114.44 155.32 115.24 155.27 116.05 154.03 116.26 153.18 108.23 153.39 90.22 164.81 89.42 164.8 91.19 168.5 102.65 169.31 103.88 169.36 105.06 168.82 105.55 169.09 109.94 169.52 110.31 169.63 111.07 157.36 112.4 157.25 113.37 158.53 114.39 158.64 116.31"/>
    <polygon class="st4" points="180.98 77.95 154.95 80.95 152.91 80.95 152.96 82.24 146.27 82.35 146.16 84.38 145.36 86.31 145.14 87.71 144.77 88.24 143.8 88.4 143.91 89.04 144.23 89.26 143.91 90.7 153.18 90.28 164.81 89.42 170.32 88.62 170.32 87.22 171.45 87.06 171.66 85.94 175.79 83.53 176.16 82.4 177.98 81.87 178.57 81.01 180.02 80.9 180.93 79.56 180.98 77.95"/>
    <polygon class="st4" points="154.03 116.26 151.14 116.53 149.32 116.85 148.68 117.65 148.09 116.85 147.07 115.4 147.12 113.47 138.6 113.64 138.39 111.28 140.27 108.28 140.69 107.58 140.85 106.51 141.07 106.13 140.53 105.33 140.1 103.99 139.94 102.81 139.94 101.9 140.05 100.08 140 97.51 140.91 95.63 142.09 94.56 142.3 92.96 143.64 91.78 143.64 90.87 143.91 90.7 153.39 90.22 153.18 108.23 154.03 116.26"/>
    <polygon class="st4" points="128.26 121.24 128.26 119.96 128.53 116.1 129.18 115.46 129.07 112.14 127.84 110.85 127.89 109.67 126.76 108.06 126.76 102.55 139.84 102.6 140.1 103.99 140.53 105.33 141.07 106.13 140.8 107.21 138.39 111.28 138.6 113.64 147.12 113.47 147.07 115.4 148.68 117.65 147.5 118.78 147.71 119.42 148.62 119.37 148.73 118.67 149.27 118.3 149.75 118.89 149.64 119.74 148.62 120.49 148.41 121.03 148.36 121.67 150.18 122.05 151.09 122.47 151.68 123.23 150.98 123.76 150.28 123.65 149.21 123.01 148.36 122.85 147.66 122.58 147.5 121.62 146.75 122.1 146.59 123.07 146.48 123.82 145.14 124.35 145.46 123.6 145.51 123.01 144.34 123.44 143.75 124.14 143.21 124.35 142.19 124.3 141.12 123.82 140.64 123.39 140.59 122.85 140.91 122.53 140.85 122.1 139.41 121.99 139.03 120.87 136.35 120.76 136.57 121.35 138.5 121.83 138.18 122.47 136.46 121.94 134.91 121.99 133.19 121.62 131.64 120.81 130.08 120.92 128.26 121.24"/>
    <polygon class="st4" points="152.83 52.96 153.79 53.28 155.76 52.08 163.76 51.35 165.53 66.14 165.12 66.66 165.33 67.15 165.77 67.51 164.6 68.43 163.28 68.47 163.16 69.96 161.47 71.53 161.43 72.81 160.02 72.73 159.7 72.41 158.9 72.97 158.86 73.94 158.21 73.86 157.77 73.21 157.09 73.41 156.41 74.34 155.84 74.3 155.44 73.74 153.31 73.98 152.23 74.78 152.31 72.61 153.95 70.08 154.2 68.11 153.51 67.43 152.83 53.12 152.83 52.96"/>
    <polygon class="st4" points="151.09 48.59 151.14 50.15 152.05 51.27 152.83 52.96 153.51 67.43 154.2 68.11 153.95 70.08 152.31 72.61 152.05 76.67 150.74 76.99 150.78 78.12 151.02 78.36 150.7 79.2 149.05 78.48 147.81 78.88 147.77 79.78 146.96 79.72 146.32 78.38 146.37 77.58 145.41 75.38 144.12 75.38 141.93 72.65 143.05 70.13 142.68 69.6 140.32 69.22 140.37 67.83 137.11 64.88 136.62 63.54 136.57 61.4 137.16 61.08 137.05 60 138.23 59.68 138.23 58.34 138.82 57.97 138.66 57.11 138.07 56.63 138.12 55.77 138.66 55.29 139.62 55.29 141.02 54.22 141.6 51.81 139.36 49.77 139.3 48.97 151.09 48.59"/>
  </g>
  <g>
    <polygon class="st5" points="146.72 82.33 147.24 81.65 147.77 81.69 147.77 80.61 148.13 80.37 148.05 80.04 147.85 79.44 147.81 78.88 149.05 78.48 150.7 79.2 151.02 78.36 150.78 78.12 150.74 76.99 152.07 76.83 152.11 75.9 152.23 74.78 153.31 73.98 155.44 73.74 155.84 74.3 156.41 74.34 157.09 73.41 157.77 73.21 158.21 73.86 158.86 73.94 158.9 72.97 159.7 72.41 160.02 72.73 161.43 72.81 161.47 71.53 163.16 69.96 163.28 68.47 164.6 68.43 165.77 67.51 165.33 67.15 165.08 66.5 165.53 66.14 166.69 66.22 166.89 65.9 167.5 66.02 168.42 67.51 170.07 67.55 170.39 68.23 171.35 67.55 171.96 67.63 172.48 68.15 173.64 66.98 173.97 67.15 175.36 68.47 175.36 70.56 176.48 71.1 177.13 72.65 178.57 73.61 175.41 76.78 175.45 77.71 174.82 77.85 173.68 78.72 154.95 80.95 152.91 80.95 152.96 82.24 146.72 82.33"/>
    <polygon class="st5" points="181.16 47.82 180.23 48.06 176.58 50.95 176.13 51.35 174.97 51.43 173.97 52 172.84 52 172.04 51.43 170.43 51.39 169.46 50.59 168.62 50.99 166.69 51.11 163.76 51.35 165.53 66.14 166.69 66.22 166.89 65.9 167.5 66.02 168.42 67.51 170.07 67.55 170.39 68.23 170.99 67.83 171.35 67.55 171.96 67.63 172.48 68.15 173.64 66.98 173.97 67.15 175.36 68.47 176.27 68.47 176.42 67.83 176.86 67.4 177.07 65.15 177.77 65.1 177.77 65.68 178.36 65.58 178.31 63.81 178.89 62.63 180.07 62.42 181.84 60.65 181.73 55.67 182.24 54.37 181.16 47.82"/>
  </g>
  <g>
    <polygon class="st1" points="205.95 73.72 193.36 76.45 173.48 78.86 174.82 77.85 175.52 77.58 175.41 76.78 178.57 73.61 179.59 74.63 180.98 74.95 181.63 74.31 182.27 74.74 183.45 74.47 183.88 73.4 184.95 73.19 185.86 72.97 186.45 72.06 186.39 70.45 188 65.9 188.54 66.28 188.91 66.6 189.93 66.49 190.04 64.83 190.9 64.56 192.45 62.15 192.45 60.33 193.31 60.44 195.24 61.35 195.29 60.38 196.36 60.97 198.02 63.92 197.91 64.56 199.15 65.31 201.56 66.01 202.04 66.65 202.95 66.76 203.11 68.58 203.49 69.01 202.52 69.44 202.68 69.97 203.86 71.2 203.75 71.85 203.38 71.9 203.54 72.49 204.34 72.38 205.15 71.95 205.95 73.72"/>
    <polygon class="st1" points="186.77 110.58 184.04 110.53 184.04 111.38 184.47 111.44 184.42 113.31 183.5 112.89 183.45 112.3 171.02 112.78 169.79 111.28 169.52 110.31 169.09 109.94 168.93 107.48 168.82 105.55 169.36 105.06 169.31 103.88 168.5 102.65 167.06 97.88 165.98 94.24 164.91 91.46 164.81 89.42 175.47 88.13 174.93 89.04 175.09 90.12 176.11 90.81 177.45 90.92 179.38 93.71 179.86 93.87 181.57 95.31 183.29 97.29 184.09 97.35 185.27 99.44 185.38 100.62 186.24 100.62 186.93 101.15 186.88 102.01 187.41 102.81 188.32 102.81 188.22 103.62 187.84 104.42 187.25 106.56 186.77 110.58"/>
    <polygon class="st1" points="182.22 54.17 181.73 55.67 181.84 60.65 180.07 62.42 178.89 62.63 178.31 63.81 178.36 65.58 177.77 65.68 177.77 65.1 177.07 65.15 176.86 67.4 176.38 67.99 176.27 68.47 175.36 68.47 175.36 70.56 176.48 71.1 177.13 72.65 178.57 73.61 179.59 74.63 180.98 74.95 181.63 74.31 182.27 74.74 183.45 74.47 183.88 73.4 185.86 72.97 186.45 72.06 186.39 70.45 188 65.9 188.91 66.6 189.93 66.49 190.04 64.83 190.9 64.56 192.45 62.15 192.45 60.33 193.31 60.44 195.24 61.35 195.29 60.38 193.36 58.94 190.36 59.79 188.05 62.1 187.52 59.1 183.45 59.68 182.22 54.17"/>
    <polygon class="st1" points="206.97 65.1 205.43 65.82 205.19 67.31 204.87 69.88 205.31 70.76 205.83 70.16 206.31 68.79 206.19 67.07 206.99 66.1 206.97 65.1"/>
    <polygon class="st0" points="196.06 61.36 193.3 59.5 189.66 62.42 178.96 72.39 179.2 73.76 178.15 74.74 182.93 76.44 193.06 73.93 196.06 61.36"/>
  </g>
  <g>
    <polygon class="st2" points="132.22 26.04 139.56 21.16 142.48 20.19 145.4 14.68 141.19 13.06 133.08 14.35 124.97 18.24 125.3 20.51 128.87 20.51 129.84 22.13 127.89 25.29 128.87 27.32 132.22 26.04"/>
    <polygon class="st2" points="224.83 13.71 223.53 15.33 221.87 15.65 220.78 16.01 219.81 15.65 219.08 16.99 217.62 17.35 216.77 17.84 216.02 17.36 216.16 16.38 215.92 15.11 216.24 12.73 216.64 12 218.1 8.11 219 8.44 219.41 9.32 221.14 7.99 221.99 7.75 222.97 8.35 223.82 10.18 224.91 12.85 224.83 13.71"/>
  </g>
  <path class="st6" d="M19.88.25l20.23,5.35,4.04.66,20.68,3.8,22.94,2.96,25.33,1.06,7.77-.21-.06-2.04,1.39.11,1.02,3.54,1.23.54,1.34-.05.32.43,1.07-.11.7-.48,1.45.11,2.41,1.55.86-.48.27.97h.96l-.11,1.04,1.77-.4,1.71-1.02-.08.93,2.92-.34.8.43,1.18.38-5.73,3.11-.75,1.39-3.27,2.79h2.2l2.84-1.61.42.54-.97,1.34.88.21,1.02-.22.93-.11,1.61-.48.64-.68.65.06,2.41-1.42.16-.72,2.37-2.05,1.38.06-2.07,1.7-.61.85.57,1.04,1.01-.31,1.64-.13,1.57,1.69,2.85.08,1.57-1.33,2.33-.04,1.37-.6.76,1.29.97.32,2.57-1.01.24,2.09.64.48,1.57-.48.56.76-2.61.2-2.73.56-2.73-.4-.44.52-2.13.32-.77,1.04-.54-.63-.83.95-1.2-.16-3.15,6.39.16.91.54-.16,3.27-3.59-1.71,4.02v1.82l-.43,1.07-.17,1.27-.61,2.07.49,4.62v1.95l1.36.97.77,1.69.97.32,1.97-1.21,1.85-3.21-.04-3.26-1.89-3.21.72-6.63.56-.2-.12-1.12,1.08-.88.24-.89.76.56-.48.97-.08.8,1.31-.26-.31-2.67,1.53-.32.16-.65h-.8l-.08-.96,1.45-1.09.84.89.6-.36,2.49,1.12,1.12.12.97,1.41-.64.48.04.48.77.68-.08,2.77-1.53,2.05-.68-.07.48,1.64,1.13.28,1.33-2.21,1.2-.44,1.65,1.76.89,3.18-.35,2.72-.49.21-.84,1.89-.36.82-.97,1.7.73,1.34,2.19.36.75.12h1.13l1-.56,1.16-.08,5.02-3.54,2.99-2.92,2.84-2.68-.11-.86s-3.18-1.69,1.23-3l3.11.05.75.22,1.28-.25,1.08-.45,1.39-1.66,1.07-.21-.32-2.3-.43-.36-.59-1.14,2.36-2.57.86-1.5,1.23-1.28,5.87-1.28,7.31-1.99.16-1.77,1.23.11.7-.32.16-2.04,1.02-1.45-.05-.8-.37-.48.27-1.77.11-2.68,2-4.19,1.11,1.09.48-.05s3.03-3.1,3.64.79c.24.36,2.07,6.08,2.07,6.08l1.96.1.21,1.66s5.73.86-2.36,6.05l-.3.82-1.25-.87-.38.32-.44,1.77-.53,1.18v.8l-.91.32-1.39.11-1.3,4.27-.14,1.57-.27.38,1.02.97-.81,1.45.22.8,1.12.16,1.61,1.87s2.72-.02,1.38-1.36l.44-.52s2.73,1.87-2.03,3.75l-.35-1.29-1.09.49-.49,1.18-2.67,1.01-1.93,1.66-2.2-.08-2.84,2.28-.75.54.11,2.04-1.14,1.1,1.41.18.27,4.82-1.66,2.52-.5,1.23-2.77-1.44-.88-1.72.18,1.72.91,1.32,1.46,1.46.85,3.65-.35,1.7-.8.97.12,1.73-.48,1.37-.97-.28.28-3.97-.35-1.26-2.22-.14-.53-1.45.48-.43-.59-.48.27-1.66-.48-.64.48-1.23-.43-.11-1.35,1.52.49,3.65,1.22,1.82.83,1.26.16,1.82-.59.86,1.34,1.77-.48.7.16.59,1.61-.54,3.16,5.41-.48,1.45-1.23,1.77-1.71.32-.08,2.47h1.34l-.45,1.44s-3.81-1.08-6,5l-2.58,1.06-1.45,1.82-.54,2.84-5.04,4.6-1.77,2.68s-1.4,2.44-2.01,7.3l2.6,5.98,3.84,5.57.12,1.4,3.77,7.11.73,5.96-.48.76v1.92l-1.12,1.3h-1.18l-.86.28-.61-1.7-1.85-1.74h-1.39l-.7-.7-.27-1.34-.86-.91-1.23.43-1.39-2.89-1.98-2.57,1.56-1.71-.03-1.45-1.53.59-.05.43-.61-1.75.18-.72v-2.73l-1.34-1.55-1.45-.27-3.48-3.53-1.23-.54-1.82.21v1.02l-2.4.82-2.1.58-.05-.75-3.75-1.93-4.68-.45-1.22,1.09h-.8l-1.61-.05-.64-1.66-1.2-.48-.49,1.7-5.39,1.02-2.27,1.9.67.68.91-.06.11-.7,1.02.22-.11.85-1.02.75-.27,1.18,2.73.8-.11,1.29-2.62-.91-.86-1.23-.75.48-.27,1.71-1.02-.21.37-1.09-1.49.92-.59.7-1.55.16-1.61-1.45.32-.32-.06-.87-1.44.33-.37-1.12-2.68-.11.11,1.18-3.27-.32-1.55-.81-3.38.43-3.32,1.23-6.22,4.29-7.71,4.71-.2,1.13.47.74-1.56,2.66.12,1.7,1.46,3.65-1.09.61-1.02-.31-2.73-.27-.87-1.24-1.7.28-2.04-1.71-.43-1.71-.45-1.11-.56-2.91-1.13-.7-2.2-3.56-2.19-4.64-3.16-3.64-3.7-.43-.43-.54h-.96l-2.08.97-.49,1.7-1.58,1.46-3.28-2.19-2.91-2.27-.11-2.41-.39-2.25-1.95-1.82-.56.49-2.36-3.65-1.5-.32-1.23-1.93-.79-.67-6.97-.35-.44,1.68-4.01-.24-9.69-.8-15.35-10.02.12-1.09-11.13-.83-.16-3.86-2.63-3.86-1.5-.32-.05-1.5-1.55-.27-2.25-3.27h-1.12l-1.55-.96-1.39-.33-.64-.53,1.37-3.36-2.87-4.41-.11-1.02-1.23-1.66-.06-2.04.75-.37.43-1.55-.91-.32-.86-1.18-.11-2.79.43-1.18-1.45-1.39.05-2.2-1.93-3.75.8-2.65-.21-3.83-1.23-1.71.43-1.55,2.84-3.8.48-8.31,2.79-4.23,4.98-12.48v-2.14l1.02-.97-.59-.27.32-.94,1.22-.24-1.32-.85-.02-4.98-.85-.61.98-1.96,1.46,1.6,5.11,1.82,1.46,1.95.24-4.26.61-.73-1.27-1.46-.11-.06Z"/>
  <polygon class="st5" points="123.95 83 123.84 69.21 121.86 67.06 121.86 65.99 122.4 65.56 122.4 64.76 121.33 64.6 119.4 62.24 118.97 60.58 136.22 60.15 137.02 61.39 136.91 63.53 137.4 64.87 140.66 67.81 140.61 69.21 142.97 69.58 143.34 70.12 142.22 72.63 144.41 75.37 145.7 75.37 146.29 76.49 146.66 77.56 146.61 78.36 147.25 79.71 148.06 79.76 148.42 80.35 148.06 80.59 148.06 81.67 147.53 81.63 147.01 82.32 146.55 82.33 146.45 84.36 146.05 85.45 143.52 85.57 143.43 84.93 144.44 84.24 144.64 83.56 144.04 82.88 123.95 83"/>
  <g>
    <circle class="st5" cx="203.75" cy="37.29" r="2.95"/>
    <path class="st8" d="M203.81,37.15c0-.17.02-.43.02-.6h-.02c-.06.15-.14.3-.21.46l-.23.43h1.34v.52h-1.99v-.48l.86-1.49h.86v2.53h-.64v-1.38Z"/>
  </g>
  <g>
    <circle class="st4" cx="197.11" cy="38.53" r="2.95"/>
    <path class="st8" d="M196.27,39.22h.54v-1.31h-.48v-.42c.29-.06.47-.13.66-.25h.5v1.98h.46v.55h-1.69v-.55Z"/>
  </g>
  <g>
    <circle class="st1" cx="197.7" cy="60.33" r="2.95"/>
    <path class="st8" d="M196.87,61.02h.54v-1.31h-.48v-.42c.29-.06.47-.13.66-.25h.5v1.98h.46v.55h-1.69v-.55Z"/>
  </g>
  <g>
    <circle class="st7" cx="192.32" cy="59.85" r="2.95"/>
    <path class="st8" d="M191.3,60.78l.31-.43c.16.14.34.24.52.24.22,0,.37-.08.37-.24,0-.19-.1-.3-.63-.3v-.48c.42,0,.55-.11.55-.29,0-.15-.09-.23-.26-.23s-.29.07-.45.21l-.34-.42c.25-.21.51-.33.82-.33.56,0,.92.26.92.72,0,.24-.14.43-.41.55v.02c.29.09.49.29.49.61,0,.48-.46.74-.98.74-.41,0-.71-.14-.9-.36Z"/>
  </g>
  <g>
    <circle class="st7" cx="208.99" cy="60.33" r="2.95"/>
    <path class="st8" d="M208.15,61.02h.54v-1.31h-.48v-.42c.29-.06.47-.13.66-.25h.5v1.98h.46v.55h-1.69v-.55Z"/>
  </g>
  <g>
    <circle class="st7" cx="148.42" cy="69.76" r="2.95"/>
    <path class="st8" d="M147.58,70.45h.54v-1.31h-.48v-.42c.29-.06.47-.13.66-.25h.5v1.98h.46v.55h-1.69v-.55Z"/>
  </g>
  <g>
    <circle class="st7" cx="133.69" cy="116.26" r="2.95"/>
    <path class="st8" d="M132.74,117.11c.6-.55,1.06-.98,1.06-1.32,0-.23-.13-.34-.31-.34-.17,0-.3.12-.42.24l-.37-.37c.26-.28.5-.41.88-.41.51,0,.87.33.87.83,0,.41-.38.86-.73,1.21.13-.02.31-.03.42-.03h.42v.58h-1.84v-.39Z"/>
  </g>
  <g>
    <circle class="st1" cx="190.47" cy="40.24" r="2.95"/>
    <path class="st8" d="M189.46,41.17l.3-.43c.15.14.33.24.51.24.24,0,.38-.1.38-.33s-.14-.33-.34-.33c-.14,0-.2.02-.35.12l-.3-.19.06-1.3h1.5v.58h-.91l-.03.37c.09-.03.16-.04.24-.04.44,0,.82.25.82.78,0,.57-.44.9-.96.9-.42,0-.71-.15-.92-.36Z"/>
  </g>
</svg>