<?xml version="1.0" encoding="UTF-8"?>
<svg id="Layer_1" xmlns="http://www.w3.org/2000/svg" version="1.1" viewBox="0 0 230 146.77">
  <!-- Generator: Adobe Illustrator 29.6.0, SVG Export Plug-In . SVG Version: 2.1.1 Build 207)  -->
  <defs>
    <style>
      .st0 {
        fill: #bccb4b;
      }

      .st0, .st1, .st2, .st3, .st4, .st5 {
        stroke: #fff;
      }

      .st0, .st1, .st2, .st3, .st5, .st6 {
        stroke-width: .49px;
      }

      .st1 {
        fill: #595b43;
      }

      .st7 {
        fill: #cdba9e;
      }

      .st8, .st3, .st4 {
        fill: #6a8cc3;
      }

      .st2 {
        fill: #6f7b34;
      }

      .st9 {
        fill: #9b8579;
      }

      .st4 {
        stroke-width: .5px;
      }

      .st5 {
        fill: #bebe8b;
      }

      .st6 {
        fill: none;
        stroke: #c8caca;
      }
    </style>
  </defs>
  <polygon class="st7" points="112.53 98.22 114.03 100.7 120.47 103.14 126.79 102.52 130.27 98.22 120.47 94.66 113.8 96.64 112.53 98.22"/>
  <g>
    <polygon class="st9" points="195.78 140.07 194.6 140.07 194.12 140.76 193.26 140.71 193 139.48 192.73 138.62 191.28 136.91 189.89 136.91 189.19 136.21 188.92 134.87 188.07 133.96 187.48 134.01 187.43 134.44 186.84 134.39 185.44 131.5 183.46 128.92 185.02 127.21 184.8 126.41 183.46 126.35 183.41 126.78 183.89 127.05 183.41 128.07 183.14 127.53 182.66 126.78 182.6 124.59 182.98 124.32 182.98 121.59 181.64 120.03 180.19 119.77 176.71 116.23 175.48 115.7 173.66 115.91 173.66 116.93 171.14 118.16 169.16 118.32 169.11 117.57 165.36 115.64 160.81 115.59 159.46 116.28 158.66 116.28 158.55 114.36 157.27 113.34 157.38 112.37 169.8 111.03 171.03 112.75 183.3 112.27 183.52 112.86 184.43 113.29 184.48 111.41 184.05 111.36 184.05 110.5 186.78 110.55 187.1 112 188.92 116.07 192.08 120.41 193.32 121.69 193.16 122.44 192.89 123.03 197.07 130.21 197.71 135.51 197.6 136.48 196.9 136.85 196.96 138.41 197.71 137.76 197.65 139.05 197.01 140.39 193.8 143.17 193.58 142.64 196.64 140.17 196.8 139.53 195.78 140.07"/>
    <polygon class="st9" points="87.44 78.92 109.22 80.63 123.65 80.67 123.73 83.48 124.65 90.15 124.61 99.79 121.76 97.86 121.17 98.13 117.52 98.23 116.83 98.98 115.38 98.93 113.35 97.86 113.13 99.15 111.85 99.04 111.04 98.02 109.92 98.07 109.54 98.34 108.69 98.4 107.83 96.79 107.13 96.74 106.33 97.27 103.22 96.15 103.17 95.24 100.81 95.18 99.63 93.95 100.22 82.81 87.08 82.01 87.44 78.92"/>
    <polygon class="st9" points="123.65 80.67 108.85 80.72 87.34 79.7 88.3 63.2 116.58 59.9 124.95 58.76 126.02 64.76 126.02 65.56 125.49 65.99 125.49 67.06 123.58 69.2 123.65 80.67"/>
    <path class="st9" d="M136.7,44.03l-.11-1.87-2.89-2.41-.59-.91h-.8l-.16-.7h-1.12l-.75-.86-.16-2.84.32-.8.05-.8-.7-.75.32-.64,1.93-2.2.21-3.05s2.36.05,2.2,0,2.84-1.61,2.84-1.61l.8.38-.96,1.39.48.32,1.02-.21,1.07.59.65.8,1.12.21,2.35.43,4.55,1.07,1.07,1.02.43,2.36.7,1.02-1.39,2.36.16.91.54-.16,3.05-4.39.21.8-1.71,4.02v1.82l-.43,1.07.27,1.5-.59,1.07-.27,1.18.7,4.44-11.78.37-1.18-.59-.96-1.07-.11-1.34.8-.43-.32-.64-.86-.86h0Z"/>
    <polygon class="st9" points="56.14 47.88 58.82 31.17 86.03 34.45 86.11 52.27 56.14 47.88"/>
    <polygon class="st9" points="88.67 57.9 89.02 52.84 85.01 52.47 85.01 45.69 107.94 47.08 109.38 48.26 110.24 48.26 110.56 47.88 112.76 47.88 115.86 49.92 117.79 55.76 118.7 60.58 119.13 62.24 120.47 63.79 88.3 63.2 88.67 57.9"/>
    <polygon class="st9" points="115.92 44.14 136.7 44.03 137.56 44.88 137.88 45.53 137.08 45.96 137.18 47.29 138.15 48.37 139.33 48.95 139.38 49.92 141.63 51.79 141.04 54.2 139.65 55.28 138.68 55.28 138.15 55.76 138.09 56.62 138.74 57.26 138.84 57.95 138.31 58.49 138.25 59.67 137.08 59.99 137.18 61.06 136.59 61.38 135.95 60.15 118.7 60.58 117.74 56.13 115.86 49.92 115.27 48.37 115.76 47.14 116.02 46.01 115.33 45.47 115.27 44.14 115.92 44.14"/>
    <polygon class="st9" points="113.08 14.03 113.67 15.37 113.4 15.8 113.35 19.28 114.42 21.16 114.42 24.53 114.85 26.94 115.38 28.71 115.49 31.76 114.47 32.67 115.92 34.44 115.92 44.14 136.7 44.03 136.59 42.15 133.7 39.74 133.27 38.83 132.31 38.83 132.15 38.14 131.02 38.14 130.27 37.28 130.11 34.44 130.43 33.64 130.49 32.83 129.79 32.08 129.9 31.66 132.04 29.25 132.25 26.19 135.52 23.41 136.27 22.02 142 18.91 142.22 18.43 140.82 18.53 140.02 18.1 137.29 18.05 137.18 17.51 135.47 18.53 133.91 18.53 133.81 17.89 132.84 17.89 132.58 16.93 131.72 17.41 129.31 15.85 127.86 15.75 127.17 16.23 126.1 16.34 125.77 15.91 124.43 15.96 123.2 15.43 122.19 11.89 120.79 11.78 120.85 13.82 113.08 14.03"/>
    <polygon class="st9" points="88.12 12.75 86.62 29.62 115.49 30.91 115.38 28.71 114.85 26.94 114.42 24.53 114.42 21.16 113.35 19.28 113.4 15.8 113.67 15.37 113.08 14.03 88.12 12.75"/>
    <polygon class="st9" points="85.01 45.69 86.62 29.62 115.49 30.91 115.49 31.76 114.47 32.67 115.92 34.44 115.92 44.14 115.27 44.14 115.33 45.47 116.02 46.01 115.27 48.37 115.7 49.55 112.76 47.88 110.35 47.94 110.24 48.26 109.38 48.26 107.94 47.08 85.01 45.69"/>
    <polygon class="st9" points="64.82 10.02 44.14 6.21 43.4 9.75 43.07 11.09 43.82 13.55 43.66 15.21 45.05 16.39 46.34 19.55 47.84 20.78 45.91 25.23 46.45 26.3 47.14 26.67 48.43 25.76 49.23 30.16 50.68 31.49 50.73 33.37 51.48 33.37 55.18 33.37 56.14 33.8 56.62 32.89 57.48 32.99 58.23 34.22 58.82 31.17 86.03 34.82 88.12 12.75 64.82 10.02"/>
    <polygon class="st9" points="32.04 42.9 35.15 31.33 34.13 30.96 34.29 29.62 36.16 27.9 36.38 26.89 38.58 24.42 38.68 23.46 37.56 22.66 37.72 18 40.5 5.36 44.14 6.21 43.07 11.09 43.82 13.55 43.66 15.21 45.05 16.39 46.34 19.55 47.84 20.78 45.91 25.23 46.45 26.3 47.14 26.67 48.43 25.76 49.23 30.16 50.68 31.49 50.73 33.37 55.18 33.37 56.14 33.8 56.62 32.89 57.48 32.99 58.23 34.22 56.14 47.88 32.04 42.9"/>
    <polygon class="st9" points="11.9 13.55 11.15 12.8 11.53 12.11 12.28 11.73 12.54 11.14 11.95 10.87 11.9 9.7 12.97 9.7 12.17 8.84 12.06 4.39 11.47 3.75 12.28 1.29 12.76 1.34 14.26 3 18.27 4.5 19.24 4.77 20.2 6.21 20.31 2.84 20.58 1.93 19.72 .8 19.88 .21 20.31 0 40.5 5.36 37.72 17.78 37.56 21.53 31.02 19.87 23.68 20.03 21.38 19.61 18.49 18.43 16.08 18.8 15.17 17.62 15.27 15.37 14.52 14.52 13.56 14.46 13.18 13.71 11.9 13.55"/>
    <polygon class="st9" points="32.04 42.9 20.04 40.28 3.97 35.62 3.28 34.6 3.76 30.96 6.54 26.73 11.53 14.25 13.35 14.03 13.56 14.46 14.52 14.52 15.27 15.37 15.17 17.62 16.08 18.8 18.49 18.43 21.38 19.61 23.68 20.03 31.02 19.87 37.56 21.53 37.56 22.66 38.68 23.46 38.58 24.42 36.38 26.89 36.16 27.9 34.29 29.62 34.13 30.96 35.15 31.33 32.04 42.9"/>
  </g>
  <path class="st5" d="M218.49,34.6l1.02.96-.81,1.45.22.8,1.12.16,1.61,1.87,1.34-.16s1.23-.59-1.02-1.5c0,.16,1.5-.21,1.5-.21,0,0,2.73,1.87-2.03,3.75l-.43-.91-.91.54v.86l-.59-.1-1.71-2.36-8.41,1.77-.16-4.23,8.25-1.71,1.02-.96v-.02Z"/>
  <polygon class="st1" points="188.34 102.79 187.43 102.79 186.89 101.98 186.94 101.13 186.25 100.59 185.39 100.59 185.28 99.41 184.1 97.32 183.3 97.27 181.59 95.29 179.87 93.84 179.39 93.68 177.46 90.9 176.12 90.79 175.11 90.09 174.94 89.02 175.69 88.06 179.39 86.13 185.55 85.81 186.57 87.09 191.49 86.82 197.12 90.84 195.67 92.66 195.41 93.63 195.14 95.5 194.39 96.25 193 97.81 190.37 100.11 190.1 100.11 190 100.91 188.34 102.79"/>
  <g>
    <polygon class="st0" points="186.78 110.55 184.05 110.5 184.05 111.36 184.48 111.41 184.43 113.29 183.52 112.86 183.46 112.27 171.03 112.75 169.8 111.25 169.53 110.28 169.11 109.91 168.95 107.45 168.84 105.52 169.37 105.04 169.32 103.86 168.52 102.63 167.07 97.86 166 94.22 164.93 91.43 164.82 89.4 175.48 88.11 174.94 89.02 175.11 90.09 176.12 90.79 177.46 90.9 179.39 93.68 179.87 93.84 181.59 95.29 183.3 97.27 184.1 97.32 185.28 99.41 185.39 100.59 186.25 100.59 186.94 101.13 186.89 101.98 187.43 102.79 188.34 102.79 188.23 103.59 187.85 104.39 187.26 106.54 186.78 110.55"/>
    <polygon class="st0" points="181 77.93 154.97 80.93 152.93 80.93 152.98 82.22 146.29 82.32 146.18 84.36 145.38 86.29 145.16 87.68 144.79 88.22 143.82 88.38 143.93 89.02 144.25 89.24 143.93 90.68 153.2 90.25 164.82 89.4 170.34 88.59 170.34 87.2 171.46 87.04 171.68 85.91 175.8 83.5 176.18 82.38 178 81.84 178.59 80.99 180.03 80.88 180.94 79.54 181 77.93"/>
  </g>
  <g>
    <polygon class="st2" points="213.08 23.62 206.17 25.34 206.39 26.89 207.03 28.92 207.03 29.94 206.97 31.02 207.51 31.92 208.05 33.16 208.69 34.39 209.17 35.84 209.22 37.28 212.06 36.9 212.17 28.12 213.45 26.94 213.51 25.5 213.08 25.01 213.08 23.62"/>
    <polygon class="st2" points="207.4 60.05 207.29 58.76 205.9 58.49 204.83 57.96 204.13 57.05 204.03 55.76 206.44 53.24 204.67 51.31 203.81 50.99 203.76 50.14 204.51 49.65 204.08 49.01 204.3 48.26 204.78 47.99 204.88 46.65 205.31 46.39 209.12 47.51 209.22 49.55 208.47 50.62 209.49 50.83 209.76 55.65 208.1 58.17 208.05 59.46 207.4 60.05"/>
    <polygon class="st2" points="202.58 56.24 204.56 63.15 207.19 62.88 206.92 60.96 205.74 60.15 205.15 58.87 204.13 57.96 203.92 56.62 203.87 55.76 202.58 56.24"/>
    <polygon class="st2" points="206.97 65.08 205.15 65.88 204.35 64.81 202.58 64.49 202.05 63.04 202.53 62.62 201.94 62.13 202.21 60.47 201.72 59.83 202.21 58.6 201.78 58.49 200.81 59.94 200.87 61.87 201.3 63.79 202.1 64.87 202.47 66.04 201.14 65.78 199.15 65.29 197.92 64.54 198.03 63.9 196.37 60.96 195.56 60.42 195.14 60.15 193.37 58.92 192.14 59.46 190.85 59.78 190.37 59.78 189.73 60.26 189.3 60.63 188.71 61.38 188.07 62.08 187.53 59.08 202.58 56.24 204.56 63.15 207.19 62.88 207.35 64.38 206.97 65.08"/>
    <polygon class="st2" points="146.74 82.31 147.26 81.63 147.79 81.67 147.79 80.59 148.15 80.34 148.07 80.02 147.87 79.42 147.83 78.86 149.07 78.46 150.72 79.18 151.04 78.34 150.8 78.1 150.76 76.97 152.09 76.81 152.13 75.88 152.25 74.76 153.33 73.96 155.46 73.72 155.86 74.28 156.43 74.32 157.11 73.39 157.79 73.19 158.23 73.84 158.88 73.92 158.92 72.95 159.72 72.39 160.04 72.71 161.45 72.79 161.49 71.51 163.17 69.94 163.3 68.45 164.62 68.41 165.78 67.49 165.34 67.13 165.1 66.48 165.54 66.12 166.71 66.2 166.91 65.88 167.51 66 168.44 67.49 170.08 67.53 170.4 68.21 171.37 67.53 171.97 67.61 172.49 68.13 173.66 66.97 173.98 67.13 175.37 68.45 175.37 70.54 176.5 71.08 177.14 72.63 178.59 73.59 175.43 76.76 175.47 77.69 174.84 77.83 173.7 78.7 154.97 80.93 152.93 80.93 152.98 82.22 146.74 82.31"/>
    <polygon class="st2" points="181.17 47.8 180.25 48.05 176.59 50.94 176.15 51.34 174.98 51.42 173.98 51.98 172.85 51.98 172.05 51.42 170.44 51.38 169.48 50.58 168.64 50.98 166.71 51.1 163.78 51.34 165.54 66.12 166.71 66.2 166.91 65.88 167.51 66 168.44 67.49 170.08 67.53 170.4 68.21 171.01 67.81 171.37 67.53 171.97 67.61 172.49 68.13 173.66 66.97 173.98 67.13 175.37 68.45 176.28 68.45 176.43 67.81 176.87 67.38 177.09 65.13 177.78 65.08 177.78 65.67 178.37 65.56 178.32 63.79 178.91 62.62 180.09 62.4 181.85 60.63 181.75 55.65 182.25 54.35 181.17 47.8"/>
    <polygon class="st2" points="152.85 52.95 153.81 53.27 155.78 52.06 163.78 51.34 165.54 66.12 165.14 66.65 165.34 67.13 165.78 67.49 164.62 68.41 163.3 68.45 163.17 69.94 161.49 71.51 161.45 72.79 160.04 72.71 159.72 72.39 158.92 72.95 158.88 73.92 158.23 73.84 157.79 73.19 157.11 73.39 156.43 74.32 155.86 74.28 155.46 73.72 153.33 73.96 152.25 74.76 152.33 72.59 153.97 70.06 154.22 68.09 153.53 67.41 152.85 53.11 152.85 52.95"/>
  </g>
  <g>
    <path class="st3" d="M219.02,33.26l-.13-.06-.46-.21-.05-.75-.96-.27-2.94-10.02.7-.32.16-2.03,1.02-1.45-.05-.8-.37-.48-.11-1.45.37-.32.11-2.68,1.23-3.16s.37-2.84,1.87.05l.48-.05s2.73-4.02,4.34,1.39l1.82,5.3,1.5.27.21,1.66s5.52,1.18-.75,5.3l-1.61.75-.16,1.23-1.39-1.29-.38.32v2.2l-.96.75v.8s-1.07.16-.91.32-.59.43-.59.43l-.8-.32-.38.75-.53,2.95-.27,1.18h0Z"/>
    <polygon class="st3" points="218.76 34.23 217.47 35.57 215.44 36.1 212.7 36.74 212.06 36.9 212.17 28.12 213.45 26.94 213.51 25.5 213.08 25.01 213.24 21.85 214.47 21.96 217.42 31.98 218.38 32.24 218.44 32.99 219.02 33.26 218.76 34.23"/>
    <polygon class="st3" points="216.67 43.6 216.08 40.23 217.79 39.75 219.51 42.1 219.24 42.69 218.54 42.8 216.67 43.6"/>
    <polygon class="st3" points="209.92 47.19 209.38 41.51 216.08 40.23 216.67 43.6 215.6 44.24 214.9 44.78 212.81 45.15 209.92 47.19"/>
    <path class="st3" d="M201.83,43.28l-17.52,3.64-.11-1.82,2.78-2.89-.11-.86s-3.64-1.71,1.23-3c-.16.16,3.11.05,3.11.05l.75.21.91-.37,1.45-.32,1.39-1.66,1.07-.21-.06-1.23-.27-1.07-.8-.32-.22-1.18,1.34-1.34,1.02-1.23.86-1.5,1.23-1.29,2.03-.48,1.82-.43,1.18-.21,1.23-.43.11,1.12.7,2.25v2.3l2.2,4.82.21,5.68.48,5.46-.11.86-.06.64.81-.54,2.14-.59,1.93-1.12.75-.64.8.37-.91,1.07-2.04,1.45-1.93.86-1.61.43h-.59l.05-2.25-3.8-1.13-1.02-.59-.54-.91-.37-.96-.75-.05-.8-.59h.04Z"/>
    <polygon class="st3" points="181.1 47.62 182.39 54.58 183.41 59.83 202.58 56.24 204.4 55.55 206.44 53.24 204.67 51.31 203.81 50.99 203.76 50.14 204.51 49.65 204.08 49.01 204.3 48.26 204.78 47.99 204.88 46.65 205.31 46.39 204.3 45.8 203.39 43.92 202.64 43.87 201.83 43.28 184.32 46.92 184.16 44.89 181.1 47.62"/>
    <polygon class="st3" points="205.96 73.7 193.37 76.43 173.5 78.84 174.84 77.83 175.53 77.56 175.43 76.76 178.59 73.59 179.6 74.61 181 74.94 181.64 74.29 182.28 74.72 183.46 74.45 183.89 73.38 184.96 73.17 185.87 72.95 186.46 72.04 186.41 70.44 188.01 65.88 188.55 66.26 188.92 66.58 189.94 66.47 190.05 64.81 190.91 64.54 192.46 62.13 192.46 60.31 193.32 60.42 195.24 61.33 195.3 60.36 196.37 60.96 198.03 63.9 197.92 64.54 199.15 65.29 201.57 65.99 202.05 66.63 202.96 66.74 203.12 68.56 203.49 68.99 202.53 69.42 202.69 69.95 203.87 71.18 203.76 71.83 203.39 71.88 203.55 72.47 204.35 72.36 205.15 71.93 205.96 73.7"/>
    <path class="st3" d="M197.12,90.84l-5.63-4.02-4.93.27-1.02-1.29-6.16.32-3.91,1.98-5.2.32.05-1.23,1.13-.16.21-1.12,4.13-2.41.37-1.12,1.82-.54.59-.86,1.45-.11.91-1.34.06-1.61,11.78-1.39,13.18-2.84.7,1.18,1.66,2.47-.48,1.45-.7.91-.54.86-1.71.32-.05,1.98,1.77.21-.91,1.71s-4.71-.48-5.78,5.62l-2.79.43h0Z"/>
    <polygon class="st3" points="182.23 54.15 181.75 55.65 181.85 60.63 180.09 62.4 178.91 62.62 178.32 63.79 178.37 65.56 177.78 65.67 177.78 65.08 177.09 65.13 176.87 67.38 176.39 67.97 176.28 68.45 175.37 68.45 175.37 70.54 176.5 71.08 177.14 72.63 178.59 73.59 179.6 74.61 181 74.94 181.64 74.29 182.28 74.72 183.46 74.45 183.89 73.38 185.87 72.95 186.46 72.04 186.41 70.44 188.01 65.88 188.92 66.58 189.94 66.47 190.05 64.81 190.91 64.54 192.46 62.13 192.46 60.31 193.32 60.42 195.24 61.33 195.3 60.36 193.37 58.92 190.37 59.78 188.07 62.08 187.53 59.08 183.46 59.67 182.23 54.15"/>
    <polygon class="st3" points="158.66 116.28 156.84 116.87 156.52 116.61 157.05 116.23 156.41 114.57 155.66 114.41 155.34 115.21 155.29 116.02 154.05 116.23 153.2 108.2 153.41 90.2 164.82 89.4 164.82 91.16 168.52 102.63 169.32 103.86 169.37 105.04 168.84 105.52 169.11 109.91 169.53 110.28 169.64 111.04 157.38 112.37 157.27 113.34 158.55 114.36 158.66 116.28"/>
    <polygon class="st3" points="139.86 102.57 126.79 102.52 126.58 100 125.13 100.16 124.61 99.79 124.65 90.15 123.65 83.68 123.68 83 143.77 82.88 144.37 83.56 144.17 84.24 143.17 84.92 143.25 85.57 145.78 85.45 145.38 86.29 145.16 87.68 144.79 88.22 143.82 88.38 143.93 89.02 144.25 89.24 143.93 90.68 143.66 90.84 143.66 91.75 142.32 92.93 142.11 94.54 140.93 95.61 140.02 97.48 140.07 100.31 139.86 102.57"/>
    <polygon class="st3" points="206.97 65.08 205.44 65.8 205.19 67.29 204.87 69.86 205.31 70.74 205.84 70.14 206.32 68.77 206.2 67.05 207 66.08 206.97 65.08"/>
    <polygon class="st3" points="155.78 52.06 156.79 50.22 157.63 48.85 157.59 45.6 155.7 42.38 155.98 38.77 156.43 35.75 156.99 35.55 156.87 34.43 157.95 33.54 158.19 32.66 158.75 32.46 158.96 33.22 158.47 34.19 158.39 34.99 159.32 34.67 159.4 32.06 159.88 31.78 160.92 31.74 161.08 31.09 160.28 31.09 160.2 30.13 161.65 29.05 162.49 29.93 163.09 29.57 165.58 30.69 166.71 30.81 167.67 32.22 167.03 32.7 167.07 33.18 167.83 33.87 167.75 36.64 167.03 37.56 166.71 38.65 166.23 38.69 166.03 40.25 167.15 40.53 168.08 39.21 168.48 38.33 169.88 37.52 171.33 39.65 172.21 42.82 172.29 45.8 171.37 45.76 170.53 47.64 170.37 48.97 169.48 50.58 168.64 50.98 155.78 52.06"/>
    <polygon class="st3" points="150.57 33.96 152.33 29.93 152.89 29.93 153.53 30.09 154.42 29.53 154.9 29.77 155.66 28.72 157.79 28.4 158.23 27.88 160.96 28.28 163.7 27.72 166.07 28 166.31 27.52 165.75 26.76 164.18 27.24 163.53 26.76 163.3 24.67 162.57 24.91 162.25 25.11 160.72 25.67 159.76 25.35 159.76 23.94 159 24.06 157.63 24.67 155.3 24.71 153.73 26.03 150.88 25.95 149.31 24.26 147.99 24.02 146.66 24.71 146.54 23.98 147.1 23.26 147.15 22.78 148.91 21.49 149.23 21.17 149.03 20.73 147.39 21.05 145.02 23.1 144.86 23.82 142.97 24.99 141.8 25.19 141.16 25.87 139.55 26.35 139.47 26.92 139.7 27.05 140.34 27.85 148.38 29.57 149.45 30.58 149.88 32.94 150.57 33.96"/>
    <polygon class="st3" points="154.05 116.23 151.16 116.5 149.34 116.82 148.7 117.62 148.11 116.82 147.09 115.37 147.14 113.44 138.63 113.61 138.41 111.25 140.29 108.25 140.72 107.55 140.88 106.48 141.09 106.11 140.56 105.3 140.13 103.97 139.97 102.79 139.97 101.88 140.07 100.06 140.02 97.48 140.93 95.61 142.11 94.54 142.32 92.93 143.66 91.75 143.66 90.84 143.93 90.68 153.41 90.2 153.2 108.2 154.05 116.23"/>
    <polygon class="st3" points="128.29 121.21 128.29 119.93 128.56 116.07 129.2 115.43 129.09 112.11 127.86 110.82 127.92 109.64 126.79 108.04 126.79 102.52 139.86 102.57 140.13 103.97 140.56 105.3 141.09 106.11 140.82 107.18 138.41 111.25 138.63 113.61 147.14 113.44 147.09 115.37 148.7 117.62 147.52 118.75 147.73 119.39 148.64 119.34 148.75 118.64 149.29 118.26 149.77 118.86 149.66 119.71 148.64 120.46 148.43 121 148.38 121.64 150.2 122.02 151.11 122.44 151.7 123.19 151 123.73 150.3 123.62 149.23 122.98 148.38 122.82 147.68 122.55 147.52 121.59 146.77 122.07 146.61 123.03 146.5 123.78 145.16 124.32 145.48 123.57 145.54 122.98 144.36 123.41 143.77 124.1 143.23 124.32 142.22 124.26 141.15 123.78 140.66 123.35 140.61 122.82 140.93 122.5 140.88 122.07 139.43 121.96 139.06 120.84 136.38 120.73 136.59 121.32 138.52 121.8 138.2 122.44 136.48 121.91 134.93 121.96 133.22 121.59 131.66 120.78 130.11 120.89 128.29 121.21"/>
    <polygon class="st3" points="151.11 48.58 151.16 50.13 152.07 51.26 152.85 52.95 153.53 67.41 154.22 68.09 153.97 70.06 152.33 72.59 152.07 76.65 150.76 76.97 150.8 78.1 151.04 78.34 150.72 79.18 149.07 78.46 147.83 78.86 147.79 79.76 146.99 79.7 146.34 78.36 146.39 77.56 145.43 75.36 144.15 75.36 141.95 72.63 143.07 70.11 142.7 69.58 140.34 69.2 140.4 67.81 137.13 64.86 136.65 63.53 136.59 61.38 137.18 61.06 137.08 59.99 138.25 59.67 138.25 58.33 138.84 57.95 138.68 57.1 138.09 56.62 138.15 55.76 138.68 55.28 139.65 55.28 141.04 54.2 141.63 51.79 139.38 49.76 139.33 48.95 151.11 48.58"/>
    <polygon class="st8" points="196.07 61.35 193.31 59.48 189.67 62.4 178.97 72.37 179.21 73.75 178.16 74.72 182.94 76.42 193.07 73.91 196.07 61.35"/>
  </g>
  <g>
    <polygon class="st7" points="132.24 26.03 139.59 21.16 142.5 20.18 145.42 14.67 141.21 13.05 133.11 14.35 125 18.24 125.33 20.51 128.89 20.51 129.86 22.13 127.92 25.29 128.89 27.31 132.24 26.03"/>
    <polygon class="st7" points="224.83 13.7 223.53 15.32 221.87 15.65 220.78 16.01 219.81 15.65 219.08 16.98 217.62 17.35 216.77 17.83 216.03 17.35 216.16 16.37 215.92 15.11 216.24 12.73 216.65 12 218.11 8.11 219 8.43 219.41 9.32 221.15 7.99 222 7.74 222.97 8.35 223.82 10.18 224.91 12.85 224.83 13.7"/>
  </g>
  <path class="st6" d="M19.87.2l20.23,5.34,4.04.66,20.68,3.8,22.93,2.96,25.33,1.06,7.77-.21-.06-2.04,1.39.11,1.02,3.54,1.23.54,1.34-.05.32.43,1.07-.11.7-.48,1.45.11,2.41,1.55.86-.48.27.96h.96l-.11,1.04,1.77-.39,1.71-1.02-.08.93,2.92-.34.8.43,1.18.38-5.73,3.11-.75,1.39-3.27,2.78h2.2l2.84-1.61.42.54-.97,1.34.88.21,1.02-.22.92-.11,1.6-.48.64-.68.65.06,2.41-1.42.16-.72,2.37-2.05,1.38.06-2.07,1.7-.61.85.57,1.04,1.01-.31,1.64-.13,1.57,1.69,2.85.08,1.57-1.33,2.33-.04,1.37-.6.76,1.29.96.32,2.57-1.01.24,2.09.64.48,1.57-.48.56.76-2.61.2-2.73.56-2.73-.4-.44.52-2.13.32-.77,1.04-.54-.63-.83.95-1.2-.16-3.15,6.38.16.91.54-.16,3.27-3.59-1.71,4.01v1.82l-.43,1.07-.17,1.27-.61,2.07.49,4.62v1.94l1.36.97.77,1.69.96.32,1.97-1.21,1.85-3.21-.04-3.26-1.89-3.21.72-6.63.56-.2-.12-1.12,1.08-.88.24-.89.76.56-.48.96-.08.8,1.31-.26-.31-2.67,1.53-.32.16-.65h-.8l-.08-.96,1.45-1.09.84.88.6-.36,2.49,1.12,1.12.12.96,1.41-.64.48.04.48.77.68-.08,2.77-1.53,2.05-.68-.07.48,1.64,1.13.28,1.33-2.21,1.2-.44,1.65,1.76.89,3.18-.35,2.72-.49.21-.84,1.89-.36.82-.97,1.7.73,1.34,2.19.36.75.12h1.13l1-.56,1.16-.08,5.02-3.54,2.99-2.92,2.84-2.68-.11-.86s-3.18-1.69,1.23-3l3.11.05.75.22,1.28-.25,1.08-.45,1.39-1.66,1.07-.21-.32-2.3-.43-.36-.59-1.14,2.36-2.57.86-1.5,1.23-1.28,5.87-1.28,7.31-1.99.16-1.77,1.23.11.7-.32.16-2.04,1.02-1.45-.05-.8-.37-.48.27-1.77.11-2.68,2-4.19,1.11,1.09.48-.05s3.03-3.1,3.64.79c.24.36,2.07,6.08,2.07,6.08l1.96.1.21,1.66s5.72.86-2.35,6.05l-.3.82-1.25-.87-.38.32-.44,1.77-.53,1.18v.8l-.91.32-1.39.11-1.3,4.27-.14,1.56-.27.38,1.02.96-.81,1.45.22.8,1.12.16,1.61,1.87s2.72-.02,1.38-1.36l.44-.52s2.73,1.87-2.03,3.75l-.35-1.29-1.09.49-.49,1.18-2.67,1.01-1.93,1.66-2.2-.08-2.84,2.28-.75.54.11,2.04-1.14,1.1,1.41.18.27,4.82-1.66,2.52-.5,1.23-2.77-1.44-.88-1.72.18,1.72.91,1.32,1.46,1.46.85,3.65-.35,1.7-.8.96.12,1.73-.48,1.37-.96-.28.28-3.97-.35-1.26-2.22-.14-.53-1.45.48-.43-.59-.48.27-1.66-.48-.64.48-1.23-.43-.11-1.35,1.52.49,3.65,1.22,1.82.83,1.26.16,1.82-.59.86,1.34,1.77-.48.7.16.59,1.61-.54,3.16,5.41-.48,1.45-1.23,1.77-1.71.32-.08,2.46h1.34l-.45,1.44s-3.81-1.08-5.99,5l-2.58,1.06-1.45,1.82-.54,2.84-5.04,4.6-1.77,2.68s-1.4,2.44-2.01,7.3l2.6,5.98,3.84,5.56.12,1.4,3.77,7.11.73,5.96-.48.76v1.92l-1.12,1.3h-1.18l-.86.28-.61-1.7-1.85-1.74h-1.39l-.7-.7-.27-1.34-.86-.91-1.23.43-1.39-2.89-1.98-2.57,1.56-1.71-.03-1.45-1.53.59-.05.43-.61-1.75.18-.72v-2.73l-1.34-1.55-1.45-.27-3.48-3.53-1.23-.54-1.82.21v1.02l-2.4.82-2.09.58-.05-.75-3.75-1.93-4.68-.45-1.22,1.09h-.8l-1.61-.05-.64-1.66-1.2-.47-.49,1.7-5.38,1.02-2.27,1.9.67.68.91-.06.11-.7,1.02.22-.11.85-1.02.75-.27,1.18,2.73.8-.11,1.29-2.62-.91-.86-1.23-.75.48-.27,1.71-1.02-.21.37-1.09-1.49.92-.59.7-1.55.16-1.61-1.45.32-.32-.06-.87-1.44.33-.37-1.12-2.68-.11.11,1.18-3.27-.32-1.55-.81-3.37.43-3.32,1.23-6.22,4.29-7.7,4.71-.2,1.13.47.74-1.56,2.66.12,1.7,1.46,3.65-1.09.61-1.02-.31-2.73-.27-.87-1.24-1.7.28-2.04-1.71-.43-1.71-.45-1.11-.56-2.91-1.13-.7-2.2-3.56-2.19-4.63-3.16-3.64-3.7-.43-.43-.54h-.96l-2.08.97-.49,1.7-1.58,1.46-3.28-2.19-2.91-2.27-.11-2.41-.39-2.25-1.94-1.82-.56.49-2.36-3.65-1.5-.32-1.23-1.93-.79-.67-6.97-.35-.44,1.68-4.01-.24-9.69-.8-15.35-10.02.12-1.09-11.12-.83-.16-3.86-2.62-3.86-1.5-.32-.05-1.5-1.55-.27-2.25-3.27h-1.12l-1.55-.96-1.39-.33-.64-.53,1.37-3.36-2.87-4.41-.11-1.02-1.23-1.66-.06-2.04.75-.37.43-1.55-.91-.32-.86-1.18-.11-2.78.43-1.18-1.45-1.39.05-2.2-1.93-3.75.8-2.65-.21-3.83-1.23-1.71.43-1.55,2.84-3.8.48-8.3,2.78-4.23,4.98-12.48v-2.14l1.02-.96-.59-.27.32-.94,1.22-.24-1.32-.85-.02-4.98-.85-.61.98-1.96,1.45,1.6,5.1,1.82,1.46,1.94.24-4.25.61-.73-1.26-1.45h-.13Z"/>
  <polygon class="st4" points="123.95 83 123.84 69.21 121.86 67.06 121.86 65.99 122.4 65.56 122.4 64.76 121.33 64.6 119.4 62.24 118.97 60.58 136.22 60.15 137.02 61.39 136.91 63.53 137.4 64.87 140.66 67.81 140.61 69.21 142.97 69.58 143.34 70.12 142.22 72.63 144.41 75.37 145.7 75.37 146.29 76.49 146.66 77.56 146.61 78.36 147.25 79.71 148.06 79.76 148.42 80.35 148.06 80.59 148.06 81.67 147.53 81.63 147.01 82.32 146.55 82.33 146.45 84.36 146.05 85.45 143.52 85.57 143.43 84.93 144.44 84.24 144.64 83.56 144.04 82.88 123.95 83"/>
</svg>