<?xml version="1.0" encoding="UTF-8"?>
<svg id="Layer_1" xmlns="http://www.w3.org/2000/svg" version="1.1" viewBox="0 0 32 32">
  <!-- Generator: Adobe Illustrator 29.6.0, SVG Export Plug-In . SVG Version: 2.1.1 Build 207)  -->
  <defs>
    <style>
      .st0 {
        fill: #3c5daa;
      }

      .st1 {
        fill: #1d2758;
      }

      .st2 {
        fill: #1a5091;
      }

      .st3 {
        fill: #00a0dd;
      }
    </style>
  </defs>
  <path class="st0" d="M21.91,31.1c7.35-2.88,11.04-10.99,8.24-18.13-2.79-7.14-11.01-10.59-18.36-7.72l1.7,4.35c4.88-1.91,10.33.39,12.19,5.12,1.85,4.74-.59,10.13-5.47,12.03l1.7,4.35Z"/>
  <path class="st2" d="M8.01,20l3.93-1.55-1.77-4.5-4.31,1.7c.1.55.25,1.09.46,1.63.4,1.03.99,1.94,1.69,2.72Z"/>
  <path class="st1" d="M18.51,22.4c-3.81,1.49-7.98.41-10.5-2.4-.7-.78-1.28-1.69-1.69-2.72-.21-.54-.36-1.08-.46-1.63-.8-4.28,1.61-8.71,5.93-10.4l-1.7-4.35C2.74,3.78-.95,11.89,1.85,19.03c2.79,7.14,11.01,10.59,18.36,7.72l-1.7-4.35Z"/>
  <rect class="st3" x="17.45" y="16.85" width="4.83" height="4.83" transform="translate(-5.68 8.62) rotate(-21.5)"/>
</svg>