<?xml version="1.0" encoding="UTF-8"?>
<svg id="Layer_1" xmlns="http://www.w3.org/2000/svg" version="1.1" viewBox="0 0 1024 1024">
  <!-- Generator: Adobe Illustrator 29.6.0, SVG Export Plug-In . SVG Version: 2.1.1 Build 207)  -->
  <defs>
    <style>
      .st0 {
        fill: #3c5daa;
      }

      .st1 {
        fill: #1d2758;
      }

      .st2 {
        fill: #1a5091;
      }

      .st3 {
        fill: #00a0dd;
      }
    </style>
  </defs>
  <path class="st0" d="M701.48,996.07c235.5-92.19,353.8-352.44,264.22-581.3-89.58-228.85-353.11-339.65-588.61-247.46l54.54,139.34c156.32-61.19,331.23,12.35,390.67,164.26,59.46,151.9-19.05,324.64-175.37,385.81l54.54,139.35Z"/>
  <path class="st2" d="M255.77,640.27l126.02-49.64-56.8-144.2-138.06,54.38c3.28,17.56,8.01,35.06,14.75,52.28,12.94,33.05,31.59,62.13,54.08,87.18Z"/>
  <path class="st1" d="M592.38,717.35c-122.31,47.87-255.74,13-336.61-77.08-22.49-25.05-41.14-54.13-54.08-87.18-6.74-17.22-11.47-34.72-14.75-52.28-25.67-137.36,51.54-279.28,190.13-333.53l-54.53-139.35C87.03,120.12-31.28,380.37,58.29,609.21c89.59,228.86,353.13,339.66,588.63,247.47l-54.54-139.34Z"/>
  <rect class="st3" x="558.62" y="539.31" width="154.98" height="154.98" transform="translate(-181.8 276.05) rotate(-21.5)"/>
</svg>