<?xml version="1.0" encoding="UTF-8"?>
<svg id="Layer_1" xmlns="http://www.w3.org/2000/svg" version="1.1" viewBox="0 0 1000 260">
  <!-- Generator: Adobe Illustrator 29.6.0, SVG Export Plug-In . SVG Version: 2.1.1 Build 207)  -->
  <defs>
    <style>
      .st0 {
        fill: #00205c;
      }

      .st1 {
        fill: #194f90;
      }

      .st2 {
        fill: #8d8f91;
      }

      .st3 {
        fill: #00a0df;
      }

      .st4 {
        fill: #385cad;
      }
    </style>
  </defs>
  <g>
    <path class="st3" d="M734.97,124.56v32.51c0,6.79-1.36,11.14-5.2,14.51-3.66,3.34-8.83,5.38-14.85,5.38-6.51,0-11.71-2.38-15.03-5.71-3.34-3.24-5.03-8.09-5.03-14.13v-32.56h9.74l-.03,32.34c0,7.01,4.66,11.21,10.34,11.21,2.74,0,6.14-1.07,8.19-3.44,1.62-1.94,2.04-3.59,2.04-7.58l.03-32.54h9.79Z"/>
    <path class="st3" d="M644.45,150.22c0,11,6.92,17.7,16.19,17.7s16.07-6.92,16.07-17.7c0-10.12-5.94-17.8-15.96-17.8s-16.29,7.76-16.29,17.8M686.61,150.33c0,14.55-11.13,26.63-26.2,26.63s-25.87-11.54-25.87-26.84c0-16.25,11.11-26.74,26.2-26.74s25.87,11.65,25.87,26.95"/>
    <path class="st3" d="M615.84,124.59v5.71c1.19-2.04,2.02-2.75,3.96-4.26,2.22-1.49,5.51-2.65,9.16-2.65h2.79v9.93c-1.24-.22-2.5-.22-3.04-.21-4.62.03-8.03,2.21-10.51,5.87-1.75,2.81-2.36,5.09-2.36,10.8l-.08,26.01h-9.68v-51.2l9.76.02Z"/>
    <path class="st3" d="M556.48,150.01c0,10.67,6.8,17.86,15.7,17.86,4.74,0,8.52-2.17,11.79-5.74,2.51-3.01,3.42-7.6,3.42-12.56,0-6.47-1.35-9.28-4.26-12.51-2.74-2.51-6.52-4.64-10.94-4.64-8.84,0-15.71,6.81-15.71,17.58M587.62,124.59h9.69v50.74c-.19,10.12-2.77,15.14-7.34,19.25-4.42,4.31-10.74,6.31-18.28,6.31-10.78,0-17.71-3.79-23.1-9.83l6.69-6.66c2.26,2.37,3.54,3.65,4.95,4.61,2.8,1.73,7.88,2.97,11.58,2.89,5.2-.11,9.41-1.75,12.24-4.56,1.97-2.28,3.56-5.78,3.56-10.95v-8.52c-4.03,5.48-9.51,9.13-17.72,9.05-14.07-.13-23.57-11.93-23.57-26.7,0-7.66,2.79-15.64,7.75-20.39,3.99-4.11,9.54-6.46,15.9-6.46,7.54,0,12.55,2.04,17.65,8.28v-7.08Z"/>
    <path class="st3" d="M752.85,150.98c0,10.89,6.81,17.35,15.68,17.35,9.34,0,15.58-7.16,15.58-18.47,0-5.82-1.26-9.61-4.17-12.84-3.38-3.33-7.54-4.78-11.14-4.78-9.03,0-15.95,7.1-15.95,18.74M752.93,131.93c5.42-7.52,11.93-8.56,17.33-8.56,13.8,0,24.15,10.53,24.15,26.41s-9.5,27.09-24.15,27.15c-3.88.02-7.44-.77-10.89-2.5-3.04-1.46-4.86-2.92-6.48-5.08v29.69h-9.7v-74.49h9.73v7.37Z"/>
  </g>
  <g>
    <path class="st0" d="M310.46,124.63v32.56c0,7.45-1.47,11.6-5.79,15.24-4.21,3.52-10.33,5.17-16.46,5.17-7.06,0-13.08-1.91-17.17-5.66-3.34-3.06-5.32-7.81-5.32-14.75l.06-32.56h12.93v31.65c0,5.91,3.55,10.6,9.5,10.6s9.29-4.12,9.29-9.69v-32.54l12.95-.02Z"/>
    <path class="st0" d="M332.43,124.63v10.98c1.48-3.86,2.88-8.38,5.45-10.12,1.92-1.49,4.77-2.51,7.12-2.63.34-.02,1.8-.08,2.38-.03v13.3c-1.14-.12-1.89-.12-2.68-.12-4.18,0-7.91,2.15-9.96,5.11-1.71,2.39-2.26,4.55-2.26,10.05l-.03,24.6h-12.99v-51.14h12.99Z"/>
    <path class="st0" d="M364.67,150.6c0,9.2,5.91,16.85,14.57,16.85s15.29-8.21,15.29-17.3-5.91-16.64-15.17-16.64-14.68,7.43-14.68,17.09M394.28,124.65h12.92l.05,51.13h-12.96l.03-8.69c-5.54,7.71-11.32,10.55-19.05,10.55-13.86,0-24.61-10.78-24.61-26.8s11.22-28.04,25.74-28.04c7.16,0,12.62,2.79,17.88,9.82v-7.97Z"/>
    <path class="st0" d="M494.81,150.6c0,9.2,5.91,16.85,14.57,16.85s15.29-8.21,15.29-17.3-5.91-16.64-15.17-16.64-14.68,7.43-14.68,17.09M524.42,124.65h12.92l.05,51.13h-12.96l.03-8.69c-5.54,7.71-11.32,10.55-19.05,10.55-13.86,0-24.61-10.78-24.61-26.8s11.22-28.04,25.74-28.04c7.16,0,12.62,2.79,17.88,9.82v-7.97Z"/>
    <path class="st0" d="M440.23,138.41v-.42c0-3.18-2.94-5.97-7.42-5.97s-6.53,2.67-6.53,5.51c0,1.36.4,2.82,1.86,4.07,1.59,1.25,2.06,1.36,9.34,3.64,11.83,3.64,15.78,8.38,15.78,16.05,0,9.45-7.48,16.32-19.77,16.32-9.69,0-18.72-4.02-19.9-15.81h12.47c.68,4.55,3.37,6.59,7.7,6.59,3.99,0,6.37-2.78,6.37-5.73,0-3.77-2.57-5.37-10.3-7.76-10.64-3.25-16-7.81-16-16.11,0-10,8.38-15.98,19.65-15.98,10.08,0,18.13,4.7,18.95,15.61h-12.21Z"/>
    <rect class="st0" x="460.96" y="124.57" width="13.07" height="51.28"/>
    <path class="st0" d="M245.69,144.18c-1.39-5.76-5.03-10.64-13.92-10.64-8.05,0-12.31,5.16-13.47,10.64h27.38ZM217.84,152.88c1.25,7.28,5.88,13.3,14.54,13.3,5.34,0,10.41-2.45,12.68-6.65l11.84,3.25c-4.87,9.44-14.23,14.77-24.45,14.77-15.93,0-27.86-11.04-27.86-27.41s11.47-27.36,26.96-27.36c16.39,0,27.29,11.52,27.83,27.19l-.15,2.9h-41.38Z"/>
  </g>
  <g>
    <g>
      <path class="st2" d="M323.47,209.35c0,5.24,3.16,8.71,7.88,8.71s7.87-3.68,7.87-9.12c0-2.8-.67-4.93-2.07-6.48-1.4-1.55-3.52-2.49-5.65-2.49-4.77,0-8.03,3.78-8.03,9.38M323.47,197.01v4.35c2.28-3.53,4.71-4.93,8.7-4.93,6.63,0,11.24,5.08,11.24,12.34s-4.61,12.7-11.24,12.7c-1.87,0-3.58-.42-5.23-1.24-1.45-.73-2.18-1.35-3.47-3.06v11.67h-3.94v-31.84h3.94Z"/>
      <path class="st2" d="M350.54,208.99c0,5.29,3.27,8.87,8.13,8.87s8.08-3.68,8.08-8.87-3.21-8.92-8.03-8.92-8.19,3.58-8.19,8.92M370.8,209.04c0,7-5.39,12.44-12.23,12.44s-12.07-5.19-12.07-12.55,4.97-12.5,12.23-12.5,12.07,5.24,12.07,12.6"/>
    </g>
    <rect class="st2" x="374.64" y="186.33" width="3.94" height="34.58"/>
    <g>
      <path class="st2" d="M388.22,220.92h-3.94v-23.9h3.94v23.9ZM388.79,190.33c0,1.4-1.14,2.49-2.54,2.49s-2.49-1.09-2.49-2.54,1.09-2.54,2.54-2.54,2.49,1.14,2.49,2.59"/>
      <path class="st2" d="M399.4,216.04c.05,1.19.36,1.45,1.81,1.45h1.81v3.42h-3.68c-2.8-.05-3.88-1.09-3.88-3.73v-16.7h-3.32v-3.47h3.32v-7.52h3.94v7.52h3.63v3.47h-3.63v15.56Z"/>
      <path class="st2" d="M412.19,220.92h-3.94v-23.9h3.94v23.9ZM412.76,190.33c0,1.4-1.14,2.49-2.54,2.49s-2.49-1.09-2.49-2.54,1.09-2.54,2.54-2.54,2.49,1.14,2.49,2.59"/>
      <path class="st2" d="M437.14,217.96c-2.69,2.44-5.34,3.53-8.81,3.53-6.84,0-11.71-5.18-11.71-12.44s4.92-12.6,11.92-12.6c3.42,0,6.22,1.14,8.7,3.58l-2.54,2.54c-1.81-1.66-3.83-2.49-6.06-2.49-4.71,0-7.98,3.63-7.98,8.81s3.27,8.97,7.93,8.97c2.33,0,4.2-.78,6.11-2.59l2.43,2.7Z"/>
      <path class="st2" d="M453.3,203.55v-.26c0-2.23-1.81-3.63-4.56-3.63s-4.3,1.35-4.3,3.42,1.04,2.85,5.34,4.04c3.06.83,4.66,1.61,5.8,2.75,1.19,1.19,1.92,2.9,1.92,4.67,0,4.15-3.42,6.95-8.5,6.95-5.44,0-8.5-2.54-8.91-7.36h3.89c.26,2.7,2.02,4.15,5.03,4.15,2.69,0,4.46-1.4,4.46-3.53s-1.35-3.11-5.44-4.15c-5.18-1.4-7.51-3.58-7.51-7.21,0-4.15,3.37-6.95,8.39-6.95s8.13,2.59,8.34,7.1h-3.94Z"/>
      <path class="st2" d="M475.06,220.89h-3.94v-20.43h-3.27v-3.47h3.27v-3.21c0-4.72,2.43-7.52,6.58-7.52.21,0,.67,0,1.09.05v3.53c-2.85.31-3.63,1.14-3.73,3.94v3.21h3.73v3.47h-3.73v20.43Z"/>
      <path class="st2" d="M487.7,220.89h-3.94v-23.9h3.94v23.9ZM488.27,190.3c0,1.4-1.14,2.49-2.54,2.49s-2.49-1.09-2.49-2.54,1.09-2.54,2.54-2.54,2.49,1.14,2.49,2.59"/>
      <path class="st2" d="M497.19,196.99v4.04c.73-1.71,1.24-2.44,2.18-3.16,1.19-.94,2.85-1.45,4.56-1.45h.93v3.99c-.41-.05-.83-.05-1.09-.05-2.13,0-3.99.99-5.18,2.75-1.04,1.5-1.4,2.9-1.4,5.65v12.13h-3.94v-23.9h3.94Z"/>
      <path class="st2" d="M519.94,203.53v-.26c0-2.23-1.81-3.63-4.56-3.63s-4.3,1.35-4.3,3.42,1.04,2.85,5.34,4.04c3.06.83,4.66,1.61,5.8,2.75,1.19,1.19,1.92,2.9,1.92,4.67,0,4.15-3.42,6.95-8.5,6.95-5.44,0-8.5-2.54-8.91-7.36h3.89c.26,2.7,2.02,4.15,5.02,4.15,2.7,0,4.46-1.4,4.46-3.53s-1.35-3.11-5.44-4.15c-5.18-1.4-7.51-3.58-7.51-7.21,0-4.15,3.37-6.95,8.39-6.95s8.13,2.59,8.34,7.1h-3.94Z"/>
      <path class="st2" d="M533.76,216.02c.05,1.19.36,1.45,1.81,1.45h1.81v3.42h-3.68c-2.8-.05-3.88-1.09-3.88-3.73v-16.7h-3.32v-3.47h3.32v-7.52h3.94v7.52h3.63v3.47h-3.63v15.56Z"/>
    </g>
  </g>
  <path class="st4" d="M473.11,116.76c20.82-8.15,31.29-31.16,23.36-51.4-7.92-20.24-31.22-30.03-52.05-21.88l4.82,12.32c13.82-5.41,29.29,1.09,34.55,14.52,5.26,13.43-1.68,28.71-15.51,34.12l4.82,12.32Z"/>
  <path class="st1" d="M433.69,85.3l11.14-4.39-5.02-12.75-12.21,4.81c.29,1.55.71,3.1,1.3,4.62,1.14,2.92,2.79,5.49,4.78,7.71Z"/>
  <path class="st0" d="M463.46,92.11c-10.82,4.23-22.61,1.15-29.77-6.82-1.99-2.22-3.64-4.79-4.78-7.71-.6-1.52-1.01-3.07-1.3-4.62-2.27-12.15,4.56-24.7,16.81-29.49l-4.82-12.32c-20.82,8.15-31.29,31.16-23.37,51.4,7.92,20.24,31.23,30.04,52.05,21.88l-4.82-12.32Z"/>
  <rect class="st3" x="460.47" y="76.37" width="13.7" height="13.7" transform="translate(2.02 177.07) rotate(-21.5)"/>
</svg>