<?xml version="1.0" encoding="UTF-8"?>
<svg id="Layer_1" xmlns="http://www.w3.org/2000/svg" version="1.1" viewBox="0 0 1000 220">
  <!-- Generator: Adobe Illustrator 29.6.0, SVG Export Plug-In . SVG Version: 2.1.1 Build 207)  -->
  <defs>
    <style>
      .st0 {
        fill: #00205c;
      }

      .st1 {
        fill: #194f90;
      }

      .st2 {
        fill: #00a0df;
      }

      .st3 {
        fill: #385cad;
      }
    </style>
  </defs>
  <g>
    <path class="st2" d="M735.47,104.56v32.51c0,6.79-1.36,11.14-5.2,14.51-3.66,3.34-8.83,5.38-14.85,5.38-6.51,0-11.71-2.38-15.03-5.71-3.34-3.24-5.03-8.09-5.03-14.13v-32.56h9.74l-.03,32.34c0,7.01,4.66,11.21,10.34,11.21,2.74,0,6.14-1.07,8.19-3.44,1.62-1.94,2.04-3.59,2.04-7.58l.03-32.54h9.79Z"/>
    <path class="st2" d="M644.95,130.22c0,11,6.92,17.7,16.19,17.7s16.07-6.92,16.07-17.7c0-10.12-5.94-17.8-15.96-17.8s-16.29,7.76-16.29,17.8M687.11,130.33c0,14.55-11.13,26.63-26.2,26.63s-25.87-11.54-25.87-26.84c0-16.25,11.11-26.74,26.2-26.74s25.87,11.65,25.87,26.95"/>
    <path class="st2" d="M616.34,104.59v5.71c1.19-2.04,2.02-2.75,3.96-4.26,2.22-1.49,5.51-2.65,9.16-2.65h2.79v9.93c-1.24-.22-2.5-.22-3.04-.21-4.62.03-8.03,2.21-10.51,5.87-1.75,2.81-2.36,5.09-2.36,10.8l-.08,26.01h-9.68v-51.2l9.76.02Z"/>
    <path class="st2" d="M556.98,130.01c0,10.67,6.8,17.86,15.7,17.86,4.74,0,8.52-2.17,11.79-5.74,2.51-3.01,3.42-7.6,3.42-12.56,0-6.47-1.35-9.28-4.26-12.51-2.74-2.51-6.52-4.64-10.94-4.64-8.84,0-15.71,6.81-15.71,17.58M588.12,104.59h9.69v50.74c-.19,10.12-2.77,15.14-7.34,19.25-4.42,4.31-10.74,6.31-18.28,6.31-10.78,0-17.71-3.79-23.1-9.83l6.69-6.66c2.26,2.37,3.54,3.65,4.95,4.61,2.8,1.73,7.88,2.97,11.58,2.89,5.2-.11,9.41-1.75,12.24-4.56,1.97-2.28,3.56-5.78,3.56-10.95v-8.52c-4.03,5.48-9.51,9.13-17.72,9.05-14.07-.13-23.57-11.93-23.57-26.7,0-7.66,2.79-15.64,7.75-20.39,3.99-4.11,9.54-6.46,15.9-6.46,7.54,0,12.55,2.04,17.65,8.28v-7.08Z"/>
    <path class="st2" d="M753.35,130.98c0,10.89,6.81,17.35,15.68,17.35,9.34,0,15.58-7.16,15.58-18.47,0-5.82-1.26-9.61-4.17-12.84-3.38-3.33-7.54-4.78-11.14-4.78-9.03,0-15.95,7.1-15.95,18.74M753.43,111.93c5.42-7.52,11.93-8.56,17.33-8.56,13.8,0,24.15,10.53,24.15,26.41s-9.5,27.09-24.15,27.15c-3.88.02-7.44-.77-10.89-2.5-3.04-1.46-4.86-2.92-6.48-5.08v29.69h-9.7v-74.49h9.73v7.37Z"/>
  </g>
  <g>
    <path class="st0" d="M310.96,104.63v32.56c0,7.45-1.47,11.6-5.79,15.24-4.21,3.52-10.33,5.17-16.46,5.17-7.06,0-13.08-1.91-17.17-5.66-3.34-3.06-5.32-7.81-5.32-14.75l.06-32.56h12.93v31.65c0,5.91,3.55,10.6,9.5,10.6s9.29-4.12,9.29-9.69v-32.54l12.95-.02Z"/>
    <path class="st0" d="M332.93,104.63v10.98c1.48-3.86,2.88-8.38,5.45-10.12,1.92-1.49,4.77-2.51,7.12-2.63.34-.02,1.8-.08,2.38-.03v13.3c-1.14-.12-1.89-.12-2.68-.12-4.18,0-7.91,2.15-9.96,5.11-1.71,2.39-2.26,4.55-2.26,10.05l-.03,24.6h-12.99v-51.14h12.99Z"/>
    <path class="st0" d="M365.17,130.6c0,9.2,5.91,16.85,14.57,16.85s15.29-8.21,15.29-17.3-5.91-16.64-15.17-16.64-14.68,7.43-14.68,17.09M394.78,104.65h12.92l.05,51.13h-12.96l.03-8.69c-5.54,7.71-11.32,10.55-19.05,10.55-13.86,0-24.61-10.78-24.61-26.8s11.22-28.04,25.74-28.04c7.16,0,12.62,2.79,17.88,9.82v-7.97Z"/>
    <path class="st0" d="M495.31,130.6c0,9.2,5.91,16.85,14.57,16.85s15.29-8.21,15.29-17.3-5.91-16.64-15.17-16.64-14.68,7.43-14.68,17.09M524.92,104.65h12.92l.05,51.13h-12.96l.03-8.69c-5.54,7.71-11.32,10.55-19.05,10.55-13.86,0-24.61-10.78-24.61-26.8s11.22-28.04,25.74-28.04c7.16,0,12.62,2.79,17.88,9.82v-7.97Z"/>
    <path class="st0" d="M440.73,118.41v-.42c0-3.18-2.94-5.97-7.42-5.97s-6.53,2.67-6.53,5.51c0,1.36.4,2.82,1.86,4.07,1.59,1.25,2.06,1.36,9.34,3.64,11.83,3.64,15.78,8.38,15.78,16.05,0,9.45-7.48,16.32-19.77,16.32-9.69,0-18.72-4.02-19.9-15.81h12.47c.68,4.55,3.37,6.59,7.7,6.59,3.99,0,6.37-2.78,6.37-5.73,0-3.77-2.57-5.37-10.3-7.76-10.64-3.25-16-7.81-16-16.11,0-10,8.38-15.98,19.65-15.98,10.08,0,18.13,4.7,18.95,15.61h-12.21Z"/>
    <rect class="st0" x="461.46" y="104.57" width="13.07" height="51.28"/>
    <path class="st0" d="M246.19,124.18c-1.39-5.76-5.03-10.64-13.92-10.64-8.05,0-12.31,5.16-13.47,10.64h27.38ZM218.34,132.88c1.25,7.28,5.88,13.3,14.54,13.3,5.34,0,10.41-2.45,12.68-6.65l11.84,3.25c-4.87,9.44-14.23,14.77-24.45,14.77-15.93,0-27.86-11.04-27.86-27.41s11.47-27.36,26.96-27.36c16.39,0,27.29,11.52,27.83,27.19l-.15,2.9h-41.38Z"/>
  </g>
  <path class="st3" d="M473.61,96.76c20.82-8.15,31.29-31.16,23.36-51.4-7.92-20.24-31.22-30.03-52.05-21.88l4.82,12.32c13.82-5.41,29.29,1.09,34.55,14.52,5.26,13.43-1.68,28.71-15.51,34.12l4.82,12.32Z"/>
  <path class="st1" d="M434.19,65.3l11.14-4.39-5.02-12.75-12.21,4.81c.29,1.55.71,3.1,1.3,4.62,1.14,2.92,2.79,5.49,4.78,7.71Z"/>
  <path class="st0" d="M463.96,72.11c-10.82,4.23-22.61,1.15-29.77-6.82-1.99-2.22-3.64-4.79-4.78-7.71-.6-1.52-1.01-3.07-1.3-4.62-2.27-12.15,4.56-24.7,16.81-29.49l-4.82-12.32c-20.82,8.15-31.29,31.16-23.37,51.4,7.92,20.24,31.23,30.04,52.05,21.88l-4.82-12.32Z"/>
  <rect class="st2" x="460.97" y="56.37" width="13.7" height="13.7" transform="translate(9.38 175.86) rotate(-21.5)"/>
</svg>