<?xml version="1.0" encoding="UTF-8"?>
<svg id="Layer_1" xmlns="http://www.w3.org/2000/svg" version="1.1" viewBox="0 0 1000 360">
  <!-- Generator: Adobe Illustrator 29.6.0, SVG Export Plug-In . SVG Version: 2.1.1 Build 207)  -->
  <defs>
    <style>
      .st0 {
        fill: #00205b;
      }

      .st1 {
        fill: #fff;
      }

      .st2 {
        fill: #00a3e0;
      }
    </style>
  </defs>
  <rect class="st0" width="1000" height="360"/>
  <g>
    <g>
      <path class="st1" d="M492.6,225.99v36.83c0,7.69-1.55,12.62-5.89,16.44-4.15,3.79-10,6.09-16.83,6.09-7.37,0-13.27-2.7-17.03-6.47-3.79-3.67-5.69-9.17-5.69-16v-36.88h11.04l-.03,36.64c0,7.94,5.28,12.7,11.72,12.7,3.11,0,6.96-1.21,9.28-3.9,1.83-2.2,2.31-4.07,2.31-8.58l.04-36.86h11.09Z"/>
      <path class="st1" d="M390.05,255.05c0,12.46,7.84,20.05,18.34,20.05s18.2-7.84,18.2-20.05c0-11.46-6.73-20.16-18.08-20.16s-18.46,8.79-18.46,20.16M437.82,255.18c0,16.49-12.61,30.17-29.68,30.17s-29.31-13.07-29.31-30.41c0-18.41,12.58-30.29,29.68-30.29s29.31,13.19,29.31,30.53"/>
      <path class="st1" d="M357.65,226.01v6.46c1.34-2.31,2.28-3.12,4.48-4.83,2.52-1.69,6.24-3.01,10.38-3.01h3.16v11.24c-1.4-.25-2.83-.25-3.44-.24-5.24.03-9.1,2.5-11.91,6.65-1.98,3.19-2.67,5.76-2.67,12.24l-.09,29.46h-10.97v-58.01l11.05.02Z"/>
      <path class="st1" d="M290.4,254.81c0,12.09,7.7,20.24,17.78,20.24,5.37,0,9.65-2.46,13.36-6.5,2.84-3.41,3.88-8.61,3.88-14.23,0-7.33-1.53-10.51-4.82-14.17-3.1-2.84-7.38-5.26-12.39-5.26-10.02,0-17.8,7.71-17.8,19.92M325.68,226.01h10.98v57.48c-.21,11.46-3.14,17.15-8.31,21.8-5.01,4.88-12.16,7.15-20.71,7.15-12.21,0-20.07-4.3-26.17-11.13l7.58-7.54c2.56,2.69,4.02,4.13,5.6,5.23,3.17,1.95,8.93,3.36,13.12,3.27,5.89-.12,10.66-1.98,13.87-5.17,2.23-2.58,4.04-6.55,4.04-12.41v-9.65c-4.57,6.2-10.77,10.34-20.08,10.26-15.95-.15-26.71-13.52-26.71-30.25,0-8.67,3.16-17.72,8.78-23.1,4.53-4.65,10.81-7.32,18.01-7.32,8.55,0,14.22,2.32,19.99,9.38v-8.02Z"/>
      <path class="st1" d="M512.86,255.91c0,12.33,7.71,19.66,17.77,19.66,10.58,0,17.65-8.11,17.65-20.93,0-6.6-1.43-10.88-4.73-14.54-3.82-3.77-8.54-5.41-12.62-5.41-10.23,0-18.07,8.04-18.07,21.23M512.95,234.34c6.14-8.51,13.51-9.69,19.64-9.69,15.63,0,27.36,11.93,27.36,29.92s-10.76,30.69-27.36,30.75c-4.4.02-8.43-.87-12.33-2.83-3.44-1.65-5.51-3.31-7.34-5.76v33.64h-10.98v-84.39h11.02v8.35Z"/>
    </g>
    <g>
      <path class="st1" d="M395.43,151.7v36.28c0,8.3-1.63,12.93-6.45,16.98-4.69,3.93-11.51,5.76-18.34,5.76-7.86,0-14.58-2.13-19.14-6.31-3.72-3.41-5.93-8.71-5.93-16.43l.07-36.28h14.41v35.27c0,6.59,3.95,11.81,10.59,11.81s10.35-4.59,10.35-10.79v-36.26l14.43-.02Z"/>
      <path class="st1" d="M419.91,151.7v12.24c1.65-4.3,3.21-9.34,6.07-11.27,2.14-1.66,5.31-2.79,7.93-2.93.38-.02,2-.09,2.65-.03v14.82c-1.27-.13-2.1-.14-2.99-.14-4.65,0-8.82,2.39-11.1,5.69-1.9,2.66-2.52,5.07-2.52,11.2l-.03,27.41h-14.48v-56.98h14.48Z"/>
      <path class="st1" d="M455.83,180.64c0,10.25,6.58,18.77,16.23,18.77s17.03-9.15,17.03-19.28-6.58-18.54-16.91-18.54-16.36,8.28-16.36,19.04M488.82,151.72h14.39l.05,56.96h-14.44l.03-9.69c-6.17,8.6-12.61,11.76-21.22,11.76-15.44,0-27.42-12.01-27.42-29.86s12.5-31.24,28.68-31.24c7.98,0,14.06,3.1,19.92,10.95v-8.88Z"/>
      <path class="st1" d="M600.83,180.64c0,10.25,6.58,18.77,16.23,18.77s17.03-9.15,17.03-19.28-6.58-18.54-16.91-18.54-16.36,8.28-16.36,19.04M633.82,151.72h14.39l.05,56.96h-14.44l.03-9.69c-6.17,8.6-12.61,11.76-21.22,11.76-15.44,0-27.42-12.01-27.42-29.86s12.5-31.24,28.68-31.24c7.98,0,14.06,3.1,19.92,10.95v-8.88Z"/>
      <path class="st1" d="M540.01,167.06v-.46c0-3.54-3.27-6.65-8.27-6.65s-7.28,2.97-7.28,6.14c0,1.52.45,3.14,2.07,4.53,1.77,1.39,2.3,1.52,10.41,4.05,13.18,4.05,17.58,9.34,17.58,17.88,0,10.53-8.33,18.18-22.02,18.18-10.8,0-20.86-4.48-22.17-17.62h13.89c.76,5.06,3.76,7.34,8.58,7.34,4.45,0,7.1-3.1,7.1-6.39,0-4.2-2.86-5.98-11.48-8.64-11.86-3.62-17.82-8.7-17.82-17.95,0-11.14,9.34-17.8,21.9-17.8,11.23,0,20.19,5.24,21.11,17.39h-13.6Z"/>
      <rect class="st1" x="563.11" y="151.63" width="14.56" height="57.14"/>
      <path class="st1" d="M323.26,173.48c-1.55-6.42-5.6-11.85-15.51-11.85-8.97,0-13.71,5.75-15,11.85h30.51ZM292.24,183.18c1.39,8.11,6.55,14.82,16.2,14.82,5.95,0,11.6-2.73,14.13-7.41l13.19,3.62c-5.43,10.51-15.86,16.46-27.24,16.46-17.74,0-31.04-12.3-31.04-30.53s12.78-30.48,30.03-30.48c18.26,0,30.41,12.84,31.01,30.29l-.17,3.23h-46.11Z"/>
    </g>
    <g>
      <g>
        <path class="st1" d="M578.05,247.15c0,5.57,3.36,9.26,8.37,9.26s8.37-3.91,8.37-9.7c0-2.98-.72-5.24-2.2-6.89-1.49-1.65-3.75-2.64-6-2.64-5.07,0-8.54,4.02-8.54,9.97M578.05,234.03v4.63c2.42-3.75,5.01-5.24,9.25-5.24,7.05,0,11.95,5.4,11.95,13.12s-4.9,13.5-11.95,13.5c-1.98,0-3.8-.44-5.56-1.32-1.54-.77-2.31-1.43-3.69-3.25v12.4h-4.19v-33.84h4.19Z"/>
        <path class="st1" d="M606.84,246.76c0,5.62,3.47,9.43,8.65,9.43s8.59-3.91,8.59-9.43-3.42-9.48-8.54-9.48-8.7,3.8-8.7,9.48M628.37,246.82c0,7.44-5.73,13.23-13,13.23s-12.83-5.51-12.83-13.34,5.29-13.28,13-13.28,12.83,5.57,12.83,13.39"/>
      </g>
      <rect class="st1" x="632.45" y="222.68" width="4.19" height="36.76"/>
      <g>
        <path class="st1" d="M646.89,259.44h-4.19v-25.41h4.19v25.41ZM647.5,226.92c0,1.49-1.21,2.65-2.7,2.65s-2.64-1.16-2.64-2.7,1.16-2.7,2.7-2.7,2.64,1.21,2.64,2.76"/>
        <path class="st1" d="M658.77,254.26c.06,1.27.39,1.54,1.93,1.54h1.93v3.64h-3.91c-2.97-.05-4.13-1.16-4.13-3.97v-17.75h-3.53v-3.69h3.53v-7.99h4.19v7.99h3.85v3.69h-3.85v16.54Z"/>
        <path class="st1" d="M672.37,259.44h-4.19v-25.41h4.19v25.41ZM672.97,226.92c0,1.49-1.21,2.65-2.7,2.65s-2.64-1.16-2.64-2.7,1.16-2.7,2.7-2.7,2.64,1.21,2.64,2.76"/>
        <path class="st1" d="M698.89,256.3c-2.86,2.59-5.67,3.75-9.36,3.75-7.27,0-12.45-5.51-12.45-13.23s5.23-13.4,12.67-13.4c3.63,0,6.61,1.21,9.25,3.8l-2.7,2.7c-1.93-1.77-4.08-2.65-6.44-2.65-5.01,0-8.48,3.86-8.48,9.37s3.47,9.53,8.43,9.53c2.48,0,4.46-.83,6.5-2.75l2.59,2.87Z"/>
        <path class="st1" d="M716.07,240.97v-.28c0-2.37-1.93-3.86-4.85-3.86s-4.57,1.43-4.57,3.64,1.1,3.03,5.67,4.3c3.25.88,4.96,1.71,6.17,2.92,1.27,1.27,2.04,3.09,2.04,4.96,0,4.41-3.63,7.39-9.03,7.39-5.78,0-9.03-2.7-9.47-7.83h4.13c.28,2.87,2.15,4.41,5.34,4.41,2.86,0,4.74-1.49,4.74-3.75s-1.43-3.31-5.78-4.41c-5.51-1.49-7.99-3.8-7.99-7.66,0-4.41,3.58-7.39,8.92-7.39s8.65,2.75,8.87,7.55h-4.19Z"/>
        <path class="st1" d="M578.05,310.37h-4.19v-21.72h-3.47v-3.69h3.47v-3.42c0-5.02,2.59-7.99,6.99-7.99.22,0,.72,0,1.16.06v3.75c-3.03.33-3.85,1.21-3.96,4.19v3.42h3.96v3.69h-3.96v21.72Z"/>
        <path class="st1" d="M591.48,310.37h-4.19v-25.41h4.19v25.41ZM592.09,277.85c0,1.49-1.21,2.65-2.7,2.65s-2.64-1.16-2.64-2.7,1.16-2.7,2.7-2.7,2.64,1.21,2.64,2.76"/>
        <path class="st1" d="M601.58,284.96v4.3c.77-1.82,1.32-2.59,2.31-3.36,1.27-.99,3.03-1.55,4.85-1.55h.99v4.24c-.44-.06-.88-.06-1.16-.06-2.26,0-4.24,1.05-5.51,2.92-1.1,1.6-1.49,3.09-1.49,6.01v12.9h-4.19v-25.41h4.19Z"/>
        <path class="st1" d="M625.75,291.9v-.28c0-2.37-1.93-3.86-4.85-3.86s-4.57,1.43-4.57,3.64,1.1,3.03,5.67,4.3c3.25.88,4.96,1.71,6.17,2.92,1.27,1.27,2.04,3.09,2.04,4.96,0,4.41-3.64,7.39-9.03,7.39-5.78,0-9.03-2.7-9.47-7.83h4.13c.28,2.87,2.15,4.41,5.34,4.41,2.87,0,4.74-1.49,4.74-3.75s-1.43-3.31-5.78-4.41c-5.51-1.49-7.98-3.8-7.98-7.66,0-4.41,3.58-7.39,8.92-7.39s8.65,2.76,8.87,7.55h-4.19Z"/>
        <path class="st1" d="M640.45,305.19c.06,1.27.39,1.54,1.93,1.54h1.93v3.64h-3.91c-2.97-.05-4.13-1.16-4.13-3.97v-17.75h-3.53v-3.69h3.53v-7.99h4.19v7.99h3.85v3.69h-3.85v16.54Z"/>
      </g>
    </g>
    <path class="st1" d="M576.64,142.93c23.2-9.08,34.86-34.72,26.03-57.27-8.83-22.55-34.79-33.46-57.99-24.38l5.37,13.73c15.4-6.03,32.63,1.22,38.49,16.18,5.86,14.97-1.88,31.98-17.28,38.01l5.37,13.73Z"/>
    <path class="st1" d="M532.73,107.88l12.42-4.89-5.6-14.21-13.6,5.36c.32,1.73.79,3.45,1.45,5.15,1.27,3.26,3.11,6.12,5.33,8.59Z"/>
    <path class="st1" d="M565.89,115.47c-12.05,4.72-25.2,1.28-33.16-7.59-2.22-2.47-4.05-5.33-5.33-8.59-.66-1.7-1.13-3.42-1.45-5.15-2.53-13.53,5.08-27.52,18.73-32.86l-5.37-13.73c-23.2,9.08-34.86,34.72-26.03,57.27,8.83,22.55,34.79,33.46,57.99,24.38l-5.37-13.73Z"/>
    <rect class="st2" x="562.57" y="97.93" width="15.27" height="15.27" transform="translate(.99 216.33) rotate(-21.5)"/>
  </g>
</svg>