<?xml version="1.0" encoding="UTF-8"?>
<svg id="Layer_1" xmlns="http://www.w3.org/2000/svg" version="1.1" viewBox="0 0 1000 300">
  <!-- Generator: Adobe Illustrator 29.6.0, SVG Export Plug-In . SVG Version: 2.1.1 Build 207)  -->
  <g>
    <path d="M493.68,195.45v36.39c0,7.6-1.53,12.47-5.82,16.25-4.1,3.74-9.88,6.02-16.63,6.02-7.29,0-13.11-2.67-16.83-6.39-3.74-3.62-5.63-9.06-5.63-15.82v-36.45h10.91l-.03,36.21c0,7.84,5.21,12.55,11.58,12.55,3.07,0,6.88-1.2,9.17-3.85,1.81-2.18,2.28-4.02,2.28-8.48l.04-36.43h10.96Z"/>
    <path d="M392.33,224.18c0,12.31,7.75,19.82,18.12,19.82s17.99-7.75,17.99-19.82c0-11.33-6.65-19.93-17.87-19.93s-18.24,8.69-18.24,19.93M439.54,224.3c0,16.29-12.46,29.81-29.33,29.81s-28.97-12.92-28.97-30.05c0-18.19,12.44-29.94,29.33-29.94s28.97,13.04,28.97,30.18"/>
    <path d="M360.3,195.47v6.39c1.33-2.28,2.26-3.08,4.43-4.77,2.49-1.67,6.17-2.97,10.26-2.97h3.12v11.11c-1.39-.24-2.79-.24-3.4-.24-5.18.03-9,2.47-11.77,6.58-1.96,3.15-2.64,5.7-2.64,12.09l-.08,29.12h-10.84v-57.33l10.92.02Z"/>
    <path d="M293.84,223.94c0,11.95,7.61,20,17.57,20,5.31,0,9.54-2.43,13.2-6.43,2.81-3.37,3.83-8.51,3.83-14.06,0-7.24-1.51-10.39-4.77-14.01-3.07-2.81-7.3-5.2-12.25-5.2-9.9,0-17.59,7.62-17.59,19.69M328.7,195.47h10.85v56.81c-.21,11.33-3.1,16.95-8.21,21.55-4.95,4.83-12.02,7.07-20.47,7.07-12.07,0-19.83-4.25-25.86-11l7.49-7.45c2.53,2.66,3.97,4.08,5.54,5.17,3.14,1.93,8.83,3.32,12.97,3.24,5.82-.12,10.54-1.96,13.7-5.11,2.2-2.55,3.99-6.47,3.99-12.26v-9.54c-4.51,6.13-10.65,10.22-19.85,10.14-15.76-.15-26.39-13.36-26.39-29.9,0-8.57,3.13-17.52,8.68-22.83,4.47-4.6,10.68-7.23,17.8-7.23,8.45,0,14.05,2.29,19.76,9.27v-7.92Z"/>
    <path d="M513.7,225.02c0,12.19,7.62,19.43,17.56,19.43,10.46,0,17.45-8.01,17.45-20.68,0-6.52-1.41-10.76-4.67-14.37-3.78-3.73-8.44-5.35-12.47-5.35-10.11,0-17.86,7.95-17.86,20.98M513.79,203.7c6.06-8.41,13.35-9.58,19.41-9.58,15.45,0,27.04,11.79,27.04,29.57s-10.64,30.33-27.04,30.4c-4.34.02-8.33-.86-12.19-2.79-3.4-1.63-5.45-3.27-7.25-5.69v33.24h-10.86v-83.4h10.89v8.25Z"/>
  </g>
  <g>
    <path d="M397.64,122.03v35.85c0,8.2-1.61,12.78-6.37,16.78-4.63,3.88-11.38,5.69-18.12,5.69-7.77,0-14.41-2.11-18.91-6.23-3.68-3.37-5.86-8.6-5.86-16.24l.07-35.85h14.24v34.85c0,6.51,3.9,11.67,10.46,11.67s10.23-4.54,10.23-10.67v-35.84l14.26-.02Z"/>
    <path d="M421.83,122.03v12.09c1.63-4.25,3.17-9.23,6-11.14,2.11-1.64,5.25-2.76,7.84-2.9.38-.02,1.98-.09,2.62-.03v14.65c-1.25-.13-2.08-.14-2.95-.14-4.6,0-8.71,2.37-10.97,5.62-1.88,2.63-2.49,5.01-2.49,11.07l-.03,27.09h-14.31v-56.32h14.31Z"/>
    <path d="M457.33,150.63c0,10.13,6.51,18.55,16.04,18.55s16.83-9.04,16.83-19.05-6.5-18.32-16.71-18.32-16.17,8.18-16.17,18.82M489.94,122.05h14.22l.05,56.3h-14.27l.03-9.57c-6.1,8.49-12.47,11.62-20.98,11.62-15.26,0-27.1-11.87-27.1-29.51s12.35-30.88,28.35-30.88c7.88,0,13.9,3.07,19.69,10.82v-8.77Z"/>
    <path d="M600.64,150.63c0,10.13,6.51,18.55,16.04,18.55s16.83-9.04,16.83-19.05-6.5-18.32-16.71-18.32-16.17,8.18-16.17,18.82M633.24,122.05h14.22l.05,56.3h-14.27l.03-9.57c-6.1,8.49-12.47,11.62-20.98,11.62-15.26,0-27.1-11.87-27.1-29.51s12.35-30.88,28.35-30.88c7.88,0,13.9,3.07,19.69,10.82v-8.77Z"/>
    <path d="M540.53,137.21v-.46c0-3.5-3.24-6.58-8.17-6.58s-7.19,2.94-7.19,6.06c0,1.5.44,3.1,2.04,4.48,1.75,1.38,2.27,1.5,10.29,4,13.03,4,17.38,9.23,17.38,17.67,0,10.4-8.24,17.97-21.76,17.97-10.67,0-20.62-4.43-21.91-17.41h13.73c.75,5.01,3.71,7.26,8.48,7.26,4.39,0,7.02-3.06,7.02-6.31,0-4.15-2.83-5.91-11.35-8.54-11.72-3.58-17.61-8.6-17.61-17.74,0-11.01,9.23-17.59,21.64-17.59,11.1,0,19.96,5.18,20.86,17.19h-13.44Z"/>
    <rect x="563.36" y="121.97" width="14.39" height="56.47"/>
    <path d="M326.32,143.56c-1.53-6.35-5.54-11.71-15.32-11.71-8.86,0-13.55,5.68-14.83,11.71h30.15ZM295.65,153.14c1.38,8.01,6.47,14.65,16.01,14.65,5.88,0,11.47-2.69,13.97-7.32l13.03,3.58c-5.37,10.39-15.67,16.27-26.93,16.27-17.54,0-30.68-12.16-30.68-30.18s12.63-30.12,29.68-30.12c18.04,0,30.05,12.69,30.65,29.94l-.17,3.19h-45.57Z"/>
  </g>
  <g>
    <g>
      <path d="M578.13,216.36c0,5.5,3.32,9.15,8.27,9.15s8.27-3.87,8.27-9.58c0-2.94-.71-5.18-2.18-6.81-1.47-1.63-3.7-2.61-5.93-2.61-5.01,0-8.44,3.98-8.44,9.86M578.13,203.4v4.57c2.39-3.7,4.95-5.18,9.14-5.18,6.97,0,11.81,5.34,11.81,12.97s-4.85,13.35-11.81,13.35c-1.96,0-3.76-.44-5.5-1.31-1.52-.76-2.29-1.42-3.65-3.21v12.26h-4.14v-33.45h4.14Z"/>
      <path d="M606.58,215.98c0,5.56,3.43,9.32,8.55,9.32s8.49-3.87,8.49-9.32-3.38-9.37-8.44-9.37-8.6,3.76-8.6,9.37M627.86,216.04c0,7.35-5.66,13.07-12.85,13.07s-12.68-5.45-12.68-13.18,5.23-13.13,12.85-13.13,12.68,5.5,12.68,13.24"/>
    </g>
    <rect x="631.89" y="192.18" width="4.14" height="36.33"/>
    <g>
      <path d="M646.16,228.51h-4.14v-25.11h4.14v25.11ZM646.76,196.37c0,1.47-1.2,2.62-2.67,2.62s-2.61-1.14-2.61-2.67,1.14-2.67,2.67-2.67,2.61,1.2,2.61,2.72"/>
      <path d="M657.9,223.39c.05,1.25.38,1.53,1.9,1.53h1.9v3.59h-3.87c-2.94-.05-4.08-1.14-4.08-3.92v-17.54h-3.48v-3.65h3.48v-7.9h4.14v7.9h3.81v3.65h-3.81v16.34Z"/>
      <path d="M671.34,228.51h-4.14v-25.11h4.14v25.11ZM671.94,196.37c0,1.47-1.2,2.62-2.67,2.62s-2.61-1.14-2.61-2.67,1.14-2.67,2.67-2.67,2.61,1.2,2.61,2.72"/>
      <path d="M697.55,225.4c-2.83,2.56-5.61,3.71-9.25,3.71-7.18,0-12.3-5.45-12.3-13.07s5.17-13.24,12.52-13.24c3.59,0,6.53,1.2,9.14,3.76l-2.67,2.67c-1.91-1.74-4.03-2.62-6.37-2.62-4.95,0-8.38,3.81-8.38,9.26s3.43,9.42,8.33,9.42c2.45,0,4.41-.82,6.42-2.72l2.56,2.83Z"/>
      <path d="M714.53,210.26v-.27c0-2.34-1.9-3.81-4.79-3.81s-4.52,1.42-4.52,3.6,1.09,3,5.61,4.25c3.21.87,4.9,1.69,6.1,2.89,1.25,1.25,2.02,3.05,2.02,4.9,0,4.36-3.59,7.3-8.93,7.3-5.71,0-8.93-2.67-9.36-7.74h4.08c.27,2.83,2.12,4.36,5.28,4.36,2.83,0,4.68-1.47,4.68-3.7s-1.42-3.27-5.71-4.36c-5.44-1.47-7.89-3.76-7.89-7.57,0-4.36,3.54-7.3,8.82-7.3s8.54,2.72,8.76,7.46h-4.14Z"/>
      <path d="M578.12,278.84h-4.14v-21.46h-3.43v-3.65h3.43v-3.38c0-4.96,2.56-7.9,6.91-7.9.22,0,.71,0,1.14.05v3.7c-2.99.33-3.81,1.2-3.92,4.14v3.38h3.92v3.65h-3.92v21.46Z"/>
      <path d="M591.4,278.84h-4.14v-25.11h4.14v25.11ZM592,246.71c0,1.47-1.2,2.62-2.67,2.62s-2.61-1.14-2.61-2.67,1.14-2.67,2.67-2.67,2.61,1.2,2.61,2.72"/>
      <path d="M601.38,253.73v4.25c.76-1.8,1.31-2.56,2.29-3.32,1.25-.98,2.99-1.53,4.79-1.53h.98v4.2c-.44-.06-.87-.06-1.14-.06-2.23,0-4.19,1.04-5.44,2.89-1.09,1.58-1.47,3.05-1.47,5.94v12.74h-4.14v-25.11h4.14Z"/>
      <path d="M625.27,260.6v-.27c0-2.34-1.9-3.81-4.79-3.81s-4.52,1.42-4.52,3.6,1.09,3,5.61,4.25c3.21.87,4.9,1.69,6.1,2.89,1.25,1.25,2.02,3.05,2.02,4.9,0,4.36-3.59,7.3-8.93,7.3-5.71,0-8.93-2.67-9.36-7.74h4.08c.27,2.83,2.12,4.36,5.28,4.36,2.83,0,4.68-1.47,4.68-3.71s-1.42-3.27-5.72-4.36c-5.44-1.47-7.89-3.76-7.89-7.57,0-4.36,3.54-7.3,8.82-7.3s8.54,2.72,8.76,7.46h-4.14Z"/>
      <path d="M639.79,273.72c.05,1.25.38,1.53,1.9,1.53h1.9v3.59h-3.87c-2.94-.05-4.08-1.14-4.08-3.92v-17.54h-3.48v-3.65h3.48v-7.9h4.14v7.9h3.81v3.65h-3.81v16.34Z"/>
    </g>
  </g>
  <path d="M576.74,113.36c22.93-8.98,34.45-34.32,25.73-56.6-8.72-22.28-34.38-33.07-57.31-24.1l5.31,13.57c15.22-5.96,32.25,1.2,38.04,15.99,5.79,14.79-1.86,31.61-17.08,37.57l5.31,13.57Z"/>
  <path d="M533.34,78.72l12.27-4.83-5.53-14.04-13.44,5.3c.32,1.71.78,3.41,1.44,5.09,1.26,3.22,3.08,6.05,5.27,8.49Z"/>
  <path d="M566.11,86.23c-11.91,4.66-24.9,1.27-32.78-7.51-2.19-2.44-4.01-5.27-5.27-8.49-.66-1.68-1.12-3.38-1.44-5.09-2.5-13.37,5.02-27.19,18.51-32.48l-5.31-13.57c-22.93,8.98-34.45,34.32-25.73,56.6,8.72,22.28,34.38,33.07,57.32,24.1l-5.31-13.57Z"/>
  <rect x="562.83" y="68.89" width="15.09" height="15.09" transform="translate(11.67 214.36) rotate(-21.5)"/>
</svg>