<?xml version="1.0" encoding="UTF-8"?>
<svg fill="#D50F1D" width="100pt" height="100pt" version="1.1" viewBox="0 0 100 100" xmlns="http://www.w3.org/2000/svg">
 <path d="m87.125 65.312l-6.1875-27.438c-0.09375-0.53125-0.25-1.0312-0.4375-1.5312-0.0625-0.15625-0.125-0.34375-0.21875-0.5-1.6875-4.0938-5.4688-7.0625-10-7.625l-1.6562-7.6562c-0.0625-0.15625-0.09375-0.3125-0.125-0.46875-0.03125-0.03125-0.03125-0.0625-0.03125-0.09375-0.8125-2.5312-3.1875-4.375-5.9688-4.375-3.4375 0-6.25 2.8125-6.25 6.25s-2.8125 6.25-6.25 6.25-6.25-2.8125-6.25-6.25-2.8125-6.25-6.25-6.25c-2.8125 0-5.1875 1.875-5.9688 4.4062-0.0625 0.1875-0.09375 0.34375-0.125 0.53125l-0.125 0.625-1.5312 7.0312c-4.5312 0.53125-8.3438 3.5312-10.031 7.625-0.09375 0.15625-0.15625 0.34375-0.21875 0.5-0.1875 0.5-0.34375 1-0.4375 1.5312l-6.1875 27.438c-0.25 1.0938-0.375 2.25-0.375 3.4375 0 8.625 7 15.625 15.625 15.625s15.625-7 15.625-15.625c0-3.4492 2.8008-6.25 6.25-6.25s6.25 2.8008 6.25 6.25c0 8.625 7 15.625 15.625 15.625s15.625-7 15.625-15.625c0-1.1875-0.125-2.3438-0.375-3.4375zm-59 14.895c-6.3242 0-11.457-5.1445-11.457-11.457s5.1367-11.457 11.457-11.457c6.3242 0 11.457 5.1445 11.457 11.457s-5.1328 11.457-11.457 11.457zm43.75 0c-6.3125 0-11.457-5.1445-11.457-11.457s5.1445-11.457 11.457-11.457 11.457 5.1445 11.457 11.457-5.1445 11.457-11.457 11.457z"/>
</svg>
