<?xml version="1.0" encoding="UTF-8"?>
<svg fill="#D50F1D" width="100pt" height="100pt" version="1.1" viewBox="0 0 100 100" xmlns="http://www.w3.org/2000/svg">
 <path d="m49 6.1992c-24.199 0-43.801 19.602-43.801 43.801s19.602 43.801 43.801 43.801 43.801-19.602 43.801-43.801-19.602-43.801-43.801-43.801zm16 29.699c4.1016-0.10156 6.1992 4.8984 3.3008 7.8008l-21.199 21.199c-1.3008 1.3008-3.5 1.3008-4.8008 0l-10.699-10.898c-4.3984-4.3008 2.1016-10.801 6.3984-6.3984l6 6c0.39844 0.39844 1.1992 0.39844 1.6016 0l16.398-16.398c0.69922-0.80469 1.8008-1.3047 3-1.3047z"/>
</svg>
