<?xml version="1.0" encoding="UTF-8"?>
<svg fill="#D50F1D" width="100pt" height="100pt" version="1.1" viewBox="0 0 100 100" xmlns="http://www.w3.org/2000/svg">
 <g>
  <path d="m40.102 69.602c-0.19922-0.39844 0-0.89844 0.60156-0.89844l0.69922 0.10156c5.1016 0.80078 10.398 0.69922 15.5 0l0.60156-0.10156c0.60156 0 0.69922 0.5 0.60156 0.89844-0.5 1.1992-3.6016 3.1992-8.8984 3.1992-5.3086-0.10156-8.6055-2.1016-9.1055-3.1992z"/>
  <path d="m97.301 56.898c-1-0.80078-1.6992-1.8984-2-3.1016l-0.89844-18c0-0.10156 0-0.30078-0.10156-0.39844-0.39844-1.6992-1.5-3.1992-3-4.1016-1.5-0.89844-3.3984-1-5.1016-0.5-2 0.69922-3.3984 2.3008-3.8984 4.1992-6-12.102-18.5-20.5-32.898-20.5-15.801 0-29.301 10-34.398 24 0-0.19922-0.10156-0.39844-0.10156-0.60156-0.30078-2.6992-2.1992-4.8984-4.8008-5.3984-1.6992-0.39844-3.5 0-5 1-1.3984 1-2.3008 2.6016-2.5 4.3984v0.39844l1.1992 18c-0.19922 1.3008-0.69922 2.3984-1.6016 3.3008-1.6992 1.6992-1.6992 4.5 0 6.1992l13.898 13.801c0.89844 0.80078 2 1.3008 3.1016 1.3008 1.1016 0 2.3008-0.39844 3.1016-1.3008l0.60156-0.60156c0.39844-0.39844 0.89844-0.80078 1.3984-1 6.6016 6.1016 15.301 9.8984 25 9.8984 10.102 0 19.301-4.1992 26-10.801 0.30078 0.10156 0.69922 0.19922 1 0.30078 0.80078 0.19922 1.6016 0.60156 2.3008 1.1016l0.69922 0.60156c0.80078 0.60156 1.8008 1 2.8008 1h0.5c1.1992-0.10156 2.1992-0.69922 3-1.6016l12.301-15.301c1.5977-1.9922 1.2969-4.793-0.60156-6.293zm-47.801-37.297c12.699 0 23.699 7.5 28.699 18.398l-12.199-9.8984c-2.3984-2-5.8984-1.8984-8.1992 0.19922-0.60156 0.5-1 1.1992-1.3984 1.8008-2.5-1.1016-5.5-0.39844-7.3008 1.8008-0.10156 0.10156-0.10156 0.19922-0.19922 0.30078-0.30078-1-0.80078-2-1.6016-2.8008-2-2-5.1016-2.3008-7.5-0.89844-0.39844-0.60156-0.89844-1.1992-1.6016-1.6992-2.3984-1.8008-5.8984-1.5-8.1016 0.80078l-8.3008 8.3984c5.4023-9.8047 15.805-16.402 27.703-16.402zm-30 55.898l-0.19922 0.19922-13-12.898c1.5-1.6992 2.3984-3.8984 2.6016-6.1016v-0.39844l-1.1992-18c0.097656-0.30078 0.29688-0.5 0.49609-0.60156 0.19922-0.10156 0.5-0.30078 0.89844-0.19922 0.5 0.10156 0.80078 0.5 0.89844 1.1016 0.10156 0.60156 0.19922 1.5 0.39844 2.3008l0.80078 2.6992c0.5 1.6992 1.8008 3 3.5 3.3984 1.6992 0.39844 3.5-0.10156 4.6992-1.3008l14.301-14.5c0.39844-0.5 1.1016-0.60156 1.6016-0.19922 0.30078 0.19922 0.39844 0.5 0.5 0.80078 0 0.30078 0 0.60156-0.19922 0.80078-0.69922 0.69922-4.1016 4.1992-9.1992 9.3984l-0.10156 0.10156c-1 1-1 2.6016 0 3.6016s2.6016 1 3.6016 0l12.301-12.5c0.39844-0.39844 1.1016-0.39844 1.6016 0 0.39844 0.39844 0.39844 1.1992 0 1.6016l-9.1016 9.3008c-1.8984 1.8984-3.3984 3.5-3.5 3.5-1 1-1 2.6016 0 3.6016s2.6016 1 3.6016 0l1.5-1.6016c2.8008-2.8984 8.6016-8.6992 9.3008-9.3984 0.19922-0.19922 0.5-0.30078 0.80078-0.19922 0.19922 0 0.60156 0.10156 0.80078 0.5 0.30078 0.39844 0.19922 1.1016-0.19922 1.6016l-9.5 9.6992-1 1v0.10156c-1 1-1 2.6016 0 3.6016s2.6016 1 3.6016 0c0.19922-0.19922 2.3008-2.3008 4.1992-4.3008v0.60156c0.10156 0.69922 0.30078 1.3984 0.60156 2l-13.305 12.887s-3.6992 3.6992-8.1016 5.1992c-1.3984 0.60156-2.8008 1.5-4 2.6016zm30 7.3984c-7.6016 0-14.602-2.6992-20-7.1992 3.3984-2 5.8008-4.3984 5.8008-4.3984l13-13.301 17.5 14.102c0.10156 0.10156 1.8984 1.5 4.5 2.8984-5.5 4.8984-12.801 7.8984-20.801 7.8984zm32.602-8.1992l-0.19922-0.19922c-1.3008-1-2.8008-1.6992-4.3008-2.1016-4.5-1-8.6016-4.1992-8.6016-4.3008l-19.301-15.496c-0.30078-0.30078-0.39844-0.60156-0.39844-0.80078s0-0.5 0.19922-0.80078 0.60156-0.39844 0.89844-0.39844c0.19922 0 0.39844 0.10156 0.60156 0.19922 0.39844 0.30078 2.1016 1.6992 8 6.3984l0.5 0.39844c1.1016 0.89844 2.6992 0.69922 3.5-0.39844 0.89844-1.1016 0.69922-2.6992-0.39844-3.5l-11.699-9.3984c-0.5-0.39844-0.60156-1.1016-0.39844-1.5 0.19922-0.39844 0.5-0.5 0.69922-0.60156 0.30078-0.10156 0.60156 0 0.89844 0.10156 0.39844 0.30078 2.6016 2.1016 11.5 9.3008l0.39844 0.39844c1.1016 0.89844 2.6992 0.69922 3.5-0.39844 0.89844-1.1016 0.69922-2.6992-0.39844-3.5l-14-11.301c-0.30078-0.30078-0.39844-0.60156-0.39844-0.80078s0-0.5 0.19922-0.80078c0.39844-0.5 1.1016-0.60156 1.6016-0.19922l11.199 9c1.3984 1.1016 2.3984 1.8984 2.5 2 1.1016 0.89844 2.6992 0.69922 3.5-0.39844 0.89844-1.1016 0.69922-2.6992-0.39844-3.5l-0.30078-0.19922c-1.6016-1.3008-9-7.3008-10.102-8.1992-0.19922-0.19922-0.30078-0.5-0.19922-0.80078 0-0.19922 0.10156-0.5 0.39844-0.80078 0.39844-0.39844 1.1016-0.30078 1.6016 0.10156l15.898 12.801c1.3984 1.1016 3.1992 1.3984 4.8008 0.80078 1.6016-0.60156 2.8008-2 3.1016-3.8008l0.49609-3.0039c0.10156-0.89844 0.10156-1.6992 0.10156-2.3008 0-0.5 0.30078-1 0.80078-1.1016 0.39844-0.10156 0.80078 0 0.89844 0.10156 0.19922 0.10156 0.39844 0.30078 0.5 0.60156l0.89844 18c0 0.10156 0 0.30078 0.10156 0.39844 0.5 2.1992 1.6016 4.3008 3.3008 5.8008z"/>
 </g>
</svg>
