<?xml version="1.0" encoding="UTF-8"?>
<svg fill="#D50F1D" width="100pt" height="100pt" version="1.1" viewBox="0 0 100 100" xmlns="http://www.w3.org/2000/svg">
 <path d="m85.602 28.398h-4.8008v-2.3984c0-1.3008-1.1016-2.3984-2.3984-2.3984h-19-0.10156-0.10156c-4.6016 0-7.3984 1.1016-9.1016 2.6992-2.1016-2.3008-5.5-2.6992-9.1992-2.6992-0.10156 0-0.19922 0-0.30078 0.10156-0.10156 0-0.19922-0.10156-0.30078-0.10156h-19c-1.3008 0-2.3984 1.1016-2.3984 2.3984v2.3984h-4.8008c-1.3008 0-2.3984 1.1016-2.3984 2.3984v35.602c0 1.3008 1.1016 2.3984 2.3984 2.3984h24.602c2.6016 0 8.6992 0.5 8.6992 5.5 0 1.3008 1.1016 2.3984 2.3984 2.3984h0.19922 0.19922c1.3008 0 2.3984-1.1016 2.3984-2.3984 0-5 6.1016-5.5 8.6992-5.5h24.199c1.3008 0 2.3984-1.1016 2.3984-2.3984v-35.602c0.10938-1.2969-0.99219-2.3984-2.2891-2.3984zm-26.203 0h0.10156 16.602v28.5h-15.699c-0.10156 0-0.30078-0.10156-0.39844-0.10156-3.1016 0-5.6992 0.80078-7.6016 2.5v-24.5c-0.003906-4.5977 0.59766-6.3984 6.9961-6.3984zm-35.5 0h16.602c0.10156 0 0.19922 0 0.30078-0.10156 0.10156 0 0.19922 0.10156 0.30078 0.10156 6 0 6.5 1.1992 6.5 4.8008v26c-1.8984-1.5-4.1992-2.1992-7.1016-2.1992h-0.10156-16.5zm17.203 35.801c-0.19922-0.10156-0.39844-0.10156-0.60156-0.10156h-23.801v-30.898h2.3984v26.102c0 1.3008 1.1016 2.3984 2.3984 2.3984h19c0.10156 0 0.19922-0.10156 0.39844-0.10156 2 0 3.3984 0.5 4.3984 1.5 0.60156 0.60156 1.1016 1.3984 1.5 2.3984-1.6914-0.69531-3.4922-1.0977-5.6914-1.2969zm42.098-0.19922h-23.801c-0.30078 0-0.60156 0.10156-0.80078 0.19922-1.8008 0.19922-3.3984 0.69922-4.8008 1.3008 0.39844-0.89844 0.80078-1.6016 1.3984-2.1992 1-1.1016 2.3984-1.6016 4.3984-1.6016h18.898c1.3008 0 2.3984-1.1016 2.3984-2.3984v-26.102h2.3984l0.011719 30.801z"/>
</svg>
