<?xml version="1.0" encoding="utf-8"?>
<!-- Generator: Adobe Illustrator 21.1.0, SVG Export Plug-In . SVG Version: 6.00 Build 0)  -->
<svg version="1.1" id="Layer_1" xmlns="http://www.w3.org/2000/svg" xmlns:xlink="http://www.w3.org/1999/xlink" x="0px" y="0px"
	 viewBox="0 0 25 25" style="enable-background:new 0 0 25 25;" xml:space="preserve">
<style type="text/css">
	.st0{fill:#D50F1D;}
</style>
<g>
	<path class="st0" d="M15.4,12.5c0-2.8-2.5-5.1-5.9-5.1c-2.6,0-5.3,2.3-5.3,5.1c0,2.8,2.1,5.1,5.3,5.1c0.5,0,1.5-0.1,1.9-0.1
		l1.8,1.2v-1.9C14.5,15.7,15.4,14.3,15.4,12.5L15.4,12.5z M11.3,18.5c-0.4,0.1-1.4,0.1-1.8,0.1c-3.8,0-6.4-2.9-6.4-6.2
		c0-3.4,3.2-6.1,6.4-6.1c3.8,0,6.9,2.7,6.9,6.1c0,1.9-0.7,3.6-2.1,4.8v3L11.3,18.5z M16.8,16.8c-0.1,0-0.3,0-0.5,0.1
		c0.3-0.4,0.5-0.7,0.7-1.1l1.8,1.2v-1.9c1.3-1,2.1-2.5,2.1-4.2c0-2.8-2.5-5.1-5.9-5.1c-0.6,0-1.1,0.1-1.7,0.3
		c-0.5-0.2-0.9-0.4-1.4-0.5c1-0.5,2-0.8,3.1-0.8c3.8,0,6.9,2.7,6.9,6.1c0,1.9-0.7,3.6-2.1,4.8v3L16.8,16.8z"/>
	<path class="st0" d="M14.3,20.3L14.3,20.3l-3-1.8c-0.4,0.1-1.3,0.1-1.8,0.1c-1.8,0-3.5-0.7-4.7-1.9c-1.1-1.2-1.8-2.7-1.8-4.4
		c0-1.6,0.7-3.1,2-4.3C6.3,7,7.9,6.4,9.5,6.4c3.8,0,7,2.7,7,6.1c0,1.9-0.7,3.6-2.1,4.8L14.3,20.3z M11.3,18.5l3,1.7l0-3l0,0
		c1.4-1.2,2.1-2.8,2.1-4.8c0-3.3-3.1-6-6.9-6c-3,0-6.4,2.6-6.4,6c0,3.5,2.7,6.2,6.4,6.2C9.9,18.7,10.9,18.6,11.3,18.5L11.3,18.5z
		 M19.8,18.6l-3-1.8c-0.1,0-0.3,0-0.5,0.1l-0.1,0l0,0c0.2-0.4,0.5-0.7,0.7-1.1l0,0l1.8,1.2v-1.9l0,0c1.4-1.1,2.1-2.6,2.1-4.2
		c0-2.8-2.6-5-5.8-5c-0.5,0-1.1,0.1-1.7,0.3l0,0l0,0c-0.5-0.2-0.9-0.4-1.4-0.5l-0.1,0l0.1,0c1-0.6,2.1-0.8,3.1-0.8
		c3.8,0,7,2.7,7,6.1c0,1.9-0.7,3.6-2.1,4.8L19.8,18.6L19.8,18.6z M16.8,16.8L16.8,16.8l3,1.7v-3l0,0c1.4-1.2,2.1-2.8,2.1-4.7
		c0-3.3-3.1-6-6.9-6c-1,0-2.1,0.3-3,0.8c0.4,0.1,0.9,0.3,1.3,0.5c0.6-0.2,1.1-0.3,1.7-0.3c3.3,0,5.9,2.2,5.9,5.1
		c0,1.7-0.7,3.1-2.1,4.3V17l-1.8-1.2c-0.2,0.4-0.4,0.7-0.6,1.1C16.5,16.8,16.7,16.8,16.8,16.8L16.8,16.8z"/>
</g>
</svg>
