<?xml version="1.0" encoding="utf-8"?>
<!-- Generator: Adobe Illustrator 23.0.2, SVG Export Plug-In . SVG Version: 6.00 Build 0)  -->
<svg version="1.1" id="Layer_1" xmlns="http://www.w3.org/2000/svg" xmlns:xlink="http://www.w3.org/1999/xlink" x="0px" y="0px"
	 viewBox="0 0 452.5 202.67" style="enable-background:new 0 0 452.5 202.67;" xml:space="preserve">
<style type="text/css">
	.st0{fill:#00A0DF;}
	.st1{fill:#00205C;}
	.st2{fill:#385CAD;}
	.st3{fill:#194F90;}
</style>
<g>
	<path class="st0" d="M386.39,107.98v22.36c0,4.67-0.94,7.66-3.58,9.98c-2.52,2.3-6.07,3.7-10.22,3.7c-4.48,0-8.06-1.64-10.34-3.93
		c-2.3-2.23-3.46-5.57-3.46-9.72v-22.4h6.7l-0.02,22.25c0,4.82,3.2,7.71,7.11,7.71c1.89,0,4.23-0.73,5.63-2.37
		c1.11-1.34,1.4-2.47,1.4-5.21l0.02-22.38H386.39z"/>
	<path class="st0" d="M324.11,125.63c0,7.56,4.76,12.18,11.13,12.18c6.13,0,11.05-4.76,11.05-12.18c0-6.96-4.08-12.24-10.98-12.24
		C328.28,113.39,324.11,118.72,324.11,125.63 M353.12,125.7c0,10.01-7.66,18.32-18.02,18.32c-10.72,0-17.8-7.94-17.8-18.47
		c0-11.18,7.64-18.39,18.02-18.39C345.88,107.16,353.12,115.18,353.12,125.7"/>
	<path class="st0" d="M304.44,107.99v3.93c0.82-1.4,1.39-1.89,2.72-2.93c1.53-1.03,3.79-1.83,6.3-1.83h1.92v6.83
		c-0.85-0.15-1.72-0.15-2.09-0.15c-3.18,0.02-5.53,1.52-7.23,4.04c-1.2,1.94-1.62,3.5-1.62,7.43l-0.05,17.89h-6.66v-35.22
		L304.44,107.99z"/>
	<path class="st0" d="M263.6,125.48c0,7.34,4.68,12.29,10.8,12.29c3.26,0,5.86-1.49,8.11-3.95c1.73-2.07,2.35-5.23,2.35-8.64
		c0-4.45-0.93-6.38-2.93-8.61c-1.88-1.73-4.48-3.19-7.52-3.19C268.33,113.39,263.6,118.07,263.6,125.48 M285.02,107.99h6.67v34.91
		c-0.13,6.96-1.91,10.41-5.05,13.24c-3.04,2.97-7.39,4.34-12.58,4.34c-7.41,0-12.18-2.61-15.89-6.76l4.6-4.58
		c1.56,1.63,2.44,2.51,3.4,3.17c1.93,1.19,5.42,2.04,7.97,1.99c3.58-0.07,6.47-1.2,8.42-3.14c1.35-1.57,2.45-3.98,2.45-7.54v-5.86
		c-2.77,3.77-6.54,6.28-12.19,6.23c-9.68-0.09-16.22-8.21-16.22-18.37c0-5.27,1.92-10.76,5.33-14.02c2.75-2.83,6.56-4.44,10.94-4.44
		c5.19,0,8.63,1.41,12.14,5.7V107.99z"/>
	<path class="st0" d="M398.69,126.15c0,7.49,4.68,11.94,10.79,11.94c6.43,0,10.72-4.92,10.72-12.71c0-4-0.87-6.61-2.87-8.83
		c-2.32-2.29-5.18-3.29-7.66-3.29C403.45,113.26,398.69,118.14,398.69,126.15 M398.74,113.05c3.73-5.17,8.21-5.89,11.92-5.89
		c9.49,0,16.61,7.25,16.61,18.17c0,10.75-6.54,18.63-16.61,18.68c-2.67,0.01-5.12-0.53-7.49-1.72c-2.09-1-3.35-2.01-4.46-3.5v20.43
		h-6.67v-51.24h6.69V113.05z"/>
</g>
<g>
	<path class="st1" d="M94.36,108.03v22.4c0,5.12-1.01,7.98-3.98,10.49c-2.89,2.42-7.11,3.56-11.32,3.56c-4.85,0-9-1.32-11.81-3.9
		c-2.3-2.11-3.66-5.38-3.66-10.15l0.04-22.4h8.9v21.77c0,4.07,2.44,7.29,6.54,7.29c4.16,0,6.39-2.83,6.39-6.67v-22.39L94.36,108.03z
		"/>
	<path class="st1" d="M109.47,108.03v7.56c1.02-2.66,1.98-5.77,3.75-6.96c1.32-1.02,3.28-1.72,4.9-1.81
		c0.24-0.01,1.24-0.05,1.63-0.02v9.15c-0.78-0.08-1.3-0.09-1.85-0.09c-2.87,0-5.44,1.48-6.85,3.51c-1.18,1.64-1.55,3.13-1.55,6.91
		l-0.02,16.92h-8.94v-35.18H109.47z"/>
	<path class="st1" d="M131.65,125.89c0,6.33,4.07,11.59,10.02,11.59c6.07,0,10.52-5.65,10.52-11.9c0-6.41-4.06-11.44-10.44-11.44
		C135.57,114.13,131.65,119.25,131.65,125.89 M152.02,108.04h8.89l0.03,35.17h-8.92l0.02-5.98c-3.81,5.31-7.79,7.26-13.1,7.26
		c-9.53,0-16.93-7.41-16.93-18.44c0-11.42,7.72-19.29,17.71-19.29c4.93,0,8.68,1.92,12.3,6.76V108.04z"/>
	<path class="st1" d="M221.18,125.89c0,6.33,4.07,11.59,10.02,11.59c6.07,0,10.52-5.65,10.52-11.9c0-6.41-4.06-11.44-10.44-11.44
		C225.09,114.13,221.18,119.25,221.18,125.89 M241.55,108.04h8.89l0.03,35.17h-8.92l0.02-5.98c-3.81,5.31-7.79,7.26-13.1,7.26
		c-9.53,0-16.93-7.41-16.93-18.44c0-11.42,7.72-19.29,17.71-19.29c4.93,0,8.68,1.92,12.3,6.76V108.04z"/>
	<path class="st1" d="M183.63,117.51v-0.29c0-2.19-2.02-4.11-5.11-4.11c-3,0-4.49,1.83-4.49,3.79c0,0.94,0.28,1.94,1.28,2.8
		c1.1,0.86,1.42,0.94,6.43,2.5c8.14,2.5,10.86,5.77,10.86,11.04c0,6.5-5.15,11.22-13.6,11.22c-6.67,0-12.88-2.77-13.69-10.88h8.58
		c0.47,3.13,2.32,4.53,5.3,4.53c2.75,0,4.38-1.91,4.38-3.94c0-2.59-1.77-3.69-7.09-5.34c-7.32-2.23-11-5.37-11-11.08
		c0-6.88,5.77-10.99,13.52-10.99c6.93,0,12.47,3.24,13.03,10.74H183.63z"/>
	<rect x="197.89" y="107.98" class="st1" width="8.99" height="35.28"/>
	<g>
		<path class="st1" d="M49.8,121.47c-0.96-3.96-3.46-7.32-9.57-7.32c-5.54,0-8.46,3.55-9.26,7.32H49.8z M30.64,127.46
			c0.86,5,4.04,9.15,10,9.15c3.67,0,7.16-1.68,8.73-4.58l8.14,2.24c-3.35,6.49-9.79,10.16-16.82,10.16
			c-10.96,0-19.17-7.6-19.17-18.85c0-11.34,7.89-18.82,18.54-18.82c11.27,0,18.78,7.93,19.15,18.7l-0.11,1.99H30.64z"/>
	</g>
</g>
<path class="st2" d="M206.24,102.61c14.33-5.61,21.52-21.44,16.07-35.36c-5.45-13.92-21.48-20.66-35.81-15.05l3.32,8.48
	c9.51-3.72,20.15,0.75,23.76,9.99c3.62,9.24-1.16,19.75-10.67,23.47L206.24,102.61z"/>
<path class="st3" d="M179.13,80.97l7.67-3.02l-3.46-8.77l-8.4,3.31c0.2,1.07,0.49,2.13,0.9,3.18
	C176.63,77.67,177.76,79.44,179.13,80.97z"/>
<path class="st1" d="M199.61,85.66c-7.44,2.91-15.56,0.79-20.48-4.69c-1.37-1.52-2.5-3.29-3.29-5.3c-0.41-1.05-0.7-2.11-0.9-3.18
	c-1.56-8.36,3.14-16.99,11.57-20.29l-3.32-8.48c-14.33,5.61-21.52,21.44-16.07,35.36c5.45,13.92,21.48,20.66,35.81,15.05
	L199.61,85.66z"/>
<rect x="197.55" y="74.83" transform="matrix(0.9304 -0.3665 0.3665 0.9304 -15.0769 79.6659)" class="st0" width="9.43" height="9.43"/>
</svg>
