<?xml version="1.0" encoding="UTF-8"?>
<svg id="Layer_1" xmlns="http://www.w3.org/2000/svg" version="1.1" viewBox="0 0 650 305.06">
  <!-- Generator: Adobe Illustrator 30.1.0, SVG Export Plug-In . SVG Version: 2.1.1 Build 136)  -->
  <defs>
    <style>
      .st0 {
        fill: none;
      }

      .st1 {
        isolation: isolate;
      }

      .st2 {
        fill: #4032e7;
      }

      .st3 {
        fill: #ffaf34;
      }

      .st4 {
        fill: #d1892a;
      }
    </style>
  </defs>
  <polygon class="st2" points="373.73 237 373.6 235.5 474.75 227.16 525.23 164.91 525.33 164.85 626.31 96.96 627.15 98.2 526.25 166.03 475.51 228.61 373.73 237"/>
  <g>
    <g>
      <rect x="343.88" y="256.72" width="298.88" height="1"/>
      <g>
        <line class="st0" x1="343.88" y1="257.22" x2="343.88" y2="253.03"/>
        <line class="st0" x1="386.23" y1="257.22" x2="386.23" y2="253.03"/>
        <line class="st0" x1="411.58" y1="257.22" x2="411.58" y2="253.03"/>
        <line class="st0" x1="436.93" y1="257.22" x2="436.93" y2="253.03"/>
        <line class="st0" x1="462.29" y1="257.22" x2="462.29" y2="253.03"/>
        <line class="st0" x1="487.64" y1="257.22" x2="487.64" y2="253.03"/>
        <line class="st0" x1="512.99" y1="257.22" x2="512.99" y2="253.03"/>
        <line class="st0" x1="538.35" y1="257.22" x2="538.35" y2="253.03"/>
        <line class="st0" x1="563.7" y1="257.22" x2="563.7" y2="253.03"/>
        <line class="st0" x1="589.05" y1="257.22" x2="589.05" y2="253.03"/>
        <line class="st0" x1="614.41" y1="257.22" x2="614.41" y2="253.03"/>
        <line class="st0" x1="639.76" y1="257.22" x2="639.76" y2="253.03"/>
      </g>
    </g>
    <g>
      <g>
        <g class="st1">
          <g class="st1">
            <path d="M347.54,251.01v-3.38c0-1.67,1.34-2.66,2.71-2.66s2.71,1,2.71,2.66v3.38c0,1.67-1.34,2.66-2.71,2.66s-2.71-1-2.71-2.66ZM352,250.95v-3.26c0-1.02-.74-1.8-1.75-1.8s-1.75.78-1.75,1.8v3.26c0,1.03.73,1.8,1.75,1.8s1.75-.77,1.75-1.8Z"/>
          </g>
        </g>
        <g class="st1">
          <g class="st1">
            <path d="M347.49,228.51c0-1.12.6-1.81,1.69-2.51l1.52-.96c.55-.35.94-.85.94-1.59,0-.88-.59-1.54-1.63-1.54-.95,0-1.62.7-1.62,1.55h-.91c0-1.15.89-2.46,2.55-2.46s2.6,1.18,2.6,2.42c0,.97-.46,1.73-1.44,2.35l-1.48.94c-.98.62-1.26,1.1-1.26,1.76v.19h4.25v.89h-5.22v-1.04Z"/>
            <path d="M354.57,227.04v-3.38c0-1.67,1.34-2.66,2.71-2.66s2.71,1,2.71,2.66v3.38c0,1.67-1.34,2.66-2.71,2.66s-2.71-1-2.71-2.66ZM359.03,226.98v-3.26c0-1.02-.74-1.8-1.75-1.8s-1.75.78-1.75,1.8v3.26c0,1.03.73,1.8,1.75,1.8s1.75-.77,1.75-1.8Z"/>
          </g>
        </g>
        <g class="st1">
          <g class="st1">
            <path d="M350.96,203.46h-3.66v-.77l2.67-5.5h1.02l-2.57,5.34v.07h2.53v-1.89h.96v1.89h1.1v.86h-1.1v2.12h-.96v-2.12Z"/>
            <path d="M354.58,203.07v-3.38c0-1.67,1.34-2.66,2.71-2.66s2.71,1,2.71,2.66v3.38c0,1.67-1.34,2.66-2.71,2.66s-2.71-1-2.71-2.66ZM359.04,203.01v-3.26c0-1.02-.74-1.8-1.75-1.8s-1.75.78-1.75,1.8v3.26c0,1.03.73,1.8,1.75,1.8s1.75-.77,1.75-1.8Z"/>
          </g>
        </g>
        <g class="st1">
          <g class="st1">
            <path d="M347.48,179c0-.58.18-1.1.43-1.56l2.36-4.22h1.1l-1.87,3.13.05.05c.19-.08.5-.14.77-.14,1.6,0,2.77,1.18,2.77,2.75s-1.24,2.77-2.82,2.77-2.79-1.19-2.79-2.77ZM352.1,179c0-1.02-.72-1.87-1.82-1.87s-1.81.85-1.81,1.87.72,1.86,1.81,1.86,1.82-.83,1.82-1.86Z"/>
            <path d="M355.08,179.1v-3.38c0-1.67,1.34-2.66,2.71-2.66s2.71,1,2.71,2.66v3.38c0,1.67-1.34,2.66-2.71,2.66s-2.71-1-2.71-2.66ZM359.54,179.04v-3.26c0-1.02-.74-1.8-1.75-1.8s-1.75.78-1.75,1.8v3.26c0,1.03.73,1.8,1.75,1.8s1.75-.77,1.75-1.8Z"/>
          </g>
        </g>
        <g class="st1">
          <g class="st1">
            <path d="M347.48,155.29c0-1.24.89-1.88,1.42-2.1v-.07c-.44-.23-1.06-.84-1.06-1.79,0-1.34,1.1-2.24,2.45-2.24s2.45.9,2.45,2.24c0,.95-.61,1.56-1.06,1.79v.07c.53.22,1.42.86,1.42,2.1,0,1.52-1.15,2.51-2.81,2.51s-2.81-.98-2.81-2.51ZM352.1,155.29c0-1.06-.83-1.64-1.81-1.64s-1.81.59-1.81,1.64c0,.88.65,1.62,1.81,1.62s1.81-.74,1.81-1.62ZM351.75,151.37c0-.76-.55-1.38-1.46-1.38s-1.46.62-1.46,1.38.59,1.39,1.46,1.39,1.46-.64,1.46-1.39Z"/>
            <path d="M355.08,155.13v-3.38c0-1.67,1.34-2.66,2.71-2.66s2.71,1,2.71,2.66v3.38c0,1.67-1.34,2.66-2.71,2.66s-2.71-1-2.71-2.66ZM359.54,155.07v-3.26c0-1.02-.74-1.8-1.75-1.8s-1.75.78-1.75,1.8v3.26c0,1.03.73,1.8,1.75,1.8s1.75-.77,1.75-1.8Z"/>
          </g>
        </g>
        <g class="st1">
          <g class="st1">
            <path d="M349.64,127.25h-2.04v-.78c1.54,0,2.1-.35,2.1-1.2h.91v8.4h-.97v-6.42Z"/>
            <path d="M352.95,131.16v-3.38c0-1.67,1.34-2.66,2.71-2.66s2.71,1,2.71,2.66v3.38c0,1.67-1.34,2.66-2.71,2.66s-2.71-1-2.71-2.66ZM357.41,131.1v-3.26c0-1.02-.74-1.8-1.75-1.8s-1.75.78-1.75,1.8v3.26c0,1.03.73,1.8,1.75,1.8s1.75-.77,1.75-1.8Z"/>
            <path d="M360.42,131.16v-3.38c0-1.67,1.34-2.66,2.71-2.66s2.71,1,2.71,2.66v3.38c0,1.67-1.34,2.66-2.71,2.66s-2.71-1-2.71-2.66ZM364.88,131.1v-3.26c0-1.02-.74-1.8-1.75-1.8s-1.75.78-1.75,1.8v3.26c0,1.03.73,1.8,1.75,1.8s1.75-.77,1.75-1.8Z"/>
          </g>
        </g>
        <g class="st1">
          <g class="st1">
            <path d="M349.64,103.29h-2.04v-.78c1.54,0,2.1-.35,2.1-1.2h.91v8.4h-.97v-6.42Z"/>
            <path d="M352.9,108.67c0-1.12.6-1.81,1.69-2.51l1.52-.96c.55-.35.94-.85.94-1.59,0-.88-.59-1.54-1.63-1.54-.95,0-1.62.7-1.62,1.55h-.91c0-1.15.89-2.46,2.55-2.46s2.6,1.18,2.6,2.42c0,.97-.46,1.73-1.44,2.35l-1.48.94c-.98.62-1.26,1.1-1.26,1.76v.19h4.25v.89h-5.22v-1.04Z"/>
            <path d="M359.98,107.2v-3.38c0-1.67,1.34-2.66,2.71-2.66s2.71,1,2.71,2.66v3.38c0,1.67-1.34,2.66-2.71,2.66s-2.71-1-2.71-2.66ZM364.44,107.14v-3.26c0-1.02-.74-1.8-1.75-1.8s-1.75.78-1.75,1.8v3.26c0,1.03.73,1.8,1.75,1.8s1.75-.77,1.75-1.8Z"/>
          </g>
        </g>
        <g class="st1">
          <g class="st1">
            <path d="M349.64,79.32h-2.04v-.78c1.54,0,2.1-.35,2.1-1.2h.91v8.4h-.97v-6.42Z"/>
            <path d="M356.13,83.62h-3.66v-.77l2.67-5.5h1.02l-2.57,5.34v.07h2.53v-1.89h.96v1.89h1.1v.86h-1.1v2.12h-.96v-2.12Z"/>
            <path d="M359.75,83.23v-3.38c0-1.67,1.34-2.66,2.71-2.66s2.71,1,2.71,2.66v3.38c0,1.67-1.34,2.66-2.71,2.66s-2.71-1-2.71-2.66ZM364.22,83.17v-3.26c0-1.02-.74-1.8-1.75-1.8s-1.75.78-1.75,1.8v3.26c0,1.03.73,1.8,1.75,1.8s1.75-.77,1.75-1.8Z"/>
          </g>
        </g>
      </g>
      <line class="st0" x1="343.88" y1="257.22" x2="343.88" y2="89.44"/>
      <g>
        <rect x="343.88" y="257.09" width="298.88" height=".25"/>
        <rect x="343.88" y="233.12" width="298.88" height=".25"/>
        <rect x="343.88" y="209.17" width="298.88" height=".25"/>
        <rect x="343.88" y="185.2" width="298.88" height=".25"/>
        <rect x="343.88" y="161.22" width="298.88" height=".25"/>
        <rect x="343.88" y="137.25" width="298.88" height=".25"/>
        <rect x="343.88" y="113.29" width="298.88" height=".25"/>
        <rect x="343.88" y="89.31" width="298.88" height=".25"/>
      </g>
    </g>
    <g>
      <rect class="st2" x="370.55" y="233.61" width="6" height="6.48"/>
      <rect class="st2" x="471.96" y="224.86" width="6" height="6.48"/>
      <rect class="st2" x="522.67" y="163.14" width="6" height="6.48"/>
      <rect class="st2" x="624.08" y="93.63" width="6" height="6.48"/>
    </g>
    <g>
      <g class="st1">
        <g class="st1">
          <path d="M613.41,269.39c0-1.12.6-1.81,1.69-2.51l1.52-.96c.55-.35.94-.85.94-1.59,0-.88-.59-1.54-1.63-1.54-.95,0-1.62.7-1.62,1.55h-.91c0-1.15.89-2.46,2.55-2.46s2.6,1.18,2.6,2.42c0,.97-.46,1.73-1.44,2.35l-1.47.94c-.98.62-1.26,1.1-1.26,1.76v.19h4.25v.89h-5.22v-1.04Z"/>
          <path d="M620.49,267.92v-3.38c0-1.67,1.34-2.66,2.71-2.66s2.71,1,2.71,2.66v3.38c0,1.67-1.34,2.66-2.71,2.66s-2.71-1-2.71-2.66ZM624.95,267.86v-3.26c0-1.02-.74-1.8-1.75-1.8s-1.75.78-1.75,1.8v3.26c0,1.03.73,1.8,1.75,1.8s1.75-.77,1.75-1.8Z"/>
          <path d="M627.9,268.12h.91c.02.88.71,1.55,1.69,1.55,1.07,0,1.8-.67,1.8-1.78s-.79-1.75-1.82-1.75h-.97v-.83l2.22-2.31v-.07h-3.63v-.89h4.88v.9l-2.25,2.29v.07c1.43.05,2.58,1.1,2.58,2.57s-1.01,2.71-2.79,2.71-2.6-1.37-2.6-2.46Z"/>
          <path d="M635.28,267.92v-3.38c0-1.67,1.34-2.66,2.71-2.66s2.71,1,2.71,2.66v3.38c0,1.67-1.34,2.66-2.71,2.66s-2.71-1-2.71-2.66ZM639.74,267.86v-3.26c0-1.02-.74-1.8-1.75-1.8s-1.75.78-1.75,1.8v3.26c0,1.03.73,1.8,1.75,1.8s1.75-.77,1.75-1.8Z"/>
        </g>
      </g>
      <g class="st1">
        <g class="st1">
          <path d="M562.81,269.39c0-1.12.6-1.81,1.69-2.51l1.52-.96c.55-.35.94-.85.94-1.59,0-.88-.59-1.54-1.63-1.54-.95,0-1.62.7-1.62,1.55h-.91c0-1.15.89-2.46,2.55-2.46s2.6,1.18,2.6,2.42c0,.97-.46,1.73-1.44,2.35l-1.48.94c-.98.62-1.26,1.1-1.26,1.76v.19h4.25v.89h-5.22v-1.04Z"/>
          <path d="M569.89,267.92v-3.38c0-1.67,1.34-2.66,2.71-2.66s2.71,1,2.71,2.66v3.38c0,1.67-1.34,2.66-2.71,2.66s-2.71-1-2.71-2.66ZM574.35,267.86v-3.26c0-1.02-.74-1.8-1.75-1.8s-1.75.78-1.75,1.8v3.26c0,1.03.73,1.8,1.75,1.8s1.75-.77,1.75-1.8Z"/>
          <path d="M577.31,269.39c0-1.12.6-1.81,1.69-2.51l1.52-.96c.55-.35.94-.85.94-1.59,0-.88-.59-1.54-1.63-1.54-.95,0-1.62.7-1.62,1.55h-.91c0-1.15.89-2.46,2.55-2.46s2.6,1.18,2.6,2.42c0,.97-.46,1.73-1.44,2.35l-1.48.94c-.98.62-1.26,1.1-1.26,1.76v.19h4.25v.89h-5.22v-1.04Z"/>
          <path d="M584.33,268.08c0-1.24.89-1.88,1.42-2.1v-.07c-.44-.23-1.05-.84-1.05-1.79,0-1.34,1.1-2.24,2.45-2.24s2.45.9,2.45,2.24c0,.95-.61,1.56-1.05,1.79v.07c.53.22,1.42.86,1.42,2.1,0,1.52-1.15,2.51-2.81,2.51s-2.81-.98-2.81-2.51ZM588.95,268.08c0-1.06-.83-1.64-1.81-1.64s-1.81.59-1.81,1.64c0,.88.65,1.62,1.81,1.62s1.81-.74,1.81-1.62ZM588.6,264.16c0-.76-.55-1.38-1.46-1.38s-1.46.62-1.46,1.38.59,1.39,1.46,1.39,1.46-.64,1.46-1.39Z"/>
        </g>
      </g>
      <g class="st1">
        <g class="st1">
          <path d="M512.11,269.39c0-1.12.6-1.81,1.69-2.51l1.52-.96c.55-.35.94-.85.94-1.59,0-.88-.59-1.54-1.63-1.54-.95,0-1.62.7-1.62,1.55h-.91c0-1.15.89-2.46,2.55-2.46s2.6,1.18,2.6,2.42c0,.97-.46,1.73-1.44,2.35l-1.48.94c-.98.62-1.26,1.1-1.26,1.76v.19h4.25v.89h-5.22v-1.04Z"/>
          <path d="M519.19,267.92v-3.38c0-1.67,1.34-2.66,2.71-2.66s2.71,1,2.71,2.66v3.38c0,1.67-1.34,2.66-2.71,2.66s-2.71-1-2.71-2.66ZM523.65,267.86v-3.26c0-1.02-.74-1.8-1.75-1.8s-1.75.78-1.75,1.8v3.26c0,1.03.73,1.8,1.75,1.8s1.75-.77,1.75-1.8Z"/>
          <path d="M526.61,269.39c0-1.12.6-1.81,1.69-2.51l1.52-.96c.55-.35.94-.85.94-1.59,0-.88-.59-1.54-1.63-1.54-.95,0-1.62.7-1.62,1.55h-.91c0-1.15.89-2.46,2.55-2.46s2.6,1.18,2.6,2.42c0,.97-.46,1.73-1.44,2.35l-1.48.94c-.98.62-1.26,1.1-1.26,1.76v.19h4.25v.89h-5.22v-1.04Z"/>
          <path d="M533.33,267.82c0-.58.18-1.1.43-1.56l2.36-4.22h1.1l-1.87,3.13.05.05c.19-.08.5-.14.77-.14,1.59,0,2.77,1.18,2.77,2.75s-1.24,2.77-2.82,2.77-2.79-1.19-2.79-2.77ZM537.95,267.82c0-1.02-.72-1.87-1.82-1.87s-1.81.85-1.81,1.87.72,1.86,1.81,1.86,1.82-.83,1.82-1.86Z"/>
        </g>
      </g>
      <g class="st1">
        <g class="st1">
          <path d="M461.53,269.39c0-1.12.6-1.81,1.69-2.51l1.52-.96c.55-.35.94-.85.94-1.59,0-.88-.59-1.54-1.63-1.54-.95,0-1.62.7-1.62,1.55h-.91c0-1.15.89-2.46,2.55-2.46s2.6,1.18,2.6,2.42c0,.97-.46,1.73-1.44,2.35l-1.48.94c-.98.62-1.26,1.1-1.26,1.76v.19h4.25v.89h-5.22v-1.04Z"/>
          <path d="M468.61,267.92v-3.38c0-1.67,1.34-2.66,2.71-2.66s2.71,1,2.71,2.66v3.38c0,1.67-1.34,2.66-2.71,2.66s-2.71-1-2.71-2.66ZM473.07,267.86v-3.26c0-1.02-.74-1.8-1.75-1.8s-1.75.78-1.75,1.8v3.26c0,1.03.73,1.8,1.75,1.8s1.75-.77,1.75-1.8Z"/>
          <path d="M476.03,269.39c0-1.12.6-1.81,1.69-2.51l1.52-.96c.55-.35.94-.85.94-1.59,0-.88-.59-1.54-1.63-1.54-.95,0-1.62.7-1.62,1.55h-.91c0-1.15.89-2.46,2.55-2.46s2.6,1.18,2.6,2.42c0,.97-.46,1.73-1.44,2.35l-1.48.94c-.98.62-1.26,1.1-1.26,1.76v.19h4.25v.89h-5.22v-1.04Z"/>
          <path d="M486.04,268.31h-3.66v-.77l2.67-5.5h1.02l-2.57,5.34v.07h2.53v-1.89h.96v1.89h1.1v.86h-1.1v2.12h-.96v-2.12Z"/>
        </g>
      </g>
      <g class="st1">
        <g class="st1">
          <path d="M410.95,269.39c0-1.12.6-1.81,1.69-2.51l1.52-.96c.55-.35.94-.85.94-1.59,0-.88-.59-1.54-1.63-1.54-.95,0-1.62.7-1.62,1.55h-.91c0-1.15.89-2.46,2.55-2.46s2.6,1.18,2.6,2.42c0,.97-.46,1.73-1.44,2.35l-1.47.94c-.98.62-1.26,1.1-1.26,1.76v.19h4.25v.89h-5.22v-1.04Z"/>
          <path d="M418.03,267.92v-3.38c0-1.67,1.34-2.66,2.71-2.66s2.71,1,2.71,2.66v3.38c0,1.67-1.34,2.66-2.71,2.66s-2.71-1-2.71-2.66ZM422.49,267.86v-3.26c0-1.02-.74-1.8-1.75-1.8s-1.75.78-1.75,1.8v3.26c0,1.03.73,1.8,1.75,1.8s1.75-.77,1.75-1.8Z"/>
          <path d="M425.45,269.39c0-1.12.6-1.81,1.69-2.51l1.52-.96c.55-.35.94-.85.94-1.59,0-.88-.59-1.54-1.63-1.54-.95,0-1.62.7-1.62,1.55h-.91c0-1.15.89-2.46,2.55-2.46s2.6,1.18,2.6,2.42c0,.97-.46,1.73-1.44,2.35l-1.47.94c-.98.62-1.26,1.1-1.26,1.76v.19h4.25v.89h-5.22v-1.04Z"/>
          <path d="M432.48,269.39c0-1.12.6-1.81,1.69-2.51l1.52-.96c.55-.35.94-.85.94-1.59,0-.88-.59-1.54-1.63-1.54-.95,0-1.62.7-1.62,1.55h-.91c0-1.15.89-2.46,2.55-2.46s2.6,1.18,2.6,2.42c0,.97-.46,1.73-1.44,2.35l-1.48.94c-.98.62-1.26,1.1-1.26,1.76v.19h4.25v.89h-5.22v-1.04Z"/>
        </g>
      </g>
      <g class="st1">
        <g class="st1">
          <path d="M360.03,269.39c0-1.12.6-1.81,1.69-2.51l1.52-.96c.55-.35.94-.85.94-1.59,0-.88-.59-1.54-1.63-1.54-.95,0-1.62.7-1.62,1.55h-.91c0-1.15.89-2.46,2.55-2.46s2.6,1.18,2.6,2.42c0,.97-.46,1.73-1.44,2.35l-1.48.94c-.98.62-1.26,1.1-1.26,1.76v.19h4.25v.89h-5.22v-1.04Z"/>
          <path d="M367.11,267.92v-3.38c0-1.67,1.34-2.66,2.71-2.66s2.71,1,2.71,2.66v3.38c0,1.67-1.34,2.66-2.71,2.66s-2.71-1-2.71-2.66ZM371.57,267.86v-3.26c0-1.02-.74-1.8-1.75-1.8s-1.75.78-1.75,1.8v3.26c0,1.03.73,1.8,1.75,1.8s1.75-.77,1.75-1.8Z"/>
          <path d="M374.53,269.39c0-1.12.6-1.81,1.69-2.51l1.52-.96c.55-.35.94-.85.94-1.59,0-.88-.59-1.54-1.63-1.54-.95,0-1.62.7-1.62,1.55h-.91c0-1.15.89-2.46,2.55-2.46s2.6,1.18,2.6,2.42c0,.97-.46,1.73-1.44,2.35l-1.48.94c-.98.62-1.26,1.1-1.26,1.76v.19h4.25v.89h-5.22v-1.04Z"/>
          <path d="M381.61,267.92v-3.38c0-1.67,1.34-2.66,2.71-2.66s2.71,1,2.71,2.66v3.38c0,1.67-1.34,2.66-2.71,2.66s-2.71-1-2.71-2.66ZM386.07,267.86v-3.26c0-1.02-.74-1.8-1.75-1.8s-1.75.78-1.75,1.8v3.26c0,1.03.73,1.8,1.75,1.8s1.75-.77,1.75-1.8Z"/>
        </g>
      </g>
    </g>
  </g>
  <g>
    <path d="M365.89,63.65c0-2.68,1.98-4.72,4.68-4.72,2.09,0,3.68,1.24,4.28,2.95h-1.17c-.48-1.18-1.57-1.96-3.11-1.96-2.15,0-3.59,1.6-3.59,3.73s1.47,3.73,3.61,3.73c1.86,0,3.31-1.22,3.38-3.04h-3.69v-.92h4.88c.01,3.29-2.12,4.95-4.58,4.95-2.7,0-4.69-2.02-4.69-4.72Z"/>
    <path d="M376.98,61.44h1.01v1.26h.08c.19-.57.86-1.26,1.85-1.26h.57v1.03h-.56c-1.23,0-1.92.96-1.92,2.25v3.48h-1.03v-6.76Z"/>
    <path d="M381.97,59.47c0-.42.31-.74.74-.74s.75.33.75.74-.31.75-.75.75-.74-.32-.74-.75ZM382.18,61.44h1.03v6.76h-1.03s0-6.76,0-6.76Z"/>
    <path d="M384.89,64.83c0-2.08,1.38-3.56,3.29-3.56,1.42,0,2.17.91,2.38,1.26h.08v-4.08h1.03v9.75h-.99v-1.07h-.08c-.17.25-.87,1.23-2.34,1.23-1.99,0-3.37-1.47-3.37-3.54h0ZM390.68,64.83c0-1.66-1.04-2.63-2.38-2.63s-2.35,1.09-2.35,2.63.96,2.61,2.38,2.61,2.35-1.2,2.35-2.61Z"/>
    <path d="M397.52,61.44h.99v1.07h.08c.17-.25.87-1.23,2.34-1.23,1.99,0,3.37,1.47,3.37,3.54s-1.38,3.56-3.29,3.56c-1.42,0-2.17-.91-2.38-1.26h-.08v4.08h-1.03v-9.75h0ZM403.24,64.81c0-1.59-.96-2.61-2.38-2.61s-2.35,1.2-2.35,2.61c0,1.66,1.04,2.63,2.38,2.63s2.35-1.09,2.35-2.63Z"/>
    <path d="M405.59,64.82c0-2.04,1.52-3.55,3.54-3.55s3.52,1.52,3.52,3.55-1.51,3.55-3.54,3.55-3.52-1.5-3.52-3.55ZM411.6,64.82c0-1.49-1.03-2.61-2.48-2.61s-2.47,1.13-2.47,2.61,1.03,2.61,2.47,2.61,2.48-1.1,2.48-2.61Z"/>
    <path d="M413.49,61.44h1.12l1.64,5.59h.08l1.79-5.59h1.17l1.78,5.59h.08l1.65-5.59h1.12l-2.12,6.76h-1.33l-1.73-5.49h-.08l-1.74,5.49h-1.33l-2.11-6.76h0Z"/>
    <path d="M424.7,64.82c0-2.16,1.47-3.55,3.32-3.55,2.05,0,3.28,1.51,3.28,3.46v.46h-5.51c.05,1.35.92,2.25,2.31,2.25.9,0,1.75-.43,2.07-1.22h1.07c-.38,1.26-1.56,2.16-3.15,2.16-2.07,0-3.38-1.52-3.38-3.55h-.01ZM430.2,64.28c-.09-1.35-1.04-2.07-2.18-2.07s-2.11.82-2.21,2.07h4.39,0Z"/>
    <path d="M433.11,61.44h1.01v1.26h.08c.2-.57.86-1.26,1.85-1.26h.57v1.03h-.56c-1.24,0-1.92.96-1.92,2.25v3.48h-1.03v-6.76Z"/>
    <path d="M441.43,64.83c0-2.08,1.38-3.56,3.29-3.56,1.42,0,2.17.91,2.38,1.26h.08v-4.08h1.03v9.75h-.99v-1.07h-.08c-.17.25-.87,1.23-2.34,1.23-1.99,0-3.37-1.47-3.37-3.54h0ZM447.22,64.83c0-1.66-1.04-2.63-2.38-2.63s-2.35,1.09-2.35,2.63.96,2.61,2.38,2.61,2.35-1.2,2.35-2.61Z"/>
    <path d="M449.89,64.82c0-2.16,1.47-3.55,3.32-3.55,2.05,0,3.28,1.51,3.28,3.46v.46h-5.51c.05,1.35.92,2.25,2.31,2.25.9,0,1.75-.43,2.07-1.22h1.07c-.38,1.26-1.56,2.16-3.15,2.16-2.07,0-3.38-1.52-3.38-3.55h-.01ZM455.39,64.28c-.09-1.35-1.04-2.07-2.18-2.07s-2.11.82-2.21,2.07h4.39,0Z"/>
    <path d="M458.3,61.44h1.03v.98h.08c.33-.62.97-1.14,1.98-1.14s1.76.49,2.13,1.23h.09c.46-.87,1.2-1.23,2.14-1.23,1.51,0,2.48,1.07,2.48,2.55v4.38h-1.03v-4.04c0-1.27-.64-1.92-1.64-1.92s-1.78.68-1.78,1.94v4.03h-1.03v-4.24c0-1.08-.73-1.73-1.68-1.73s-1.75.75-1.75,1.9v4.07h-1.03v-6.78Z"/>
    <path d="M469.93,64.83c0-2.08,1.38-3.56,3.29-3.56,1.42,0,2.17.91,2.38,1.26h.08v-1.09h1.03v6.76h-.99v-1.07h-.08c-.17.25-.87,1.23-2.34,1.23-1.99,0-3.37-1.47-3.37-3.54h0ZM475.71,64.83c0-1.66-1.04-2.63-2.38-2.63s-2.35,1.09-2.35,2.63.96,2.61,2.38,2.61,2.35-1.2,2.35-2.61Z"/>
    <path d="M478.91,61.44h1.03v.99h.08c.29-.61,1.01-1.16,2.07-1.16,1.57,0,2.52,1.18,2.52,2.68v4.25h-1.03v-4.19c0-1.08-.79-1.78-1.74-1.78-1.07,0-1.9.82-1.9,1.94v4.03h-1.03s0-6.76,0-6.76Z"/>
    <path d="M486.29,64.83c0-2.08,1.38-3.56,3.29-3.56,1.42,0,2.17.91,2.38,1.26h.08v-4.08h1.03v9.75h-.99v-1.07h-.08c-.17.25-.87,1.23-2.34,1.23-1.99,0-3.37-1.47-3.37-3.54h0ZM492.08,64.83c0-1.66-1.04-2.63-2.38-2.63s-2.35,1.09-2.35,2.63.96,2.61,2.38,2.61,2.35-1.2,2.35-2.61Z"/>
    <path d="M498.33,64.17c0-2.83,1.65-4.81,3.67-5.89l.47.78c-1.74.95-3.11,2.67-3.11,5.11s1.37,4.16,3.11,5.11l-.47.78c-2.01-1.08-3.67-3.05-3.67-5.89Z"/>
    <path d="M503.5,63.65c0-2.68,1.98-4.72,4.68-4.72,2.09,0,3.68,1.24,4.28,2.95h-1.17c-.48-1.18-1.57-1.96-3.11-1.96-2.15,0-3.59,1.6-3.59,3.73s1.47,3.73,3.61,3.73c1.86,0,3.31-1.22,3.38-3.04h-3.69v-.92h4.88c.01,3.29-2.12,4.95-4.58,4.95-2.7,0-4.69-2.02-4.69-4.72h0Z"/>
    <path d="M513.68,59.1h1.13l1.86,7.81h.08l2.04-7.81h1.33l2.04,7.81h.08l1.86-7.81h1.13l-2.33,9.1h-1.37l-2.04-7.68h-.08l-2.04,7.68h-1.37l-2.33-9.1h.01Z"/>
    <path d="M530.79,64.17c0,2.83-1.65,4.81-3.67,5.89l-.47-.78c1.74-.95,3.11-2.67,3.11-5.11s-1.37-4.16-3.11-5.11l.47-.78c2.02,1.08,3.67,3.06,3.67,5.89Z"/>
  </g>
  <rect class="st2" x="347.56" y="64.4" width="14.26" height="1.5"/>
  <polygon class="st3" points="35 215.97 34.61 214.53 136.02 187.18 186.52 164.81 287.46 98.95 288.28 100.21 187.24 166.13 136.46 188.61 35 215.97"/>
  <g>
    <g>
      <rect x="7.01" y="256.72" width="293.89" height="1"/>
      <g>
        <line class="st0" x1="5.01" y1="257.22" x2="5.01" y2="253.03"/>
        <line class="st0" x1="47.37" y1="257.22" x2="47.37" y2="253.03"/>
        <line class="st0" x1="72.72" y1="257.22" x2="72.72" y2="253.03"/>
        <line class="st0" x1="98.07" y1="257.22" x2="98.07" y2="253.03"/>
        <line class="st0" x1="123.43" y1="257.22" x2="123.43" y2="253.03"/>
        <line class="st0" x1="148.78" y1="257.22" x2="148.78" y2="253.03"/>
        <line class="st0" x1="174.13" y1="257.22" x2="174.13" y2="253.03"/>
        <line class="st0" x1="199.49" y1="257.22" x2="199.49" y2="253.03"/>
        <line class="st0" x1="224.84" y1="257.22" x2="224.84" y2="253.03"/>
        <line class="st0" x1="250.19" y1="257.22" x2="250.19" y2="253.03"/>
        <line class="st0" x1="275.54" y1="257.22" x2="275.54" y2="253.03"/>
        <line class="st0" x1="300.9" y1="257.22" x2="300.9" y2="253.03"/>
      </g>
    </g>
    <g>
      <g>
        <g class="st1">
          <g class="st1">
            <path d="M8.68,250.41v-3.38c0-1.67,1.34-2.66,2.71-2.66s2.71,1,2.71,2.66v3.38c0,1.67-1.34,2.66-2.71,2.66s-2.71-1-2.71-2.66ZM13.14,250.35v-3.26c0-1.02-.74-1.8-1.75-1.8s-1.75.78-1.75,1.8v3.26c0,1.03.73,1.8,1.75,1.8s1.75-.77,1.75-1.8Z"/>
          </g>
        </g>
        <g class="st1">
          <g class="st1">
            <path d="M8.63,218.32c0-1.12.6-1.81,1.69-2.51l1.52-.96c.55-.35.94-.85.94-1.59,0-.88-.59-1.54-1.63-1.54-.95,0-1.62.7-1.62,1.55h-.91c0-1.15.89-2.46,2.55-2.46s2.6,1.18,2.6,2.42c0,.97-.46,1.73-1.44,2.35l-1.48.94c-.98.62-1.26,1.1-1.26,1.76v.19h4.25v.89h-5.22v-1.04Z"/>
            <path d="M15.71,216.85v-3.38c0-1.67,1.34-2.66,2.71-2.66s2.71,1,2.71,2.66v3.38c0,1.67-1.34,2.66-2.71,2.66s-2.71-1-2.71-2.66ZM20.17,216.79v-3.26c0-1.02-.74-1.8-1.75-1.8s-1.75.78-1.75,1.8v3.26c0,1.03.73,1.8,1.75,1.8s1.75-.77,1.75-1.8Z"/>
            <path d="M23.18,216.85v-3.38c0-1.67,1.34-2.66,2.71-2.66s2.71,1,2.71,2.66v3.38c0,1.67-1.34,2.66-2.71,2.66s-2.71-1-2.71-2.66ZM27.64,216.79v-3.26c0-1.02-.74-1.8-1.75-1.8s-1.75.78-1.75,1.8v3.26c0,1.03.73,1.8,1.75,1.8s1.75-.77,1.75-1.8Z"/>
          </g>
        </g>
        <g class="st1">
          <g class="st1">
            <path d="M12.1,183.68h-3.66v-.77l2.67-5.5h1.02l-2.57,5.34v.07h2.53v-1.89h.96v1.89h1.1v.86h-1.1v2.12h-.96v-2.12Z"/>
            <path d="M15.72,183.29v-3.38c0-1.67,1.34-2.66,2.71-2.66s2.71,1,2.71,2.66v3.38c0,1.67-1.34,2.66-2.71,2.66s-2.71-1-2.71-2.66ZM20.19,183.23v-3.26c0-1.02-.74-1.8-1.75-1.8s-1.75.78-1.75,1.8v3.26c0,1.03.73,1.8,1.75,1.8s1.75-.77,1.75-1.8Z"/>
            <path d="M23.19,183.29v-3.38c0-1.67,1.34-2.66,2.71-2.66s2.71,1,2.71,2.66v3.38c0,1.67-1.34,2.66-2.71,2.66s-2.71-1-2.71-2.66ZM27.65,183.23v-3.26c0-1.02-.74-1.8-1.75-1.8s-1.75.78-1.75,1.8v3.26c0,1.03.73,1.8,1.75,1.8s1.75-.77,1.75-1.8Z"/>
          </g>
        </g>
        <g class="st1">
          <g class="st1">
            <path d="M8.62,149.64c0-.58.18-1.1.43-1.56l2.36-4.22h1.1l-1.87,3.13.05.05c.19-.08.5-.14.77-.14,1.6,0,2.77,1.18,2.77,2.75s-1.24,2.77-2.82,2.77-2.79-1.19-2.79-2.77ZM13.24,149.64c0-1.02-.72-1.87-1.82-1.87s-1.81.85-1.81,1.87.72,1.86,1.81,1.86,1.82-.83,1.82-1.86Z"/>
            <path d="M16.22,149.74v-3.38c0-1.67,1.34-2.66,2.71-2.66s2.71,1,2.71,2.66v3.38c0,1.67-1.34,2.66-2.71,2.66s-2.71-1-2.71-2.66ZM20.68,149.68v-3.26c0-1.02-.74-1.8-1.75-1.8s-1.75.78-1.75,1.8v3.26c0,1.03.73,1.8,1.75,1.8s1.75-.77,1.75-1.8Z"/>
            <path d="M23.68,149.74v-3.38c0-1.67,1.34-2.66,2.71-2.66s2.71,1,2.71,2.66v3.38c0,1.67-1.34,2.66-2.71,2.66s-2.71-1-2.71-2.66ZM28.14,149.68v-3.26c0-1.02-.74-1.8-1.75-1.8s-1.75.78-1.75,1.8v3.26c0,1.03.73,1.8,1.75,1.8s1.75-.77,1.75-1.8Z"/>
          </g>
        </g>
        <g class="st1">
          <g class="st1">
            <path d="M8.62,116.34c0-1.24.89-1.88,1.42-2.1v-.07c-.44-.23-1.06-.84-1.06-1.79,0-1.34,1.1-2.24,2.45-2.24s2.45.9,2.45,2.24c0,.95-.61,1.56-1.06,1.79v.07c.53.22,1.42.86,1.42,2.1,0,1.52-1.15,2.51-2.81,2.51s-2.81-.98-2.81-2.51ZM13.24,116.34c0-1.06-.83-1.64-1.81-1.64s-1.81.59-1.81,1.64c0,.88.65,1.62,1.81,1.62s1.81-.74,1.81-1.62ZM12.89,112.42c0-.76-.55-1.38-1.46-1.38s-1.46.62-1.46,1.38.59,1.39,1.46,1.39,1.46-.64,1.46-1.39Z"/>
            <path d="M16.22,116.18v-3.38c0-1.67,1.34-2.66,2.71-2.66s2.71,1,2.71,2.66v3.38c0,1.67-1.34,2.66-2.71,2.66s-2.71-1-2.71-2.66ZM20.68,116.12v-3.26c0-1.02-.74-1.8-1.75-1.8s-1.75.78-1.75,1.8v3.26c0,1.03.73,1.8,1.75,1.8s1.75-.77,1.75-1.8Z"/>
            <path d="M23.68,116.18v-3.38c0-1.67,1.34-2.66,2.71-2.66s2.71,1,2.71,2.66v3.38c0,1.67-1.34,2.66-2.71,2.66s-2.71-1-2.71-2.66ZM28.14,116.12v-3.26c0-1.02-.74-1.8-1.75-1.8s-1.75.78-1.75,1.8v3.26c0,1.03.73,1.8,1.75,1.8s1.75-.77,1.75-1.8Z"/>
          </g>
        </g>
        <g class="st1">
          <g class="st1">
            <path d="M10.78,78.72h-2.04v-.78c1.54,0,2.1-.35,2.1-1.2h.91v8.4h-.97v-6.42Z"/>
            <path d="M14.31,84.02h1.04l-.55,2.69h-.7l.2-2.69Z"/>
            <path d="M16.56,82.63v-3.38c0-1.67,1.34-2.66,2.71-2.66s2.71,1,2.71,2.66v3.38c0,1.67-1.34,2.66-2.71,2.66s-2.71-1-2.71-2.66ZM21.02,82.57v-3.26c0-1.02-.74-1.8-1.75-1.8s-1.75.78-1.75,1.8v3.26c0,1.03.73,1.8,1.75,1.8s1.75-.77,1.75-1.8Z"/>
            <path d="M24.03,82.63v-3.38c0-1.67,1.34-2.66,2.71-2.66s2.71,1,2.71,2.66v3.38c0,1.67-1.34,2.66-2.71,2.66s-2.71-1-2.71-2.66ZM28.49,82.57v-3.26c0-1.02-.74-1.8-1.75-1.8s-1.75.78-1.75,1.8v3.26c0,1.03.73,1.8,1.75,1.8s1.75-.77,1.75-1.8Z"/>
            <path d="M31.49,82.63v-3.38c0-1.67,1.34-2.66,2.71-2.66s2.71,1,2.71,2.66v3.38c0,1.67-1.34,2.66-2.71,2.66s-2.71-1-2.71-2.66ZM35.95,82.57v-3.26c0-1.02-.74-1.8-1.75-1.8s-1.75.78-1.75,1.8v3.26c0,1.03.73,1.8,1.75,1.8s1.75-.77,1.75-1.8Z"/>
          </g>
        </g>
      </g>
      <line class="st0" x1="5.01" y1="257.22" x2="5.01" y2="89.44"/>
      <g>
        <rect x="25.01" y="257.09" width="275.89" height=".25"/>
        <rect x="7.01" y="223.54" width="293.89" height=".25"/>
        <rect x="7.01" y="189.99" width="293.89" height=".25"/>
        <rect x="7.01" y="156.42" width="293.89" height=".25"/>
        <rect x="7.01" y="122.88" width="293.89" height=".25"/>
        <rect x="7.01" y="89.31" width="293.89" height=".25"/>
      </g>
    </g>
    <g>
      <circle class="st3" cx="34.69" cy="215.28" r="3"/>
      <circle class="st3" cx="136.1" cy="187.59" r="3"/>
      <circle class="st3" cx="186.81" cy="164.94" r="3"/>
      <circle class="st3" cx="288.22" cy="98.67" r="3"/>
    </g>
    <g>
      <g class="st1">
        <g class="st1">
          <path d="M274.55,269.39c0-1.12.6-1.81,1.69-2.51l1.52-.96c.55-.35.94-.85.94-1.59,0-.88-.59-1.54-1.63-1.54-.95,0-1.62.7-1.62,1.55h-.91c0-1.15.89-2.46,2.55-2.46s2.6,1.18,2.6,2.42c0,.97-.46,1.73-1.44,2.35l-1.48.94c-.98.62-1.26,1.1-1.26,1.76v.19h4.25v.89h-5.22v-1.04Z"/>
          <path d="M281.63,267.92v-3.38c0-1.67,1.34-2.66,2.71-2.66s2.71,1,2.71,2.66v3.38c0,1.67-1.34,2.66-2.71,2.66s-2.71-1-2.71-2.66ZM286.09,267.86v-3.26c0-1.02-.74-1.8-1.75-1.8s-1.75.78-1.75,1.8v3.26c0,1.03.73,1.8,1.75,1.8s1.75-.77,1.75-1.8Z"/>
          <path d="M289.04,268.12h.91c.02.88.71,1.55,1.69,1.55,1.07,0,1.8-.67,1.8-1.78s-.79-1.75-1.82-1.75h-.97v-.83l2.22-2.31v-.07h-3.63v-.89h4.88v.9l-2.25,2.29v.07c1.43.05,2.58,1.1,2.58,2.57s-1.01,2.71-2.79,2.71-2.6-1.37-2.6-2.46Z"/>
          <path d="M296.42,267.92v-3.38c0-1.67,1.34-2.66,2.71-2.66s2.71,1,2.71,2.66v3.38c0,1.67-1.34,2.66-2.71,2.66s-2.71-1-2.71-2.66ZM300.88,267.86v-3.26c0-1.02-.74-1.8-1.75-1.8s-1.75.78-1.75,1.8v3.26c0,1.03.73,1.8,1.75,1.8s1.75-.77,1.75-1.8Z"/>
        </g>
      </g>
      <g class="st1">
        <g class="st1">
          <path d="M223.95,269.39c0-1.12.6-1.81,1.69-2.51l1.52-.96c.55-.35.94-.85.94-1.59,0-.88-.59-1.54-1.63-1.54-.95,0-1.62.7-1.62,1.55h-.91c0-1.15.89-2.46,2.55-2.46s2.6,1.18,2.6,2.42c0,.97-.46,1.73-1.44,2.35l-1.48.94c-.98.62-1.26,1.1-1.26,1.76v.19h4.25v.89h-5.22v-1.04Z"/>
          <path d="M231.03,267.92v-3.38c0-1.67,1.34-2.66,2.71-2.66s2.71,1,2.71,2.66v3.38c0,1.67-1.34,2.66-2.71,2.66s-2.71-1-2.71-2.66ZM235.49,267.86v-3.26c0-1.02-.74-1.8-1.75-1.8s-1.75.78-1.75,1.8v3.26c0,1.03.73,1.8,1.75,1.8s1.75-.77,1.75-1.8Z"/>
          <path d="M238.45,269.39c0-1.12.6-1.81,1.69-2.51l1.52-.96c.55-.35.94-.85.94-1.59,0-.88-.59-1.54-1.63-1.54-.95,0-1.62.7-1.62,1.55h-.91c0-1.15.89-2.46,2.55-2.46s2.6,1.18,2.6,2.42c0,.97-.46,1.73-1.44,2.35l-1.48.94c-.98.62-1.26,1.1-1.26,1.76v.19h4.25v.89h-5.22v-1.04Z"/>
          <path d="M245.47,268.08c0-1.24.89-1.88,1.42-2.1v-.07c-.44-.23-1.06-.84-1.06-1.79,0-1.34,1.1-2.24,2.45-2.24s2.45.9,2.45,2.24c0,.95-.61,1.56-1.06,1.79v.07c.53.22,1.42.86,1.42,2.1,0,1.52-1.15,2.51-2.81,2.51s-2.81-.98-2.81-2.51ZM250.08,268.08c0-1.06-.83-1.64-1.81-1.64s-1.81.59-1.81,1.64c0,.88.65,1.62,1.81,1.62s1.81-.74,1.81-1.62ZM249.74,264.16c0-.76-.55-1.38-1.46-1.38s-1.46.62-1.46,1.38.59,1.39,1.46,1.39,1.46-.64,1.46-1.39Z"/>
        </g>
      </g>
      <g class="st1">
        <g class="st1">
          <path d="M173.25,269.39c0-1.12.6-1.81,1.69-2.51l1.52-.96c.55-.35.94-.85.94-1.59,0-.88-.59-1.54-1.63-1.54-.95,0-1.62.7-1.62,1.55h-.91c0-1.15.89-2.46,2.55-2.46s2.6,1.18,2.6,2.42c0,.97-.46,1.73-1.44,2.35l-1.48.94c-.98.62-1.26,1.1-1.26,1.76v.19h4.25v.89h-5.22v-1.04Z"/>
          <path d="M180.33,267.92v-3.38c0-1.67,1.34-2.66,2.71-2.66s2.71,1,2.71,2.66v3.38c0,1.67-1.34,2.66-2.71,2.66s-2.71-1-2.71-2.66ZM184.79,267.86v-3.26c0-1.02-.74-1.8-1.75-1.8s-1.75.78-1.75,1.8v3.26c0,1.03.73,1.8,1.75,1.8s1.75-.77,1.75-1.8Z"/>
          <path d="M187.75,269.39c0-1.12.6-1.81,1.69-2.51l1.52-.96c.55-.35.94-.85.94-1.59,0-.88-.59-1.54-1.63-1.54-.95,0-1.62.7-1.62,1.55h-.91c0-1.15.89-2.46,2.55-2.46s2.6,1.18,2.6,2.42c0,.97-.46,1.73-1.44,2.35l-1.48.94c-.98.62-1.26,1.1-1.26,1.76v.19h4.25v.89h-5.22v-1.04Z"/>
          <path d="M194.47,267.82c0-.58.18-1.1.43-1.56l2.36-4.22h1.1l-1.87,3.13.05.05c.19-.08.5-.14.77-.14,1.6,0,2.77,1.18,2.77,2.75s-1.24,2.77-2.82,2.77-2.79-1.19-2.79-2.77ZM199.08,267.82c0-1.02-.72-1.87-1.82-1.87s-1.81.85-1.81,1.87.72,1.86,1.81,1.86,1.82-.83,1.82-1.86Z"/>
        </g>
      </g>
      <g class="st1">
        <g class="st1">
          <path d="M122.67,269.39c0-1.12.6-1.81,1.69-2.51l1.52-.96c.55-.35.94-.85.94-1.59,0-.88-.59-1.54-1.63-1.54-.95,0-1.62.7-1.62,1.55h-.91c0-1.15.89-2.46,2.55-2.46s2.6,1.18,2.6,2.42c0,.97-.46,1.73-1.44,2.35l-1.48.94c-.98.62-1.26,1.1-1.26,1.76v.19h4.25v.89h-5.22v-1.04Z"/>
          <path d="M129.75,267.92v-3.38c0-1.67,1.34-2.66,2.71-2.66s2.71,1,2.71,2.66v3.38c0,1.67-1.34,2.66-2.71,2.66s-2.71-1-2.71-2.66ZM134.21,267.86v-3.26c0-1.02-.74-1.8-1.75-1.8s-1.75.78-1.75,1.8v3.26c0,1.03.73,1.8,1.75,1.8s1.75-.77,1.75-1.8Z"/>
          <path d="M137.17,269.39c0-1.12.6-1.81,1.69-2.51l1.52-.96c.55-.35.94-.85.94-1.59,0-.88-.59-1.54-1.63-1.54-.95,0-1.62.7-1.62,1.55h-.91c0-1.15.89-2.46,2.55-2.46s2.6,1.18,2.6,2.42c0,.97-.46,1.73-1.44,2.35l-1.48.94c-.98.62-1.26,1.1-1.26,1.76v.19h4.25v.89h-5.22v-1.04Z"/>
          <path d="M147.19,268.31h-3.66v-.77l2.67-5.5h1.02l-2.57,5.34v.07h2.53v-1.89h.96v1.89h1.1v.86h-1.1v2.12h-.96v-2.12Z"/>
        </g>
      </g>
      <g class="st1">
        <g class="st1">
          <path d="M72.09,269.39c0-1.12.6-1.81,1.69-2.51l1.52-.96c.55-.35.94-.85.94-1.59,0-.88-.59-1.54-1.63-1.54-.95,0-1.62.7-1.62,1.55h-.91c0-1.15.89-2.46,2.55-2.46s2.6,1.18,2.6,2.42c0,.97-.46,1.73-1.44,2.35l-1.48.94c-.98.62-1.26,1.1-1.26,1.76v.19h4.25v.89h-5.22v-1.04Z"/>
          <path d="M79.17,267.92v-3.38c0-1.67,1.34-2.66,2.71-2.66s2.71,1,2.71,2.66v3.38c0,1.67-1.34,2.66-2.71,2.66s-2.71-1-2.71-2.66ZM83.63,267.86v-3.26c0-1.02-.74-1.8-1.75-1.8s-1.75.78-1.75,1.8v3.26c0,1.03.73,1.8,1.75,1.8s1.75-.77,1.75-1.8Z"/>
          <path d="M86.59,269.39c0-1.12.6-1.81,1.69-2.51l1.52-.96c.55-.35.94-.85.94-1.59,0-.88-.59-1.54-1.63-1.54-.95,0-1.62.7-1.62,1.55h-.91c0-1.15.89-2.46,2.55-2.46s2.6,1.18,2.6,2.42c0,.97-.46,1.73-1.44,2.35l-1.48.94c-.98.62-1.26,1.1-1.26,1.76v.19h4.25v.89h-5.22v-1.04Z"/>
          <path d="M93.62,269.39c0-1.12.6-1.81,1.69-2.51l1.52-.96c.55-.35.94-.85.94-1.59,0-.88-.59-1.54-1.63-1.54-.95,0-1.62.7-1.62,1.55h-.91c0-1.15.89-2.46,2.55-2.46s2.6,1.18,2.6,2.42c0,.97-.46,1.73-1.44,2.35l-1.48.94c-.98.62-1.26,1.1-1.26,1.76v.19h4.25v.89h-5.22v-1.04Z"/>
        </g>
      </g>
      <g class="st1">
        <g class="st1">
          <path d="M21.16,269.39c0-1.12.6-1.81,1.69-2.51l1.52-.96c.55-.35.94-.85.94-1.59,0-.88-.59-1.54-1.63-1.54-.95,0-1.62.7-1.62,1.55h-.91c0-1.15.89-2.46,2.55-2.46s2.6,1.18,2.6,2.42c0,.97-.46,1.73-1.44,2.35l-1.48.94c-.98.62-1.26,1.1-1.26,1.76v.19h4.25v.89h-5.22v-1.04Z"/>
          <path d="M28.24,267.92v-3.38c0-1.67,1.34-2.66,2.71-2.66s2.71,1,2.71,2.66v3.38c0,1.67-1.34,2.66-2.71,2.66s-2.71-1-2.71-2.66ZM32.7,267.86v-3.26c0-1.02-.74-1.8-1.75-1.8s-1.75.78-1.75,1.8v3.26c0,1.03.73,1.8,1.75,1.8s1.75-.77,1.75-1.8Z"/>
          <path d="M35.66,269.39c0-1.12.6-1.81,1.69-2.51l1.52-.96c.55-.35.94-.85.94-1.59,0-.88-.59-1.54-1.63-1.54-.95,0-1.62.7-1.62,1.55h-.91c0-1.15.89-2.46,2.55-2.46s2.6,1.18,2.6,2.42c0,.97-.46,1.73-1.44,2.35l-1.48.94c-.98.62-1.26,1.1-1.26,1.76v.19h4.25v.89h-5.22v-1.04Z"/>
          <path d="M42.74,267.92v-3.38c0-1.67,1.34-2.66,2.71-2.66s2.71,1,2.71,2.66v3.38c0,1.67-1.34,2.66-2.71,2.66s-2.71-1-2.71-2.66ZM47.2,267.86v-3.26c0-1.02-.74-1.8-1.75-1.8s-1.75.78-1.75,1.8v3.26c0,1.03.73,1.8,1.75,1.8s1.75-.77,1.75-1.8Z"/>
        </g>
      </g>
    </g>
  </g>
  <g>
    <path d="M26.68,59.1h5.19v.96h-4.13v3.03h3.56v.95h-3.56v3.21h4.28v.95h-5.33v-9.1h-.01Z"/>
    <path d="M33.83,66.76v-8.31h1.03v8.31c0,.34.17.53.49.53h.31v.91h-.49c-.85,0-1.34-.52-1.34-1.44Z"/>
    <path d="M36.83,64.82c0-2.16,1.47-3.55,3.32-3.55,2.05,0,3.28,1.51,3.28,3.46v.46h-5.51c.05,1.35.92,2.25,2.31,2.25.9,0,1.76-.43,2.07-1.22h1.07c-.38,1.26-1.56,2.16-3.15,2.16-2.07,0-3.38-1.52-3.38-3.55h0ZM42.33,64.28c-.09-1.35-1.04-2.07-2.18-2.07s-2.11.82-2.21,2.07h4.39Z"/>
    <path d="M44.72,64.82c0-2,1.47-3.55,3.46-3.55,1.47,0,2.83.88,3.2,2.39h-1.07c-.27-.88-1.13-1.46-2.11-1.46-1.44,0-2.42,1.14-2.42,2.61s1.03,2.61,2.44,2.61c.98,0,1.85-.57,2.11-1.46h1.05c-.35,1.51-1.73,2.39-3.2,2.39-2.04,0-3.47-1.55-3.47-3.55v.02Z"/>
    <path d="M53.83,66.16v-3.85h-1.27v-.87h1.01c.18,0,.32-.12.32-.34v-1.62h.96v1.96h2.08v.87h-2.08v3.83c0,.73.27,1.16,1.05,1.16h.94v.9h-1c-1.25,0-2.02-.68-2.02-2.04h.01Z"/>
    <path d="M58.76,61.44h1.01v1.26h.08c.19-.57.86-1.26,1.85-1.26h.57v1.03h-.56c-1.23,0-1.92.96-1.92,2.25v3.48h-1.03v-6.76Z"/>
    <path d="M63.75,59.47c0-.42.31-.74.74-.74s.75.33.75.74-.31.75-.75.75-.74-.32-.74-.75ZM63.96,61.44h1.03v6.76h-1.03s0-6.76,0-6.76Z"/>
    <path d="M66.68,64.82c0-2,1.47-3.55,3.46-3.55,1.47,0,2.83.88,3.2,2.39h-1.07c-.27-.88-1.13-1.46-2.11-1.46-1.44,0-2.42,1.14-2.42,2.61s1.03,2.61,2.44,2.61c.98,0,1.85-.57,2.11-1.46h1.05c-.35,1.51-1.73,2.39-3.2,2.39-2.04,0-3.47-1.55-3.47-3.55v.02Z"/>
    <path d="M74.96,59.47c0-.42.31-.74.74-.74s.75.33.75.74-.31.75-.75.75-.74-.32-.74-.75ZM75.17,61.44h1.03v6.76h-1.03s0-6.76,0-6.76Z"/>
    <path d="M79.03,66.16v-3.85h-1.27v-.87h1.01c.18,0,.32-.12.32-.34v-1.62h.96v1.96h2.08v.87h-2.08v3.83c0,.73.27,1.16,1.05,1.16h.94v.9h-1c-1.25,0-2.02-.68-2.02-2.04h0Z"/>
    <path d="M83.84,70.26h.51c.66,0,1.04-.29,1.26-.87l.31-.82-2.74-7.12h1.14l2.09,5.72h.08l2.11-5.72h1.16l-3.22,8.31c-.35.92-.88,1.44-1.99,1.44h-.7v-.94h-.01Z"/>
    <path d="M94.43,64.82c0-2,1.47-3.55,3.46-3.55,1.47,0,2.83.88,3.2,2.39h-1.07c-.27-.88-1.13-1.46-2.11-1.46-1.44,0-2.42,1.14-2.42,2.61s1.03,2.61,2.44,2.61c.98,0,1.85-.57,2.11-1.46h1.05c-.35,1.51-1.73,2.39-3.2,2.39-2.04,0-3.47-1.55-3.47-3.55v.02Z"/>
    <path d="M102.4,64.82c0-2.04,1.52-3.55,3.54-3.55s3.52,1.52,3.52,3.55-1.51,3.55-3.54,3.55-3.52-1.5-3.52-3.55ZM108.41,64.82c0-1.49-1.03-2.61-2.48-2.61s-2.47,1.13-2.47,2.61,1.03,2.61,2.47,2.61,2.48-1.1,2.48-2.61Z"/>
    <path d="M111.28,61.44h1.03v.99h.08c.29-.61,1.01-1.16,2.07-1.16,1.57,0,2.52,1.18,2.52,2.68v4.25h-1.03v-4.19c0-1.08-.79-1.78-1.74-1.78-1.07,0-1.9.82-1.9,1.94v4.03h-1.03s0-6.76,0-6.76Z"/>
    <path d="M118.79,66.24h1c.12.81.69,1.23,1.68,1.23s1.57-.49,1.57-1.18c0-1.9-4.04-.46-4.04-3.13,0-1.14,1.03-1.88,2.44-1.88,1.25,0,2.29.73,2.39,1.95h-.99c-.09-.64-.57-1.07-1.47-1.07-.85,0-1.39.42-1.39,1,0,1.72,4.06.29,4.06,3.08,0,1.27-1.05,2.13-2.63,2.13s-2.51-.87-2.63-2.13h0Z"/>
    <path d="M125.93,65.69v-4.25h1.03v4.21c0,1.08.79,1.78,1.74,1.78,1.07,0,1.9-.82,1.9-1.94v-4.06h1.03v6.76h-1.03v-.99h-.08c-.29.61-1.01,1.16-2.07,1.16-1.57,0-2.52-1.18-2.52-2.68h0Z"/>
    <path d="M133.83,61.44h1.03v.98h.08c.33-.62.98-1.14,1.98-1.14s1.76.49,2.13,1.23h.09c.46-.87,1.2-1.23,2.15-1.23,1.51,0,2.48,1.07,2.48,2.55v4.38h-1.03v-4.04c0-1.27-.64-1.92-1.64-1.92s-1.78.68-1.78,1.94v4.03h-1.03v-4.24c0-1.08-.73-1.73-1.68-1.73s-1.75.75-1.75,1.9v4.07h-1.03v-6.78Z"/>
    <path d="M145.98,61.44h.99v1.07h.08c.17-.25.87-1.23,2.34-1.23,1.99,0,3.37,1.47,3.37,3.54s-1.38,3.56-3.29,3.56c-1.42,0-2.17-.91-2.38-1.26h-.08v4.08h-1.03v-9.75h0ZM151.7,64.81c0-1.59-.96-2.61-2.38-2.61s-2.35,1.2-2.35,2.61c0,1.66,1.04,2.63,2.38,2.63s2.35-1.09,2.35-2.63Z"/>
    <path d="M155.19,66.16v-3.85h-1.27v-.87h1.01c.18,0,.32-.12.32-.34v-1.62h.96v1.96h2.08v.87h-2.08v3.83c0,.73.27,1.16,1.05,1.16h.94v.9h-1c-1.25,0-2.02-.68-2.02-2.04h0Z"/>
    <path d="M159.91,59.47c0-.42.31-.74.74-.74s.75.33.75.74-.31.75-.75.75-.74-.32-.74-.75ZM160.12,61.44h1.03v6.76h-1.03s0-6.76,0-6.76Z"/>
    <path d="M162.84,64.82c0-2.04,1.52-3.55,3.54-3.55s3.52,1.52,3.52,3.55-1.51,3.55-3.54,3.55-3.52-1.5-3.52-3.55ZM168.84,64.82c0-1.49-1.03-2.61-2.48-2.61s-2.47,1.13-2.47,2.61,1.03,2.61,2.47,2.61,2.48-1.1,2.48-2.61Z"/>
    <path d="M171.72,61.44h1.03v.99h.08c.29-.61,1.01-1.16,2.07-1.16,1.57,0,2.52,1.18,2.52,2.68v4.25h-1.03v-4.19c0-1.08-.79-1.78-1.74-1.78-1.07,0-1.9.82-1.9,1.94v4.03h-1.03v-6.76h0Z"/>
    <path d="M182.67,64.17c0-2.83,1.65-4.81,3.67-5.89l.47.78c-1.74.95-3.11,2.67-3.11,5.11s1.37,4.16,3.11,5.11l-.47.78c-2.02-1.08-3.67-3.05-3.67-5.89Z"/>
    <path d="M191.41,60.06h-2.78v-.96h6.62v.96h-2.78v8.14h-1.05v-8.14h0Z"/>
    <path d="M195.89,59.1h1.13l1.86,7.81h.08l2.04-7.81h1.33l2.04,7.81h.08l1.86-7.81h1.13l-2.33,9.1h-1.37l-2.04-7.68h-.08l-2.04,7.68h-1.37l-2.33-9.1h0Z"/>
    <path d="M208.87,58.45h1.03v3.98h.08c.29-.61,1.04-1.16,2.09-1.16,1.57,0,2.55,1.18,2.55,2.68v4.25h-1.03v-4.19c0-1.08-.82-1.78-1.77-1.78-1.04,0-1.92.77-1.92,1.86v4.11h-1.03s0-9.75,0-9.75Z"/>
    <path d="M220.96,64.17c0,2.83-1.65,4.81-3.67,5.89l-.47-.78c1.74-.95,3.11-2.67,3.11-5.11s-1.37-4.16-3.11-5.11l.47-.78c2.02,1.08,3.67,3.06,3.67,5.89Z"/>
  </g>
  <rect class="st3" x="8.85" y="64.4" width="14.26" height="1.5"/>
  <g>
    <path class="st2" d="M457.21,217.88c0-1.12.6-1.81,1.69-2.51l1.52-.96c.55-.35.94-.85.94-1.59,0-.88-.59-1.54-1.63-1.54-.95,0-1.62.7-1.62,1.55h-.91c0-1.15.89-2.46,2.55-2.46s2.6,1.18,2.6,2.42c0,.97-.46,1.73-1.44,2.35l-1.47.94c-.98.62-1.26,1.1-1.26,1.76v.19h4.25v.89h-5.22v-1.04h0Z"/>
    <path class="st2" d="M467.23,216.8h-3.66v-.77l2.67-5.5h1.02l-2.57,5.34v.07h2.53v-1.89h.96v1.89h1.1v.86h-1.1v2.12h-.96v-2.12h.01Z"/>
    <path class="st2" d="M470.55,218.41c0-.37.31-.67.68-.67s.67.3.67.67-.3.67-.67.67-.68-.3-.68-.67Z"/>
    <path class="st2" d="M473.83,216.61h.91c.02.88.71,1.55,1.69,1.55,1.07,0,1.8-.67,1.8-1.78s-.79-1.75-1.82-1.75h-.97v-.83l2.22-2.31v-.07h-3.63v-.89h4.88v.9l-2.25,2.29v.07c1.43.05,2.58,1.1,2.58,2.57s-1.01,2.71-2.79,2.71-2.6-1.37-2.6-2.46h-.02Z"/>
  </g>
  <g>
    <path class="st2" d="M516.32,148.88v-.07h-4.15v-.89h5.16v.83l-2.96,7.57h-1.03l2.99-7.44h0Z"/>
    <path class="st2" d="M518.95,154.14h.91c.16.92.85,1.44,1.77,1.44,1.01,0,1.82-.78,1.82-1.91s-.77-1.83-1.92-1.83c-.94,0-1.39.59-1.54.83h-.89l.29-4.74h4.51v.89h-3.66l-.18,2.7h.07s.52-.56,1.56-.56c1.59,0,2.73,1.26,2.73,2.72,0,1.59-1.22,2.81-2.77,2.81-1.45,0-2.61-.92-2.72-2.34h.02Z"/>
    <path class="st2" d="M525.58,155.8c0-.37.31-.67.68-.67s.67.3.67.67-.3.67-.67.67-.68-.3-.68-.67Z"/>
    <path class="st2" d="M528.86,153.97c0-1.24.89-1.88,1.42-2.1v-.07c-.44-.23-1.05-.84-1.05-1.79,0-1.34,1.1-2.24,2.45-2.24s2.45.9,2.45,2.24c0,.95-.61,1.56-1.05,1.79v.07c.53.22,1.42.86,1.42,2.1,0,1.52-1.15,2.51-2.81,2.51s-2.81-.98-2.81-2.51h-.02ZM533.48,153.97c0-1.06-.83-1.64-1.81-1.64s-1.81.59-1.81,1.64c0,.88.65,1.62,1.81,1.62s1.81-.74,1.81-1.62ZM533.13,150.05c0-.76-.55-1.38-1.46-1.38s-1.46.62-1.46,1.38.59,1.39,1.46,1.39,1.46-.64,1.46-1.39Z"/>
  </g>
  <g>
    <path class="st4" d="M29.27,200.97c0-1.12.6-1.81,1.69-2.51l1.52-.96c.55-.35.94-.85.94-1.59,0-.88-.59-1.54-1.63-1.54-.95,0-1.62.7-1.62,1.55h-.91c0-1.15.89-2.46,2.55-2.46s2.6,1.18,2.6,2.42c0,.97-.46,1.73-1.44,2.35l-1.48.94c-.98.62-1.26,1.1-1.26,1.76v.19h4.25v.89h-5.22v-1.04h.01Z"/>
    <path class="st4" d="M36.23,199.83h.91c.16.92.85,1.44,1.77,1.44,1.01,0,1.82-.78,1.82-1.91s-.77-1.83-1.92-1.83c-.94,0-1.39.59-1.54.83h-.89l.29-4.74h4.51v.89h-3.66l-.18,2.7h.07s.52-.56,1.56-.56c1.59,0,2.73,1.26,2.73,2.72,0,1.59-1.22,2.81-2.77,2.81-1.45,0-2.61-.92-2.72-2.34h.02Z"/>
    <path class="st4" d="M43.65,199.51v-3.38c0-1.67,1.34-2.66,2.71-2.66s2.71,1,2.71,2.66v3.38c0,1.67-1.34,2.66-2.71,2.66s-2.71-1-2.71-2.66ZM48.11,199.45v-3.26c0-1.02-.74-1.8-1.75-1.8s-1.75.78-1.75,1.8v3.26c0,1.03.73,1.8,1.75,1.8s1.75-.77,1.75-1.8Z"/>
  </g>
  <g>
    <path class="st2" d="M621.21,78.27h-2.04v-.78c1.54,0,2.1-.35,2.1-1.2h.91v8.4h-.97v-6.42Z"/>
    <path class="st2" d="M624.1,82.37h.91c.02.88.71,1.55,1.69,1.55,1.07,0,1.8-.67,1.8-1.78s-.79-1.75-1.82-1.75h-.97v-.83l2.22-2.31v-.07h-3.63v-.89h4.88v.9l-2.25,2.29v.07c1.43.05,2.58,1.1,2.58,2.57s-1.01,2.71-2.79,2.71-2.6-1.37-2.6-2.46h-.02Z"/>
    <path class="st2" d="M631.42,82.37h.91c.02.88.71,1.55,1.69,1.55,1.07,0,1.8-.67,1.8-1.78s-.79-1.75-1.82-1.75h-.97v-.83l2.22-2.31v-.07h-3.63v-.89h4.88v.9l-2.26,2.29v.07c1.43.05,2.58,1.1,2.58,2.57s-1.01,2.71-2.79,2.71-2.6-1.37-2.6-2.46h-.01Z"/>
    <path class="st2" d="M638.02,84.17c0-.37.31-.67.68-.67s.67.3.67.67-.3.67-.67.67-.68-.3-.68-.67Z"/>
    <path class="st2" d="M641.3,82.34c0-1.24.89-1.88,1.41-2.1v-.07c-.44-.23-1.05-.84-1.05-1.79,0-1.34,1.1-2.24,2.45-2.24s2.45.9,2.45,2.24c0,.95-.61,1.56-1.05,1.79v.07c.53.22,1.42.86,1.42,2.1,0,1.52-1.15,2.51-2.81,2.51s-2.81-.98-2.81-2.51h-.01ZM645.91,82.34c0-1.06-.83-1.64-1.81-1.64s-1.81.59-1.81,1.64c0,.88.65,1.62,1.81,1.62s1.81-.74,1.81-1.62ZM645.57,78.41c0-.76-.55-1.38-1.46-1.38s-1.46.62-1.46,1.38.59,1.39,1.46,1.39,1.46-.64,1.46-1.39Z"/>
  </g>
  <g>
    <path class="st4" d="M133.34,176.68h-3.66v-.77l2.67-5.5h1.02l-2.57,5.34v.07h2.53v-1.89h.96v1.89h1.1v.86h-1.1v2.12h-.96v-2.12h.01Z"/>
    <path class="st4" d="M138.34,172.38h-2.04v-.78c1.54,0,2.1-.35,2.1-1.2h.91v8.4h-.97v-6.42h0Z"/>
    <path class="st4" d="M141.54,176.62h.91c.16.92.85,1.44,1.77,1.44,1.01,0,1.82-.78,1.82-1.91s-.77-1.83-1.92-1.83c-.94,0-1.39.59-1.54.83h-.89l.29-4.74h4.51v.89h-3.66l-.18,2.7h.07s.52-.56,1.56-.56c1.59,0,2.73,1.26,2.73,2.72,0,1.59-1.22,2.81-2.77,2.81-1.45,0-2.61-.92-2.72-2.34h.02Z"/>
  </g>
  <g>
    <path class="st4" d="M178.65,147.29h.91c.16.92.85,1.44,1.77,1.44,1.01,0,1.82-.78,1.82-1.91s-.77-1.83-1.92-1.83c-.94,0-1.39.59-1.54.83h-.89l.29-4.74h4.51v.89h-3.66l-.18,2.7h.07s.52-.56,1.56-.56c1.59,0,2.73,1.26,2.73,2.72,0,1.59-1.22,2.81-2.77,2.81-1.45,0-2.61-.92-2.72-2.34h.02Z"/>
    <path class="st4" d="M185.95,147.29h.91c.16.92.85,1.44,1.77,1.44,1.01,0,1.82-.78,1.82-1.91s-.77-1.83-1.92-1.83c-.94,0-1.39.59-1.54.83h-.89l.29-4.74h4.51v.89h-3.66l-.18,2.7h.07s.52-.56,1.56-.56c1.59,0,2.73,1.26,2.73,2.72,0,1.59-1.22,2.81-2.77,2.81-1.45,0-2.61-.92-2.72-2.34h.02Z"/>
    <path class="st4" d="M193.36,146.96v-3.38c0-1.67,1.34-2.66,2.71-2.66s2.71,1,2.71,2.66v3.38c0,1.67-1.34,2.66-2.71,2.66s-2.71-1-2.71-2.66ZM197.83,146.9v-3.26c0-1.02-.74-1.8-1.75-1.8s-1.75.78-1.75,1.8v3.26c0,1.03.73,1.8,1.75,1.8s1.75-.77,1.75-1.8Z"/>
  </g>
  <g>
    <path class="st4" d="M285.07,85.56l-.05-.05c-.19.08-.5.14-.77.14-1.6,0-2.77-1.18-2.77-2.75s1.24-2.77,2.82-2.77,2.79,1.19,2.79,2.77c0,.58-.18,1.1-.43,1.56l-2.36,4.22h-1.1l1.87-3.13h0ZM286.11,82.91c0-1.04-.72-1.86-1.81-1.86s-1.82.83-1.82,1.86.72,1.87,1.82,1.87,1.81-.85,1.81-1.87Z"/>
    <path class="st4" d="M292.13,86.56h-3.66v-.77l2.67-5.5h1.02l-2.57,5.34v.07h2.53v-1.89h.96v1.89h1.1v.86h-1.1v2.12h-.96v-2.12h.01Z"/>
    <path class="st4" d="M295.88,86.5h.91c.16.92.85,1.44,1.77,1.44,1.01,0,1.82-.78,1.82-1.91s-.77-1.83-1.92-1.83c-.94,0-1.39.59-1.54.83h-.89l.29-4.74h4.51v.89h-3.66l-.18,2.7h.07s.52-.56,1.56-.56c1.59,0,2.73,1.26,2.73,2.72,0,1.59-1.22,2.81-2.77,2.81-1.45,0-2.61-.92-2.72-2.34h.02Z"/>
  </g>
  <g>
    <path class="st2" d="M371.36,219.51h-2.04v-.78c1.54,0,2.1-.35,2.1-1.2h.91v8.4h-.97v-6.42Z"/>
    <path class="st2" d="M378.58,218.49v-.07h-4.15v-.89h5.16v.83l-2.96,7.57h-1.03l2.99-7.44h-.01Z"/>
    <path class="st2" d="M379.59,225.41c0-.37.31-.67.68-.67s.67.3.67.67-.3.67-.67.67-.68-.3-.68-.67Z"/>
    <path class="st2" d="M382.21,223.42v-3.38c0-1.67,1.34-2.66,2.71-2.66s2.71,1,2.71,2.66v3.38c0,1.67-1.34,2.66-2.71,2.66s-2.71-1-2.71-2.66ZM386.67,223.36v-3.26c0-1.02-.74-1.8-1.75-1.8s-1.75.78-1.75,1.8v3.26c0,1.03.73,1.8,1.75,1.8s1.75-.77,1.75-1.8Z"/>
  </g>
  <g>
    <path d="M5.99,12.17c0-3.3,2.43-5.81,5.76-5.81,2.58,0,4.53,1.52,5.27,3.63h-1.44c-.59-1.46-1.94-2.42-3.83-2.42-2.64,0-4.42,1.97-4.42,4.59s1.81,4.59,4.45,4.59c2.29,0,4.08-1.5,4.16-3.75h-4.55v-1.14h6c.02,4.05-2.61,6.1-5.63,6.1-3.33,0-5.78-2.48-5.78-5.81v.02Z"/>
    <path d="M19.63,16V5.77h1.26v10.23c0,.42.21.66.61.66h.38v1.12h-.61c-1.04,0-1.65-.64-1.65-1.78h.01Z"/>
    <path d="M23.33,13.61c0-2.51,1.87-4.37,4.35-4.37s4.34,1.87,4.34,4.37-1.86,4.37-4.35,4.37-4.34-1.84-4.34-4.37ZM30.73,13.61c0-1.84-1.26-3.22-3.06-3.22s-3.04,1.39-3.04,3.22,1.26,3.22,3.04,3.22,3.06-1.36,3.06-3.22Z"/>
    <path d="M35.57,16.46h-.1v1.31h-1.22V5.77h1.26v5.03h.1c.26-.43,1.18-1.55,2.93-1.55,2.35,0,4.05,1.82,4.05,4.39s-1.7,4.35-4.15,4.35c-1.81,0-2.67-1.22-2.88-1.52h.01ZM41.3,13.63c0-1.89-1.18-3.23-2.9-3.23s-2.93,1.18-2.93,3.23c0,1.74,1.09,3.22,2.9,3.22s2.93-1.26,2.93-3.22Z"/>
    <path d="M44.19,13.63c0-2.56,1.7-4.39,4.05-4.39,1.74,0,2.67,1.12,2.93,1.55h.1v-1.34h1.26v8.32h-1.22v-1.31h-.1c-.21.3-1.07,1.52-2.88,1.52-2.45,0-4.15-1.81-4.15-4.35h.01ZM51.32,13.63c0-2.05-1.28-3.23-2.93-3.23s-2.9,1.34-2.9,3.23,1.18,3.22,2.93,3.22,2.9-1.47,2.9-3.22Z"/>
    <path d="M55.25,16V5.77h1.26v10.23c0,.42.21.66.61.66h.38v1.12h-.61c-1.04,0-1.65-.64-1.65-1.78h.01Z"/>
    <path d="M63.75,13.63c0-2.56,1.7-4.39,4.05-4.39,1.74,0,2.67,1.12,2.93,1.55h.1v-5.03h1.26v12h-1.22v-1.31h-.1c-.21.3-1.07,1.52-2.88,1.52-2.45,0-4.15-1.81-4.15-4.35h0ZM70.87,13.63c0-2.05-1.28-3.23-2.93-3.23s-2.9,1.34-2.9,3.23,1.18,3.22,2.93,3.22,2.9-1.47,2.9-3.22Z"/>
    <path d="M74.16,13.63c0-2.56,1.7-4.39,4.05-4.39,1.74,0,2.67,1.12,2.93,1.55h.1v-1.34h1.26v8.32h-1.22v-1.31h-.1c-.21.3-1.07,1.52-2.88,1.52-2.45,0-4.15-1.81-4.15-4.35h0ZM81.28,13.63c0-2.05-1.28-3.23-2.93-3.23s-2.9,1.34-2.9,3.23,1.18,3.22,2.93,3.22,2.9-1.47,2.9-3.22Z"/>
    <path d="M85.99,15.26v-4.74h-1.57v-1.07h1.25c.22,0,.4-.14.4-.42v-2h1.18v2.42h2.56v1.07h-2.56v4.72c0,.9.34,1.42,1.3,1.42h1.15v1.1h-1.23c-1.54,0-2.48-.83-2.48-2.51h0Z"/>
    <path d="M91.41,13.63c0-2.56,1.7-4.39,4.05-4.39,1.74,0,2.67,1.12,2.93,1.55h.1v-1.34h1.26v8.32h-1.22v-1.31h-.1c-.21.3-1.07,1.52-2.88,1.52-2.45,0-4.15-1.81-4.15-4.35h0ZM98.53,13.63c0-2.05-1.28-3.23-2.93-3.23s-2.9,1.34-2.9,3.23,1.18,3.22,2.93,3.22,2.9-1.47,2.9-3.22Z"/>
    <path d="M102.15,12.37h4.08v1.18h-4.08v-1.18Z"/>
    <path d="M108.14,13.61c0-2.46,1.81-4.37,4.26-4.37,1.81,0,3.49,1.09,3.94,2.94h-1.31c-.34-1.09-1.39-1.79-2.59-1.79-1.78,0-2.98,1.41-2.98,3.22s1.26,3.22,3.01,3.22c1.2,0,2.27-.7,2.59-1.79h1.3c-.43,1.86-2.13,2.95-3.94,2.95-2.51,0-4.27-1.9-4.27-4.37h-.01Z"/>
    <path d="M117.95,13.61c0-2.66,1.81-4.37,4.08-4.37,2.53,0,4.03,1.86,4.03,4.26v.56h-6.79c.06,1.66,1.14,2.77,2.85,2.77,1.1,0,2.16-.53,2.54-1.5h1.31c-.46,1.55-1.92,2.66-3.87,2.66-2.54,0-4.16-1.87-4.16-4.37h.01ZM124.72,12.94c-.11-1.66-1.28-2.54-2.69-2.54s-2.59,1.01-2.72,2.54h5.41Z"/>
    <path d="M128.3,9.45h1.26v1.22h.1c.35-.75,1.25-1.42,2.54-1.42,1.94,0,3.11,1.46,3.11,3.3v5.23h-1.26v-5.15c0-1.33-.98-2.19-2.15-2.19-1.31,0-2.34,1.01-2.34,2.39v4.96h-1.26v-8.34Z"/>
    <path d="M138.8,15.26v-4.74h-1.57v-1.07h1.25c.22,0,.4-.14.4-.42v-2h1.18v2.42h2.56v1.07h-2.56v4.72c0,.9.34,1.42,1.3,1.42h1.15v1.1h-1.23c-1.54,0-2.48-.83-2.48-2.51h0Z"/>
    <path d="M144.22,13.61c0-2.66,1.81-4.37,4.08-4.37,2.53,0,4.03,1.86,4.03,4.26v.56h-6.79c.06,1.66,1.14,2.77,2.85,2.77,1.1,0,2.16-.53,2.54-1.5h1.31c-.46,1.55-1.92,2.66-3.87,2.66-2.54,0-4.16-1.87-4.16-4.37h0ZM151,12.94c-.11-1.66-1.28-2.54-2.69-2.54s-2.59,1.01-2.72,2.54h5.41Z"/>
    <path d="M154.58,9.45h1.25v1.55h.1c.24-.7,1.06-1.55,2.27-1.55h.7v1.26h-.69c-1.52,0-2.37,1.18-2.37,2.77v4.29h-1.26v-8.32h0Z"/>
    <path d="M164.82,13.61c0-2.66,1.81-4.37,4.08-4.37,2.53,0,4.03,1.86,4.03,4.26v.56h-6.79c.06,1.66,1.14,2.77,2.85,2.77,1.1,0,2.16-.53,2.54-1.5h1.31c-.46,1.55-1.92,2.66-3.87,2.66-2.54,0-4.16-1.87-4.16-4.37h0ZM171.59,12.94c-.11-1.66-1.28-2.54-2.69-2.54s-2.59,1.01-2.72,2.54h5.41Z"/>
    <path d="M174.69,16V5.77h1.26v10.23c0,.42.21.66.61.66h.38v1.12h-.61c-1.04,0-1.65-.64-1.65-1.78h0Z"/>
    <path d="M178.38,13.61c0-2.66,1.81-4.37,4.08-4.37,2.53,0,4.03,1.86,4.03,4.26v.56h-6.79c.06,1.66,1.14,2.77,2.85,2.77,1.1,0,2.16-.53,2.54-1.5h1.31c-.46,1.55-1.92,2.66-3.87,2.66-2.54,0-4.16-1.87-4.16-4.37h0ZM185.15,12.94c-.11-1.66-1.28-2.54-2.69-2.54s-2.59,1.01-2.72,2.54h5.41Z"/>
    <path d="M188.1,13.61c0-2.46,1.81-4.37,4.26-4.37,1.81,0,3.49,1.09,3.94,2.94h-1.31c-.34-1.09-1.39-1.79-2.59-1.79-1.78,0-2.98,1.41-2.98,3.22s1.26,3.22,3.01,3.22c1.2,0,2.27-.7,2.59-1.79h1.3c-.43,1.86-2.13,2.95-3.94,2.95-2.51,0-4.27-1.9-4.27-4.37h0Z"/>
    <path d="M199.31,15.26v-4.74h-1.57v-1.07h1.25c.22,0,.4-.14.4-.42v-2h1.18v2.42h2.56v1.07h-2.56v4.72c0,.9.34,1.42,1.3,1.42h1.15v1.1h-1.23c-1.54,0-2.48-.83-2.48-2.51h0Z"/>
    <path d="M205.38,9.45h1.25v1.55h.1c.24-.7,1.06-1.55,2.27-1.55h.7v1.26h-.69c-1.52,0-2.37,1.18-2.37,2.77v4.29h-1.26v-8.32h0Z"/>
    <path d="M211.52,7.02c0-.51.38-.91.91-.91s.93.4.93.91-.38.93-.93.93-.91-.4-.91-.93ZM211.78,9.45h1.26v8.32h-1.26v-8.32Z"/>
    <path d="M215.12,13.61c0-2.46,1.81-4.37,4.26-4.37,1.81,0,3.49,1.09,3.94,2.94h-1.31c-.34-1.09-1.39-1.79-2.59-1.79-1.78,0-2.98,1.41-2.98,3.22s1.26,3.22,3.01,3.22c1.2,0,2.27-.7,2.59-1.79h1.3c-.43,1.86-2.13,2.95-3.94,2.95-2.51,0-4.27-1.9-4.27-4.37h0Z"/>
    <path d="M225.31,7.02c0-.51.38-.91.91-.91s.93.4.93.91-.38.93-.93.93-.91-.4-.91-.93ZM225.57,9.45h1.26v8.32h-1.26v-8.32Z"/>
    <path d="M230.32,15.26v-4.74h-1.57v-1.07h1.25c.22,0,.4-.14.4-.42v-2h1.18v2.42h2.56v1.07h-2.56v4.72c0,.9.34,1.42,1.3,1.42h1.15v1.1h-1.23c-1.54,0-2.48-.83-2.48-2.51h0Z"/>
    <path d="M236.24,20.3h.62c.82,0,1.28-.35,1.55-1.07l.38-1.01-3.38-8.77h1.41l2.58,7.04h.1l2.59-7.04h1.42l-3.97,10.23c-.43,1.14-1.09,1.78-2.45,1.78h-.86v-1.15h0Z"/>
    <path d="M5.99,32.81c0-2.46,1.81-4.37,4.26-4.37,1.81,0,3.49,1.09,3.94,2.94h-1.31c-.34-1.09-1.39-1.79-2.59-1.79-1.78,0-2.98,1.41-2.98,3.22s1.26,3.22,3.01,3.22c1.2,0,2.27-.7,2.59-1.79h1.3c-.43,1.86-2.13,2.95-3.94,2.95-2.51,0-4.27-1.9-4.27-4.37h-.01Z"/>
    <path d="M15.79,32.81c0-2.51,1.87-4.37,4.35-4.37s4.34,1.87,4.34,4.37-1.86,4.37-4.35,4.37-4.34-1.84-4.34-4.37ZM23.19,32.81c0-1.84-1.26-3.22-3.06-3.22s-3.04,1.39-3.04,3.22,1.26,3.22,3.04,3.22,3.06-1.36,3.06-3.22Z"/>
    <path d="M26.72,28.65h1.26v1.22h.1c.35-.75,1.25-1.42,2.54-1.42,1.94,0,3.11,1.46,3.11,3.3v5.23h-1.26v-5.15c0-1.33-.98-2.19-2.15-2.19-1.31,0-2.34,1.01-2.34,2.39v4.96h-1.26v-8.34Z"/>
    <path d="M35.97,34.56h1.23c.14.99.85,1.52,2.06,1.52s1.94-.61,1.94-1.46c0-2.34-4.98-.56-4.98-3.86,0-1.41,1.26-2.32,3.01-2.32,1.54,0,2.82.9,2.95,2.4h-1.22c-.11-.78-.7-1.31-1.81-1.31-1.04,0-1.71.51-1.71,1.23,0,2.11,4.99.35,4.99,3.79,0,1.57-1.3,2.62-3.23,2.62s-3.09-1.07-3.23-2.62h0Z"/>
    <path d="M44.75,33.89v-5.23h1.26v5.19c0,1.33.98,2.19,2.15,2.19,1.31,0,2.34-1.01,2.34-2.39v-4.99h1.26v8.32h-1.26v-1.22h-.1c-.35.75-1.25,1.42-2.54,1.42-1.94,0-3.11-1.46-3.11-3.3h0Z"/>
    <path d="M54.48,28.65h1.26v1.2h.1c.4-.77,1.2-1.41,2.43-1.41s2.16.61,2.63,1.52h.11c.56-1.07,1.47-1.52,2.64-1.52,1.86,0,3.06,1.31,3.06,3.14v5.39h-1.26v-4.98c0-1.57-.78-2.37-2.02-2.37-1.17,0-2.19.83-2.19,2.39v4.96h-1.26v-5.22c0-1.33-.9-2.13-2.06-2.13s-2.16.93-2.16,2.34v5.01h-1.26v-8.32h-.02Z"/>
    <path d="M69.43,28.65h1.22v1.31h.1c.21-.3,1.07-1.52,2.88-1.52,2.45,0,4.15,1.81,4.15,4.35s-1.7,4.39-4.05,4.39c-1.74,0-2.67-1.12-2.93-1.55h-.1v5.03h-1.26v-12h0ZM76.47,32.8c0-1.95-1.18-3.22-2.93-3.22s-2.9,1.47-2.9,3.22c0,2.05,1.28,3.23,2.93,3.23s2.9-1.34,2.9-3.23Z"/>
    <path d="M80.77,34.46v-4.74h-1.57v-1.07h1.25c.22,0,.4-.14.4-.42v-2h1.18v2.42h2.56v1.07h-2.56v4.72c0,.9.34,1.42,1.3,1.42h1.15v1.1h-1.23c-1.54,0-2.48-.83-2.48-2.51h0Z"/>
    <path d="M86.58,26.22c0-.51.38-.91.91-.91s.93.4.93.91-.38.93-.93.93-.91-.4-.91-.93ZM86.83,28.65h1.26v8.32h-1.26v-8.32Z"/>
    <path d="M90.18,32.81c0-2.51,1.87-4.37,4.35-4.37s4.34,1.87,4.34,4.37-1.86,4.37-4.35,4.37-4.34-1.84-4.34-4.37ZM97.57,32.81c0-1.84-1.26-3.22-3.06-3.22s-3.04,1.39-3.04,3.22,1.26,3.22,3.04,3.22,3.06-1.36,3.06-3.22Z"/>
    <path d="M101.11,28.65h1.26v1.22h.1c.35-.75,1.25-1.42,2.54-1.42,1.94,0,3.11,1.46,3.11,3.3v5.23h-1.26v-5.15c0-1.33-.98-2.19-2.15-2.19-1.31,0-2.34,1.01-2.34,2.39v4.96h-1.26v-8.34Z"/>
    <path d="M111.04,35.49h1.39l-.74,3.59h-.93l.27-3.59h.01Z"/>
    <path d="M119.42,35.58c0-1.49.8-2.42,2.26-3.35l2.03-1.28c.74-.46,1.25-1.14,1.25-2.13,0-1.17-.78-2.05-2.18-2.05-1.26,0-2.16.93-2.16,2.06h-1.22c0-1.54,1.18-3.28,3.41-3.28s3.47,1.57,3.47,3.23c0,1.3-.61,2.3-1.92,3.14l-1.97,1.25c-1.31.83-1.68,1.47-1.68,2.35v.26h5.67v1.18h-6.96v-1.39h0Z"/>
    <path d="M128.86,33.63v-4.51c0-2.22,1.79-3.55,3.62-3.55s3.62,1.33,3.62,3.55v4.51c0,2.22-1.79,3.55-3.62,3.55s-3.62-1.33-3.62-3.55ZM134.82,33.55v-4.35c0-1.36-.99-2.4-2.34-2.4s-2.34,1.04-2.34,2.4v4.35c0,1.38.98,2.4,2.34,2.4s2.34-1.02,2.34-2.4Z"/>
    <path d="M138.75,35.58c0-1.49.8-2.42,2.26-3.35l2.03-1.28c.74-.46,1.25-1.14,1.25-2.13,0-1.17-.78-2.05-2.18-2.05-1.26,0-2.16.93-2.16,2.06h-1.22c0-1.54,1.18-3.28,3.41-3.28s3.47,1.57,3.47,3.23c0,1.3-.61,2.3-1.92,3.14l-1.97,1.25c-1.31.83-1.68,1.47-1.68,2.35v.26h5.67v1.18h-6.96v-1.39h0Z"/>
    <path d="M148.19,33.63v-4.51c0-2.22,1.79-3.55,3.62-3.55s3.62,1.33,3.62,3.55v4.51c0,2.22-1.79,3.55-3.62,3.55s-3.62-1.33-3.62-3.55ZM154.15,33.55v-4.35c0-1.36-.99-2.4-2.34-2.4s-2.34,1.04-2.34,2.4v4.35c0,1.38.98,2.4,2.34,2.4s2.34-1.02,2.34-2.4Z"/>
    <path d="M157.91,31.61h8.29v1.09h-8.29v-1.09Z"/>
    <path d="M168.61,35.58c0-1.49.8-2.42,2.26-3.35l2.03-1.28c.74-.46,1.25-1.14,1.25-2.13,0-1.17-.78-2.05-2.18-2.05-1.26,0-2.16.93-2.16,2.06h-1.22c0-1.54,1.18-3.28,3.41-3.28s3.47,1.57,3.47,3.23c0,1.3-.61,2.3-1.92,3.14l-1.97,1.25c-1.31.83-1.68,1.47-1.68,2.35v.26h5.67v1.18h-6.96v-1.39h0Z"/>
    <path d="M178.05,33.63v-4.51c0-2.22,1.79-3.55,3.62-3.55s3.62,1.33,3.62,3.55v4.51c0,2.22-1.79,3.55-3.62,3.55s-3.62-1.33-3.62-3.55ZM184,33.55v-4.35c0-1.36-.99-2.4-2.34-2.4s-2.34,1.04-2.34,2.4v4.35c0,1.38.98,2.4,2.34,2.4s2.34-1.02,2.34-2.4Z"/>
    <path d="M187.92,33.89h1.22c.03,1.17.94,2.06,2.26,2.06,1.42,0,2.4-.9,2.4-2.37s-1.06-2.34-2.43-2.34h-1.3v-1.1l2.96-3.09v-.1h-4.85v-1.18h6.51v1.2l-3.01,3.06v.1c1.9.06,3.44,1.47,3.44,3.43s-1.34,3.62-3.73,3.62-3.47-1.82-3.47-3.28h0Z"/>
    <path d="M197.76,33.63v-4.51c0-2.22,1.79-3.55,3.62-3.55s3.62,1.33,3.62,3.55v4.51c0,2.22-1.79,3.55-3.62,3.55s-3.62-1.33-3.62-3.55ZM203.71,33.55v-4.35c0-1.36-.99-2.4-2.34-2.4s-2.34,1.04-2.34,2.4v4.35c0,1.38.98,2.4,2.34,2.4s2.34-1.02,2.34-2.4Z"/>
  </g>
  <g>
    <path d="M349.21,13.76v-7.19h1.3v7.17c0,1.86.99,3.04,2.88,3.04s2.9-1.18,2.9-3.06v-7.15h1.28v7.17c0,2.53-1.52,4.24-4.18,4.24s-4.18-1.68-4.18-4.23h0Z"/>
    <path d="M359.64,17.09c0-.5.42-.9.91-.9s.9.4.9.9-.4.9-.9.9-.91-.4-.91-.9Z"/>
    <path d="M363.45,14.45h1.3c0,1.3,1.06,2.34,2.75,2.34,1.47,0,2.53-.72,2.53-1.89,0-3.51-6.19-1.06-6.19-5.54,0-1.6,1.33-2.99,3.58-2.99,1.7,0,3.68.93,3.68,3.25h-1.33c0-1.28-.85-2.06-2.37-2.06s-2.27.88-2.27,1.81c0,3.06,6.21.93,6.21,5.46,0,1.76-1.44,3.17-3.89,3.17-2.22,0-4-1.46-4-3.54h0Z"/>
    <path d="M373.42,17.09c0-.5.42-.9.91-.9s.9.4.9.9-.4.9-.9.9-.91-.4-.91-.9Z"/>
    <path d="M381.79,13.63c0-2.56,1.7-4.39,4.05-4.39,1.75,0,2.67,1.12,2.93,1.55h.1v-5.03h1.26v12h-1.22v-1.31h-.1c-.21.3-1.07,1.52-2.88,1.52-2.45,0-4.15-1.81-4.15-4.35h.01ZM388.91,13.63c0-2.05-1.28-3.23-2.93-3.23s-2.9,1.34-2.9,3.23,1.18,3.22,2.93,3.22,2.9-1.47,2.9-3.22Z"/>
    <path d="M392.2,13.63c0-2.56,1.7-4.39,4.05-4.39,1.74,0,2.67,1.12,2.93,1.55h.1v-1.34h1.26v8.32h-1.22v-1.31h-.1c-.21.3-1.07,1.52-2.88,1.52-2.45,0-4.15-1.81-4.15-4.35h.01ZM399.33,13.63c0-2.05-1.28-3.23-2.93-3.23s-2.9,1.34-2.9,3.23,1.18,3.22,2.93,3.22,2.9-1.47,2.9-3.22Z"/>
    <path d="M404.03,15.26v-4.74h-1.57v-1.07h1.25c.22,0,.4-.14.4-.42v-2h1.18v2.42h2.56v1.07h-2.56v4.72c0,.9.34,1.42,1.3,1.42h1.15v1.1h-1.23c-1.54,0-2.48-.83-2.48-2.51h0Z"/>
    <path d="M409.45,13.63c0-2.56,1.7-4.39,4.05-4.39,1.74,0,2.67,1.12,2.93,1.55h.1v-1.34h1.26v8.32h-1.22v-1.31h-.1c-.21.3-1.07,1.52-2.88,1.52-2.45,0-4.15-1.81-4.15-4.35h.01ZM416.57,13.63c0-2.05-1.28-3.23-2.93-3.23s-2.9,1.34-2.9,3.23,1.18,3.22,2.93,3.22,2.9-1.47,2.9-3.22Z"/>
    <path d="M420.19,12.37h4.08v1.18h-4.08v-1.18Z"/>
    <path d="M426.19,13.61c0-2.46,1.81-4.37,4.26-4.37,1.81,0,3.49,1.09,3.94,2.94h-1.31c-.34-1.09-1.39-1.79-2.59-1.79-1.78,0-2.98,1.41-2.98,3.22s1.26,3.22,3.01,3.22c1.2,0,2.27-.7,2.59-1.79h1.3c-.43,1.86-2.13,2.95-3.94,2.95-2.51,0-4.27-1.9-4.27-4.37h-.01Z"/>
    <path d="M435.99,13.61c0-2.66,1.81-4.37,4.08-4.37,2.53,0,4.03,1.86,4.03,4.26v.56h-6.79c.06,1.66,1.14,2.77,2.85,2.77,1.1,0,2.16-.53,2.54-1.5h1.31c-.46,1.55-1.92,2.66-3.87,2.66-2.54,0-4.16-1.87-4.16-4.37h.01ZM442.76,12.94c-.11-1.66-1.28-2.54-2.69-2.54s-2.59,1.01-2.72,2.54h5.41Z"/>
    <path d="M446.34,9.45h1.26v1.22h.1c.35-.75,1.25-1.42,2.54-1.42,1.94,0,3.1,1.46,3.1,3.3v5.23h-1.26v-5.15c0-1.33-.98-2.19-2.15-2.19-1.31,0-2.34,1.01-2.34,2.39v4.96h-1.26v-8.34Z"/>
    <path d="M456.84,15.26v-4.74h-1.57v-1.07h1.25c.22,0,.4-.14.4-.42v-2h1.18v2.42h2.56v1.07h-2.56v4.72c0,.9.34,1.42,1.3,1.42h1.15v1.1h-1.23c-1.54,0-2.48-.83-2.48-2.51h0Z"/>
    <path d="M462.26,13.61c0-2.66,1.81-4.37,4.08-4.37,2.53,0,4.03,1.86,4.03,4.26v.56h-6.79c.06,1.66,1.14,2.77,2.85,2.77,1.1,0,2.16-.53,2.54-1.5h1.31c-.46,1.55-1.92,2.66-3.87,2.66-2.54,0-4.16-1.87-4.16-4.37h.01ZM469.04,12.94c-.11-1.66-1.28-2.54-2.69-2.54s-2.59,1.01-2.72,2.54h5.41Z"/>
    <path d="M472.62,9.45h1.25v1.55h.1c.24-.7,1.06-1.55,2.27-1.55h.7v1.26h-.69c-1.52,0-2.37,1.18-2.37,2.77v4.29h-1.26v-8.32Z"/>
    <path d="M483.53,19.07h1.2c.22.98,1.18,1.49,2.42,1.49,1.95,0,2.83-1.09,2.83-2.79v-1.31h-.1c-.21.3-1.07,1.52-2.88,1.52-2.45,0-4.15-1.81-4.15-4.35s1.7-4.39,4.05-4.39c1.74,0,2.67,1.12,2.93,1.55h.1v-1.34h1.26v8.32c0,2.45-1.55,3.89-4.05,3.89-2.03,0-3.34-1.1-3.62-2.59h0ZM489.98,13.63c0-2.05-1.28-3.23-2.93-3.23s-2.9,1.34-2.9,3.23,1.18,3.22,2.93,3.22,2.9-1.47,2.9-3.22Z"/>
    <path d="M493.91,9.45h1.25v1.55h.1c.24-.7,1.06-1.55,2.27-1.55h.7v1.26h-.69c-1.52,0-2.37,1.18-2.37,2.77v4.29h-1.26v-8.32Z"/>
    <path d="M500.06,7.02c0-.51.38-.91.91-.91s.93.4.93.91-.38.93-.93.93-.91-.4-.91-.93ZM500.31,9.45h1.26v8.32h-1.26v-8.32Z"/>
    <path d="M503.66,13.63c0-2.56,1.7-4.39,4.05-4.39,1.74,0,2.67,1.12,2.93,1.55h.1v-5.03h1.26v12h-1.22v-1.31h-.1c-.21.3-1.07,1.52-2.88,1.52-2.45,0-4.15-1.81-4.15-4.35h.01ZM510.78,13.63c0-2.05-1.28-3.23-2.93-3.23s-2.9,1.34-2.9,3.23,1.18,3.22,2.93,3.22,2.9-1.47,2.9-3.22Z"/>
    <path d="M519.19,9.45h1.22v1.31h.1c.21-.3,1.07-1.52,2.88-1.52,2.45,0,4.15,1.81,4.15,4.35s-1.7,4.39-4.05,4.39c-1.74,0-2.67-1.12-2.93-1.55h-.1v5.03h-1.26v-12h-.01ZM526.23,13.6c0-1.95-1.18-3.22-2.93-3.22s-2.9,1.47-2.9,3.22c0,2.05,1.28,3.23,2.93,3.23s2.9-1.34,2.9-3.23Z"/>
    <path d="M529.13,13.61c0-2.51,1.87-4.37,4.35-4.37s4.34,1.87,4.34,4.37-1.86,4.37-4.35,4.37-4.34-1.84-4.34-4.37ZM536.52,13.61c0-1.84-1.26-3.22-3.06-3.22s-3.04,1.39-3.04,3.22,1.26,3.22,3.04,3.22,3.06-1.36,3.06-3.22Z"/>
    <path d="M538.86,9.45h1.38l2.02,6.88h.1l2.21-6.88h1.44l2.19,6.88h.1l2.03-6.88h1.38l-2.61,8.32h-1.63l-2.13-6.75h-.1l-2.14,6.75h-1.63l-2.59-8.32h-.02Z"/>
    <path d="M552.65,13.61c0-2.66,1.81-4.37,4.08-4.37,2.53,0,4.03,1.86,4.03,4.26v.56h-6.79c.06,1.66,1.14,2.77,2.85,2.77,1.1,0,2.16-.53,2.54-1.5h1.31c-.46,1.55-1.92,2.66-3.87,2.66-2.54,0-4.16-1.87-4.16-4.37h0ZM559.42,12.94c-.11-1.66-1.28-2.54-2.69-2.54s-2.59,1.01-2.72,2.54h5.41Z"/>
    <path d="M563,9.45h1.25v1.55h.1c.24-.7,1.06-1.55,2.27-1.55h.7v1.26h-.69c-1.52,0-2.37,1.18-2.37,2.77v4.29h-1.26v-8.32Z"/>
    <path d="M573.24,13.63c0-2.56,1.7-4.39,4.05-4.39,1.75,0,2.67,1.12,2.93,1.55h.1v-5.03h1.26v12h-1.22v-1.31h-.1c-.21.3-1.07,1.52-2.88,1.52-2.45,0-4.15-1.81-4.15-4.35h.01ZM580.36,13.63c0-2.05-1.28-3.23-2.93-3.23s-2.9,1.34-2.9,3.23,1.18,3.22,2.93,3.22,2.9-1.47,2.9-3.22Z"/>
    <path d="M583.66,13.61c0-2.66,1.81-4.37,4.08-4.37,2.53,0,4.03,1.86,4.03,4.26v.56h-6.79c.06,1.66,1.14,2.77,2.85,2.77,1.1,0,2.16-.53,2.54-1.5h1.31c-.46,1.55-1.92,2.66-3.87,2.66-2.54,0-4.16-1.87-4.16-4.37h0ZM590.43,12.94c-.11-1.66-1.28-2.54-2.69-2.54s-2.59,1.01-2.72,2.54h5.41Z"/>
    <path d="M594.01,9.45h1.26v1.2h.1c.4-.77,1.2-1.41,2.43-1.41s2.16.61,2.62,1.52h.11c.56-1.07,1.47-1.52,2.64-1.52,1.86,0,3.06,1.31,3.06,3.14v5.39h-1.26v-4.98c0-1.57-.78-2.37-2.02-2.37-1.17,0-2.19.83-2.19,2.39v4.96h-1.26v-5.22c0-1.33-.9-2.13-2.06-2.13s-2.16.93-2.16,2.34v5.01h-1.26v-8.32h0Z"/>
    <path d="M608.31,13.63c0-2.56,1.7-4.39,4.05-4.39,1.74,0,2.67,1.12,2.93,1.55h.1v-1.34h1.26v8.32h-1.22v-1.31h-.1c-.21.3-1.07,1.52-2.88,1.52-2.45,0-4.15-1.81-4.15-4.35h.01ZM615.43,13.63c0-2.05-1.28-3.23-2.93-3.23s-2.9,1.34-2.9,3.23,1.18,3.22,2.93,3.22,2.9-1.47,2.9-3.22Z"/>
    <path d="M619.37,9.45h1.26v1.22h.1c.35-.75,1.25-1.42,2.54-1.42,1.94,0,3.11,1.46,3.11,3.3v5.23h-1.26v-5.15c0-1.33-.98-2.19-2.14-2.19-1.31,0-2.34,1.01-2.34,2.39v4.96h-1.26v-8.34Z"/>
    <path d="M628.46,13.63c0-2.56,1.7-4.39,4.05-4.39,1.74,0,2.67,1.12,2.93,1.55h.1v-5.03h1.26v12h-1.22v-1.31h-.1c-.21.3-1.07,1.52-2.88,1.52-2.45,0-4.15-1.81-4.15-4.35h.01ZM635.58,13.63c0-2.05-1.28-3.23-2.93-3.23s-2.9,1.34-2.9,3.23,1.18,3.22,2.93,3.22,2.9-1.47,2.9-3.22Z"/>
    <path d="M639.72,16.29h1.39l-.74,3.59h-.93l.27-3.59h0Z"/>
    <path d="M349.07,35.58c0-1.49.8-2.42,2.26-3.35l2.03-1.28c.74-.46,1.25-1.14,1.25-2.13,0-1.17-.79-2.05-2.18-2.05-1.26,0-2.16.93-2.16,2.06h-1.22c0-1.54,1.18-3.28,3.41-3.28s3.47,1.57,3.47,3.23c0,1.3-.61,2.3-1.92,3.14l-1.97,1.25c-1.31.83-1.68,1.47-1.68,2.35v.26h5.67v1.18h-6.96v-1.39h0Z"/>
    <path d="M358.51,33.63v-4.51c0-2.22,1.79-3.55,3.62-3.55s3.62,1.33,3.62,3.55v4.51c0,2.22-1.79,3.55-3.62,3.55s-3.62-1.33-3.62-3.55ZM364.46,33.55v-4.35c0-1.36-.99-2.4-2.34-2.4s-2.34,1.04-2.34,2.4v4.35c0,1.38.98,2.4,2.34,2.4s2.34-1.02,2.34-2.4Z"/>
    <path d="M368.39,35.58c0-1.49.8-2.42,2.26-3.35l2.03-1.28c.74-.46,1.25-1.14,1.25-2.13,0-1.17-.78-2.05-2.18-2.05-1.26,0-2.16.93-2.16,2.06h-1.22c0-1.54,1.18-3.28,3.41-3.28s3.47,1.57,3.47,3.23c0,1.3-.61,2.3-1.92,3.14l-1.97,1.25c-1.31.83-1.68,1.47-1.68,2.35v.26h5.67v1.18h-6.96v-1.39h0Z"/>
    <path d="M377.83,33.63v-4.51c0-2.22,1.79-3.55,3.62-3.55s3.62,1.33,3.62,3.55v4.51c0,2.22-1.79,3.55-3.62,3.55s-3.62-1.33-3.62-3.55ZM383.79,33.55v-4.35c0-1.36-.99-2.4-2.34-2.4s-2.34,1.04-2.34,2.4v4.35c0,1.38.98,2.4,2.34,2.4s2.34-1.02,2.34-2.4Z"/>
    <path d="M387.55,31.61h8.29v1.09h-8.29v-1.09Z"/>
    <path d="M398.25,35.58c0-1.49.8-2.42,2.26-3.35l2.03-1.28c.74-.46,1.25-1.14,1.25-2.13,0-1.17-.79-2.05-2.18-2.05-1.26,0-2.16.93-2.16,2.06h-1.22c0-1.54,1.18-3.28,3.41-3.28s3.47,1.57,3.47,3.23c0,1.3-.61,2.3-1.92,3.14l-1.97,1.25c-1.31.83-1.68,1.47-1.68,2.35v.26h5.67v1.18h-6.96v-1.39h0Z"/>
    <path d="M407.69,33.63v-4.51c0-2.22,1.79-3.55,3.62-3.55s3.62,1.33,3.62,3.55v4.51c0,2.22-1.79,3.55-3.62,3.55s-3.62-1.33-3.62-3.55ZM413.64,33.55v-4.35c0-1.36-.99-2.4-2.34-2.4s-2.34,1.04-2.34,2.4v4.35c0,1.38.98,2.4,2.34,2.4s2.34-1.02,2.34-2.4Z"/>
    <path d="M417.56,33.89h1.22c.03,1.17.94,2.06,2.26,2.06,1.42,0,2.4-.9,2.4-2.37s-1.06-2.34-2.43-2.34h-1.3v-1.1l2.96-3.09v-.1h-4.85v-1.18h6.51v1.2l-3.01,3.06v.1c1.91.06,3.44,1.47,3.44,3.43s-1.34,3.62-3.73,3.62-3.47-1.82-3.47-3.28h0Z"/>
    <path d="M427.4,33.63v-4.51c0-2.22,1.79-3.55,3.62-3.55s3.62,1.33,3.62,3.55v4.51c0,2.22-1.79,3.55-3.62,3.55s-3.62-1.33-3.62-3.55ZM433.36,33.55v-4.35c0-1.36-.99-2.4-2.34-2.4s-2.34,1.04-2.34,2.4v4.35c0,1.38.98,2.4,2.34,2.4s2.34-1.02,2.34-2.4Z"/>
  </g>
  <g>
    <path d="M6.93,287.02h.81c0,.81.66,1.46,1.72,1.46.92,0,1.58-.45,1.58-1.18,0-2.19-3.87-.66-3.87-3.46,0-1,.83-1.87,2.24-1.87,1.06,0,2.3.58,2.3,2.03h-.83c0-.8-.53-1.29-1.48-1.29s-1.42.55-1.42,1.13c0,1.91,3.88.58,3.88,3.41,0,1.1-.9,1.98-2.43,1.98-1.39,0-2.5-.91-2.5-2.21h0Z"/>
    <path d="M12.86,286.5c0-1.57,1.17-2.73,2.72-2.73s2.71,1.17,2.71,2.73-1.16,2.73-2.72,2.73-2.71-1.15-2.71-2.73ZM17.48,286.5c0-1.15-.79-2.01-1.91-2.01s-1.9.87-1.9,2.01.79,2.01,1.9,2.01,1.91-.85,1.91-2.01Z"/>
    <path d="M19.59,287.17v-3.27h.79v3.24c0,.83.61,1.37,1.34,1.37.82,0,1.46-.63,1.46-1.49v-3.12h.79v5.2h-.79v-.76h-.06c-.22.47-.78.89-1.59.89-1.21,0-1.94-.91-1.94-2.06h0Z"/>
    <path d="M25.67,283.9h.78v.97h.06c.15-.44.66-.97,1.42-.97h.44v.79h-.43c-.95,0-1.48.74-1.48,1.73v2.68h-.79v-5.2Z"/>
    <path d="M29.27,286.5c0-1.54,1.13-2.73,2.66-2.73,1.13,0,2.18.68,2.46,1.84h-.82c-.21-.68-.87-1.12-1.62-1.12-1.11,0-1.86.88-1.86,2.01s.79,2.01,1.88,2.01c.75,0,1.42-.44,1.62-1.12h.81c-.27,1.16-1.33,1.84-2.46,1.84-1.57,0-2.67-1.19-2.67-2.73Z"/>
    <path d="M35.4,286.5c0-1.66,1.13-2.73,2.55-2.73,1.58,0,2.52,1.16,2.52,2.66v.35h-4.24c.04,1.04.71,1.73,1.78,1.73.69,0,1.35-.33,1.59-.94h.82c-.29.97-1.2,1.66-2.42,1.66-1.59,0-2.6-1.17-2.6-2.73ZM39.63,286.08c-.07-1.04-.8-1.59-1.68-1.59s-1.62.63-1.7,1.59h3.38Z"/>
    <path d="M41.77,284.79c0-.31.26-.56.57-.56s.56.25.56.56-.25.57-.56.57-.57-.26-.57-.57ZM41.77,288.67c0-.31.26-.56.57-.56s.56.25.56.56-.25.56-.56.56-.57-.25-.57-.56Z"/>
    <path d="M47.5,282.11h.81v7h-.81v-7Z"/>
    <path d="M50.21,283.9h.79v.76h.06c.22-.47.78-.89,1.59-.89,1.21,0,1.94.91,1.94,2.06v3.27h-.79v-3.22c0-.83-.61-1.37-1.34-1.37-.82,0-1.46.63-1.46,1.49v3.1h-.79v-5.2h0Z"/>
    <path d="M56.77,287.53v-2.96h-.98v-.67h.78c.14,0,.25-.09.25-.26v-1.25h.74v1.51h1.6v.67h-1.6v2.95c0,.56.21.89.81.89h.72v.69h-.77c-.96,0-1.55-.52-1.55-1.57h0Z"/>
    <path d="M60.16,286.5c0-1.66,1.13-2.73,2.55-2.73,1.58,0,2.52,1.16,2.52,2.66v.35h-4.24c.04,1.04.71,1.73,1.78,1.73.69,0,1.35-.33,1.59-.94h.82c-.29.97-1.2,1.66-2.42,1.66-1.59,0-2.6-1.17-2.6-2.73ZM64.39,286.08c-.07-1.04-.8-1.59-1.68-1.59s-1.62.63-1.7,1.59h3.38Z"/>
    <path d="M66.63,283.9h.78v.97h.06c.15-.44.66-.97,1.42-.97h.44v.79h-.43c-.95,0-1.48.74-1.48,1.73v2.68h-.79s0-5.2,0-5.2Z"/>
    <path d="M70.63,283.9h.79v.76h.06c.22-.47.78-.89,1.59-.89,1.21,0,1.94.91,1.94,2.06v3.27h-.79v-3.22c0-.83-.61-1.37-1.34-1.37-.82,0-1.46.63-1.46,1.49v3.1h-.79v-5.2h0Z"/>
    <path d="M76.31,286.51c0-1.6,1.06-2.74,2.53-2.74,1.09,0,1.67.7,1.83.97h.06v-.84h.79v5.2h-.76v-.82h-.06c-.13.19-.67.95-1.8.95-1.53,0-2.59-1.13-2.59-2.72h0ZM80.76,286.51c0-1.28-.8-2.02-1.83-2.02s-1.81.84-1.81,2.02.74,2.01,1.83,2.01,1.81-.92,1.81-2.01Z"/>
    <path d="M83.7,287.53v-2.96h-.98v-.67h.78c.14,0,.25-.09.25-.26v-1.25h.74v1.51h1.6v.67h-1.6v2.95c0,.56.21.89.81.89h.72v.69h-.77c-.96,0-1.55-.52-1.55-1.57h0Z"/>
    <path d="M87.33,282.39c0-.32.24-.57.57-.57s.58.25.58.57-.24.58-.58.58-.57-.25-.57-.58ZM87.49,283.9h.79v5.2h-.79v-5.2Z"/>
    <path d="M89.58,286.5c0-1.57,1.17-2.73,2.72-2.73s2.71,1.17,2.71,2.73-1.16,2.73-2.72,2.73-2.71-1.15-2.71-2.73ZM94.2,286.5c0-1.15-.79-2.01-1.91-2.01s-1.9.87-1.9,2.01.79,2.01,1.9,2.01,1.91-.85,1.91-2.01Z"/>
    <path d="M96.41,283.9h.79v.76h.06c.22-.47.78-.89,1.59-.89,1.21,0,1.94.91,1.94,2.06v3.27h-.79v-3.22c0-.83-.61-1.37-1.34-1.37-.82,0-1.46.63-1.46,1.49v3.1h-.79v-5.2h0Z"/>
    <path d="M102.09,286.51c0-1.6,1.06-2.74,2.53-2.74,1.09,0,1.67.7,1.83.97h.06v-.84h.79v5.2h-.76v-.82h-.06c-.13.19-.67.95-1.8.95-1.53,0-2.59-1.13-2.59-2.72h0ZM106.54,286.51c0-1.28-.8-2.02-1.83-2.02s-1.81.84-1.81,2.02.74,2.01,1.83,2.01,1.81-.92,1.81-2.01Z"/>
    <path d="M109,287.99v-6.39h.79v6.39c0,.26.13.41.38.41h.24v.7h-.38c-.65,0-1.03-.4-1.03-1.11h0Z"/>
    <path d="M114.81,282.11h3.99v.74h-3.18v2.33h2.74v.73h-2.74v2.47h3.29v.73h-4.1v-7Z"/>
    <path d="M120.31,283.9h.79v.76h.06c.22-.47.78-.89,1.59-.89,1.21,0,1.94.91,1.94,2.06v3.27h-.79v-3.22c0-.83-.61-1.37-1.34-1.37-.82,0-1.46.63-1.46,1.49v3.1h-.79v-5.2h0Z"/>
    <path d="M125.99,286.5c0-1.66,1.13-2.73,2.55-2.73,1.58,0,2.52,1.16,2.52,2.66v.35h-4.24c.04,1.04.71,1.73,1.78,1.73.69,0,1.35-.33,1.59-.94h.82c-.29.97-1.2,1.66-2.42,1.66-1.59,0-2.6-1.17-2.6-2.73h0ZM130.22,286.08c-.07-1.04-.8-1.59-1.68-1.59s-1.62.63-1.7,1.59h3.38,0Z"/>
    <path d="M132.46,283.9h.78v.97h.06c.15-.44.66-.97,1.42-.97h.44v.79h-.43c-.95,0-1.48.74-1.48,1.73v2.68h-.79v-5.2h0Z"/>
    <path d="M136.48,289.91h.75c.14.61.74.93,1.51.93,1.22,0,1.77-.68,1.77-1.74v-.82h-.06c-.13.19-.67.95-1.8.95-1.53,0-2.59-1.13-2.59-2.72s1.06-2.74,2.53-2.74c1.09,0,1.67.7,1.83.97h.06v-.84h.79v5.2c0,1.53-.97,2.43-2.53,2.43-1.27,0-2.09-.69-2.26-1.62h0ZM140.51,286.51c0-1.28-.8-2.02-1.83-2.02s-1.81.84-1.81,2.02.74,2.01,1.83,2.01,1.81-.92,1.81-2.01Z"/>
    <path d="M142.88,290.68h.39c.51,0,.8-.22.97-.67l.24-.63-2.11-5.48h.88l1.61,4.4h.06l1.62-4.4h.89l-2.48,6.39c-.27.71-.68,1.11-1.53,1.11h-.54v-.72h0Z"/>
    <path d="M153.43,282.11h.95l2.69,7h-.85l-.63-1.66h-3.38l-.63,1.66h-.85l2.7-7h0ZM155.31,286.7l-1.38-3.66h-.06l-1.38,3.66h2.82Z"/>
    <path d="M158.19,289.91h.75c.14.61.74.93,1.51.93,1.22,0,1.77-.68,1.77-1.74v-.82h-.06c-.13.19-.67.95-1.8.95-1.53,0-2.59-1.13-2.59-2.72s1.06-2.74,2.53-2.74c1.09,0,1.67.7,1.83.97h.06v-.84h.79v5.2c0,1.53-.97,2.43-2.53,2.43-1.27,0-2.09-.69-2.26-1.62h0ZM162.22,286.51c0-1.28-.8-2.02-1.83-2.02s-1.81.84-1.81,2.02.74,2.01,1.83,2.01,1.81-.92,1.81-2.01Z"/>
    <path d="M164.28,286.5c0-1.66,1.13-2.73,2.55-2.73,1.58,0,2.52,1.16,2.52,2.66v.35h-4.24c.04,1.04.71,1.73,1.78,1.73.69,0,1.35-.33,1.59-.94h.82c-.29.97-1.2,1.66-2.42,1.66-1.59,0-2.6-1.17-2.6-2.73ZM168.51,286.08c-.07-1.04-.8-1.59-1.68-1.59s-1.62.63-1.7,1.59h3.38,0Z"/>
    <path d="M170.75,283.9h.79v.76h.06c.22-.47.78-.89,1.59-.89,1.21,0,1.94.91,1.94,2.06v3.27h-.79v-3.22c0-.83-.61-1.37-1.34-1.37-.82,0-1.46.63-1.46,1.49v3.1h-.79v-5.2h0Z"/>
    <path d="M176.43,286.5c0-1.54,1.13-2.73,2.66-2.73,1.13,0,2.18.68,2.46,1.84h-.82c-.21-.68-.87-1.12-1.62-1.12-1.11,0-1.86.88-1.86,2.01s.79,2.01,1.88,2.01c.75,0,1.42-.44,1.62-1.12h.81c-.27,1.16-1.33,1.84-2.46,1.84-1.57,0-2.67-1.19-2.67-2.73Z"/>
    <path d="M182.87,290.68h.39c.51,0,.8-.22.97-.67l.24-.63-2.11-5.48h.88l1.61,4.4h.06l1.62-4.4h.89l-2.48,6.39c-.27.71-.68,1.11-1.53,1.11h-.54v-.72h0Z"/>
    <path d="M190.97,286c0-2.18,1.27-3.7,2.82-4.53l.36.6c-1.34.73-2.39,2.05-2.39,3.93s1.05,3.2,2.39,3.93l-.36.6c-1.55-.83-2.82-2.35-2.82-4.53Z"/>
    <path d="M196.05,282.11h.81v7h-.81v-7Z"/>
    <path d="M198.86,282.11h3.99v.74h-3.18v2.33h2.74v.73h-2.74v2.47h3.29v.73h-4.1v-7Z"/>
    <path d="M206.36,282.11h.95l2.69,7h-.85l-.63-1.66h-3.38l-.63,1.66h-.85l2.7-7h0ZM208.24,286.7l-1.38-3.66h-.06l-1.38,3.66h2.82Z"/>
    <path d="M214.28,286c0,2.18-1.27,3.7-2.82,4.53l-.36-.6c1.34-.73,2.39-2.05,2.39-3.93s-1.05-3.2-2.39-3.93l.36-.6c1.55.83,2.82,2.35,2.82,4.53Z"/>
    <path d="M215.76,288.17h.87l-.46,2.24h-.58l.17-2.24h0Z"/>
    <path d="M220.64,287.02h.81c0,.81.66,1.46,1.72,1.46.92,0,1.58-.45,1.58-1.18,0-2.19-3.87-.66-3.87-3.46,0-1,.83-1.87,2.24-1.87,1.06,0,2.3.58,2.3,2.03h-.83c0-.8-.53-1.29-1.48-1.29s-1.42.55-1.42,1.13c0,1.91,3.88.58,3.88,3.41,0,1.1-.9,1.98-2.43,1.98-1.39,0-2.5-.91-2.5-2.21h0Z"/>
    <path d="M231.44,289.1l-.53-.58c-.53.44-1.2.71-2,.71-1.28,0-2.29-.8-2.29-1.98,0-.75.38-1.38,1.37-1.92-.36-.41-.76-.91-.76-1.66,0-.86.72-1.7,1.83-1.7,1.17,0,1.79.78,1.8,1.66,0,.89-.59,1.41-1.33,1.77l-.32.15,1.7,1.8c.37-.62.51-1.42.35-2.2h.76c.22.97,0,2-.57,2.78l1.1,1.17h-1.11ZM230.4,287.96l-1.89-2.06-.13.06c-.54.26-.97.65-.97,1.29,0,.69.67,1.26,1.5,1.26.59,0,1.1-.21,1.49-.55h0ZM228.02,283.67c0,.5.25.87.66,1.32l.55-.26c.68-.32.84-.61.84-1.1s-.37-.96-1.01-.96c-.59,0-1.04.43-1.04,1h0Z"/>
    <path d="M233.85,282.11h2.51c1.27,0,2.14.83,2.14,2.1s-.91,2.13-2.14,2.13h-1.7v2.77h-.81v-7ZM236.29,285.61c.84,0,1.38-.6,1.38-1.41s-.54-1.38-1.38-1.38h-1.63v2.79h1.63Z"/>
  </g>
</svg>