<?xml version="1.0" encoding="UTF-8"?>
<svg xmlns="http://www.w3.org/2000/svg" version="1.1" viewBox="0 0 650 364.89">
  <!-- Generator: Adobe Illustrator 30.1.0, SVG Export Plug-In . SVG Version: 2.1.1 Build 136)  -->
  <defs>
    <style>
      .st0 {
        fill: #d1d3d4;
      }

      .st1 {
        fill: #eee4cf;
      }

      .st2 {
        fill: #fff;
      }

      .st3 {
        fill: #4032e7;
      }

      .st4 {
        fill: #ffaf34;
      }

      .st5 {
        fill: #98c8d1;
      }

      .st6 {
        fill: #02003b;
      }

      .st7 {
        fill: #05028b;
      }
    </style>
  </defs>
  <g id="Layer_1">
    <rect class="st0" x="43.06" y="158.64" width="559.34" height=".5"/>
    <rect class="st0" x="322.59" y="27.26" width=".5" height="263.25"/>
    <g>
      <path d="M13.97,5.23h1.52l4.31,11.2h-1.36l-1.01-2.66h-5.41l-1.01,2.66h-1.36l4.32-11.2ZM16.98,12.6l-2.21-5.86h-.1l-2.21,5.86h4.51Z"/>
      <path d="M21.71,5.23h1.3v11.2h-1.3V5.23Z"/>
      <path d="M25.73,11.03h4.08v1.18h-4.08v-1.18Z"/>
      <path d="M32.53,5.23h1.42l4.34,9.78h.1l4.02-9.78h1.42v11.2h-1.25v-8.36h-.1l-3.41,8.36h-1.47l-3.73-8.36h-.1v8.36h-1.25V5.23Z"/>
      <path d="M46.23,12.28c0-2.66,1.81-4.37,4.08-4.37,2.53,0,4.03,1.86,4.03,4.26v.56h-6.79c.06,1.66,1.14,2.77,2.85,2.77,1.1,0,2.16-.53,2.54-1.5h1.31c-.46,1.55-1.92,2.66-3.87,2.66-2.54,0-4.16-1.87-4.16-4.37ZM53,11.6c-.11-1.66-1.28-2.54-2.69-2.54s-2.59,1.01-2.72,2.54h5.41Z"/>
      <path d="M55.94,12.29c0-2.56,1.7-4.39,4.05-4.39,1.74,0,2.67,1.12,2.93,1.55h.1v-5.03h1.26v12h-1.22v-1.31h-.1c-.21.3-1.07,1.52-2.88,1.52-2.45,0-4.15-1.81-4.15-4.35ZM63.06,12.29c0-2.05-1.28-3.23-2.93-3.23s-2.9,1.34-2.9,3.23,1.18,3.22,2.93,3.22,2.9-1.47,2.9-3.22Z"/>
      <path d="M66.74,5.68c0-.51.38-.91.91-.91s.93.4.93.91-.38.93-.93.93-.91-.4-.91-.93ZM66.99,8.12h1.26v8.32h-1.26v-8.32Z"/>
      <path d="M70.34,12.29c0-2.56,1.7-4.39,4.05-4.39,1.74,0,2.67,1.12,2.93,1.55h.1v-1.34h1.26v8.32h-1.22v-1.31h-.1c-.21.3-1.07,1.52-2.88,1.52-2.45,0-4.15-1.81-4.15-4.35ZM77.46,12.29c0-2.05-1.28-3.23-2.93-3.23s-2.9,1.34-2.9,3.23,1.18,3.22,2.93,3.22,2.9-1.47,2.9-3.22Z"/>
      <path d="M82.16,13.93v-4.74h-1.57v-1.07h1.25c.22,0,.4-.14.4-.42v-2h1.18v2.42h2.56v1.07h-2.56v4.72c0,.9.34,1.42,1.3,1.42h1.15v1.1h-1.23c-1.54,0-2.48-.83-2.48-2.51Z"/>
      <path d="M87.59,12.28c0-2.66,1.81-4.37,4.08-4.37,2.53,0,4.03,1.86,4.03,4.26v.56h-6.79c.06,1.66,1.14,2.77,2.85,2.77,1.1,0,2.16-.53,2.54-1.5h1.31c-.46,1.55-1.92,2.66-3.87,2.66-2.54,0-4.16-1.87-4.16-4.37ZM94.36,11.6c-.11-1.66-1.28-2.54-2.69-2.54s-2.59,1.01-2.72,2.54h5.41Z"/>
      <path d="M97.3,12.29c0-2.56,1.7-4.39,4.05-4.39,1.74,0,2.67,1.12,2.93,1.55h.1v-5.03h1.26v12h-1.22v-1.31h-.1c-.21.3-1.07,1.52-2.88,1.52-2.45,0-4.15-1.81-4.15-4.35ZM104.42,12.29c0-2.05-1.28-3.23-2.93-3.23s-2.9,1.34-2.9,3.23,1.18,3.22,2.93,3.22,2.9-1.47,2.9-3.22Z"/>
      <path d="M112.99,5.23h3.79c2.29,0,3.65,1.34,3.65,3.31,0,1.65-1.07,2.87-2.34,3.23l2.62,4.66h-1.5l-2.48-4.53h-2.45v4.53h-1.3V5.23ZM116.79,10.76c1.31,0,2.31-.74,2.31-2.21,0-1.18-.8-2.16-2.39-2.16h-2.42v4.37h2.5Z"/>
      <path d="M122.62,5.68c0-.51.38-.91.91-.91s.93.4.93.91-.38.93-.93.93-.91-.4-.91-.93ZM122.88,8.12h1.26v8.32h-1.26v-8.32Z"/>
      <path d="M126.39,14.02h1.23c.14.99.85,1.52,2.06,1.52s1.94-.61,1.94-1.46c0-2.34-4.98-.56-4.98-3.86,0-1.41,1.26-2.32,3.01-2.32,1.54,0,2.82.9,2.95,2.4h-1.22c-.11-.78-.7-1.31-1.81-1.31-1.04,0-1.71.51-1.71,1.23,0,2.11,4.99.35,4.99,3.79,0,1.57-1.3,2.62-3.23,2.62s-3.09-1.07-3.23-2.62Z"/>
      <path d="M140.63,16.44l-2.64-4.16-1.39,1.49v2.67h-1.26V4.43h1.26v7.6h.1l3.57-3.92h1.6l-3.03,3.23,3.23,5.09h-1.44Z"/>
      <path d="M147.58,13.11h1.3c0,1.3,1.06,2.34,2.75,2.34,1.47,0,2.53-.72,2.53-1.89,0-3.51-6.19-1.06-6.19-5.54,0-1.6,1.33-2.99,3.59-2.99,1.7,0,3.68.93,3.68,3.25h-1.33c0-1.28-.85-2.06-2.37-2.06s-2.27.88-2.27,1.81c0,3.06,6.21.93,6.21,5.46,0,1.76-1.44,3.17-3.89,3.17-2.22,0-4-1.46-4-3.54Z"/>
      <path d="M158.48,13.93v-4.74h-1.57v-1.07h1.25c.22,0,.4-.14.4-.42v-2h1.18v2.42h2.56v1.07h-2.56v4.72c0,.9.34,1.42,1.3,1.42h1.15v1.1h-1.23c-1.54,0-2.48-.83-2.48-2.51Z"/>
      <path d="M164.54,8.12h1.25v1.55h.1c.24-.7,1.06-1.55,2.27-1.55h.7v1.26h-.69c-1.52,0-2.37,1.18-2.37,2.77v4.29h-1.26v-8.32Z"/>
      <path d="M170.3,12.29c0-2.56,1.7-4.39,4.05-4.39,1.74,0,2.67,1.12,2.93,1.55h.1v-1.34h1.26v8.32h-1.22v-1.31h-.1c-.21.3-1.07,1.52-2.88,1.52-2.45,0-4.15-1.81-4.15-4.35ZM177.43,12.29c0-2.05-1.28-3.23-2.93-3.23s-2.9,1.34-2.9,3.23,1.18,3.22,2.93,3.22,2.9-1.47,2.9-3.22Z"/>
      <path d="M182.13,13.93v-4.74h-1.57v-1.07h1.25c.22,0,.4-.14.4-.42v-2h1.18v2.42h2.56v1.07h-2.56v4.72c0,.9.34,1.42,1.3,1.42h1.15v1.1h-1.23c-1.54,0-2.48-.83-2.48-2.51Z"/>
      <path d="M187.55,12.28c0-2.66,1.81-4.37,4.08-4.37,2.53,0,4.03,1.86,4.03,4.26v.56h-6.79c.06,1.66,1.14,2.77,2.85,2.77,1.1,0,2.16-.53,2.54-1.5h1.31c-.46,1.55-1.92,2.66-3.87,2.66-2.54,0-4.16-1.87-4.16-4.37ZM194.32,11.6c-.11-1.66-1.28-2.54-2.69-2.54s-2.59,1.01-2.72,2.54h5.41Z"/>
      <path d="M197.94,17.74h1.2c.22.98,1.18,1.49,2.42,1.49,1.95,0,2.83-1.09,2.83-2.79v-1.31h-.1c-.21.3-1.07,1.52-2.88,1.52-2.45,0-4.15-1.81-4.15-4.35s1.7-4.39,4.05-4.39c1.74,0,2.67,1.12,2.93,1.55h.1v-1.34h1.26v8.32c0,2.45-1.55,3.89-4.05,3.89-2.03,0-3.35-1.1-3.62-2.59ZM204.39,12.29c0-2.05-1.28-3.23-2.93-3.23s-2.9,1.34-2.9,3.23,1.18,3.22,2.93,3.22,2.9-1.47,2.9-3.22Z"/>
      <path d="M208.06,5.68c0-.51.38-.91.91-.91s.93.4.93.91-.38.93-.93.93-.91-.4-.91-.93ZM208.32,8.12h1.26v8.32h-1.26v-8.32Z"/>
      <path d="M211.66,12.28c0-2.46,1.81-4.37,4.26-4.37,1.81,0,3.49,1.09,3.94,2.94h-1.31c-.34-1.09-1.39-1.79-2.59-1.79-1.78,0-2.98,1.41-2.98,3.22s1.26,3.22,3.01,3.22c1.2,0,2.27-.7,2.59-1.79h1.3c-.43,1.86-2.13,2.95-3.94,2.95-2.51,0-4.27-1.9-4.27-4.37Z"/>
      <path d="M229.79,5.23h1.52l4.31,11.2h-1.36l-1.01-2.66h-5.41l-1.01,2.66h-1.36l4.32-11.2ZM232.8,12.6l-2.21-5.86h-.1l-2.21,5.86h4.51Z"/>
      <path d="M236.9,14.02h1.23c.14.99.85,1.52,2.06,1.52s1.94-.61,1.94-1.46c0-2.34-4.98-.56-4.98-3.86,0-1.41,1.26-2.32,3.01-2.32,1.54,0,2.82.9,2.95,2.4h-1.22c-.11-.78-.7-1.31-1.81-1.31-1.04,0-1.71.51-1.71,1.23,0,2.11,4.99.35,4.99,3.79,0,1.57-1.3,2.62-3.23,2.62s-3.09-1.07-3.23-2.62Z"/>
      <path d="M245.36,14.02h1.23c.14.99.85,1.52,2.06,1.52s1.94-.61,1.94-1.46c0-2.34-4.98-.56-4.98-3.86,0-1.41,1.26-2.32,3.01-2.32,1.54,0,2.82.9,2.95,2.4h-1.22c-.11-.78-.7-1.31-1.81-1.31-1.04,0-1.71.51-1.71,1.23,0,2.11,4.99.35,4.99,3.79,0,1.57-1.3,2.62-3.23,2.62s-3.09-1.07-3.23-2.62Z"/>
      <path d="M253.66,12.28c0-2.66,1.81-4.37,4.08-4.37,2.53,0,4.03,1.86,4.03,4.26v.56h-6.79c.06,1.66,1.14,2.77,2.85,2.77,1.1,0,2.16-.53,2.54-1.5h1.31c-.46,1.55-1.92,2.66-3.87,2.66-2.54,0-4.16-1.87-4.16-4.37ZM260.43,11.6c-.11-1.66-1.28-2.54-2.69-2.54s-2.59,1.01-2.72,2.54h5.41Z"/>
      <path d="M263.53,14.02h1.23c.14.99.85,1.52,2.06,1.52s1.94-.61,1.94-1.46c0-2.34-4.98-.56-4.98-3.86,0-1.41,1.26-2.32,3.01-2.32,1.54,0,2.82.9,2.95,2.4h-1.22c-.11-.78-.7-1.31-1.81-1.31-1.04,0-1.71.51-1.71,1.23,0,2.11,4.99.35,4.99,3.79,0,1.57-1.3,2.62-3.23,2.62s-3.09-1.07-3.23-2.62Z"/>
      <path d="M272,14.02h1.23c.14.99.85,1.52,2.06,1.52s1.94-.61,1.94-1.46c0-2.34-4.98-.56-4.98-3.86,0-1.41,1.26-2.32,3.01-2.32,1.54,0,2.82.9,2.95,2.4h-1.22c-.11-.78-.7-1.31-1.81-1.31-1.04,0-1.71.51-1.71,1.23,0,2.11,4.99.35,4.99,3.79,0,1.57-1.3,2.62-3.23,2.62s-3.09-1.07-3.23-2.62Z"/>
      <path d="M280.94,8.12h1.26v1.2h.1c.4-.77,1.2-1.41,2.43-1.41s2.16.61,2.63,1.52h.11c.56-1.07,1.47-1.52,2.64-1.52,1.86,0,3.06,1.31,3.06,3.14v5.39h-1.26v-4.98c0-1.57-.78-2.37-2.02-2.37-1.17,0-2.19.83-2.19,2.39v4.96h-1.26v-5.22c0-1.33-.9-2.13-2.06-2.13s-2.16.93-2.16,2.34v5.01h-1.26v-8.32Z"/>
      <path d="M295.25,12.28c0-2.66,1.81-4.37,4.08-4.37,2.53,0,4.03,1.86,4.03,4.26v.56h-6.79c.06,1.66,1.14,2.77,2.85,2.77,1.1,0,2.16-.53,2.54-1.5h1.31c-.46,1.55-1.92,2.66-3.87,2.66-2.54,0-4.16-1.87-4.16-4.37ZM302.02,11.6c-.11-1.66-1.28-2.54-2.69-2.54s-2.59,1.01-2.72,2.54h5.41Z"/>
      <path d="M305.6,8.12h1.26v1.22h.1c.35-.75,1.25-1.42,2.54-1.42,1.94,0,3.1,1.46,3.1,3.3v5.23h-1.26v-5.15c0-1.33-.98-2.19-2.15-2.19-1.31,0-2.34,1.01-2.34,2.39v4.96h-1.26v-8.32Z"/>
      <path d="M316.09,13.93v-4.74h-1.57v-1.07h1.25c.22,0,.4-.14.4-.42v-2h1.18v2.42h2.56v1.07h-2.56v4.72c0,.9.34,1.42,1.3,1.42h1.15v1.1h-1.23c-1.54,0-2.48-.83-2.48-2.51Z"/>
      <path d="M322,9.54c0-.5.42-.9.91-.9s.9.4.9.9-.4.91-.9.91-.91-.42-.91-.91ZM322,15.75c0-.5.42-.9.91-.9s.9.4.9.9-.4.9-.9.9-.91-.4-.91-.9Z"/>
      <path d="M330.86,15.05c0-1.49.8-2.42,2.26-3.35l2.03-1.28c.74-.46,1.25-1.14,1.25-2.13,0-1.17-.78-2.05-2.18-2.05-1.26,0-2.16.93-2.16,2.06h-1.22c0-1.54,1.18-3.28,3.41-3.28s3.47,1.57,3.47,3.23c0,1.3-.61,2.3-1.92,3.14l-1.97,1.25c-1.31.83-1.68,1.47-1.68,2.35v.26h5.67v1.18h-6.96v-1.39Z"/>
      <path d="M340.3,13.09v-4.51c0-2.22,1.79-3.55,3.62-3.55s3.62,1.33,3.62,3.55v4.51c0,2.22-1.79,3.55-3.62,3.55s-3.62-1.33-3.62-3.55ZM346.26,13.01v-4.35c0-1.36-.99-2.4-2.34-2.4s-2.34,1.04-2.34,2.4v4.35c0,1.38.98,2.4,2.34,2.4s2.34-1.02,2.34-2.4Z"/>
      <path d="M350.19,15.05c0-1.49.8-2.42,2.26-3.35l2.03-1.28c.74-.46,1.25-1.14,1.25-2.13,0-1.17-.78-2.05-2.18-2.05-1.26,0-2.16.93-2.16,2.06h-1.22c0-1.54,1.18-3.28,3.41-3.28s3.47,1.57,3.47,3.23c0,1.3-.61,2.3-1.92,3.14l-1.97,1.25c-1.31.83-1.68,1.47-1.68,2.35v.26h5.67v1.18h-6.96v-1.39Z"/>
      <path d="M359.55,12.95c0-.77.24-1.47.58-2.08l3.15-5.63h1.47l-2.5,4.18.06.06c.26-.11.67-.19,1.02-.19,2.13,0,3.7,1.57,3.7,3.67s-1.65,3.7-3.76,3.7-3.73-1.58-3.73-3.7ZM365.71,12.95c0-1.36-.96-2.5-2.43-2.5s-2.42,1.14-2.42,2.5.96,2.48,2.42,2.48,2.43-1.1,2.43-2.48Z"/>
      <path d="M373.6,10.84c0-3.3,2.46-5.81,5.79-5.81s5.79,2.54,5.79,5.81-2.46,5.81-5.81,5.81-5.78-2.48-5.78-5.81ZM383.84,10.84c0-2.63-1.89-4.59-4.45-4.59s-4.45,1.97-4.45,4.59,1.89,4.59,4.45,4.59,4.45-1.94,4.45-4.59Z"/>
      <path d="M387.26,13.35v-5.23h1.26v5.19c0,1.33.98,2.19,2.14,2.19,1.31,0,2.34-1.01,2.34-2.39v-4.99h1.26v8.32h-1.26v-1.22h-.1c-.35.75-1.25,1.42-2.54,1.42-1.94,0-3.11-1.46-3.11-3.3Z"/>
      <path d="M397.76,13.93v-4.74h-1.57v-1.07h1.25c.22,0,.4-.14.4-.42v-2h1.18v2.42h2.56v1.07h-2.56v4.72c0,.9.34,1.42,1.3,1.42h1.15v1.1h-1.23c-1.54,0-2.48-.83-2.48-2.51Z"/>
      <path d="M403.82,14.66V4.43h1.26v10.23c0,.42.21.66.61.66h.38v1.12h-.61c-1.04,0-1.65-.64-1.65-1.78Z"/>
      <path d="M407.84,12.28c0-2.51,1.87-4.37,4.35-4.37s4.34,1.87,4.34,4.37-1.86,4.37-4.35,4.37-4.34-1.84-4.34-4.37ZM415.23,12.28c0-1.84-1.26-3.22-3.06-3.22s-3.04,1.39-3.04,3.22,1.26,3.22,3.04,3.22,3.06-1.36,3.06-3.22Z"/>
      <path d="M418.12,12.28c0-2.51,1.87-4.37,4.35-4.37s4.34,1.87,4.34,4.37-1.86,4.37-4.35,4.37-4.34-1.84-4.34-4.37ZM425.52,12.28c0-1.84-1.26-3.22-3.06-3.22s-3.04,1.39-3.04,3.22,1.26,3.22,3.04,3.22,3.06-1.36,3.06-3.22Z"/>
      <path d="M434.35,16.44l-2.64-4.16-1.39,1.49v2.67h-1.26V4.43h1.26v7.6h.1l3.57-3.92h1.6l-3.03,3.23,3.23,5.09h-1.44Z"/>
    </g>
    <g>
      <path d="M10.19,339.19h.83l3.66,5.59h.06v-5.59h.8v7h-.86l-3.62-5.59h-.06v5.59h-.81v-7Z"/>
      <path d="M17.04,343.59c0-1.57,1.17-2.73,2.72-2.73s2.71,1.17,2.71,2.73-1.16,2.73-2.72,2.73-2.71-1.15-2.71-2.73ZM21.65,343.59c0-1.15-.79-2.01-1.91-2.01s-1.9.87-1.9,2.01.79,2.01,1.9,2.01,1.91-.85,1.91-2.01Z"/>
      <path d="M24.34,344.62v-2.96h-.98v-.67h.78c.14,0,.25-.09.25-.26v-1.25h.74v1.51h1.6v.67h-1.6v2.95c0,.56.21.89.81.89h.72v.69h-.77c-.96,0-1.55-.52-1.55-1.57Z"/>
      <path d="M27.74,343.59c0-1.66,1.13-2.73,2.55-2.73,1.58,0,2.52,1.16,2.52,2.66v.35h-4.24c.04,1.04.71,1.73,1.78,1.73.69,0,1.35-.33,1.59-.94h.82c-.29.97-1.2,1.66-2.42,1.66-1.59,0-2.6-1.17-2.6-2.73ZM31.96,343.17c-.07-1.04-.8-1.59-1.68-1.59s-1.62.63-1.7,1.59h3.38Z"/>
      <path d="M34.11,341.88c0-.31.26-.56.57-.56s.56.25.56.56-.25.57-.56.57-.57-.26-.57-.57ZM34.11,345.76c0-.31.26-.56.57-.56s.56.25.56.56-.25.56-.56.56-.57-.25-.57-.56Z"/>
      <path d="M41.73,339.19h.95l2.69,7h-.85l-.63-1.66h-3.38l-.63,1.66h-.85l2.7-7ZM43.61,343.79l-1.38-3.66h-.06l-1.38,3.66h2.82Z"/>
      <path d="M46.48,340.99h.78v.97h.06c.15-.44.66-.97,1.42-.97h.44v.79h-.43c-.95,0-1.48.74-1.48,1.73v2.68h-.79v-5.2Z"/>
      <path d="M50.48,340.99h.78v.97h.06c.15-.44.66-.97,1.42-.97h.44v.79h-.43c-.95,0-1.48.74-1.48,1.73v2.68h-.79v-5.2Z"/>
      <path d="M54.08,343.59c0-1.57,1.17-2.73,2.72-2.73s2.71,1.17,2.71,2.73-1.16,2.73-2.72,2.73-2.71-1.15-2.71-2.73ZM58.69,343.59c0-1.15-.79-2.01-1.91-2.01s-1.9.87-1.9,2.01.79,2.01,1.9,2.01,1.91-.85,1.91-2.01Z"/>
      <path d="M60.31,340.99h.86l1.26,4.3h.06l1.38-4.3h.9l1.37,4.3h.06l1.27-4.3h.86l-1.63,5.2h-1.02l-1.33-4.22h-.06l-1.34,4.22h-1.02l-1.62-5.2Z"/>
      <path d="M69.23,344.68h.77c.09.62.53.95,1.29.95s1.21-.38,1.21-.91c0-1.46-3.11-.35-3.11-2.41,0-.88.79-1.45,1.88-1.45.96,0,1.76.56,1.84,1.5h-.76c-.07-.49-.44-.82-1.13-.82-.65,0-1.07.32-1.07.77,0,1.32,3.12.22,3.12,2.37,0,.98-.81,1.64-2.02,1.64s-1.93-.67-2.02-1.64Z"/>
      <path d="M77.46,339.47c0-.32.24-.57.57-.57s.58.25.58.57-.24.58-.58.58-.57-.25-.57-.58ZM77.62,340.99h.79v5.2h-.79v-5.2Z"/>
      <path d="M80.11,340.99h.79v.76h.06c.22-.47.78-.89,1.59-.89,1.21,0,1.94.91,1.94,2.06v3.27h-.79v-3.22c0-.83-.61-1.37-1.34-1.37-.82,0-1.46.63-1.46,1.49v3.1h-.79v-5.2Z"/>
      <path d="M85.79,343.6c0-1.6,1.06-2.74,2.53-2.74,1.09,0,1.67.7,1.83.97h.06v-3.14h.79v7.5h-.76v-.82h-.06c-.13.19-.67.95-1.8.95-1.53,0-2.59-1.13-2.59-2.72ZM90.23,343.6c0-1.28-.8-2.02-1.83-2.02s-1.81.84-1.81,2.02.74,2.01,1.83,2.01,1.81-.92,1.81-2.01Z"/>
      <path d="M92.53,339.47c0-.32.24-.57.57-.57s.58.25.58.57-.24.58-.58.58-.57-.25-.57-.58ZM92.69,340.99h.79v5.2h-.79v-5.2Z"/>
      <path d="M94.79,343.59c0-1.54,1.13-2.73,2.66-2.73,1.13,0,2.18.68,2.46,1.84h-.82c-.21-.68-.87-1.12-1.62-1.12-1.11,0-1.86.88-1.86,2.01s.79,2.01,1.88,2.01c.75,0,1.42-.44,1.62-1.12h.81c-.27,1.16-1.33,1.84-2.46,1.84-1.57,0-2.67-1.19-2.67-2.73Z"/>
      <path d="M100.92,343.6c0-1.6,1.06-2.74,2.53-2.74,1.09,0,1.67.7,1.83.97h.06v-.84h.79v5.2h-.76v-.82h-.06c-.13.19-.67.95-1.8.95-1.53,0-2.59-1.13-2.59-2.72ZM105.36,343.6c0-1.28-.8-2.02-1.83-2.02s-1.81.84-1.81,2.02.74,2.01,1.83,2.01,1.81-.92,1.81-2.01Z"/>
      <path d="M108.3,344.62v-2.96h-.98v-.67h.78c.14,0,.25-.09.25-.26v-1.25h.74v1.51h1.6v.67h-1.6v2.95c0,.56.21.89.81.89h.72v.69h-.77c-.96,0-1.55-.52-1.55-1.57Z"/>
      <path d="M111.7,343.59c0-1.66,1.13-2.73,2.55-2.73,1.58,0,2.52,1.16,2.52,2.66v.35h-4.24c.04,1.04.71,1.73,1.78,1.73.69,0,1.35-.33,1.59-.94h.82c-.29.97-1.2,1.66-2.42,1.66-1.59,0-2.6-1.17-2.6-2.73ZM115.92,343.17c-.07-1.04-.8-1.59-1.68-1.59s-1.62.63-1.7,1.59h3.38Z"/>
      <path d="M121.44,344.62v-2.96h-.98v-.67h.78c.14,0,.25-.09.25-.26v-1.25h.74v1.51h1.6v.67h-1.6v2.95c0,.56.21.89.81.89h.72v.69h-.77c-.96,0-1.55-.52-1.55-1.57Z"/>
      <path d="M125.23,338.69h.79v3.06h.06c.22-.47.8-.89,1.61-.89,1.21,0,1.96.91,1.96,2.06v3.27h-.79v-3.22c0-.83-.63-1.37-1.36-1.37-.8,0-1.48.59-1.48,1.43v3.16h-.79v-7.5Z"/>
      <path d="M130.96,343.59c0-1.66,1.13-2.73,2.55-2.73,1.58,0,2.52,1.16,2.52,2.66v.35h-4.24c.04,1.04.71,1.73,1.78,1.73.69,0,1.35-.33,1.59-.94h.82c-.29.97-1.2,1.66-2.42,1.66-1.59,0-2.6-1.17-2.6-2.73ZM135.18,343.17c-.07-1.04-.8-1.59-1.68-1.59s-1.62.63-1.7,1.59h3.38Z"/>
      <path d="M140.7,344.62v-2.96h-.98v-.67h.78c.14,0,.25-.09.25-.26v-1.25h.74v1.51h1.6v.67h-1.6v2.95c0,.56.21.89.81.89h.72v.69h-.77c-.96,0-1.55-.52-1.55-1.57Z"/>
      <path d="M144.49,340.99h.78v.97h.06c.15-.44.66-.97,1.42-.97h.44v.79h-.43c-.95,0-1.48.74-1.48,1.73v2.68h-.79v-5.2Z"/>
      <path d="M148.09,343.6c0-1.6,1.06-2.74,2.53-2.74,1.09,0,1.67.7,1.83.97h.06v-.84h.79v5.2h-.76v-.82h-.06c-.13.19-.67.95-1.8.95-1.53,0-2.59-1.13-2.59-2.72ZM152.54,343.6c0-1.28-.8-2.02-1.83-2.02s-1.81.84-1.81,2.02.74,2.01,1.83,2.01,1.81-.92,1.81-2.01Z"/>
      <path d="M154.15,347.77h.38c.62,0,.98-.41.98-.97v-5.81h.79v5.82c0,1.05-.73,1.68-1.78,1.68h-.37v-.72ZM155.33,339.47c0-.32.24-.57.57-.57s.58.25.58.57-.24.58-.58.58-.57-.25-.57-.58Z"/>
      <path d="M157.78,343.59c0-1.66,1.13-2.73,2.55-2.73,1.58,0,2.52,1.16,2.52,2.66v.35h-4.24c.04,1.04.71,1.73,1.78,1.73.69,0,1.35-.33,1.59-.94h.82c-.29.97-1.2,1.66-2.42,1.66-1.59,0-2.6-1.17-2.6-2.73ZM162.01,343.17c-.07-1.04-.8-1.59-1.68-1.59s-1.62.63-1.7,1.59h3.38Z"/>
      <path d="M163.85,343.59c0-1.54,1.13-2.73,2.66-2.73,1.13,0,2.18.68,2.46,1.84h-.82c-.21-.68-.87-1.12-1.62-1.12-1.11,0-1.86.88-1.86,2.01s.79,2.01,1.88,2.01c.75,0,1.42-.44,1.62-1.12h.81c-.27,1.16-1.33,1.84-2.46,1.84-1.57,0-2.67-1.19-2.67-2.73Z"/>
      <path d="M170.86,344.62v-2.96h-.98v-.67h.78c.14,0,.25-.09.25-.26v-1.25h.74v1.51h1.6v.67h-1.6v2.95c0,.56.21.89.81.89h.72v.69h-.77c-.96,0-1.55-.52-1.55-1.57Z"/>
      <path d="M174.25,343.59c0-1.57,1.17-2.73,2.72-2.73s2.71,1.17,2.71,2.73-1.16,2.73-2.72,2.73-2.71-1.15-2.71-2.73ZM178.87,343.59c0-1.15-.79-2.01-1.91-2.01s-1.9.87-1.9,2.01.79,2.01,1.9,2.01,1.91-.85,1.91-2.01Z"/>
      <path d="M181.08,340.99h.78v.97h.06c.15-.44.66-.97,1.42-.97h.44v.79h-.43c-.95,0-1.48.74-1.48,1.73v2.68h-.79v-5.2Z"/>
      <path d="M184.99,347.77h.39c.51,0,.8-.22.97-.67l.24-.63-2.11-5.48h.88l1.61,4.4h.06l1.62-4.4h.89l-2.48,6.39c-.27.71-.68,1.11-1.53,1.11h-.54v-.72Z"/>
      <path d="M193.14,343.59c0-1.57,1.17-2.73,2.72-2.73s2.71,1.17,2.71,2.73-1.16,2.73-2.72,2.73-2.71-1.15-2.71-2.73ZM197.76,343.59c0-1.15-.79-2.01-1.91-2.01s-1.9.87-1.9,2.01.79,2.01,1.9,2.01,1.91-.85,1.91-2.01Z"/>
      <path d="M200.35,341.66h-.98v-.67h.98v-.62c0-1.05.73-1.68,1.78-1.68h.49v.69h-.5c-.7,0-.98.44-.98,1v.61h1.52v.67h-1.52v4.53h-.79v-4.53Z"/>
      <path d="M206.81,340.99h.78v.97h.06c.15-.44.66-.97,1.42-.97h.44v.79h-.43c-.95,0-1.48.74-1.48,1.73v2.68h-.79v-5.2Z"/>
      <path d="M210.65,339.47c0-.32.24-.57.57-.57s.58.25.58.57-.24.58-.58.58-.57-.25-.57-.58ZM210.81,340.99h.79v5.2h-.79v-5.2Z"/>
      <path d="M213,344.68h.77c.09.62.53.95,1.29.95s1.21-.38,1.21-.91c0-1.46-3.11-.35-3.11-2.41,0-.88.79-1.45,1.88-1.45.96,0,1.76.56,1.84,1.5h-.76c-.07-.49-.44-.82-1.13-.82-.65,0-1.07.32-1.07.77,0,1.32,3.12.22,3.12,2.37,0,.98-.81,1.64-2.02,1.64s-1.93-.67-2.02-1.64Z"/>
      <path d="M221.9,346.19l-1.65-2.6-.87.93v1.67h-.79v-7.5h.79v4.75h.06l2.23-2.45h1l-1.89,2.02,2.02,3.18h-.9Z"/>
      <path d="M227.18,344.62v-2.96h-.98v-.67h.78c.14,0,.25-.09.25-.26v-1.25h.74v1.51h1.6v.67h-1.6v2.95c0,.56.21.89.81.89h.72v.69h-.77c-.96,0-1.55-.52-1.55-1.57Z"/>
      <path d="M230.97,338.69h.79v3.06h.06c.22-.47.8-.89,1.61-.89,1.21,0,1.96.91,1.96,2.06v3.27h-.79v-3.22c0-.83-.63-1.37-1.36-1.37-.8,0-1.48.59-1.48,1.43v3.16h-.79v-7.5Z"/>
      <path d="M237.09,340.99h.78v.97h.06c.15-.44.66-.97,1.42-.97h.44v.79h-.43c-.95,0-1.48.74-1.48,1.73v2.68h-.79v-5.2Z"/>
      <path d="M240.69,343.59c0-1.57,1.17-2.73,2.72-2.73s2.71,1.17,2.71,2.73-1.16,2.73-2.72,2.73-2.71-1.15-2.71-2.73ZM245.31,343.59c0-1.15-.79-2.01-1.91-2.01s-1.9.87-1.9,2.01.79,2.01,1.9,2.01,1.91-.85,1.91-2.01Z"/>
      <path d="M247.42,344.26v-3.27h.79v3.24c0,.83.61,1.37,1.34,1.37.82,0,1.46-.63,1.46-1.49v-3.12h.79v5.2h-.79v-.76h-.06c-.22.47-.78.89-1.59.89-1.21,0-1.94-.91-1.94-2.06Z"/>
      <path d="M253.52,347h.75c.14.61.74.93,1.51.93,1.22,0,1.77-.68,1.77-1.74v-.82h-.06c-.13.19-.67.95-1.8.95-1.53,0-2.59-1.13-2.59-2.72s1.06-2.74,2.53-2.74c1.09,0,1.67.7,1.83.97h.06v-.84h.79v5.2c0,1.53-.97,2.43-2.53,2.43-1.27,0-2.09-.69-2.26-1.62ZM257.55,343.6c0-1.28-.8-2.02-1.83-2.02s-1.81.84-1.81,2.02.74,2.01,1.83,2.01,1.81-.92,1.81-2.01Z"/>
      <path d="M260.01,338.69h.79v3.06h.06c.22-.47.8-.89,1.61-.89,1.21,0,1.96.91,1.96,2.06v3.27h-.79v-3.22c0-.83-.63-1.37-1.36-1.37-.8,0-1.48.59-1.48,1.43v3.16h-.79v-7.5Z"/>
      <path d="M268.84,345.32c0-.93.5-1.51,1.41-2.09l1.27-.8c.46-.29.78-.71.78-1.33,0-.73-.49-1.28-1.36-1.28-.79,0-1.35.58-1.35,1.29h-.76c0-.96.74-2.05,2.13-2.05s2.17.98,2.17,2.02c0,.81-.38,1.44-1.2,1.96l-1.23.78c-.82.52-1.05.92-1.05,1.47v.16h3.54v.74h-4.35v-.87Z"/>
      <path d="M274.74,344.1v-2.82c0-1.39,1.12-2.22,2.26-2.22s2.26.83,2.26,2.22v2.82c0,1.39-1.12,2.22-2.26,2.22s-2.26-.83-2.26-2.22ZM278.46,344.05v-2.72c0-.85-.62-1.5-1.46-1.5s-1.46.65-1.46,1.5v2.72c0,.86.61,1.5,1.46,1.5s1.46-.64,1.46-1.5Z"/>
      <path d="M280.92,345.32c0-.93.5-1.51,1.41-2.09l1.27-.8c.46-.29.78-.71.78-1.33,0-.73-.49-1.28-1.36-1.28-.79,0-1.35.58-1.35,1.29h-.76c0-.96.74-2.05,2.13-2.05s2.17.98,2.17,2.02c0,.81-.38,1.44-1.2,1.96l-1.23.78c-.82.52-1.05.92-1.05,1.47v.16h3.54v.74h-4.35v-.87Z"/>
      <path d="M286.77,344.01c0-.48.15-.92.36-1.3l1.97-3.52h.92l-1.56,2.61.04.04c.16-.07.42-.12.64-.12,1.33,0,2.31.98,2.31,2.29s-1.03,2.31-2.35,2.31-2.33-.99-2.33-2.31ZM290.62,344.01c0-.85-.6-1.56-1.52-1.56s-1.51.71-1.51,1.56.6,1.55,1.51,1.55,1.52-.69,1.52-1.55Z"/>
      <path d="M9.64,356.11h.81c0,.81.66,1.46,1.72,1.46.92,0,1.58-.45,1.58-1.18,0-2.19-3.87-.66-3.87-3.46,0-1,.83-1.87,2.24-1.87,1.06,0,2.3.58,2.3,2.03h-.83c0-.8-.53-1.29-1.48-1.29s-1.42.55-1.42,1.13c0,1.91,3.88.58,3.88,3.41,0,1.1-.9,1.98-2.43,1.98-1.39,0-2.5-.91-2.5-2.21Z"/>
      <path d="M15.57,355.59c0-1.57,1.17-2.73,2.72-2.73s2.71,1.17,2.71,2.73-1.16,2.73-2.72,2.73-2.71-1.15-2.71-2.73ZM20.18,355.59c0-1.15-.79-2.01-1.91-2.01s-1.9.87-1.9,2.01.79,2.01,1.9,2.01,1.91-.85,1.91-2.01Z"/>
      <path d="M22.3,356.26v-3.27h.79v3.24c0,.83.61,1.37,1.34,1.37.82,0,1.46-.63,1.46-1.49v-3.12h.79v5.2h-.79v-.76h-.06c-.22.47-.78.89-1.59.89-1.21,0-1.94-.91-1.94-2.06Z"/>
      <path d="M28.38,352.99h.78v.97h.06c.15-.44.66-.97,1.42-.97h.44v.79h-.43c-.95,0-1.48.74-1.48,1.73v2.68h-.79v-5.2Z"/>
      <path d="M31.98,355.59c0-1.54,1.13-2.73,2.66-2.73,1.13,0,2.18.68,2.46,1.84h-.82c-.21-.68-.87-1.12-1.62-1.12-1.11,0-1.86.88-1.86,2.01s.79,2.01,1.88,2.01c.75,0,1.42-.44,1.62-1.12h.81c-.27,1.16-1.33,1.84-2.46,1.84-1.57,0-2.67-1.19-2.67-2.73Z"/>
      <path d="M38.11,355.59c0-1.66,1.13-2.73,2.55-2.73,1.58,0,2.52,1.16,2.52,2.66v.35h-4.24c.04,1.04.71,1.73,1.78,1.73.69,0,1.35-.33,1.59-.94h.82c-.29.97-1.2,1.66-2.42,1.66-1.59,0-2.6-1.17-2.6-2.73ZM42.33,355.17c-.07-1.04-.8-1.59-1.68-1.59s-1.62.63-1.7,1.59h3.38Z"/>
      <path d="M44.48,353.88c0-.31.26-.56.57-.56s.56.25.56.56-.25.57-.56.57-.57-.26-.57-.57ZM44.48,357.76c0-.31.26-.56.57-.56s.56.25.56.56-.25.56-.56.56-.57-.25-.57-.56Z"/>
      <path d="M50.21,351.19h2.08c2.22,0,3.51,1.46,3.51,3.5,0,2.17-1.29,3.5-3.51,3.5h-2.08v-7ZM52.28,357.47c1.66,0,2.68-1.02,2.68-2.78s-1-2.77-2.68-2.77h-1.27v5.55h1.27Z"/>
      <path d="M56.8,354.69c0-2.06,1.52-3.63,3.6-3.63,1.61,0,2.83.95,3.29,2.27h-.9c-.37-.91-1.21-1.51-2.39-1.51-1.65,0-2.76,1.23-2.76,2.87s1.13,2.87,2.78,2.87c1.43,0,2.55-.94,2.6-2.34h-2.84v-.71h3.75c0,2.53-1.63,3.81-3.52,3.81-2.08,0-3.61-1.55-3.61-3.63Z"/>
      <path d="M67.32,351.19h.95l2.69,7h-.85l-.63-1.66h-3.38l-.63,1.66h-.85l2.7-7ZM69.2,355.79l-1.38-3.66h-.06l-1.38,3.66h2.82Z"/>
      <path d="M71.87,354.81h2.55v.74h-2.55v-.74Z"/>
      <path d="M78.01,351.19h.95l2.69,7h-.85l-.63-1.66h-3.38l-.63,1.66h-.85l2.7-7ZM79.89,355.79l-1.38-3.66h-.06l-1.38,3.66h2.82Z"/>
      <path d="M82.31,356.11h.81c0,.81.66,1.46,1.72,1.46.92,0,1.58-.45,1.58-1.18,0-2.19-3.87-.66-3.87-3.46,0-1,.83-1.87,2.24-1.87,1.06,0,2.3.58,2.3,2.03h-.83c0-.8-.53-1.29-1.48-1.29s-1.42.55-1.42,1.13c0,1.91,3.88.58,3.88,3.41,0,1.1-.9,1.98-2.43,1.98-1.39,0-2.5-.91-2.5-2.21Z"/>
      <path d="M88.24,354.69c0-2.06,1.52-3.63,3.6-3.63,1.61,0,2.83.95,3.29,2.27h-.9c-.37-.91-1.21-1.51-2.39-1.51-1.65,0-2.76,1.23-2.76,2.87s1.13,2.87,2.78,2.87c1.43,0,2.55-.94,2.6-2.34h-2.84v-.71h3.75c0,2.53-1.63,3.81-3.52,3.81-2.08,0-3.61-1.55-3.61-3.63Z"/>
      <path d="M101.1,351.93h-2.14v-.74h5.09v.74h-2.14v6.26h-.81v-6.26Z"/>
      <path d="M104.86,355.59c0-1.66,1.13-2.73,2.55-2.73,1.58,0,2.52,1.16,2.52,2.66v.35h-4.24c.04,1.04.71,1.73,1.78,1.73.69,0,1.35-.33,1.59-.94h.82c-.29.97-1.2,1.66-2.42,1.66-1.59,0-2.6-1.17-2.6-2.73ZM109.08,355.17c-.07-1.04-.8-1.59-1.68-1.59s-1.62.63-1.7,1.59h3.38Z"/>
      <path d="M110.93,355.59c0-1.54,1.13-2.73,2.66-2.73,1.13,0,2.18.68,2.46,1.84h-.82c-.21-.68-.87-1.12-1.62-1.12-1.11,0-1.86.88-1.86,2.01s.79,2.01,1.88,2.01c.75,0,1.42-.44,1.62-1.12h.81c-.27,1.16-1.33,1.84-2.46,1.84-1.57,0-2.67-1.19-2.67-2.73Z"/>
      <path d="M117.46,350.69h.79v3.06h.06c.22-.47.8-.89,1.61-.89,1.21,0,1.96.91,1.96,2.06v3.27h-.79v-3.22c0-.83-.63-1.37-1.36-1.37-.8,0-1.48.59-1.48,1.43v3.16h-.79v-7.5Z"/>
      <path d="M123.58,352.99h.79v.76h.06c.22-.47.78-.89,1.59-.89,1.21,0,1.94.91,1.94,2.06v3.27h-.79v-3.22c0-.83-.61-1.37-1.34-1.37-.82,0-1.46.63-1.46,1.49v3.1h-.79v-5.2Z"/>
      <path d="M129.25,355.59c0-1.57,1.17-2.73,2.72-2.73s2.71,1.17,2.71,2.73-1.16,2.73-2.72,2.73-2.71-1.15-2.71-2.73ZM133.87,355.59c0-1.15-.79-2.01-1.91-2.01s-1.9.87-1.9,2.01.79,2.01,1.9,2.01,1.91-.85,1.91-2.01Z"/>
      <path d="M136.08,357.08v-6.39h.79v6.39c0,.26.13.41.38.41h.24v.7h-.38c-.65,0-1.03-.4-1.03-1.11Z"/>
      <path d="M138.59,355.59c0-1.57,1.17-2.73,2.72-2.73s2.71,1.17,2.71,2.73-1.16,2.73-2.72,2.73-2.71-1.15-2.71-2.73ZM143.21,355.59c0-1.15-.79-2.01-1.91-2.01s-1.9.87-1.9,2.01.79,2.01,1.9,2.01,1.91-.85,1.91-2.01Z"/>
      <path d="M145.44,359h.75c.14.61.74.93,1.51.93,1.22,0,1.77-.68,1.77-1.74v-.82h-.06c-.13.19-.67.95-1.8.95-1.53,0-2.59-1.13-2.59-2.72s1.06-2.74,2.53-2.74c1.09,0,1.67.7,1.83.97h.06v-.84h.79v5.2c0,1.53-.97,2.43-2.53,2.43-1.27,0-2.09-.69-2.26-1.62ZM149.47,355.6c0-1.28-.8-2.02-1.83-2.02s-1.81.84-1.81,2.02.74,2.01,1.83,2.01,1.81-.92,1.81-2.01Z"/>
      <path d="M151.84,359.77h.39c.51,0,.8-.22.97-.67l.24-.63-2.11-5.48h.88l1.61,4.4h.06l1.62-4.4h.89l-2.48,6.39c-.27.71-.68,1.11-1.53,1.11h-.54v-.72Z"/>
      <path d="M160.49,351.19h2.51c1.27,0,2.14.83,2.14,2.1s-.91,2.13-2.14,2.13h-1.7v2.77h-.81v-7ZM162.93,354.7c.84,0,1.38-.6,1.38-1.41s-.54-1.38-1.38-1.38h-1.63v2.79h1.63Z"/>
      <path d="M166.04,355.59c0-1.57,1.17-2.73,2.72-2.73s2.71,1.17,2.71,2.73-1.16,2.73-2.72,2.73-2.71-1.15-2.71-2.73ZM170.66,355.59c0-1.15-.79-2.01-1.91-2.01s-1.9.87-1.9,2.01.79,2.01,1.9,2.01,1.91-.85,1.91-2.01Z"/>
      <path d="M172.87,357.08v-6.39h.79v6.39c0,.26.13.41.38.41h.24v.7h-.38c-.65,0-1.03-.4-1.03-1.11Z"/>
      <path d="M175.62,351.47c0-.32.24-.57.57-.57s.58.25.58.57-.24.58-.58.58-.57-.25-.57-.58ZM175.78,352.99h.79v5.2h-.79v-5.2Z"/>
      <path d="M177.87,355.59c0-1.54,1.13-2.73,2.66-2.73,1.13,0,2.18.68,2.46,1.84h-.82c-.21-.68-.87-1.12-1.62-1.12-1.11,0-1.86.88-1.86,2.01s.79,2.01,1.88,2.01c.75,0,1.42-.44,1.62-1.12h.81c-.27,1.16-1.33,1.84-2.46,1.84-1.57,0-2.67-1.19-2.67-2.73Z"/>
      <path d="M184.31,359.77h.39c.51,0,.8-.22.97-.67l.24-.63-2.11-5.48h.88l1.61,4.4h.06l1.62-4.4h.89l-2.48,6.39c-.27.71-.68,1.11-1.53,1.11h-.54v-.72Z"/>
      <path d="M192.96,351.19h2.51c1.27,0,2.14.83,2.14,2.1s-.91,2.13-2.14,2.13h-1.7v2.77h-.81v-7ZM195.4,354.7c.84,0,1.38-.6,1.38-1.41s-.54-1.38-1.38-1.38h-1.63v2.79h1.63Z"/>
      <path d="M198.91,352.99h.78v.97h.06c.15-.44.66-.97,1.42-.97h.44v.79h-.43c-.95,0-1.48.74-1.48,1.73v2.68h-.79v-5.2Z"/>
      <path d="M202.51,355.6c0-1.6,1.06-2.74,2.53-2.74,1.09,0,1.67.7,1.83.97h.06v-.84h.79v5.2h-.76v-.82h-.06c-.13.19-.67.95-1.8.95-1.53,0-2.59-1.13-2.59-2.72ZM206.96,355.6c0-1.28-.8-2.02-1.83-2.02s-1.81.84-1.81,2.02.74,2.01,1.83,2.01,1.81-.92,1.81-2.01Z"/>
      <path d="M209.02,355.59c0-1.54,1.13-2.73,2.66-2.73,1.13,0,2.18.68,2.46,1.84h-.82c-.21-.68-.87-1.12-1.62-1.12-1.11,0-1.86.88-1.86,2.01s.79,2.01,1.88,2.01c.75,0,1.42-.44,1.62-1.12h.81c-.27,1.16-1.33,1.84-2.46,1.84-1.57,0-2.67-1.19-2.67-2.73Z"/>
      <path d="M216.03,356.62v-2.96h-.98v-.67h.78c.14,0,.25-.09.25-.26v-1.25h.74v1.51h1.6v.67h-1.6v2.95c0,.56.21.89.81.89h.72v.69h-.77c-.96,0-1.55-.52-1.55-1.57Z"/>
      <path d="M219.66,351.47c0-.32.24-.57.57-.57s.58.25.58.57-.24.58-.58.58-.57-.25-.57-.58ZM219.82,352.99h.79v5.2h-.79v-5.2Z"/>
      <path d="M221.91,355.59c0-1.54,1.13-2.73,2.66-2.73,1.13,0,2.18.68,2.46,1.84h-.82c-.21-.68-.87-1.12-1.62-1.12-1.11,0-1.86.88-1.86,2.01s.79,2.01,1.88,2.01c.75,0,1.42-.44,1.62-1.12h.81c-.27,1.16-1.33,1.84-2.46,1.84-1.57,0-2.67-1.19-2.67-2.73Z"/>
      <path d="M228.04,355.59c0-1.66,1.13-2.73,2.55-2.73,1.58,0,2.52,1.16,2.52,2.66v.35h-4.24c.04,1.04.71,1.73,1.78,1.73.69,0,1.35-.33,1.59-.94h.82c-.29.97-1.2,1.66-2.42,1.66-1.59,0-2.6-1.17-2.6-2.73ZM232.27,355.17c-.07-1.04-.8-1.59-1.68-1.59s-1.62.63-1.7,1.59h3.38Z"/>
    </g>
    <path class="st0" d="M602.65,290.76H43.02V27.01h559.63v263.75ZM43.52,290.26h558.63V27.51H43.52v262.75Z"/>
    <g>
      <path d="M29.67,275.71v-.97l7.52,1.39v-3.62l.88.17v4.59l-8.4-1.56Z"/>
      <path d="M35.59,271.43c-2.12,0-3.92-1.64-3.92-3.87,0-1.64,1.1-2.77,2.63-2.77,2.12,0,3.92,1.64,3.92,3.88,0,1.64-1.09,2.77-2.63,2.77ZM34.43,265.79c-1.1,0-1.9.72-1.9,1.88,0,1.55,1.3,2.78,2.94,2.78,1.12,0,1.88-.73,1.88-1.88,0-1.55-1.28-2.78-2.93-2.78Z"/>
      <path d="M31.83,263.5v-1.01l5.16-.55v-.07l-5.16-2.61v-1.1l5.16-.68v-.07l-5.16-2.48v-1.03l6.24,3.11v1.22l-5.06.66v.07l5.06,2.54v1.22l-6.24.79Z"/>
    </g>
    <g>
      <path d="M29.67,180.18v-1.01l7.33-1.85v-.07l-7.33-4.4v-1.14l8.4,1.56v.95l-6.26-1.16v.07l6.26,3.74v1.1l-6.26,1.6v.07l6.26,1.16v.94l-8.4-1.56Z"/>
      <path d="M35.62,170.95c-2.16,0-3.95-1.49-3.95-3.69,0-1.92,1.34-2.83,3.19-2.47l.42.07v5.06c1.27.13,2.1-.44,2.1-1.74,0-.82-.4-1.68-1.15-2.09v-1c1.19.44,1.99,1.72,1.99,3.25,0,1.69-1.1,2.6-2.6,2.6ZM34.44,165.7c-1.25-.1-1.91.64-1.91,1.67s.71,2.09,1.91,2.38v-4.04Z"/>
      <path d="M35.68,163.65c-2.16,0-4.01-1.7-4.01-3.72,0-1.29.84-1.85,1.16-1.98v-.07l-3.77-.7v-.95l7.69,1.43c.31.06.49-.07.49-.36v-.31l.82.16v.6c0,.67-.4.98-.91.9h-.07s0,.07,0,.07c.24.2,1.14.9,1.14,2.36,0,1.58-1.02,2.57-2.54,2.57ZM34.36,158.18c-1.16,0-1.82.74-1.82,1.81,0,1.46,1.37,2.67,3.01,2.67,1.12,0,1.82-.68,1.82-1.81,0-1.57-1.37-2.68-3.01-2.68Z"/>
      <path d="M30.15,154.24c-.44,0-.83-.38-.83-.83,0-.36.24-.59.55-.59.44,0,.83.4.83.84,0,.35-.24.58-.55.58ZM36.89,155.28l-5.06-.92v-.95l4.91.91c.31.06.49-.07.49-.36v-.31l.84.16v.48c0,.77-.44,1.13-1.18,1Z"/>
      <path d="M35.75,151.84l-3.92-.73v-.95l3.89.72c1.12.2,1.64-.42,1.64-1.3,0-.98-.75-1.89-1.79-2.09l-3.74-.7v-.95l6.24,1.16v.95l-.91-.17v.07c.56.36,1.07,1.02,1.07,2.1,0,1.45-1.09,2.12-2.47,1.87Z"/>
      <path d="M31.83,143.82v-.95l.9.17v-.07c-.58-.41-1.06-1.1-1.06-2.03s.46-1.54,1.14-1.75v-.08c-.8-.58-1.14-1.32-1.14-2.19,0-1.38.98-2.1,2.35-1.85l4.04.74v.95l-3.73-.7c-1.18-.22-1.78.26-1.78,1.19,0,.88.62,1.76,1.79,1.98l3.72.68v.95l-3.91-.72c-1-.18-1.59.37-1.59,1.25s.7,1.75,1.75,1.94l3.75.7v.95l-6.24-1.15Z"/>
    </g>
    <g>
      <path d="M29.67,69.86v-.97l3.68.68v-4.46l-3.68-.68v-.97l8.4,1.56v.97l-3.83-.71v4.46l3.83.71v.97l-8.4-1.56Z"/>
      <path d="M30.15,61.46c-.44,0-.83-.38-.83-.83,0-.36.24-.59.55-.59.44,0,.83.4.83.84,0,.35-.24.58-.55.58ZM36.89,62.51l-5.06-.92v-.95l4.91.91c.31.06.49-.07.49-.36v-.31l.84.16v.48c0,.77-.44,1.13-1.18,1Z"/>
      <path d="M39.04,59.53v-.9c.73-.04,1.12-.68,1.12-1.61,0-1.45-.82-2.28-2.09-2.51l-.98-.18v.07c.23.19,1.14,1.02,1.14,2.36,0,1.6-1.02,2.58-2.54,2.58-2.16,0-4.01-1.7-4.01-3.72,0-1.3.84-1.85,1.16-1.98v-.07l-1.01-.18v-.95l6.24,1.15c1.83.34,2.91,1.46,2.91,3.56,0,1.52-.83,2.36-1.94,2.36ZM34.36,53.88c-1.16,0-1.82.74-1.82,1.81,0,1.46,1.38,2.67,3.01,2.67,1.13,0,1.82-.7,1.82-1.81,0-1.45-1.37-2.67-3.01-2.67Z"/>
      <path d="M29.07,49.91v-.95l3.67.68v-.07c-.56-.37-1.07-1.16-1.07-2.13,0-1.45,1.09-2.15,2.47-1.9l3.92.73v.95l-3.86-.72c-1.04-.19-1.64.5-1.64,1.33,0,.96.71,1.9,1.71,2.09l3.79.71v.95l-9-1.67Z"/>
    </g>
    <g>
      <path d="M16.04,247.43v-.97c.97,0,1.75-.79,1.75-2.06,0-1.1-.54-1.89-1.42-1.89-2.63,0-.79,4.64-4.15,4.64-1.2,0-2.24-1-2.24-2.69,0-1.27.7-2.76,2.44-2.76v1c-.96,0-1.55.64-1.55,1.78s.66,1.7,1.36,1.7c2.29,0,.7-4.65,4.09-4.65,1.32,0,2.38,1.08,2.38,2.92,0,1.67-1.09,3-2.65,3Z"/>
      <path d="M15.42,240.32c-1.99,0-3.27-1.36-3.27-3.06,0-1.89,1.39-3.02,3.19-3.02h.42v5.08c1.25-.05,2.07-.85,2.07-2.13,0-.83-.4-1.62-1.13-1.91v-.98c1.16.35,1.99,1.44,1.99,2.9,0,1.91-1.4,3.12-3.27,3.12ZM14.92,235.24c-1.25.08-1.91.96-1.91,2.01s.76,1.94,1.91,2.04v-4.05Z"/>
      <path d="M12.3,233.45v-1.02l5.07-1.88v-.07l-5.07-1.87v-1.04l6.24,2.46v.98l-6.24,2.45Z"/>
      <path d="M15.42,226.84c-1.99,0-3.27-1.36-3.27-3.06,0-1.89,1.39-3.02,3.19-3.02h.42v5.09c1.25-.05,2.07-.85,2.07-2.13,0-.83-.4-1.62-1.13-1.91v-.98c1.16.35,1.99,1.44,1.99,2.9,0,1.91-1.4,3.12-3.27,3.12ZM14.92,221.77c-1.25.08-1.91.96-1.91,2.01s.76,1.94,1.91,2.04v-4.05Z"/>
      <path d="M12.3,219.08v-.94h1.16v-.07c-.53-.18-1.16-.79-1.16-1.7v-.53h.95v.52c0,1.14.89,1.77,2.08,1.77h3.21v.95h-6.24Z"/>
      <path d="M10.48,214.47c-.38,0-.68-.29-.68-.68s.3-.7.68-.7.7.29.7.7-.3.68-.7.68ZM12.3,214.28v-.95h6.24v.95h-6.24Z"/>
      <path d="M16.66,210.71h-3.55v1.18h-.8v-.94c0-.17-.11-.3-.31-.3h-1.5v-.89h1.81v-1.92h.8v1.92h3.54c.67,0,1.07-.25,1.07-.97v-.86h.83v.92c0,1.15-.62,1.86-1.88,1.86Z"/>
      <path d="M20.43,206.27v-.47c0-.61-.26-.96-.8-1.16l-.76-.29-6.57,2.53v-1.05l5.28-1.93v-.07l-5.28-1.94v-1.07l7.66,2.97c.85.32,1.33.82,1.33,1.83v.65h-.86Z"/>
      <path d="M9.54,192.8v-.88l10.29,3.63v.88l-10.29-3.63Z"/>
      <path d="M15.42,187.3c-1.85,0-3.27-1.36-3.27-3.19,0-1.36.82-2.61,2.21-2.95v.98c-.82.25-1.34,1.04-1.34,1.94,0,1.33,1.06,2.23,2.41,2.23s2.41-.95,2.41-2.25c0-.9-.53-1.7-1.34-1.94v-.97c1.39.32,2.21,1.6,2.21,2.95,0,1.88-1.43,3.2-3.27,3.2Z"/>
      <path d="M15.42,179.95c-1.88,0-3.27-1.4-3.27-3.26s1.4-3.25,3.27-3.25,3.27,1.39,3.27,3.26-1.38,3.25-3.27,3.25ZM15.42,174.4c-1.38,0-2.41.95-2.41,2.29s1.04,2.28,2.41,2.28,2.41-.95,2.41-2.28-1.02-2.29-2.41-2.29Z"/>
      <path d="M12.3,171.75v-.94h1.16v-.07c-.53-.18-1.16-.79-1.16-1.7v-.53h.95v.52c0,1.14.89,1.78,2.08,1.78h3.21v.95h-6.24Z"/>
      <path d="M12.3,166.95v-.91h.98v-.07c-.23-.16-1.14-.8-1.14-2.16,0-1.83,1.36-3.11,3.26-3.11s3.29,1.27,3.29,3.04c0,1.31-.84,2-1.16,2.19v.07h3.77v.95h-9ZM15.41,161.67c-1.46,0-2.41.89-2.41,2.19s1.1,2.17,2.41,2.17c1.54,0,2.42-.96,2.42-2.2s-1.01-2.17-2.42-2.17Z"/>
      <path d="M15.42,159.5c-1.88,0-3.27-1.4-3.27-3.26s1.4-3.25,3.27-3.25,3.27,1.39,3.27,3.26-1.38,3.25-3.27,3.25ZM15.42,153.96c-1.38,0-2.41.95-2.41,2.29s1.04,2.28,2.41,2.28,2.41-.95,2.41-2.28-1.02-2.29-2.41-2.29Z"/>
      <path d="M12.3,151.3v-.94h1.16v-.07c-.53-.18-1.16-.79-1.16-1.7v-.53h.95v.52c0,1.14.89,1.78,2.08,1.78h3.21v.95h-6.24Z"/>
      <path d="M15.43,147.22c-1.92,0-3.29-1.27-3.29-3.04,0-1.31.84-2,1.16-2.19v-.07h-1.01v-.95h6.24v.91h-.98v.07c.23.16,1.14.8,1.14,2.16,0,1.84-1.36,3.11-3.26,3.11ZM15.43,141.88c-1.54,0-2.42.96-2.42,2.2s1.01,2.17,2.42,2.17,2.41-.89,2.41-2.19-1.1-2.17-2.41-2.17Z"/>
      <path d="M16.66,138.35h-3.55v1.18h-.8v-.94c0-.17-.11-.3-.31-.3h-1.5v-.89h1.81v-1.92h.8v1.92h3.54c.67,0,1.07-.25,1.07-.97v-.86h.83v.92c0,1.15-.62,1.86-1.88,1.86Z"/>
      <path d="M15.42,134.29c-1.99,0-3.27-1.36-3.27-3.06,0-1.89,1.39-3.02,3.19-3.02h.42v5.09c1.25-.05,2.07-.85,2.07-2.13,0-.83-.4-1.62-1.13-1.91v-.98c1.16.35,1.99,1.44,1.99,2.9,0,1.91-1.4,3.12-3.27,3.12ZM14.92,129.21c-1.25.08-1.91.96-1.91,2.01s.76,1.94,1.91,2.04v-4.05Z"/>
      <path d="M15.42,123.64c-1.99,0-3.27-1.36-3.27-3.06,0-1.89,1.39-3.02,3.19-3.02h.42v5.08c1.25-.05,2.07-.85,2.07-2.13,0-.83-.4-1.62-1.13-1.91v-.98c1.16.35,1.99,1.44,1.99,2.9,0,1.91-1.4,3.12-3.27,3.12ZM14.92,118.57c-1.25.08-1.91.96-1.91,2.01s.76,1.94,1.91,2.04v-4.05Z"/>
      <path d="M15.29,114.64l-2.99,2.09v-1.12l2.35-1.57v-.07l-2.35-1.57v-1.12l3.03,2.09,3.2-2.26v1.12l-2.53,1.74v.11l2.53,1.71v1.1l-3.25-2.25Z"/>
      <path d="M12.3,109.73v-.91h.98v-.07c-.23-.16-1.14-.8-1.14-2.16,0-1.83,1.36-3.11,3.26-3.11s3.29,1.27,3.29,3.03c0,1.31-.84,2-1.16,2.19v.07h3.77v.95h-9ZM15.41,104.46c-1.46,0-2.41.89-2.41,2.2s1.1,2.17,2.41,2.17c1.54,0,2.42-.96,2.42-2.19s-1.01-2.17-2.42-2.17Z"/>
      <path d="M15.42,102.28c-1.88,0-3.27-1.4-3.27-3.26s1.4-3.25,3.27-3.25,3.27,1.39,3.27,3.26-1.38,3.25-3.27,3.25ZM15.42,96.74c-1.38,0-2.41.95-2.41,2.29s1.04,2.28,2.41,2.28,2.41-.95,2.41-2.28-1.02-2.29-2.41-2.29Z"/>
      <path d="M16.73,94.45v-.92c.74-.11,1.14-.64,1.14-1.55s-.46-1.45-1.09-1.45c-1.75,0-.42,3.73-2.89,3.73-1.06,0-1.74-.95-1.74-2.25,0-1.15.67-2.11,1.8-2.21v.91c-.59.08-.98.53-.98,1.35,0,.78.38,1.28.92,1.28,1.58,0,.26-3.74,2.84-3.74,1.17,0,1.97.97,1.97,2.42s-.8,2.31-1.97,2.42Z"/>
      <path d="M16.22,87.86h-3.92v-.95h3.89c1,0,1.64-.73,1.64-1.61,0-.98-.75-1.75-1.79-1.75h-3.74v-.95h6.24v.95h-.91v.07c.56.26,1.07.94,1.07,1.91,0,1.45-1.09,2.33-2.47,2.33Z"/>
      <path d="M12.3,80.56v-.94h1.16v-.07c-.53-.18-1.16-.79-1.16-1.7v-.53h.95v.52c0,1.14.89,1.77,2.08,1.77h3.21v.95h-6.24Z"/>
      <path d="M15.42,76.48c-1.99,0-3.27-1.36-3.27-3.06,0-1.89,1.39-3.02,3.19-3.02h.42v5.08c1.25-.05,2.07-.85,2.07-2.13,0-.83-.4-1.62-1.13-1.91v-.98c1.16.35,1.99,1.44,1.99,2.9,0,1.91-1.4,3.12-3.27,3.12ZM14.92,71.41c-1.25.08-1.91.96-1.91,2.01s.76,1.94,1.91,2.04v-4.05Z"/>
    </g>
    <g>
      <path d="M200.45,309.43h.97v7.52h3.62v.88h-4.59v-8.4Z"/>
      <path d="M206.06,309.77c0-.38.29-.68.68-.68s.7.3.7.68-.29.7-.7.7-.68-.3-.68-.7ZM206.25,311.59h.95v6.24h-.95v-6.24Z"/>
      <path d="M213.21,317.83l-1.98-3.12-1.04,1.12v2h-.95v-9h.95v5.7h.07l2.67-2.94h1.2l-2.27,2.42,2.42,3.81h-1.08Z"/>
      <path d="M214.89,314.71c0-1.99,1.36-3.27,3.06-3.27,1.89,0,3.02,1.39,3.02,3.19v.42h-5.08c.05,1.25.85,2.07,2.13,2.07.83,0,1.62-.4,1.91-1.13h.98c-.35,1.16-1.44,1.99-2.9,1.99-1.91,0-3.12-1.4-3.12-3.27ZM219.96,314.2c-.08-1.25-.96-1.91-2.01-1.91s-1.94.76-2.04,1.91h4.05Z"/>
      <path d="M222.29,316.5v-7.66h.95v7.66c0,.31.16.49.46.49h.29v.84h-.46c-.78,0-1.24-.48-1.24-1.33Z"/>
      <path d="M225.35,309.77c0-.38.29-.68.68-.68s.7.3.7.68-.29.7-.7.7-.68-.3-.68-.7ZM225.54,311.59h.95v6.24h-.95v-6.24Z"/>
      <path d="M228.53,308.83h.95v3.67h.07c.26-.56.96-1.07,1.93-1.07,1.45,0,2.35,1.09,2.35,2.47v3.92h-.95v-3.86c0-1-.76-1.64-1.63-1.64-.96,0-1.77.71-1.77,1.71v3.79h-.95v-9Z"/>
      <path d="M235.39,314.71c0-1.88,1.4-3.27,3.26-3.27s3.25,1.4,3.25,3.27-1.39,3.27-3.26,3.27-3.25-1.38-3.25-3.27ZM240.94,314.71c0-1.38-.95-2.41-2.29-2.41s-2.28,1.04-2.28,2.41.95,2.41,2.28,2.41,2.29-1.02,2.29-2.41Z"/>
      <path d="M243.11,314.71c0-1.88,1.4-3.27,3.26-3.27s3.25,1.4,3.25,3.27-1.39,3.27-3.26,3.27-3.25-1.38-3.25-3.27ZM248.65,314.71c0-1.38-.95-2.41-2.29-2.41s-2.28,1.04-2.28,2.41.95,2.41,2.28,2.41,2.29-1.02,2.29-2.41Z"/>
      <path d="M250.83,314.72c0-1.92,1.27-3.29,3.03-3.29,1.31,0,2,.84,2.19,1.16h.07v-3.77h.95v9h-.91v-.98h-.07c-.16.23-.8,1.14-2.16,1.14-1.83,0-3.11-1.36-3.11-3.26ZM256.16,314.72c0-1.54-.96-2.42-2.2-2.42s-2.17,1.01-2.17,2.42.89,2.41,2.19,2.41,2.17-1.1,2.17-2.41Z"/>
      <path d="M262,314.71c0-1.88,1.4-3.27,3.26-3.27s3.25,1.4,3.25,3.27-1.39,3.27-3.26,3.27-3.25-1.38-3.25-3.27ZM267.54,314.71c0-1.38-.95-2.41-2.29-2.41s-2.28,1.04-2.28,2.41.95,2.41,2.28,2.41,2.29-1.02,2.29-2.41Z"/>
      <path d="M270.65,312.39h-1.18v-.8h1.18v-.74c0-1.26.88-2.01,2.13-2.01h.59v.83h-.6c-.84,0-1.18.53-1.18,1.2v.73h1.82v.8h-1.82v5.43h-.95v-5.43Z"/>
      <path d="M278.52,309.43h1.07l3.25,7.33h.07l3.01-7.33h1.07v8.4h-.94v-6.26h-.07l-2.55,6.26h-1.1l-2.79-6.26h-.07v6.26h-.94v-8.4Z"/>
      <path d="M288.79,314.72c0-1.92,1.27-3.29,3.03-3.29,1.31,0,2,.84,2.2,1.16h.07v-1.01h.95v6.24h-.91v-.98h-.07c-.16.23-.8,1.14-2.16,1.14-1.83,0-3.11-1.36-3.11-3.26ZM294.13,314.72c0-1.54-.96-2.42-2.19-2.42s-2.17,1.01-2.17,2.42.89,2.41,2.2,2.41,2.17-1.1,2.17-2.41Z"/>
      <path d="M295.71,319.72h.46c.74,0,1.18-.49,1.18-1.16v-6.97h.95v6.98c0,1.26-.88,2.02-2.13,2.02h-.44v-.86ZM297.12,309.77c0-.38.29-.68.68-.68s.7.3.7.68-.29.7-.7.7-.68-.3-.68-.7Z"/>
      <path d="M300.06,314.71c0-1.88,1.4-3.27,3.26-3.27s3.25,1.4,3.25,3.27-1.39,3.27-3.26,3.27-3.25-1.38-3.25-3.27ZM305.6,314.71c0-1.38-.95-2.41-2.29-2.41s-2.28,1.04-2.28,2.41.95,2.41,2.28,2.41,2.29-1.02,2.29-2.41Z"/>
      <path d="M308.26,311.59h.94v1.16h.07c.18-.53.79-1.16,1.7-1.16h.53v.95h-.52c-1.14,0-1.78.89-1.78,2.08v3.21h-.95v-6.24Z"/>
      <path d="M316.54,309.43h.97v8.4h-.97v-8.4Z"/>
      <path d="M319.79,311.59h.95v.91h.07c.26-.56.94-1.07,1.91-1.07,1.45,0,2.33,1.09,2.33,2.47v3.92h-.95v-3.86c0-1-.73-1.64-1.61-1.64-.98,0-1.75.76-1.75,1.79v3.72h-.95v-6.24Z"/>
      <path d="M326.61,314.71c0-1.85,1.36-3.27,3.19-3.27,1.36,0,2.61.82,2.95,2.21h-.98c-.25-.82-1.04-1.34-1.94-1.34-1.33,0-2.23,1.06-2.23,2.41s.95,2.41,2.25,2.41c.9,0,1.7-.53,1.94-1.34h.97c-.32,1.39-1.6,2.21-2.95,2.21-1.88,0-3.2-1.43-3.2-3.27Z"/>
      <path d="M334.25,309.77c0-.38.29-.68.68-.68s.7.3.7.68-.29.7-.7.7-.68-.3-.68-.7ZM334.44,311.59h.95v6.24h-.95v-6.24Z"/>
      <path d="M336.95,314.72c0-1.92,1.27-3.29,3.03-3.29,1.31,0,2,.84,2.2,1.16h.07v-3.77h.95v9h-.91v-.98h-.07c-.16.23-.8,1.14-2.16,1.14-1.83,0-3.11-1.36-3.11-3.26ZM342.29,314.72c0-1.54-.96-2.42-2.19-2.42s-2.17,1.01-2.17,2.42.89,2.41,2.2,2.41,2.17-1.1,2.17-2.41Z"/>
      <path d="M344.76,314.71c0-1.99,1.36-3.27,3.06-3.27,1.89,0,3.02,1.39,3.02,3.19v.42h-5.08c.05,1.25.85,2.07,2.13,2.07.83,0,1.62-.4,1.91-1.13h.98c-.35,1.16-1.44,1.99-2.9,1.99-1.91,0-3.12-1.4-3.12-3.27ZM349.83,314.2c-.08-1.25-.96-1.91-2.01-1.91s-1.94.76-2.04,1.91h4.05Z"/>
      <path d="M352.53,311.59h.95v.91h.07c.26-.56.94-1.07,1.91-1.07,1.45,0,2.33,1.09,2.33,2.47v3.92h-.95v-3.86c0-1-.73-1.64-1.61-1.64-.98,0-1.75.76-1.75,1.79v3.72h-.95v-6.24Z"/>
      <path d="M360.4,315.94v-3.55h-1.18v-.8h.94c.17,0,.3-.11.3-.31v-1.5h.89v1.81h1.92v.8h-1.92v3.54c0,.67.25,1.07.97,1.07h.86v.83h-.92c-1.15,0-1.86-.62-1.86-1.88Z"/>
      <path d="M368.88,315.94v-3.55h-1.18v-.8h.94c.17,0,.3-.11.3-.31v-1.5h.89v1.81h1.92v.8h-1.92v3.54c0,.67.25,1.07.97,1.07h.86v.83h-.92c-1.15,0-1.86-.62-1.86-1.88Z"/>
      <path d="M373.43,308.83h.95v3.67h.07c.26-.56.96-1.07,1.93-1.07,1.45,0,2.35,1.09,2.35,2.47v3.92h-.95v-3.86c0-1-.76-1.64-1.63-1.64-.96,0-1.77.71-1.77,1.71v3.79h-.95v-9Z"/>
      <path d="M380.77,311.59h.94v1.16h.07c.18-.53.79-1.16,1.7-1.16h.53v.95h-.52c-1.14,0-1.78.89-1.78,2.08v3.21h-.95v-6.24Z"/>
      <path d="M384.85,314.71c0-1.88,1.4-3.27,3.26-3.27s3.25,1.4,3.25,3.27-1.39,3.27-3.26,3.27-3.25-1.38-3.25-3.27ZM390.39,314.71c0-1.38-.95-2.41-2.29-2.41s-2.28,1.04-2.28,2.41.95,2.41,2.28,2.41,2.29-1.02,2.29-2.41Z"/>
      <path d="M392.93,315.51v-3.92h.95v3.89c0,1,.73,1.64,1.61,1.64.98,0,1.75-.75,1.75-1.79v-3.74h.95v6.24h-.95v-.91h-.07c-.26.56-.94,1.07-1.91,1.07-1.45,0-2.33-1.09-2.33-2.47Z"/>
      <path d="M400.25,318.8h.9c.17.73.89,1.12,1.81,1.12,1.46,0,2.12-.82,2.12-2.09v-.98h-.07c-.16.23-.8,1.14-2.16,1.14-1.83,0-3.11-1.36-3.11-3.26s1.27-3.29,3.03-3.29c1.31,0,2,.84,2.2,1.16h.07v-1.01h.95v6.24c0,1.83-1.16,2.91-3.03,2.91-1.52,0-2.51-.83-2.71-1.94ZM405.08,314.72c0-1.54-.96-2.42-2.19-2.42s-2.17,1.01-2.17,2.42.89,2.41,2.2,2.41,2.17-1.1,2.17-2.41Z"/>
      <path d="M408.04,308.83h.95v3.67h.07c.26-.56.96-1.07,1.93-1.07,1.45,0,2.35,1.09,2.35,2.47v3.92h-.95v-3.86c0-1-.76-1.64-1.63-1.64-.96,0-1.78.71-1.78,1.71v3.79h-.95v-9Z"/>
      <path d="M418.63,316.78c0-1.12.6-1.81,1.69-2.51l1.52-.96c.55-.35.94-.85.94-1.59,0-.88-.59-1.54-1.63-1.54-.95,0-1.62.7-1.62,1.55h-.91c0-1.15.89-2.46,2.55-2.46s2.6,1.18,2.6,2.42c0,.97-.46,1.73-1.44,2.35l-1.48.94c-.98.62-1.26,1.1-1.26,1.76v.19h4.25v.89h-5.22v-1.04Z"/>
      <path d="M425.71,315.32v-3.38c0-1.67,1.34-2.66,2.71-2.66s2.71,1,2.71,2.66v3.38c0,1.67-1.34,2.66-2.71,2.66s-2.71-1-2.71-2.66ZM430.17,315.26v-3.26c0-1.02-.74-1.8-1.75-1.8s-1.75.78-1.75,1.8v3.26c0,1.03.73,1.8,1.75,1.8s1.75-.77,1.75-1.8Z"/>
      <path d="M433.13,316.78c0-1.12.6-1.81,1.69-2.51l1.52-.96c.55-.35.94-.85.94-1.59,0-.88-.59-1.54-1.63-1.54-.95,0-1.62.7-1.62,1.55h-.91c0-1.15.89-2.46,2.55-2.46s2.6,1.18,2.6,2.42c0,.97-.46,1.73-1.44,2.35l-1.48.94c-.98.62-1.26,1.1-1.26,1.76v.19h4.25v.89h-5.22v-1.04Z"/>
      <path d="M439.85,315.21c0-.58.18-1.1.43-1.56l2.36-4.22h1.1l-1.87,3.13.05.05c.19-.08.5-.14.77-.14,1.59,0,2.77,1.18,2.77,2.75s-1.24,2.77-2.82,2.77-2.79-1.19-2.79-2.77ZM444.47,315.21c0-1.02-.72-1.87-1.82-1.87s-1.81.85-1.81,1.87.72,1.86,1.81,1.86,1.82-.83,1.82-1.86Z"/>
    </g>
    <g>
      <path d="M93.3,293.94h.97l-1.39,7.52h3.62l-.17.88h-4.59l1.56-8.4Z"/>
      <path d="M97.57,299.87c0-2.12,1.64-3.92,3.87-3.92,1.64,0,2.77,1.1,2.77,2.63,0,2.12-1.64,3.92-3.87,3.92-1.64,0-2.77-1.09-2.77-2.63ZM103.22,298.71c0-1.1-.72-1.9-1.88-1.9-1.55,0-2.78,1.3-2.78,2.94,0,1.12.73,1.88,1.88,1.88,1.55,0,2.78-1.28,2.78-2.93Z"/>
      <path d="M105.5,296.1h1.01l.55,5.16h.07l2.61-5.16h1.1l.68,5.16h.07l2.48-5.16h1.03l-3.11,6.24h-1.22l-.66-5.06h-.07l-2.54,5.06h-1.22l-.79-6.24Z"/>
    </g>
    <g>
      <path d="M301.54,293.94h1.01l1.85,7.33h.07l4.4-7.33h1.14l-1.56,8.4h-.95l1.16-6.26h-.07l-3.74,6.26h-1.1l-1.6-6.26h-.07l-1.16,6.26h-.94l1.56-8.4Z"/>
      <path d="M310.77,299.89c0-2.16,1.49-3.95,3.69-3.95,1.92,0,2.83,1.34,2.47,3.19l-.07.42h-5.06c-.13,1.27.44,2.1,1.74,2.1.82,0,1.68-.4,2.09-1.15h1c-.44,1.19-1.72,1.99-3.25,1.99-1.69,0-2.6-1.1-2.6-2.6ZM316.02,298.72c.1-1.25-.64-1.91-1.67-1.91s-2.09.71-2.37,1.91h4.04Z"/>
      <path d="M318.08,299.95c0-2.16,1.7-4.01,3.72-4.01,1.29,0,1.85.84,1.98,1.16h.07l.7-3.77h.95l-1.43,7.69c-.06.31.07.49.36.49h.31l-.16.82h-.6c-.67,0-.98-.4-.9-.91v-.07s-.07,0-.07,0c-.2.24-.9,1.14-2.36,1.14-1.58,0-2.57-1.02-2.57-2.54ZM323.55,298.63c0-1.16-.74-1.82-1.81-1.82-1.46,0-2.67,1.37-2.67,3.01,0,1.12.68,1.82,1.81,1.82,1.57,0,2.67-1.37,2.67-3.01Z"/>
      <path d="M326.44,301.16l.92-5.06h.95l-.91,4.91c-.06.31.07.49.36.49h.31l-.16.84h-.48c-.77,0-1.13-.44-1-1.18ZM327.49,294.42c0-.44.38-.83.83-.83.36,0,.59.24.59.55,0,.44-.4.83-.84.83-.35,0-.58-.24-.58-.55Z"/>
      <path d="M329.89,300.03l.73-3.92h.95l-.72,3.89c-.2,1.12.42,1.64,1.3,1.64.98,0,1.89-.75,2.09-1.79l.7-3.74h.95l-1.16,6.24h-.95l.17-.91h-.07c-.36.56-1.02,1.07-2.1,1.07-1.45,0-2.12-1.09-1.87-2.47Z"/>
      <path d="M337.9,296.1h.95l-.17.9h.07c.41-.58,1.1-1.06,2.03-1.06s1.54.46,1.75,1.14h.08c.58-.8,1.32-1.14,2.2-1.14,1.38,0,2.1.98,1.85,2.35l-.74,4.04h-.95l.7-3.73c.22-1.18-.26-1.78-1.19-1.78s-1.76.62-1.98,1.79l-.68,3.72h-.95l.72-3.91c.18-1-.37-1.59-1.25-1.59s-1.75.7-1.94,1.75l-.7,3.75h-.95l1.15-6.24Z"/>
    </g>
    <g>
      <path d="M540.61,293.94h.97l-.68,3.68h4.46l.68-3.68h.97l-1.56,8.4h-.97l.71-3.83h-4.46l-.71,3.83h-.97l1.56-8.4Z"/>
      <path d="M547.97,301.16l.92-5.06h.95l-.91,4.91c-.06.31.07.49.36.49h.31l-.16.84h-.48c-.77,0-1.13-.44-1-1.18ZM549.01,294.42c0-.44.38-.83.83-.83.36,0,.59.24.59.55,0,.44-.4.83-.84.83-.35,0-.58-.24-.58-.55Z"/>
      <path d="M550.94,303.31h.9c.04.73.68,1.12,1.61,1.12,1.45,0,2.28-.82,2.51-2.09l.18-.98h-.07c-.19.23-1.02,1.14-2.36,1.14-1.6,0-2.58-1.02-2.58-2.54,0-2.16,1.7-4.01,3.72-4.01,1.3,0,1.85.84,1.98,1.16h.07l.18-1.01h.95l-1.15,6.24c-.34,1.83-1.46,2.91-3.56,2.91-1.52,0-2.36-.83-2.36-1.94ZM556.59,298.63c0-1.16-.74-1.82-1.81-1.82-1.46,0-2.67,1.38-2.67,3.01,0,1.13.7,1.82,1.81,1.82,1.45,0,2.67-1.37,2.67-3.01Z"/>
      <path d="M560.57,293.34h.95l-.68,3.67h.07c.37-.56,1.16-1.07,2.13-1.07,1.45,0,2.15,1.09,1.89,2.47l-.73,3.92h-.95l.72-3.86c.19-1.04-.5-1.64-1.33-1.64-.96,0-1.89.71-2.09,1.71l-.71,3.79h-.95l1.67-9Z"/>
    </g>
    <g>
      <polygon class="st0" points="603.1 291.01 42.77 291.01 42.77 26.57 43.77 26.57 43.77 290.01 603.1 290.01 603.1 291.01"/>
      <polygon class="st0" points="40.28 27.44 43.27 22.26 46.26 27.44 40.28 27.44"/>
      <polygon class="st0" points="602.22 293.5 607.4 290.51 602.22 287.52 602.22 293.5"/>
    </g>
  </g>
  <g id="Layer_2">
    <g>
      <circle class="st7" cx="72.9" cy="65.45" r="20"/>
      <path class="st2" d="M72.9,86.45c-11.58,0-21-9.42-21-21s9.42-21,21-21,21,9.42,21,21-9.42,21-21,21ZM72.9,46.45c-10.48,0-19,8.52-19,19s8.52,19,19,19,19-8.52,19-19-8.52-19-19-19Z"/>
    </g>
    <g>
      <path d="M80.55,110.92h2.71c1.6,0,2.54.92,2.54,2.15,0,.83-.4,1.45-1.07,1.81v.07c.56.19,1.35.79,1.35,1.98,0,1.51-1.18,2.39-2.59,2.39h-2.95v-8.4ZM83.22,114.55c.95,0,1.58-.56,1.58-1.42s-.65-1.36-1.55-1.36h-1.75v2.77h1.72ZM83.33,118.46c1,0,1.75-.48,1.75-1.56s-.89-1.54-1.86-1.54h-1.72v3.09h1.82Z"/>
      <path d="M87.58,111.26c0-.38.29-.68.68-.68s.7.3.7.68-.29.7-.7.7-.68-.3-.68-.7ZM87.77,113.08h.95v6.24h-.95v-6.24Z"/>
      <path d="M90.28,116.2c0-1.88,1.4-3.27,3.26-3.27s3.25,1.4,3.25,3.27-1.39,3.27-3.26,3.27-3.25-1.38-3.25-3.27ZM95.82,116.2c0-1.38-.95-2.41-2.29-2.41s-2.28,1.04-2.28,2.41.95,2.41,2.28,2.41,2.29-1.02,2.29-2.41Z"/>
      <path d="M105.05,110.32h.88l-3.63,10.29h-.88l3.63-10.29Z"/>
      <path d="M110.55,115.12c0-2.47,1.83-4.35,4.32-4.35,1.93,0,3.39,1.14,3.95,2.84h-1.04c-.44-1.27-1.61-1.93-2.9-1.93-1.86,0-3.31,1.47-3.31,3.44s1.45,3.44,3.31,3.44c1.29,0,2.45-.65,2.87-1.93h1.08c-.53,1.74-2.03,2.84-3.96,2.84-2.48,0-4.31-1.86-4.31-4.35Z"/>
      <path d="M120.5,110.32h.95v3.67h.07c.26-.56.96-1.07,1.93-1.07,1.45,0,2.35,1.09,2.35,2.47v3.92h-.95v-3.86c0-1-.76-1.64-1.63-1.64-.96,0-1.77.71-1.77,1.71v3.79h-.95v-9Z"/>
      <path d="M127.36,116.2c0-1.99,1.36-3.27,3.06-3.27,1.89,0,3.02,1.39,3.02,3.19v.42h-5.08c.05,1.25.85,2.08,2.13,2.08.83,0,1.62-.4,1.91-1.13h.98c-.35,1.16-1.44,1.99-2.9,1.99-1.91,0-3.12-1.4-3.12-3.27ZM132.43,115.69c-.08-1.25-.96-1.91-2.01-1.91s-1.94.76-2.04,1.91h4.05Z"/>
      <path d="M135.12,113.08h.95v.9h.07c.3-.58.9-1.06,1.82-1.06s1.62.46,1.97,1.14h.08c.42-.8,1.1-1.14,1.98-1.14,1.39,0,2.29.98,2.29,2.35v4.04h-.95v-3.73c0-1.17-.59-1.77-1.51-1.77-.88,0-1.64.62-1.64,1.79v3.72h-.95v-3.91c0-1-.67-1.59-1.55-1.59s-1.62.7-1.62,1.75v3.75h-.95v-6.24Z"/>
      <path d="M92.71,127.48h.95v.9h.07c.3-.58.9-1.06,1.82-1.06s1.62.46,1.97,1.14h.08c.42-.8,1.1-1.14,1.98-1.14,1.39,0,2.29.98,2.29,2.35v4.04h-.95v-3.73c0-1.18-.59-1.78-1.51-1.78-.88,0-1.64.62-1.64,1.79v3.72h-.95v-3.91c0-1-.67-1.6-1.55-1.6s-1.62.7-1.62,1.75v3.75h-.95v-6.24Z"/>
      <path d="M103.72,125.66c0-.38.29-.68.68-.68s.7.3.7.68-.29.7-.7.7-.68-.3-.68-.7ZM103.91,127.48h.95v6.24h-.95v-6.24Z"/>
      <path d="M106.54,131.9h.92c.11.74.64,1.14,1.55,1.14s1.45-.46,1.45-1.09c0-1.75-3.73-.42-3.73-2.89,0-1.06.95-1.74,2.25-1.74,1.15,0,2.11.67,2.21,1.8h-.91c-.08-.59-.53-.98-1.35-.98-.78,0-1.28.38-1.28.92,0,1.58,3.74.26,3.74,2.84,0,1.17-.97,1.97-2.42,1.97s-2.31-.8-2.42-1.97Z"/>
      <path d="M113.13,131.4v-3.92h.95v3.89c0,1,.73,1.64,1.61,1.64.98,0,1.75-.76,1.75-1.79v-3.74h.95v6.24h-.95v-.91h-.07c-.26.56-.94,1.07-1.91,1.07-1.45,0-2.33-1.09-2.33-2.47Z"/>
      <path d="M120.07,131.9h.92c.11.74.64,1.14,1.55,1.14s1.45-.46,1.45-1.09c0-1.75-3.73-.42-3.73-2.89,0-1.06.95-1.74,2.25-1.74,1.15,0,2.11.67,2.21,1.8h-.91c-.08-.59-.53-.98-1.35-.98-.78,0-1.28.38-1.28.92,0,1.58,3.74.26,3.74,2.84,0,1.17-.97,1.97-2.42,1.97s-2.31-.8-2.42-1.97Z"/>
      <path d="M126.29,130.6c0-1.99,1.36-3.27,3.06-3.27,1.89,0,3.02,1.39,3.02,3.19v.42h-5.08c.05,1.25.85,2.08,2.13,2.08.83,0,1.62-.4,1.91-1.13h.98c-.35,1.16-1.44,1.99-2.9,1.99-1.91,0-3.12-1.4-3.12-3.27ZM131.37,130.09c-.08-1.25-.96-1.91-2.01-1.91s-1.94.75-2.04,1.91h4.05Z"/>
    </g>
    <g>
      <path d="M171.59,163.76h.97c0,.97.79,1.75,2.06,1.75,1.1,0,1.9-.54,1.9-1.42,0-2.63-4.64-.79-4.64-4.15,0-1.2,1-2.24,2.69-2.24,1.27,0,2.76.7,2.76,2.43h-1c0-.96-.64-1.55-1.77-1.55s-1.7.66-1.7,1.36c0,2.29,4.65.7,4.65,4.09,0,1.32-1.08,2.37-2.91,2.37-1.67,0-3-1.09-3-2.65Z"/>
      <path d="M179.76,164.37v-3.55h-1.18v-.8h.94c.17,0,.3-.11.3-.31v-1.5h.89v1.81h1.92v.8h-1.92v3.54c0,.67.25,1.07.97,1.07h.86v.83h-.92c-1.15,0-1.86-.62-1.86-1.88Z"/>
      <path d="M183.83,163.14c0-1.92,1.27-3.29,3.03-3.29,1.31,0,2,.84,2.19,1.16h.07v-1.01h.95v6.24h-.91v-.98h-.07c-.16.23-.8,1.14-2.16,1.14-1.83,0-3.11-1.35-3.11-3.26ZM189.17,163.14c0-1.54-.96-2.42-2.19-2.42s-2.17,1.01-2.17,2.42.89,2.41,2.19,2.41,2.17-1.1,2.17-2.41Z"/>
      <path d="M192.7,164.37v-3.55h-1.18v-.8h.94c.17,0,.3-.11.3-.31v-1.5h.89v1.81h1.92v.8h-1.92v3.54c0,.67.25,1.07.97,1.07h.86v.83h-.92c-1.15,0-1.86-.62-1.86-1.88Z"/>
      <path d="M196.77,163.13c0-1.99,1.36-3.27,3.06-3.27,1.89,0,3.02,1.39,3.02,3.19v.42h-5.08c.05,1.25.85,2.08,2.13,2.08.83,0,1.62-.4,1.91-1.13h.98c-.35,1.16-1.44,1.99-2.9,1.99-1.91,0-3.12-1.4-3.12-3.27ZM201.84,162.63c-.08-1.25-.96-1.91-2.01-1.91s-1.94.76-2.04,1.91h4.05Z"/>
      <path d="M204.29,162.2h3.06v.89h-3.06v-.89Z"/>
      <path d="M208.91,164.44h.92c.11.74.64,1.14,1.55,1.14s1.45-.46,1.45-1.09c0-1.75-3.73-.42-3.73-2.89,0-1.06.95-1.74,2.25-1.74,1.15,0,2.11.67,2.21,1.8h-.91c-.08-.59-.53-.98-1.35-.98-.78,0-1.28.38-1.28.92,0,1.58,3.74.26,3.74,2.84,0,1.18-.97,1.97-2.42,1.97s-2.31-.8-2.42-1.97Z"/>
      <path d="M216.19,164.37v-3.55h-1.18v-.8h.94c.17,0,.3-.11.3-.31v-1.5h.89v1.81h1.92v.8h-1.92v3.54c0,.67.25,1.07.97,1.07h.86v.83h-.92c-1.15,0-1.86-.62-1.86-1.88Z"/>
      <path d="M220.26,163.14c0-1.92,1.27-3.29,3.03-3.29,1.31,0,2,.84,2.19,1.16h.07v-1.01h.95v6.24h-.91v-.98h-.07c-.16.23-.8,1.14-2.16,1.14-1.83,0-3.11-1.35-3.11-3.26ZM225.6,163.14c0-1.54-.96-2.42-2.19-2.42s-2.17,1.01-2.17,2.42.89,2.41,2.19,2.41,2.17-1.1,2.17-2.41Z"/>
      <path d="M229.13,164.37v-3.55h-1.18v-.8h.94c.17,0,.3-.11.3-.31v-1.5h.89v1.81h1.92v.8h-1.92v3.54c0,.67.25,1.07.97,1.07h.86v.83h-.92c-1.15,0-1.86-.62-1.86-1.88Z"/>
      <path d="M233.2,163.13c0-1.99,1.36-3.27,3.06-3.27,1.89,0,3.02,1.39,3.02,3.19v.42h-5.08c.05,1.25.85,2.08,2.13,2.08.83,0,1.62-.4,1.91-1.13h.98c-.35,1.16-1.44,1.99-2.9,1.99-1.91,0-3.12-1.4-3.12-3.27ZM238.27,162.63c-.08-1.25-.96-1.91-2.01-1.91s-1.94.76-2.04,1.91h4.05Z"/>
      <path d="M166.22,177.53c0-1.85,1.36-3.27,3.19-3.27,1.35,0,2.61.82,2.95,2.21h-.98c-.25-.82-1.04-1.34-1.94-1.34-1.33,0-2.23,1.05-2.23,2.41s.95,2.41,2.25,2.41c.9,0,1.7-.53,1.94-1.34h.97c-.32,1.39-1.6,2.21-2.95,2.21-1.88,0-3.2-1.43-3.2-3.27Z"/>
      <path d="M173.77,182.55h.47c.61,0,.96-.26,1.16-.8l.29-.76-2.53-6.57h1.06l1.93,5.28h.07l1.94-5.28h1.07l-2.97,7.66c-.32.85-.82,1.33-1.83,1.33h-.65v-.86Z"/>
      <path d="M181.65,179.67h-.07v.98h-.91v-9h.95v3.77h.07c.19-.32.89-1.16,2.19-1.16,1.76,0,3.03,1.37,3.03,3.29s-1.27,3.26-3.11,3.26c-1.36,0-2-.91-2.16-1.14ZM185.94,177.54c0-1.42-.89-2.42-2.17-2.42s-2.19.89-2.19,2.42c0,1.31.82,2.41,2.17,2.41s2.19-.95,2.19-2.41Z"/>
      <path d="M188.12,177.53c0-1.99,1.36-3.27,3.06-3.27,1.89,0,3.02,1.39,3.02,3.19v.42h-5.08c.05,1.25.85,2.08,2.13,2.08.83,0,1.62-.4,1.91-1.13h.98c-.35,1.16-1.44,1.99-2.9,1.99-1.91,0-3.12-1.4-3.12-3.27ZM193.19,177.03c-.08-1.25-.96-1.91-2.01-1.91s-1.94.75-2.04,1.91h4.05Z"/>
      <path d="M195.88,174.41h.94v1.16h.07c.18-.53.79-1.16,1.7-1.16h.53v.95h-.52c-1.14,0-1.77.89-1.77,2.08v3.21h-.95v-6.24Z"/>
      <path d="M199.96,177.54c0-1.92,1.27-3.29,3.03-3.29,1.31,0,2,.84,2.19,1.16h.07v-1.01h.95v6.24h-.91v-.98h-.07c-.16.23-.8,1.14-2.16,1.14-1.83,0-3.11-1.36-3.11-3.26ZM205.3,177.54c0-1.54-.96-2.42-2.19-2.42s-2.17,1.01-2.17,2.42.89,2.41,2.19,2.41,2.17-1.1,2.17-2.41Z"/>
      <path d="M208.83,178.77v-3.55h-1.18v-.8h.94c.17,0,.3-.11.3-.31v-1.5h.89v1.81h1.92v.8h-1.92v3.54c0,.67.25,1.07.97,1.07h.86v.83h-.92c-1.15,0-1.86-.62-1.86-1.88Z"/>
      <path d="M213.96,178.77v-3.55h-1.18v-.8h.94c.17,0,.3-.11.3-.31v-1.5h.89v1.81h1.92v.8h-1.92v3.54c0,.67.25,1.07.97,1.07h.86v.83h-.92c-1.15,0-1.86-.62-1.86-1.88Z"/>
      <path d="M218.02,177.54c0-1.92,1.27-3.29,3.03-3.29,1.31,0,2,.84,2.19,1.16h.07v-1.01h.95v6.24h-.91v-.98h-.07c-.16.23-.8,1.14-2.16,1.14-1.83,0-3.11-1.36-3.11-3.26ZM223.36,177.54c0-1.54-.96-2.42-2.19-2.42s-2.17,1.01-2.17,2.42.89,2.41,2.19,2.41,2.17-1.1,2.17-2.41Z"/>
      <path d="M225.84,177.53c0-1.85,1.36-3.27,3.19-3.27,1.35,0,2.61.82,2.95,2.21h-.98c-.25-.82-1.04-1.34-1.94-1.34-1.33,0-2.23,1.05-2.23,2.41s.95,2.41,2.25,2.41c.9,0,1.7-.53,1.94-1.34h.97c-.32,1.39-1.6,2.21-2.95,2.21-1.88,0-3.2-1.43-3.2-3.27Z"/>
      <path d="M237.64,180.65l-1.98-3.12-1.04,1.12v2h-.95v-9h.95v5.7h.07l2.67-2.94h1.2l-2.27,2.42,2.42,3.81h-1.08Z"/>
      <path d="M239.68,178.84h.92c.11.74.64,1.14,1.55,1.14s1.45-.46,1.45-1.09c0-1.75-3.73-.42-3.73-2.89,0-1.06.95-1.74,2.25-1.74,1.15,0,2.11.67,2.21,1.8h-.91c-.08-.59-.53-.98-1.35-.98-.78,0-1.28.38-1.28.92,0,1.58,3.74.26,3.74,2.84,0,1.17-.97,1.97-2.42,1.97s-2.31-.8-2.42-1.97Z"/>
      <path d="M175.92,191.93c0-1.88,1.4-3.27,3.26-3.27s3.25,1.4,3.25,3.27-1.39,3.27-3.26,3.27-3.25-1.38-3.25-3.27ZM181.46,191.93c0-1.38-.95-2.41-2.29-2.41s-2.28,1.04-2.28,2.41.95,2.41,2.28,2.41,2.29-1.02,2.29-2.41Z"/>
      <path d="M184.12,188.81h.95v.91h.07c.26-.56.94-1.07,1.91-1.07,1.45,0,2.33,1.09,2.33,2.47v3.92h-.95v-3.86c0-1-.73-1.64-1.61-1.64-.98,0-1.75.76-1.75,1.79v3.72h-.95v-6.24Z"/>
      <path d="M194.29,191.93c0-1.85,1.36-3.27,3.19-3.27,1.35,0,2.61.82,2.95,2.21h-.98c-.25-.82-1.04-1.34-1.94-1.34-1.33,0-2.23,1.06-2.23,2.41s.95,2.41,2.25,2.41c.9,0,1.7-.53,1.94-1.34h.97c-.32,1.39-1.6,2.21-2.95,2.21-1.88,0-3.2-1.43-3.2-3.27Z"/>
      <path d="M202.13,188.81h.94v1.16h.07c.18-.53.79-1.16,1.7-1.16h.53v.95h-.52c-1.14,0-1.77.89-1.77,2.08v3.21h-.95v-6.24Z"/>
      <path d="M206.74,186.99c0-.38.29-.68.68-.68s.7.3.7.68-.29.7-.7.7-.68-.3-.68-.7ZM206.93,188.81h.95v6.24h-.95v-6.24Z"/>
      <path d="M210.49,193.17v-3.55h-1.18v-.8h.94c.17,0,.3-.11.3-.31v-1.5h.89v1.81h1.92v.8h-1.92v3.54c0,.67.25,1.07.97,1.07h.86v.83h-.92c-1.15,0-1.86-.62-1.86-1.88Z"/>
      <path d="M214.85,186.99c0-.38.29-.68.68-.68s.7.3.7.68-.29.7-.7.7-.68-.3-.68-.7ZM215.04,188.81h.95v6.24h-.95v-6.24Z"/>
      <path d="M217.55,191.93c0-1.85,1.36-3.27,3.19-3.27,1.35,0,2.61.82,2.95,2.21h-.98c-.25-.82-1.04-1.34-1.94-1.34-1.33,0-2.23,1.06-2.23,2.41s.95,2.41,2.25,2.41c.9,0,1.7-.53,1.94-1.34h.97c-.32,1.39-1.6,2.21-2.95,2.21-1.88,0-3.2-1.43-3.2-3.27Z"/>
      <path d="M224.91,191.94c0-1.92,1.27-3.29,3.03-3.29,1.31,0,2,.84,2.19,1.16h.07v-1.01h.95v6.24h-.91v-.98h-.07c-.16.23-.8,1.14-2.16,1.14-1.83,0-3.11-1.36-3.11-3.26ZM230.24,191.94c0-1.54-.96-2.42-2.19-2.42s-2.17,1.01-2.17,2.42.89,2.41,2.19,2.41,2.17-1.1,2.17-2.41Z"/>
      <path d="M233.2,193.72v-7.66h.95v7.66c0,.31.16.49.46.49h.29v.84h-.46c-.78,0-1.24-.48-1.24-1.33Z"/>
      <path d="M165.13,201.39c0-.38.29-.68.68-.68s.7.3.7.68-.29.7-.7.7-.68-.3-.68-.7ZM165.32,203.21h.95v6.24h-.95v-6.24Z"/>
      <path d="M168.31,203.21h.95v.91h.07c.26-.56.94-1.07,1.91-1.07,1.45,0,2.33,1.09,2.33,2.47v3.92h-.95v-3.86c0-1-.73-1.64-1.61-1.64-.98,0-1.75.76-1.75,1.79v3.72h-.95v-6.24Z"/>
      <path d="M176.06,204.02h-1.18v-.8h1.18v-.74c0-1.26.88-2.01,2.13-2.01h.59v.83h-.6c-.84,0-1.18.53-1.18,1.2v.73h1.82v.8h-1.82v5.43h-.95v-5.43Z"/>
      <path d="M180.45,203.21h.94v1.16h.07c.18-.53.79-1.16,1.7-1.16h.53v.95h-.52c-1.14,0-1.77.89-1.77,2.08v3.21h-.95v-6.24Z"/>
      <path d="M184.53,206.34c0-1.92,1.27-3.29,3.03-3.29,1.31,0,2,.84,2.19,1.16h.07v-1.01h.95v6.24h-.91v-.98h-.07c-.16.23-.8,1.14-2.16,1.14-1.83,0-3.11-1.36-3.11-3.26ZM189.87,206.34c0-1.54-.96-2.42-2.19-2.42s-2.17,1.01-2.17,2.42.89,2.41,2.19,2.41,2.17-1.1,2.17-2.41Z"/>
      <path d="M192.46,207.64h.92c.11.74.64,1.14,1.55,1.14s1.45-.46,1.45-1.09c0-1.75-3.73-.42-3.73-2.89,0-1.06.95-1.74,2.25-1.74,1.15,0,2.11.67,2.21,1.8h-.91c-.08-.59-.53-.98-1.35-.98-.78,0-1.28.38-1.28.92,0,1.58,3.74.26,3.74,2.84,0,1.17-.97,1.97-2.42,1.97s-2.31-.8-2.42-1.97Z"/>
      <path d="M199.75,207.57v-3.55h-1.18v-.8h.94c.17,0,.3-.11.3-.31v-1.5h.89v1.81h1.92v.8h-1.92v3.54c0,.67.25,1.07.97,1.07h.86v.83h-.92c-1.15,0-1.86-.62-1.86-1.88Z"/>
      <path d="M204.3,203.21h.94v1.16h.07c.18-.53.79-1.16,1.7-1.16h.53v.95h-.52c-1.14,0-1.77.89-1.77,2.08v3.21h-.95v-6.24Z"/>
      <path d="M208.98,207.14v-3.92h.95v3.89c0,1,.73,1.64,1.61,1.64.98,0,1.75-.75,1.75-1.79v-3.74h.95v6.24h-.95v-.91h-.07c-.26.56-.94,1.07-1.91,1.07-1.45,0-2.33-1.09-2.33-2.47Z"/>
      <path d="M215.79,206.33c0-1.85,1.36-3.27,3.19-3.27,1.35,0,2.61.82,2.95,2.21h-.98c-.25-.82-1.04-1.34-1.94-1.34-1.33,0-2.23,1.06-2.23,2.41s.95,2.41,2.25,2.41c.9,0,1.7-.53,1.94-1.34h.97c-.32,1.39-1.6,2.21-2.95,2.21-1.88,0-3.2-1.43-3.2-3.27Z"/>
      <path d="M224.2,207.57v-3.55h-1.18v-.8h.94c.17,0,.3-.11.3-.31v-1.5h.89v1.81h1.92v.8h-1.92v3.54c0,.67.25,1.07.97,1.07h.86v.83h-.92c-1.15,0-1.86-.62-1.86-1.88Z"/>
      <path d="M228.63,207.14v-3.92h.95v3.89c0,1,.73,1.64,1.61,1.64.98,0,1.75-.75,1.75-1.79v-3.74h.95v6.24h-.95v-.91h-.07c-.26.56-.94,1.07-1.91,1.07-1.45,0-2.33-1.09-2.33-2.47Z"/>
      <path d="M235.93,203.21h.94v1.16h.07c.18-.53.79-1.16,1.7-1.16h.53v.95h-.52c-1.14,0-1.77.89-1.77,2.08v3.21h-.95v-6.24Z"/>
      <path d="M240.01,206.33c0-1.99,1.36-3.27,3.06-3.27,1.89,0,3.02,1.39,3.02,3.19v.42h-5.08c.05,1.25.85,2.07,2.13,2.07.83,0,1.62-.4,1.91-1.13h.98c-.35,1.16-1.44,1.99-2.9,1.99-1.91,0-3.12-1.4-3.12-3.27ZM245.08,205.83c-.08-1.25-.96-1.91-2.01-1.91s-1.94.76-2.04,1.91h4.05Z"/>
    </g>
    <g>
      <path d="M52.21,31.09h2.84c1.71,0,2.73,1.01,2.73,2.48,0,1.24-.8,2.15-1.75,2.42l1.97,3.49h-1.13l-1.86-3.39h-1.83v3.39h-.97v-8.4ZM55.06,35.22c.98,0,1.73-.55,1.73-1.65,0-.89-.6-1.62-1.79-1.62h-1.81v3.27h1.87Z"/>
      <path d="M59.15,36.36c0-1.88,1.4-3.27,3.26-3.27s3.25,1.4,3.25,3.27-1.39,3.27-3.26,3.27-3.25-1.38-3.25-3.27ZM64.69,36.36c0-1.38-.95-2.41-2.29-2.41s-2.28,1.04-2.28,2.41.95,2.41,2.28,2.41,2.29-1.02,2.29-2.41Z"/>
      <path d="M67.37,40.45h.9c.17.73.89,1.12,1.81,1.12,1.46,0,2.12-.82,2.12-2.09v-.98h-.07c-.16.23-.8,1.14-2.16,1.14-1.83,0-3.11-1.35-3.11-3.26s1.27-3.29,3.03-3.29c1.31,0,2,.84,2.19,1.16h.07v-1.01h.95v6.24c0,1.83-1.16,2.91-3.03,2.91-1.52,0-2.51-.83-2.71-1.94ZM72.2,36.38c0-1.54-.96-2.42-2.19-2.42s-2.17,1.01-2.17,2.42.89,2.41,2.19,2.41,2.17-1.1,2.17-2.41Z"/>
      <path d="M75.04,37.17v-3.92h.95v3.89c0,1,.73,1.64,1.61,1.64.98,0,1.75-.76,1.75-1.79v-3.74h.95v6.24h-.95v-.91h-.07c-.26.56-.94,1.07-1.91,1.07-1.45,0-2.33-1.09-2.33-2.47Z"/>
      <path d="M81.85,36.36c0-1.99,1.36-3.27,3.06-3.27,1.89,0,3.02,1.39,3.02,3.19v.42h-5.08c.05,1.25.85,2.08,2.13,2.08.83,0,1.62-.4,1.91-1.13h.98c-.35,1.16-1.44,1.99-2.9,1.99-1.91,0-3.12-1.4-3.12-3.27ZM86.93,35.86c-.08-1.25-.96-1.91-2.01-1.91s-1.94.76-2.04,1.91h4.05Z"/>
      <path d="M95.38,31.09h1.14l3.23,8.4h-1.02l-.76-1.99h-4.05l-.76,1.99h-1.02l3.24-8.4ZM97.63,36.6l-1.66-4.39h-.07l-1.66,4.39h3.38Z"/>
      <path d="M101.19,31.09h.97v8.4h-.97v-8.4Z"/>
    </g>
    <g>
      <path d="M266.83,210.99c0-2.47,1.83-4.35,4.32-4.35,1.93,0,3.39,1.14,3.95,2.84h-1.04c-.44-1.27-1.61-1.93-2.9-1.93-1.86,0-3.31,1.48-3.31,3.44s1.45,3.44,3.31,3.44c1.29,0,2.45-.65,2.87-1.93h1.08c-.53,1.74-2.03,2.84-3.96,2.84-2.48,0-4.31-1.86-4.31-4.35Z"/>
      <path d="M276.67,217.09h.47c.61,0,.96-.26,1.16-.8l.29-.76-2.53-6.57h1.06l1.93,5.28h.07l1.94-5.28h1.07l-2.97,7.66c-.32.85-.82,1.33-1.83,1.33h-.65v-.86Z"/>
      <path d="M284.55,214.21h-.07v.98h-.91v-9h.95v3.77h.07c.19-.32.89-1.16,2.19-1.16,1.76,0,3.03,1.37,3.03,3.29s-1.27,3.26-3.11,3.26c-1.36,0-2-.91-2.16-1.14ZM288.84,212.08c0-1.42-.89-2.42-2.17-2.42s-2.19.89-2.19,2.42c0,1.31.82,2.41,2.17,2.41s2.19-.95,2.19-2.41Z"/>
      <path d="M291.02,212.07c0-1.99,1.36-3.27,3.06-3.27,1.89,0,3.02,1.39,3.02,3.19v.42h-5.08c.05,1.25.85,2.08,2.13,2.08.83,0,1.62-.4,1.91-1.13h.98c-.35,1.16-1.44,1.99-2.9,1.99-1.91,0-3.12-1.4-3.12-3.27ZM296.09,211.57c-.08-1.25-.96-1.91-2.01-1.91s-1.94.76-2.04,1.91h4.05Z"/>
      <path d="M298.78,208.96h.94v1.16h.07c.18-.53.79-1.16,1.7-1.16h.53v.95h-.52c-1.14,0-1.77.89-1.77,2.07v3.21h-.95v-6.24Z"/>
      <path d="M266.83,226.47c0-1.85,1.36-3.27,3.19-3.27,1.35,0,2.61.81,2.95,2.21h-.98c-.25-.82-1.04-1.34-1.94-1.34-1.33,0-2.23,1.05-2.23,2.41s.95,2.41,2.25,2.41c.9,0,1.7-.53,1.94-1.34h.97c-.32,1.39-1.6,2.21-2.95,2.21-1.88,0-3.2-1.43-3.2-3.27Z"/>
      <path d="M274.66,223.36h.94v1.16h.07c.18-.53.79-1.16,1.7-1.16h.53v.95h-.52c-1.14,0-1.77.89-1.77,2.07v3.21h-.95v-6.24Z"/>
      <path d="M279.27,221.53c0-.38.29-.68.68-.68s.7.3.7.68-.29.7-.7.7-.68-.3-.68-.7ZM279.46,223.36h.95v6.24h-.95v-6.24Z"/>
      <path d="M282.45,223.36h.95v.9h.07c.3-.58.9-1.05,1.82-1.05s1.62.46,1.97,1.14h.08c.42-.8,1.1-1.14,1.98-1.14,1.39,0,2.29.98,2.29,2.35v4.04h-.95v-3.73c0-1.18-.59-1.78-1.51-1.78-.88,0-1.64.62-1.64,1.79v3.72h-.95v-3.91c0-1-.67-1.6-1.55-1.6s-1.62.7-1.62,1.75v3.75h-.95v-6.24Z"/>
      <path d="M293.18,226.47c0-1.99,1.36-3.27,3.06-3.27,1.89,0,3.02,1.39,3.02,3.19v.42h-5.08c.05,1.25.85,2.08,2.13,2.08.83,0,1.62-.4,1.91-1.13h.98c-.35,1.16-1.44,1.99-2.9,1.99-1.91,0-3.12-1.4-3.12-3.27ZM298.25,225.97c-.08-1.25-.96-1.91-2.01-1.91s-1.94.76-2.04,1.91h4.05Z"/>
      <path d="M300.58,227.78h.92c.11.74.64,1.14,1.55,1.14s1.45-.46,1.45-1.09c0-1.75-3.73-.42-3.73-2.89,0-1.05.95-1.74,2.25-1.74,1.15,0,2.11.67,2.21,1.8h-.91c-.08-.59-.53-.98-1.35-.98-.78,0-1.28.38-1.28.92,0,1.58,3.74.26,3.74,2.84,0,1.17-.97,1.97-2.42,1.97s-2.31-.8-2.42-1.97Z"/>
    </g>
    <g>
      <path d="M469.02,110.92h.97v8.4h-.97v-8.4Z"/>
      <path d="M472.27,113.08h.95v.91h.07c.26-.56.94-1.07,1.91-1.07,1.45,0,2.33,1.09,2.33,2.47v3.92h-.95v-3.86c0-1-.73-1.64-1.61-1.64-.98,0-1.75.75-1.75,1.79v3.72h-.95v-6.24Z"/>
      <path d="M480.02,113.88h-1.18v-.8h1.18v-.74c0-1.26.88-2.01,2.13-2.01h.59v.83h-.6c-.84,0-1.18.53-1.18,1.2v.73h1.82v.8h-1.82v5.43h-.95v-5.43Z"/>
      <path d="M483.57,116.2c0-1.88,1.4-3.27,3.26-3.27s3.25,1.4,3.25,3.27-1.39,3.27-3.26,3.27-3.25-1.38-3.25-3.27ZM489.11,116.2c0-1.38-.95-2.41-2.29-2.41s-2.28,1.04-2.28,2.41.95,2.41,2.28,2.41,2.29-1.02,2.29-2.41Z"/>
      <path d="M491.77,113.08h.94v1.16h.07c.18-.53.79-1.16,1.7-1.16h.53v.95h-.52c-1.14,0-1.77.89-1.77,2.07v3.21h-.95v-6.24Z"/>
      <path d="M496.57,113.08h.95v.9h.07c.3-.58.9-1.06,1.82-1.06s1.62.46,1.97,1.14h.08c.42-.8,1.1-1.14,1.98-1.14,1.39,0,2.29.98,2.29,2.35v4.04h-.95v-3.73c0-1.17-.59-1.77-1.51-1.77s-1.64.62-1.64,1.79v3.72h-.95v-3.91c0-1-.67-1.59-1.55-1.59s-1.62.7-1.62,1.75v3.75h-.95v-6.24Z"/>
      <path d="M507.3,116.21c0-1.92,1.27-3.29,3.03-3.29,1.31,0,2,.84,2.2,1.16h.07v-1.01h.95v6.24h-.91v-.98h-.07c-.16.23-.8,1.14-2.16,1.14-1.83,0-3.11-1.35-3.11-3.26ZM512.63,116.21c0-1.54-.96-2.42-2.19-2.42s-2.17,1.01-2.17,2.42.89,2.41,2.2,2.41,2.17-1.1,2.17-2.41Z"/>
      <path d="M516.17,117.43v-3.55h-1.18v-.8h.94c.17,0,.3-.11.3-.31v-1.5h.89v1.81h1.92v.8h-1.92v3.54c0,.67.25,1.07.97,1.07h.86v.83h-.92c-1.15,0-1.86-.62-1.86-1.88Z"/>
      <path d="M520.52,111.26c0-.38.29-.68.68-.68s.7.3.7.68-.29.7-.7.7-.68-.3-.68-.7ZM520.71,113.08h.95v6.24h-.95v-6.24Z"/>
      <path d="M523.22,116.2c0-1.88,1.4-3.27,3.26-3.27s3.25,1.4,3.25,3.27-1.39,3.27-3.26,3.27-3.25-1.38-3.25-3.27ZM528.76,116.2c0-1.38-.95-2.41-2.29-2.41s-2.28,1.04-2.28,2.41.95,2.41,2.28,2.41,2.29-1.02,2.29-2.41Z"/>
      <path d="M531.42,113.08h.95v.91h.07c.26-.56.94-1.07,1.91-1.07,1.45,0,2.33,1.09,2.33,2.47v3.92h-.95v-3.86c0-1-.73-1.64-1.61-1.64-.98,0-1.75.75-1.75,1.79v3.72h-.95v-6.24Z"/>
      <path d="M465.19,130.6c0-1.88,1.4-3.27,3.26-3.27s3.25,1.4,3.25,3.27-1.39,3.27-3.26,3.27-3.25-1.38-3.25-3.27ZM470.73,130.6c0-1.38-.95-2.41-2.29-2.41s-2.28,1.04-2.28,2.41.95,2.41,2.28,2.41,2.29-1.02,2.29-2.41Z"/>
      <path d="M473.39,127.48h.91v.98h.07c.16-.23.8-1.14,2.16-1.14,1.83,0,3.11,1.36,3.11,3.26s-1.27,3.29-3.03,3.29c-1.31,0-2-.84-2.2-1.16h-.07v3.77h-.95v-9ZM478.66,130.58c0-1.46-.89-2.41-2.19-2.41s-2.17,1.1-2.17,2.41c0,1.54.96,2.42,2.19,2.42s2.17-1.01,2.17-2.42Z"/>
      <path d="M480.84,130.6c0-1.99,1.36-3.27,3.06-3.27,1.89,0,3.02,1.39,3.02,3.19v.42h-5.08c.05,1.25.85,2.08,2.13,2.08.83,0,1.62-.4,1.91-1.13h.98c-.35,1.16-1.44,1.99-2.9,1.99-1.91,0-3.12-1.4-3.12-3.27ZM485.91,130.09c-.08-1.25-.96-1.91-2.01-1.91s-1.94.75-2.04,1.91h4.05Z"/>
      <path d="M488.6,127.48h.94v1.16h.07c.18-.53.79-1.16,1.7-1.16h.53v.95h-.52c-1.14,0-1.78.89-1.78,2.08v3.21h-.95v-6.24Z"/>
      <path d="M492.68,130.61c0-1.92,1.27-3.29,3.03-3.29,1.31,0,2,.84,2.2,1.16h.07v-1.01h.95v6.24h-.91v-.98h-.07c-.16.23-.8,1.14-2.16,1.14-1.83,0-3.11-1.36-3.11-3.26ZM498.02,130.61c0-1.54-.96-2.42-2.19-2.42s-2.17,1.01-2.17,2.42.89,2.41,2.2,2.41,2.17-1.1,2.17-2.41Z"/>
      <path d="M501.55,131.83v-3.55h-1.18v-.8h.94c.17,0,.3-.11.3-.31v-1.5h.89v1.81h1.92v.8h-1.92v3.54c0,.67.25,1.07.97,1.07h.86v.83h-.92c-1.15,0-1.86-.62-1.86-1.88Z"/>
      <path d="M505.91,125.66c0-.38.29-.68.68-.68s.7.3.7.68-.29.7-.7.7-.68-.3-.68-.7ZM506.1,127.48h.95v6.24h-.95v-6.24Z"/>
      <path d="M508.61,130.6c0-1.88,1.4-3.27,3.26-3.27s3.25,1.4,3.25,3.27-1.39,3.27-3.26,3.27-3.25-1.38-3.25-3.27ZM514.15,130.6c0-1.38-.95-2.41-2.29-2.41s-2.28,1.04-2.28,2.41.95,2.41,2.28,2.41,2.29-1.02,2.29-2.41Z"/>
      <path d="M516.8,127.48h.95v.91h.07c.26-.56.94-1.07,1.91-1.07,1.45,0,2.33,1.09,2.33,2.47v3.92h-.95v-3.86c0-1-.73-1.64-1.61-1.64-.98,0-1.75.76-1.75,1.79v3.72h-.95v-6.24Z"/>
      <path d="M523.74,131.9h.92c.11.74.64,1.14,1.55,1.14s1.45-.46,1.45-1.09c0-1.75-3.73-.42-3.73-2.89,0-1.06.95-1.74,2.25-1.74,1.15,0,2.11.67,2.21,1.8h-.91c-.08-.59-.53-.98-1.36-.98-.78,0-1.28.38-1.28.92,0,1.58,3.74.26,3.74,2.84,0,1.17-.97,1.97-2.42,1.97s-2.31-.8-2.42-1.97Z"/>
      <path d="M539.17,133.71l-.64-.7c-.64.53-1.44.85-2.4.85-1.54,0-2.75-.96-2.75-2.38,0-.9.46-1.66,1.64-2.3-.43-.49-.91-1.09-.91-1.99,0-1.03.86-2.04,2.2-2.04,1.4,0,2.15.94,2.16,1.99.01,1.07-.71,1.69-1.59,2.12l-.38.18,2.04,2.16c.44-.74.61-1.7.42-2.64h.91c.26,1.16,0,2.4-.68,3.33l1.32,1.4h-1.33ZM537.92,132.35l-2.27-2.47-.16.07c-.65.31-1.16.78-1.16,1.55,0,.83.8,1.51,1.8,1.51.71,0,1.32-.25,1.79-.66ZM535.06,127.2c0,.6.3,1.04.79,1.58l.66-.31c.82-.38,1.01-.73,1.01-1.32s-.44-1.15-1.21-1.15c-.71,0-1.25.52-1.25,1.2Z"/>
      <path d="M447.33,141.88h.95v.9h.07c.3-.58.9-1.06,1.82-1.06s1.62.46,1.97,1.14h.08c.42-.8,1.1-1.14,1.98-1.14,1.39,0,2.29.98,2.29,2.35v4.04h-.95v-3.73c0-1.18-.59-1.78-1.51-1.78s-1.64.62-1.64,1.79v3.72h-.95v-3.91c0-1-.67-1.59-1.55-1.59s-1.62.7-1.62,1.75v3.75h-.95v-6.24Z"/>
      <path d="M458.34,140.06c0-.38.29-.68.68-.68s.7.3.7.68-.29.7-.7.7-.68-.3-.68-.7ZM458.54,141.88h.95v6.24h-.95v-6.24Z"/>
      <path d="M461.16,146.3h.92c.11.74.64,1.14,1.55,1.14s1.45-.46,1.45-1.09c0-1.75-3.73-.42-3.73-2.89,0-1.06.95-1.74,2.25-1.74,1.15,0,2.11.67,2.21,1.8h-.91c-.08-.59-.53-.98-1.35-.98-.78,0-1.28.38-1.28.92,0,1.58,3.74.26,3.74,2.84,0,1.17-.97,1.97-2.42,1.97s-2.31-.8-2.42-1.97Z"/>
      <path d="M471.08,139.12h.88l-3.63,10.29h-.88l3.63-10.29Z"/>
      <path d="M473.22,145.01c0-1.92,1.27-3.29,3.03-3.29,1.31,0,2,.84,2.19,1.16h.07v-3.77h.95v9h-.91v-.98h-.07c-.16.23-.8,1.14-2.16,1.14-1.83,0-3.11-1.36-3.11-3.26ZM478.56,145.01c0-1.54-.96-2.42-2.19-2.42s-2.17,1.01-2.17,2.42.89,2.41,2.19,2.41,2.17-1.1,2.17-2.41Z"/>
      <path d="M481.32,140.06c0-.38.29-.68.68-.68s.7.3.7.68-.29.7-.7.7-.68-.3-.68-.7ZM481.52,141.88h.95v6.24h-.95v-6.24Z"/>
      <path d="M484.14,146.3h.92c.11.74.64,1.14,1.55,1.14s1.45-.46,1.45-1.09c0-1.75-3.73-.42-3.73-2.89,0-1.06.95-1.74,2.25-1.74,1.15,0,2.11.67,2.21,1.8h-.91c-.08-.59-.53-.98-1.35-.98-.78,0-1.28.38-1.28.92,0,1.58,3.74.26,3.74,2.84,0,1.17-.97,1.97-2.42,1.97s-2.31-.8-2.42-1.97Z"/>
      <path d="M490.66,140.06c0-.38.29-.68.68-.68s.7.3.7.68-.29.7-.7.7-.68-.3-.68-.7ZM490.85,141.88h.95v6.24h-.95v-6.24Z"/>
      <path d="M493.84,141.88h.95v.91h.07c.26-.56.94-1.07,1.91-1.07,1.45,0,2.33,1.09,2.33,2.47v3.92h-.95v-3.86c0-1-.73-1.64-1.61-1.64-.98,0-1.75.76-1.75,1.79v3.72h-.95v-6.24Z"/>
      <path d="M501.59,142.68h-1.17v-.8h1.17v-.74c0-1.26.88-2.01,2.13-2.01h.59v.83h-.6c-.84,0-1.18.53-1.18,1.2v.73h1.82v.8h-1.82v5.43h-.95v-5.43Z"/>
      <path d="M505.14,145c0-1.88,1.4-3.27,3.26-3.27s3.25,1.4,3.25,3.27-1.39,3.27-3.26,3.27-3.25-1.38-3.25-3.27ZM510.68,145c0-1.38-.95-2.41-2.29-2.41s-2.28,1.04-2.28,2.41.95,2.41,2.28,2.41,2.29-1.02,2.29-2.41Z"/>
      <path d="M513.34,141.88h.94v1.16h.07c.18-.53.79-1.16,1.7-1.16h.53v.95h-.52c-1.14,0-1.77.89-1.77,2.08v3.21h-.95v-6.24Z"/>
      <path d="M518.14,141.88h.95v.9h.07c.3-.58.9-1.06,1.82-1.06s1.62.46,1.97,1.14h.08c.42-.8,1.1-1.14,1.98-1.14,1.39,0,2.29.98,2.29,2.35v4.04h-.95v-3.73c0-1.18-.59-1.78-1.51-1.78s-1.64.62-1.64,1.79v3.72h-.95v-3.91c0-1-.67-1.59-1.55-1.59s-1.62.7-1.62,1.75v3.75h-.95v-6.24Z"/>
      <path d="M528.87,145.01c0-1.92,1.27-3.29,3.03-3.29,1.31,0,2,.84,2.2,1.16h.07v-1.01h.95v6.24h-.91v-.98h-.07c-.16.23-.8,1.14-2.16,1.14-1.83,0-3.11-1.36-3.11-3.26ZM534.2,145.01c0-1.54-.96-2.42-2.19-2.42s-2.17,1.01-2.17,2.42.89,2.41,2.2,2.41,2.17-1.1,2.17-2.41Z"/>
      <path d="M537.73,146.23v-3.55h-1.18v-.8h.94c.17,0,.3-.11.3-.31v-1.5h.89v1.81h1.92v.8h-1.92v3.54c0,.67.25,1.07.97,1.07h.86v.83h-.92c-1.15,0-1.86-.62-1.86-1.88Z"/>
      <path d="M542.09,140.06c0-.38.29-.68.68-.68s.7.3.7.68-.29.7-.7.7-.68-.3-.68-.7ZM542.28,141.88h.95v6.24h-.95v-6.24Z"/>
      <path d="M544.79,145c0-1.88,1.4-3.27,3.26-3.27s3.25,1.4,3.25,3.27-1.39,3.27-3.26,3.27-3.25-1.38-3.25-3.27ZM550.33,145c0-1.38-.95-2.41-2.29-2.41s-2.28,1.04-2.28,2.41.95,2.41,2.28,2.41,2.29-1.02,2.29-2.41Z"/>
      <path d="M552.99,141.88h.95v.91h.07c.26-.56.94-1.07,1.91-1.07,1.45,0,2.33,1.09,2.33,2.47v3.92h-.95v-3.86c0-1-.73-1.64-1.61-1.64-.98,0-1.75.76-1.75,1.79v3.72h-.95v-6.24Z"/>
    </g>
    <g>
      <path d="M431.42,262.06v-5.39h.97v5.37c0,1.39.74,2.28,2.16,2.28s2.17-.89,2.17-2.29v-5.36h.96v5.37c0,1.9-1.14,3.18-3.13,3.18s-3.13-1.26-3.13-3.17Z"/>
      <path d="M439.49,263.26h.92c.11.74.64,1.14,1.55,1.14s1.45-.46,1.45-1.09c0-1.75-3.73-.42-3.73-2.89,0-1.06.95-1.74,2.25-1.74,1.15,0,2.11.67,2.21,1.8h-.91c-.08-.59-.53-.98-1.36-.98-.78,0-1.28.38-1.28.92,0,1.58,3.74.26,3.74,2.84,0,1.17-.97,1.97-2.42,1.97s-2.31-.8-2.42-1.97Z"/>
      <path d="M445.72,261.95c0-1.99,1.36-3.27,3.06-3.27,1.89,0,3.02,1.39,3.02,3.19v.42h-5.08c.05,1.25.85,2.08,2.13,2.08.83,0,1.62-.4,1.91-1.13h.98c-.35,1.16-1.44,1.99-2.9,1.99-1.91,0-3.12-1.4-3.12-3.27ZM450.79,261.45c-.08-1.25-.96-1.91-2.01-1.91s-1.94.75-2.04,1.91h4.05Z"/>
      <path d="M456.36,261.95c0-1.88,1.4-3.27,3.26-3.27s3.25,1.4,3.25,3.27-1.39,3.27-3.26,3.27-3.25-1.38-3.25-3.27ZM461.9,261.95c0-1.38-.95-2.41-2.29-2.41s-2.28,1.04-2.28,2.41.95,2.41,2.28,2.41,2.29-1.02,2.29-2.41Z"/>
      <path d="M465.01,259.64h-1.17v-.8h1.17v-.74c0-1.26.88-2.02,2.13-2.02h.59v.83h-.6c-.84,0-1.18.53-1.18,1.2v.73h1.82v.8h-1.82v5.43h-.95v-5.43Z"/>
      <path d="M475.16,256.68h1.14l3.23,8.4h-1.02l-.75-1.99h-4.05l-.76,1.99h-1.02l3.24-8.4ZM477.42,262.19l-1.66-4.39h-.07l-1.66,4.39h3.38Z"/>
      <path d="M480.97,256.68h.97v8.4h-.97v-8.4Z"/>
      <path d="M487.39,257.01c0-.38.29-.68.68-.68s.7.3.7.68-.29.7-.7.7-.68-.3-.68-.7ZM487.58,258.83h.95v6.24h-.95v-6.24Z"/>
      <path d="M490.57,258.83h.95v.91h.07c.26-.56.94-1.07,1.91-1.07,1.45,0,2.33,1.09,2.33,2.47v3.92h-.95v-3.86c0-1-.73-1.64-1.61-1.64-.98,0-1.75.76-1.75,1.79v3.72h-.95v-6.24Z"/>
      <path d="M500.51,258.83h1.03l1.51,5.16h.07l1.65-5.16h1.08l1.64,5.16h.07l1.52-5.16h1.03l-1.96,6.24h-1.22l-1.59-5.06h-.07l-1.61,5.06h-1.22l-1.94-6.24Z"/>
      <path d="M510.85,261.96c0-1.92,1.27-3.29,3.03-3.29,1.31,0,2,.84,2.2,1.16h.07v-1.01h.95v6.24h-.91v-.98h-.07c-.16.23-.8,1.14-2.16,1.14-1.83,0-3.11-1.36-3.11-3.26ZM516.19,261.96c0-1.54-.96-2.42-2.19-2.42s-2.17,1.01-2.17,2.42.89,2.41,2.2,2.41,2.17-1.1,2.17-2.41Z"/>
      <path d="M519.14,258.83h.94v1.16h.07c.18-.53.79-1.16,1.7-1.16h.53v.95h-.52c-1.14,0-1.78.89-1.78,2.08v3.21h-.95v-6.24Z"/>
      <path d="M524.4,259.64h-1.18v-.8h1.18v-.74c0-1.26.88-2.02,2.13-2.02h.59v.83h-.6c-.84,0-1.18.53-1.18,1.2v.73h1.82v.8h-1.82v5.43h-.95v-5.43Z"/>
      <path d="M527.95,261.96c0-1.92,1.27-3.29,3.03-3.29,1.31,0,2,.84,2.19,1.16h.07v-1.01h.95v6.24h-.91v-.98h-.07c-.16.23-.8,1.14-2.16,1.14-1.83,0-3.11-1.36-3.11-3.26ZM533.29,261.96c0-1.54-.96-2.42-2.19-2.42s-2.17,1.01-2.17,2.42.89,2.41,2.19,2.41,2.17-1.1,2.17-2.41Z"/>
      <path d="M536.24,258.83h.94v1.16h.07c.18-.53.79-1.16,1.7-1.16h.53v.95h-.52c-1.14,0-1.78.89-1.78,2.08v3.21h-.95v-6.24Z"/>
      <path d="M540.32,261.95c0-1.99,1.36-3.27,3.06-3.27,1.89,0,3.02,1.39,3.02,3.19v.42h-5.08c.05,1.25.85,2.08,2.13,2.08.83,0,1.62-.4,1.91-1.13h.98c-.35,1.16-1.44,1.99-2.9,1.99-1.91,0-3.12-1.4-3.12-3.27ZM545.4,261.45c-.08-1.25-.96-1.91-2.01-1.91s-1.94.75-2.04,1.91h4.05Z"/>
      <path d="M551.21,261.02h3.06v.89h-3.06v-.89Z"/>
      <path d="M400.62,276.37c0-1.92,1.27-3.29,3.03-3.29,1.31,0,2,.84,2.19,1.16h.07v-1.01h.95v6.24h-.91v-.98h-.07c-.16.23-.8,1.14-2.16,1.14-1.83,0-3.11-1.35-3.11-3.26ZM405.96,276.37c0-1.54-.96-2.42-2.19-2.42s-2.17,1.01-2.17,2.42.89,2.41,2.19,2.41,2.17-1.1,2.17-2.41Z"/>
      <path d="M408.79,277.16v-3.92h.95v3.89c0,1,.73,1.64,1.61,1.64.98,0,1.75-.76,1.75-1.79v-3.74h.95v6.24h-.95v-.91h-.07c-.26.56-.94,1.07-1.91,1.07-1.45,0-2.33-1.09-2.33-2.47Z"/>
      <path d="M416.66,277.59v-3.55h-1.17v-.8h.93c.17,0,.3-.11.3-.31v-1.5h.89v1.81h1.92v.8h-1.92v3.54c0,.67.25,1.07.97,1.07h.86v.83h-.92c-1.15,0-1.86-.62-1.86-1.88Z"/>
      <path d="M420.73,276.35c0-1.88,1.4-3.27,3.26-3.27s3.25,1.4,3.25,3.27-1.39,3.27-3.26,3.27-3.25-1.38-3.25-3.27ZM426.27,276.35c0-1.38-.95-2.41-2.29-2.41s-2.28,1.04-2.28,2.41.95,2.41,2.28,2.41,2.29-1.02,2.29-2.41Z"/>
      <path d="M428.93,273.24h.95v.91h.07c.26-.56.94-1.07,1.91-1.07,1.45,0,2.33,1.09,2.33,2.47v3.92h-.95v-3.86c0-1-.73-1.64-1.61-1.64-.98,0-1.75.75-1.75,1.79v3.72h-.95v-6.24Z"/>
      <path d="M435.74,276.35c0-1.88,1.4-3.27,3.26-3.27s3.25,1.4,3.25,3.27-1.39,3.27-3.26,3.27-3.25-1.38-3.25-3.27ZM441.28,276.35c0-1.38-.95-2.41-2.29-2.41s-2.28,1.04-2.28,2.41.95,2.41,2.28,2.41,2.29-1.02,2.29-2.41Z"/>
      <path d="M443.94,273.24h.95v.9h.07c.3-.58.9-1.06,1.82-1.06s1.62.46,1.97,1.14h.08c.42-.8,1.1-1.14,1.98-1.14,1.39,0,2.29.98,2.29,2.35v4.04h-.95v-3.73c0-1.17-.59-1.77-1.51-1.77s-1.64.62-1.64,1.79v3.72h-.95v-3.91c0-1-.67-1.59-1.55-1.59s-1.62.7-1.62,1.75v3.75h-.95v-6.24Z"/>
      <path d="M454.67,276.35c0-1.88,1.4-3.27,3.26-3.27s3.25,1.4,3.25,3.27-1.39,3.27-3.26,3.27-3.25-1.38-3.25-3.27ZM460.21,276.35c0-1.38-.95-2.41-2.29-2.41s-2.28,1.04-2.28,2.41.95,2.41,2.28,2.41,2.29-1.02,2.29-2.41Z"/>
      <path d="M462.74,277.16v-3.92h.95v3.89c0,1,.73,1.64,1.61,1.64.98,0,1.75-.76,1.75-1.79v-3.74h.95v6.24h-.95v-.91h-.07c-.26.56-.94,1.07-1.91,1.07-1.45,0-2.33-1.09-2.33-2.47Z"/>
      <path d="M469.68,277.66h.92c.11.74.64,1.14,1.55,1.14s1.45-.46,1.45-1.09c0-1.75-3.73-.42-3.73-2.89,0-1.06.95-1.74,2.25-1.74,1.15,0,2.11.67,2.21,1.8h-.91c-.08-.59-.53-.98-1.36-.98-.78,0-1.28.38-1.28.92,0,1.58,3.74.26,3.74,2.84,0,1.18-.97,1.97-2.42,1.97s-2.31-.8-2.42-1.97Z"/>
      <path d="M479.03,273.24h1.03l1.51,5.16h.07l1.66-5.16h1.08l1.64,5.16h.07l1.52-5.16h1.03l-1.96,6.24h-1.22l-1.6-5.06h-.07l-1.61,5.06h-1.22l-1.94-6.24Z"/>
      <path d="M489.37,276.35c0-1.99,1.36-3.27,3.06-3.27,1.89,0,3.02,1.39,3.02,3.19v.42h-5.08c.05,1.25.85,2.07,2.13,2.07.83,0,1.62-.4,1.91-1.13h.98c-.35,1.16-1.44,1.99-2.9,1.99-1.91,0-3.12-1.4-3.12-3.27ZM494.44,275.85c-.08-1.25-.96-1.91-2.01-1.91s-1.94.76-2.04,1.91h4.05Z"/>
      <path d="M496.66,276.37c0-1.92,1.27-3.29,3.03-3.29,1.31,0,2,.84,2.2,1.16h.07v-1.01h.95v6.24h-.91v-.98h-.07c-.16.23-.8,1.14-2.16,1.14-1.83,0-3.11-1.35-3.11-3.26ZM501.99,276.37c0-1.54-.96-2.42-2.19-2.42s-2.17,1.01-2.17,2.42.89,2.41,2.2,2.41,2.17-1.1,2.17-2.41Z"/>
      <path d="M504.95,273.24h.91v.98h.07c.16-.23.8-1.14,2.16-1.14,1.83,0,3.11,1.36,3.11,3.26s-1.27,3.29-3.04,3.29c-1.31,0-2-.84-2.19-1.16h-.07v3.77h-.95v-8.99ZM510.22,276.34c0-1.46-.89-2.41-2.2-2.41s-2.17,1.1-2.17,2.41c0,1.54.96,2.42,2.2,2.42s2.17-1.01,2.17-2.42Z"/>
      <path d="M512.4,276.35c0-1.88,1.4-3.27,3.26-3.27s3.25,1.4,3.25,3.27-1.39,3.27-3.26,3.27-3.25-1.38-3.25-3.27ZM517.94,276.35c0-1.38-.95-2.41-2.29-2.41s-2.28,1.04-2.28,2.41.95,2.41,2.28,2.41,2.29-1.02,2.29-2.41Z"/>
      <path d="M520.6,273.24h.95v.91h.07c.26-.56.94-1.07,1.91-1.07,1.45,0,2.33,1.09,2.33,2.47v3.92h-.95v-3.86c0-1-.73-1.64-1.61-1.64-.98,0-1.75.75-1.75,1.79v3.72h-.95v-6.24Z"/>
      <path d="M527.53,277.66h.92c.11.74.64,1.14,1.55,1.14s1.45-.46,1.45-1.09c0-1.75-3.73-.42-3.73-2.89,0-1.06.95-1.74,2.25-1.74,1.15,0,2.11.67,2.21,1.8h-.91c-.08-.59-.53-.98-1.36-.98-.78,0-1.28.38-1.28.92,0,1.58,3.74.26,3.74,2.84,0,1.18-.97,1.97-2.42,1.97s-2.31-.8-2.42-1.97Z"/>
      <path d="M537.24,277.66h.92c.11.74.64,1.14,1.55,1.14s1.45-.46,1.45-1.09c0-1.75-3.73-.42-3.73-2.89,0-1.06.95-1.74,2.25-1.74,1.15,0,2.11.67,2.21,1.8h-.91c-.08-.59-.53-.98-1.35-.98-.78,0-1.28.38-1.28.92,0,1.58,3.74.26,3.74,2.84,0,1.18-.97,1.97-2.42,1.97s-2.31-.8-2.42-1.97Z"/>
      <path d="M543.48,281.37h.47c.61,0,.96-.26,1.16-.8l.29-.75-2.53-6.57h1.06l1.93,5.28h.07l1.94-5.28h1.07l-2.97,7.66c-.32.85-.82,1.33-1.83,1.33h-.65v-.86Z"/>
      <path d="M549.84,277.66h.92c.11.74.64,1.14,1.55,1.14s1.45-.46,1.45-1.09c0-1.75-3.73-.42-3.73-2.89,0-1.06.95-1.74,2.25-1.74,1.15,0,2.11.67,2.21,1.8h-.91c-.08-.59-.53-.98-1.36-.98-.78,0-1.28.38-1.28.92,0,1.58,3.74.26,3.74,2.84,0,1.18-.97,1.97-2.42,1.97s-2.31-.8-2.42-1.97Z"/>
      <path d="M557.12,277.59v-3.55h-1.17v-.8h.93c.17,0,.3-.11.3-.31v-1.5h.89v1.81h1.92v.8h-1.92v3.54c0,.67.25,1.07.97,1.07h.86v.83h-.92c-1.15,0-1.86-.62-1.86-1.88Z"/>
      <path d="M561.19,276.35c0-1.99,1.36-3.27,3.06-3.27,1.89,0,3.02,1.39,3.02,3.19v.42h-5.09c.05,1.25.85,2.07,2.13,2.07.83,0,1.62-.4,1.91-1.13h.98c-.35,1.16-1.44,1.99-2.9,1.99-1.91,0-3.12-1.4-3.12-3.27ZM566.26,275.85c-.08-1.25-.96-1.91-2.01-1.91s-1.94.76-2.04,1.91h4.05Z"/>
      <path d="M568.95,273.24h.95v.9h.07c.3-.58.9-1.06,1.82-1.06s1.62.46,1.97,1.14h.08c.42-.8,1.1-1.14,1.98-1.14,1.39,0,2.29.98,2.29,2.35v4.04h-.95v-3.73c0-1.17-.59-1.77-1.51-1.77s-1.64.62-1.64,1.79v3.72h-.95v-3.91c0-1-.67-1.59-1.55-1.59s-1.62.7-1.62,1.75v3.75h-.95v-6.24Z"/>
      <path d="M579.8,277.66h.92c.11.74.63,1.14,1.55,1.14s1.45-.46,1.45-1.09c0-1.75-3.73-.42-3.73-2.89,0-1.06.95-1.74,2.25-1.74,1.15,0,2.11.67,2.21,1.8h-.91c-.08-.59-.53-.98-1.36-.98-.78,0-1.28.38-1.28.92,0,1.58,3.74.26,3.74,2.84,0,1.18-.97,1.97-2.42,1.97s-2.32-.8-2.42-1.97Z"/>
    </g>
    <g>
      <rect class="st7" x="86.3" y="57.6" width="27.38" height="2" transform="translate(-10.68 24.18) rotate(-13.09)"/>
      <polygon class="st7" points="113.12 59.13 118.22 54.36 111.54 52.33 113.12 59.13"/>
    </g>
    <g>
      <circle class="st4" cx="112.9" cy="88.45" r="20"/>
      <path class="st2" d="M112.9,109.45c-11.58,0-21-9.42-21-21s9.42-21,21-21,21,9.42,21,21-9.42,21-21,21ZM112.9,69.45c-10.48,0-19,8.52-19,19s8.52,19,19,19,19-8.52,19-19-8.52-19-19-19Z"/>
    </g>
    <g>
      <rect class="st4" x="126.43" y="81.74" width="17.34" height="2" transform="translate(-15.23 32.76) rotate(-13.09)"/>
      <polygon class="st4" points="143.35 84.4 148.44 79.63 141.76 77.6 143.35 84.4"/>
    </g>
    <g>
      <circle class="st5" cx="211.67" cy="135.41" r="20"/>
      <path class="st2" d="M211.67,156.41c-11.58,0-21-9.42-21-21s9.42-21,21-21,21,9.42,21,21-9.42,21-21,21ZM211.67,116.41c-10.48,0-19,8.52-19,19s8.52,19,19,19,19-8.52,19-19-8.52-19-19-19Z"/>
    </g>
    <g>
      <rect class="st5" x="208.57" y="106.93" width="79.96" height="2" transform="translate(-12.57 180.35) rotate(-38.97)"/>
      <polygon class="st5" points="281.03 86.15 283.54 79.63 276.64 80.72 281.03 86.15"/>
    </g>
    <g>
      <circle class="st6" cx="283.07" cy="182.3" r="20"/>
      <path class="st2" d="M283.07,203.3c-11.58,0-21-9.42-21-21s9.42-21,21-21,21,9.42,21,21-9.42,21-21,21ZM283.07,163.3c-10.48,0-19,8.52-19,19s8.52,19,19,19,19-8.52,19-19-8.52-19-19-19Z"/>
    </g>
    <g>
      <rect class="st6" x="264.05" y="140.69" width="94.69" height="2" transform="translate(13.55 310) rotate(-53.94)"/>
      <polygon class="st6" points="341.48 106.29 342.22 99.34 335.84 102.18 341.48 106.29"/>
    </g>
    <g>
      <circle class="st3" cx="487.81" cy="233.78" r="20"/>
      <path class="st2" d="M487.81,254.78c-11.58,0-21-9.42-21-21s9.42-21,21-21,21,9.42,21,21-9.42,21-21,21ZM487.81,214.78c-10.48,0-19,8.52-19,19s8.52,19,19,19,19-8.52,19-19-8.52-19-19-19Z"/>
    </g>
    <g>
      <rect class="st3" x="487.82" y="225.79" width="47.9" height="2" transform="translate(-34.33 103.83) rotate(-11.21)"/>
      <polygon class="st3" points="534.94 225.76 540.19 221.16 533.59 218.91 534.94 225.76"/>
    </g>
    <g>
      <circle class="st1" cx="532.77" cy="179.97" r="20"/>
      <path class="st2" d="M532.77,200.97c-11.58,0-21-9.42-21-21s9.42-21,21-21,21,9.42,21,21-9.42,21-21,21ZM532.77,160.97c-10.48,0-19,8.52-19,19s8.52,19,19,19,19-8.52,19-19-8.52-19-19-19Z"/>
    </g>
    <g>
      <rect class="st1" x="529.49" y="162.76" width="55.08" height="2" transform="translate(-6.66 302.86) rotate(-30.24)"/>
      <polygon class="st1" points="581.7 153.41 585.16 147.35 578.18 147.38 581.7 153.41"/>
    </g>
  </g>
</svg>